*
*
G04 PADS 9.2 Build Number: 406656 generated Gerber (RS-274-X) file*
G04 PC Version=2.1*
*
%IN "POWERDESIGN_PCB_V03_051"*%
*
%MOIN*%
*
%FSLAX35Y35*%
*
*
*
*
G04 PC Standard Apertures*
*
*
G04 Thermal Relief Aperture macro.*
%AMTER*
1,1,$1,0,0*
1,0,$1-$2,0,0*
21,0,$3,$4,0,0,45*
21,0,$3,$4,0,0,135*
%
*
*
G04 Annular Aperture macro.*
%AMANN*
1,1,$1,0,0*
1,0,$2,0,0*
%
*
*
G04 Odd Aperture macro.*
%AMODD*
1,1,$1,0,0*
1,0,$1-0.005,0,0*
%
*
*
G04 PC Custom Aperture Macros*
*
*
*
*
*
*
G04 PC Aperture Table*
*
%ADD033C,0.01*%
%ADD045C,0.001*%
*
*
*
*
G04 PC Circuitry*
G04 Layer Name POWERDESIGN_PCB_V03_051 - circuitry*
%LPD*%
*
*
G04 PC Custom Flashes*
G04 Layer Name POWERDESIGN_PCB_V03_051 - flashes*
%LPD*%
*
*
G04 PC Circuitry*
G04 Layer Name POWERDESIGN_PCB_V03_051 - circuitry*
%LPD*%
*
G54D33*
G01X192000Y327500D02*
X200000D01*
X196000Y323500D02*
Y331500D01*
X287500Y308500D02*
X295500D01*
X291500Y304500D02*
Y312500D01*
X324500Y219000D02*
X332500D01*
X328500Y215000D02*
Y223000D01*
X160500Y385000D02*
X168500D01*
X164500Y381000D02*
Y389000D01*
X177000Y385000D02*
X185000D01*
X181000Y381000D02*
Y389000D01*
X552000Y487500D02*
X560000D01*
X556000Y483500D02*
Y491500D01*
X598500Y268000D02*
X606500D01*
X602500Y264000D02*
Y272000D01*
X560500Y255500D02*
X568500D01*
X564500Y251500D02*
Y259500D01*
X570500Y255500D02*
X578500D01*
X574500Y251500D02*
Y259500D01*
X513000Y193500D02*
X521000D01*
X517000Y189500D02*
Y197500D01*
X596000Y236000D02*
X604000D01*
X600000Y232000D02*
Y240000D01*
X607000Y236000D02*
X615000D01*
X611000Y232000D02*
Y240000D01*
X625000Y504000D02*
X633000D01*
X629000Y500000D02*
Y508000D01*
X462500Y504000D02*
X470500D01*
X466500Y500000D02*
Y508000D01*
X287500Y204000D02*
X295500D01*
X291500Y200000D02*
Y208000D01*
X267500Y204000D02*
X275500D01*
X271500Y200000D02*
Y208000D01*
X270500Y234000D02*
X278500D01*
X274500Y230000D02*
Y238000D01*
X653500Y380500D02*
X661500Y388500D01*
X653500D02*
X661500Y380500D01*
X653500Y370500D02*
X661500Y378500D01*
X653500D02*
X661500Y370500D01*
X653500Y360500D02*
X661500Y368500D01*
X653500D02*
X661500Y360500D01*
X653500Y350500D02*
X661500Y358500D01*
X653500D02*
X661500Y350500D01*
X653500Y340500D02*
X661500Y348500D01*
X653500D02*
X661500Y340500D01*
X643000Y515500D02*
X651000D01*
Y523500*
X643000*
Y515500*
X647000Y519500D02*
Y523500D01*
Y525000D02*
X651000Y529000D01*
X647000Y533000*
X643000Y529000*
X647000Y525000*
Y529000D02*
Y533000D01*
X637500Y515500D02*
X641500Y519500D01*
X637500Y523500*
X633500Y519500*
X637500Y515500*
Y519500D02*
Y523500D01*
X647000Y506000D02*
X651000Y510000D01*
X647000Y514000*
X643000Y510000*
X647000Y506000*
Y510000D02*
Y514000D01*
X656500Y515500D02*
X660500Y519500D01*
X656500Y523500*
X652500Y519500*
X656500Y515500*
Y519500D02*
Y523500D01*
X653750Y522250D02*
X657750Y526250D01*
X653750Y530250*
X649750Y526250*
X653750Y522250*
Y526250D02*
Y530250D01*
X640250Y522250D02*
X644250Y526250D01*
X640250Y530250*
X636250Y526250*
X640250Y522250*
Y526250D02*
Y530250D01*
Y508750D02*
X644250Y512750D01*
X640250Y516750*
X636250Y512750*
X640250Y508750*
Y512750D02*
Y516750D01*
X653750Y508750D02*
X657750Y512750D01*
X653750Y516750*
X649750Y512750*
X653750Y508750*
Y512750D02*
Y516750D01*
X113500Y515500D02*
X121500D01*
Y523500*
X113500*
Y515500*
X117500Y519500D02*
Y523500D01*
Y525000D02*
X121500Y529000D01*
X117500Y533000*
X113500Y529000*
X117500Y525000*
Y529000D02*
Y533000D01*
X108000Y515500D02*
X112000Y519500D01*
X108000Y523500*
X104000Y519500*
X108000Y515500*
Y519500D02*
Y523500D01*
X117500Y506000D02*
X121500Y510000D01*
X117500Y514000*
X113500Y510000*
X117500Y506000*
Y510000D02*
Y514000D01*
X127000Y515500D02*
X131000Y519500D01*
X127000Y523500*
X123000Y519500*
X127000Y515500*
Y519500D02*
Y523500D01*
X124250Y522250D02*
X128250Y526250D01*
X124250Y530250*
X120250Y526250*
X124250Y522250*
Y526250D02*
Y530250D01*
X110750Y522250D02*
X114750Y526250D01*
X110750Y530250*
X106750Y526250*
X110750Y522250*
Y526250D02*
Y530250D01*
Y508750D02*
X114750Y512750D01*
X110750Y516750*
X106750Y512750*
X110750Y508750*
Y512750D02*
Y516750D01*
X124250Y508750D02*
X128250Y512750D01*
X124250Y516750*
X120250Y512750*
X124250Y508750*
Y512750D02*
Y516750D01*
X113500Y113500D02*
X121500D01*
Y121500*
X113500*
Y113500*
X117500Y117500D02*
Y121500D01*
Y123000D02*
X121500Y127000D01*
X117500Y131000*
X113500Y127000*
X117500Y123000*
Y127000D02*
Y131000D01*
X108000Y113500D02*
X112000Y117500D01*
X108000Y121500*
X104000Y117500*
X108000Y113500*
Y117500D02*
Y121500D01*
X117500Y104000D02*
X121500Y108000D01*
X117500Y112000*
X113500Y108000*
X117500Y104000*
Y108000D02*
Y112000D01*
X127000Y113500D02*
X131000Y117500D01*
X127000Y121500*
X123000Y117500*
X127000Y113500*
Y117500D02*
Y121500D01*
X124250Y120250D02*
X128250Y124250D01*
X124250Y128250*
X120250Y124250*
X124250Y120250*
Y124250D02*
Y128250D01*
X110750Y120250D02*
X114750Y124250D01*
X110750Y128250*
X106750Y124250*
X110750Y120250*
Y124250D02*
Y128250D01*
Y106750D02*
X114750Y110750D01*
X110750Y114750*
X106750Y110750*
X110750Y106750*
Y110750D02*
Y114750D01*
X124250Y106750D02*
X128250Y110750D01*
X124250Y114750*
X120250Y110750*
X124250Y106750*
Y110750D02*
Y114750D01*
X643000Y113500D02*
X651000D01*
Y121500*
X643000*
Y113500*
X647000Y117500D02*
Y121500D01*
Y123000D02*
X651000Y127000D01*
X647000Y131000*
X643000Y127000*
X647000Y123000*
Y127000D02*
Y131000D01*
X637500Y113500D02*
X641500Y117500D01*
X637500Y121500*
X633500Y117500*
X637500Y113500*
Y117500D02*
Y121500D01*
X647000Y104000D02*
X651000Y108000D01*
X647000Y112000*
X643000Y108000*
X647000Y104000*
Y108000D02*
Y112000D01*
X656500Y113500D02*
X660500Y117500D01*
X656500Y121500*
X652500Y117500*
X656500Y113500*
Y117500D02*
Y121500D01*
X653750Y120250D02*
X657750Y124250D01*
X653750Y128250*
X649750Y124250*
X653750Y120250*
Y124250D02*
Y128250D01*
X640250Y120250D02*
X644250Y124250D01*
X640250Y128250*
X636250Y124250*
X640250Y120250*
Y124250D02*
Y128250D01*
Y106750D02*
X644250Y110750D01*
X640250Y114750*
X636250Y110750*
X640250Y106750*
Y110750D02*
Y114750D01*
X653750Y106750D02*
X657750Y110750D01*
X653750Y114750*
X649750Y110750*
X653750Y106750*
Y110750D02*
Y114750D01*
X120000Y180000D02*
X128000D01*
X124000Y176000D02*
Y184000D01*
X167500Y435500D02*
X175500D01*
X171500Y431500D02*
Y439500D01*
X154500Y504000D02*
X162500D01*
X158500Y500000D02*
Y508000D01*
X397500Y504000D02*
X405500D01*
X401500Y500000D02*
Y508000D01*
X235500Y504000D02*
X243500D01*
X239500Y500000D02*
Y508000D01*
X317000Y503500D02*
X325000D01*
X321000Y499500D02*
Y507500D01*
X479000Y504000D02*
X487000D01*
X483000Y500000D02*
Y508000D01*
X383000Y132500D02*
X391000D01*
X387000Y128500D02*
Y136500D01*
X465500Y132500D02*
X473500D01*
X469500Y128500D02*
Y136500D01*
X221000Y132500D02*
X229000D01*
X225000Y128500D02*
Y136500D01*
X546000Y133500D02*
X554000D01*
X550000Y129500D02*
Y137500D01*
X653000Y133500D02*
X661000D01*
X657000Y129500D02*
Y137500D01*
X560000Y504000D02*
X568000D01*
X564000Y500000D02*
Y508000D01*
X300500Y504000D02*
X308500D01*
X304500Y500000D02*
Y508000D01*
X382000Y504000D02*
X390000D01*
X386000Y500000D02*
Y508000D01*
X544500Y504000D02*
X552500D01*
X548500Y500000D02*
Y508000D01*
X318500Y132500D02*
X326500D01*
X322500Y128500D02*
Y136500D01*
X399000Y132500D02*
X407000D01*
X403000Y128500D02*
Y136500D01*
X156000Y132000D02*
X164000D01*
X160000Y128000D02*
Y136000D01*
X481000Y132500D02*
X489000D01*
X485000Y128500D02*
Y136500D01*
X560500Y133500D02*
X568500D01*
X564500Y129500D02*
Y137500D01*
X222000Y504000D02*
X230000D01*
X226000Y500000D02*
Y508000D01*
X236000Y132500D02*
X244000D01*
X240000Y128500D02*
Y136500D01*
X302000Y132500D02*
X310000D01*
X306000Y128500D02*
Y136500D01*
X148000Y326000D02*
X156000D01*
X152000Y322000D02*
Y330000D01*
X148000Y306500D02*
X156000D01*
X152000Y302500D02*
Y310500D01*
X472500Y249500D02*
X480500D01*
X472500Y257500*
X480500*
X472500Y249500*
X482500D02*
X490500D01*
X482500Y257500*
X490500*
X482500Y249500*
X492500D02*
X500500D01*
X492500Y257500*
X500500*
X492500Y249500*
X502500D02*
X510500D01*
X502500Y257500*
X510500*
X502500Y249500*
Y279500D02*
X510500D01*
X502500Y287500*
X510500*
X502500Y279500*
X492500D02*
X500500D01*
X492500Y287500*
X500500*
X492500Y279500*
X482500D02*
X490500D01*
X482500Y287500*
X490500*
X482500Y279500*
X472500D02*
X480500D01*
X472500Y287500*
X480500*
X472500Y279500*
X110500Y319500D02*
X118500Y327500D01*
Y319500*
X110500Y327500*
Y319500*
Y299500D02*
X118500Y307500D01*
Y299500*
X110500Y307500*
Y299500*
X421000Y110500D02*
X429000Y118500D01*
Y110500*
X421000Y118500*
Y110500*
X441000D02*
X449000Y118500D01*
Y110500*
X441000Y118500*
Y110500*
X502000D02*
X510000Y118500D01*
Y110500*
X502000Y118500*
Y110500*
X522000D02*
X530000Y118500D01*
Y110500*
X522000Y118500*
Y110500*
X583000D02*
X591000Y118500D01*
Y110500*
X583000Y118500*
Y110500*
X603000D02*
X611000Y118500D01*
Y110500*
X603000Y118500*
Y110500*
X178500D02*
X186500Y118500D01*
Y110500*
X178500Y118500*
Y110500*
X198500D02*
X206500Y118500D01*
Y110500*
X198500Y118500*
Y110500*
X198000Y518000D02*
X206000Y526000D01*
Y518000*
X198000Y526000*
Y518000*
X178000D02*
X186000Y526000D01*
Y518000*
X178000Y526000*
Y518000*
X603000D02*
X611000Y526000D01*
Y518000*
X603000Y526000*
Y518000*
X583000D02*
X591000Y526000D01*
Y518000*
X583000Y526000*
Y518000*
X441000D02*
X449000Y526000D01*
Y518000*
X441000Y526000*
Y518000*
X421000D02*
X429000Y526000D01*
Y518000*
X421000Y526000*
Y518000*
X522000D02*
X530000Y526000D01*
Y518000*
X522000Y526000*
Y518000*
X502000D02*
X510000Y526000D01*
Y518000*
X502000Y526000*
Y518000*
X279000D02*
X287000Y526000D01*
Y518000*
X279000Y526000*
Y518000*
X259000D02*
X267000Y526000D01*
Y518000*
X259000Y526000*
Y518000*
X360000D02*
X368000Y526000D01*
Y518000*
X360000Y526000*
Y518000*
X340000D02*
X348000Y526000D01*
Y518000*
X340000Y526000*
Y518000*
Y110500D02*
X348000Y118500D01*
Y110500*
X340000Y118500*
Y110500*
X360000D02*
X368000Y118500D01*
Y110500*
X360000Y118500*
Y110500*
X259000D02*
X267000Y118500D01*
Y110500*
X259000Y118500*
Y110500*
X279000D02*
X287000Y118500D01*
Y110500*
X279000Y118500*
Y110500*
X653500Y417500D02*
X661500D01*
X653500Y425500*
X661500*
X653500Y417500*
Y407500D02*
X661500D01*
X653500Y415500*
X661500*
X653500Y407500*
Y397500D02*
X661500D01*
X653500Y405500*
X661500*
X653500Y397500*
X156500Y104000D02*
X160500Y108000D01*
X156500Y112000*
X152500Y108000*
X156500Y104000*
Y108000D02*
Y112000D01*
X315500Y109000D02*
X319500Y113000D01*
X315500Y117000*
X311500Y113000*
X315500Y109000*
Y113000D02*
Y117000D01*
X397500Y108500D02*
X401500Y112500D01*
X397500Y116500*
X393500Y112500*
X397500Y108500*
Y112500D02*
Y116500D01*
X565000Y104500D02*
X569000Y108500D01*
X565000Y112500*
X561000Y108500*
X565000Y104500*
Y108500D02*
Y112500D01*
X134000Y123000D02*
X138000Y127000D01*
X134000Y131000*
X130000Y127000*
X134000Y123000*
Y127000D02*
Y131000D01*
X147500Y123500D02*
X151500Y127500D01*
X147500Y131500*
X143500Y127500*
X147500Y123500*
Y127500D02*
Y131500D01*
X240500Y113500D02*
X244500Y117500D01*
X240500Y121500*
X236500Y117500*
X240500Y113500*
Y117500D02*
Y121500D01*
X321500Y113500D02*
X325500Y117500D01*
X321500Y121500*
X317500Y117500*
X321500Y113500*
Y117500D02*
Y121500D01*
X405500Y113500D02*
X409500Y117500D01*
X405500Y121500*
X401500Y117500*
X405500Y113500*
Y117500D02*
Y121500D01*
X565000Y113500D02*
X569000Y117500D01*
X565000Y121500*
X561000Y117500*
X565000Y113500*
Y117500D02*
Y121500D01*
X134000Y134000D02*
X138000Y138000D01*
X134000Y142000*
X130000Y138000*
X134000Y134000*
Y138000D02*
Y142000D01*
Y147500D02*
X138000Y151500D01*
X134000Y155500*
X130000Y151500*
X134000Y147500*
Y151500D02*
Y155500D01*
X147000Y134000D02*
X151000Y138000D01*
X147000Y142000*
X143000Y138000*
X147000Y134000*
Y138000D02*
Y142000D01*
X151000Y148500D02*
X155000Y152500D01*
X151000Y156500*
X147000Y152500*
X151000Y148500*
Y152500D02*
Y156500D01*
X162500Y148500D02*
X166500Y152500D01*
X162500Y156500*
X158500Y152500*
X162500Y148500*
Y152500D02*
Y156500D01*
X195000Y142500D02*
X199000Y146500D01*
X195000Y150500*
X191000Y146500*
X195000Y142500*
Y146500D02*
Y150500D01*
X212500Y142500D02*
X216500Y146500D01*
X212500Y150500*
X208500Y146500*
X212500Y142500*
Y146500D02*
Y150500D01*
X205000Y147000D02*
X209000Y151000D01*
X205000Y155000*
X201000Y151000*
X205000Y147000*
Y151000D02*
Y155000D01*
X201000Y142500D02*
X205000Y146500D01*
X201000Y150500*
X197000Y146500*
X201000Y142500*
Y146500D02*
Y150500D01*
X207000Y142500D02*
X211000Y146500D01*
X207000Y150500*
X203000Y146500*
X207000Y142500*
Y146500D02*
Y150500D01*
X236500Y142500D02*
X240500Y146500D01*
X236500Y150500*
X232500Y146500*
X236500Y142500*
Y146500D02*
Y150500D01*
X230000Y142500D02*
X234000Y146500D01*
X230000Y150500*
X226000Y146500*
X230000Y142500*
Y146500D02*
Y150500D01*
X243000Y142500D02*
X247000Y146500D01*
X243000Y150500*
X239000Y146500*
X243000Y142500*
Y146500D02*
Y150500D01*
X290500Y143500D02*
X294500Y147500D01*
X290500Y151500*
X286500Y147500*
X290500Y143500*
Y147500D02*
Y151500D01*
X298000Y143500D02*
X302000Y147500D01*
X298000Y151500*
X294000Y147500*
X298000Y143500*
Y147500D02*
Y151500D01*
X361000Y148000D02*
X365000Y152000D01*
X361000Y156000*
X357000Y152000*
X361000Y148000*
Y152000D02*
Y156000D01*
X366000Y148000D02*
X370000Y152000D01*
X366000Y156000*
X362000Y152000*
X366000Y148000*
Y152000D02*
Y156000D01*
X371500Y148000D02*
X375500Y152000D01*
X371500Y156000*
X367500Y152000*
X371500Y148000*
Y152000D02*
Y156000D01*
X438500Y143500D02*
X442500Y147500D01*
X438500Y151500*
X434500Y147500*
X438500Y143500*
Y147500D02*
Y151500D01*
X445000Y143500D02*
X449000Y147500D01*
X445000Y151500*
X441000Y147500*
X445000Y143500*
Y147500D02*
Y151500D01*
X450500Y143500D02*
X454500Y147500D01*
X450500Y151500*
X446500Y147500*
X450500Y143500*
Y147500D02*
Y151500D01*
X489000Y145500D02*
X493000Y149500D01*
X489000Y153500*
X485000Y149500*
X489000Y145500*
Y149500D02*
Y153500D01*
X500000Y145500D02*
X504000Y149500D01*
X500000Y153500*
X496000Y149500*
X500000Y145500*
Y149500D02*
Y153500D01*
X523500Y146500D02*
X527500Y150500D01*
X523500Y154500*
X519500Y150500*
X523500Y146500*
Y150500D02*
Y154500D01*
X563000Y146500D02*
X567000Y150500D01*
X563000Y154500*
X559000Y150500*
X563000Y146500*
Y150500D02*
Y154500D01*
Y142000D02*
X567000Y146000D01*
X563000Y150000*
X559000Y146000*
X563000Y142000*
Y146000D02*
Y150000D01*
X574000Y146500D02*
X578000Y150500D01*
X574000Y154500*
X570000Y150500*
X574000Y146500*
Y150500D02*
Y154500D01*
Y142000D02*
X578000Y146000D01*
X574000Y150000*
X570000Y146000*
X574000Y142000*
Y146000D02*
Y150000D01*
X597000Y147000D02*
X601000Y151000D01*
X597000Y155000*
X593000Y151000*
X597000Y147000*
Y151000D02*
Y155000D01*
Y142000D02*
X601000Y146000D01*
X597000Y150000*
X593000Y146000*
X597000Y142000*
Y146000D02*
Y150000D01*
X635500Y148000D02*
X639500Y152000D01*
X635500Y156000*
X631500Y152000*
X635500Y148000*
Y152000D02*
Y156000D01*
X115000Y164000D02*
X119000Y168000D01*
X115000Y172000*
X111000Y168000*
X115000Y164000*
Y168000D02*
Y172000D01*
X107500Y164000D02*
X111500Y168000D01*
X107500Y172000*
X103500Y168000*
X107500Y164000*
Y168000D02*
Y172000D01*
X132000Y167500D02*
X136000Y171500D01*
X132000Y175500*
X128000Y171500*
X132000Y167500*
Y171500D02*
Y175500D01*
X131000Y157500D02*
X135000Y161500D01*
X131000Y165500*
X127000Y161500*
X131000Y157500*
Y161500D02*
Y165500D01*
X156500Y154000D02*
X160500Y158000D01*
X156500Y162000*
X152500Y158000*
X156500Y154000*
Y158000D02*
Y162000D01*
X151000Y154000D02*
X155000Y158000D01*
X151000Y162000*
X147000Y158000*
X151000Y154000*
Y158000D02*
Y162000D01*
Y160500D02*
X155000Y164500D01*
X151000Y168500*
X147000Y164500*
X151000Y160500*
Y164500D02*
Y168500D01*
X162500Y160500D02*
X166500Y164500D01*
X162500Y168500*
X158500Y164500*
X162500Y160500*
Y164500D02*
Y168500D01*
X162000Y154000D02*
X166000Y158000D01*
X162000Y162000*
X158000Y158000*
X162000Y154000*
Y158000D02*
Y162000D01*
X195000Y154500D02*
X199000Y158500D01*
X195000Y162500*
X191000Y158500*
X195000Y154500*
Y158500D02*
Y162500D01*
X205000Y152500D02*
X209000Y156500D01*
X205000Y160500*
X201000Y156500*
X205000Y152500*
Y156500D02*
Y160500D01*
X230000Y149500D02*
X234000Y153500D01*
X230000Y157500*
X226000Y153500*
X230000Y149500*
Y153500D02*
Y157500D01*
X243000Y149500D02*
X247000Y153500D01*
X243000Y157500*
X239000Y153500*
X243000Y149500*
Y153500D02*
Y157500D01*
X291500Y168500D02*
X295500Y172500D01*
X291500Y176500*
X287500Y172500*
X291500Y168500*
Y172500D02*
Y176500D01*
X291000Y156000D02*
X295000Y160000D01*
X291000Y164000*
X287000Y160000*
X291000Y156000*
Y160000D02*
Y164000D01*
X297500Y162500D02*
X301500Y166500D01*
X297500Y170500*
X293500Y166500*
X297500Y162500*
Y166500D02*
Y170500D01*
X298000Y149500D02*
X302000Y153500D01*
X298000Y157500*
X294000Y153500*
X298000Y149500*
Y153500D02*
Y157500D01*
Y156000D02*
X302000Y160000D01*
X298000Y164000*
X294000Y160000*
X298000Y156000*
Y160000D02*
Y164000D01*
Y168500D02*
X302000Y172500D01*
X298000Y176500*
X294000Y172500*
X298000Y168500*
Y172500D02*
Y176500D01*
X371500Y153500D02*
X375500Y157500D01*
X371500Y161500*
X367500Y157500*
X371500Y153500*
Y157500D02*
Y161500D01*
Y159000D02*
X375500Y163000D01*
X371500Y167000*
X367500Y163000*
X371500Y159000*
Y163000D02*
Y167000D01*
X366000Y153500D02*
X370000Y157500D01*
X366000Y161500*
X362000Y157500*
X366000Y153500*
Y157500D02*
Y161500D01*
Y159000D02*
X370000Y163000D01*
X366000Y167000*
X362000Y163000*
X366000Y159000*
Y163000D02*
Y167000D01*
Y165000D02*
X370000Y169000D01*
X366000Y173000*
X362000Y169000*
X366000Y165000*
Y169000D02*
Y173000D01*
X381500Y151500D02*
X385500Y155500D01*
X381500Y159500*
X377500Y155500*
X381500Y151500*
Y155500D02*
Y159500D01*
X401000Y165000D02*
X405000Y169000D01*
X401000Y173000*
X397000Y169000*
X401000Y165000*
Y169000D02*
Y173000D01*
X444500Y155500D02*
X448500Y159500D01*
X444500Y163500*
X440500Y159500*
X444500Y155500*
Y159500D02*
Y163500D01*
X438000Y155500D02*
X442000Y159500D01*
X438000Y163500*
X434000Y159500*
X438000Y155500*
Y159500D02*
Y163500D01*
X445000Y150000D02*
X449000Y154000D01*
X445000Y158000*
X441000Y154000*
X445000Y150000*
Y154000D02*
Y158000D01*
X450500Y150000D02*
X454500Y154000D01*
X450500Y158000*
X446500Y154000*
X450500Y150000*
Y154000D02*
Y158000D01*
Y155500D02*
X454500Y159500D01*
X450500Y163500*
X446500Y159500*
X450500Y155500*
Y159500D02*
Y163500D01*
Y160000D02*
X454500Y164000D01*
X450500Y168000*
X446500Y164000*
X450500Y160000*
Y164000D02*
Y168000D01*
X444500Y160000D02*
X448500Y164000D01*
X444500Y168000*
X440500Y164000*
X444500Y160000*
Y164000D02*
Y168000D01*
X489000Y153500D02*
X493000Y157500D01*
X489000Y161500*
X485000Y157500*
X489000Y153500*
Y157500D02*
Y161500D01*
Y149500D02*
X493000Y153500D01*
X489000Y157500*
X485000Y153500*
X489000Y149500*
Y153500D02*
Y157500D01*
X478000Y154500D02*
X482000Y158500D01*
X478000Y162500*
X474000Y158500*
X478000Y154500*
Y158500D02*
Y162500D01*
X500000Y153500D02*
X504000Y157500D01*
X500000Y161500*
X496000Y157500*
X500000Y153500*
Y157500D02*
Y161500D01*
Y149500D02*
X504000Y153500D01*
X500000Y157500*
X496000Y153500*
X500000Y149500*
Y153500D02*
Y157500D01*
X519000Y162500D02*
X523000Y166500D01*
X519000Y170500*
X515000Y166500*
X519000Y162500*
Y166500D02*
Y170500D01*
X523500Y155500D02*
X527500Y159500D01*
X523500Y163500*
X519500Y159500*
X523500Y155500*
Y159500D02*
Y163500D01*
Y151000D02*
X527500Y155000D01*
X523500Y159000*
X519500Y155000*
X523500Y151000*
Y155000D02*
Y159000D01*
X547500Y155500D02*
X551500Y159500D01*
X547500Y163500*
X543500Y159500*
X547500Y155500*
Y159500D02*
Y163500D01*
X556500Y168500D02*
X560500Y172500D01*
X556500Y176500*
X552500Y172500*
X556500Y168500*
Y172500D02*
Y176500D01*
Y162000D02*
X560500Y166000D01*
X556500Y170000*
X552500Y166000*
X556500Y162000*
Y166000D02*
Y170000D01*
X562000Y168000D02*
X566000Y172000D01*
X562000Y176000*
X558000Y172000*
X562000Y168000*
Y172000D02*
Y176000D01*
X563000Y151000D02*
X567000Y155000D01*
X563000Y159000*
X559000Y155000*
X563000Y151000*
Y155000D02*
Y159000D01*
X574500Y168000D02*
X578500Y172000D01*
X574500Y176000*
X570500Y172000*
X574500Y168000*
Y172000D02*
Y176000D01*
X568500Y162000D02*
X572500Y166000D01*
X568500Y170000*
X564500Y166000*
X568500Y162000*
Y166000D02*
Y170000D01*
X574000Y151000D02*
X578000Y155000D01*
X574000Y159000*
X570000Y155000*
X574000Y151000*
Y155000D02*
Y159000D01*
X568500Y168000D02*
X572500Y172000D01*
X568500Y176000*
X564500Y172000*
X568500Y168000*
Y172000D02*
Y176000D01*
X595000Y163000D02*
X599000Y167000D01*
X595000Y171000*
X591000Y167000*
X595000Y163000*
Y167000D02*
Y171000D01*
X597000Y151500D02*
X601000Y155500D01*
X597000Y159500*
X593000Y155500*
X597000Y151500*
Y155500D02*
Y159500D01*
X580000Y168000D02*
X584000Y172000D01*
X580000Y176000*
X576000Y172000*
X580000Y168000*
Y172000D02*
Y176000D01*
X629500Y165000D02*
X633500Y169000D01*
X629500Y173000*
X625500Y169000*
X629500Y165000*
Y169000D02*
Y173000D01*
X651000Y153500D02*
X655000Y157500D01*
X651000Y161500*
X647000Y157500*
X651000Y153500*
Y157500D02*
Y161500D01*
Y162000D02*
X655000Y166000D01*
X651000Y170000*
X647000Y166000*
X651000Y162000*
Y166000D02*
Y170000D01*
X112500Y187500D02*
X116500Y191500D01*
X112500Y195500*
X108500Y191500*
X112500Y187500*
Y191500D02*
Y195500D01*
X122500Y187000D02*
X126500Y191000D01*
X122500Y195000*
X118500Y191000*
X122500Y187000*
Y191000D02*
Y195000D01*
X131000Y187500D02*
X135000Y191500D01*
X131000Y195500*
X127000Y191500*
X131000Y187500*
Y191500D02*
Y195500D01*
X162000Y173000D02*
X166000Y177000D01*
X162000Y181000*
X158000Y177000*
X162000Y173000*
Y177000D02*
Y181000D01*
X192000Y186500D02*
X196000Y190500D01*
X192000Y194500*
X188000Y190500*
X192000Y186500*
Y190500D02*
Y194500D01*
X197500Y186500D02*
X201500Y190500D01*
X197500Y194500*
X193500Y190500*
X197500Y186500*
Y190500D02*
Y194500D01*
Y177000D02*
X201500Y181000D01*
X197500Y185000*
X193500Y181000*
X197500Y177000*
Y181000D02*
Y185000D01*
X216500Y177500D02*
X220500Y181500D01*
X216500Y185500*
X212500Y181500*
X216500Y177500*
Y181500D02*
Y185500D01*
X297500Y174500D02*
X301500Y178500D01*
X297500Y182500*
X293500Y178500*
X297500Y174500*
Y178500D02*
Y182500D01*
X291000Y180500D02*
X295000Y184500D01*
X291000Y188500*
X287000Y184500*
X291000Y180500*
Y184500D02*
Y188500D01*
X298000Y187000D02*
X302000Y191000D01*
X298000Y195000*
X294000Y191000*
X298000Y187000*
Y191000D02*
Y195000D01*
X308500Y171500D02*
X312500Y175500D01*
X308500Y179500*
X304500Y175500*
X308500Y171500*
Y175500D02*
Y179500D01*
X298000Y180500D02*
X302000Y184500D01*
X298000Y188500*
X294000Y184500*
X298000Y180500*
Y184500D02*
Y188500D01*
X365500Y178500D02*
X369500Y182500D01*
X365500Y186500*
X361500Y182500*
X365500Y178500*
Y182500D02*
Y186500D01*
X374500Y183000D02*
X378500Y187000D01*
X374500Y191000*
X370500Y187000*
X374500Y183000*
Y187000D02*
Y191000D01*
X381500Y183500D02*
X385500Y187500D01*
X381500Y191500*
X377500Y187500*
X381500Y183500*
Y187500D02*
Y191500D01*
X407000Y170000D02*
X411000Y174000D01*
X407000Y178000*
X403000Y174000*
X407000Y170000*
Y174000D02*
Y178000D01*
X407500D02*
X411500Y182000D01*
X407500Y186000*
X403500Y182000*
X407500Y178000*
Y182000D02*
Y186000D01*
X402500Y178000D02*
X406500Y182000D01*
X402500Y186000*
X398500Y182000*
X402500Y178000*
Y182000D02*
Y186000D01*
X404500Y187500D02*
X408500Y191500D01*
X404500Y195500*
X400500Y191500*
X404500Y187500*
Y191500D02*
Y195500D01*
X400000Y187500D02*
X404000Y191500D01*
X400000Y195500*
X396000Y191500*
X400000Y187500*
Y191500D02*
Y195500D01*
X402500Y183000D02*
X406500Y187000D01*
X402500Y191000*
X398500Y187000*
X402500Y183000*
Y187000D02*
Y191000D01*
X431000Y173000D02*
X435000Y177000D01*
X431000Y181000*
X427000Y177000*
X431000Y173000*
Y177000D02*
Y181000D01*
X434000Y189000D02*
X438000Y193000D01*
X434000Y197000*
X430000Y193000*
X434000Y189000*
Y193000D02*
Y197000D01*
X457500Y174000D02*
X461500Y178000D01*
X457500Y182000*
X453500Y178000*
X457500Y174000*
Y178000D02*
Y182000D01*
Y187500D02*
X461500Y191500D01*
X457500Y195500*
X453500Y191500*
X457500Y187500*
Y191500D02*
Y195500D01*
X474500Y183500D02*
X478500Y187500D01*
X474500Y191500*
X470500Y187500*
X474500Y183500*
Y187500D02*
Y191500D01*
X492500Y175500D02*
X496500Y179500D01*
X492500Y183500*
X488500Y179500*
X492500Y175500*
Y179500D02*
Y183500D01*
X499000Y170000D02*
X503000Y174000D01*
X499000Y178000*
X495000Y174000*
X499000Y170000*
Y174000D02*
Y178000D01*
X521000Y180000D02*
X525000Y184000D01*
X521000Y188000*
X517000Y184000*
X521000Y180000*
Y184000D02*
Y188000D01*
X556500Y174000D02*
X560500Y178000D01*
X556500Y182000*
X552500Y178000*
X556500Y174000*
Y178000D02*
Y182000D01*
X575500Y180000D02*
X579500Y184000D01*
X575500Y188000*
X571500Y184000*
X575500Y180000*
Y184000D02*
Y188000D01*
X562000Y180000D02*
X566000Y184000D01*
X562000Y188000*
X558000Y184000*
X562000Y180000*
Y184000D02*
Y188000D01*
X568500Y174000D02*
X572500Y178000D01*
X568500Y182000*
X564500Y178000*
X568500Y174000*
Y178000D02*
Y182000D01*
X612500Y184000D02*
X616500Y188000D01*
X612500Y192000*
X608500Y188000*
X612500Y184000*
Y188000D02*
Y192000D01*
X616500Y186500D02*
X620500Y190500D01*
X616500Y194500*
X612500Y190500*
X616500Y186500*
Y190500D02*
Y194500D01*
X612500Y189000D02*
X616500Y193000D01*
X612500Y197000*
X608500Y193000*
X612500Y189000*
Y193000D02*
Y197000D01*
X630000Y182500D02*
X634000Y186500D01*
X630000Y190500*
X626000Y186500*
X630000Y182500*
Y186500D02*
Y190500D01*
X645500Y184500D02*
X649500Y188500D01*
X645500Y192500*
X641500Y188500*
X645500Y184500*
Y188500D02*
Y192500D01*
X132000Y197500D02*
X136000Y201500D01*
X132000Y205500*
X128000Y201500*
X132000Y197500*
Y201500D02*
Y205500D01*
X172500Y203500D02*
X176500Y207500D01*
X172500Y211500*
X168500Y207500*
X172500Y203500*
Y207500D02*
Y211500D01*
X192500Y209000D02*
X196500Y213000D01*
X192500Y217000*
X188500Y213000*
X192500Y209000*
Y213000D02*
Y217000D01*
X186500Y203500D02*
X190500Y207500D01*
X186500Y211500*
X182500Y207500*
X186500Y203500*
Y207500D02*
Y211500D01*
X192500Y198000D02*
X196500Y202000D01*
X192500Y206000*
X188500Y202000*
X192500Y198000*
Y202000D02*
Y206000D01*
X198500Y203500D02*
X202500Y207500D01*
X198500Y211500*
X194500Y207500*
X198500Y203500*
Y207500D02*
Y211500D01*
X212500Y200000D02*
X216500Y204000D01*
X212500Y208000*
X208500Y204000*
X212500Y200000*
Y204000D02*
Y208000D01*
X266000Y200000D02*
X270000Y204000D01*
X266000Y208000*
X262000Y204000*
X266000Y200000*
Y204000D02*
Y208000D01*
X258500Y203500D02*
X262500Y207500D01*
X258500Y211500*
X254500Y207500*
X258500Y203500*
Y207500D02*
Y211500D01*
X314500Y190500D02*
X318500Y194500D01*
X314500Y198500*
X310500Y194500*
X314500Y190500*
Y194500D02*
Y198500D01*
X351000Y207500D02*
X355000Y211500D01*
X351000Y215500*
X347000Y211500*
X351000Y207500*
Y211500D02*
Y215500D01*
X357000Y201000D02*
X361000Y205000D01*
X357000Y209000*
X353000Y205000*
X357000Y201000*
Y205000D02*
Y209000D01*
X351000Y195000D02*
X355000Y199000D01*
X351000Y203000*
X347000Y199000*
X351000Y195000*
Y199000D02*
Y203000D01*
X378500Y207000D02*
X382500Y211000D01*
X378500Y215000*
X374500Y211000*
X378500Y207000*
Y211000D02*
Y215000D01*
X381000Y190500D02*
X385000Y194500D01*
X381000Y198500*
X377000Y194500*
X381000Y190500*
Y194500D02*
Y198500D01*
X404500Y203500D02*
X408500Y207500D01*
X404500Y211500*
X400500Y207500*
X404500Y203500*
Y207500D02*
Y211500D01*
X399000Y203500D02*
X403000Y207500D01*
X399000Y211500*
X395000Y207500*
X399000Y203500*
Y207500D02*
Y211500D01*
Y198500D02*
X403000Y202500D01*
X399000Y206500*
X395000Y202500*
X399000Y198500*
Y202500D02*
Y206500D01*
X404500Y198500D02*
X408500Y202500D01*
X404500Y206500*
X400500Y202500*
X404500Y198500*
Y202500D02*
Y206500D01*
Y194000D02*
X408500Y198000D01*
X404500Y202000*
X400500Y198000*
X404500Y194000*
Y198000D02*
Y202000D01*
X399000Y194000D02*
X403000Y198000D01*
X399000Y202000*
X395000Y198000*
X399000Y194000*
Y198000D02*
Y202000D01*
X434000Y198500D02*
X438000Y202500D01*
X434000Y206500*
X430000Y202500*
X434000Y198500*
Y202500D02*
Y206500D01*
X469000Y207000D02*
X473000Y211000D01*
X469000Y215000*
X465000Y211000*
X469000Y207000*
Y211000D02*
Y215000D01*
X497500Y196000D02*
X501500Y200000D01*
X497500Y204000*
X493500Y200000*
X497500Y196000*
Y200000D02*
Y204000D01*
X479000Y203000D02*
X483000Y207000D01*
X479000Y211000*
X475000Y207000*
X479000Y203000*
Y207000D02*
Y211000D01*
X505000Y197000D02*
X509000Y201000D01*
X505000Y205000*
X501000Y201000*
X505000Y197000*
Y201000D02*
Y205000D01*
X529500Y200000D02*
X533500Y204000D01*
X529500Y208000*
X525500Y204000*
X529500Y200000*
Y204000D02*
Y208000D01*
X526500Y203500D02*
X530500Y207500D01*
X526500Y211500*
X522500Y207500*
X526500Y203500*
Y207500D02*
Y211500D01*
X520500Y203500D02*
X524500Y207500D01*
X520500Y211500*
X516500Y207500*
X520500Y203500*
Y207500D02*
Y211500D01*
X523500Y200000D02*
X527500Y204000D01*
X523500Y208000*
X519500Y204000*
X523500Y200000*
Y204000D02*
Y208000D01*
X532500Y203500D02*
X536500Y207500D01*
X532500Y211500*
X528500Y207500*
X532500Y203500*
Y207500D02*
Y211500D01*
X552500Y194000D02*
X556500Y198000D01*
X552500Y202000*
X548500Y198000*
X552500Y194000*
Y198000D02*
Y202000D01*
X591000Y200000D02*
X595000Y204000D01*
X591000Y208000*
X587000Y204000*
X591000Y200000*
Y204000D02*
Y208000D01*
X605500Y202500D02*
X609500Y206500D01*
X605500Y210500*
X601500Y206500*
X605500Y202500*
Y206500D02*
Y210500D01*
X611000Y202500D02*
X615000Y206500D01*
X611000Y210500*
X607000Y206500*
X611000Y202500*
Y206500D02*
Y210500D01*
X612500Y194000D02*
X616500Y198000D01*
X612500Y202000*
X608500Y198000*
X612500Y194000*
Y198000D02*
Y202000D01*
X616500Y191500D02*
X620500Y195500D01*
X616500Y199500*
X612500Y195500*
X616500Y191500*
Y195500D02*
Y199500D01*
Y202500D02*
X620500Y206500D01*
X616500Y210500*
X612500Y206500*
X616500Y202500*
Y206500D02*
Y210500D01*
X624000Y190500D02*
X628000Y194500D01*
X624000Y198500*
X620000Y194500*
X624000Y190500*
Y194500D02*
Y198500D01*
X630000Y207500D02*
X634000Y211500D01*
X630000Y215500*
X626000Y211500*
X630000Y207500*
Y211500D02*
Y215500D01*
X633500Y202500D02*
X637500Y206500D01*
X633500Y210500*
X629500Y206500*
X633500Y202500*
Y206500D02*
Y210500D01*
X619500Y195500D02*
X623500Y199500D01*
X619500Y203500*
X615500Y199500*
X619500Y195500*
Y199500D02*
Y203500D01*
X622000Y202500D02*
X626000Y206500D01*
X622000Y210500*
X618000Y206500*
X622000Y202500*
Y206500D02*
Y210500D01*
X627500Y202500D02*
X631500Y206500D01*
X627500Y210500*
X623500Y206500*
X627500Y202500*
Y206500D02*
Y210500D01*
X638500Y202500D02*
X642500Y206500D01*
X638500Y210500*
X634500Y206500*
X638500Y202500*
Y206500D02*
Y210500D01*
X649000Y201000D02*
X653000Y205000D01*
X649000Y209000*
X645000Y205000*
X649000Y201000*
Y205000D02*
Y209000D01*
X113500Y211500D02*
X117500Y215500D01*
X113500Y219500*
X109500Y215500*
X113500Y211500*
Y215500D02*
Y219500D01*
X136500Y216500D02*
X140500Y220500D01*
X136500Y224500*
X132500Y220500*
X136500Y216500*
Y220500D02*
Y224500D01*
X120000Y211500D02*
X124000Y215500D01*
X120000Y219500*
X116000Y215500*
X120000Y211500*
Y215500D02*
Y219500D01*
X151000Y209500D02*
X155000Y213500D01*
X151000Y217500*
X147000Y213500*
X151000Y209500*
Y213500D02*
Y217500D01*
X155500Y209500D02*
X159500Y213500D01*
X155500Y217500*
X151500Y213500*
X155500Y209500*
Y213500D02*
Y217500D01*
X160500Y209500D02*
X164500Y213500D01*
X160500Y217500*
X156500Y213500*
X160500Y209500*
Y213500D02*
Y217500D01*
X165500Y209500D02*
X169500Y213500D01*
X165500Y217500*
X161500Y213500*
X165500Y209500*
Y213500D02*
Y217500D01*
X170500Y209500D02*
X174500Y213500D01*
X170500Y217500*
X166500Y213500*
X170500Y209500*
Y213500D02*
Y217500D01*
X175000Y209500D02*
X179000Y213500D01*
X175000Y217500*
X171000Y213500*
X175000Y209500*
Y213500D02*
Y217500D01*
X179500Y209500D02*
X183500Y213500D01*
X179500Y217500*
X175500Y213500*
X179500Y209500*
Y213500D02*
Y217500D01*
X212500Y214000D02*
X216500Y218000D01*
X212500Y222000*
X208500Y218000*
X212500Y214000*
Y218000D02*
Y222000D01*
X222000Y221500D02*
X226000Y225500D01*
X222000Y229500*
X218000Y225500*
X222000Y221500*
Y225500D02*
Y229500D01*
X226500Y221500D02*
X230500Y225500D01*
X226500Y229500*
X222500Y225500*
X226500Y221500*
Y225500D02*
Y229500D01*
X230500Y221500D02*
X234500Y225500D01*
X230500Y229500*
X226500Y225500*
X230500Y221500*
Y225500D02*
Y229500D01*
X242500Y221500D02*
X246500Y225500D01*
X242500Y229500*
X238500Y225500*
X242500Y221500*
Y225500D02*
Y229500D01*
X261000Y211000D02*
X265000Y215000D01*
X261000Y219000*
X257000Y215000*
X261000Y211000*
Y215000D02*
Y219000D01*
X280000Y211000D02*
X284000Y215000D01*
X280000Y219000*
X276000Y215000*
X280000Y211000*
Y215000D02*
Y219000D01*
X314500Y209500D02*
X318500Y213500D01*
X314500Y217500*
X310500Y213500*
X314500Y209500*
Y213500D02*
Y217500D01*
X304500Y223500D02*
X308500Y227500D01*
X304500Y231500*
X300500Y227500*
X304500Y223500*
Y227500D02*
Y231500D01*
X301000Y214000D02*
X305000Y218000D01*
X301000Y222000*
X297000Y218000*
X301000Y214000*
Y218000D02*
Y222000D01*
X333500Y221500D02*
X337500Y225500D01*
X333500Y229500*
X329500Y225500*
X333500Y221500*
Y225500D02*
Y229500D01*
X351000Y219500D02*
X355000Y223500D01*
X351000Y227500*
X347000Y223500*
X351000Y219500*
Y223500D02*
Y227500D01*
X346000Y221500D02*
X350000Y225500D01*
X346000Y229500*
X342000Y225500*
X346000Y221500*
Y225500D02*
Y229500D01*
X357000Y225500D02*
X361000Y229500D01*
X357000Y233500*
X353000Y229500*
X357000Y225500*
Y229500D02*
Y233500D01*
X339500Y227000D02*
X343500Y231000D01*
X339500Y235000*
X335500Y231000*
X339500Y227000*
Y231000D02*
Y235000D01*
X357000Y213500D02*
X361000Y217500D01*
X357000Y221500*
X353000Y217500*
X357000Y213500*
Y217500D02*
Y221500D01*
X374500Y229000D02*
X378500Y233000D01*
X374500Y237000*
X370500Y233000*
X374500Y229000*
Y233000D02*
Y237000D01*
X399000Y220000D02*
X403000Y224000D01*
X399000Y228000*
X395000Y224000*
X399000Y220000*
Y224000D02*
Y228000D01*
X451000Y217000D02*
X455000Y221000D01*
X451000Y225000*
X447000Y221000*
X451000Y217000*
Y221000D02*
Y225000D01*
X445500Y212000D02*
X449500Y216000D01*
X445500Y220000*
X441500Y216000*
X445500Y212000*
Y216000D02*
Y220000D01*
Y217000D02*
X449500Y221000D01*
X445500Y225000*
X441500Y221000*
X445500Y217000*
Y221000D02*
Y225000D01*
X456500Y217000D02*
X460500Y221000D01*
X456500Y225000*
X452500Y221000*
X456500Y217000*
Y221000D02*
Y225000D01*
X440000Y217000D02*
X444000Y221000D01*
X440000Y225000*
X436000Y221000*
X440000Y217000*
Y221000D02*
Y225000D01*
Y222500D02*
X444000Y226500D01*
X440000Y230500*
X436000Y226500*
X440000Y222500*
Y226500D02*
Y230500D01*
Y212000D02*
X444000Y216000D01*
X440000Y220000*
X436000Y216000*
X440000Y212000*
Y216000D02*
Y220000D01*
X456500Y212000D02*
X460500Y216000D01*
X456500Y220000*
X452500Y216000*
X456500Y212000*
Y216000D02*
Y220000D01*
X451000Y212000D02*
X455000Y216000D01*
X451000Y220000*
X447000Y216000*
X451000Y212000*
Y216000D02*
Y220000D01*
X474500Y212500D02*
X478500Y216500D01*
X474500Y220500*
X470500Y216500*
X474500Y212500*
Y216500D02*
Y220500D01*
X462000Y217500D02*
X466000Y221500D01*
X462000Y225500*
X458000Y221500*
X462000Y217500*
Y221500D02*
Y225500D01*
Y223000D02*
X466000Y227000D01*
X462000Y231000*
X458000Y227000*
X462000Y223000*
Y227000D02*
Y231000D01*
Y212500D02*
X466000Y216500D01*
X462000Y220500*
X458000Y216500*
X462000Y212500*
Y216500D02*
Y220500D01*
X474500Y228000D02*
X478500Y232000D01*
X474500Y236000*
X470500Y232000*
X474500Y228000*
Y232000D02*
Y236000D01*
X521500Y220000D02*
X525500Y224000D01*
X521500Y228000*
X517500Y224000*
X521500Y220000*
Y224000D02*
Y228000D01*
X526500Y220000D02*
X530500Y224000D01*
X526500Y228000*
X522500Y224000*
X526500Y220000*
Y224000D02*
Y228000D01*
Y224500D02*
X530500Y228500D01*
X526500Y232500*
X522500Y228500*
X526500Y224500*
Y228500D02*
Y232500D01*
X531500Y224500D02*
X535500Y228500D01*
X531500Y232500*
X527500Y228500*
X531500Y224500*
Y228500D02*
Y232500D01*
Y220000D02*
X535500Y224000D01*
X531500Y228000*
X527500Y224000*
X531500Y220000*
Y224000D02*
Y228000D01*
X521500Y224500D02*
X525500Y228500D01*
X521500Y232500*
X517500Y228500*
X521500Y224500*
Y228500D02*
Y232500D01*
X549500Y227000D02*
X553500Y231000D01*
X549500Y235000*
X545500Y231000*
X549500Y227000*
Y231000D02*
Y235000D01*
X623500Y228000D02*
X627500Y232000D01*
X623500Y236000*
X619500Y232000*
X623500Y228000*
Y232000D02*
Y236000D01*
X630000Y212500D02*
X634000Y216500D01*
X630000Y220500*
X626000Y216500*
X630000Y212500*
Y216500D02*
Y220500D01*
X629500Y221500D02*
X633500Y225500D01*
X629500Y229500*
X625500Y225500*
X629500Y221500*
Y225500D02*
Y229500D01*
Y228000D02*
X633500Y232000D01*
X629500Y236000*
X625500Y232000*
X629500Y228000*
Y232000D02*
Y236000D01*
X635500Y228000D02*
X639500Y232000D01*
X635500Y236000*
X631500Y232000*
X635500Y228000*
Y232000D02*
Y236000D01*
X640500Y228000D02*
X644500Y232000D01*
X640500Y236000*
X636500Y232000*
X640500Y228000*
Y232000D02*
Y236000D01*
X124500Y234000D02*
X128500Y238000D01*
X124500Y242000*
X120500Y238000*
X124500Y234000*
Y238000D02*
Y242000D01*
X150000Y235000D02*
X154000Y239000D01*
X150000Y243000*
X146000Y239000*
X150000Y235000*
Y239000D02*
Y243000D01*
X149500Y241500D02*
X153500Y245500D01*
X149500Y249500*
X145500Y245500*
X149500Y241500*
Y245500D02*
Y249500D01*
X162000Y237500D02*
X166000Y241500D01*
X162000Y245500*
X158000Y241500*
X162000Y237500*
Y241500D02*
Y245500D01*
X168000Y230500D02*
X172000Y234500D01*
X168000Y238500*
X164000Y234500*
X168000Y230500*
Y234500D02*
Y238500D01*
X175500Y231000D02*
X179500Y235000D01*
X175500Y239000*
X171500Y235000*
X175500Y231000*
Y235000D02*
Y239000D01*
X188500D02*
X192500Y243000D01*
X188500Y247000*
X184500Y243000*
X188500Y239000*
Y243000D02*
Y247000D01*
X197500Y239000D02*
X201500Y243000D01*
X197500Y247000*
X193500Y243000*
X197500Y239000*
Y243000D02*
Y247000D01*
X206500Y239000D02*
X210500Y243000D01*
X206500Y247000*
X202500Y243000*
X206500Y239000*
Y243000D02*
Y247000D01*
X222000Y234000D02*
X226000Y238000D01*
X222000Y242000*
X218000Y238000*
X222000Y234000*
Y238000D02*
Y242000D01*
X226500Y234000D02*
X230500Y238000D01*
X226500Y242000*
X222500Y238000*
X226500Y234000*
Y238000D02*
Y242000D01*
X303500Y245500D02*
X307500Y249500D01*
X303500Y253500*
X299500Y249500*
X303500Y245500*
Y249500D02*
Y253500D01*
X320000Y237000D02*
X324000Y241000D01*
X320000Y245000*
X316000Y241000*
X320000Y237000*
Y241000D02*
Y245000D01*
X339500Y238500D02*
X343500Y242500D01*
X339500Y246500*
X335500Y242500*
X339500Y238500*
Y242500D02*
Y246500D01*
X510500Y244000D02*
X514500Y248000D01*
X510500Y252000*
X506500Y248000*
X510500Y244000*
Y248000D02*
Y252000D01*
X527500Y240500D02*
X531500Y244500D01*
X527500Y248500*
X523500Y244500*
X527500Y240500*
Y244500D02*
Y248500D01*
X535000Y232500D02*
X539000Y236500D01*
X535000Y240500*
X531000Y236500*
X535000Y232500*
Y236500D02*
Y240500D01*
X575500Y230500D02*
X579500Y234500D01*
X575500Y238500*
X571500Y234500*
X575500Y230500*
Y234500D02*
Y238500D01*
X580000Y241000D02*
X584000Y245000D01*
X580000Y249000*
X576000Y245000*
X580000Y241000*
Y245000D02*
Y249000D01*
X615500Y243500D02*
X619500Y247500D01*
X615500Y251500*
X611500Y247500*
X615500Y243500*
Y247500D02*
Y251500D01*
Y237000D02*
X619500Y241000D01*
X615500Y245000*
X611500Y241000*
X615500Y237000*
Y241000D02*
Y245000D01*
X622000Y237000D02*
X626000Y241000D01*
X622000Y245000*
X618000Y241000*
X622000Y237000*
Y241000D02*
Y245000D01*
X628500Y243500D02*
X632500Y247500D01*
X628500Y251500*
X624500Y247500*
X628500Y243500*
Y247500D02*
Y251500D01*
X633500Y240000D02*
X637500Y244000D01*
X633500Y248000*
X629500Y244000*
X633500Y240000*
Y244000D02*
Y248000D01*
X628500Y237000D02*
X632500Y241000D01*
X628500Y245000*
X624500Y241000*
X628500Y237000*
Y241000D02*
Y245000D01*
X645500Y246000D02*
X649500Y250000D01*
X645500Y254000*
X641500Y250000*
X645500Y246000*
Y250000D02*
Y254000D01*
X641000Y241500D02*
X645000Y245500D01*
X641000Y249500*
X637000Y245500*
X641000Y241500*
Y245500D02*
Y249500D01*
X645500Y235500D02*
X649500Y239500D01*
X645500Y243500*
X641500Y239500*
X645500Y235500*
Y239500D02*
Y243500D01*
X150000Y252000D02*
X154000Y256000D01*
X150000Y260000*
X146000Y256000*
X150000Y252000*
Y256000D02*
Y260000D01*
X174500Y258500D02*
X178500Y262500D01*
X174500Y266500*
X170500Y262500*
X174500Y258500*
Y262500D02*
Y266500D01*
X172500Y250000D02*
X176500Y254000D01*
X172500Y258000*
X168500Y254000*
X172500Y250000*
Y254000D02*
Y258000D01*
X166000Y251000D02*
X170000Y255000D01*
X166000Y259000*
X162000Y255000*
X166000Y251000*
Y255000D02*
Y259000D01*
X178500Y266500D02*
X182500Y270500D01*
X178500Y274500*
X174500Y270500*
X178500Y266500*
Y270500D02*
Y274500D01*
X191500Y268500D02*
X195500Y272500D01*
X191500Y276500*
X187500Y272500*
X191500Y268500*
Y272500D02*
Y276500D01*
X213500Y264000D02*
X217500Y268000D01*
X213500Y272000*
X209500Y268000*
X213500Y264000*
Y268000D02*
Y272000D01*
X228000Y267500D02*
X232000Y271500D01*
X228000Y275500*
X224000Y271500*
X228000Y267500*
Y271500D02*
Y275500D01*
X234000Y267500D02*
X238000Y271500D01*
X234000Y275500*
X230000Y271500*
X234000Y267500*
Y271500D02*
Y275500D01*
X255000Y268000D02*
X259000Y272000D01*
X255000Y276000*
X251000Y272000*
X255000Y268000*
Y272000D02*
Y276000D01*
X240000Y267500D02*
X244000Y271500D01*
X240000Y275500*
X236000Y271500*
X240000Y267500*
Y271500D02*
Y275500D01*
X247500Y267500D02*
X251500Y271500D01*
X247500Y275500*
X243500Y271500*
X247500Y267500*
Y271500D02*
Y275500D01*
X266500Y268000D02*
X270500Y272000D01*
X266500Y276000*
X262500Y272000*
X266500Y268000*
Y272000D02*
Y276000D01*
X261000Y268000D02*
X265000Y272000D01*
X261000Y276000*
X257000Y272000*
X261000Y268000*
Y272000D02*
Y276000D01*
X289500Y262000D02*
X293500Y266000D01*
X289500Y270000*
X285500Y266000*
X289500Y262000*
Y266000D02*
Y270000D01*
X485000Y264500D02*
X489000Y268500D01*
X485000Y272500*
X481000Y268500*
X485000Y264500*
Y268500D02*
Y272500D01*
X500500Y264500D02*
X504500Y268500D01*
X500500Y272500*
X496500Y268500*
X500500Y264500*
Y268500D02*
Y272500D01*
X523500Y257000D02*
X527500Y261000D01*
X523500Y265000*
X519500Y261000*
X523500Y257000*
Y261000D02*
Y265000D01*
X590000Y253500D02*
X594000Y257500D01*
X590000Y261500*
X586000Y257500*
X590000Y253500*
Y257500D02*
Y261500D01*
X612000Y253500D02*
X616000Y257500D01*
X612000Y261500*
X608000Y257500*
X612000Y253500*
Y257500D02*
Y261500D01*
Y264000D02*
X616000Y268000D01*
X612000Y272000*
X608000Y268000*
X612000Y264000*
Y268000D02*
Y272000D01*
X629500Y264000D02*
X633500Y268000D01*
X629500Y272000*
X625500Y268000*
X629500Y264000*
Y268000D02*
Y272000D01*
X653500Y253500D02*
X657500Y257500D01*
X653500Y261500*
X649500Y257500*
X653500Y253500*
Y257500D02*
Y261500D01*
X115000Y289000D02*
X119000Y293000D01*
X115000Y297000*
X111000Y293000*
X115000Y289000*
Y293000D02*
Y297000D01*
X108500Y289000D02*
X112500Y293000D01*
X108500Y297000*
X104500Y293000*
X108500Y289000*
Y293000D02*
Y297000D01*
X114000Y271500D02*
X118000Y275500D01*
X114000Y279500*
X110000Y275500*
X114000Y271500*
Y275500D02*
Y279500D01*
X122500Y289000D02*
X126500Y293000D01*
X122500Y297000*
X118500Y293000*
X122500Y289000*
Y293000D02*
Y297000D01*
X169500Y286000D02*
X173500Y290000D01*
X169500Y294000*
X165500Y290000*
X169500Y286000*
Y290000D02*
Y294000D01*
X162500Y274000D02*
X166500Y278000D01*
X162500Y282000*
X158500Y278000*
X162500Y274000*
Y278000D02*
Y282000D01*
X191500Y286500D02*
X195500Y290500D01*
X191500Y294500*
X187500Y290500*
X191500Y286500*
Y290500D02*
Y294500D01*
X181500Y286500D02*
X185500Y290500D01*
X181500Y294500*
X177500Y290500*
X181500Y286500*
Y290500D02*
Y294500D01*
X187500Y278500D02*
X191500Y282500D01*
X187500Y286500*
X183500Y282500*
X187500Y278500*
Y282500D02*
Y286500D01*
X201000Y285000D02*
X205000Y289000D01*
X201000Y293000*
X197000Y289000*
X201000Y285000*
Y289000D02*
Y293000D01*
X225500Y287500D02*
X229500Y291500D01*
X225500Y295500*
X221500Y291500*
X225500Y287500*
Y291500D02*
Y295500D01*
X221500Y283000D02*
X225500Y287000D01*
X221500Y291000*
X217500Y287000*
X221500Y283000*
Y287000D02*
Y291000D01*
X234000Y282500D02*
X238000Y286500D01*
X234000Y290500*
X230000Y286500*
X234000Y282500*
Y286500D02*
Y290500D01*
X228000Y282500D02*
X232000Y286500D01*
X228000Y290500*
X224000Y286500*
X228000Y282500*
Y286500D02*
Y290500D01*
X247500Y274000D02*
X251500Y278000D01*
X247500Y282000*
X243500Y278000*
X247500Y274000*
Y278000D02*
Y282000D01*
X255000Y282500D02*
X259000Y286500D01*
X255000Y290500*
X251000Y286500*
X255000Y282500*
Y286500D02*
Y290500D01*
X247500Y282000D02*
X251500Y286000D01*
X247500Y290000*
X243500Y286000*
X247500Y282000*
Y286000D02*
Y290000D01*
X240000Y282500D02*
X244000Y286500D01*
X240000Y290500*
X236000Y286500*
X240000Y282500*
Y286500D02*
Y290500D01*
X266500Y282500D02*
X270500Y286500D01*
X266500Y290500*
X262500Y286500*
X266500Y282500*
Y286500D02*
Y290500D01*
X261000Y282500D02*
X265000Y286500D01*
X261000Y290500*
X257000Y286500*
X261000Y282500*
Y286500D02*
Y290500D01*
X550500Y272000D02*
X554500Y276000D01*
X550500Y280000*
X546500Y276000*
X550500Y272000*
Y276000D02*
Y280000D01*
X541500Y272500D02*
X545500Y276500D01*
X541500Y280500*
X537500Y276500*
X541500Y272500*
Y276500D02*
Y280500D01*
X559500Y272000D02*
X563500Y276000D01*
X559500Y280000*
X555500Y276000*
X559500Y272000*
Y276000D02*
Y280000D01*
X578000Y286500D02*
X582000Y290500D01*
X578000Y294500*
X574000Y290500*
X578000Y286500*
Y290500D02*
Y294500D01*
X591000Y270500D02*
X595000Y274500D01*
X591000Y278500*
X587000Y274500*
X591000Y270500*
Y274500D02*
Y278500D01*
X627500Y272500D02*
X631500Y276500D01*
X627500Y280500*
X623500Y276500*
X627500Y272500*
Y276500D02*
Y280500D01*
X641500Y272500D02*
X645500Y276500D01*
X641500Y280500*
X637500Y276500*
X641500Y272500*
Y276500D02*
Y280500D01*
X127500Y296500D02*
X131500Y300500D01*
X127500Y304500*
X123500Y300500*
X127500Y296500*
Y300500D02*
Y304500D01*
Y303000D02*
X131500Y307000D01*
X127500Y311000*
X123500Y307000*
X127500Y303000*
Y307000D02*
Y311000D01*
X153500Y291000D02*
X157500Y295000D01*
X153500Y299000*
X149500Y295000*
X153500Y291000*
Y295000D02*
Y299000D01*
X191500Y297500D02*
X195500Y301500D01*
X191500Y305500*
X187500Y301500*
X191500Y297500*
Y301500D02*
Y305500D01*
X196000Y302000D02*
X200000Y306000D01*
X196000Y310000*
X192000Y306000*
X196000Y302000*
Y306000D02*
Y310000D01*
Y297500D02*
X200000Y301500D01*
X196000Y305500*
X192000Y301500*
X196000Y297500*
Y301500D02*
Y305500D01*
X191500Y302000D02*
X195500Y306000D01*
X191500Y310000*
X187500Y306000*
X191500Y302000*
Y306000D02*
Y310000D01*
X187500Y297500D02*
X191500Y301500D01*
X187500Y305500*
X183500Y301500*
X187500Y297500*
Y301500D02*
Y305500D01*
X191500Y308500D02*
X195500Y312500D01*
X191500Y316500*
X187500Y312500*
X191500Y308500*
Y312500D02*
Y316500D01*
X187500Y301500D02*
X191500Y305500D01*
X187500Y309500*
X183500Y305500*
X187500Y301500*
Y305500D02*
Y309500D01*
X218500Y290000D02*
X222500Y294000D01*
X218500Y298000*
X214500Y294000*
X218500Y290000*
Y294000D02*
Y298000D01*
X255000Y296000D02*
X259000Y300000D01*
X255000Y304000*
X251000Y300000*
X255000Y296000*
Y300000D02*
Y304000D01*
Y301500D02*
X259000Y305500D01*
X255000Y309500*
X251000Y305500*
X255000Y301500*
Y305500D02*
Y309500D01*
Y307000D02*
X259000Y311000D01*
X255000Y315000*
X251000Y311000*
X255000Y307000*
Y311000D02*
Y315000D01*
Y290500D02*
X259000Y294500D01*
X255000Y298500*
X251000Y294500*
X255000Y290500*
Y294500D02*
Y298500D01*
X272000Y290500D02*
X276000Y294500D01*
X272000Y298500*
X268000Y294500*
X272000Y290500*
Y294500D02*
Y298500D01*
X277500Y290500D02*
X281500Y294500D01*
X277500Y298500*
X273500Y294500*
X277500Y290500*
Y294500D02*
Y298500D01*
Y296000D02*
X281500Y300000D01*
X277500Y304000*
X273500Y300000*
X277500Y296000*
Y300000D02*
Y304000D01*
X266500Y307000D02*
X270500Y311000D01*
X266500Y315000*
X262500Y311000*
X266500Y307000*
Y311000D02*
Y315000D01*
X260500Y307000D02*
X264500Y311000D01*
X260500Y315000*
X256500Y311000*
X260500Y307000*
Y311000D02*
Y315000D01*
X277500Y301500D02*
X281500Y305500D01*
X277500Y309500*
X273500Y305500*
X277500Y301500*
Y305500D02*
Y309500D01*
Y307000D02*
X281500Y311000D01*
X277500Y315000*
X273500Y311000*
X277500Y307000*
Y311000D02*
Y315000D01*
X272000Y307000D02*
X276000Y311000D01*
X272000Y315000*
X268000Y311000*
X272000Y307000*
Y311000D02*
Y315000D01*
X266500Y290500D02*
X270500Y294500D01*
X266500Y298500*
X262500Y294500*
X266500Y290500*
Y294500D02*
Y298500D01*
X260500Y290500D02*
X264500Y294500D01*
X260500Y298500*
X256500Y294500*
X260500Y290500*
Y294500D02*
Y298500D01*
X354500Y296000D02*
X358500Y300000D01*
X354500Y304000*
X350500Y300000*
X354500Y296000*
Y300000D02*
Y304000D01*
Y301500D02*
X358500Y305500D01*
X354500Y309500*
X350500Y305500*
X354500Y301500*
Y305500D02*
Y309500D01*
Y307000D02*
X358500Y311000D01*
X354500Y315000*
X350500Y311000*
X354500Y307000*
Y311000D02*
Y315000D01*
X377000Y307000D02*
X381000Y311000D01*
X377000Y315000*
X373000Y311000*
X377000Y307000*
Y311000D02*
Y315000D01*
Y301500D02*
X381000Y305500D01*
X377000Y309500*
X373000Y305500*
X377000Y301500*
Y305500D02*
Y309500D01*
Y296000D02*
X381000Y300000D01*
X377000Y304000*
X373000Y300000*
X377000Y296000*
Y300000D02*
Y304000D01*
X371500Y296000D02*
X375500Y300000D01*
X371500Y304000*
X367500Y300000*
X371500Y296000*
Y300000D02*
Y304000D01*
X366000Y296000D02*
X370000Y300000D01*
X366000Y304000*
X362000Y300000*
X366000Y296000*
Y300000D02*
Y304000D01*
X360000Y296000D02*
X364000Y300000D01*
X360000Y304000*
X356000Y300000*
X360000Y296000*
Y300000D02*
Y304000D01*
X394000Y295000D02*
X398000Y299000D01*
X394000Y303000*
X390000Y299000*
X394000Y295000*
Y299000D02*
Y303000D01*
X395000Y307500D02*
X399000Y311500D01*
X395000Y315500*
X391000Y311500*
X395000Y307500*
Y311500D02*
Y315500D01*
X387000Y300500D02*
X391000Y304500D01*
X387000Y308500*
X383000Y304500*
X387000Y300500*
Y304500D02*
Y308500D01*
X405500Y289500D02*
X409500Y293500D01*
X405500Y297500*
X401500Y293500*
X405500Y289500*
Y293500D02*
Y297500D01*
X409000Y299500D02*
X413000Y303500D01*
X409000Y307500*
X405000Y303500*
X409000Y299500*
Y303500D02*
Y307500D01*
X415000Y293500D02*
X419000Y297500D01*
X415000Y301500*
X411000Y297500*
X415000Y293500*
Y297500D02*
Y301500D01*
X432000Y296000D02*
X436000Y300000D01*
X432000Y304000*
X428000Y300000*
X432000Y296000*
Y300000D02*
Y304000D01*
X426500Y296000D02*
X430500Y300000D01*
X426500Y304000*
X422500Y300000*
X426500Y296000*
Y300000D02*
Y304000D01*
Y301500D02*
X430500Y305500D01*
X426500Y309500*
X422500Y305500*
X426500Y301500*
Y305500D02*
Y309500D01*
Y307000D02*
X430500Y311000D01*
X426500Y315000*
X422500Y311000*
X426500Y307000*
Y311000D02*
Y315000D01*
X449000Y307000D02*
X453000Y311000D01*
X449000Y315000*
X445000Y311000*
X449000Y307000*
Y311000D02*
Y315000D01*
Y301500D02*
X453000Y305500D01*
X449000Y309500*
X445000Y305500*
X449000Y301500*
Y305500D02*
Y309500D01*
Y296000D02*
X453000Y300000D01*
X449000Y304000*
X445000Y300000*
X449000Y296000*
Y300000D02*
Y304000D01*
X443500Y296000D02*
X447500Y300000D01*
X443500Y304000*
X439500Y300000*
X443500Y296000*
Y300000D02*
Y304000D01*
X438000Y296000D02*
X442000Y300000D01*
X438000Y304000*
X434000Y300000*
X438000Y296000*
Y300000D02*
Y304000D01*
X461500Y303500D02*
X465500Y307500D01*
X461500Y311500*
X457500Y307500*
X461500Y303500*
Y307500D02*
Y311500D01*
X634500Y306000D02*
X638500Y310000D01*
X634500Y314000*
X630500Y310000*
X634500Y306000*
Y310000D02*
Y314000D01*
X656500Y301000D02*
X660500Y305000D01*
X656500Y309000*
X652500Y305000*
X656500Y301000*
Y305000D02*
Y309000D01*
X646500Y306000D02*
X650500Y310000D01*
X646500Y314000*
X642500Y310000*
X646500Y306000*
Y310000D02*
Y314000D01*
X191500Y314500D02*
X195500Y318500D01*
X191500Y322500*
X187500Y318500*
X191500Y314500*
Y318500D02*
Y322500D01*
X209500Y323500D02*
X213500Y327500D01*
X209500Y331500*
X205500Y327500*
X209500Y323500*
Y327500D02*
Y331500D01*
X220000Y325500D02*
X224000Y329500D01*
X220000Y333500*
X216000Y329500*
X220000Y325500*
Y329500D02*
Y333500D01*
X335500Y316500D02*
X339500Y320500D01*
X335500Y324500*
X331500Y320500*
X335500Y316500*
Y320500D02*
Y324500D01*
X326000Y325000D02*
X330000Y329000D01*
X326000Y333000*
X322000Y329000*
X326000Y325000*
Y329000D02*
Y333000D01*
X354500Y323500D02*
X358500Y327500D01*
X354500Y331500*
X350500Y327500*
X354500Y323500*
Y327500D02*
Y331500D01*
X341500Y323000D02*
X345500Y327000D01*
X341500Y331000*
X337500Y327000*
X341500Y323000*
Y327000D02*
Y331000D01*
X354500Y312500D02*
X358500Y316500D01*
X354500Y320500*
X350500Y316500*
X354500Y312500*
Y316500D02*
Y320500D01*
X366000Y312500D02*
X370000Y316500D01*
X366000Y320500*
X362000Y316500*
X366000Y312500*
Y316500D02*
Y320500D01*
X371500Y312500D02*
X375500Y316500D01*
X371500Y320500*
X367500Y316500*
X371500Y312500*
Y316500D02*
Y320500D01*
X377000Y312500D02*
X381000Y316500D01*
X377000Y320500*
X373000Y316500*
X377000Y312500*
Y316500D02*
Y320500D01*
X360000Y312500D02*
X364000Y316500D01*
X360000Y320500*
X356000Y316500*
X360000Y312500*
Y316500D02*
Y320500D01*
X406000Y318000D02*
X410000Y322000D01*
X406000Y326000*
X402000Y322000*
X406000Y318000*
Y322000D02*
Y326000D01*
X426500Y312500D02*
X430500Y316500D01*
X426500Y320500*
X422500Y316500*
X426500Y312500*
Y316500D02*
Y320500D01*
X432000Y312500D02*
X436000Y316500D01*
X432000Y320500*
X428000Y316500*
X432000Y312500*
Y316500D02*
Y320500D01*
X443500Y312500D02*
X447500Y316500D01*
X443500Y320500*
X439500Y316500*
X443500Y312500*
Y316500D02*
Y320500D01*
X449000Y312500D02*
X453000Y316500D01*
X449000Y320500*
X445000Y316500*
X449000Y312500*
Y316500D02*
Y320500D01*
X438000Y312500D02*
X442000Y316500D01*
X438000Y320500*
X434000Y316500*
X438000Y312500*
Y316500D02*
Y320500D01*
X472500Y322000D02*
X476500Y326000D01*
X472500Y330000*
X468500Y326000*
X472500Y322000*
Y326000D02*
Y330000D01*
X488000Y327000D02*
X492000Y331000D01*
X488000Y335000*
X484000Y331000*
X488000Y327000*
Y331000D02*
Y335000D01*
X499000Y322500D02*
X503000Y326500D01*
X499000Y330500*
X495000Y326500*
X499000Y322500*
Y326500D02*
Y330500D01*
X531000Y312500D02*
X535000Y316500D01*
X531000Y320500*
X527000Y316500*
X531000Y312500*
Y316500D02*
Y320500D01*
X527000Y317000D02*
X531000Y321000D01*
X527000Y325000*
X523000Y321000*
X527000Y317000*
Y321000D02*
Y325000D01*
X535500Y314000D02*
X539500Y318000D01*
X535500Y322000*
X531500Y318000*
X535500Y314000*
Y318000D02*
Y322000D01*
X110000Y337000D02*
X114000Y341000D01*
X110000Y345000*
X106000Y341000*
X110000Y337000*
Y341000D02*
Y345000D01*
X107000Y348000D02*
X111000Y352000D01*
X107000Y356000*
X103000Y352000*
X107000Y348000*
Y352000D02*
Y356000D01*
X112500Y348000D02*
X116500Y352000D01*
X112500Y356000*
X108500Y352000*
X112500Y348000*
Y352000D02*
Y356000D01*
X130000Y338000D02*
X134000Y342000D01*
X130000Y346000*
X126000Y342000*
X130000Y338000*
Y342000D02*
Y346000D01*
X118500Y346500D02*
X122500Y350500D01*
X118500Y354500*
X114500Y350500*
X118500Y346500*
Y350500D02*
Y354500D01*
X187500Y348000D02*
X191500Y352000D01*
X187500Y356000*
X183500Y352000*
X187500Y348000*
Y352000D02*
Y356000D01*
X180500Y337500D02*
X184500Y341500D01*
X180500Y345500*
X176500Y341500*
X180500Y337500*
Y341500D02*
Y345500D01*
X232000Y348000D02*
X236000Y352000D01*
X232000Y356000*
X228000Y352000*
X232000Y348000*
Y352000D02*
Y356000D01*
X332000Y330000D02*
X336000Y334000D01*
X332000Y338000*
X328000Y334000*
X332000Y330000*
Y334000D02*
Y338000D01*
X452500Y342000D02*
X456500Y346000D01*
X452500Y350000*
X448500Y346000*
X452500Y342000*
Y346000D02*
Y350000D01*
X459500Y343000D02*
X463500Y347000D01*
X459500Y351000*
X455500Y347000*
X459500Y343000*
Y347000D02*
Y351000D01*
X460000Y335000D02*
X464000Y339000D01*
X460000Y343000*
X456000Y339000*
X460000Y335000*
Y339000D02*
Y343000D01*
X485500Y333000D02*
X489500Y337000D01*
X485500Y341000*
X481500Y337000*
X485500Y333000*
Y337000D02*
Y341000D01*
X480500Y342000D02*
X484500Y346000D01*
X480500Y350000*
X476500Y346000*
X480500Y342000*
Y346000D02*
Y350000D01*
X506000Y344000D02*
X510000Y348000D01*
X506000Y352000*
X502000Y348000*
X506000Y344000*
Y348000D02*
Y352000D01*
X514000Y344000D02*
X518000Y348000D01*
X514000Y352000*
X510000Y348000*
X514000Y344000*
Y348000D02*
Y352000D01*
X498000Y344000D02*
X502000Y348000D01*
X498000Y352000*
X494000Y348000*
X498000Y344000*
Y348000D02*
Y352000D01*
X531000Y339000D02*
X535000Y343000D01*
X531000Y347000*
X527000Y343000*
X531000Y339000*
Y343000D02*
Y347000D01*
X527000Y334500D02*
X531000Y338500D01*
X527000Y342500*
X523000Y338500*
X527000Y334500*
Y338500D02*
Y342500D01*
X535500Y342000D02*
X539500Y346000D01*
X535500Y350000*
X531500Y346000*
X535500Y342000*
Y346000D02*
Y350000D01*
X576500Y345500D02*
X580500Y349500D01*
X576500Y353500*
X572500Y349500*
X576500Y345500*
Y349500D02*
Y353500D01*
X639000Y345500D02*
X643000Y349500D01*
X639000Y353500*
X635000Y349500*
X639000Y345500*
Y349500D02*
Y353500D01*
X118500Y351000D02*
X122500Y355000D01*
X118500Y359000*
X114500Y355000*
X118500Y351000*
Y355000D02*
Y359000D01*
Y356000D02*
X122500Y360000D01*
X118500Y364000*
X114500Y360000*
X118500Y356000*
Y360000D02*
Y364000D01*
Y361500D02*
X122500Y365500D01*
X118500Y369500*
X114500Y365500*
X118500Y361500*
Y365500D02*
Y369500D01*
Y367000D02*
X122500Y371000D01*
X118500Y375000*
X114500Y371000*
X118500Y367000*
Y371000D02*
Y375000D01*
X197000Y352500D02*
X201000Y356500D01*
X197000Y360500*
X193000Y356500*
X197000Y352500*
Y356500D02*
Y360500D01*
X214500Y352500D02*
X218500Y356500D01*
X214500Y360500*
X210500Y356500*
X214500Y352500*
Y356500D02*
Y360500D01*
X242500Y349500D02*
X246500Y353500D01*
X242500Y357500*
X238500Y353500*
X242500Y349500*
Y353500D02*
Y357500D01*
X252000Y360000D02*
X256000Y364000D01*
X252000Y368000*
X248000Y364000*
X252000Y360000*
Y364000D02*
Y368000D01*
Y364500D02*
X256000Y368500D01*
X252000Y372500*
X248000Y368500*
X252000Y364500*
Y368500D02*
Y372500D01*
X248000Y354500D02*
X252000Y358500D01*
X248000Y362500*
X244000Y358500*
X248000Y354500*
Y358500D02*
Y362500D01*
X263000Y349500D02*
X267000Y353500D01*
X263000Y357500*
X259000Y353500*
X263000Y349500*
Y353500D02*
Y357500D01*
X279500Y362000D02*
X283500Y366000D01*
X279500Y370000*
X275500Y366000*
X279500Y362000*
Y366000D02*
Y370000D01*
Y353000D02*
X283500Y357000D01*
X279500Y361000*
X275500Y357000*
X279500Y353000*
Y357000D02*
Y361000D01*
X329000Y364000D02*
X333000Y368000D01*
X329000Y372000*
X325000Y368000*
X329000Y364000*
Y368000D02*
Y372000D01*
X320500Y357000D02*
X324500Y361000D01*
X320500Y365000*
X316500Y361000*
X320500Y357000*
Y361000D02*
Y365000D01*
X347500Y359000D02*
X351500Y363000D01*
X347500Y367000*
X343500Y363000*
X347500Y359000*
Y363000D02*
Y367000D01*
X363000Y359000D02*
X367000Y363000D01*
X363000Y367000*
X359000Y363000*
X363000Y359000*
Y363000D02*
Y367000D01*
X380000Y359000D02*
X384000Y363000D01*
X380000Y367000*
X376000Y363000*
X380000Y359000*
Y363000D02*
Y367000D01*
X416000Y354000D02*
X420000Y358000D01*
X416000Y362000*
X412000Y358000*
X416000Y354000*
Y358000D02*
Y362000D01*
X404500Y354000D02*
X408500Y358000D01*
X404500Y362000*
X400500Y358000*
X404500Y354000*
Y358000D02*
Y362000D01*
X425500Y354500D02*
X429500Y358500D01*
X425500Y362500*
X421500Y358500*
X425500Y354500*
Y358500D02*
Y362500D01*
X441500Y359000D02*
X445500Y363000D01*
X441500Y367000*
X437500Y363000*
X441500Y359000*
Y363000D02*
Y367000D01*
X456500Y363500D02*
X460500Y367500D01*
X456500Y371500*
X452500Y367500*
X456500Y363500*
Y367500D02*
Y371500D01*
X466500Y355500D02*
X470500Y359500D01*
X466500Y363500*
X462500Y359500*
X466500Y355500*
Y359500D02*
Y363500D01*
X475500Y362500D02*
X479500Y366500D01*
X475500Y370500*
X471500Y366500*
X475500Y362500*
Y366500D02*
Y370500D01*
X463000Y351000D02*
X467000Y355000D01*
X463000Y359000*
X459000Y355000*
X463000Y351000*
Y355000D02*
Y359000D01*
X514000Y352000D02*
X518000Y356000D01*
X514000Y360000*
X510000Y356000*
X514000Y352000*
Y356000D02*
Y360000D01*
X506000Y352000D02*
X510000Y356000D01*
X506000Y360000*
X502000Y356000*
X506000Y352000*
Y356000D02*
Y360000D01*
X510000Y364000*
X506000Y368000*
X502000Y364000*
X506000Y360000*
Y364000D02*
Y368000D01*
X498000Y352000D02*
X502000Y356000D01*
X498000Y360000*
X494000Y356000*
X498000Y352000*
Y356000D02*
Y360000D01*
X502000Y364000*
X498000Y368000*
X494000Y364000*
X498000Y360000*
Y364000D02*
Y368000D01*
X514000Y360000D02*
X518000Y364000D01*
X514000Y368000*
X510000Y364000*
X514000Y360000*
Y364000D02*
Y368000D01*
X581500Y356000D02*
X585500Y360000D01*
X581500Y364000*
X577500Y360000*
X581500Y356000*
Y360000D02*
Y364000D01*
X594000Y364500D02*
X598000Y368500D01*
X594000Y372500*
X590000Y368500*
X594000Y364500*
Y368500D02*
Y372500D01*
X639000Y365500D02*
X643000Y369500D01*
X639000Y373500*
X635000Y369500*
X639000Y365500*
Y369500D02*
Y373500D01*
Y355500D02*
X643000Y359500D01*
X639000Y363500*
X635000Y359500*
X639000Y355500*
Y359500D02*
Y363500D01*
X108000Y371500D02*
X112000Y375500D01*
X108000Y379500*
X104000Y375500*
X108000Y371500*
Y375500D02*
Y379500D01*
X113000Y371500D02*
X117000Y375500D01*
X113000Y379500*
X109000Y375500*
X113000Y371500*
Y375500D02*
Y379500D01*
X118500Y373000D02*
X122500Y377000D01*
X118500Y381000*
X114500Y377000*
X118500Y373000*
Y377000D02*
Y381000D01*
Y378500D02*
X122500Y382500D01*
X118500Y386500*
X114500Y382500*
X118500Y378500*
Y382500D02*
Y386500D01*
Y384000D02*
X122500Y388000D01*
X118500Y392000*
X114500Y388000*
X118500Y384000*
Y388000D02*
Y392000D01*
X191000Y385500D02*
X195000Y389500D01*
X191000Y393500*
X187000Y389500*
X191000Y385500*
Y389500D02*
Y393500D01*
X224500Y388000D02*
X228500Y392000D01*
X224500Y396000*
X220500Y392000*
X224500Y388000*
Y392000D02*
Y396000D01*
X237000Y388000D02*
X241000Y392000D01*
X237000Y396000*
X233000Y392000*
X237000Y388000*
Y392000D02*
Y396000D01*
X237500Y376500D02*
X241500Y380500D01*
X237500Y384500*
X233500Y380500*
X237500Y376500*
Y380500D02*
Y384500D01*
X273000Y383000D02*
X277000Y387000D01*
X273000Y391000*
X269000Y387000*
X273000Y383000*
Y387000D02*
Y391000D01*
X309500Y381000D02*
X313500Y385000D01*
X309500Y389000*
X305500Y385000*
X309500Y381000*
Y385000D02*
Y389000D01*
X320500Y381000D02*
X324500Y385000D01*
X320500Y389000*
X316500Y385000*
X320500Y381000*
Y385000D02*
Y389000D01*
X356500Y383000D02*
X360500Y387000D01*
X356500Y391000*
X352500Y387000*
X356500Y383000*
Y387000D02*
Y391000D01*
X391000Y375000D02*
X395000Y379000D01*
X391000Y383000*
X387000Y379000*
X391000Y375000*
Y379000D02*
Y383000D01*
X399000Y384000D02*
X403000Y388000D01*
X399000Y392000*
X395000Y388000*
X399000Y384000*
Y388000D02*
Y392000D01*
X425500Y381500D02*
X429500Y385500D01*
X425500Y389500*
X421500Y385500*
X425500Y381500*
Y385500D02*
Y389500D01*
Y372500D02*
X429500Y376500D01*
X425500Y380500*
X421500Y376500*
X425500Y372500*
Y376500D02*
Y380500D01*
X441500Y377500D02*
X445500Y381500D01*
X441500Y385500*
X437500Y381500*
X441500Y377500*
Y381500D02*
Y385500D01*
X457000Y381500D02*
X461000Y385500D01*
X457000Y389500*
X453000Y385500*
X457000Y381500*
Y385500D02*
Y389500D01*
X462000Y380500D02*
X466000Y384500D01*
X462000Y388500*
X458000Y384500*
X462000Y380500*
Y384500D02*
Y388500D01*
X467000Y371000D02*
X471000Y375000D01*
X467000Y379000*
X463000Y375000*
X467000Y371000*
Y375000D02*
Y379000D01*
X473000Y371000D02*
X477000Y375000D01*
X473000Y379000*
X469000Y375000*
X473000Y371000*
Y375000D02*
Y379000D01*
X490000Y373000D02*
X494000Y377000D01*
X490000Y381000*
X486000Y377000*
X490000Y373000*
Y377000D02*
Y381000D01*
X489000Y386000D02*
X493000Y390000D01*
X489000Y394000*
X485000Y390000*
X489000Y386000*
Y390000D02*
Y394000D01*
X503500Y379500D02*
X507500Y383500D01*
X503500Y387500*
X499500Y383500*
X503500Y379500*
Y383500D02*
Y387500D01*
X508000Y380000D02*
X512000Y384000D01*
X508000Y388000*
X504000Y384000*
X508000Y380000*
Y384000D02*
Y388000D01*
X527500Y380500D02*
X531500Y384500D01*
X527500Y388500*
X523500Y384500*
X527500Y380500*
Y384500D02*
Y388500D01*
X592000Y375500D02*
X596000Y379500D01*
X592000Y383500*
X588000Y379500*
X592000Y375500*
Y379500D02*
Y383500D01*
X639000Y375500D02*
X643000Y379500D01*
X639000Y383500*
X635000Y379500*
X639000Y375500*
Y379500D02*
Y383500D01*
X113500Y395000D02*
X117500Y399000D01*
X113500Y403000*
X109500Y399000*
X113500Y395000*
Y399000D02*
Y403000D01*
X108500Y395000D02*
X112500Y399000D01*
X108500Y403000*
X104500Y399000*
X108500Y395000*
Y399000D02*
Y403000D01*
Y399500D02*
X112500Y403500D01*
X108500Y407500*
X104500Y403500*
X108500Y399500*
Y403500D02*
Y407500D01*
Y405000D02*
X112500Y409000D01*
X108500Y413000*
X104500Y409000*
X108500Y405000*
Y409000D02*
Y413000D01*
X118500Y389500D02*
X122500Y393500D01*
X118500Y397500*
X114500Y393500*
X118500Y389500*
Y393500D02*
Y397500D01*
Y395000D02*
X122500Y399000D01*
X118500Y403000*
X114500Y399000*
X118500Y395000*
Y399000D02*
Y403000D01*
X159500Y400500D02*
X163500Y404500D01*
X159500Y408500*
X155500Y404500*
X159500Y400500*
Y404500D02*
Y408500D01*
X160500Y392000D02*
X164500Y396000D01*
X160500Y400000*
X156500Y396000*
X160500Y392000*
Y396000D02*
Y400000D01*
X181000Y397000D02*
X185000Y401000D01*
X181000Y405000*
X177000Y401000*
X181000Y397000*
Y401000D02*
Y405000D01*
X197500Y399500D02*
X201500Y403500D01*
X197500Y407500*
X193500Y403500*
X197500Y399500*
Y403500D02*
Y407500D01*
X207500Y398500D02*
X211500Y402500D01*
X207500Y406500*
X203500Y402500*
X207500Y398500*
Y402500D02*
Y406500D01*
X202000Y394000D02*
X206000Y398000D01*
X202000Y402000*
X198000Y398000*
X202000Y394000*
Y398000D02*
Y402000D01*
X225000Y400500D02*
X229000Y404500D01*
X225000Y408500*
X221000Y404500*
X225000Y400500*
Y404500D02*
Y408500D01*
X249500Y402500D02*
X253500Y406500D01*
X249500Y410500*
X245500Y406500*
X249500Y402500*
Y406500D02*
Y410500D01*
X252000Y394000D02*
X256000Y398000D01*
X252000Y402000*
X248000Y398000*
X252000Y394000*
Y398000D02*
Y402000D01*
X262500Y396500D02*
X266500Y400500D01*
X262500Y404500*
X258500Y400500*
X262500Y396500*
Y400500D02*
Y404500D01*
X263500Y406500D02*
X267500Y410500D01*
X263500Y414500*
X259500Y410500*
X263500Y406500*
Y410500D02*
Y414500D01*
X290000Y392000D02*
X294000Y396000D01*
X290000Y400000*
X286000Y396000*
X290000Y392000*
Y396000D02*
Y400000D01*
X281500Y406500D02*
X285500Y410500D01*
X281500Y414500*
X277500Y410500*
X281500Y406500*
Y410500D02*
Y414500D01*
X284000Y396500D02*
X288000Y400500D01*
X284000Y404500*
X280000Y400500*
X284000Y396500*
Y400500D02*
Y404500D01*
X334800Y397300D02*
X338800Y401300D01*
X334800Y405300*
X330800Y401300*
X334800Y397300*
Y401300D02*
Y405300D01*
X328000Y396500D02*
X332000Y400500D01*
X328000Y404500*
X324000Y400500*
X328000Y396500*
Y400500D02*
Y404500D01*
X341500Y392000D02*
X345500Y396000D01*
X341500Y400000*
X337500Y396000*
X341500Y392000*
Y396000D02*
Y400000D01*
X370200Y406500D02*
X374200Y410500D01*
X370200Y414500*
X366200Y410500*
X370200Y406500*
Y410500D02*
Y414500D01*
X406000Y400500D02*
X410000Y404500D01*
X406000Y408500*
X402000Y404500*
X406000Y400500*
Y404500D02*
Y408500D01*
X418000Y403500D02*
X422000Y407500D01*
X418000Y411500*
X414000Y407500*
X418000Y403500*
Y407500D02*
Y411500D01*
X422500Y408000D02*
X426500Y412000D01*
X422500Y416000*
X418500Y412000*
X422500Y408000*
Y412000D02*
Y416000D01*
X421500Y397000D02*
X425500Y401000D01*
X421500Y405000*
X417500Y401000*
X421500Y397000*
Y401000D02*
Y405000D01*
X489500Y399000D02*
X493500Y403000D01*
X489500Y407000*
X485500Y403000*
X489500Y399000*
Y403000D02*
Y407000D01*
X485000Y396500D02*
X489000Y400500D01*
X485000Y404500*
X481000Y400500*
X485000Y396500*
Y400500D02*
Y404500D01*
X494500Y400500D02*
X498500Y404500D01*
X494500Y408500*
X490500Y404500*
X494500Y400500*
Y404500D02*
Y408500D01*
X510500Y390500D02*
X514500Y394500D01*
X510500Y398500*
X506500Y394500*
X510500Y390500*
Y394500D02*
Y398500D01*
X505500Y397000D02*
X509500Y401000D01*
X505500Y405000*
X501500Y401000*
X505500Y397000*
Y401000D02*
Y405000D01*
X523500Y397000D02*
X527500Y401000D01*
X523500Y405000*
X519500Y401000*
X523500Y397000*
Y401000D02*
Y405000D01*
X533500Y397000D02*
X537500Y401000D01*
X533500Y405000*
X529500Y401000*
X533500Y397000*
Y401000D02*
Y405000D01*
X558000Y407000D02*
X562000Y411000D01*
X558000Y415000*
X554000Y411000*
X558000Y407000*
Y411000D02*
Y415000D01*
X580000Y407000D02*
X584000Y411000D01*
X580000Y415000*
X576000Y411000*
X580000Y407000*
Y411000D02*
Y415000D01*
X108500Y410000D02*
X112500Y414000D01*
X108500Y418000*
X104500Y414000*
X108500Y410000*
Y414000D02*
Y418000D01*
X113500Y410000D02*
X117500Y414000D01*
X113500Y418000*
X109500Y414000*
X113500Y410000*
Y414000D02*
Y418000D01*
X118500Y410000D02*
X122500Y414000D01*
X118500Y418000*
X114500Y414000*
X118500Y410000*
Y414000D02*
Y418000D01*
X144500Y428500D02*
X148500Y432500D01*
X144500Y436500*
X140500Y432500*
X144500Y428500*
Y432500D02*
Y436500D01*
X176000Y416000D02*
X180000Y420000D01*
X176000Y424000*
X172000Y420000*
X176000Y416000*
Y420000D02*
Y424000D01*
X191000Y426500D02*
X195000Y430500D01*
X191000Y434500*
X187000Y430500*
X191000Y426500*
Y430500D02*
Y434500D01*
X186500Y422500D02*
X190500Y426500D01*
X186500Y430500*
X182500Y426500*
X186500Y422500*
Y426500D02*
Y430500D01*
X213500Y417000D02*
X217500Y421000D01*
X213500Y425000*
X209500Y421000*
X213500Y417000*
Y421000D02*
Y425000D01*
X201500Y421500D02*
X205500Y425500D01*
X201500Y429500*
X197500Y425500*
X201500Y421500*
Y425500D02*
Y429500D01*
X237000Y415000D02*
X241000Y419000D01*
X237000Y423000*
X233000Y419000*
X237000Y415000*
Y419000D02*
Y423000D01*
X229500Y424500D02*
X233500Y428500D01*
X229500Y432500*
X225500Y428500*
X229500Y424500*
Y428500D02*
Y432500D01*
X234500Y424500D02*
X238500Y428500D01*
X234500Y432500*
X230500Y428500*
X234500Y424500*
Y428500D02*
Y432500D01*
X239500Y424500D02*
X243500Y428500D01*
X239500Y432500*
X235500Y428500*
X239500Y424500*
Y428500D02*
Y432500D01*
X252000Y428000D02*
X256000Y432000D01*
X252000Y436000*
X248000Y432000*
X252000Y428000*
Y432000D02*
Y436000D01*
X247500Y423000D02*
X251500Y427000D01*
X247500Y431000*
X243500Y427000*
X247500Y423000*
Y427000D02*
Y431000D01*
Y428000D02*
X251500Y432000D01*
X247500Y436000*
X243500Y432000*
X247500Y428000*
Y432000D02*
Y436000D01*
X256500Y412000D02*
X260500Y416000D01*
X256500Y420000*
X252500Y416000*
X256500Y412000*
Y416000D02*
Y420000D01*
Y417000D02*
X260500Y421000D01*
X256500Y425000*
X252500Y421000*
X256500Y417000*
Y421000D02*
Y425000D01*
X252000Y411500D02*
X256000Y415500D01*
X252000Y419500*
X248000Y415500*
X252000Y411500*
Y415500D02*
Y419500D01*
X247500Y412000D02*
X251500Y416000D01*
X247500Y420000*
X243500Y416000*
X247500Y412000*
Y416000D02*
Y420000D01*
Y417000D02*
X251500Y421000D01*
X247500Y425000*
X243500Y421000*
X247500Y417000*
Y421000D02*
Y425000D01*
X274000Y411000D02*
X278000Y415000D01*
X274000Y419000*
X270000Y415000*
X274000Y411000*
Y415000D02*
Y419000D01*
X277500Y422500D02*
X281500Y426500D01*
X277500Y430500*
X273500Y426500*
X277500Y422500*
Y426500D02*
Y430500D01*
X272500Y427500D02*
X276500Y431500D01*
X272500Y435500*
X268500Y431500*
X272500Y427500*
Y431500D02*
Y435500D01*
X281500Y415500D02*
X285500Y419500D01*
X281500Y423500*
X277500Y419500*
X281500Y415500*
Y419500D02*
Y423500D01*
X294500Y425000D02*
X298500Y429000D01*
X294500Y433000*
X290500Y429000*
X294500Y425000*
Y429000D02*
Y433000D01*
X283000Y424500D02*
X287000Y428500D01*
X283000Y432500*
X279000Y428500*
X283000Y424500*
Y428500D02*
Y432500D01*
X288500Y422500D02*
X292500Y426500D01*
X288500Y430500*
X284500Y426500*
X288500Y422500*
Y426500D02*
Y430500D01*
X300500Y418000D02*
X304500Y422000D01*
X300500Y426000*
X296500Y422000*
X300500Y418000*
Y422000D02*
Y426000D01*
X311000Y423000D02*
X315000Y427000D01*
X311000Y431000*
X307000Y427000*
X311000Y423000*
Y427000D02*
Y431000D01*
X304500Y416000D02*
X308500Y420000D01*
X304500Y424000*
X300500Y420000*
X304500Y416000*
Y420000D02*
Y424000D01*
X314500Y410000D02*
X318500Y414000D01*
X314500Y418000*
X310500Y414000*
X314500Y410000*
Y414000D02*
Y418000D01*
X335000Y427500D02*
X339000Y431500D01*
X335000Y435500*
X331000Y431500*
X335000Y427500*
Y431500D02*
Y435500D01*
X319000Y423000D02*
X323000Y427000D01*
X319000Y431000*
X315000Y427000*
X319000Y423000*
Y427000D02*
Y431000D01*
X346500Y411000D02*
X350500Y415000D01*
X346500Y419000*
X342500Y415000*
X346500Y411000*
Y415000D02*
Y419000D01*
X340000Y422000D02*
X344000Y426000D01*
X340000Y430000*
X336000Y426000*
X340000Y422000*
Y426000D02*
Y430000D01*
X351500Y415000D02*
X355500Y419000D01*
X351500Y423000*
X347500Y419000*
X351500Y415000*
Y419000D02*
Y423000D01*
X351000Y422500D02*
X355000Y426500D01*
X351000Y430500*
X347000Y426500*
X351000Y422500*
Y426500D02*
Y430500D01*
X345500Y424500D02*
X349500Y428500D01*
X345500Y432500*
X341500Y428500*
X345500Y424500*
Y428500D02*
Y432500D01*
X355500Y427500D02*
X359500Y431500D01*
X355500Y435500*
X351500Y431500*
X355500Y427500*
Y431500D02*
Y435500D01*
X372500Y425000D02*
X376500Y429000D01*
X372500Y433000*
X368500Y429000*
X372500Y425000*
Y429000D02*
Y433000D01*
X399500Y424000D02*
X403500Y428000D01*
X399500Y432000*
X395500Y428000*
X399500Y424000*
Y428000D02*
Y432000D01*
X418000Y423500D02*
X422000Y427500D01*
X418000Y431500*
X414000Y427500*
X418000Y423500*
Y427500D02*
Y431500D01*
X440000Y423500D02*
X444000Y427500D01*
X440000Y431500*
X436000Y427500*
X440000Y423500*
Y427500D02*
Y431500D01*
X467000Y411000D02*
X471000Y415000D01*
X467000Y419000*
X463000Y415000*
X467000Y411000*
Y415000D02*
Y419000D01*
X514500Y413000D02*
X518500Y417000D01*
X514500Y421000*
X510500Y417000*
X514500Y413000*
Y417000D02*
Y421000D01*
X505500Y413000D02*
X509500Y417000D01*
X505500Y421000*
X501500Y417000*
X505500Y413000*
Y417000D02*
Y421000D01*
X499500Y411000D02*
X503500Y415000D01*
X499500Y419000*
X495500Y415000*
X499500Y411000*
Y415000D02*
Y419000D01*
X558000Y417000D02*
X562000Y421000D01*
X558000Y425000*
X554000Y421000*
X558000Y417000*
Y421000D02*
Y425000D01*
X576000Y412000D02*
X580000Y416000D01*
X576000Y420000*
X572000Y416000*
X576000Y412000*
Y416000D02*
Y420000D01*
X579500Y417000D02*
X583500Y421000D01*
X579500Y425000*
X575500Y421000*
X579500Y417000*
Y421000D02*
Y425000D01*
X607500Y423500D02*
X611500Y427500D01*
X607500Y431500*
X603500Y427500*
X607500Y423500*
Y427500D02*
Y431500D01*
X602500Y418500D02*
X606500Y422500D01*
X602500Y426500*
X598500Y422500*
X602500Y418500*
Y422500D02*
Y426500D01*
X623000Y414500D02*
X627000Y418500D01*
X623000Y422500*
X619000Y418500*
X623000Y414500*
Y418500D02*
Y422500D01*
Y423500D02*
X627000Y427500D01*
X623000Y431500*
X619000Y427500*
X623000Y423500*
Y427500D02*
Y431500D01*
X154000Y439500D02*
X158000Y443500D01*
X154000Y447500*
X150000Y443500*
X154000Y439500*
Y443500D02*
Y447500D01*
Y434500D02*
X158000Y438500D01*
X154000Y442500*
X150000Y438500*
X154000Y434500*
Y438500D02*
Y442500D01*
X148000Y434500D02*
X152000Y438500D01*
X148000Y442500*
X144000Y438500*
X148000Y434500*
Y438500D02*
Y442500D01*
Y439500D02*
X152000Y443500D01*
X148000Y447500*
X144000Y443500*
X148000Y439500*
Y443500D02*
Y447500D01*
Y445500D02*
X152000Y449500D01*
X148000Y453500*
X144000Y449500*
X148000Y445500*
Y449500D02*
Y453500D01*
X170000Y440500D02*
X174000Y444500D01*
X170000Y448500*
X166000Y444500*
X170000Y440500*
Y444500D02*
Y448500D01*
X172500Y447000D02*
X176500Y451000D01*
X172500Y455000*
X168500Y451000*
X172500Y447000*
Y451000D02*
Y455000D01*
X194500Y447500D02*
X198500Y451500D01*
X194500Y455500*
X190500Y451500*
X194500Y447500*
Y451500D02*
Y455500D01*
Y441000D02*
X198500Y445000D01*
X194500Y449000*
X190500Y445000*
X194500Y441000*
Y445000D02*
Y449000D01*
X189000Y441000D02*
X193000Y445000D01*
X189000Y449000*
X185000Y445000*
X189000Y441000*
Y445000D02*
Y449000D01*
X178000Y448500D02*
X182000Y452500D01*
X178000Y456500*
X174000Y452500*
X178000Y448500*
Y452500D02*
Y456500D01*
X183500Y448500D02*
X187500Y452500D01*
X183500Y456500*
X179500Y452500*
X183500Y448500*
Y452500D02*
Y456500D01*
X189000Y447500D02*
X193000Y451500D01*
X189000Y455500*
X185000Y451500*
X189000Y447500*
Y451500D02*
Y455500D01*
X201500Y431000D02*
X205500Y435000D01*
X201500Y439000*
X197500Y435000*
X201500Y431000*
Y435000D02*
Y439000D01*
X234500Y430500D02*
X238500Y434500D01*
X234500Y438500*
X230500Y434500*
X234500Y430500*
Y434500D02*
Y438500D01*
Y436500D02*
X238500Y440500D01*
X234500Y444500*
X230500Y440500*
X234500Y436500*
Y440500D02*
Y444500D01*
X234000Y442000D02*
X238000Y446000D01*
X234000Y450000*
X230000Y446000*
X234000Y442000*
Y446000D02*
Y450000D01*
X239500Y436500D02*
X243500Y440500D01*
X239500Y444500*
X235500Y440500*
X239500Y436500*
Y440500D02*
Y444500D01*
Y442500D02*
X243500Y446500D01*
X239500Y450500*
X235500Y446500*
X239500Y442500*
Y446500D02*
Y450500D01*
Y430500D02*
X243500Y434500D01*
X239500Y438500*
X235500Y434500*
X239500Y430500*
Y434500D02*
Y438500D01*
X268000Y430000D02*
X272000Y434000D01*
X268000Y438000*
X264000Y434000*
X268000Y430000*
Y434000D02*
Y438000D01*
X272000Y437000D02*
X276000Y441000D01*
X272000Y445000*
X268000Y441000*
X272000Y437000*
Y441000D02*
Y445000D01*
Y442000D02*
X276000Y446000D01*
X272000Y450000*
X268000Y446000*
X272000Y442000*
Y446000D02*
Y450000D01*
X277500Y443000D02*
X281500Y447000D01*
X277500Y451000*
X273500Y447000*
X277500Y443000*
Y447000D02*
Y451000D01*
X283500Y442500D02*
X287500Y446500D01*
X283500Y450500*
X279500Y446500*
X283500Y442500*
Y446500D02*
Y450500D01*
X289500Y442500D02*
X293500Y446500D01*
X289500Y450500*
X285500Y446500*
X289500Y442500*
Y446500D02*
Y450500D01*
X296000Y440500D02*
X300000Y444500D01*
X296000Y448500*
X292000Y444500*
X296000Y440500*
Y444500D02*
Y448500D01*
Y436000D02*
X300000Y440000D01*
X296000Y444000*
X292000Y440000*
X296000Y436000*
Y440000D02*
Y444000D01*
X283000Y430000D02*
X287000Y434000D01*
X283000Y438000*
X279000Y434000*
X283000Y430000*
Y434000D02*
Y438000D01*
X296000Y430000D02*
X300000Y434000D01*
X296000Y438000*
X292000Y434000*
X296000Y430000*
Y434000D02*
Y438000D01*
X300500Y429500D02*
X304500Y433500D01*
X300500Y437500*
X296500Y433500*
X300500Y429500*
Y433500D02*
Y437500D01*
X301000Y436000D02*
X305000Y440000D01*
X301000Y444000*
X297000Y440000*
X301000Y436000*
Y440000D02*
Y444000D01*
X311000Y431000D02*
X315000Y435000D01*
X311000Y439000*
X307000Y435000*
X311000Y431000*
Y435000D02*
Y439000D01*
X330500Y429500D02*
X334500Y433500D01*
X330500Y437500*
X326500Y433500*
X330500Y429500*
Y433500D02*
Y437500D01*
X332500Y440500D02*
X336500Y444500D01*
X332500Y448500*
X328500Y444500*
X332500Y440500*
Y444500D02*
Y448500D01*
Y435500D02*
X336500Y439500D01*
X332500Y443500*
X328500Y439500*
X332500Y435500*
Y439500D02*
Y443500D01*
X319000Y431000D02*
X323000Y435000D01*
X319000Y439000*
X315000Y435000*
X319000Y431000*
Y435000D02*
Y439000D01*
X350500Y443000D02*
X354500Y447000D01*
X350500Y451000*
X346500Y447000*
X350500Y443000*
Y447000D02*
Y451000D01*
X345500Y434000D02*
X349500Y438000D01*
X345500Y442000*
X341500Y438000*
X345500Y434000*
Y438000D02*
Y442000D01*
Y438500D02*
X349500Y442500D01*
X345500Y446500*
X341500Y442500*
X345500Y438500*
Y442500D02*
Y446500D01*
Y443000D02*
X349500Y447000D01*
X345500Y451000*
X341500Y447000*
X345500Y443000*
Y447000D02*
Y451000D01*
X340000Y443000D02*
X344000Y447000D01*
X340000Y451000*
X336000Y447000*
X340000Y443000*
Y447000D02*
Y451000D01*
X345500Y429500D02*
X349500Y433500D01*
X345500Y437500*
X341500Y433500*
X345500Y429500*
Y433500D02*
Y437500D01*
X371000Y442500D02*
X375000Y446500D01*
X371000Y450500*
X367000Y446500*
X371000Y442500*
Y446500D02*
Y450500D01*
Y433500D02*
X375000Y437500D01*
X371000Y441500*
X367000Y437500*
X371000Y433500*
Y437500D02*
Y441500D01*
X376000Y433500D02*
X380000Y437500D01*
X376000Y441500*
X372000Y437500*
X376000Y433500*
Y437500D02*
Y441500D01*
X360000Y439000D02*
X364000Y443000D01*
X360000Y447000*
X356000Y443000*
X360000Y439000*
Y443000D02*
Y447000D01*
X381000Y433500D02*
X385000Y437500D01*
X381000Y441500*
X377000Y437500*
X381000Y433500*
Y437500D02*
Y441500D01*
X413500Y444500D02*
X417500Y448500D01*
X413500Y452500*
X409500Y448500*
X413500Y444500*
Y448500D02*
Y452500D01*
Y438500D02*
X417500Y442500D01*
X413500Y446500*
X409500Y442500*
X413500Y438500*
Y442500D02*
Y446500D01*
X432500Y434500D02*
X436500Y438500D01*
X432500Y442500*
X428500Y438500*
X432500Y434500*
Y438500D02*
Y442500D01*
X431500D02*
X435500Y446500D01*
X431500Y450500*
X427500Y446500*
X431500Y442500*
Y446500D02*
Y450500D01*
X418500Y438500D02*
X422500Y442500D01*
X418500Y446500*
X414500Y442500*
X418500Y438500*
Y442500D02*
Y446500D01*
X423500Y438500D02*
X427500Y442500D01*
X423500Y446500*
X419500Y442500*
X423500Y438500*
Y442500D02*
Y446500D01*
Y444500D02*
X427500Y448500D01*
X423500Y452500*
X419500Y448500*
X423500Y444500*
Y448500D02*
Y452500D01*
X450500Y434500D02*
X454500Y438500D01*
X450500Y442500*
X446500Y438500*
X450500Y434500*
Y438500D02*
Y442500D01*
X446000Y438500D02*
X450000Y442500D01*
X446000Y446500*
X442000Y442500*
X446000Y438500*
Y442500D02*
Y446500D01*
X464500Y443000D02*
X468500Y447000D01*
X464500Y451000*
X460500Y447000*
X464500Y443000*
Y447000D02*
Y451000D01*
X468500Y438500D02*
X472500Y442500D01*
X468500Y446500*
X464500Y442500*
X468500Y438500*
Y442500D02*
Y446500D01*
X491500Y437000D02*
X495500Y441000D01*
X491500Y445000*
X487500Y441000*
X491500Y437000*
Y441000D02*
Y445000D01*
X511000Y441000D02*
X515000Y445000D01*
X511000Y449000*
X507000Y445000*
X511000Y441000*
Y445000D02*
Y449000D01*
X506000Y441000D02*
X510000Y445000D01*
X506000Y449000*
X502000Y445000*
X506000Y441000*
Y445000D02*
Y449000D01*
X501500Y447000D02*
X505500Y451000D01*
X501500Y455000*
X497500Y451000*
X501500Y447000*
Y451000D02*
Y455000D01*
Y442500D02*
X505500Y446500D01*
X501500Y450500*
X497500Y446500*
X501500Y442500*
Y446500D02*
Y450500D01*
X520000Y441500D02*
X524000Y445500D01*
X520000Y449500*
X516000Y445500*
X520000Y441500*
Y445500D02*
Y449500D01*
X530000Y441500D02*
X534000Y445500D01*
X530000Y449500*
X526000Y445500*
X530000Y441500*
Y445500D02*
Y449500D01*
X525000Y441500D02*
X529000Y445500D01*
X525000Y449500*
X521000Y445500*
X525000Y441500*
Y445500D02*
Y449500D01*
Y447000D02*
X529000Y451000D01*
X525000Y455000*
X521000Y451000*
X525000Y447000*
Y451000D02*
Y455000D01*
X554500Y448000D02*
X558500Y452000D01*
X554500Y456000*
X550500Y452000*
X554500Y448000*
Y452000D02*
Y456000D01*
X574500Y440500D02*
X578500Y444500D01*
X574500Y448500*
X570500Y444500*
X574500Y440500*
Y444500D02*
Y448500D01*
X587000Y441000D02*
X591000Y445000D01*
X587000Y449000*
X583000Y445000*
X587000Y441000*
Y445000D02*
Y449000D01*
X581500Y441000D02*
X585500Y445000D01*
X581500Y449000*
X577500Y445000*
X581500Y441000*
Y445000D02*
Y449000D01*
Y436000D02*
X585500Y440000D01*
X581500Y444000*
X577500Y440000*
X581500Y436000*
Y440000D02*
Y444000D01*
X587000Y436000D02*
X591000Y440000D01*
X587000Y444000*
X583000Y440000*
X587000Y436000*
Y440000D02*
Y444000D01*
X148000Y451500D02*
X152000Y455500D01*
X148000Y459500*
X144000Y455500*
X148000Y451500*
Y455500D02*
Y459500D01*
X156000Y458000D02*
X160000Y462000D01*
X156000Y466000*
X152000Y462000*
X156000Y458000*
Y462000D02*
Y466000D01*
X161500Y458000D02*
X165500Y462000D01*
X161500Y466000*
X157500Y462000*
X161500Y458000*
Y462000D02*
Y466000D01*
X167000Y458500D02*
X171000Y462500D01*
X167000Y466500*
X163000Y462500*
X167000Y458500*
Y462500D02*
Y466500D01*
X172500Y458500D02*
X176500Y462500D01*
X172500Y466500*
X168500Y462500*
X172500Y458500*
Y462500D02*
Y466500D01*
Y453000D02*
X176500Y457000D01*
X172500Y461000*
X168500Y457000*
X172500Y453000*
Y457000D02*
Y461000D01*
X188000Y456000D02*
X192000Y460000D01*
X188000Y464000*
X184000Y460000*
X188000Y456000*
Y460000D02*
Y464000D01*
X233000Y453000D02*
X237000Y457000D01*
X233000Y461000*
X229000Y457000*
X233000Y453000*
Y457000D02*
Y461000D01*
X228000Y468000D02*
X232000Y472000D01*
X228000Y476000*
X224000Y472000*
X228000Y468000*
Y472000D02*
Y476000D01*
X233000Y465000D02*
X237000Y469000D01*
X233000Y473000*
X229000Y469000*
X233000Y465000*
Y469000D02*
Y473000D01*
X228000Y456000D02*
X232000Y460000D01*
X228000Y464000*
X224000Y460000*
X228000Y456000*
Y460000D02*
Y464000D01*
X233000Y459000D02*
X237000Y463000D01*
X233000Y467000*
X229000Y463000*
X233000Y459000*
Y463000D02*
Y467000D01*
X228000Y462000D02*
X232000Y466000D01*
X228000Y470000*
X224000Y466000*
X228000Y462000*
Y466000D02*
Y470000D01*
X273000Y450000D02*
X277000Y454000D01*
X273000Y458000*
X269000Y454000*
X273000Y450000*
Y454000D02*
Y458000D01*
Y455000D02*
X277000Y459000D01*
X273000Y463000*
X269000Y459000*
X273000Y455000*
Y459000D02*
Y463000D01*
X262000Y450000D02*
X266000Y454000D01*
X262000Y458000*
X258000Y454000*
X262000Y450000*
Y454000D02*
Y458000D01*
Y455000D02*
X266000Y459000D01*
X262000Y463000*
X258000Y459000*
X262000Y455000*
Y459000D02*
Y463000D01*
X267500Y450000D02*
X271500Y454000D01*
X267500Y458000*
X263500Y454000*
X267500Y450000*
Y454000D02*
Y458000D01*
Y455000D02*
X271500Y459000D01*
X267500Y463000*
X263500Y459000*
X267500Y455000*
Y459000D02*
Y463000D01*
X394000D02*
X398000Y467000D01*
X394000Y471000*
X390000Y467000*
X394000Y463000*
Y467000D02*
Y471000D01*
X391000Y457000D02*
X395000Y461000D01*
X391000Y465000*
X387000Y461000*
X391000Y457000*
Y461000D02*
Y465000D01*
Y468000D02*
X395000Y472000D01*
X391000Y476000*
X387000Y472000*
X391000Y468000*
Y472000D02*
Y476000D01*
X399500Y467500D02*
X403500Y471500D01*
X399500Y475500*
X395500Y471500*
X399500Y467500*
Y471500D02*
Y475500D01*
X424000Y455500D02*
X428000Y459500D01*
X424000Y463500*
X420000Y459500*
X424000Y455500*
Y459500D02*
Y463500D01*
X437500Y456000D02*
X441500Y460000D01*
X437500Y464000*
X433500Y460000*
X437500Y456000*
Y460000D02*
Y464000D01*
X433500Y456000D02*
X437500Y460000D01*
X433500Y464000*
X429500Y460000*
X433500Y456000*
Y460000D02*
Y464000D01*
X437500Y452000D02*
X441500Y456000D01*
X437500Y460000*
X433500Y456000*
X437500Y452000*
Y456000D02*
Y460000D01*
X433500Y452000D02*
X437500Y456000D01*
X433500Y460000*
X429500Y456000*
X433500Y452000*
Y456000D02*
Y460000D01*
X467000Y459000D02*
X471000Y463000D01*
X467000Y467000*
X463000Y463000*
X467000Y459000*
Y463000D02*
Y467000D01*
X509000Y467500D02*
X513000Y471500D01*
X509000Y475500*
X505000Y471500*
X509000Y467500*
Y471500D02*
Y475500D01*
X504500Y467500D02*
X508500Y471500D01*
X504500Y475500*
X500500Y471500*
X504500Y467500*
Y471500D02*
Y475500D01*
X498000Y455500D02*
X502000Y459500D01*
X498000Y463500*
X494000Y459500*
X498000Y455500*
Y459500D02*
Y463500D01*
X589000Y459500D02*
X593000Y463500D01*
X589000Y467500*
X585000Y463500*
X589000Y459500*
Y463500D02*
Y467500D01*
X582500Y456000D02*
X586500Y460000D01*
X582500Y464000*
X578500Y460000*
X582500Y456000*
Y460000D02*
Y464000D01*
X587500Y449500D02*
X591500Y453500D01*
X587500Y457500*
X583500Y453500*
X587500Y449500*
Y453500D02*
Y457500D01*
X606000Y455000D02*
X610000Y459000D01*
X606000Y463000*
X602000Y459000*
X606000Y455000*
Y459000D02*
Y463000D01*
X614000Y464000D02*
X618000Y468000D01*
X614000Y472000*
X610000Y468000*
X614000Y464000*
Y468000D02*
Y472000D01*
Y455000D02*
X618000Y459000D01*
X614000Y463000*
X610000Y459000*
X614000Y455000*
Y459000D02*
Y463000D01*
X228000Y474000D02*
X232000Y478000D01*
X228000Y482000*
X224000Y478000*
X228000Y474000*
Y478000D02*
Y482000D01*
X233000Y477000D02*
X237000Y481000D01*
X233000Y485000*
X229000Y481000*
X233000Y477000*
Y481000D02*
Y485000D01*
Y471000D02*
X237000Y475000D01*
X233000Y479000*
X229000Y475000*
X233000Y471000*
Y475000D02*
Y479000D01*
X388000Y485000D02*
X392000Y489000D01*
X388000Y493000*
X384000Y489000*
X388000Y485000*
Y489000D02*
Y493000D01*
X399500Y484000D02*
X403500Y488000D01*
X399500Y492000*
X395500Y488000*
X399500Y484000*
Y488000D02*
Y492000D01*
Y479000D02*
X403500Y483000D01*
X399500Y487000*
X395500Y483000*
X399500Y479000*
Y483000D02*
Y487000D01*
Y473000D02*
X403500Y477000D01*
X399500Y481000*
X395500Y477000*
X399500Y473000*
Y477000D02*
Y481000D01*
X427000D02*
X431000Y485000D01*
X427000Y489000*
X423000Y485000*
X427000Y481000*
Y485000D02*
Y489000D01*
X421000Y481000D02*
X425000Y485000D01*
X421000Y489000*
X417000Y485000*
X421000Y481000*
Y485000D02*
Y489000D01*
X430500Y476500D02*
X434500Y480500D01*
X430500Y484500*
X426500Y480500*
X430500Y476500*
Y480500D02*
Y484500D01*
X421000Y476500D02*
X425000Y480500D01*
X421000Y484500*
X417000Y480500*
X421000Y476500*
Y480500D02*
Y484500D01*
Y471500D02*
X425000Y475500D01*
X421000Y479500*
X417000Y475500*
X421000Y471500*
Y475500D02*
Y479500D01*
X468000Y469500D02*
X472000Y473500D01*
X468000Y477500*
X464000Y473500*
X468000Y469500*
Y473500D02*
Y477500D01*
X464000Y482000D02*
X468000Y486000D01*
X464000Y490000*
X460000Y486000*
X464000Y482000*
Y486000D02*
Y490000D01*
X511500Y472000D02*
X515500Y476000D01*
X511500Y480000*
X507500Y476000*
X511500Y472000*
Y476000D02*
Y480000D01*
X504500Y472000D02*
X508500Y476000D01*
X504500Y480000*
X500500Y476000*
X504500Y472000*
Y476000D02*
Y480000D01*
Y477500D02*
X508500Y481500D01*
X504500Y485500*
X500500Y481500*
X504500Y477500*
Y481500D02*
Y485500D01*
Y483000D02*
X508500Y487000D01*
X504500Y491000*
X500500Y487000*
X504500Y483000*
Y487000D02*
Y491000D01*
X511500Y483000D02*
X515500Y487000D01*
X511500Y491000*
X507500Y487000*
X511500Y483000*
Y487000D02*
Y491000D01*
X586500Y479500D02*
X590500Y483500D01*
X586500Y487500*
X582500Y483500*
X586500Y479500*
Y483500D02*
Y487500D01*
X588500Y469500D02*
X592500Y473500D01*
X588500Y477500*
X584500Y473500*
X588500Y469500*
Y473500D02*
Y477500D01*
X610500Y478500D02*
X614500Y482500D01*
X610500Y486500*
X606500Y482500*
X610500Y478500*
Y482500D02*
Y486500D01*
X138000Y501000D02*
X142000Y505000D01*
X138000Y509000*
X134000Y505000*
X138000Y501000*
Y505000D02*
Y509000D01*
Y519000D02*
X142000Y523000D01*
X138000Y527000*
X134000Y523000*
X138000Y519000*
Y523000D02*
Y527000D01*
X151000Y518000D02*
X155000Y522000D01*
X151000Y526000*
X147000Y522000*
X151000Y518000*
Y522000D02*
Y526000D01*
X237000Y518500D02*
X241000Y522500D01*
X237000Y526500*
X233000Y522500*
X237000Y518500*
Y522500D02*
Y526500D01*
X231500Y518500D02*
X235500Y522500D01*
X231500Y526500*
X227500Y522500*
X231500Y518500*
Y522500D02*
Y526500D01*
X242500Y518000D02*
X246500Y522000D01*
X242500Y526000*
X238500Y522000*
X242500Y518000*
Y522000D02*
Y526000D01*
X313000Y518500D02*
X317000Y522500D01*
X313000Y526500*
X309000Y522500*
X313000Y518500*
Y522500D02*
Y526500D01*
X325000Y519000D02*
X329000Y523000D01*
X325000Y527000*
X321000Y523000*
X325000Y519000*
Y523000D02*
Y527000D01*
X396000Y519000D02*
X400000Y523000D01*
X396000Y527000*
X392000Y523000*
X396000Y519000*
Y523000D02*
Y527000D01*
X398500Y510000D02*
X402500Y514000D01*
X398500Y518000*
X394500Y514000*
X398500Y510000*
Y514000D02*
Y518000D01*
X476000Y519000D02*
X480000Y523000D01*
X476000Y527000*
X472000Y523000*
X476000Y519000*
Y523000D02*
Y527000D01*
X557500Y519500D02*
X561500Y523500D01*
X557500Y527500*
X553500Y523500*
X557500Y519500*
Y523500D02*
Y527500D01*
X100500Y100500D02*
X664000D01*
Y536000*
X100500*
Y100500*
X664500Y556500D02*
X401159D01*
X664500D02*
X654500Y554000D01*
Y559000*
X664500Y556500*
X100000D02*
X363341D01*
X100000D02*
X110000Y559000D01*
Y554000*
X100000Y556500*
X664500Y541500D02*
Y561500D01*
X100000Y541500D02*
Y561500D01*
X369795Y559156D02*
X367523D01*
X367295Y556625*
X367523Y556906*
X368205Y557188*
X368205D02*
X368886D01*
X368886D02*
X369568Y556906D01*
X370023Y556344*
X370250Y555500*
X370023Y554938*
X370023D02*
X369795Y554094D01*
X369341Y553531*
X368659Y553250*
X367977*
X367295Y553531*
X367068Y553813*
X367068D02*
X366841Y554375D01*
X375023Y558313D02*
X374795Y558875D01*
X374114Y559156*
X373659*
X372977Y558875*
X372523Y558031*
X372295Y556625*
Y555219*
X372523Y554094*
X372977Y553531*
X373659Y553250*
X373886*
X374568Y553531*
X375023Y554094*
X375250Y554938*
X375250D02*
Y555219D01*
X375023Y556063*
X375023D02*
X374568Y556625D01*
X373886Y556906*
X373659*
X372977Y556625*
X372523Y556063*
X372523D02*
X372295Y555219D01*
X379568Y559156D02*
X377295Y555219D01*
X380705*
X379568Y559156D02*
Y553250D01*
X385705Y559156D02*
X383432D01*
X383205Y556625*
X383432Y556906*
X384114Y557188*
X384114D02*
X384795D01*
X384795D02*
X385477Y556906D01*
X385932Y556344*
X386159Y555500*
X385932Y554938*
X385932D02*
X385705Y554094D01*
X385250Y553531*
X384568Y553250*
X383886*
X383205Y553531*
X382977Y553813*
X382977D02*
X382750Y554375D01*
X388205Y557188D02*
Y553250D01*
Y556063D02*
X388886Y556906D01*
X389341Y557188*
X389341D02*
X390023D01*
X390023D02*
X390477Y556906D01*
X390705Y556063*
X390705D02*
Y553250D01*
Y556063D02*
X391386Y556906D01*
X391841Y557188*
X391841D02*
X392523D01*
X392523D02*
X392977Y556906D01*
X393205Y556063*
X393205D02*
Y553250D01*
X395250Y559156D02*
X395477Y558875D01*
X395705Y559156*
X395477Y559438*
X395477D02*
X395250Y559156D01*
X395477Y557188D02*
Y553250D01*
X397750Y559156D02*
Y553250D01*
X691500Y100000D02*
Y311500D01*
Y100000D02*
X689000Y110000D01*
X694000*
X691500Y100000*
Y536500D02*
Y325000D01*
Y536500D02*
X694000Y526500D01*
X689000*
X691500Y536500*
X669500Y100000D02*
X696500D01*
X669500Y536500D02*
X696500D01*
X678477Y320906D02*
X676205Y316969D01*
X679614*
X678477Y320906D02*
Y315000D01*
X682114Y320906D02*
X684614D01*
X683250Y318656*
X683932*
X684386Y318375*
X684614Y318094*
X684841Y317250*
Y316688*
X684841D02*
X684614Y315844D01*
X684159Y315281*
X683477Y315000*
X682795*
X682114Y315281*
X681886Y315563*
X681886D02*
X681659Y316125D01*
X689614Y320063D02*
X689386Y320625D01*
X688705Y320906*
X688250*
X687568Y320625*
X687114Y319781*
X686886Y318375*
Y316969*
X687114Y315844*
X687568Y315281*
X688250Y315000*
X688477*
X689159Y315281*
X689614Y315844*
X689841Y316688*
X689841D02*
Y316969D01*
X689614Y317813*
X689614D02*
X689159Y318375D01*
X688477Y318656*
X688250*
X687568Y318375*
X687114Y317813*
X687114D02*
X686886Y316969D01*
X694841Y320906D02*
X692568D01*
X692341Y318375*
X692568Y318656*
X693250Y318938*
X693250D02*
X693932D01*
X693932D02*
X694614Y318656D01*
X695068Y318094*
X695295Y317250*
X695068Y316688*
X695068D02*
X694841Y315844D01*
X694386Y315281*
X693705Y315000*
X693023*
X692341Y315281*
X692114Y315563*
X692114D02*
X691886Y316125D01*
X697341Y318938D02*
Y315000D01*
Y317813D02*
X698023Y318656D01*
X698477Y318938*
X698477D02*
X699159D01*
X699159D02*
X699614Y318656D01*
X699841Y317813*
X699841D02*
Y315000D01*
Y317813D02*
X700523Y318656D01*
X700977Y318938*
X700977D02*
X701659D01*
X701659D02*
X702114Y318656D01*
X702341Y317813*
X702341D02*
Y315000D01*
X704386Y320906D02*
X704614Y320625D01*
X704841Y320906*
X704614Y321188*
X704614D02*
X704386Y320906D01*
X704614Y318938D02*
Y315000D01*
X706886Y320906D02*
Y315000D01*
X750000Y368000D02*
X1008000D01*
X750000Y344000D02*
X1008000D01*
X750000Y320000D02*
X1008000D01*
X750000Y296000D02*
X1008000D01*
X750000Y272000D02*
X1008000D01*
X750000Y248000D02*
X1008000D01*
X750000Y224000D02*
X1008000D01*
X750000Y200000D02*
X1008000D01*
X750000Y368000D02*
Y200000D01*
X834000Y368000D02*
Y200000D01*
X870000Y368000D02*
Y200000D01*
X906000Y368000D02*
Y200000D01*
X960000Y368000D02*
Y200000D01*
X1008000Y368000D02*
Y200000D01*
X785500Y356750D02*
X784955Y357500D01*
X784136Y357875*
X783045*
X782227Y357500*
X781682Y356750*
Y356000*
X781955Y355250*
X782227Y354875*
X782773Y354500*
X784409Y353750*
X784955Y353375*
X785227Y353000*
X785500Y352250*
Y351125*
X784955Y350375*
X784136Y350000*
X783045*
X782227Y350375*
X781682Y351125*
X787955Y357875D02*
Y350000D01*
X794227Y357875D02*
X790409Y350000D01*
Y357875D02*
X794227D01*
X790409Y350000D02*
X794227D01*
X796682Y357875D02*
Y350000D01*
Y357875D02*
X800227D01*
X796682Y354125D02*
X798864D01*
X796682Y350000D02*
X800227D01*
X843864Y357875D02*
X843318Y357500D01*
X842773Y356750*
X842500Y356000*
X842227Y354875*
Y353000*
X842500Y351875*
X842773Y351125*
X843318Y350375*
X843864Y350000*
X844955*
X845500Y350375*
X846045Y351125*
X846318Y351875*
X846591Y353000*
Y354875*
X846318Y356000*
X846045Y356750*
X845500Y357500*
X844955Y357875*
X843864*
X844682Y351500D02*
X846318Y349250D01*
X850955Y357875D02*
Y350000D01*
X849045Y357875D02*
X852864D01*
X855318D02*
X857500Y354125D01*
Y350000*
X859682Y357875D02*
X857500Y354125D01*
X882045Y356750D02*
X881500Y357500D01*
X880682Y357875*
X879591*
X878773Y357500*
X878227Y356750*
Y356000*
X878500Y355250*
X878773Y354875*
X879318Y354500*
X880955Y353750*
X881500Y353375*
X881773Y353000*
X882045Y352250*
Y351125*
X881500Y350375*
X880682Y350000*
X879591*
X878773Y350375*
X878227Y351125*
X884500Y357875D02*
X886682Y354125D01*
Y350000*
X888864Y357875D02*
X886682Y354125D01*
X891318Y357875D02*
Y350000D01*
Y357875D02*
X893500Y350000D01*
X895682Y357875D02*
X893500Y350000D01*
X895682Y357875D02*
Y350000D01*
X917500Y357875D02*
Y350000D01*
Y357875D02*
X919955D01*
X920773Y357500*
X921045Y357125*
X921318Y356375*
Y355250*
X921045Y354500*
X920773Y354125*
X919955Y353750*
X917500*
X923773Y357875D02*
Y350000D01*
X927045*
X931682Y357875D02*
X929500Y350000D01*
X931682Y357875D02*
X933864Y350000D01*
X930318Y352625D02*
X933045D01*
X938227Y357875D02*
Y350000D01*
X936318Y357875D02*
X940136D01*
X942591D02*
Y350000D01*
Y357875D02*
X946136D01*
X942591Y354125D02*
X944773D01*
X942591Y350000D02*
X946136D01*
X948591Y357875D02*
Y350000D01*
Y357875D02*
X950500D01*
X951318Y357500*
X951864Y356750*
X952136Y356000*
X952409Y354875*
Y353000*
X952136Y351875*
X951864Y351125*
X951318Y350375*
X950500Y350000*
X948591*
X976682Y357875D02*
Y350000D01*
X974773Y357875D02*
X978591D01*
X982682D02*
X982136Y357500D01*
X981591Y356750*
X981318Y356000*
X981045Y354875*
Y353000*
X981318Y351875*
X981591Y351125*
X982136Y350375*
X982682Y350000*
X983773*
X984318Y350375*
X984864Y351125*
X985136Y351875*
X985409Y353000*
Y354875*
X985136Y356000*
X984864Y356750*
X984318Y357500*
X983773Y357875*
X982682*
X987864D02*
Y350000D01*
X991136*
X758727Y333875D02*
X756000Y328625D01*
X760091*
X758727Y333875D02*
Y326000D01*
X764182Y333875D02*
X763364Y333500D01*
X762818Y332375*
X762545Y330500*
Y329375*
X762818Y327500*
X763364Y326375*
X764182Y326000*
X764727*
X765545Y326375*
X766091Y327500*
X766364Y329375*
Y330500*
X766091Y332375*
X765545Y333500*
X764727Y333875*
X764182*
X848500D02*
X845773Y328625D01*
X849864*
X848500Y333875D02*
Y326000D01*
X852864Y333875D02*
X855864D01*
X854227Y330875*
X855045*
X855591Y330500*
X855864Y330125*
X856136Y329000*
Y328250*
X855864Y327125*
X855318Y326375*
X854500Y326000*
X853682*
X852864Y326375*
X852591Y326750*
X852318Y327500*
X882000Y332000D02*
X894000D01*
X888000Y326000D02*
Y338000D01*
X914636Y333875D02*
X916818Y330125D01*
Y326000*
X919000Y333875D02*
X916818Y330125D01*
X921455Y333875D02*
Y326000D01*
Y333875D02*
X925000D01*
X921455Y330125D02*
X923636D01*
X921455Y326000D02*
X925000D01*
X931273Y332750D02*
X930727Y333500D01*
X929909Y333875*
X928818*
X928000Y333500*
X927455Y332750*
Y332000*
X927727Y331250*
X928000Y330875*
X928545Y330500*
X930182Y329750*
X930727Y329375*
X931000Y329000*
X931273Y328250*
Y327125*
X930727Y326375*
X929909Y326000*
X928818*
X928000Y326375*
X927455Y327125*
X967818Y332750D02*
Y326000D01*
X965364Y329375D02*
X970273D01*
X977636Y335375D02*
X972727Y323375D01*
X980091Y329375D02*
X985000D01*
X989091Y333875D02*
X988273Y333500D01*
X987727Y332375*
X987455Y330500*
Y329375*
X987727Y327500*
X988273Y326375*
X989091Y326000*
X989636*
X990455Y326375*
X991000Y327500*
X991273Y329375*
Y330500*
X991000Y332375*
X990455Y333500*
X989636Y333875*
X989091*
X994000Y326750D02*
X993727Y326375D01*
X994000Y326000*
X994273Y326375*
X994000Y326750*
X998364Y333875D02*
X997545Y333500D01*
X997000Y332375*
X996727Y330500*
Y329375*
X997000Y327500*
X997545Y326375*
X998364Y326000*
X998909*
X999727Y326375*
X1000273Y327500*
X1000545Y329375*
Y330500*
X1000273Y332375*
X999727Y333500*
X998909Y333875*
X998364*
X756545Y309875D02*
X759545D01*
X757909Y306875*
X758727*
X759273Y306500*
X759545Y306125*
X759818Y305000*
Y304250*
X759545Y303125*
X759000Y302375*
X758182Y302000*
X757364*
X756545Y302375*
X756273Y302750*
X756000Y303500*
X765818Y309875D02*
X763091D01*
X762818Y306500*
X763091Y306875*
X763909Y307250*
X764727*
X765545Y306875*
X766091Y306125*
X766364Y305000*
X766091Y304250*
X765818Y303125*
X765273Y302375*
X764455Y302000*
X763636*
X762818Y302375*
X762545Y302750*
X762273Y303500*
X852455Y309875D02*
X849727D01*
X849455Y306500*
X849727Y306875*
X850545Y307250*
X851364*
X852182Y306875*
X852727Y306125*
X853000Y305000*
X852727Y304250*
X852455Y303125*
X851909Y302375*
X851091Y302000*
X850273*
X849455Y302375*
X849182Y302750*
X848909Y303500*
X882000Y302000D02*
X894000Y314000D01*
X882000D02*
X894000Y302000D01*
X914636Y309875D02*
X916818Y306125D01*
Y302000*
X919000Y309875D02*
X916818Y306125D01*
X921455Y309875D02*
Y302000D01*
Y309875D02*
X925000D01*
X921455Y306125D02*
X923636D01*
X921455Y302000D02*
X925000D01*
X931273Y308750D02*
X930727Y309500D01*
X929909Y309875*
X928818*
X928000Y309500*
X927455Y308750*
Y308000*
X927727Y307250*
X928000Y306875*
X928545Y306500*
X930182Y305750*
X930727Y305375*
X931000Y305000*
X931273Y304250*
Y303125*
X930727Y302375*
X929909Y302000*
X928818*
X928000Y302375*
X927455Y303125*
X967818Y308750D02*
Y302000D01*
X965364Y305375D02*
X970273D01*
X977636Y311375D02*
X972727Y299375D01*
X980091Y305375D02*
X985000D01*
X989091Y309875D02*
X988273Y309500D01*
X987727Y308375*
X987455Y306500*
Y305375*
X987727Y303500*
X988273Y302375*
X989091Y302000*
X989636*
X990455Y302375*
X991000Y303500*
X991273Y305375*
Y306500*
X991000Y308375*
X990455Y309500*
X989636Y309875*
X989091*
X994000Y302750D02*
X993727Y302375D01*
X994000Y302000*
X994273Y302375*
X994000Y302750*
X998364Y309875D02*
X997545Y309500D01*
X997000Y308375*
X996727Y306500*
Y305375*
X997000Y303500*
X997545Y302375*
X998364Y302000*
X998909*
X999727Y302375*
X1000273Y303500*
X1000545Y305375*
Y306500*
X1000273Y308375*
X999727Y309500*
X998909Y309875*
X998364*
X756000Y284375D02*
X756545Y284750D01*
X757364Y285875*
Y278000*
X760364Y285875D02*
X763364D01*
X761727Y282875*
X762545*
X763091Y282500*
X763364Y282125*
X763636Y281000*
Y280250*
X763364Y279125*
X762818Y278375*
X762000Y278000*
X761182*
X760364Y278375*
X760091Y278750*
X759818Y279500*
X767455Y285875D02*
X766636Y285500D01*
X766364Y284750*
Y284000*
X766636Y283250*
X767182Y282875*
X768273Y282500*
X769091Y282125*
X769636Y281375*
X769909Y280625*
Y279500*
X769636Y278750*
X769364Y278375*
X768545Y278000*
X767455*
X766636Y278375*
X766364Y278750*
X766091Y279500*
Y280625*
X766364Y281375*
X766909Y282125*
X767727Y282500*
X768818Y282875*
X769364Y283250*
X769636Y284000*
Y284750*
X769364Y285500*
X768545Y285875*
X767455*
X851636D02*
X848909Y280625D01*
X853000*
X851636Y285875D02*
Y278000D01*
X882000D02*
X894000D01*
Y290000*
X882000*
Y278000*
X888000Y284000D02*
Y290000D01*
X917636Y285875D02*
Y278000D01*
Y285875D02*
X921455Y278000D01*
Y285875D02*
Y278000D01*
X925545Y285875D02*
X925000Y285500D01*
X924455Y284750*
X924182Y284000*
X923909Y282875*
Y281000*
X924182Y279875*
X924455Y279125*
X925000Y278375*
X925545Y278000*
X926636*
X927182Y278375*
X927727Y279125*
X928000Y279875*
X928273Y281000*
Y282875*
X928000Y284000*
X927727Y284750*
X927182Y285500*
X926636Y285875*
X925545*
X967818Y284750D02*
Y278000D01*
X965364Y281375D02*
X970273D01*
X977636Y287375D02*
X972727Y275375D01*
X980091Y281375D02*
X985000D01*
X989091Y285875D02*
X988273Y285500D01*
X987727Y284375*
X987455Y282500*
Y281375*
X987727Y279500*
X988273Y278375*
X989091Y278000*
X989636*
X990455Y278375*
X991000Y279500*
X991273Y281375*
Y282500*
X991000Y284375*
X990455Y285500*
X989636Y285875*
X989091*
X994000Y278750D02*
X993727Y278375D01*
X994000Y278000*
X994273Y278375*
X994000Y278750*
X998364Y285875D02*
X997545Y285500D01*
X997000Y284375*
X996727Y282500*
Y281375*
X997000Y279500*
X997545Y278375*
X998364Y278000*
X998909*
X999727Y278375*
X1000273Y279500*
X1000545Y281375*
Y282500*
X1000273Y284375*
X999727Y285500*
X998909Y285875*
X998364*
X756273Y260000D02*
Y260375D01*
X756545Y261125*
X756818Y261500*
X757364Y261875*
X758455*
X759000Y261500*
X759273Y261125*
X759545Y260375*
Y259625*
X759273Y258875*
X758727Y257750*
X756000Y254000*
X759818*
X763909Y261875D02*
X763091Y261500D01*
X762545Y260375*
X762273Y258500*
Y257375*
X762545Y255500*
X763091Y254375*
X763909Y254000*
X764455*
X765273Y254375*
X765818Y255500*
X766091Y257375*
Y258500*
X765818Y260375*
X765273Y261500*
X764455Y261875*
X763909*
X846591D02*
X843864Y254000D01*
X842773Y261875D02*
X846591D01*
X851773D02*
X849045Y256625D01*
X853136*
X851773Y261875D02*
Y254000D01*
X859136Y259250D02*
X858864Y258125D01*
X858318Y257375*
X857500Y257000*
X857227*
X856409Y257375*
X855864Y258125*
X855591Y259250*
Y259625*
X855864Y260750*
X856409Y261500*
X857227Y261875*
X857500*
X858318Y261500*
X858864Y260750*
X859136Y259250*
Y257375*
X858864Y255500*
X858318Y254375*
X857500Y254000*
X856955*
X856136Y254375*
X855864Y255125*
X888000Y254000D02*
X894000Y260000D01*
X888000Y266000*
X882000Y260000*
X888000Y254000*
Y260000D02*
Y266000D01*
X914636Y261875D02*
X916818Y258125D01*
Y254000*
X919000Y261875D02*
X916818Y258125D01*
X921455Y261875D02*
Y254000D01*
Y261875D02*
X925000D01*
X921455Y258125D02*
X923636D01*
X921455Y254000D02*
X925000D01*
X931273Y260750D02*
X930727Y261500D01*
X929909Y261875*
X928818*
X928000Y261500*
X927455Y260750*
Y260000*
X927727Y259250*
X928000Y258875*
X928545Y258500*
X930182Y257750*
X930727Y257375*
X931000Y257000*
X931273Y256250*
Y255125*
X930727Y254375*
X929909Y254000*
X928818*
X928000Y254375*
X927455Y255125*
X967818Y260750D02*
Y254000D01*
X965364Y257375D02*
X970273D01*
X977636Y263375D02*
X972727Y251375D01*
X980091Y257375D02*
X985000D01*
X989091Y261875D02*
X988273Y261500D01*
X987727Y260375*
X987455Y258500*
Y257375*
X987727Y255500*
X988273Y254375*
X989091Y254000*
X989636*
X990455Y254375*
X991000Y255500*
X991273Y257375*
Y258500*
X991000Y260375*
X990455Y261500*
X989636Y261875*
X989091*
X994000Y254750D02*
X993727Y254375D01*
X994000Y254000*
X994273Y254375*
X994000Y254750*
X998364Y261875D02*
X997545Y261500D01*
X997000Y260375*
X996727Y258500*
Y257375*
X997000Y255500*
X997545Y254375*
X998364Y254000*
X998909*
X999727Y254375*
X1000273Y255500*
X1000545Y257375*
Y258500*
X1000273Y260375*
X999727Y261500*
X998909Y261875*
X998364*
X756545Y237875D02*
X759545D01*
X757909Y234875*
X758727*
X759273Y234500*
X759545Y234125*
X759818Y233000*
Y232250*
X759545Y231125*
X759000Y230375*
X758182Y230000*
X757364*
X756545Y230375*
X756273Y230750*
X756000Y231500*
X766091Y237875D02*
X763364Y230000D01*
X762273Y237875D02*
X766091D01*
X848364Y236375D02*
X848909Y236750D01*
X849727Y237875*
Y230000*
X852182Y236375D02*
X852727Y236750D01*
X853545Y237875*
Y230000*
X882000D02*
X894000D01*
X882000Y242000*
X894000*
X882000Y230000*
X914636Y237875D02*
X916818Y234125D01*
Y230000*
X919000Y237875D02*
X916818Y234125D01*
X921455Y237875D02*
Y230000D01*
Y237875D02*
X925000D01*
X921455Y234125D02*
X923636D01*
X921455Y230000D02*
X925000D01*
X931273Y236750D02*
X930727Y237500D01*
X929909Y237875*
X928818*
X928000Y237500*
X927455Y236750*
Y236000*
X927727Y235250*
X928000Y234875*
X928545Y234500*
X930182Y233750*
X930727Y233375*
X931000Y233000*
X931273Y232250*
Y231125*
X930727Y230375*
X929909Y230000*
X928818*
X928000Y230375*
X927455Y231125*
X967818Y236750D02*
Y230000D01*
X965364Y233375D02*
X970273D01*
X977636Y239375D02*
X972727Y227375D01*
X980091Y233375D02*
X985000D01*
X989091Y237875D02*
X988273Y237500D01*
X987727Y236375*
X987455Y234500*
Y233375*
X987727Y231500*
X988273Y230375*
X989091Y230000*
X989636*
X990455Y230375*
X991000Y231500*
X991273Y233375*
Y234500*
X991000Y236375*
X990455Y237500*
X989636Y237875*
X989091*
X994000Y230750D02*
X993727Y230375D01*
X994000Y230000*
X994273Y230375*
X994000Y230750*
X998364Y237875D02*
X997545Y237500D01*
X997000Y236375*
X996727Y234500*
Y233375*
X997000Y231500*
X997545Y230375*
X998364Y230000*
X998909*
X999727Y230375*
X1000273Y231500*
X1000545Y233375*
Y234500*
X1000273Y236375*
X999727Y237500*
X998909Y237875*
X998364*
X759273Y212750D02*
X759000Y213500D01*
X758182Y213875*
X757636*
X756818Y213500*
X756273Y212375*
X756000Y210500*
Y208625*
X756273Y207125*
X756818Y206375*
X757636Y206000*
X757909*
X758727Y206375*
X759273Y207125*
X759545Y208250*
Y208625*
X759273Y209750*
X758727Y210500*
X757909Y210875*
X757636*
X756818Y210500*
X756273Y209750*
X756000Y208625*
X763636Y213875D02*
X762818Y213500D01*
X762273Y212375*
X762000Y210500*
Y209375*
X762273Y207500*
X762818Y206375*
X763636Y206000*
X764182*
X765000Y206375*
X765545Y207500*
X765818Y209375*
Y210500*
X765545Y212375*
X765000Y213500*
X764182Y213875*
X763636*
X846318Y212000D02*
Y212375D01*
X846591Y213125*
X846864Y213500*
X847409Y213875*
X848500*
X849045Y213500*
X849318Y213125*
X849591Y212375*
Y211625*
X849318Y210875*
X848773Y209750*
X846045Y206000*
X849864*
X855591Y212750D02*
X855318Y213500D01*
X854500Y213875*
X853955*
X853136Y213500*
X852591Y212375*
X852318Y210500*
Y208625*
X852591Y207125*
X853136Y206375*
X853955Y206000*
X854227*
X855045Y206375*
X855591Y207125*
X855864Y208250*
Y208625*
X855591Y209750*
X855045Y210500*
X854227Y210875*
X853955*
X853136Y210500*
X852591Y209750*
X852318Y208625*
X882000Y206000D02*
X894000Y218000D01*
Y206000*
X882000Y218000*
Y206000*
X914636Y213875D02*
X916818Y210125D01*
Y206000*
X919000Y213875D02*
X916818Y210125D01*
X921455Y213875D02*
Y206000D01*
Y213875D02*
X925000D01*
X921455Y210125D02*
X923636D01*
X921455Y206000D02*
X925000D01*
X931273Y212750D02*
X930727Y213500D01*
X929909Y213875*
X928818*
X928000Y213500*
X927455Y212750*
Y212000*
X927727Y211250*
X928000Y210875*
X928545Y210500*
X930182Y209750*
X930727Y209375*
X931000Y209000*
X931273Y208250*
Y207125*
X930727Y206375*
X929909Y206000*
X928818*
X928000Y206375*
X927455Y207125*
X967818Y212750D02*
Y206000D01*
X965364Y209375D02*
X970273D01*
X977636Y215375D02*
X972727Y203375D01*
X980091Y209375D02*
X985000D01*
X989091Y213875D02*
X988273Y213500D01*
X987727Y212375*
X987455Y210500*
Y209375*
X987727Y207500*
X988273Y206375*
X989091Y206000*
X989636*
X990455Y206375*
X991000Y207500*
X991273Y209375*
Y210500*
X991000Y212375*
X990455Y213500*
X989636Y213875*
X989091*
X994000Y206750D02*
X993727Y206375D01*
X994000Y206000*
X994273Y206375*
X994000Y206750*
X998364Y213875D02*
X997545Y213500D01*
X997000Y212375*
X996727Y210500*
Y209375*
X997000Y207500*
X997545Y206375*
X998364Y206000*
X998909*
X999727Y206375*
X1000273Y207500*
X1000545Y209375*
Y210500*
X1000273Y212375*
X999727Y213500*
X998909Y213875*
X998364*
G54D45*
X664500Y536500D02*
X664503D01*
X100000D02*
X100003D01*
X664500Y100000D02*
X664503D01*
X664500Y536500D02*
X664503D01*
X0Y0D02*
M02*
