%
T1C.02F197S55
X01175Y0108
X011075Y011075
X012425Y011075
X0108Y01175
X0127Y01175
X012425Y012425
X011075Y012425
X01175Y0127
X0131Y01615
X0115Y0168
X01075Y0168
X01225Y0191
X01125Y01915
X0131Y01915
X01135Y02155
X012Y02155
X01245Y0238
X0114Y02755
X0115Y0293
X01085Y0293
X01225Y0293
X01275Y03005
X01275Y0307
X011Y0341
X013Y0342
X01185Y03505
X0107Y0352
X01125Y0352
X01185Y0355
X01185Y036
X01185Y03655
X01185Y0371
X0108Y03755
X0113Y03755
X01185Y0377
X01185Y03825
X01185Y0388
X01185Y03935
X01135Y0399
X01085Y0399
X01185Y0399
X01085Y04035
X01085Y0409
X01085Y0414
X01135Y0414
X01185Y0414
X01175Y051
X011075Y051275
X012425Y051275
X0127Y05195
X0108Y05195
X012425Y052625
X011075Y052625
X01175Y0529
X0138Y0523
X0151Y0522
X0138Y0505
X0156Y0462
X0148Y04555
X0148Y04495
X0154Y04435
X0148Y04435
X0154Y04385
X0148Y04385
X01445Y04325
X01535Y0295
X015Y0256
X01495Y02455
X015Y0239
X01365Y02205
X0151Y02135
X01555Y02135
X0132Y02015
X0132Y01715
X0151Y01645
X0151Y0158
X01565Y0158
X0151Y01525
X0134Y01515
X0147Y0138
X0134Y0138
X01475Y01275
X0134Y0127
X01565Y0108
X01625Y01525
X0162Y0158
X01625Y01645
X0162Y0177
X01725Y02075
X0175Y02135
X01795Y02135
X01655Y02135
X01605Y02135
X01705Y02135
X0168Y02345
X01755Y0235
X0162Y02415
X01725Y0254
X0166Y0255
X01745Y02625
X01785Y02705
X01625Y0278
X01695Y029
X01815Y02905
X01805Y03415
X01605Y0396
X0181Y0401
X01595Y04045
X0176Y042
X017Y04445
X01725Y0451
X0178Y04525
X01725Y0457
X01615Y0462
X0167Y04625
X01725Y04625
X0188Y046
X01835Y04525
X01945Y04515
X0189Y04515
X01945Y0445
X0189Y0445
X02015Y0435
X0191Y04305
X01865Y04265
X02015Y04255
X01975Y04035
X0202Y0398
X0191Y03895
X0197Y03565
X01875Y0352
X01915Y03185
X01915Y03125
X01915Y0306
X0196Y0306
X01875Y03055
X0196Y03015
X01875Y03015
X01915Y03015
X01915Y02905
X0201Y0289
X01875Y02825
X01915Y02725
X01885Y0243
X01975Y0243
X02065Y0243
X01925Y0213
X01865Y02075
X01985Y02075
X01925Y0202
X01975Y01905
X0192Y01905
X01975Y0181
X0195Y01585
X0205Y01565
X0205Y0151
X0201Y01465
X0195Y01465
X02125Y01465
X0207Y01465
X023Y01465
X023Y01535
X02165Y01815
X02125Y0204
X02125Y0218
X02265Y02255
X02305Y02255
X0222Y02255
X0222Y0238
X02265Y0238
X02135Y0268
X0228Y02715
X0228Y02865
X02215Y0287
X02255Y02915
X02185Y0294
X02095Y03275
X022Y03295
X02145Y03565
X02245Y0392
X02075Y04025
X0225Y04045
X02135Y0421
X02295Y04285
X0228Y046
X0228Y0466
X0228Y0472
X0228Y0478
X02315Y05225
X0237Y05225
X02425Y0522
X0233Y0481
X0233Y0475
X0233Y0469
X0233Y0463
X0233Y0457
X02395Y04465
X0234Y0446
X02345Y04405
X02395Y04405
X02345Y04345
X02395Y04345
X0252Y0432
X02475Y0432
X02345Y04285
X02395Y04285
X02475Y0427
X02565Y0421
X02475Y0421
X0237Y0419
X02565Y0416
X02475Y0416
X0252Y04155
X02495Y04065
X0252Y0398
X0237Y0392
X02375Y03805
X0252Y03685
X0252Y0364
X0248Y03585
X02425Y03535
X0232Y0352
X0255Y0311
X0255Y03055
X0255Y03
X0255Y02945
X0255Y02865
X024Y02865
X0234Y02865
X02475Y0286
X02475Y0278
X0255Y0272
X02475Y02715
X024Y02715
X0234Y02715
X02425Y02255
X0243Y01535
X0243Y01465
X02365Y01465
X02405Y01175
X0266Y0204
X02585Y02075
X0261Y0215
X028Y0215
X02665Y0272
X0261Y0272
X02665Y02865
X0261Y02865
X02665Y02945
X02605Y02945
X0272Y02945
X02775Y02945
X02775Y03
X02775Y03055
X02775Y0311
X0272Y0311
X02605Y0311
X02665Y0311
X0263Y03535
X02795Y0357
X02795Y0366
X0273Y0387
X02625Y04005
X02815Y04105
X02635Y04105
X0274Y0415
X02815Y04195
X02775Y04265
X02725Y04315
X0268Y0434
X0272Y0441
X0272Y0446
X02775Y0447
X0273Y0454
X0262Y0454
X02675Y0454
X0262Y0459
X0273Y0459
X02675Y0459
X02835Y04465
X02895Y04465
X0296Y04445
X0296Y044
X0301Y044
X0283Y0434
X0296Y0434
X03005Y04335
X02945Y0429
X0283Y04285
X02885Y04265
X03005Y0422
X03045Y042
X0284Y04005
X029Y0396
X02895Y0266
X03035Y02495
X03045Y02275
X0301Y0218
X0298Y0191
X0291Y01845
X0298Y01845
X02975Y01785
X0298Y01725
X02915Y01725
X02975Y01665
X0298Y016
X0291Y016
X0298Y01535
X0298Y01475
X02905Y01475
X03155Y0113
X03215Y01175
X03085Y01755
X03145Y01945
X03145Y02135
X032Y0241
X0326Y0329
X03205Y0361
X0329Y0368
X03095Y0385
X03205Y0385
X0328Y04005
X03145Y0414
X0319Y0427
X0311Y0427
X03305Y04335
X0311Y0435
X0319Y0435
X0313Y05225
X0325Y0523
X03505Y0447
X03455Y0447
X034Y0447
X03325Y04445
X03455Y04425
X03325Y04395
X03455Y0438
X03455Y04335
X0335Y04315
X03555Y04315
X03455Y04285
X0351Y04265
X034Y0426
X03515Y0419
X03465Y0415
X03348Y04013
X03415Y0396
X03565Y0387
X03475Y0363
X0332Y0334
X03545Y03275
X03415Y0327
X03355Y03205
X03545Y03165
X03545Y0311
X03545Y03055
X03545Y03
X03395Y02425
X03395Y0231
X03335Y02255
X0346Y02255
X0351Y02235
X0351Y02115
X0351Y0199
X0366Y0152
X03715Y0152
X0361Y0152
X03815Y01555
X0366Y01575
X03715Y01575
X0366Y0163
X03715Y0163
X0366Y0169
X03655Y01825
X03745Y0187
X03815Y01875
X0381Y01945
X0357Y0205
X03785Y0211
X0357Y02175
X0357Y02295
X03745Y0233
X03715Y03
X036Y03
X0377Y03
X0366Y03
X0377Y03055
X0377Y0311
X03715Y03165
X036Y03165
X0366Y03165
X0377Y03165
X038Y0363
X0363Y0363
X03702Y04105
X03725Y0429
X0381Y04375
X0376Y04375
X0371Y04375
X036Y0443
X0371Y04465
X0396Y0523
X03985Y0514
X0388Y0489
X03995Y0488
X03995Y0483
X03995Y0477
X0391Y0472
X03995Y04715
X0394Y0467
X0391Y0461
X03995Y0428
X0406Y04045
X0399Y0388
X0391Y0379
X04045Y0358
X0406Y0322
X0395Y03115
X0387Y03045
X0394Y0299
X04055Y02935
X0399Y0224
X0399Y02075
X04045Y02075
X0399Y02025
X04045Y02025
X04045Y0198
X0399Y0198
X04045Y01915
X04Y01915
X04025Y0187
X04025Y0182
X0401Y0169
X04055Y01175
X03975Y01125
X0407Y0174
X0431Y0177
X04075Y0182
X0415Y02975
X04265Y03
X0409Y03035
X04265Y03055
X04265Y0311
X04265Y03165
X0416Y0358
X04255Y03585
X04255Y03765
X04255Y03855
X04215Y0401
X0418Y04075
X04225Y0412
X0418Y04275
X04135Y04425
X04185Y04425
X04235Y04425
X04315Y04465
X04135Y04485
X04235Y04485
X0424Y04595
X0421Y04755
X04305Y04805
X0421Y04805
X0421Y0485
X0427Y0485
X04375Y046
X04335Y046
X04375Y0456
X04335Y0456
X0446Y04425
X04325Y04385
X04505Y04385
X044Y04275
X04415Y03815
X04565Y03675
X04415Y0363
X04525Y0346
X04435Y03165
X0449Y03165
X0438Y03165
X0432Y03165
X0449Y0311
X0449Y03055
X0432Y03
X0449Y03
X04435Y03
X0438Y03
X044Y02265
X044Y0221
X04455Y0221
X04565Y0221
X0451Y0221
X0451Y0216
X04565Y0216
X04455Y0216
X044Y0216
X0434Y02025
X0434Y0193
X04445Y0164
X04505Y0164
X04505Y01595
X0438Y01595
X04445Y01595
X0445Y0154
X04505Y0154
X0445Y01475
X04505Y01475
X04385Y01475
X0478Y01585
X04575Y0178
X04745Y01875
X04575Y01915
X0479Y0207
X0469Y0211
X04745Y02165
X0462Y02165
X0462Y02215
X0462Y0227
X04745Y0232
X04615Y03075
X04725Y0326
X046Y0339
X04805Y0346
X04595Y0347
X0463Y0355
X04665Y03595
X04755Y03665
X0467Y0375
X0473Y0375
X0462Y03845
X0457Y03855
X0467Y0415
X04685Y04425
X04645Y0447
X0467Y0463
X0468Y04735
X0464Y0486
X0476Y0523
X05045Y0487
X05045Y04815
X05045Y0476
X05045Y04715
X0498Y04595
X05015Y0451
X05015Y04465
X0506Y0445
X04915Y0441
X05055Y0417
X04995Y0415
X04945Y04045
X04895Y0403
X05055Y0401
X0485Y04005
X0489Y039
X05035Y03835
X049Y0377
X0498Y0364
X0506Y0364
X0506Y0356
X0498Y0356
X0506Y0348
X0498Y0348
X04855Y0337
X0488Y0331
X0499Y03265
X0485Y02685
X05005Y02685
X0505Y0201
X04975Y02
X04925Y01795
X0499Y0174
X05Y01575
X0489Y01575
X0489Y01535
X05Y01535
X05Y01495
X0489Y01495
X05235Y01505
X05235Y0155
X05235Y01595
X0519Y01665
X0521Y0184
X05295Y0204
X05235Y0204
X05265Y02075
X05205Y02075
X05215Y0224
X05315Y0224
X05265Y0224
X05265Y02285
X05315Y02285
X05215Y02285
X05275Y02445
X05105Y0248
X05235Y0261
X0531Y03165
X0527Y0321
X0527Y03385
X0531Y0343
X0514Y0348
X0514Y0356
X0514Y0364
X0508Y0384
X05275Y03845
X05105Y03945
X05235Y0401
X05145Y0417
X0511Y0445
X0525Y04455
X053Y04455
X052Y04455
X0525Y0451
X0509Y04715
X05115Y0476
X05115Y0487
X05575Y05235
X05545Y0452
X05815Y0445
X05745Y04445
X05815Y044
X0558Y0421
X05795Y0421
X0576Y0416
X0558Y0411
X058Y0411
X05335Y0401
X05815Y036
X05765Y03495
X05355Y0346
X05355Y0318
X0578Y02905
X05415Y02765
X05505Y0276
X05595Y0276
X058Y0245
X0535Y02365
X05755Y02345
X05495Y0231
X05325Y02075
X05525Y0198
X0562Y0184
X05755Y0184
X05565Y0178
X05685Y0178
X05565Y01725
X05745Y0172
X058Y0172
X05685Y0172
X0562Y0172
X05565Y0166
X05685Y0166
X05475Y01595
X0574Y0155
X0563Y0155
X0563Y01505
X0574Y01505
X0574Y0146
X0563Y0146
X0565Y01175
X0565Y01085
X0597Y0146
X0597Y0151
X0597Y01555
X0595Y0167
X0591Y0204
X06055Y02065
X059Y02575
X0591Y02745
X0594Y03685
X0592Y03795
X06025Y04225
X0587Y044
X0587Y0445
X05875Y04535
X0606Y0459
X05825Y046
X0589Y04635
X05885Y04735
X05865Y04835
X06105Y04825
X0614Y0468
X0614Y0459
X0623Y04275
X06075Y04275
X0623Y04185
X06275Y02765
X06295Y0268
X0612Y0268
X0612Y02575
X06155Y02475
X06285Y02475
X06155Y0241
X0622Y0241
X06285Y0241
X06235Y0232
X06295Y0232
X06295Y02255
X063Y02165
X063Y02115
X06275Y02065
X0622Y02065
X06165Y02065
X0611Y02065
X06195Y01995
X06125Y0198
X06165Y01955
X0624Y01945
X06125Y0193
X06165Y01905
X06125Y0188
X063Y01865
X06295Y0169
X0647Y0108
X065375Y011075
X064025Y011075
X06565Y01175
X06375Y01175
X064025Y012425
X065375Y012425
X0647Y0127
X06355Y0152
X0651Y01575
X0651Y0166
X06455Y01885
X0649Y0205
X06335Y02065
X06385Y02065
X06405Y0232
X06355Y0232
X06455Y02395
X06335Y0244
X0641Y02455
X06455Y025
X06535Y02575
X06415Y02765
X06565Y0305
X06345Y031
X06465Y031
X0639Y03495
X0639Y03595
X0639Y03695
X0639Y03795
X0647Y051
X064025Y051275
X065375Y051275
X06565Y05195
X06375Y05195
X064025Y052625
X065375Y052625
X0647Y0529
T2C.035F197S55
X06575Y03445
X06575Y03545
X06575Y03645
X06575Y03745
X06575Y03845
T3C.037F197S55
X04765Y02535
X04765Y02835
X05065Y02835
X04965Y02835
X04865Y02835
X05065Y02535
X04965Y02535
X04865Y02535
X06575Y04015
X06575Y04115
X06575Y04215
T4C.04F139S55
X016Y0132
X0124Y018
X0152Y03065
X0152Y0326
X0181Y0385
X01645Y0385
X01715Y04355
X01585Y0504
X0226Y0504
X02395Y0504
X0196Y03275
X02745Y0234
X02715Y0204
X024Y01325
X0225Y01325
X0306Y01325
X03225Y01325
X02915Y0204
X03285Y0219
X02915Y03085
X0321Y05035
X03045Y0504
X0386Y0504
X04015Y0504
X04665Y0504
X0403Y01325
X0387Y01325
X04695Y01325
X0485Y01325
X055Y01335
X0517Y01935
X0556Y04875
X0483Y0504
X05485Y0504
X0564Y0504
X0629Y0504
X06025Y0268
X05745Y02555
X05645Y02555
X06Y0236
X0611Y0236
X05645Y01335
X0657Y01335
T5C.06F089S55
X01825Y01145
X02025Y01145
X01145Y03035
X01145Y03235
X0202Y0522
X0182Y0522
X0263Y0522
X0283Y0522
X0263Y01145
X0283Y01145
X0344Y01145
X0364Y01145
X0425Y01145
X0344Y0522
X0425Y0522
X0364Y0522
X0445Y0522
X0506Y0522
X0526Y0522
X0445Y01145
X0506Y01145
X0526Y01145
X0587Y01145
X0607Y01145
X0587Y0522
X0607Y0522
T6C.138F035S794
X01175Y01175
X01175Y05195
X0647Y05195
X0647Y01175
M30
