*
*
G04 PADS 9.2 Build Number: 406656 generated Gerber (RS-274-X) file*
G04 PC Version=2.1*
*
%IN "POWERDESIGN_PCB_V03_051"*%
*
%MOIN*%
*
%FSLAX35Y35*%
*
*
*
*
G04 PC Standard Apertures*
*
*
G04 Thermal Relief Aperture macro.*
%AMTER*
1,1,$1,0,0*
1,0,$1-$2,0,0*
21,0,$3,$4,0,0,45*
21,0,$3,$4,0,0,135*
%
*
*
G04 Annular Aperture macro.*
%AMANN*
1,1,$1,0,0*
1,0,$2,0,0*
%
*
*
G04 Odd Aperture macro.*
%AMODD*
1,1,$1,0,0*
1,0,$1-0.005,0,0*
%
*
*
G04 PC Custom Aperture Macros*
*
*
*
*
*
*
G04 PC Aperture Table*
*
%ADD012C,0.035*%
%ADD017C,0.13*%
%ADD018C,0.05*%
%ADD019C,0.06*%
%ADD027R,0.06X0.06*%
%ADD033C,0.01*%
%ADD040C,0.03*%
%ADD044C,0.138*%
%ADD045C,0.001*%
%ADD046R,0.038X0.03*%
%ADD049R,0.03X0.038*%
*
*
*
*
G04 PC Circuitry*
G04 Layer Name POWERDESIGN_PCB_V03_051 - circuitry*
%LPD*%
*
*
G04 PC Custom Flashes*
G04 Layer Name POWERDESIGN_PCB_V03_051 - flashes*
%LPD*%
*
*
G04 PC Circuitry*
G04 Layer Name POWERDESIGN_PCB_V03_051 - circuitry*
%LPD*%
*
G54D12*
G01X156500Y108000D03*
X315500Y113000D03*
X397500Y112500D03*
X565000Y108500D03*
X134000Y127000D03*
X147500Y127500D03*
X240500Y117500D03*
X321500D03*
X405500D03*
X565000D03*
X134000Y138000D03*
Y151500D03*
X147000Y138000D03*
X151000Y152500D03*
X162500D03*
X195000Y146500D03*
X212500D03*
X205000Y151000D03*
X201000Y146500D03*
X207000D03*
X236500D03*
X230000D03*
X243000D03*
X290500Y147500D03*
X298000D03*
X361000Y152000D03*
X366000D03*
X371500D03*
X438500Y147500D03*
X445000D03*
X450500D03*
X489000Y149500D03*
X500000D03*
X523500Y150500D03*
X563000D03*
Y146000D03*
X574000Y150500D03*
Y146000D03*
X597000Y151000D03*
Y146000D03*
X635500Y152000D03*
X115000Y168000D03*
X107500D03*
X132000Y171500D03*
X131000Y161500D03*
X156500Y158000D03*
X151000D03*
Y164500D03*
X162500D03*
X162000Y158000D03*
X195000Y158500D03*
X205000Y156500D03*
X230000Y153500D03*
X243000D03*
X291500Y172500D03*
X291000Y160000D03*
X297500Y166500D03*
X298000Y153500D03*
Y160000D03*
Y172500D03*
X371500Y157500D03*
Y163000D03*
X366000Y157500D03*
Y163000D03*
Y169000D03*
X381500Y155500D03*
X401000Y169000D03*
X444500Y159500D03*
X438000D03*
X445000Y154000D03*
X450500D03*
Y159500D03*
Y164000D03*
X444500D03*
X489000Y157500D03*
Y153500D03*
X478000Y158500D03*
X500000Y157500D03*
Y153500D03*
X519000Y166500D03*
X523500Y159500D03*
Y155000D03*
X547500Y159500D03*
X556500Y172500D03*
Y166000D03*
X562000Y172000D03*
X563000Y155000D03*
X574500Y172000D03*
X568500Y166000D03*
X574000Y155000D03*
X568500Y172000D03*
X595000Y167000D03*
X597000Y155500D03*
X580000Y172000D03*
X629500Y169000D03*
X651000Y157500D03*
Y166000D03*
X112500Y191500D03*
X122500Y191000D03*
X131000Y191500D03*
X162000Y177000D03*
X192000Y190500D03*
X197500D03*
Y181000D03*
X216500Y181500D03*
X297500Y178500D03*
X291000Y184500D03*
X298000Y191000D03*
X308500Y175500D03*
X298000Y184500D03*
X365500Y182500D03*
X374500Y187000D03*
X381500Y187500D03*
X407000Y174000D03*
X407500Y182000D03*
X402500D03*
X404500Y191500D03*
X400000D03*
X402500Y187000D03*
X431000Y177000D03*
X434000Y193000D03*
X457500Y178000D03*
Y191500D03*
X474500Y187500D03*
X492500Y179500D03*
X499000Y174000D03*
X521000Y184000D03*
X556500Y178000D03*
X575500Y184000D03*
X562000D03*
X568500Y178000D03*
X612500Y188000D03*
X616500Y190500D03*
X612500Y193000D03*
X630000Y186500D03*
X645500Y188500D03*
X132000Y201500D03*
X172500Y207500D03*
X192500Y213000D03*
X186500Y207500D03*
X192500Y202000D03*
X198500Y207500D03*
X212500Y204000D03*
X266000D03*
X258500Y207500D03*
X314500Y194500D03*
X351000Y211500D03*
X357000Y205000D03*
X351000Y199000D03*
X378500Y211000D03*
X381000Y194500D03*
X404500Y207500D03*
X399000D03*
Y202500D03*
X404500D03*
Y198000D03*
X399000D03*
X434000Y202500D03*
X469000Y211000D03*
X497500Y200000D03*
X479000Y207000D03*
X505000Y201000D03*
X529500Y204000D03*
X526500Y207500D03*
X520500D03*
X523500Y204000D03*
X532500Y207500D03*
X552500Y198000D03*
X591000Y204000D03*
X605500Y206500D03*
X611000D03*
X612500Y198000D03*
X616500Y195500D03*
Y206500D03*
X624000Y194500D03*
X630000Y211500D03*
X633500Y206500D03*
X619500Y199500D03*
X622000Y206500D03*
X627500D03*
X638500D03*
X649000Y205000D03*
X113500Y215500D03*
X136500Y220500D03*
X120000Y215500D03*
X151000Y213500D03*
X155500D03*
X160500D03*
X165500D03*
X170500D03*
X175000D03*
X179500D03*
X212500Y218000D03*
X222000Y225500D03*
X226500D03*
X230500D03*
X242500D03*
X261000Y215000D03*
X280000D03*
X314500Y213500D03*
X304500Y227500D03*
X301000Y218000D03*
X333500Y225500D03*
X351000Y223500D03*
X346000Y225500D03*
X357000Y229500D03*
X339500Y231000D03*
X357000Y217500D03*
X374500Y233000D03*
X399000Y224000D03*
X451000Y221000D03*
X445500Y216000D03*
Y221000D03*
X456500D03*
X440000D03*
Y226500D03*
Y216000D03*
X456500D03*
X451000D03*
X474500Y216500D03*
X462000Y221500D03*
Y227000D03*
Y216500D03*
X474500Y232000D03*
X521500Y224000D03*
X526500D03*
Y228500D03*
X531500D03*
Y224000D03*
X521500Y228500D03*
X549500Y231000D03*
X623500Y232000D03*
X630000Y216500D03*
X629500Y225500D03*
Y232000D03*
X635500D03*
X640500D03*
X124500Y238000D03*
X150000Y239000D03*
X149500Y245500D03*
X162000Y241500D03*
X168000Y234500D03*
X175500Y235000D03*
X188500Y243000D03*
X197500D03*
X206500D03*
X222000Y238000D03*
X226500D03*
X303500Y249500D03*
X320000Y241000D03*
X339500Y242500D03*
X510500Y248000D03*
X527500Y244500D03*
X535000Y236500D03*
X575500Y234500D03*
X580000Y245000D03*
X615500Y247500D03*
Y241000D03*
X622000D03*
X628500Y247500D03*
X633500Y244000D03*
X628500Y241000D03*
X645500Y250000D03*
X641000Y245500D03*
X645500Y239500D03*
X150000Y256000D03*
X174500Y262500D03*
X172500Y254000D03*
X166000Y255000D03*
X178500Y270500D03*
X191500Y272500D03*
X213500Y268000D03*
X228000Y271500D03*
X234000D03*
X255000Y272000D03*
X240000Y271500D03*
X247500D03*
X266500Y272000D03*
X261000D03*
X289500Y266000D03*
X485000Y268500D03*
X500500D03*
X523500Y261000D03*
X590000Y257500D03*
X612000D03*
Y268000D03*
X629500D03*
X653500Y257500D03*
X115000Y293000D03*
X108500D03*
X114000Y275500D03*
X122500Y293000D03*
X169500Y290000D03*
X162500Y278000D03*
X191500Y290500D03*
X181500D03*
X187500Y282500D03*
X201000Y289000D03*
X225500Y291500D03*
X221500Y287000D03*
X234000Y286500D03*
X228000D03*
X247500Y278000D03*
X255000Y286500D03*
X247500Y286000D03*
X240000Y286500D03*
X266500D03*
X261000D03*
X550500Y276000D03*
X541500Y276500D03*
X559500Y276000D03*
X578000Y290500D03*
X591000Y274500D03*
X627500Y276500D03*
X641500D03*
X127500Y300500D03*
Y307000D03*
X153500Y295000D03*
X191500Y301500D03*
X196000Y306000D03*
Y301500D03*
X191500Y306000D03*
X187500Y301500D03*
X191500Y312500D03*
X187500Y305500D03*
X218500Y294000D03*
X255000Y300000D03*
Y305500D03*
Y311000D03*
Y294500D03*
X272000D03*
X277500D03*
Y300000D03*
X266500Y311000D03*
X260500D03*
X277500Y305500D03*
Y311000D03*
X272000D03*
X266500Y294500D03*
X260500D03*
X354500Y300000D03*
Y305500D03*
Y311000D03*
X377000D03*
Y305500D03*
Y300000D03*
X371500D03*
X366000D03*
X360000D03*
X394000Y299000D03*
X395000Y311500D03*
X387000Y304500D03*
X405500Y293500D03*
X409000Y303500D03*
X415000Y297500D03*
X432000Y300000D03*
X426500D03*
Y305500D03*
Y311000D03*
X449000D03*
Y305500D03*
Y300000D03*
X443500D03*
X438000D03*
X461500Y307500D03*
X634500Y310000D03*
X656500Y305000D03*
X646500Y310000D03*
X191500Y318500D03*
X209500Y327500D03*
X220000Y329500D03*
X335500Y320500D03*
X326000Y329000D03*
X354500Y327500D03*
X341500Y327000D03*
X354500Y316500D03*
X366000D03*
X371500D03*
X377000D03*
X360000D03*
X406000Y322000D03*
X426500Y316500D03*
X432000D03*
X443500D03*
X449000D03*
X438000D03*
X472500Y326000D03*
X488000Y331000D03*
X499000Y326500D03*
X531000Y316500D03*
X527000Y321000D03*
X535500Y318000D03*
X110000Y341000D03*
X107000Y352000D03*
X112500D03*
X130000Y342000D03*
X118500Y350500D03*
X187500Y352000D03*
X180500Y341500D03*
X232000Y352000D03*
X332000Y334000D03*
X452500Y346000D03*
X459500Y347000D03*
X460000Y339000D03*
X485500Y337000D03*
X480500Y346000D03*
X506000Y348000D03*
X514000D03*
X498000D03*
X531000Y343000D03*
X527000Y338500D03*
X535500Y346000D03*
X576500Y349500D03*
X639000D03*
X118500Y355000D03*
Y360000D03*
Y365500D03*
Y371000D03*
X197000Y356500D03*
X214500D03*
X242500Y353500D03*
X252000Y364000D03*
Y368500D03*
X248000Y358500D03*
X263000Y353500D03*
X279500Y366000D03*
Y357000D03*
X329000Y368000D03*
X320500Y361000D03*
X347500Y363000D03*
X363000D03*
X380000D03*
X416000Y358000D03*
X404500D03*
X425500Y358500D03*
X441500Y363000D03*
X456500Y367500D03*
X466500Y359500D03*
X475500Y366500D03*
X463000Y355000D03*
X514000Y356000D03*
X506000D03*
Y364000D03*
X498000Y356000D03*
Y364000D03*
X514000D03*
X581500Y360000D03*
X594000Y368500D03*
X639000Y369500D03*
Y359500D03*
X108000Y375500D03*
X113000D03*
X118500Y377000D03*
Y382500D03*
Y388000D03*
X191000Y389500D03*
X224500Y392000D03*
X237000D03*
X237500Y380500D03*
X273000Y387000D03*
X309500Y385000D03*
X320500D03*
X356500Y387000D03*
X391000Y379000D03*
X399000Y388000D03*
X425500Y385500D03*
Y376500D03*
X441500Y381500D03*
X457000Y385500D03*
X462000Y384500D03*
X467000Y375000D03*
X473000D03*
X490000Y377000D03*
X489000Y390000D03*
X503500Y383500D03*
X508000Y384000D03*
X527500Y384500D03*
X592000Y379500D03*
X639000D03*
X113500Y399000D03*
X108500D03*
Y403500D03*
Y409000D03*
X118500Y393500D03*
Y399000D03*
X159500Y404500D03*
X160500Y396000D03*
X181000Y401000D03*
X197500Y403500D03*
X207500Y402500D03*
X202000Y398000D03*
X225000Y404500D03*
X249500Y406500D03*
X252000Y398000D03*
X262500Y400500D03*
X263500Y410500D03*
X290000Y396000D03*
X281500Y410500D03*
X284000Y400500D03*
X334800Y401300D03*
X328000Y400500D03*
X341500Y396000D03*
X370200Y410500D03*
X406000Y404500D03*
X418000Y407500D03*
X422500Y412000D03*
X421500Y401000D03*
X489500Y403000D03*
X485000Y400500D03*
X494500Y404500D03*
X510500Y394500D03*
X505500Y401000D03*
X523500D03*
X533500D03*
X558000Y411000D03*
X580000D03*
X108500Y414000D03*
X113500D03*
X118500D03*
X144500Y432500D03*
X176000Y420000D03*
X191000Y430500D03*
X186500Y426500D03*
X213500Y421000D03*
X201500Y425500D03*
X237000Y419000D03*
X229500Y428500D03*
X234500D03*
X239500D03*
X252000Y432000D03*
X247500Y427000D03*
Y432000D03*
X256500Y416000D03*
Y421000D03*
X252000Y415500D03*
X247500Y416000D03*
Y421000D03*
X274000Y415000D03*
X277500Y426500D03*
X272500Y431500D03*
X281500Y419500D03*
X294500Y429000D03*
X283000Y428500D03*
X288500Y426500D03*
X300500Y422000D03*
X311000Y427000D03*
X304500Y420000D03*
X314500Y414000D03*
X335000Y431500D03*
X319000Y427000D03*
X346500Y415000D03*
X340000Y426000D03*
X351500Y419000D03*
X351000Y426500D03*
X345500Y428500D03*
X355500Y431500D03*
X372500Y429000D03*
X399500Y428000D03*
X418000Y427500D03*
X440000D03*
X467000Y415000D03*
X514500Y417000D03*
X505500D03*
X499500Y415000D03*
X558000Y421000D03*
X576000Y416000D03*
X579500Y421000D03*
X607500Y427500D03*
X602500Y422500D03*
X623000Y418500D03*
Y427500D03*
X154000Y443500D03*
Y438500D03*
X148000D03*
Y443500D03*
Y449500D03*
X170000Y444500D03*
X172500Y451000D03*
X194500Y451500D03*
Y445000D03*
X189000D03*
X178000Y452500D03*
X183500D03*
X189000Y451500D03*
X201500Y435000D03*
X234500Y434500D03*
Y440500D03*
X234000Y446000D03*
X239500Y440500D03*
Y446500D03*
Y434500D03*
X268000Y434000D03*
X272000Y441000D03*
Y446000D03*
X277500Y447000D03*
X283500Y446500D03*
X289500D03*
X296000Y444500D03*
Y440000D03*
X283000Y434000D03*
X296000D03*
X300500Y433500D03*
X301000Y440000D03*
X311000Y435000D03*
X330500Y433500D03*
X332500Y444500D03*
Y439500D03*
X319000Y435000D03*
X350500Y447000D03*
X345500Y438000D03*
Y442500D03*
Y447000D03*
X340000D03*
X345500Y433500D03*
X371000Y446500D03*
Y437500D03*
X376000D03*
X360000Y443000D03*
X381000Y437500D03*
X413500Y448500D03*
Y442500D03*
X432500Y438500D03*
X431500Y446500D03*
X418500Y442500D03*
X423500D03*
Y448500D03*
X450500Y438500D03*
X446000Y442500D03*
X464500Y447000D03*
X468500Y442500D03*
X491500Y441000D03*
X511000Y445000D03*
X506000D03*
X501500Y451000D03*
Y446500D03*
X520000Y445500D03*
X530000D03*
X525000D03*
Y451000D03*
X554500Y452000D03*
X574500Y444500D03*
X587000Y445000D03*
X581500D03*
Y440000D03*
X587000D03*
X148000Y455500D03*
X156000Y462000D03*
X161500D03*
X167000Y462500D03*
X172500D03*
Y457000D03*
X188000Y460000D03*
X233000Y457000D03*
X228000Y472000D03*
X233000Y469000D03*
X228000Y460000D03*
X233000Y463000D03*
X228000Y466000D03*
X273000Y454000D03*
Y459000D03*
X262000Y454000D03*
Y459000D03*
X267500Y454000D03*
Y459000D03*
X394000Y467000D03*
X391000Y461000D03*
Y472000D03*
X399500Y471500D03*
X424000Y459500D03*
X437500Y460000D03*
X433500D03*
X437500Y456000D03*
X433500D03*
X467000Y463000D03*
X509000Y471500D03*
X504500D03*
X498000Y459500D03*
X589000Y463500D03*
X582500Y460000D03*
X587500Y453500D03*
X606000Y459000D03*
X614000Y468000D03*
Y459000D03*
X228000Y478000D03*
X233000Y481000D03*
Y475000D03*
X388000Y489000D03*
X399500Y488000D03*
Y483000D03*
Y477000D03*
X427000Y485000D03*
X421000D03*
X430500Y480500D03*
X421000D03*
Y475500D03*
X468000Y473500D03*
X464000Y486000D03*
X511500Y476000D03*
X504500D03*
Y481500D03*
Y487000D03*
X511500D03*
X586500Y483500D03*
X588500Y473500D03*
X610500Y482500D03*
X138000Y505000D03*
Y523000D03*
X151000Y522000D03*
X237000Y522500D03*
X231500D03*
X242500Y522000D03*
X313000Y522500D03*
X325000Y523000D03*
X396000D03*
X398500Y514000D03*
X476000Y523000D03*
X557500Y523500D03*
G54D17*
X114500Y323500D03*
Y303500D03*
X425000Y114500D03*
X445000D03*
X506000D03*
X526000D03*
X587000D03*
X607000D03*
X182500D03*
X202500D03*
X202000Y522000D03*
X182000D03*
X607000D03*
X587000D03*
X445000D03*
X425000D03*
X526000D03*
X506000D03*
X283000D03*
X263000D03*
X364000D03*
X344000D03*
Y114500D03*
X364000D03*
X263000D03*
X283000D03*
G54D18*
X657500Y421500D03*
Y411500D03*
Y401500D03*
G54D19*
X196000Y327500D03*
X291500Y308500D03*
X328500Y219000D03*
X164500Y385000D03*
X181000D03*
X556000Y487500D03*
X602500Y268000D03*
X564500Y255500D03*
X574500D03*
X517000Y193500D03*
X600000Y236000D03*
X611000D03*
X629000Y504000D03*
X466500D03*
X291500Y204000D03*
X271500D03*
X274500Y234000D03*
X657500Y384500D03*
Y374500D03*
Y364500D03*
Y354500D03*
Y344500D03*
X124000Y180000D03*
X171500Y435500D03*
X158500Y504000D03*
X401500D03*
X239500D03*
X321000Y503500D03*
X483000Y504000D03*
X387000Y132500D03*
X469500D03*
X225000D03*
X550000Y133500D03*
X657000D03*
X564000Y504000D03*
X304500D03*
X386000D03*
X548500D03*
X322500Y132500D03*
X403000D03*
X160000Y132000D03*
X485000Y132500D03*
X564500Y133500D03*
X226000Y504000D03*
X240000Y132500D03*
X306000D03*
X152000Y326000D03*
Y306500D03*
X486500Y253500D03*
X496500D03*
X506500D03*
Y283500D03*
X496500D03*
X486500D03*
X476500D03*
G54D27*
Y253500D03*
G54D33*
X331250Y400500D02*
G75*
G03X331250I-3250J0D01*
G01X317750Y414000D02*
G03X317750I-3250J0D01*
G01X287250Y400500D02*
G03X287250I-3250J0D01*
G01X277250Y415000D02*
G03X277250I-3250J0D01*
G01X306750Y249500D02*
G03X306750I-3250J0D01*
G01X216750Y421000D02*
G03X216750I-3250J0D01*
G01X194250Y389500D02*
G03X194250I-3250J0D01*
G01Y430500D02*
G03X194250I-3250J0D01*
G01X185500Y385000D02*
G03X185500I-4500J0D01*
G01X654400Y117500D02*
G03X654400I-7400J0D01*
G01X652250Y205000D02*
G03X652250I-3250J0D01*
G01X656750Y257500D02*
G03X656750I-3250J0D01*
G01X627250Y194500D02*
G03X627250I-3250J0D01*
G01X654400Y519500D02*
G03X654400I-7400J0D01*
G01X626250Y418500D02*
G03X626250I-3250J0D01*
G01Y427500D02*
G03X626250I-3250J0D01*
G01X633500Y504000D02*
G03X633500I-4500J0D01*
G01X615250Y257500D02*
G03X615250I-3250J0D01*
G01Y268000D02*
G03X615250I-3250J0D01*
G01X595000Y114500D02*
G03X595000I-8000J0D01*
G01X598250Y167000D02*
G03X598250I-3250J0D01*
G01X604500Y236000D02*
G03X604500I-4500J0D01*
G01X607000Y268000D02*
G03X607000I-4500J0D01*
G01X605750Y422500D02*
G03X605750I-3250J0D01*
G01X610750Y427500D02*
G03X610750I-3250J0D01*
G01X609250Y459000D02*
G03X609250I-3250J0D01*
G01X613750Y482500D02*
G03X613750I-3250J0D01*
G01X615000Y522000D02*
G03X615000I-8000J0D01*
G01X594250Y204000D02*
G03X594250I-3250J0D01*
G01X593250Y257500D02*
G03X593250I-3250J0D01*
G01X578750Y234500D02*
G03X578750I-3250J0D01*
G01X579000Y255500D02*
G03X579000I-4500J0D01*
G01X581250Y290500D02*
G03X581250I-3250J0D01*
G01X577750Y444500D02*
G03X577750I-3250J0D01*
G01X568250Y108500D02*
G03X568250I-3250J0D01*
G01Y117500D02*
G03X568250I-3250J0D01*
G01X569000Y133500D02*
G03X569000I-4500J0D01*
G01Y255500D02*
G03X569000I-4500J0D01*
G01X550750Y159500D02*
G03X550750I-3250J0D01*
G01X555750Y198000D02*
G03X555750I-3250J0D01*
G01X552750Y231000D02*
G03X552750I-3250J0D01*
G01X553750Y276000D02*
G03X553750I-3250J0D01*
G01X557750Y452000D02*
G03X557750I-3250J0D01*
G01X560500Y487500D02*
G03X560500I-4500J0D01*
G01X560750Y523500D02*
G03X560750I-3250J0D01*
G01X553000Y504000D02*
G03X553000I-4500J0D01*
G01X522250Y166500D02*
G03X522250I-3250J0D01*
G01X524250Y184000D02*
G03X524250I-3250J0D01*
G01X514000Y114500D02*
G03X514000I-8000J0D01*
G01X521500Y193500D02*
G03X521500I-4500J0D01*
G01X530750Y244500D02*
G03X530750I-3250J0D01*
G01Y384500D02*
G03X530750I-3250J0D01*
G01X534000Y522000D02*
G03X534000I-8000J0D01*
G01X508250Y201000D02*
G03X508250I-3250J0D01*
G01X511000Y253500D02*
G03X511000I-4500J0D01*
G01X500750Y200000D02*
G03X500750I-3250J0D01*
G01X501000Y253500D02*
G03X501000I-4500J0D01*
G01X502250Y326500D02*
G03X502250I-3250J0D01*
G01X513750Y394500D02*
G03X513750I-3250J0D01*
G01X508750Y401000D02*
G03X508750I-3250J0D01*
G01X502750Y415000D02*
G03X502750I-3250J0D01*
G01X489500Y132500D02*
G03X489500I-4500J0D01*
G01X491000Y253500D02*
G03X491000I-4500J0D01*
G01X493250Y377000D02*
G03X493250I-3250J0D01*
G01X492250Y390000D02*
G03X492250I-3250J0D01*
G01X492750Y403000D02*
G03X492750I-3250J0D01*
G01X494750Y441000D02*
G03X494750I-3250J0D01*
G01X481250Y158500D02*
G03X481250I-3250J0D01*
G01X477750Y232000D02*
G03X477750I-3250J0D01*
G01X483750Y346000D02*
G03X483750I-3250J0D01*
G01X475750Y326000D02*
G03X475750I-3250J0D01*
G01X478750Y366500D02*
G03X478750I-3250J0D01*
G01X433000Y114500D02*
G03X433000I-8000J0D01*
G01X434250Y177000D02*
G03X434250I-3250J0D01*
G01X437250Y202500D02*
G03X437250I-3250J0D01*
G01X464750Y307500D02*
G03X464750I-3250J0D01*
G01X463250Y339000D02*
G03X463250I-3250J0D01*
G01X462750Y347000D02*
G03X462750I-3250J0D01*
G01X479250Y523000D02*
G03X479250I-3250J0D01*
G01X470250Y415000D02*
G03X470250I-3250J0D01*
G01X471750Y442500D02*
G03X471750I-3250J0D01*
G01X470250Y463000D02*
G03X470250I-3250J0D01*
G01X467250Y486000D02*
G03X467250I-3250J0D01*
G01X471000Y504000D02*
G03X471000I-4500J0D01*
G01X453000Y522000D02*
G03X453000I-8000J0D01*
G01X428750Y376500D02*
G03X428750I-3250J0D01*
G01X434750Y446500D02*
G03X434750I-3250J0D01*
G01X418250Y297500D02*
G03X418250I-3250J0D01*
G01X424750Y401000D02*
G03X424750I-3250J0D01*
G01X427250Y459500D02*
G03X427250I-3250J0D01*
G01X408750Y117500D02*
G03X408750I-3250J0D01*
G01X400750Y112500D02*
G03X400750I-3250J0D01*
G01X407500Y132500D02*
G03X407500I-4500J0D01*
G01X404250Y169000D02*
G03X404250I-3250J0D01*
G01X410250Y174000D02*
G03X410250I-3250J0D01*
G01X409250Y404500D02*
G03X409250I-3250J0D01*
G01X402250Y224000D02*
G03X402250I-3250J0D01*
G01X401750Y514000D02*
G03X401750I-3250J0D01*
G01X399250Y523000D02*
G03X399250I-3250J0D01*
G01X384750Y155500D02*
G03X384750I-3250J0D01*
G01X377750Y187000D02*
G03X377750I-3250J0D01*
G01X384250Y194500D02*
G03X384250I-3250J0D01*
G01X390250Y304500D02*
G03X390250I-3250J0D01*
G01X377750Y233000D02*
G03X377750I-3250J0D01*
G01X368750Y182500D02*
G03X368750I-3250J0D01*
G01X352000Y114500D02*
G03X352000I-8000J0D01*
G01X357750Y327500D02*
G03X357750I-3250J0D01*
G01X342750Y242500D02*
G03X342750I-3250J0D01*
G01X318750Y113000D02*
G03X318750I-3250J0D01*
G01X324750Y117500D02*
G03X324750I-3250J0D01*
G01X327000Y132500D02*
G03X327000I-4500J0D01*
G01X311750Y175500D02*
G03X311750I-3250J0D01*
G01X296000Y308500D02*
G03X296000I-4500J0D01*
G01X271000Y114500D02*
G03X271000I-8000J0D01*
G01X279000Y234000D02*
G03X279000I-4500J0D01*
G01X282750Y366000D02*
G03X282750I-3250J0D01*
G01X261750Y207500D02*
G03X261750I-3250J0D01*
G01X266250Y353500D02*
G03X266250I-3250J0D01*
G01X375750Y429000D02*
G03X375750I-3250J0D01*
G01X390500Y504000D02*
G03X390500I-4500J0D01*
G01X374250Y446500D02*
G03X374250I-3250J0D01*
G01X363250Y443000D02*
G03X363250I-3250J0D01*
G01X372000Y522000D02*
G03X372000I-8000J0D01*
G01X328250Y523000D02*
G03X328250I-3250J0D01*
G01X316250Y522500D02*
G03X316250I-3250J0D01*
G01X297750Y429000D02*
G03X297750I-3250J0D01*
G01X303750Y433500D02*
G03X303750I-3250J0D01*
G01X309000Y504000D02*
G03X309000I-4500J0D01*
G01X271250Y434000D02*
G03X271250I-3250J0D01*
G01X291000Y522000D02*
G03X291000I-8000J0D01*
G01X219750Y181500D02*
G03X219750I-3250J0D01*
G01X235250Y352000D02*
G03X235250I-3250J0D01*
G01X245750Y522000D02*
G03X245750I-3250J0D01*
G01X215750Y218000D02*
G03X215750I-3250J0D01*
G01X216750Y268000D02*
G03X216750I-3250J0D01*
G01X223250Y329500D02*
G03X223250I-3250J0D01*
G01X209750Y243000D02*
G03X209750I-3250J0D01*
G01X198250Y158500D02*
G03X198250I-3250J0D01*
G01X200750Y181000D02*
G03X200750I-3250J0D01*
G01X190500Y114500D02*
G03X190500I-8000J0D01*
G01X195750Y202000D02*
G03X195750I-3250J0D01*
G01X201750Y207500D02*
G03X201750I-3250J0D01*
G01X189750D02*
G03X189750I-3250J0D01*
G01X195750Y213000D02*
G03X195750I-3250J0D01*
G01X194750Y290500D02*
G03X194750I-3250J0D01*
G01X164500Y132000D02*
G03X164500I-4500J0D01*
G01X165250Y177000D02*
G03X165250I-3250J0D01*
G01X171250Y234500D02*
G03X171250I-3250J0D01*
G01X177750Y262500D02*
G03X177750I-3250J0D01*
G01X181750Y270500D02*
G03X181750I-3250J0D01*
G01X184750Y290500D02*
G03X184750I-3250J0D01*
G01X200500Y327500D02*
G03X200500I-4500J0D01*
G01X183750Y341500D02*
G03X183750I-3250J0D01*
G01X172750Y290000D02*
G03X172750I-3250J0D01*
G01X230500Y504000D02*
G03X230500I-4500J0D01*
G01X234750Y522500D02*
G03X234750I-3250J0D01*
G01X210000Y522000D02*
G03X210000I-8000J0D01*
G01X153250Y239000D02*
G03X153250I-3250J0D01*
G01X152750Y245500D02*
G03X152750I-3250J0D01*
G01X153250Y256000D02*
G03X153250I-3250J0D01*
G01X156500Y326000D02*
G03X156500I-4500J0D01*
G01X162750Y404500D02*
G03X162750I-3250J0D01*
G01X137250Y151500D02*
G03X137250I-3250J0D01*
G01X134250Y161500D02*
G03X134250I-3250J0D01*
G01X124900Y117500D02*
G03X124900I-7400J0D01*
G01X128500Y180000D02*
G03X128500I-4500J0D01*
G01X134250Y191500D02*
G03X134250I-3250J0D01*
G01X135250Y201500D02*
G03X135250I-3250J0D01*
G01X116750Y215500D02*
G03X116750I-3250J0D01*
G01X117250Y275500D02*
G03X117250I-3250J0D01*
G01X122500Y323500D02*
G03X122500I-8000J0D01*
G01X124900Y519500D02*
G03X124900I-7400J0D01*
G01X169000Y385000D02*
G03X169000I-4500J0D01*
G01X244500Y132500D02*
G03X244500I-4500J0D01*
G01X245750Y225500D02*
G03X245750I-3250J0D01*
G01X444750Y363000D02*
G03X444750I-3250J0D01*
G01Y381500D02*
G03X444750I-3250J0D01*
G01X375000Y384707D02*
Y419793D01*
X372293Y422500*
X318020*
X317000Y422100D02*
G03X318020Y422500I0J1500D01*
G01X317000Y422100D02*
X314000D01*
X312980Y422500D02*
G03X314000Y422100I1020J1100D01*
G01X312980Y422500D02*
X303711D01*
X297289D02*
G03X303711I3211J-500D01*
G01X297289D02*
X259383D01*
X258577Y418500D02*
G03X259383Y422500I-2077J2500D01*
G01X256000Y412789D02*
G03X258577Y418500I500J3211D01*
G01X256000Y412789D02*
Y384707D01*
X258707Y382000*
X372293*
X375000Y384707*
X323000Y194707D02*
Y268793D01*
X320293Y271500*
X287207*
X284500Y268793*
Y233207*
X287207Y230500*
X291707*
X295000Y227207*
Y220520*
X295400Y219500D02*
G03X295000Y220520I-1500J0D01*
G01X295400Y219500D02*
Y216500D01*
X295000Y215480D02*
G03X295400Y216500I-1100J1020D01*
G01X295000Y215480D02*
Y206828D01*
X295995Y204212D02*
G03X295000Y206828I-4495J-212D01*
G01X295995Y204212D02*
X297707Y202500D01*
X300707*
X304000Y199207*
Y194707*
X306707Y192000*
X320293*
X323000Y194707*
X220000Y350707D02*
Y442793D01*
X217293Y445500*
X197711*
X191750Y443268D02*
G03X197711Y445500I2750J1732D01*
G01X185789D02*
G03X191750Y443268I3211J-500D01*
G01X185789Y445500D02*
X175207D01*
X173500Y443793*
Y439531*
Y431469D02*
G03Y439531I-2000J4031D01*
G01Y431469D02*
Y428020D01*
X173900Y427000D02*
G03X173500Y428020I-1500J0D01*
G01X173900Y427000D02*
Y424000D01*
X173500Y422980D02*
G03X173900Y424000I-1100J1020D01*
G01X173500Y422980D02*
Y422077D01*
Y417923D02*
G03Y422077I2500J2077D01*
G01Y417923D02*
Y350707D01*
X176207Y348000*
X217293*
X220000Y350707*
X659500Y424964D02*
Y531500D01*
X104500*
Y104500*
X659500*
Y340469*
Y348531D02*
G03Y340469I-2000J-4031D01*
G01Y348531D02*
Y350469D01*
Y358531D02*
G03Y350469I-2000J-4031D01*
G01Y358531D02*
Y360469D01*
Y368531D02*
G03Y360469I-2000J-4031D01*
G01Y368531D02*
Y370469D01*
Y378531D02*
G03Y370469I-2000J-4031D01*
G01Y378531D02*
Y380469D01*
Y388531D02*
G03Y380469I-2000J-4031D01*
G01Y388531D02*
Y408036D01*
Y414964D02*
G03Y408036I-2000J-3464D01*
G01Y414964D02*
Y418036D01*
Y424964D02*
G03Y418036I-2000J-3464D01*
G01X630359Y244834D02*
G03X630261Y243732I3141J-834D01*
G01X628512Y244250D02*
G03X630359Y244834I-12J3250D01*
G01X630261Y243732D02*
G03X628512Y244250I-1761J-2732D01*
G01X331250Y400500D02*
G03X331250I-3250J0D01*
G01X317750Y414000D02*
G03X317750I-3250J0D01*
G01X287250Y400500D02*
G03X287250I-3250J0D01*
G01X277250Y415000D02*
G03X277250I-3250J0D01*
G01X306750Y249500D02*
G03X306750I-3250J0D01*
G01X216750Y421000D02*
G03X216750I-3250J0D01*
G01X194250Y389500D02*
G03X194250I-3250J0D01*
G01Y430500D02*
G03X194250I-3250J0D01*
G01X185500Y385000D02*
G03X185500I-4500J0D01*
G01X654400Y117500D02*
G03X654400I-7400J0D01*
G01X652250Y205000D02*
G03X652250I-3250J0D01*
G01X656750Y257500D02*
G03X656750I-3250J0D01*
G01X627250Y194500D02*
G03X627250I-3250J0D01*
G01X636000Y204423D02*
G03Y208577I2500J2077D01*
G01X630500Y205250D02*
G03X636000Y204423I3000J1250D01*
G01X624750Y204768D02*
G03X630500Y205250I2750J1732D01*
G01X619250Y204768D02*
G03X624750I2750J1732D01*
G01X613750D02*
G03X619250I2750J1732D01*
G01X608250D02*
G03X613750I2750J1732D01*
G01X608250Y208232D02*
G03Y204768I-2750J-1732D01*
G01X613750Y208232D02*
G03X608250I-2750J-1732D01*
G01X619250D02*
G03X613750I-2750J-1732D01*
G01X624750D02*
G03X619250I-2750J-1732D01*
G01X627267Y209742D02*
G03X624750Y208232I233J-3242D01*
G01X627923Y214000D02*
G03X627267Y209742I2077J-2500D01*
G01X632077Y214000D02*
G03X627923I-2077J2500D01*
G01X632666Y209641D02*
G03X632077Y214000I-2666J1859D01*
G01X636000Y208577D02*
G03X632666Y209641I-2500J-2077D01*
G01X654400Y519500D02*
G03X654400I-7400J0D01*
G01X631739Y241268D02*
G03X631641Y246666I1761J2732D01*
G01X625250Y240988D02*
G03X631739Y241268I3250J12D01*
G01X618750Y240988D02*
G03X625250I3250J12D01*
G01X615137Y237770D02*
G03X618750Y240988I363J3230D01*
G01X612326Y240300D02*
G03X615137Y237770I-1326J-4300D01*
G01X615488Y244250D02*
G03X612326Y240300I12J-3250D01*
G01X615512Y244250D02*
G03X615488I-12J3250D01*
G01X618750Y241012D02*
G03X615512Y244250I-3250J-12D01*
G01X625250Y241012D02*
G03X618750I-3250J-12D01*
G01X628488Y244250D02*
G03X625250Y241012I12J-3250D01*
G01X631641Y246666D02*
G03X628488Y244250I-3141J834D01*
G01X626250Y418500D02*
G03X626250I-3250J0D01*
G01Y427500D02*
G03X626250I-3250J0D01*
G01X633500Y504000D02*
G03X633500I-4500J0D01*
G01X615250Y257500D02*
G03X615250I-3250J0D01*
G01Y268000D02*
G03X615250I-3250J0D01*
G01X595000Y114500D02*
G03X595000I-8000J0D01*
G01X598250Y167000D02*
G03X598250I-3250J0D01*
G01X604500Y236000D02*
G03X604500I-4500J0D01*
G01X607000Y268000D02*
G03X607000I-4500J0D01*
G01X605750Y422500D02*
G03X605750I-3250J0D01*
G01X610750Y427500D02*
G03X610750I-3250J0D01*
G01X609250Y459000D02*
G03X609250I-3250J0D01*
G01X613750Y482500D02*
G03X613750I-3250J0D01*
G01X615000Y522000D02*
G03X615000I-8000J0D01*
G01X594250Y204000D02*
G03X594250I-3250J0D01*
G01X593250Y257500D02*
G03X593250I-3250J0D01*
G01X578750Y234500D02*
G03X578750I-3250J0D01*
G01X579000Y255500D02*
G03X579000I-4500J0D01*
G01X581250Y290500D02*
G03X581250I-3250J0D01*
G01X577563Y413151D02*
G03X578437Y413849I2437J-2151D01*
X577563Y413151I-2437J2151*
G01X589077Y442500D02*
G03X584250Y446732I-2077J2500D01*
G01Y438268D02*
G03X589077Y442500I2750J1732D01*
G01X579423D02*
G03X584250Y438268I2077J-2500D01*
G01Y446732D02*
G03X579423Y442500I-2750J-1732D01*
G01X577750Y444500D02*
G03X577750I-3250J0D01*
G01X568250Y108500D02*
G03X568250I-3250J0D01*
G01Y117500D02*
G03X568250I-3250J0D01*
G01X569000Y133500D02*
G03X569000I-4500J0D01*
G01Y255500D02*
G03X569000I-4500J0D01*
G01X550750Y159500D02*
G03X550750I-3250J0D01*
G01X555750Y198000D02*
G03X555750I-3250J0D01*
G01X552750Y231000D02*
G03X552750I-3250J0D01*
G01X553750Y276000D02*
G03X553750I-3250J0D01*
G01X557750Y452000D02*
G03X557750I-3250J0D01*
G01X560500Y487500D02*
G03X560500I-4500J0D01*
G01X560750Y523500D02*
G03X560750I-3250J0D01*
G01X553000Y504000D02*
G03X553000I-4500J0D01*
G01X522250Y166500D02*
G03X522250I-3250J0D01*
G01X524250Y184000D02*
G03X524250I-3250J0D01*
G01X514000Y114500D02*
G03X514000I-8000J0D01*
G01X521500Y193500D02*
G03X521500I-4500J0D01*
G01X532740Y204259D02*
G03X529500Y208750I-240J3241D01*
G01X526500Y202750D02*
G03X532740Y204259I3000J1250D01*
G01X520260D02*
G03X526500Y202750I3240J-259D01*
G01X523500Y208750D02*
G03X520260Y204259I-3000J-1250D01*
G01X529500Y208750D02*
G03X523500I-3000J-1250D01*
G01X530750Y244500D02*
G03X530750I-3250J0D01*
G01X533953Y315142D02*
G03X532547Y319358I1547J2858D01*
G01X528085Y317936D02*
G03X533953Y315142I2915J-1436D01*
G01X529915Y319564D02*
G03X528085Y317936I-2915J1436D01*
G01X532547Y319358D02*
G03X529915Y319564I-1547J-2858D01*
G01X534250Y343000D02*
G03X532250Y346000I1250J3000D01*
G01X529915Y339936D02*
G03X534250Y343000I1085J3064D01*
G01X528085Y341564D02*
G03X529915Y339936I-1085J-3064D01*
G01X532250Y346000D02*
G03X528085Y341564I-1250J-3000D01*
G01X530750Y384500D02*
G03X530750I-3250J0D01*
G01X534000Y522000D02*
G03X534000I-8000J0D01*
G01X508250Y201000D02*
G03X508250I-3250J0D01*
G01X511000Y253500D02*
G03X511000I-4500J0D01*
G01X500750Y200000D02*
G03X500750I-3250J0D01*
G01X501000Y253500D02*
G03X501000I-4500J0D01*
G01X502250Y326500D02*
G03X502250I-3250J0D01*
G01X506008Y381432D02*
G03X505492Y386068I1992J2568D01*
X506008Y381432I-1992J-2568*
G01X513750Y394500D02*
G03X513750I-3250J0D01*
G01X508750Y401000D02*
G03X508750I-3250J0D01*
G01X502750Y415000D02*
G03X502750I-3250J0D01*
G01X508500Y442923D02*
G03Y447077I2500J2077D01*
G01X503047Y443642D02*
G03X508500Y442923I2953J1358D01*
G01X499155Y448750D02*
G03X503047Y443642I2345J-2250D01*
G01X503845Y448750D02*
G03X499155I-2345J2250D01*
G01X504453Y447858D02*
G03X503845Y448750I-2953J-1358D01*
G01X508500Y447077D02*
G03X504453Y447858I-2500J-2077D01*
G01X489500Y132500D02*
G03X489500I-4500J0D01*
G01X491000Y253500D02*
G03X491000I-4500J0D01*
G01X493250Y377000D02*
G03X493250I-3250J0D01*
G01X492250Y390000D02*
G03X492250I-3250J0D01*
G01X492750Y403000D02*
G03X492750I-3250J0D01*
G01X494750Y441000D02*
G03X494750I-3250J0D01*
G01X481250Y158500D02*
G03X481250I-3250J0D01*
G01X477750Y232000D02*
G03X477750I-3250J0D01*
G01X481000Y256500D02*
Y250500D01*
X479500Y249000D02*
G03X481000Y250500I0J1500D01*
G01X479500Y249000D02*
X473500D01*
X472000Y250500D02*
G03X473500Y249000I1500J0D01*
G01X472000Y250500D02*
Y256500D01*
X473500Y258000D02*
G03X472000Y256500I0J-1500D01*
G01X473500Y258000D02*
X479500D01*
X481000Y256500D02*
G03X479500Y258000I-1500J0D01*
G01X483750Y346000D02*
G03X483750I-3250J0D01*
G01X475750Y326000D02*
G03X475750I-3250J0D01*
G01X478750Y366500D02*
G03X478750I-3250J0D01*
G01X433000Y114500D02*
G03X433000I-8000J0D01*
G01X434250Y177000D02*
G03X434250I-3250J0D01*
G01X437250Y202500D02*
G03X437250I-3250J0D01*
G01X463732Y224250D02*
G03X460268I-1732J2750D01*
G01X464077Y219000D02*
G03X463732Y224250I-2077J2500D01*
G01X459405Y214543D02*
G03X464077Y219000I2595J1957D01*
G01X453750Y214268D02*
G03X459405Y214543I2750J1732D01*
G01X448250Y214268D02*
G03X453750I2750J1732D01*
G01X442750D02*
G03X448250I2750J1732D01*
G01X437923Y218500D02*
G03X442750Y214268I2077J-2500D01*
G01X438268Y223750D02*
G03X437923Y218500I1732J-2750D01*
G01X441732Y223750D02*
G03X438268I-1732J2750D01*
G01X442750Y222732D02*
G03X441732Y223750I-2750J-1732D01*
G01X448250Y222732D02*
G03X442750I-2750J-1732D01*
G01X453750D02*
G03X448250I-2750J-1732D01*
G01X459095Y222957D02*
G03X453750Y222732I-2595J-1957D01*
G01X460268Y224250D02*
G03X459095Y222957I1732J-2750D01*
G01X464750Y307500D02*
G03X464750I-3250J0D01*
G01X463250Y339000D02*
G03X463250I-3250J0D01*
G01X462750Y347000D02*
G03X462750I-3250J0D01*
G01X465982Y356291D02*
G03X463518Y358209I518J3209D01*
X465982Y356291I-518J-3209*
G01X470000Y373750D02*
G03Y376250I3000J1250D01*
Y373750I-3000J-1250*
G01X479250Y523000D02*
G03X479250I-3250J0D01*
G01X459105Y383024D02*
G03X459895Y386976I2895J1476D01*
X459105Y383024I-2895J-1476*
G01X470250Y415000D02*
G03X470250I-3250J0D01*
G01X471750Y442500D02*
G03X471750I-3250J0D01*
G01X470250Y463000D02*
G03X470250I-3250J0D01*
G01X467250Y486000D02*
G03X467250I-3250J0D01*
G01X471000Y504000D02*
G03X471000I-4500J0D01*
G01X447436Y439585D02*
G03X449064Y441415I3064J-1085D01*
X447436Y439585I-3064J1085*
G01X453000Y522000D02*
G03X453000I-8000J0D01*
G01X428750Y376500D02*
G03X428750I-3250J0D01*
G01X434750Y446500D02*
G03X434750I-3250J0D01*
G01X418250Y297500D02*
G03X418250I-3250J0D01*
G01X424750Y401000D02*
G03X424750I-3250J0D01*
G01X420718Y409282D02*
G03X419782Y410218I1782J2718D01*
X420718Y409282I-1782J-2718*
G01X427250Y459500D02*
G03X427250I-3250J0D01*
G01X408750Y117500D02*
G03X408750I-3250J0D01*
G01X400750Y112500D02*
G03X400750I-3250J0D01*
G01X407500Y132500D02*
G03X407500I-4500J0D01*
G01X404250Y169000D02*
G03X404250I-3250J0D01*
G01X410250Y174000D02*
G03X410250I-3250J0D01*
G01X406577Y205000D02*
G03X401750Y209232I-2077J2500D01*
G01X406845Y200250D02*
G03X406577Y205000I-2345J2250D01*
G01X401750Y196268D02*
G03X406845Y200250I2750J1732D01*
G01X396655D02*
G03X401750Y196268I2345J-2250D01*
G01X396923Y205000D02*
G03X396655Y200250I2077J-2500D01*
G01X401750Y209232D02*
G03X396923Y205000I-2750J-1732D01*
G01X409250Y404500D02*
G03X409250I-3250J0D01*
G01X402250Y224000D02*
G03X402250I-3250J0D01*
G01X401750Y514000D02*
G03X401750I-3250J0D01*
G01X399250Y523000D02*
G03X399250I-3250J0D01*
G01X384750Y155500D02*
G03X384750I-3250J0D01*
G01X377750Y187000D02*
G03X377750I-3250J0D01*
G01X384250Y194500D02*
G03X384250I-3250J0D01*
G01X390250Y304500D02*
G03X390250I-3250J0D01*
G01X377750Y233000D02*
G03X377750I-3250J0D01*
G01X368750Y182500D02*
G03X368750I-3250J0D01*
G01X352000Y114500D02*
G03X352000I-8000J0D01*
G01X357750Y327500D02*
G03X357750I-3250J0D01*
G01X342750Y242500D02*
G03X342750I-3250J0D01*
G01X318750Y113000D02*
G03X318750I-3250J0D01*
G01X324750Y117500D02*
G03X324750I-3250J0D01*
G01X327000Y132500D02*
G03X327000I-4500J0D01*
G01X311750Y175500D02*
G03X311750I-3250J0D01*
G01X325500Y215646D02*
G03Y222354I3000J3354D01*
G01Y215646D02*
Y194707D01*
X324768Y192939D02*
G03X325500Y194707I-1768J1768D01*
G01X324768Y192939D02*
X322061Y190232D01*
X320293Y189500D02*
G03X322061Y190232I-0J2500D01*
G01X320293Y189500D02*
X306707D01*
X304939Y190232D02*
G03X306707Y189500I1768J1768D01*
G01X304939Y190232D02*
X302232Y192939D01*
X301500Y194707D02*
G03X302232Y192939I2500J0D01*
G01X301500Y194707D02*
Y198172D01*
X299672Y200000*
X297707*
X295939Y200732D02*
G03X297707Y200000I1768J1768D01*
G01X295939Y200732D02*
X295213Y201458D01*
X292500Y208388D02*
G03X295213Y201458I-1000J-4388D01*
G01X292500Y208388D02*
Y215480D01*
X292100Y216500D02*
G03X292500Y215480I1500J0D01*
G01X292100Y216500D02*
Y219500D01*
X292500Y220520D02*
G03X292100Y219500I1100J-1020D01*
G01X292500Y220520D02*
Y226172D01*
X290672Y228000*
X287207*
X285439Y228732D02*
G03X287207Y228000I1768J1768D01*
G01X285439Y228732D02*
X282732Y231439D01*
X282000Y233207D02*
G03X282732Y231439I2500J0D01*
G01X282000Y233207D02*
Y268793D01*
X282732Y270561D02*
G03X282000Y268793I1768J-1768D01*
G01X282732Y270561D02*
X285439Y273268D01*
X287207Y274000D02*
G03X285439Y273268I0J-2500D01*
G01X287207Y274000D02*
X320293D01*
X322061Y273268D02*
G03X320293Y274000I-1768J-1768D01*
G01X322061Y273268D02*
X324768Y270561D01*
X325500Y268793D02*
G03X324768Y270561I-2500J-0D01*
G01X325500Y268793D02*
Y222354D01*
X296000Y308500D02*
G03X296000I-4500J0D01*
G01X271000Y114500D02*
G03X271000I-8000J0D01*
G01X267869Y201341D02*
G03Y206659I3631J2659D01*
Y201341I-1869J-2659*
G01X279000Y234000D02*
G03X279000I-4500J0D01*
G01X282750Y366000D02*
G03X282750I-3250J0D01*
G01X261750Y207500D02*
G03X261750I-3250J0D01*
G01X266250Y353500D02*
G03X266250I-3250J0D01*
G01X377500Y419793D02*
Y384707D01*
X376768Y382939D02*
G03X377500Y384707I-1768J1768D01*
G01X376768Y382939D02*
X374061Y380232D01*
X372293Y379500D02*
G03X374061Y380232I-0J2500D01*
G01X372293Y379500D02*
X258707D01*
X256939Y380232D02*
G03X258707Y379500I1768J1768D01*
G01X256939Y380232D02*
X254232Y382939D01*
X253500Y384707D02*
G03X254232Y382939I2500J0D01*
G01X253500Y384707D02*
Y412617D01*
X249492Y413432D02*
G03X253500Y412617I2508J2068D01*
G01X245423Y418500D02*
G03X249492Y413432I2077J-2500D01*
G01X246250Y424000D02*
G03X245423Y418500I1250J-3000D01*
G01Y429500D02*
G03X246250Y424000I2077J-2500D01*
G01X249750Y434345D02*
G03X245423Y429500I-2250J-2345D01*
G01X249750Y429655D02*
G03Y434345I2250J2345D01*
G01X249577Y429500D02*
G03X249750Y429655I-2077J2500D01*
G01X248750Y424000D02*
G03X249577Y429500I-1250J3000D01*
G01Y418500D02*
G03X248750Y424000I-2077J2500D01*
G01X250008Y418068D02*
G03X249577Y418500I-2508J-2068D01*
G01X253500Y418383D02*
G03X250008Y418068I-1500J-2883D01*
G01X253500Y418383D02*
Y419750D01*
X256897Y424226D02*
G03X253500Y419750I-397J-3226D01*
G01X256897Y424226D02*
X256939Y424268D01*
X258707Y425000D02*
G03X256939Y424268I0J-2500D01*
G01X258707Y425000D02*
X299250D01*
X301750D02*
G03X299250I-1250J-3000D01*
G01X301750D02*
X312980D01*
X314000Y425400D02*
G03X312980Y425000I0J-1500D01*
G01X314000Y425400D02*
X317000D01*
X318020Y425000D02*
G03X317000Y425400I-1020J-1100D01*
G01X318020Y425000D02*
X372293D01*
X374061Y424268D02*
G03X372293Y425000I-1768J-1768D01*
G01X374061Y424268D02*
X376768Y421561D01*
X377500Y419793D02*
G03X376768Y421561I-2500J-0D01*
G01X375750Y429000D02*
G03X375750I-3250J0D01*
G01X378500Y435423D02*
G03Y439577I2500J2077D01*
G01X373500Y435423D02*
G03X378500I2500J2077D01*
G01X373500Y439577D02*
G03Y435423I-2500J-2077D01*
G01X378500Y439577D02*
G03X373500I-2500J-2077D01*
G01X390500Y504000D02*
G03X390500I-4500J0D01*
G01X374250Y446500D02*
G03X374250I-3250J0D01*
G01X363250Y443000D02*
G03X363250I-3250J0D01*
G01X372000Y522000D02*
G03X372000I-8000J0D01*
G01X348000Y444923D02*
G03Y449077I2500J2077D01*
G01X347845Y444750D02*
G03X348000Y444923I-2345J2250D01*
G01X347845Y440250D02*
G03Y444750I-2345J2250D01*
G01X343155Y440250D02*
G03X347845I2345J-2250D01*
G01X343155Y444750D02*
G03Y440250I2345J-2250D01*
G01X342750Y445268D02*
G03X343155Y444750I2750J1732D01*
G01X342750Y448732D02*
G03Y445268I-2750J-1732D01*
G01X348000Y449077D02*
G03X342750Y448732I-2500J-2077D01*
G01X334577Y442000D02*
G03X330423I-2077J2500D01*
G01X332212Y436263D02*
G03X334577Y442000I288J3237D01*
G01X330788Y436737D02*
G03X332212Y436263I-288J-3237D01*
G01X330423Y442000D02*
G03X330788Y436737I2077J-2500D01*
G01X328250Y523000D02*
G03X328250I-3250J0D01*
G01X316250Y522500D02*
G03X316250I-3250J0D01*
G01X297750Y429000D02*
G03X297750I-3250J0D01*
G01X303750Y433500D02*
G03X303750I-3250J0D01*
G01X298500Y437923D02*
G03Y442077I2500J2077D01*
G01X293655Y442250D02*
G03X298500Y437923I2345J-2250D01*
G01X298345Y442250D02*
G03X293655I-2345J2250D01*
G01X298500Y442077D02*
G03X298345Y442250I-2500J-2077D01*
G01X309000Y504000D02*
G03X309000I-4500J0D01*
G01X271250Y434000D02*
G03X271250I-3250J0D01*
G01X286500Y445250D02*
G03Y447750I3000J1250D01*
G01X280398Y445529D02*
G03X286500Y445250I3102J971D01*
G01X275047Y444868D02*
G03X280398Y445529I2453J2132D01*
G01X274077Y443500D02*
G03X275047Y444868I-2077J2500D01*
G01X269923Y443500D02*
G03X274077I2077J-2500D01*
G01X274453Y448132D02*
G03X269923Y443500I-2453J-2132D01*
G01X280602Y447971D02*
G03X274453Y448132I-3102J-971D01*
G01X286500Y447750D02*
G03X280602Y447971I-3000J-1250D01*
G01X275077Y456500D02*
G03X270250Y460732I-2077J2500D01*
G01Y452268D02*
G03X275077Y456500I2750J1732D01*
G01X264750Y452268D02*
G03X270250I2750J1732D01*
G01X259923Y456500D02*
G03X264750Y452268I2077J-2500D01*
G01Y460732D02*
G03X259923Y456500I-2750J-1732D01*
G01X270250Y460732D02*
G03X264750I-2750J-1732D01*
G01X291000Y522000D02*
G03X291000I-8000J0D01*
G01X209750Y144768D02*
G03Y148232I2750J1732D01*
G01X204000Y145250D02*
G03X209750Y144768I3000J1250D01*
G01X198000Y145250D02*
G03X204000I3000J1250D01*
G01X198000Y147750D02*
G03Y145250I-3000J-1250D01*
G01X202085Y149564D02*
G03X198000Y147750I-1085J-3064D01*
G01X203268Y153750D02*
G03X202085Y149564I1732J-2750D01*
G01X206732Y153750D02*
G03X203268I-1732J2750D01*
G01X207939Y149612D02*
G03X206732Y153750I-2939J1388D01*
G01X209750Y148232D02*
G03X207939Y149612I-2750J-1732D01*
G01X219750Y181500D02*
G03X219750I-3250J0D01*
G01X224415Y288436D02*
G03X222585Y290064I1085J3064D01*
X224415Y288436I-1085J-3064*
G01X235250Y352000D02*
G03X235250I-3250J0D01*
G01X240750Y443500D02*
G03X236595Y447957I-1250J3000D01*
G01X240750Y437500D02*
G03Y443500I-1250J3000D01*
G01Y431500D02*
G03Y437500I-1250J3000D01*
G01X237000Y426423D02*
G03X240750Y431500I2500J2077D01*
G01X232000Y426423D02*
G03X237000I2500J2077D01*
G01X232000Y430577D02*
G03Y426423I-2500J-2077D01*
G01X233250Y431500D02*
G03X232000Y430577I1250J-3000D01*
G01X233250Y437500D02*
G03Y431500I1250J-3000D01*
G01X232543Y443095D02*
G03X233250Y437500I1957J-2595D01*
G01X236595Y447957D02*
G03X232543Y443095I-2595J-1957D01*
G01X245750Y522000D02*
G03X245750I-3250J0D01*
G01X215750Y218000D02*
G03X215750I-3250J0D01*
G01X216750Y268000D02*
G03X216750I-3250J0D01*
G01X223250Y329500D02*
G03X223250I-3250J0D01*
G01X209750Y243000D02*
G03X209750I-3250J0D01*
G01X198250Y158500D02*
G03X198250I-3250J0D01*
G01X200750Y181000D02*
G03X200750I-3250J0D01*
G01X190500Y114500D02*
G03X190500I-8000J0D01*
G01X194750Y188768D02*
G03Y192232I2750J1732D01*
Y188768I-2750J-1732*
G01X195750Y202000D02*
G03X195750I-3250J0D01*
G01X201750Y207500D02*
G03X201750I-3250J0D01*
G01X189750D02*
G03X189750I-3250J0D01*
G01X195750Y213000D02*
G03X195750I-3250J0D01*
G01X194750Y290500D02*
G03X194750I-3250J0D01*
G01X164500Y132000D02*
G03X164500I-4500J0D01*
G01X165250Y177000D02*
G03X165250I-3250J0D01*
G01X171250Y234500D02*
G03X171250I-3250J0D01*
G01X177750Y262500D02*
G03X177750I-3250J0D01*
G01X181750Y270500D02*
G03X181750I-3250J0D01*
G01X184750Y290500D02*
G03X184750I-3250J0D01*
G01X198345Y303750D02*
G03X193750Y308345I-2345J2250D01*
G01Y299155D02*
G03X198345Y303750I2250J2345D01*
G01X189500Y298938D02*
G03X193750Y299155I2000J2562D01*
G01X184938Y303500D02*
G03X189500Y298938I2562J-2000D01*
G01X189184Y308280D02*
G03X184938Y303500I-1684J-2780D01*
G01X191488Y309250D02*
G03X189184Y308280I12J-3250D01*
G01X190250Y315500D02*
G03X191488Y309250I1250J-3000D01*
G01X192750Y315500D02*
G03X190250I-1250J3000D01*
G01X191512Y309250D02*
G03X192750Y315500I-12J3250D01*
G01X193750Y308345D02*
G03X191512Y309250I-2250J-2345D01*
G01X200500Y327500D02*
G03X200500I-4500J0D01*
G01X183750Y341500D02*
G03X183750I-3250J0D01*
G01X172750Y290000D02*
G03X172750I-3250J0D01*
G01X222500Y442793D02*
Y350707D01*
X221768Y348939D02*
G03X222500Y350707I-1768J1768D01*
G01X221768Y348939D02*
X219061Y346232D01*
X217293Y345500D02*
G03X219061Y346232I-0J2500D01*
G01X217293Y345500D02*
X176207D01*
X174439Y346232D02*
G03X176207Y345500I1768J1768D01*
G01X174439Y346232D02*
X171732Y348939D01*
X171000Y350707D02*
G03X171732Y348939I2500J0D01*
G01X171000Y350707D02*
Y422980D01*
X170600Y424000D02*
G03X171000Y422980I1500J0D01*
G01X170600Y424000D02*
Y427000D01*
X171000Y428020D02*
G03X170600Y427000I1100J-1020D01*
G01X171000Y428020D02*
Y431028D01*
Y439972D02*
G03Y431028I500J-4472D01*
G01Y439972D02*
Y443793D01*
X171732Y445561D02*
G03X171000Y443793I1768J-1768D01*
G01X171732Y445561D02*
X173439Y447268D01*
X175207Y448000D02*
G03X173439Y447268I0J-2500D01*
G01X175207Y448000D02*
X217293D01*
X219061Y447268D02*
G03X217293Y448000I-1768J-1768D01*
G01X219061Y447268D02*
X221768Y444561D01*
X222500Y442793D02*
G03X221768Y444561I-2500J-0D01*
G01X230500Y504000D02*
G03X230500I-4500J0D01*
G01X234750Y522500D02*
G03X234750I-3250J0D01*
G01X210000Y522000D02*
G03X210000I-8000J0D01*
G01X153250Y239000D02*
G03X153250I-3250J0D01*
G01X152750Y245500D02*
G03X152750I-3250J0D01*
G01X153250Y256000D02*
G03X153250I-3250J0D01*
G01X156500Y326000D02*
G03X156500I-4500J0D01*
G01X162750Y404500D02*
G03X162750I-3250J0D01*
G01X137250Y151500D02*
G03X137250I-3250J0D01*
G01X134250Y161500D02*
G03X134250I-3250J0D01*
G01X124900Y117500D02*
G03X124900I-7400J0D01*
G01X128500Y180000D02*
G03X128500I-4500J0D01*
G01X134250Y191500D02*
G03X134250I-3250J0D01*
G01X135250Y201500D02*
G03X135250I-3250J0D01*
G01X116750Y215500D02*
G03X116750I-3250J0D01*
G01X117250Y275500D02*
G03X117250I-3250J0D01*
G01X122500Y323500D02*
G03X122500I-8000J0D01*
G01X124900Y519500D02*
G03X124900I-7400J0D01*
G01X169000Y385000D02*
G03X169000I-4500J0D01*
G01X244500Y132500D02*
G03X244500I-4500J0D01*
G01X245750Y225500D02*
G03X245750I-3250J0D01*
G01X444750Y363000D02*
G03X444750I-3250J0D01*
G01Y381500D02*
G03X444750I-3250J0D01*
G01X301472Y418899D02*
X375000D01*
X275253Y417999D02*
X375000D01*
X315480Y417099D02*
X375000D01*
X316893Y416199D02*
X375000D01*
X317479Y415299D02*
X375000D01*
X317725Y414399D02*
X375000D01*
X317711Y413499D02*
X375000D01*
X317432Y412599D02*
X375000D01*
X316795Y411699D02*
X375000D01*
X315061Y410799D02*
X375000D01*
X256000Y409899D02*
X375000D01*
X256000Y408999D02*
X375000D01*
X256000Y408099D02*
X375000D01*
X256000Y407199D02*
X375000D01*
X256000Y406299D02*
X375000D01*
X256000Y405399D02*
X375000D01*
X256000Y404499D02*
X375000D01*
X328980Y403599D02*
X375000D01*
X330393Y402699D02*
X375000D01*
X330979Y401799D02*
X375000D01*
X331225Y400899D02*
X375000D01*
X331211Y399999D02*
X375000D01*
X330932Y399099D02*
X375000D01*
X330295Y398199D02*
X375000D01*
X328561Y397299D02*
X375000D01*
X256000Y396399D02*
X375000D01*
X256000Y395499D02*
X375000D01*
X256000Y394599D02*
X375000D01*
X256000Y393699D02*
X375000D01*
X256000Y392799D02*
X375000D01*
X256000Y391899D02*
X375000D01*
X256000Y390999D02*
X375000D01*
X256000Y390099D02*
X375000D01*
X256000Y389199D02*
X375000D01*
X256000Y388299D02*
X375000D01*
X256000Y387399D02*
X375000D01*
X256000Y386499D02*
X375000D01*
X256000Y385599D02*
X375000D01*
X302891Y419799D02*
X374994D01*
X256008Y384699D02*
X374992D01*
X303478Y420699D02*
X374094D01*
X256908Y383799D02*
X374092D01*
X303725Y421599D02*
X373194D01*
X257808Y382899D02*
X373192D01*
X318018Y422499D02*
X372294D01*
X284561Y397299D02*
X327439D01*
X284980Y403599D02*
X327020D01*
X286295Y398199D02*
X325705D01*
X286393Y402699D02*
X325607D01*
X286932Y399099D02*
X325068D01*
X286979Y401799D02*
X325021D01*
X287211Y399999D02*
X324789D01*
X287225Y400899D02*
X324775D01*
X256000Y410799D02*
X313939D01*
X276482Y417099D02*
X313520D01*
X303712Y422499D02*
X312982D01*
X256000Y411699D02*
X312205D01*
X277021Y416199D02*
X312107D01*
X276190Y412599D02*
X311568D01*
X277236Y415299D02*
X311521D01*
X276882Y413499D02*
X311289D01*
X277194Y414399D02*
X311275D01*
X258979Y418899D02*
X299528D01*
X259520Y419799D02*
X298109D01*
X259736Y420699D02*
X297522D01*
X259384Y422499D02*
X297288D01*
X259694Y421599D02*
X297275D01*
X256000Y397299D02*
X283439D01*
X256000Y403599D02*
X283020D01*
X256000Y398199D02*
X281705D01*
X256000Y402699D02*
X281607D01*
X256000Y399099D02*
X281068D01*
X256000Y401799D02*
X281021D01*
X256000Y399999D02*
X280789D01*
X256000Y400899D02*
X280775D01*
X259063Y417999D02*
X272747D01*
X256000Y412599D02*
X271810D01*
X259559Y417099D02*
X271518D01*
X258575Y413499D02*
X271118D01*
X259744Y416199D02*
X270979D01*
X259328Y414399D02*
X270806D01*
X259673Y415299D02*
X270764D01*
X284500Y268499D02*
X323000D01*
X284500Y267599D02*
X323000D01*
X284500Y266699D02*
X323000D01*
X284500Y265799D02*
X323000D01*
X284500Y264899D02*
X323000D01*
X284500Y263999D02*
X323000D01*
X284500Y263099D02*
X323000D01*
X284500Y262199D02*
X323000D01*
X284500Y261299D02*
X323000D01*
X284500Y260399D02*
X323000D01*
X284500Y259499D02*
X323000D01*
X284500Y258599D02*
X323000D01*
X284500Y257699D02*
X323000D01*
X284500Y256799D02*
X323000D01*
X284500Y255899D02*
X323000D01*
X284500Y254999D02*
X323000D01*
X284500Y254099D02*
X323000D01*
X284500Y253199D02*
X323000D01*
X305152Y252299D02*
X323000D01*
X306138Y251399D02*
X323000D01*
X306593Y250499D02*
X323000D01*
X306749Y249599D02*
X323000D01*
X306650Y248699D02*
X323000D01*
X306269Y247799D02*
X323000D01*
X305448Y246899D02*
X323000D01*
X284500Y245999D02*
X323000D01*
X284500Y245099D02*
X323000D01*
X284500Y244199D02*
X323000D01*
X284500Y243299D02*
X323000D01*
X284500Y242399D02*
X323000D01*
X284500Y241499D02*
X323000D01*
X284500Y240599D02*
X323000D01*
X284500Y239699D02*
X323000D01*
X284500Y238799D02*
X323000D01*
X284500Y237899D02*
X323000D01*
X284500Y236999D02*
X323000D01*
X284500Y236099D02*
X323000D01*
X284500Y235199D02*
X323000D01*
X284500Y234299D02*
X323000D01*
X284500Y233399D02*
X323000D01*
X285208Y232499D02*
X323000D01*
X286108Y231599D02*
X323000D01*
X287008Y230699D02*
X323000D01*
X292408Y229799D02*
X323000D01*
X293308Y228899D02*
X323000D01*
X294208Y227999D02*
X323000D01*
X295000Y227099D02*
X323000D01*
X295000Y226199D02*
X323000D01*
X295000Y225299D02*
X323000D01*
X295000Y224399D02*
X323000D01*
X295000Y223499D02*
X323000D01*
X295000Y222599D02*
X323000D01*
X295000Y221699D02*
X323000D01*
X295000Y220799D02*
X323000D01*
X295346Y219899D02*
X323000D01*
X295400Y218999D02*
X323000D01*
X295400Y218099D02*
X323000D01*
X295400Y217199D02*
X323000D01*
X295386Y216299D02*
X323000D01*
X295000Y215399D02*
X323000D01*
X295000Y214499D02*
X323000D01*
X295000Y213599D02*
X323000D01*
X295000Y212699D02*
X323000D01*
X295000Y211799D02*
X323000D01*
X295000Y210899D02*
X323000D01*
X295000Y209999D02*
X323000D01*
X295000Y209099D02*
X323000D01*
X295000Y208199D02*
X323000D01*
X295000Y207299D02*
X323000D01*
X295307Y206399D02*
X323000D01*
X295743Y205499D02*
X323000D01*
X295960Y204599D02*
X323000D01*
X296508Y203699D02*
X323000D01*
X297408Y202799D02*
X323000D01*
X301308Y201899D02*
X323000D01*
X302208Y200999D02*
X323000D01*
X303108Y200099D02*
X323000D01*
X304000Y199199D02*
X323000D01*
X304000Y198299D02*
X323000D01*
X304000Y197399D02*
X323000D01*
X304000Y196499D02*
X323000D01*
X304000Y195599D02*
X323000D01*
X304008Y194699D02*
X322992D01*
X285106Y269399D02*
X322394D01*
X304908Y193799D02*
X322092D01*
X286006Y270299D02*
X321494D01*
X305808Y192899D02*
X321192D01*
X286906Y271199D02*
X320594D01*
X284500Y252299D02*
X301848D01*
X284500Y246899D02*
X301552D01*
X284500Y251399D02*
X300862D01*
X284500Y247799D02*
X300731D01*
X284500Y250499D02*
X300407D01*
X284500Y248699D02*
X300350D01*
X284500Y249599D02*
X300251D01*
X196575Y442499D02*
X220000D01*
X173500Y441599D02*
X220000D01*
X173500Y440699D02*
X220000D01*
X173500Y439799D02*
X220000D01*
X174449Y438899D02*
X220000D01*
X175243Y437999D02*
X220000D01*
X175706Y437099D02*
X220000D01*
X175945Y436199D02*
X220000D01*
X175996Y435299D02*
X220000D01*
X175863Y434399D02*
X220000D01*
X192253Y433499D02*
X220000D01*
X193482Y432599D02*
X220000D01*
X194021Y431699D02*
X220000D01*
X194236Y430799D02*
X220000D01*
X194194Y429899D02*
X220000D01*
X193882Y428999D02*
X220000D01*
X193190Y428099D02*
X220000D01*
X173887Y427199D02*
X220000D01*
X173900Y426299D02*
X220000D01*
X173900Y425399D02*
X220000D01*
X173900Y424499D02*
X220000D01*
X215452Y423599D02*
X220000D01*
X216271Y422699D02*
X220000D01*
X216650Y421799D02*
X220000D01*
X216748Y420899D02*
X220000D01*
X216592Y419999D02*
X220000D01*
X216136Y419099D02*
X220000D01*
X215148Y418199D02*
X220000D01*
X177807Y417299D02*
X220000D01*
X173500Y416399D02*
X220000D01*
X173500Y415499D02*
X220000D01*
X173500Y414599D02*
X220000D01*
X173500Y413699D02*
X220000D01*
X173500Y412799D02*
X220000D01*
X173500Y411899D02*
X220000D01*
X173500Y410999D02*
X220000D01*
X173500Y410099D02*
X220000D01*
X173500Y409199D02*
X220000D01*
X173500Y408299D02*
X220000D01*
X173500Y407399D02*
X220000D01*
X173500Y406499D02*
X220000D01*
X173500Y405599D02*
X220000D01*
X173500Y404699D02*
X220000D01*
X173500Y403799D02*
X220000D01*
X173500Y402899D02*
X220000D01*
X173500Y401999D02*
X220000D01*
X173500Y401099D02*
X220000D01*
X173500Y400199D02*
X220000D01*
X173500Y399299D02*
X220000D01*
X173500Y398399D02*
X220000D01*
X173500Y397499D02*
X220000D01*
X173500Y396599D02*
X220000D01*
X173500Y395699D02*
X220000D01*
X173500Y394799D02*
X220000D01*
X173500Y393899D02*
X220000D01*
X173500Y392999D02*
X220000D01*
X192952Y392099D02*
X220000D01*
X193771Y391199D02*
X220000D01*
X194150Y390299D02*
X220000D01*
X194248Y389399D02*
X220000D01*
X194092Y388499D02*
X220000D01*
X193636Y387599D02*
X220000D01*
X192648Y386699D02*
X220000D01*
X185429Y385799D02*
X220000D01*
X185499Y384899D02*
X220000D01*
X185387Y383999D02*
X220000D01*
X185079Y383099D02*
X220000D01*
X184522Y382199D02*
X220000D01*
X183559Y381299D02*
X220000D01*
X173500Y380399D02*
X220000D01*
X173500Y379499D02*
X220000D01*
X173500Y378599D02*
X220000D01*
X173500Y377699D02*
X220000D01*
X173500Y376799D02*
X220000D01*
X173500Y375899D02*
X220000D01*
X173500Y374999D02*
X220000D01*
X173500Y374099D02*
X220000D01*
X173500Y373199D02*
X220000D01*
X173500Y372299D02*
X220000D01*
X173500Y371399D02*
X220000D01*
X173500Y370499D02*
X220000D01*
X173500Y369599D02*
X220000D01*
X173500Y368699D02*
X220000D01*
X173500Y367799D02*
X220000D01*
X173500Y366899D02*
X220000D01*
X173500Y365999D02*
X220000D01*
X173500Y365099D02*
X220000D01*
X173500Y364199D02*
X220000D01*
X173500Y363299D02*
X220000D01*
X173500Y362399D02*
X220000D01*
X173500Y361499D02*
X220000D01*
X173500Y360599D02*
X220000D01*
X173500Y359699D02*
X220000D01*
X173500Y358799D02*
X220000D01*
X173500Y357899D02*
X220000D01*
X173500Y356999D02*
X220000D01*
X173500Y356099D02*
X220000D01*
X173500Y355199D02*
X220000D01*
X173500Y354299D02*
X220000D01*
X173500Y353399D02*
X220000D01*
X173500Y352499D02*
X220000D01*
X173500Y351599D02*
X220000D01*
X173508Y350699D02*
X219992D01*
X197328Y443399D02*
X219394D01*
X174408Y349799D02*
X219092D01*
X197673Y444299D02*
X218494D01*
X175308Y348899D02*
X218192D01*
X197744Y445199D02*
X217594D01*
X178705Y418199D02*
X211852D01*
X173845Y423599D02*
X211548D01*
X179123Y419099D02*
X210864D01*
X177811Y422699D02*
X210729D01*
X179250Y419999D02*
X210408D01*
X178707Y421799D02*
X210350D01*
X179123Y420899D02*
X210252D01*
X191075Y442499D02*
X192425D01*
X175531Y433499D02*
X189747D01*
X185167Y386699D02*
X189352D01*
X173500Y392099D02*
X189048D01*
X173500Y428099D02*
X188810D01*
X174940Y432599D02*
X188518D01*
X184674Y387599D02*
X188364D01*
X173500Y391199D02*
X188229D01*
X173500Y428999D02*
X188118D01*
X173908Y431699D02*
X187979D01*
X183830Y388499D02*
X187908D01*
X173500Y390299D02*
X187850D01*
X173500Y429899D02*
X187806D01*
X173500Y430799D02*
X187764D01*
X181950Y389399D02*
X187752D01*
X173500Y442499D02*
X186925D01*
X173500Y443399D02*
X186172D01*
X174006Y444299D02*
X185827D01*
X174906Y445199D02*
X185756D01*
X173500Y389399D02*
X180050D01*
X173500Y381299D02*
X178441D01*
X173500Y388499D02*
X178170D01*
X173500Y382199D02*
X177478D01*
X173500Y387599D02*
X177326D01*
X173500Y383099D02*
X176921D01*
X173500Y386699D02*
X176833D01*
X173500Y383999D02*
X176613D01*
X173500Y385799D02*
X176571D01*
X173500Y384899D02*
X176501D01*
X173500Y417299D02*
X174193D01*
X173500Y422699D02*
X174189D01*
X104500Y531099D02*
X659500D01*
X104500Y530199D02*
X659500D01*
X610276Y529299D02*
X659500D01*
X611802Y528399D02*
X659500D01*
X612811Y527499D02*
X659500D01*
X649090Y526599D02*
X659500D01*
X651042Y525699D02*
X659500D01*
X652166Y524799D02*
X659500D01*
X652951Y523899D02*
X659500D01*
X653521Y522999D02*
X659500D01*
X653929Y522099D02*
X659500D01*
X654202Y521199D02*
X659500D01*
X654357Y520299D02*
X659500D01*
X654399Y519399D02*
X659500D01*
X654332Y518499D02*
X659500D01*
X654152Y517599D02*
X659500D01*
X653849Y516699D02*
X659500D01*
X653408Y515799D02*
X659500D01*
X652796Y514899D02*
X659500D01*
X651949Y513999D02*
X659500D01*
X650713Y513099D02*
X659500D01*
X648205Y512199D02*
X659500D01*
X400307Y511299D02*
X659500D01*
X104500Y510399D02*
X659500D01*
X104500Y509499D02*
X659500D01*
X104500Y508599D02*
X659500D01*
X631563Y507699D02*
X659500D01*
X632524Y506799D02*
X659500D01*
X633080Y505899D02*
X659500D01*
X633388Y504999D02*
X659500D01*
X633499Y504099D02*
X659500D01*
X633428Y503199D02*
X659500D01*
X633166Y502299D02*
X659500D01*
X632672Y501399D02*
X659500D01*
X631827Y500499D02*
X659500D01*
X629937Y499599D02*
X659500D01*
X104500Y498699D02*
X659500D01*
X104500Y497799D02*
X659500D01*
X104500Y496899D02*
X659500D01*
X104500Y495999D02*
X659500D01*
X104500Y495099D02*
X659500D01*
X104500Y494199D02*
X659500D01*
X104500Y493299D02*
X659500D01*
X104500Y492399D02*
X659500D01*
X558064Y491499D02*
X659500D01*
X559263Y490599D02*
X659500D01*
X559926Y489699D02*
X659500D01*
X560309Y488799D02*
X659500D01*
X560482Y487899D02*
X659500D01*
X560472Y486999D02*
X659500D01*
X560276Y486099D02*
X659500D01*
X612311Y485199D02*
X659500D01*
X613207Y484299D02*
X659500D01*
X613623Y483399D02*
X659500D01*
X613750Y482499D02*
X659500D01*
X613623Y481599D02*
X659500D01*
X613205Y480699D02*
X659500D01*
X612307Y479799D02*
X659500D01*
X104500Y478899D02*
X659500D01*
X104500Y477999D02*
X659500D01*
X104500Y477099D02*
X659500D01*
X104500Y476199D02*
X659500D01*
X104500Y475299D02*
X659500D01*
X104500Y474399D02*
X659500D01*
X104500Y473499D02*
X659500D01*
X104500Y472599D02*
X659500D01*
X104500Y471699D02*
X659500D01*
X104500Y470799D02*
X659500D01*
X104500Y469899D02*
X659500D01*
X104500Y468999D02*
X659500D01*
X104500Y468099D02*
X659500D01*
X104500Y467199D02*
X659500D01*
X104500Y466299D02*
X659500D01*
X469193Y465399D02*
X659500D01*
X469884Y464499D02*
X659500D01*
X470194Y463599D02*
X659500D01*
X470236Y462699D02*
X659500D01*
X607652Y461799D02*
X659500D01*
X608638Y460899D02*
X659500D01*
X609093Y459999D02*
X659500D01*
X609249Y459099D02*
X659500D01*
X609150Y458199D02*
X659500D01*
X608769Y457299D02*
X659500D01*
X607948Y456399D02*
X659500D01*
X275884Y455499D02*
X659500D01*
X556452Y454599D02*
X659500D01*
X557271Y453699D02*
X659500D01*
X557650Y452799D02*
X659500D01*
X557748Y451899D02*
X659500D01*
X557592Y450999D02*
X659500D01*
X557136Y450099D02*
X659500D01*
X556148Y449199D02*
X659500D01*
X504207Y448299D02*
X659500D01*
X589193Y447399D02*
X659500D01*
X589884Y446499D02*
X659500D01*
X590194Y445599D02*
X659500D01*
X590236Y444699D02*
X659500D01*
X590020Y443799D02*
X659500D01*
X589479Y442899D02*
X659500D01*
X589563Y441999D02*
X659500D01*
X590059Y441099D02*
X659500D01*
X590244Y440199D02*
X659500D01*
X590173Y439299D02*
X659500D01*
X589828Y438399D02*
X659500D01*
X589075Y437499D02*
X659500D01*
X453136Y436599D02*
X659500D01*
X452148Y435699D02*
X659500D01*
X382807Y434799D02*
X659500D01*
X333725Y433899D02*
X659500D01*
X333711Y432999D02*
X659500D01*
X373480Y432099D02*
X659500D01*
X374893Y431199D02*
X659500D01*
X624652Y430299D02*
X659500D01*
X625638Y429399D02*
X659500D01*
X626093Y428499D02*
X659500D01*
X626249Y427599D02*
X659500D01*
X626150Y426699D02*
X659500D01*
X625769Y425799D02*
X659500D01*
X658745Y417699D02*
X659500D01*
X625769Y416799D02*
X659500D01*
X624948Y415899D02*
X659500D01*
X659439Y414999D02*
X659500D01*
X659017Y407799D02*
X659500D01*
X421194Y406899D02*
X659500D01*
X490753Y405999D02*
X659500D01*
X491982Y405099D02*
X659500D01*
X506075Y404199D02*
X659500D01*
X507798Y403299D02*
X659500D01*
X508434Y402399D02*
X659500D01*
X508712Y401499D02*
X659500D01*
X508725Y400599D02*
X659500D01*
X508478Y399699D02*
X659500D01*
X507891Y398799D02*
X659500D01*
X506472Y397899D02*
X659500D01*
X512578Y396999D02*
X659500D01*
X513330Y396099D02*
X659500D01*
X513674Y395199D02*
X659500D01*
X513744Y394299D02*
X659500D01*
X513558Y393399D02*
X659500D01*
X513061Y392499D02*
X659500D01*
X511965Y391599D02*
X659500D01*
X492174Y390699D02*
X659500D01*
X492244Y389799D02*
X659500D01*
X658450Y388899D02*
X659500D01*
X491470Y379899D02*
X659500D01*
X657610Y378999D02*
X659500D01*
X222500Y369999D02*
X659500D01*
X477452Y369099D02*
X659500D01*
X658437Y360099D02*
X659500D01*
X469736Y359199D02*
X659500D01*
X658822Y350199D02*
X659500D01*
X461798Y349299D02*
X659500D01*
X659112Y340299D02*
X659500D01*
X530123Y339399D02*
X659500D01*
X530250Y338499D02*
X659500D01*
X530123Y337599D02*
X659500D01*
X529705Y336699D02*
X659500D01*
X528807Y335799D02*
X659500D01*
X104500Y334899D02*
X659500D01*
X104500Y333999D02*
X659500D01*
X104500Y333099D02*
X659500D01*
X221811Y332199D02*
X659500D01*
X222707Y331299D02*
X659500D01*
X355970Y330399D02*
X659500D01*
X500253Y329499D02*
X659500D01*
X501482Y328599D02*
X659500D01*
X502021Y327699D02*
X659500D01*
X502236Y326799D02*
X659500D01*
X502194Y325899D02*
X659500D01*
X501882Y324999D02*
X659500D01*
X527980Y324099D02*
X659500D01*
X529393Y323199D02*
X659500D01*
X529979Y322299D02*
X659500D01*
X530225Y321399D02*
X659500D01*
X537578Y320499D02*
X659500D01*
X538330Y319599D02*
X659500D01*
X538674Y318699D02*
X659500D01*
X538744Y317799D02*
X659500D01*
X538558Y316899D02*
X659500D01*
X538061Y315999D02*
X659500D01*
X536965Y315099D02*
X659500D01*
X533295Y314199D02*
X659500D01*
X531561Y313299D02*
X659500D01*
X293747Y312399D02*
X659500D01*
X294855Y311499D02*
X659500D01*
X462480Y310599D02*
X659500D01*
X463893Y309699D02*
X659500D01*
X464479Y308799D02*
X659500D01*
X464725Y307899D02*
X659500D01*
X464711Y306999D02*
X659500D01*
X464432Y306099D02*
X659500D01*
X463795Y305199D02*
X659500D01*
X462061Y304299D02*
X659500D01*
X390058Y303399D02*
X659500D01*
X389561Y302499D02*
X659500D01*
X388465Y301599D02*
X659500D01*
X415575Y300699D02*
X659500D01*
X417298Y299799D02*
X659500D01*
X417934Y298899D02*
X659500D01*
X418212Y297999D02*
X659500D01*
X418225Y297099D02*
X659500D01*
X417978Y296199D02*
X659500D01*
X417391Y295299D02*
X659500D01*
X415972Y294399D02*
X659500D01*
X579253Y293499D02*
X659500D01*
X580482Y292599D02*
X659500D01*
X581021Y291699D02*
X659500D01*
X581236Y290799D02*
X659500D01*
X581194Y289899D02*
X659500D01*
X580882Y288999D02*
X659500D01*
X580190Y288099D02*
X659500D01*
X224744Y287199D02*
X659500D01*
X224673Y286299D02*
X659500D01*
X224328Y285399D02*
X659500D01*
X223575Y284499D02*
X659500D01*
X104500Y283599D02*
X659500D01*
X104500Y282699D02*
X659500D01*
X104500Y281799D02*
X659500D01*
X104500Y280899D02*
X659500D01*
X104500Y279999D02*
X659500D01*
X551480Y279099D02*
X659500D01*
X552893Y278199D02*
X659500D01*
X553479Y277299D02*
X659500D01*
X553725Y276399D02*
X659500D01*
X553711Y275499D02*
X659500D01*
X553432Y274599D02*
X659500D01*
X552795Y273699D02*
X659500D01*
X551061Y272799D02*
X659500D01*
X604747Y271899D02*
X659500D01*
X613253Y270999D02*
X659500D01*
X614482Y270099D02*
X659500D01*
X615021Y269199D02*
X659500D01*
X615236Y268299D02*
X659500D01*
X615194Y267399D02*
X659500D01*
X614882Y266499D02*
X659500D01*
X614190Y265599D02*
X659500D01*
X605558Y264699D02*
X659500D01*
X604112Y263799D02*
X659500D01*
X325500Y262899D02*
X659500D01*
X325500Y261999D02*
X659500D01*
X325500Y261099D02*
X659500D01*
X655311Y260199D02*
X659500D01*
X656207Y259299D02*
X659500D01*
X656623Y258399D02*
X659500D01*
X656750Y257499D02*
X659500D01*
X656623Y256599D02*
X659500D01*
X656205Y255699D02*
X659500D01*
X655307Y254799D02*
X659500D01*
X578705Y253899D02*
X659500D01*
X578241Y252999D02*
X659500D01*
X577446Y252099D02*
X659500D01*
X575822Y251199D02*
X659500D01*
X630152Y250299D02*
X659500D01*
X631138Y249399D02*
X659500D01*
X631593Y248499D02*
X659500D01*
X631749Y247599D02*
X659500D01*
X635311Y246699D02*
X659500D01*
X636207Y245799D02*
X659500D01*
X636623Y244899D02*
X659500D01*
X636750Y243999D02*
X659500D01*
X636623Y243099D02*
X659500D01*
X636205Y242199D02*
X659500D01*
X635307Y241299D02*
X659500D01*
X631694Y240399D02*
X659500D01*
X631382Y239499D02*
X659500D01*
X630690Y238599D02*
X659500D01*
X615167Y237699D02*
X659500D01*
X615429Y236799D02*
X659500D01*
X615499Y235899D02*
X659500D01*
X615387Y234999D02*
X659500D01*
X615079Y234099D02*
X659500D01*
X614522Y233199D02*
X659500D01*
X613559Y232299D02*
X659500D01*
X576472Y231399D02*
X659500D01*
X552711Y230499D02*
X659500D01*
X552432Y229599D02*
X659500D01*
X551795Y228699D02*
X659500D01*
X550061Y227799D02*
X659500D01*
X465248Y226899D02*
X659500D01*
X465092Y225999D02*
X659500D01*
X464636Y225099D02*
X659500D01*
X463811Y224199D02*
X659500D01*
X464707Y223299D02*
X659500D01*
X465123Y222399D02*
X659500D01*
X465250Y221499D02*
X659500D01*
X465123Y220599D02*
X659500D01*
X630575Y219699D02*
X659500D01*
X632298Y218799D02*
X659500D01*
X632934Y217899D02*
X659500D01*
X633212Y216999D02*
X659500D01*
X633225Y216099D02*
X659500D01*
X632978Y215199D02*
X659500D01*
X632391Y214299D02*
X659500D01*
X632638Y213399D02*
X659500D01*
X633093Y212499D02*
X659500D01*
X633249Y211599D02*
X659500D01*
X633150Y210699D02*
X659500D01*
X632769Y209799D02*
X659500D01*
X640693Y208899D02*
X659500D01*
X650253Y207999D02*
X659500D01*
X651482Y207099D02*
X659500D01*
X652021Y206199D02*
X659500D01*
X652236Y205299D02*
X659500D01*
X652194Y204399D02*
X659500D01*
X651882Y203499D02*
X659500D01*
X651190Y202599D02*
X659500D01*
X593295Y201699D02*
X659500D01*
X591561Y200799D02*
X659500D01*
X555138Y199899D02*
X659500D01*
X555593Y198999D02*
X659500D01*
X555749Y198099D02*
X659500D01*
X625811Y197199D02*
X659500D01*
X626707Y196299D02*
X659500D01*
X627123Y195399D02*
X659500D01*
X627250Y194499D02*
X659500D01*
X627123Y193599D02*
X659500D01*
X626705Y192699D02*
X659500D01*
X625807Y191799D02*
X659500D01*
X520672Y190899D02*
X659500D01*
X519827Y189999D02*
X659500D01*
X517937Y189099D02*
X659500D01*
X377521Y188199D02*
X659500D01*
X377736Y187299D02*
X659500D01*
X523193Y186399D02*
X659500D01*
X523884Y185499D02*
X659500D01*
X524194Y184599D02*
X659500D01*
X524236Y183699D02*
X659500D01*
X524020Y182799D02*
X659500D01*
X523479Y181899D02*
X659500D01*
X522247Y180999D02*
X659500D01*
X431980Y180099D02*
X659500D01*
X433393Y179199D02*
X659500D01*
X433979Y178299D02*
X659500D01*
X434225Y177399D02*
X659500D01*
X434211Y176499D02*
X659500D01*
X433932Y175599D02*
X659500D01*
X433295Y174699D02*
X659500D01*
X431561Y173799D02*
X659500D01*
X410058Y172899D02*
X659500D01*
X409561Y171999D02*
X659500D01*
X408465Y171099D02*
X659500D01*
X595575Y170199D02*
X659500D01*
X597298Y169299D02*
X659500D01*
X597934Y168399D02*
X659500D01*
X598212Y167499D02*
X659500D01*
X598225Y166599D02*
X659500D01*
X597978Y165699D02*
X659500D01*
X597391Y164799D02*
X659500D01*
X595972Y163899D02*
X659500D01*
X133884Y162999D02*
X659500D01*
X549452Y162099D02*
X659500D01*
X550271Y161199D02*
X659500D01*
X550650Y160299D02*
X659500D01*
X550748Y159399D02*
X659500D01*
X550592Y158499D02*
X659500D01*
X550136Y157599D02*
X659500D01*
X549148Y156699D02*
X659500D01*
X479807Y155799D02*
X659500D01*
X384694Y154899D02*
X659500D01*
X384382Y153999D02*
X659500D01*
X383690Y153099D02*
X659500D01*
X208021Y152199D02*
X659500D01*
X208236Y151299D02*
X659500D01*
X208194Y150399D02*
X659500D01*
X213753Y149499D02*
X659500D01*
X214982Y148599D02*
X659500D01*
X215521Y147699D02*
X659500D01*
X215736Y146799D02*
X659500D01*
X215694Y145899D02*
X659500D01*
X215382Y144999D02*
X659500D01*
X214690Y144099D02*
X659500D01*
X104500Y143199D02*
X659500D01*
X104500Y142299D02*
X659500D01*
X104500Y141399D02*
X659500D01*
X104500Y140499D02*
X659500D01*
X104500Y139599D02*
X659500D01*
X104500Y138699D02*
X659500D01*
X565831Y137799D02*
X659500D01*
X567449Y136899D02*
X659500D01*
X568243Y135999D02*
X659500D01*
X568706Y135099D02*
X659500D01*
X568945Y134199D02*
X659500D01*
X568996Y133299D02*
X659500D01*
X568863Y132399D02*
X659500D01*
X568531Y131499D02*
X659500D01*
X567940Y130599D02*
X659500D01*
X566908Y129699D02*
X659500D01*
X487559Y128799D02*
X659500D01*
X161852Y127899D02*
X659500D01*
X104500Y126999D02*
X659500D01*
X104500Y126099D02*
X659500D01*
X104500Y125199D02*
X659500D01*
X649922Y124299D02*
X659500D01*
X651468Y123399D02*
X659500D01*
X652457Y122499D02*
X659500D01*
X653161Y121599D02*
X659500D01*
X653673Y120699D02*
X659500D01*
X654034Y119799D02*
X659500D01*
X654267Y118899D02*
X659500D01*
X654383Y117999D02*
X659500D01*
X654389Y117099D02*
X659500D01*
X654285Y116199D02*
X659500D01*
X654065Y115299D02*
X659500D01*
X653719Y114399D02*
X659500D01*
X653225Y113499D02*
X659500D01*
X652544Y112599D02*
X659500D01*
X651594Y111699D02*
X659500D01*
X650139Y110799D02*
X659500D01*
X593544Y109899D02*
X659500D01*
X592808Y108999D02*
X659500D01*
X591798Y108099D02*
X659500D01*
X590270Y107199D02*
X659500D01*
X567391Y106299D02*
X659500D01*
X565972Y105399D02*
X659500D01*
X492563Y378999D02*
X657390D01*
X469694Y360099D02*
X656563D01*
X492058Y388899D02*
X656550D01*
X626150Y417699D02*
X656255D01*
X460075Y350199D02*
X656178D01*
X580561Y407799D02*
X655983D01*
X532807Y340299D02*
X655888D01*
X579092Y414999D02*
X655561D01*
X624948Y424899D02*
X655391D01*
X537693Y348399D02*
X655253D01*
X469520Y358299D02*
X655087D01*
X508561Y380799D02*
X654941D01*
X478271Y368199D02*
X654937D01*
X222500Y370899D02*
X654802D01*
X493059Y378099D02*
X654798D01*
X626249Y418599D02*
X654746D01*
X469384Y360999D02*
X654673D01*
X491561Y387999D02*
X654670D01*
X582295Y408699D02*
X654645D01*
X265190Y351099D02*
X654554D01*
X580980Y414099D02*
X654459D01*
X533705Y341199D02*
X654442D01*
X605384Y423999D02*
X654376D01*
X538384Y347499D02*
X654145D01*
X468979Y357399D02*
X654058D01*
X626093Y419499D02*
X654037D01*
X582932Y409599D02*
X653981D01*
X529148Y381699D02*
X653978D01*
X478650Y367299D02*
X653976D01*
X473561Y371799D02*
X653901D01*
X493244Y377199D02*
X653899D01*
X582393Y413199D02*
X653879D01*
X605694Y423099D02*
X653833D01*
X468693Y361899D02*
X653828D01*
X529452Y387099D02*
X653826D01*
X464247Y351999D02*
X653759D01*
X534123Y342099D02*
X653694D01*
X625638Y420399D02*
X653655D01*
X583211Y410499D02*
X653627D01*
X582979Y412299D02*
X653581D01*
X605736Y422199D02*
X653561D01*
X538694Y346599D02*
X653519D01*
X624652Y421299D02*
X653505D01*
X583225Y411399D02*
X653501D01*
X467747Y356499D02*
X653468D01*
X530136Y382599D02*
X653421D01*
X478748Y366399D02*
X653420D01*
X475295Y372699D02*
X653376D01*
X493173Y376299D02*
X653375D01*
X444744Y362799D02*
X653334D01*
X530271Y386199D02*
X653333D01*
X465479Y352899D02*
X653295D01*
X536747Y342999D02*
X653258D01*
X538736Y345699D02*
X653163D01*
X466194Y355599D02*
X653136D01*
X530592Y383499D02*
X653113D01*
X478592Y365499D02*
X653112D01*
X475932Y373599D02*
X653091D01*
X492828Y375399D02*
X653091D01*
X477148Y363699D02*
X653072D01*
X530650Y385299D02*
X653071D01*
X466020Y353799D02*
X653055D01*
X537979Y343899D02*
X653040D01*
X538520Y344799D02*
X653010D01*
X466236Y354699D02*
X653004D01*
X530748Y384399D02*
X653001D01*
X478136Y364599D02*
X653001D01*
X492075Y374499D02*
X653000D01*
X613807Y254799D02*
X651693D01*
X613811Y260199D02*
X651689D01*
X614705Y255699D02*
X650795D01*
X614707Y259299D02*
X650793D01*
X615123Y256599D02*
X650377D01*
X615123Y258399D02*
X650377D01*
X615250Y257499D02*
X650250D01*
X641384Y207999D02*
X647747D01*
X593932Y202599D02*
X646810D01*
X641694Y207099D02*
X646518D01*
X639747Y203499D02*
X646118D01*
X641736Y206199D02*
X645979D01*
X640979Y204399D02*
X645806D01*
X401205Y512199D02*
X645795D01*
X641520Y205299D02*
X645764D01*
X613546Y526599D02*
X644910D01*
X120422Y124299D02*
X644078D01*
X594092Y110799D02*
X643861D01*
X401623Y513099D02*
X643287D01*
X614094Y525699D02*
X642958D01*
X121968Y123399D02*
X642532D01*
X594494Y111699D02*
X642406D01*
X401750Y513999D02*
X642051D01*
X614495Y524799D02*
X641834D01*
X587146Y122499D02*
X641543D01*
X594771Y112599D02*
X641456D01*
X610684Y514899D02*
X641204D01*
X614771Y523899D02*
X641049D01*
X590689Y121599D02*
X640839D01*
X594937Y113499D02*
X640775D01*
X612054Y515799D02*
X640592D01*
X614937Y522999D02*
X640479D01*
X592057Y120699D02*
X640327D01*
X594999Y114399D02*
X640281D01*
X612991Y516699D02*
X640151D01*
X614999Y522099D02*
X640071D01*
X592994Y119799D02*
X639966D01*
X594960Y115299D02*
X639935D01*
X613680Y517599D02*
X639848D01*
X614960Y521199D02*
X639798D01*
X593682Y118899D02*
X639733D01*
X594818Y116199D02*
X639715D01*
X614193Y518499D02*
X639668D01*
X614817Y520299D02*
X639643D01*
X594194Y117999D02*
X639617D01*
X594566Y117099D02*
X639611D01*
X614565Y519399D02*
X639601D01*
X634747Y203499D02*
X637253D01*
X635693Y208899D02*
X636307D01*
X635979Y204399D02*
X636021D01*
X628747Y203499D02*
X632253D01*
X631650Y246699D02*
X631689D01*
X629979Y204399D02*
X631021D01*
X464705Y219699D02*
X629425D01*
X549437Y499599D02*
X628063D01*
X464298Y218799D02*
X627702D01*
X464391Y214299D02*
X627609D01*
X462972Y213399D02*
X627362D01*
X623253Y243999D02*
X627247D01*
X534798Y209799D02*
X627231D01*
X464934Y217899D02*
X627066D01*
X464978Y215199D02*
X627022D01*
X325500Y212499D02*
X626907D01*
X533075Y210699D02*
X626850D01*
X617152Y250299D02*
X626848D01*
X465212Y216999D02*
X626788D01*
X465225Y216099D02*
X626775D01*
X325500Y211599D02*
X626751D01*
X617448Y244899D02*
X626552D01*
X551063Y507699D02*
X626437D01*
X624190Y238599D02*
X626310D01*
X623247Y203499D02*
X626253D01*
X551327Y500499D02*
X626173D01*
X624482Y243099D02*
X626018D01*
X618138Y249399D02*
X625862D01*
X618269Y245799D02*
X625731D01*
X624882Y239499D02*
X625618D01*
X625021Y242199D02*
X625479D01*
X552024Y506799D02*
X625476D01*
X618593Y248499D02*
X625407D01*
X618650Y246699D02*
X625350D01*
X552172Y501399D02*
X625328D01*
X624193Y208899D02*
X625307D01*
X625194Y240399D02*
X625306D01*
X625236Y241299D02*
X625264D01*
X618749Y247599D02*
X625251D01*
X624479Y204399D02*
X625021D01*
X552580Y505899D02*
X624920D01*
X552666Y502299D02*
X624834D01*
X552888Y504999D02*
X624612D01*
X552928Y503199D02*
X624572D01*
X552999Y504099D02*
X624501D01*
X521166Y191799D02*
X622193D01*
X555650Y197199D02*
X622189D01*
X609152Y430299D02*
X621348D01*
X605520Y421299D02*
X621348D01*
X521428Y192699D02*
X621295D01*
X555269Y196299D02*
X621293D01*
X609448Y424899D02*
X621052D01*
X579248Y415899D02*
X621052D01*
X521499Y193599D02*
X620877D01*
X554448Y195399D02*
X620877D01*
X617747Y203499D02*
X620753D01*
X521388Y194499D02*
X620750D01*
X616753Y243999D02*
X620747D01*
X610138Y429399D02*
X620362D01*
X604979Y420399D02*
X620362D01*
X610269Y425799D02*
X620231D01*
X579150Y416799D02*
X620231D01*
X610593Y428499D02*
X619907D01*
X603747Y419499D02*
X619907D01*
X610650Y426699D02*
X619850D01*
X578771Y417699D02*
X619850D01*
X617690Y238599D02*
X619810D01*
X618693Y208899D02*
X619807D01*
X610749Y427599D02*
X619751D01*
X577952Y418599D02*
X619751D01*
X618979Y204399D02*
X619521D01*
X617982Y243099D02*
X619518D01*
X618382Y239499D02*
X619118D01*
X618521Y242199D02*
X618979D01*
X618694Y240399D02*
X618806D01*
X618736Y241299D02*
X618764D01*
X612247Y203499D02*
X615253D01*
X613193Y208899D02*
X614307D01*
X530711Y243999D02*
X614247D01*
X613479Y204399D02*
X614021D01*
X509663Y250299D02*
X613848D01*
X530725Y244899D02*
X613552D01*
X530432Y243099D02*
X613018D01*
X508352Y249399D02*
X612862D01*
X530479Y245799D02*
X612731D01*
X529795Y242199D02*
X612479D01*
X325500Y248499D02*
X612407D01*
X529893Y246699D02*
X612350D01*
X611950Y240399D02*
X612306D01*
X528061Y241299D02*
X612264D01*
X528480Y247599D02*
X612251D01*
X605855Y270999D02*
X610747D01*
X591807Y254799D02*
X610193D01*
X591811Y260199D02*
X610189D01*
X600950Y240399D02*
X610050D01*
X606306Y265599D02*
X609810D01*
X606747Y203499D02*
X609753D01*
X606481Y270099D02*
X609518D01*
X592705Y255699D02*
X609295D01*
X592707Y259299D02*
X609293D01*
X606742Y266499D02*
X609118D01*
X606837Y269199D02*
X608979D01*
X593123Y256599D02*
X608877D01*
X593123Y258399D02*
X608877D01*
X607693Y208899D02*
X608807D01*
X606960Y267399D02*
X608806D01*
X606990Y268299D02*
X608764D01*
X593250Y257499D02*
X608750D01*
X104500Y479799D02*
X608693D01*
X559867Y485199D02*
X608689D01*
X607979Y204399D02*
X608521D01*
X602559Y232299D02*
X608441D01*
X602830Y239499D02*
X608170D01*
X104500Y480699D02*
X607795D01*
X559163Y484299D02*
X607793D01*
X603522Y233199D02*
X607478D01*
X104500Y481599D02*
X607377D01*
X557852Y483399D02*
X607377D01*
X603674Y238599D02*
X607326D01*
X104500Y482499D02*
X607250D01*
X604079Y234099D02*
X606921D01*
X604167Y237699D02*
X606833D01*
X604387Y234999D02*
X606613D01*
X604429Y236799D02*
X606571D01*
X604499Y235899D02*
X606501D01*
X375479Y430299D02*
X605848D01*
X604693Y424899D02*
X605552D01*
X375725Y429399D02*
X604862D01*
X373061Y425799D02*
X604731D01*
X375711Y428499D02*
X604407D01*
X374795Y426699D02*
X604350D01*
X470020Y461799D02*
X604348D01*
X594211Y203499D02*
X604253D01*
X375432Y427599D02*
X604251D01*
X424972Y456399D02*
X604052D01*
X529276Y529299D02*
X603724D01*
X469479Y460899D02*
X603362D01*
X529684Y514899D02*
X603316D01*
X535434Y208899D02*
X603307D01*
X426391Y457299D02*
X603231D01*
X594225Y204399D02*
X603021D01*
X468247Y459999D02*
X602907D01*
X426978Y458199D02*
X602850D01*
X427225Y459099D02*
X602751D01*
X535712Y207999D02*
X602616D01*
X593979Y205299D02*
X602480D01*
X591980Y207099D02*
X602306D01*
X593393Y206199D02*
X602264D01*
X530802Y528399D02*
X602198D01*
X531054Y515799D02*
X601946D01*
X377500Y419499D02*
X601253D01*
X531811Y527499D02*
X601189D01*
X531991Y516699D02*
X601009D01*
X325500Y263799D02*
X600888D01*
X558480Y526599D02*
X600454D01*
X532680Y517599D02*
X600320D01*
X372997Y424899D02*
X600307D01*
X323430Y271899D02*
X600253D01*
X377426Y420399D02*
X600021D01*
X559893Y525699D02*
X599906D01*
X533193Y518499D02*
X599807D01*
X374330Y423999D02*
X599616D01*
X560479Y524799D02*
X599505D01*
X376996Y421299D02*
X599480D01*
X325500Y264699D02*
X599442D01*
X533565Y519399D02*
X599435D01*
X375230Y423099D02*
X599306D01*
X376130Y422199D02*
X599264D01*
X560725Y523899D02*
X599229D01*
X558061Y520299D02*
X599183D01*
X324330Y270999D02*
X599145D01*
X560711Y522999D02*
X599063D01*
X341979Y240399D02*
X599050D01*
X559795Y521199D02*
X599040D01*
X560432Y522099D02*
X599001D01*
X325500Y265599D02*
X598694D01*
X325132Y270099D02*
X598519D01*
X325500Y266499D02*
X598258D01*
X325467Y269199D02*
X598163D01*
X325500Y267399D02*
X598040D01*
X325500Y268299D02*
X598010D01*
X577891Y232299D02*
X597441D01*
X340747Y239499D02*
X597170D01*
X578478Y233199D02*
X596478D01*
X325500Y238599D02*
X596326D01*
X578725Y234099D02*
X595921D01*
X576075Y237699D02*
X595833D01*
X578712Y234999D02*
X595613D01*
X577798Y236799D02*
X595571D01*
X578434Y235899D02*
X595501D01*
X404021Y170199D02*
X594425D01*
X520948Y163899D02*
X594028D01*
X520652Y169299D02*
X592702D01*
X521769Y164799D02*
X592609D01*
X521638Y168399D02*
X592066D01*
X522150Y165699D02*
X592022D01*
X522093Y167499D02*
X591788D01*
X522249Y166599D02*
X591775D01*
X554152Y200799D02*
X590439D01*
X535725Y207099D02*
X590020D01*
X531795Y201699D02*
X588705D01*
X535478Y206199D02*
X588607D01*
X578945Y254799D02*
X588193D01*
X325500Y260199D02*
X588189D01*
X532432Y202599D02*
X588068D01*
X534891Y205299D02*
X588021D01*
X532711Y203499D02*
X587789D01*
X533472Y204399D02*
X587775D01*
X578996Y255699D02*
X587295D01*
X576913Y259299D02*
X587293D01*
X578864Y256599D02*
X586877D01*
X577942Y258399D02*
X586877D01*
X506146Y122499D02*
X586854D01*
X578532Y257499D02*
X586750D01*
X583575Y437499D02*
X584925D01*
X583693Y447399D02*
X584807D01*
X567978Y107199D02*
X583730D01*
X509689Y121599D02*
X583311D01*
X568225Y108099D02*
X582202D01*
X565575Y120699D02*
X581943D01*
X568212Y108999D02*
X581192D01*
X567298Y119799D02*
X581006D01*
X567934Y109899D02*
X580456D01*
X567934Y118899D02*
X580318D01*
X567298Y110799D02*
X579908D01*
X568212Y117999D02*
X579806D01*
X565575Y111699D02*
X579506D01*
X421236Y407799D02*
X579439D01*
X568225Y117099D02*
X579434D01*
X453592Y437499D02*
X579425D01*
X575970Y447399D02*
X579307D01*
X513771Y112599D02*
X579229D01*
X567978Y116199D02*
X579182D01*
X513937Y113499D02*
X579063D01*
X567391Y115299D02*
X579040D01*
X577328Y442899D02*
X579021D01*
X578636Y414099D02*
X579020D01*
X565972Y114399D02*
X579001D01*
X576575Y441999D02*
X578937D01*
X493448Y438399D02*
X578672D01*
X577063Y446499D02*
X578616D01*
X577673Y443799D02*
X578480D01*
X494749Y441099D02*
X578441D01*
X494269Y439299D02*
X578327D01*
X577559Y445599D02*
X578306D01*
X577744Y444699D02*
X578264D01*
X494650Y440199D02*
X578256D01*
X421021Y408699D02*
X577705D01*
X424690Y409599D02*
X577068D01*
X501307Y412299D02*
X577021D01*
X425382Y410499D02*
X576789D01*
X425694Y411399D02*
X576775D01*
X228063Y293499D02*
X576747D01*
X224559Y288099D02*
X575810D01*
X228559Y292599D02*
X575518D01*
X227575Y288999D02*
X575118D01*
X228744Y291699D02*
X574979D01*
X325500Y237699D02*
X574925D01*
X228328Y289899D02*
X574806D01*
X228673Y290799D02*
X574764D01*
X552725Y231399D02*
X574528D01*
X502205Y413199D02*
X574352D01*
X377500Y418599D02*
X574048D01*
X502623Y414099D02*
X573364D01*
X501311Y417699D02*
X573229D01*
X325500Y236799D02*
X573202D01*
X565822Y251199D02*
X573178D01*
X552479Y232299D02*
X573109D01*
X513193Y447399D02*
X573030D01*
X502750Y414999D02*
X572908D01*
X502207Y416799D02*
X572850D01*
X502623Y415899D02*
X572752D01*
X375970Y235899D02*
X572566D01*
X551893Y233199D02*
X572522D01*
X512247Y441999D02*
X572425D01*
X475753Y234999D02*
X572288D01*
X550480Y234099D02*
X572275D01*
X566913Y259299D02*
X572087D01*
X513884Y446499D02*
X571937D01*
X513479Y442899D02*
X571672D01*
X567446Y252099D02*
X571554D01*
X514194Y445599D02*
X571441D01*
X514020Y443799D02*
X571327D01*
X514236Y444699D02*
X571256D01*
X567942Y258399D02*
X571058D01*
X568241Y252999D02*
X570759D01*
X568532Y257499D02*
X570468D01*
X568705Y253899D02*
X570295D01*
X568864Y256599D02*
X570136D01*
X568945Y254799D02*
X570055D01*
X568996Y255699D02*
X570004D01*
X511057Y120699D02*
X564425D01*
X513494Y111699D02*
X564425D01*
X513999Y114399D02*
X564028D01*
X104500Y105399D02*
X564028D01*
X510367Y251199D02*
X563178D01*
X104500Y137799D02*
X563169D01*
X511994Y119799D02*
X562702D01*
X513092Y110799D02*
X562702D01*
X513960Y115299D02*
X562609D01*
X104500Y106299D02*
X562609D01*
X488522Y129699D02*
X562092D01*
X325500Y259299D02*
X562087D01*
X512682Y118899D02*
X562066D01*
X512544Y109899D02*
X562066D01*
X513818Y116199D02*
X562022D01*
X509270Y107199D02*
X562022D01*
X513194Y117999D02*
X561788D01*
X511808Y108999D02*
X561788D01*
X513566Y117099D02*
X561775D01*
X510798Y108099D02*
X561775D01*
X510776Y252099D02*
X561554D01*
X485950Y136899D02*
X561551D01*
X489079Y130599D02*
X561060D01*
X325500Y258399D02*
X561058D01*
X510972Y252999D02*
X560759D01*
X487830Y135999D02*
X560757D01*
X489387Y131499D02*
X560469D01*
X508564Y257499D02*
X560468D01*
X510982Y253899D02*
X560295D01*
X488674Y135099D02*
X560294D01*
X489499Y132399D02*
X560137D01*
X509763Y256599D02*
X560136D01*
X510809Y254799D02*
X560055D01*
X489167Y134199D02*
X560055D01*
X489429Y133299D02*
X560004D01*
X510426Y255699D02*
X560004D01*
X533817Y520299D02*
X556939D01*
X532546Y526599D02*
X556520D01*
X533960Y521199D02*
X555205D01*
X533094Y525699D02*
X555107D01*
X533999Y522099D02*
X554568D01*
X533495Y524799D02*
X554521D01*
X533937Y522999D02*
X554289D01*
X533771Y523899D02*
X554275D01*
X465948Y483399D02*
X554148D01*
X104500Y491499D02*
X553936D01*
X504205Y449199D02*
X552852D01*
X466769Y484299D02*
X552837D01*
X104500Y490599D02*
X552737D01*
X276194Y454599D02*
X552548D01*
X467150Y485199D02*
X552133D01*
X104500Y489699D02*
X552074D01*
X504623Y450099D02*
X551864D01*
X503311Y453699D02*
X551729D01*
X467249Y486099D02*
X551724D01*
X465652Y488799D02*
X551691D01*
X467093Y486999D02*
X551528D01*
X466638Y487899D02*
X551518D01*
X504750Y450999D02*
X551408D01*
X504207Y452799D02*
X551350D01*
X504623Y451899D02*
X551252D01*
X530061Y200799D02*
X550848D01*
X521080Y195399D02*
X550552D01*
X322530Y272799D02*
X549939D01*
X508058Y199899D02*
X549862D01*
X520524Y196299D02*
X549731D01*
X104500Y279099D02*
X549520D01*
X507561Y198999D02*
X549407D01*
X519563Y197199D02*
X549350D01*
X506465Y198099D02*
X549251D01*
X465150Y227799D02*
X548939D01*
X476982Y234099D02*
X548520D01*
X321483Y273699D02*
X548205D01*
X115811Y278199D02*
X548107D01*
X117123Y274599D02*
X547568D01*
X467437Y499599D02*
X547563D01*
X116707Y277299D02*
X547521D01*
X117250Y275499D02*
X547289D01*
X117123Y276399D02*
X547275D01*
X464771Y228699D02*
X547205D01*
X477521Y233199D02*
X547107D01*
X476690Y229599D02*
X546568D01*
X477736Y232299D02*
X546521D01*
X477382Y230499D02*
X546289D01*
X477694Y231399D02*
X546275D01*
X469063Y507699D02*
X545937D01*
X480705Y156699D02*
X545852D01*
X469327Y500499D02*
X545673D01*
X134194Y162099D02*
X545548D01*
X470024Y506799D02*
X544976D01*
X481123Y157599D02*
X544864D01*
X470172Y501399D02*
X544828D01*
X479811Y161199D02*
X544729D01*
X470580Y505899D02*
X544420D01*
X481250Y158499D02*
X544408D01*
X480707Y160299D02*
X544350D01*
X470666Y502299D02*
X544334D01*
X481123Y159399D02*
X544252D01*
X470888Y504999D02*
X544112D01*
X470928Y503199D02*
X544072D01*
X470999Y504099D02*
X544001D01*
X534250Y342999D02*
X534253D01*
X533932Y315099D02*
X534035D01*
X530211Y320499D02*
X533422D01*
X482693Y348399D02*
X533307D01*
X531980Y319599D02*
X532670D01*
X483384Y347499D02*
X532616D01*
X483694Y346599D02*
X532306D01*
X527075Y210699D02*
X531925D01*
X194650Y313299D02*
X530439D01*
X528798Y209799D02*
X530202D01*
X529932Y319599D02*
X530020D01*
X529434Y208899D02*
X529566D01*
X483736Y345699D02*
X529189D01*
X524061Y200799D02*
X528939D01*
X194271Y314199D02*
X528705D01*
X483520Y344799D02*
X528293D01*
X193452Y315099D02*
X528068D01*
X527561Y317799D02*
X528021D01*
X460980Y342099D02*
X527877D01*
X482979Y343899D02*
X527877D01*
X193575Y315999D02*
X527789D01*
X194328Y316899D02*
X527775D01*
X481747Y342999D02*
X527750D01*
X525795Y201699D02*
X527205D01*
X342520Y241299D02*
X526939D01*
X526432Y202599D02*
X526568D01*
X325500Y247599D02*
X526520D01*
X194673Y317799D02*
X526439D01*
X501190Y324099D02*
X526020D01*
X521075Y210699D02*
X525925D01*
X510295Y381699D02*
X525852D01*
X508980Y387099D02*
X525548D01*
X342736Y242199D02*
X525205D01*
X460561Y335799D02*
X525193D01*
X462393Y341199D02*
X525189D01*
X325500Y246699D02*
X525107D01*
X510932Y382599D02*
X524864D01*
X510393Y386199D02*
X524729D01*
X194744Y318699D02*
X524705D01*
X474148Y323199D02*
X524607D01*
X342694Y243099D02*
X524568D01*
X325500Y245799D02*
X524521D01*
X511211Y383499D02*
X524408D01*
X510979Y385299D02*
X524350D01*
X462295Y336699D02*
X524295D01*
X462979Y340299D02*
X524293D01*
X342384Y243999D02*
X524289D01*
X341693Y244899D02*
X524275D01*
X511225Y384399D02*
X524252D01*
X522798Y209799D02*
X524202D01*
X194559Y319599D02*
X524068D01*
X154559Y322299D02*
X524021D01*
X462932Y337599D02*
X523877D01*
X463225Y339399D02*
X523877D01*
X194063Y320499D02*
X523789D01*
X192970Y321399D02*
X523775D01*
X463211Y338499D02*
X523750D01*
X523434Y208899D02*
X523566D01*
X508244Y200799D02*
X522939D01*
X448276Y529299D02*
X522724D01*
X448684Y514899D02*
X522316D01*
X508174Y201699D02*
X521205D01*
X449802Y528399D02*
X521198D01*
X450054Y515799D02*
X520946D01*
X507830Y202599D02*
X520568D01*
X507078Y203499D02*
X520289D01*
X450811Y527499D02*
X520189D01*
X450991Y516699D02*
X520009D01*
X405075Y210699D02*
X519925D01*
X368382Y180999D02*
X519753D01*
X436638Y204399D02*
X519528D01*
X451546Y526599D02*
X519454D01*
X451680Y517599D02*
X519320D01*
X477811Y525699D02*
X518906D01*
X377694Y186399D02*
X518807D01*
X452193Y518499D02*
X518807D01*
X368694Y181899D02*
X518521D01*
X478707Y524799D02*
X518505D01*
X452565Y519399D02*
X518435D01*
X479123Y523899D02*
X518229D01*
X406798Y209799D02*
X518202D01*
X477807Y520299D02*
X518183D01*
X377382Y185499D02*
X518116D01*
X435652Y205299D02*
X518109D01*
X479250Y522999D02*
X518063D01*
X478705Y521199D02*
X518040D01*
X479123Y522099D02*
X518001D01*
X368736Y182799D02*
X517980D01*
X376690Y184599D02*
X517806D01*
X368521Y183699D02*
X517764D01*
X407434Y208899D02*
X517566D01*
X407478Y206199D02*
X517522D01*
X404236Y169299D02*
X517348D01*
X407712Y207999D02*
X517288D01*
X407725Y207099D02*
X517275D01*
X133193Y163899D02*
X517052D01*
X404194Y168399D02*
X516362D01*
X104500Y164799D02*
X516231D01*
X376982Y189099D02*
X516063D01*
X403882Y167499D02*
X515907D01*
X104500Y165699D02*
X515850D01*
X403190Y166599D02*
X515751D01*
X499148Y197199D02*
X514437D01*
X375753Y189999D02*
X514173D01*
X407269Y196299D02*
X513476D01*
X322727Y190899D02*
X513328D01*
X406448Y195399D02*
X512920D01*
X382807Y191799D02*
X512834D01*
X384250Y194499D02*
X512612D01*
X383705Y192699D02*
X512572D01*
X384123Y193599D02*
X512501D01*
X507247Y441999D02*
X509753D01*
X491830Y391599D02*
X509035D01*
X508193Y447399D02*
X508807D01*
X508479Y442899D02*
X508521D01*
X377500Y396999D02*
X508422D01*
X491078Y392499D02*
X507939D01*
X377500Y396099D02*
X507670D01*
X377500Y393399D02*
X507442D01*
X505307Y380799D02*
X507439D01*
X377500Y395199D02*
X507326D01*
X377500Y394299D02*
X507256D01*
X490465Y387099D02*
X507020D01*
X425146Y122499D02*
X505854D01*
X505311Y386199D02*
X505607D01*
X492521Y404199D02*
X504925D01*
X494593Y441999D02*
X504753D01*
X498352Y249399D02*
X504648D01*
X422472Y397899D02*
X504528D01*
X498564Y257499D02*
X504436D01*
X500136Y198099D02*
X503535D01*
X494138Y442899D02*
X503521D01*
X499663Y250299D02*
X503337D01*
X499763Y256599D02*
X503237D01*
X492736Y403299D02*
X503202D01*
X423891Y398799D02*
X503109D01*
X437093Y203499D02*
X502922D01*
X428270Y107199D02*
X502730D01*
X500367Y251199D02*
X502633D01*
X500426Y255699D02*
X502574D01*
X492694Y402399D02*
X502566D01*
X424478Y399699D02*
X502522D01*
X500592Y198999D02*
X502439D01*
X428689Y121599D02*
X502311D01*
X492382Y401499D02*
X502288D01*
X491690Y400599D02*
X502275D01*
X500776Y252099D02*
X502224D01*
X500809Y254799D02*
X502191D01*
X499452Y202599D02*
X502170D01*
X500972Y252999D02*
X502028D01*
X500982Y253899D02*
X502018D01*
X500748Y199899D02*
X501942D01*
X500271Y201699D02*
X501826D01*
X500650Y200799D02*
X501756D01*
X444673Y380799D02*
X501693D01*
X464771Y386199D02*
X501689D01*
X429798Y108099D02*
X501202D01*
X430057Y120699D02*
X500943D01*
X463648Y381699D02*
X500795D01*
X465150Y385299D02*
X500793D01*
X464636Y382599D02*
X500377D01*
X465248Y384399D02*
X500377D01*
X465092Y383499D02*
X500250D01*
X430808Y108999D02*
X500192D01*
X430994Y119799D02*
X500006D01*
X493152Y443799D02*
X499693D01*
X276236Y453699D02*
X499689D01*
X431544Y109899D02*
X499456D01*
X431682Y118899D02*
X499318D01*
X432092Y110799D02*
X498908D01*
X432194Y117999D02*
X498806D01*
X433311Y449199D02*
X498795D01*
X470893Y444699D02*
X498795D01*
X276020Y452799D02*
X498793D01*
X434207Y448299D02*
X498793D01*
X432494Y111699D02*
X498506D01*
X432566Y117099D02*
X498434D01*
X351480Y450099D02*
X498377D01*
X469480Y445599D02*
X498377D01*
X275479Y451899D02*
X498377D01*
X434623Y447399D02*
X498377D01*
X274247Y450999D02*
X498250D01*
X434750Y446499D02*
X498250D01*
X432771Y112599D02*
X498229D01*
X432818Y116199D02*
X498182D01*
X432937Y113499D02*
X498063D01*
X432960Y115299D02*
X498040D01*
X432999Y114399D02*
X498001D01*
X357063Y329499D02*
X497747D01*
X468807Y412299D02*
X497693D01*
X468811Y417699D02*
X497689D01*
X475136Y324099D02*
X496810D01*
X469705Y413199D02*
X496795D01*
X469707Y416799D02*
X496793D01*
X474452Y328599D02*
X496518D01*
X470123Y414099D02*
X496377D01*
X470123Y415899D02*
X496377D01*
X470250Y414999D02*
X496250D01*
X475592Y324999D02*
X496118D01*
X475271Y327699D02*
X495979D01*
X407650Y197199D02*
X495852D01*
X475748Y325899D02*
X495806D01*
X475650Y326799D02*
X495764D01*
X437249Y202599D02*
X495548D01*
X407749Y198099D02*
X494864D01*
X437150Y201699D02*
X494729D01*
X488352Y249399D02*
X494648D01*
X488564Y257499D02*
X494436D01*
X407593Y198999D02*
X494408D01*
X436769Y200799D02*
X494350D01*
X435948Y199899D02*
X494252D01*
X489663Y250299D02*
X493337D01*
X489763Y256599D02*
X493237D01*
X490367Y251199D02*
X492633D01*
X490426Y255699D02*
X492574D01*
X490776Y252099D02*
X492224D01*
X490809Y254799D02*
X492191D01*
X490972Y252999D02*
X492028D01*
X490982Y253899D02*
X492018D01*
X471479Y443799D02*
X489848D01*
X453748Y438399D02*
X489552D01*
X471725Y442899D02*
X488862D01*
X469061Y439299D02*
X488731D01*
X444328Y379899D02*
X488530D01*
X471711Y441999D02*
X488407D01*
X470795Y440199D02*
X488350D01*
X471432Y441099D02*
X488251D01*
X420882Y405999D02*
X488247D01*
X476211Y374499D02*
X487925D01*
X463952Y387099D02*
X487535D01*
X443575Y378999D02*
X487437D01*
X424725Y400599D02*
X487310D01*
X476225Y375399D02*
X487172D01*
X420190Y405099D02*
X487018D01*
X473980Y378099D02*
X486941D01*
X377500Y392499D02*
X486922D01*
X475979Y376299D02*
X486827D01*
X475393Y377199D02*
X486756D01*
X424712Y401499D02*
X486618D01*
X422075Y404199D02*
X486479D01*
X459078Y387999D02*
X486439D01*
X424434Y402399D02*
X486306D01*
X423798Y403299D02*
X486264D01*
X377500Y391599D02*
X486170D01*
X377500Y388899D02*
X485942D01*
X377500Y390699D02*
X485826D01*
X377500Y389799D02*
X485756D01*
X480518Y249399D02*
X484648D01*
X480619Y257499D02*
X484436D01*
X403950Y136899D02*
X484050D01*
X480986Y250299D02*
X483337D01*
X480997Y256599D02*
X483237D01*
X481000Y251199D02*
X482633D01*
X481000Y255699D02*
X482574D01*
X405559Y128799D02*
X482441D01*
X481000Y252099D02*
X482224D01*
X481000Y254799D02*
X482191D01*
X405830Y135999D02*
X482170D01*
X481000Y252999D02*
X482028D01*
X481000Y253899D02*
X482018D01*
X406522Y129699D02*
X481478D01*
X406674Y135099D02*
X481326D01*
X407079Y130599D02*
X480921D01*
X407167Y134199D02*
X480833D01*
X407387Y131499D02*
X480613D01*
X407429Y133299D02*
X480571D01*
X407499Y132399D02*
X480501D01*
X183384Y342999D02*
X479253D01*
X462434Y348399D02*
X478307D01*
X460472Y343899D02*
X478021D01*
X462712Y347499D02*
X477616D01*
X461891Y344799D02*
X477480D01*
X462725Y346599D02*
X477306D01*
X462478Y345699D02*
X477264D01*
X384736Y155799D02*
X476193D01*
X196811Y161199D02*
X476189D01*
X384521Y156699D02*
X475295D01*
X197707Y160299D02*
X475293D01*
X383982Y157599D02*
X474877D01*
X206470Y159399D02*
X474877D01*
X382753Y158499D02*
X474750D01*
X452817Y520299D02*
X474193D01*
X452094Y525699D02*
X474189D01*
X444674Y363699D02*
X473852D01*
X280480Y369099D02*
X473548D01*
X452960Y521199D02*
X473295D01*
X452495Y524799D02*
X473293D01*
X377063Y234999D02*
X473247D01*
X452999Y522099D02*
X472877D01*
X452771Y523899D02*
X472877D01*
X444330Y364599D02*
X472864D01*
X452937Y522999D02*
X472750D01*
X281893Y368199D02*
X472729D01*
X325500Y249399D02*
X472482D01*
X467561Y371799D02*
X472439D01*
X443578Y365499D02*
X472408D01*
X325500Y257499D02*
X472381D01*
X282479Y367299D02*
X472350D01*
X463952Y229599D02*
X472310D01*
X282725Y366399D02*
X472252D01*
X467980Y378099D02*
X472020D01*
X377559Y234099D02*
X472018D01*
X325500Y250299D02*
X472014D01*
X325500Y256599D02*
X472003D01*
X325500Y255699D02*
X472000D01*
X325500Y254799D02*
X472000D01*
X325500Y253899D02*
X472000D01*
X325500Y252999D02*
X472000D01*
X325500Y252099D02*
X472000D01*
X325500Y251199D02*
X472000D01*
X376575Y230499D02*
X471618D01*
X377744Y233199D02*
X471479D01*
X377328Y231399D02*
X471306D01*
X377673Y232299D02*
X471264D01*
X197322Y323199D02*
X470852D01*
X469295Y372699D02*
X470705D01*
X469393Y377199D02*
X470607D01*
X357559Y328599D02*
X470548D01*
X469932Y373599D02*
X470068D01*
X469979Y376299D02*
X470021D01*
X198946Y324099D02*
X469864D01*
X357744Y327699D02*
X469729D01*
X356575Y324999D02*
X469408D01*
X357673Y326799D02*
X469350D01*
X357328Y325899D02*
X469252D01*
X453650Y439299D02*
X467939D01*
X446980Y445599D02*
X467520D01*
X222500Y371799D02*
X466439D01*
X453271Y440199D02*
X466205D01*
X448393Y444699D02*
X466107D01*
X428330Y378099D02*
X466020D01*
X427212Y459999D02*
X465753D01*
X452452Y441099D02*
X465568D01*
X386937Y499599D02*
X465563D01*
X448979Y443799D02*
X465521D01*
X449211Y441999D02*
X465289D01*
X449225Y442899D02*
X465275D01*
X425736Y412299D02*
X465193D01*
X377500Y417699D02*
X465189D01*
X104500Y465399D02*
X464807D01*
X222500Y372699D02*
X464705D01*
X428674Y377199D02*
X464607D01*
X426934Y460899D02*
X464521D01*
X444558Y361899D02*
X464307D01*
X425521Y413199D02*
X464295D01*
X377500Y416799D02*
X464293D01*
X104500Y464499D02*
X464116D01*
X426965Y373599D02*
X464068D01*
X428744Y376299D02*
X464021D01*
X426298Y461799D02*
X463980D01*
X388563Y507699D02*
X463937D01*
X424982Y414099D02*
X463877D01*
X377500Y415899D02*
X463877D01*
X104500Y463599D02*
X463806D01*
X428061Y374499D02*
X463789D01*
X428558Y375399D02*
X463775D01*
X424575Y462699D02*
X463764D01*
X423753Y414999D02*
X463750D01*
X388827Y500499D02*
X463673D01*
X444061Y360999D02*
X463616D01*
X222500Y358299D02*
X463480D01*
X442965Y360099D02*
X463306D01*
X222500Y359199D02*
X463264D01*
X389524Y506799D02*
X462976D01*
X389672Y501399D02*
X462828D01*
X390080Y505899D02*
X462420D01*
X104500Y488799D02*
X462348D01*
X390166Y502299D02*
X462334D01*
X390388Y504999D02*
X462112D01*
X390428Y503199D02*
X462072D01*
X104500Y483399D02*
X462052D01*
X390499Y504099D02*
X462001D01*
X265882Y351999D02*
X461753D01*
X104500Y487899D02*
X461362D01*
X104500Y484299D02*
X461231D01*
X458448Y213399D02*
X461028D01*
X390244Y304299D02*
X460939D01*
X104500Y486999D02*
X460907D01*
X104500Y485199D02*
X460850D01*
X222500Y357399D02*
X460807D01*
X104500Y486099D02*
X460751D01*
X266194Y352899D02*
X460521D01*
X295481Y310599D02*
X460520D01*
X444744Y381699D02*
X460352D01*
X457075Y224199D02*
X460189D01*
X264253Y356499D02*
X460116D01*
X459830Y387099D02*
X460048D01*
X440980Y229599D02*
X460048D01*
X266236Y353799D02*
X459980D01*
X265482Y355599D02*
X459806D01*
X266021Y354699D02*
X459764D01*
X459269Y214299D02*
X459609D01*
X104500Y335799D02*
X459439D01*
X458465Y382599D02*
X459364D01*
X442932Y225099D02*
X459364D01*
X458798Y223299D02*
X459293D01*
X442393Y228699D02*
X459229D01*
X390174Y305199D02*
X459205D01*
X295837Y309699D02*
X459107D01*
X183694Y342099D02*
X459020D01*
X234705Y350199D02*
X458925D01*
X443211Y225999D02*
X458908D01*
X442979Y227799D02*
X458850D01*
X443225Y226899D02*
X458752D01*
X389830Y306099D02*
X458568D01*
X182693Y343899D02*
X458528D01*
X295990Y308799D02*
X458521D01*
X389078Y306999D02*
X458289D01*
X295960Y307899D02*
X458275D01*
X104500Y336699D02*
X457705D01*
X183736Y341199D02*
X457607D01*
X233807Y349299D02*
X457202D01*
X104500Y344799D02*
X457109D01*
X104500Y337599D02*
X457068D01*
X183520Y340299D02*
X457021D01*
X181747Y338499D02*
X456789D01*
X182979Y339399D02*
X456775D01*
X221227Y348399D02*
X456566D01*
X218270Y345699D02*
X456522D01*
X220327Y347499D02*
X456288D01*
X219427Y346599D02*
X456275D01*
X451575Y224199D02*
X455925D01*
X444559Y382599D02*
X455535D01*
X377500Y387999D02*
X454922D01*
X452948Y213399D02*
X454552D01*
X444063Y383499D02*
X454439D01*
X453298Y223299D02*
X454202D01*
X377500Y387099D02*
X454170D01*
X442970Y384399D02*
X453942D01*
X377500Y386199D02*
X453826D01*
X377500Y385299D02*
X453756D01*
X446075Y224199D02*
X450425D01*
X447448Y213399D02*
X449052D01*
X383705Y435699D02*
X448852D01*
X447798Y223299D02*
X448702D01*
X384123Y436599D02*
X447864D01*
X384250Y437499D02*
X447408D01*
X446561Y439299D02*
X447350D01*
X384123Y438399D02*
X447252D01*
X383707Y439299D02*
X445439D01*
X434623Y445599D02*
X445020D01*
X442295Y224199D02*
X444925D01*
X382811Y440199D02*
X443705D01*
X434205Y444699D02*
X443607D01*
X441948Y213399D02*
X443552D01*
X442298Y223299D02*
X443202D01*
X362636Y441099D02*
X443068D01*
X433307Y443799D02*
X443021D01*
X363092Y441999D02*
X442789D01*
X363248Y442899D02*
X442775D01*
X367276Y529299D02*
X441724D01*
X401623Y514899D02*
X441316D01*
X368802Y528399D02*
X440198D01*
X222500Y360099D02*
X440035D01*
X377481Y384399D02*
X440030D01*
X401207Y515799D02*
X439946D01*
X427578Y378999D02*
X439425D01*
X282711Y365499D02*
X439422D01*
X369811Y527499D02*
X439189D01*
X325500Y229599D02*
X439020D01*
X400311Y516699D02*
X439009D01*
X222500Y360999D02*
X438939D01*
X377189Y383499D02*
X438937D01*
X373647Y379899D02*
X438672D01*
X282432Y364599D02*
X438670D01*
X370546Y526599D02*
X438454D01*
X222500Y361899D02*
X438442D01*
X376427Y382599D02*
X438441D01*
X374627Y380799D02*
X438327D01*
X281795Y363699D02*
X438326D01*
X370680Y517599D02*
X438320D01*
X280061Y362799D02*
X438256D01*
X375527Y381699D02*
X438256D01*
X325500Y213399D02*
X438052D01*
X397811Y525699D02*
X437906D01*
X371193Y518499D02*
X437807D01*
X402244Y224199D02*
X437705D01*
X402173Y223299D02*
X437702D01*
X332996Y218799D02*
X437609D01*
X325500Y228699D02*
X437607D01*
X398707Y524799D02*
X437505D01*
X371565Y519399D02*
X437435D01*
X332863Y217899D02*
X437362D01*
X325500Y214299D02*
X437231D01*
X399123Y523899D02*
X437229D01*
X397807Y520299D02*
X437183D01*
X402059Y225099D02*
X437068D01*
X401828Y222399D02*
X437066D01*
X399250Y522999D02*
X437063D01*
X398705Y521199D02*
X437040D01*
X332945Y219699D02*
X437022D01*
X325500Y227799D02*
X437021D01*
X399123Y522099D02*
X437001D01*
X332531Y216999D02*
X436907D01*
X330908Y215199D02*
X436850D01*
X401563Y225999D02*
X436789D01*
X401075Y221499D02*
X436788D01*
X332706Y220599D02*
X436775D01*
X400470Y226899D02*
X436775D01*
X331940Y216099D02*
X436751D01*
X406891Y205299D02*
X432348D01*
X407138Y199899D02*
X432052D01*
X407138Y204399D02*
X431362D01*
X407269Y200799D02*
X431231D01*
X407593Y203499D02*
X430907D01*
X407650Y201699D02*
X430850D01*
X407749Y202599D02*
X430751D01*
X410244Y173799D02*
X430439D01*
X367690Y180099D02*
X430020D01*
X372807Y443799D02*
X429693D01*
X372811Y449199D02*
X429689D01*
X373705Y444699D02*
X428795D01*
X373707Y448299D02*
X428793D01*
X410174Y174699D02*
X428705D01*
X218795Y179199D02*
X428607D01*
X374123Y445599D02*
X428377D01*
X374123Y447399D02*
X428377D01*
X374250Y446499D02*
X428250D01*
X409830Y175599D02*
X428068D01*
X310152Y178299D02*
X428021D01*
X409078Y176499D02*
X427789D01*
X311138Y177399D02*
X427775D01*
X344146Y122499D02*
X424854D01*
X222500Y373599D02*
X424035D01*
X104500Y462699D02*
X423425D01*
X222500Y378999D02*
X423422D01*
X275193Y456399D02*
X423028D01*
X222500Y374499D02*
X422939D01*
X222500Y378099D02*
X422670D01*
X222500Y375399D02*
X422442D01*
X222500Y377199D02*
X422326D01*
X222500Y376299D02*
X422256D01*
X347270Y107199D02*
X421730D01*
X274652Y461799D02*
X421702D01*
X275769Y457299D02*
X421609D01*
X347689Y121599D02*
X421311D01*
X377500Y414999D02*
X421247D01*
X275638Y460899D02*
X421066D01*
X276150Y458199D02*
X421022D01*
X409236Y404199D02*
X420925D01*
X276093Y459999D02*
X420788D01*
X276249Y459099D02*
X420775D01*
X377500Y397899D02*
X420528D01*
X348798Y108099D02*
X420202D01*
X377500Y414099D02*
X420018D01*
X406075Y120699D02*
X419943D01*
X419253Y410499D02*
X419618D01*
X377500Y413199D02*
X419479D01*
X377500Y411399D02*
X419306D01*
X377500Y412299D02*
X419264D01*
X409020Y403299D02*
X419202D01*
X349808Y108999D02*
X419192D01*
X377500Y398799D02*
X419109D01*
X407798Y119799D02*
X419006D01*
X408479Y402399D02*
X418566D01*
X377500Y399699D02*
X418522D01*
X399448Y109899D02*
X418456D01*
X408434Y118899D02*
X418318D01*
X407247Y401499D02*
X418288D01*
X377500Y400599D02*
X418275D01*
X400269Y110799D02*
X417908D01*
X408712Y117999D02*
X417806D01*
X400650Y111699D02*
X417506D01*
X408725Y117099D02*
X417434D01*
X400749Y112599D02*
X417229D01*
X408478Y116199D02*
X417182D01*
X400593Y113499D02*
X417063D01*
X407891Y115299D02*
X417040D01*
X406472Y114399D02*
X417001D01*
X377500Y410499D02*
X416747D01*
X409194Y405099D02*
X415810D01*
X377500Y409599D02*
X415518D01*
X408884Y405999D02*
X415118D01*
X377500Y408699D02*
X414979D01*
X408193Y406899D02*
X414806D01*
X377500Y407799D02*
X414764D01*
X199150Y300699D02*
X414425D01*
X226970Y294399D02*
X414028D01*
X198769Y299799D02*
X412702D01*
X104500Y295299D02*
X412609D01*
X197948Y298899D02*
X412066D01*
X104500Y296199D02*
X412022D01*
X104500Y297999D02*
X411788D01*
X104500Y297099D02*
X411775D01*
X403482Y171099D02*
X405535D01*
X349057Y120699D02*
X404925D01*
X311593Y176499D02*
X404922D01*
X377500Y401499D02*
X404753D01*
X400138Y114399D02*
X404528D01*
X402253Y171999D02*
X404439D01*
X311749Y175599D02*
X404170D01*
X310448Y172899D02*
X403942D01*
X399575Y210699D02*
X403925D01*
X311650Y174699D02*
X403826D01*
X377500Y406899D02*
X403807D01*
X311269Y173799D02*
X403756D01*
X377500Y402399D02*
X403521D01*
X349994Y119799D02*
X403202D01*
X377500Y405999D02*
X403116D01*
X399152Y115299D02*
X403109D01*
X377500Y403299D02*
X402980D01*
X377500Y405099D02*
X402806D01*
X377500Y404199D02*
X402764D01*
X350682Y118899D02*
X402566D01*
X400948Y195399D02*
X402552D01*
X351818Y116199D02*
X402522D01*
X351194Y117999D02*
X402288D01*
X351566Y117099D02*
X402275D01*
X401298Y209799D02*
X402202D01*
X323450Y136899D02*
X402050D01*
X325059Y128799D02*
X400441D01*
X325330Y135999D02*
X400170D01*
X104500Y171999D02*
X399747D01*
X326022Y129699D02*
X399478D01*
X326174Y135099D02*
X399326D01*
X326579Y130599D02*
X398921D01*
X326667Y134199D02*
X398833D01*
X104500Y166599D02*
X398810D01*
X326887Y131499D02*
X398613D01*
X326929Y133299D02*
X398571D01*
X104500Y171099D02*
X398518D01*
X326999Y132399D02*
X398501D01*
X325500Y210699D02*
X398425D01*
X104500Y167499D02*
X398118D01*
X104500Y170199D02*
X397979D01*
X104500Y168399D02*
X397806D01*
X104500Y169299D02*
X397764D01*
X325500Y226899D02*
X397530D01*
X384123Y195399D02*
X397052D01*
X332243Y221499D02*
X396925D01*
X325500Y209799D02*
X396702D01*
X104500Y511299D02*
X396693D01*
X369991Y516699D02*
X396689D01*
X325500Y205299D02*
X396609D01*
X325500Y225999D02*
X396437D01*
X325500Y204399D02*
X396362D01*
X325500Y199899D02*
X396362D01*
X325500Y200799D02*
X396231D01*
X383707Y196299D02*
X396231D01*
X331449Y222399D02*
X396172D01*
X325500Y208899D02*
X396066D01*
X325500Y206199D02*
X396022D01*
X325500Y225099D02*
X395941D01*
X325500Y203499D02*
X395907D01*
X325500Y198999D02*
X395907D01*
X325500Y201699D02*
X395850D01*
X382811Y197199D02*
X395850D01*
X351960Y115299D02*
X395848D01*
X329831Y223299D02*
X395827D01*
X118705Y512199D02*
X395795D01*
X369054Y515799D02*
X395793D01*
X325500Y207999D02*
X395788D01*
X325500Y207099D02*
X395775D01*
X325500Y224199D02*
X395756D01*
X325500Y202599D02*
X395751D01*
X325500Y198099D02*
X395751D01*
X350544Y109899D02*
X395552D01*
X121213Y513099D02*
X395377D01*
X367684Y514899D02*
X395377D01*
X122449Y513999D02*
X395250D01*
X351999Y114399D02*
X394862D01*
X351092Y110799D02*
X394731D01*
X351937Y113499D02*
X394407D01*
X351494Y111699D02*
X394350D01*
X351771Y112599D02*
X394251D01*
X371817Y520299D02*
X394193D01*
X371094Y525699D02*
X394189D01*
X371960Y521199D02*
X393295D01*
X371495Y524799D02*
X393293D01*
X371999Y522099D02*
X392877D01*
X371771Y523899D02*
X392877D01*
X371937Y522999D02*
X392750D01*
X199249Y301599D02*
X385535D01*
X305437Y499599D02*
X385063D01*
X295742Y306999D02*
X384922D01*
X199093Y302499D02*
X384439D01*
X295306Y306099D02*
X384170D01*
X198638Y303399D02*
X383942D01*
X294558Y305199D02*
X383826D01*
X293112Y304299D02*
X383756D01*
X307063Y507699D02*
X383437D01*
X307327Y500499D02*
X383173D01*
X308024Y506799D02*
X382476D01*
X308172Y501399D02*
X382328D01*
X308580Y505899D02*
X381920D01*
X308666Y502299D02*
X381834D01*
X308888Y504999D02*
X381612D01*
X308928Y503199D02*
X381572D01*
X308999Y504099D02*
X381501D01*
X207563Y158499D02*
X380247D01*
X207482Y153099D02*
X379310D01*
X377807Y434799D02*
X379193D01*
X323627Y191799D02*
X379193D01*
X377811Y440199D02*
X379189D01*
X325500Y197199D02*
X379189D01*
X208059Y157599D02*
X379018D01*
X207075Y153999D02*
X378618D01*
X208244Y156699D02*
X378479D01*
X207828Y154899D02*
X378306D01*
X324527Y192699D02*
X378295D01*
X325500Y196299D02*
X378293D01*
X208173Y155799D02*
X378264D01*
X325241Y193599D02*
X377877D01*
X325500Y195399D02*
X377877D01*
X325491Y194499D02*
X377750D01*
X372807Y434799D02*
X374193D01*
X372811Y440199D02*
X374189D01*
X321791Y189999D02*
X373247D01*
X325500Y235899D02*
X373030D01*
X325500Y230499D02*
X372425D01*
X367982Y184599D02*
X372310D01*
X200432Y189099D02*
X372018D01*
X295061Y425799D02*
X371939D01*
X325500Y234999D02*
X371937D01*
X325500Y231399D02*
X371672D01*
X366753Y185499D02*
X371618D01*
X333432Y432099D02*
X371520D01*
X199795Y188199D02*
X371479D01*
X325500Y234099D02*
X371441D01*
X325500Y232299D02*
X371327D01*
X104500Y186399D02*
X371306D01*
X198061Y187299D02*
X371264D01*
X325500Y233199D02*
X371256D01*
X296795Y426699D02*
X370205D01*
X332795Y431199D02*
X370107D01*
X297432Y427599D02*
X369568D01*
X331061Y430299D02*
X369521D01*
X297711Y428499D02*
X369289D01*
X297725Y429399D02*
X369275D01*
X363150Y443799D02*
X369193D01*
X346061Y434799D02*
X369193D01*
X352893Y449199D02*
X369189D01*
X361648Y440199D02*
X369189D01*
X362771Y444699D02*
X368295D01*
X347795Y435699D02*
X368295D01*
X353479Y448299D02*
X368293D01*
X348479Y439299D02*
X368293D01*
X361952Y445599D02*
X367877D01*
X348432Y436599D02*
X367877D01*
X353725Y447399D02*
X367877D01*
X348725Y438399D02*
X367877D01*
X353711Y446499D02*
X367750D01*
X348711Y437499D02*
X367750D01*
X104500Y185499D02*
X364247D01*
X219432Y180099D02*
X363310D01*
X217480Y184599D02*
X363018D01*
X219711Y180999D02*
X362618D01*
X218893Y183699D02*
X362479D01*
X219725Y181899D02*
X362306D01*
X219479Y182799D02*
X362264D01*
X286276Y529299D02*
X360724D01*
X286684Y514899D02*
X360316D01*
X287802Y528399D02*
X359198D01*
X288054Y515799D02*
X358946D01*
X347893Y440199D02*
X358352D01*
X288811Y527499D02*
X358189D01*
X353432Y445599D02*
X358048D01*
X288991Y516699D02*
X358009D01*
X289546Y526599D02*
X357454D01*
X348432Y441099D02*
X357364D01*
X289680Y517599D02*
X357320D01*
X352795Y444699D02*
X357229D01*
X348711Y441999D02*
X356908D01*
X326811Y525699D02*
X356906D01*
X351061Y443799D02*
X356850D01*
X290193Y518499D02*
X356807D01*
X348725Y442899D02*
X356752D01*
X327707Y524799D02*
X356505D01*
X313972Y519399D02*
X356435D01*
X328123Y523899D02*
X356229D01*
X326807Y520299D02*
X356183D01*
X328250Y522999D02*
X356063D01*
X327705Y521199D02*
X356040D01*
X328123Y522099D02*
X356001D01*
X223123Y330399D02*
X353030D01*
X199741Y324999D02*
X352425D01*
X223250Y329499D02*
X351937D01*
X200205Y325899D02*
X351672D01*
X223123Y328599D02*
X351441D01*
X221807Y326799D02*
X351327D01*
X222705Y327699D02*
X351256D01*
X348479Y443799D02*
X349939D01*
X346480Y450099D02*
X349520D01*
X347893Y444699D02*
X348205D01*
X347893Y449199D02*
X348107D01*
X333479Y434799D02*
X344939D01*
X340980Y450099D02*
X344520D01*
X263146Y122499D02*
X343854D01*
X332893Y435699D02*
X343205D01*
X342393Y449199D02*
X343107D01*
X342295Y444699D02*
X343107D01*
X335674Y440199D02*
X343107D01*
X335330Y441099D02*
X342568D01*
X333965Y436599D02*
X342568D01*
X340561Y443799D02*
X342521D01*
X335744Y439299D02*
X342521D01*
X334578Y441999D02*
X342289D01*
X335061Y437499D02*
X342289D01*
X335328Y442899D02*
X342275D01*
X335558Y438399D02*
X342275D01*
X266270Y107199D02*
X340730D01*
X266689Y121599D02*
X340311D01*
X335673Y443799D02*
X339439D01*
X267798Y108099D02*
X339202D01*
X278480Y450099D02*
X339020D01*
X322075Y120699D02*
X338943D01*
X325500Y239499D02*
X338253D01*
X268808Y108999D02*
X338192D01*
X323798Y119799D02*
X338006D01*
X335744Y444699D02*
X337705D01*
X291311Y449199D02*
X337607D01*
X316472Y109899D02*
X337456D01*
X324434Y118899D02*
X337318D01*
X325500Y244899D02*
X337307D01*
X335559Y445599D02*
X337068D01*
X292207Y448299D02*
X337021D01*
X325500Y240399D02*
X337021D01*
X317891Y110799D02*
X336908D01*
X324712Y117999D02*
X336806D01*
X335063Y446499D02*
X336789D01*
X333970Y447399D02*
X336775D01*
X325500Y243999D02*
X336616D01*
X318478Y111699D02*
X336506D01*
X325500Y241299D02*
X336480D01*
X324725Y117099D02*
X336434D01*
X325500Y243099D02*
X336306D01*
X325500Y242199D02*
X336264D01*
X318725Y112599D02*
X336229D01*
X324478Y116199D02*
X336182D01*
X318712Y113499D02*
X336063D01*
X323891Y115299D02*
X336040D01*
X322472Y114399D02*
X336001D01*
X297470Y447399D02*
X331030D01*
X303563Y441999D02*
X330422D01*
X301061Y430299D02*
X329939D01*
X303075Y437499D02*
X329939D01*
X298563Y446499D02*
X329937D01*
X302470Y442899D02*
X329672D01*
X304059Y441099D02*
X329670D01*
X301480Y436599D02*
X329520D01*
X303828Y438399D02*
X329442D01*
X299059Y445599D02*
X329441D01*
X299173Y443799D02*
X329327D01*
X304244Y440199D02*
X329326D01*
X304173Y439299D02*
X329256D01*
X299244Y444699D02*
X329256D01*
X302795Y431199D02*
X328205D01*
X302893Y435699D02*
X328107D01*
X303432Y432099D02*
X327568D01*
X303479Y434799D02*
X327521D01*
X303711Y432999D02*
X327289D01*
X303725Y433899D02*
X327275D01*
X325500Y223299D02*
X327169D01*
X325500Y215199D02*
X326092D01*
X325500Y222399D02*
X325551D01*
X315391Y520299D02*
X323193D01*
X313575Y525699D02*
X323189D01*
X315978Y521199D02*
X322295D01*
X315298Y524799D02*
X322293D01*
X316225Y522099D02*
X321877D01*
X315934Y523899D02*
X321877D01*
X316212Y522999D02*
X321750D01*
X240950Y136899D02*
X321550D01*
X268057Y120699D02*
X320925D01*
X318434Y114399D02*
X320528D01*
X242559Y128799D02*
X319941D01*
X242830Y135999D02*
X319670D01*
X268994Y119799D02*
X319202D01*
X317798Y115299D02*
X319109D01*
X243522Y129699D02*
X318978D01*
X243674Y135099D02*
X318826D01*
X269682Y118899D02*
X318566D01*
X316075Y116199D02*
X318522D01*
X244079Y130599D02*
X318421D01*
X244167Y134199D02*
X318333D01*
X270194Y117999D02*
X318288D01*
X270566Y117099D02*
X318275D01*
X244387Y131499D02*
X318113D01*
X244429Y133299D02*
X318071D01*
X244499Y132399D02*
X318001D01*
X270818Y116199D02*
X314925D01*
X269544Y109899D02*
X314528D01*
X270960Y115299D02*
X313202D01*
X270092Y110799D02*
X313109D01*
X270999Y114399D02*
X312566D01*
X270494Y111699D02*
X312522D01*
X290094Y525699D02*
X312425D01*
X270937Y113499D02*
X312288D01*
X270771Y112599D02*
X312275D01*
X290565Y519399D02*
X312028D01*
X290495Y524799D02*
X310702D01*
X290817Y520299D02*
X310609D01*
X290771Y523899D02*
X310066D01*
X290960Y521199D02*
X310022D01*
X290937Y522999D02*
X309788D01*
X290999Y522099D02*
X309775D01*
X217061Y178299D02*
X306848D01*
X104500Y172899D02*
X306552D01*
X165225Y177399D02*
X305862D01*
X162561Y173799D02*
X305731D01*
X165211Y176499D02*
X305407D01*
X164295Y174699D02*
X305350D01*
X164932Y175599D02*
X305251D01*
X200711Y189999D02*
X305209D01*
X200725Y190899D02*
X304273D01*
X226937Y499599D02*
X303563D01*
X200479Y191799D02*
X303373D01*
X199893Y192699D02*
X302473D01*
X228563Y507699D02*
X301937D01*
X198480Y193599D02*
X301759D01*
X228827Y500499D02*
X301673D01*
X132253Y194499D02*
X301509D01*
X104500Y198099D02*
X301500D01*
X104500Y197199D02*
X301500D01*
X104500Y196299D02*
X301500D01*
X104500Y195399D02*
X301500D01*
X229524Y506799D02*
X300976D01*
X229672Y501399D02*
X300828D01*
X193747Y198999D02*
X300673D01*
X230080Y505899D02*
X300420D01*
X230166Y502299D02*
X300334D01*
X230388Y504999D02*
X300112D01*
X230428Y503199D02*
X300072D01*
X230499Y504099D02*
X300001D01*
X297479Y430299D02*
X299939D01*
X293352Y199899D02*
X299773D01*
X298828Y442899D02*
X299530D01*
X269952Y436599D02*
X299520D01*
X298075Y437499D02*
X298925D01*
X296893Y431199D02*
X298205D01*
X270771Y435699D02*
X298107D01*
X295480Y432099D02*
X297568D01*
X271150Y434799D02*
X297521D01*
X271092Y432999D02*
X297289D01*
X271248Y433899D02*
X297275D01*
X294663Y200799D02*
X295873D01*
X292623Y447399D02*
X294530D01*
X250520Y425799D02*
X293939D01*
X240753Y437499D02*
X293925D01*
X270636Y432099D02*
X293520D01*
X292750Y446499D02*
X293437D01*
X275093Y441999D02*
X293437D01*
X274638Y442899D02*
X293172D01*
X273948Y438399D02*
X293172D01*
X292623Y445599D02*
X292941D01*
X275249Y441099D02*
X292941D01*
X291307Y443799D02*
X292827D01*
X274769Y439299D02*
X292827D01*
X292205Y444699D02*
X292756D01*
X275150Y440199D02*
X292756D01*
X245712Y225999D02*
X292500D01*
X245725Y225099D02*
X292500D01*
X245478Y224199D02*
X292500D01*
X244891Y223299D02*
X292500D01*
X243472Y222399D02*
X292500D01*
X104500Y221499D02*
X292500D01*
X214452Y220599D02*
X292500D01*
X214148Y215199D02*
X292500D01*
X195479Y214299D02*
X292500D01*
X195725Y213399D02*
X292500D01*
X195711Y212499D02*
X292500D01*
X195432Y211599D02*
X292500D01*
X259075Y210699D02*
X292500D01*
X260798Y209799D02*
X292500D01*
X261434Y208899D02*
X292500D01*
X250736Y426699D02*
X292205D01*
X215136Y216099D02*
X292155D01*
X215271Y219699D02*
X292113D01*
X269648Y431199D02*
X292107D01*
X215650Y218799D02*
X292100D01*
X215748Y217899D02*
X292100D01*
X215592Y216999D02*
X292100D01*
X245434Y226899D02*
X291773D01*
X250694Y427599D02*
X291568D01*
X254769Y430299D02*
X291521D01*
X250384Y428499D02*
X291289D01*
X253948Y429399D02*
X291275D01*
X244798Y227799D02*
X290873D01*
X198769Y304299D02*
X289888D01*
X273352Y199899D02*
X289648D01*
X273564Y207999D02*
X289436D01*
X194748Y312399D02*
X289253D01*
X199150Y305199D02*
X288442D01*
X274663Y200799D02*
X288337D01*
X274763Y207099D02*
X288237D01*
X194592Y311499D02*
X288145D01*
X199249Y306099D02*
X287694D01*
X285307Y443799D02*
X287693D01*
X285311Y449199D02*
X287689D01*
X275367Y201699D02*
X287633D01*
X275426Y206199D02*
X287574D01*
X194136Y310599D02*
X287519D01*
X199093Y306999D02*
X287258D01*
X275776Y202599D02*
X287224D01*
X275809Y205299D02*
X287191D01*
X193148Y309699D02*
X287163D01*
X198638Y307899D02*
X287040D01*
X275972Y203499D02*
X287028D01*
X275982Y204399D02*
X287018D01*
X197652Y308799D02*
X287010D01*
X286205Y444699D02*
X286795D01*
X286207Y448299D02*
X286793D01*
X179075Y273699D02*
X286017D01*
X243075Y228699D02*
X285473D01*
X180798Y272799D02*
X284970D01*
X275437Y229599D02*
X284573D01*
X181434Y271899D02*
X284070D01*
X277327Y230499D02*
X283673D01*
X214753Y270999D02*
X283170D01*
X278172Y231399D02*
X282773D01*
X215982Y270099D02*
X282368D01*
X278666Y232299D02*
X282171D01*
X216521Y269199D02*
X282033D01*
X278928Y233199D02*
X282000D01*
X216736Y268299D02*
X282000D01*
X216694Y267399D02*
X282000D01*
X216382Y266499D02*
X282000D01*
X215690Y265599D02*
X282000D01*
X176893Y264699D02*
X282000D01*
X177479Y263799D02*
X282000D01*
X177725Y262899D02*
X282000D01*
X177711Y261999D02*
X282000D01*
X177432Y261099D02*
X282000D01*
X176795Y260199D02*
X282000D01*
X175061Y259299D02*
X282000D01*
X152193Y258399D02*
X282000D01*
X152884Y257499D02*
X282000D01*
X153194Y256599D02*
X282000D01*
X153236Y255699D02*
X282000D01*
X153020Y254799D02*
X282000D01*
X152479Y253899D02*
X282000D01*
X151247Y252999D02*
X282000D01*
X104500Y252099D02*
X282000D01*
X104500Y251199D02*
X282000D01*
X104500Y250299D02*
X282000D01*
X104500Y249399D02*
X282000D01*
X150753Y248499D02*
X282000D01*
X151982Y247599D02*
X282000D01*
X152521Y246699D02*
X282000D01*
X208152Y245799D02*
X282000D01*
X209138Y244899D02*
X282000D01*
X209593Y243999D02*
X282000D01*
X209749Y243099D02*
X282000D01*
X209650Y242199D02*
X282000D01*
X209269Y241299D02*
X282000D01*
X208448Y240399D02*
X282000D01*
X153212Y239499D02*
X282000D01*
X153225Y238599D02*
X282000D01*
X277063Y237699D02*
X282000D01*
X278024Y236799D02*
X282000D01*
X278580Y235899D02*
X282000D01*
X278888Y234999D02*
X282000D01*
X278999Y234099D02*
X282000D01*
X278061Y443799D02*
X281693D01*
X279893Y449199D02*
X281689D01*
X279795Y444699D02*
X280795D01*
X280479Y448299D02*
X280793D01*
X205276Y529299D02*
X279724D01*
X205684Y514899D02*
X279316D01*
X222500Y362799D02*
X278939D01*
X222500Y369099D02*
X278520D01*
X206802Y528399D02*
X278198D01*
X207054Y515799D02*
X277946D01*
X222500Y363699D02*
X277205D01*
X207811Y527499D02*
X277189D01*
X222500Y368199D02*
X277107D01*
X207991Y516699D02*
X277009D01*
X274391Y443799D02*
X276939D01*
X222500Y364599D02*
X276568D01*
X222500Y367299D02*
X276521D01*
X104500Y450099D02*
X276520D01*
X208546Y526599D02*
X276454D01*
X208680Y517599D02*
X276320D01*
X222500Y365499D02*
X276289D01*
X222500Y366399D02*
X276275D01*
X232075Y525699D02*
X275906D01*
X209193Y518499D02*
X275807D01*
X244152Y524799D02*
X275505D01*
X244448Y519399D02*
X275435D01*
X245138Y523899D02*
X275229D01*
X274978Y444699D02*
X275205D01*
X245269Y520299D02*
X275183D01*
X272575Y449199D02*
X275107D01*
X245593Y522999D02*
X275063D01*
X245650Y521199D02*
X275040D01*
X245749Y522099D02*
X275001D01*
X274298Y448299D02*
X274521D01*
X104500Y229599D02*
X273563D01*
X168575Y237699D02*
X271937D01*
X268747Y450999D02*
X271753D01*
X104500Y230499D02*
X271673D01*
X241311Y449199D02*
X271425D01*
X269152Y461799D02*
X271348D01*
X170298Y236799D02*
X270976D01*
X168972Y231399D02*
X270828D01*
X269979Y451899D02*
X270521D01*
X170934Y235899D02*
X270420D01*
X270138Y460899D02*
X270362D01*
X170391Y232299D02*
X270334D01*
X171212Y234999D02*
X270112D01*
X170978Y233199D02*
X270072D01*
X241979Y438399D02*
X270052D01*
X171225Y234099D02*
X270001D01*
X242207Y448299D02*
X269702D01*
X194979Y199899D02*
X269648D01*
X241307Y443799D02*
X269609D01*
X261712Y207999D02*
X269436D01*
X241693Y442899D02*
X269362D01*
X242520Y439299D02*
X269231D01*
X242623Y447399D02*
X269066D01*
X242205Y444699D02*
X269022D01*
X242384Y441999D02*
X268907D01*
X242736Y440199D02*
X268850D01*
X242750Y446499D02*
X268788D01*
X242623Y445599D02*
X268775D01*
X242694Y441099D02*
X268751D01*
X266561Y200799D02*
X268337D01*
X266980Y207099D02*
X268237D01*
X255150Y431199D02*
X266352D01*
X263247Y450999D02*
X266253D01*
X241982Y436599D02*
X266048D01*
X263652Y461799D02*
X265848D01*
X195520Y200799D02*
X265439D01*
X255249Y432099D02*
X265364D01*
X242521Y435699D02*
X265229D01*
X264479Y451899D02*
X265021D01*
X261725Y207099D02*
X265020D01*
X255093Y432999D02*
X264908D01*
X264638Y460899D02*
X264862D01*
X253652Y434799D02*
X264850D01*
X254638Y433899D02*
X264752D01*
X195736Y201699D02*
X263705D01*
X261478Y206199D02*
X263607D01*
X195694Y202599D02*
X263068D01*
X260891Y205299D02*
X263021D01*
X182646Y122499D02*
X262854D01*
X195384Y203499D02*
X262789D01*
X259472Y204399D02*
X262775D01*
X222500Y356499D02*
X261747D01*
X235123Y351099D02*
X260810D01*
X104500Y450999D02*
X260753D01*
X222500Y355599D02*
X260518D01*
X104500Y461799D02*
X260348D01*
X235250Y351999D02*
X260118D01*
X233811Y354699D02*
X259979D01*
X104500Y456399D02*
X259807D01*
X235123Y352899D02*
X259806D01*
X234707Y353799D02*
X259764D01*
X185770Y107199D02*
X259730D01*
X104500Y451899D02*
X259521D01*
X104500Y460899D02*
X259362D01*
X186189Y121599D02*
X259311D01*
X104500Y457299D02*
X259231D01*
X104500Y455499D02*
X259116D01*
X104500Y452799D02*
X258980D01*
X104500Y459999D02*
X258907D01*
X104500Y458199D02*
X258850D01*
X104500Y454599D02*
X258806D01*
X104500Y453699D02*
X258764D01*
X104500Y459099D02*
X258751D01*
X187298Y108099D02*
X258202D01*
X249979Y424899D02*
X258003D01*
X187557Y120699D02*
X257943D01*
X199075Y210699D02*
X257925D01*
X199472Y204399D02*
X257528D01*
X222500Y379899D02*
X257353D01*
X188308Y108999D02*
X257192D01*
X188494Y119799D02*
X257006D01*
X189044Y109899D02*
X256456D01*
X222500Y380799D02*
X256373D01*
X189182Y118899D02*
X256318D01*
X200798Y209799D02*
X256202D01*
X200891Y205299D02*
X256109D01*
X189592Y110799D02*
X255908D01*
X189694Y117999D02*
X255806D01*
X201434Y208899D02*
X255566D01*
X201478Y206199D02*
X255522D01*
X189994Y111699D02*
X255506D01*
X222500Y381699D02*
X255473D01*
X190066Y117099D02*
X255434D01*
X201712Y207999D02*
X255288D01*
X201725Y207099D02*
X255275D01*
X248753Y423999D02*
X255247D01*
X190271Y112599D02*
X255229D01*
X190318Y116199D02*
X255182D01*
X190437Y113499D02*
X255063D01*
X190460Y115299D02*
X255040D01*
X190499Y114399D02*
X255001D01*
X222500Y382599D02*
X254573D01*
X249982Y423099D02*
X254018D01*
X222500Y383499D02*
X253811D01*
X222500Y384399D02*
X253519D01*
X250382Y419499D02*
X253500D01*
X252980Y418599D02*
X253500D01*
X252561Y412299D02*
X253500D01*
X222500Y411399D02*
X253500D01*
X222500Y410499D02*
X253500D01*
X222500Y409599D02*
X253500D01*
X222500Y408699D02*
X253500D01*
X222500Y407799D02*
X253500D01*
X222500Y406899D02*
X253500D01*
X222500Y405999D02*
X253500D01*
X222500Y405099D02*
X253500D01*
X222500Y404199D02*
X253500D01*
X222500Y403299D02*
X253500D01*
X222500Y402399D02*
X253500D01*
X222500Y401499D02*
X253500D01*
X222500Y400599D02*
X253500D01*
X222500Y399699D02*
X253500D01*
X222500Y398799D02*
X253500D01*
X222500Y397899D02*
X253500D01*
X222500Y396999D02*
X253500D01*
X222500Y396099D02*
X253500D01*
X222500Y395199D02*
X253500D01*
X222500Y394299D02*
X253500D01*
X222500Y393399D02*
X253500D01*
X222500Y392499D02*
X253500D01*
X222500Y391599D02*
X253500D01*
X222500Y390699D02*
X253500D01*
X222500Y389799D02*
X253500D01*
X222500Y388899D02*
X253500D01*
X222500Y387999D02*
X253500D01*
X222500Y387099D02*
X253500D01*
X222500Y386199D02*
X253500D01*
X222500Y385299D02*
X253500D01*
X250521Y422199D02*
X253479D01*
X250694Y420399D02*
X253306D01*
X250736Y421299D02*
X253264D01*
X222500Y412299D02*
X251439D01*
X249690Y418599D02*
X251020D01*
X249152Y434799D02*
X250348D01*
X249693Y429399D02*
X250052D01*
X249148Y413199D02*
X249705D01*
X222500Y423999D02*
X246247D01*
X222500Y413199D02*
X245852D01*
X242736Y434799D02*
X245848D01*
X222500Y418599D02*
X245310D01*
X242623Y429399D02*
X245307D01*
X222500Y424899D02*
X245021D01*
X222500Y423099D02*
X245018D01*
X222500Y414099D02*
X244864D01*
X242694Y433899D02*
X244862D01*
X242207Y430299D02*
X244731D01*
X222500Y417699D02*
X244729D01*
X222500Y419499D02*
X244618D01*
X242750Y428499D02*
X244616D01*
X241307Y425799D02*
X244480D01*
X222500Y422199D02*
X244479D01*
X222500Y414999D02*
X244408D01*
X242382Y432999D02*
X244407D01*
X241311Y431199D02*
X244350D01*
X222500Y416799D02*
X244350D01*
X222500Y420399D02*
X244306D01*
X242623Y427599D02*
X244306D01*
X242205Y426699D02*
X244264D01*
X222500Y421299D02*
X244264D01*
X222500Y415899D02*
X244252D01*
X241690Y432099D02*
X244251D01*
X104500Y228699D02*
X241925D01*
X104500Y222399D02*
X241528D01*
X233798Y524799D02*
X240848D01*
X232472Y519399D02*
X240552D01*
X104500Y227799D02*
X240202D01*
X104500Y223299D02*
X240109D01*
X234434Y523899D02*
X239862D01*
X233891Y520299D02*
X239731D01*
X104500Y226899D02*
X239566D01*
X104500Y224199D02*
X239522D01*
X234712Y522999D02*
X239407D01*
X234478Y521199D02*
X239350D01*
X104500Y225999D02*
X239288D01*
X104500Y225099D02*
X239275D01*
X234725Y522099D02*
X239251D01*
X104500Y136899D02*
X239050D01*
X236307Y425799D02*
X237693D01*
X234575Y449199D02*
X237689D01*
X163163Y128799D02*
X237441D01*
X162064Y135999D02*
X237170D01*
X236298Y448299D02*
X236793D01*
X163867Y129699D02*
X236478D01*
X163263Y135099D02*
X236326D01*
X164276Y130599D02*
X235921D01*
X163926Y134199D02*
X235833D01*
X164472Y131499D02*
X235613D01*
X164309Y133299D02*
X235571D01*
X164482Y132399D02*
X235501D01*
X104500Y449199D02*
X233425D01*
X222500Y437499D02*
X233247D01*
X231307Y425799D02*
X232693D01*
X231311Y431199D02*
X232689D01*
X222500Y432099D02*
X232310D01*
X222498Y442899D02*
X232307D01*
X222500Y438399D02*
X232021D01*
X222500Y436599D02*
X232018D01*
X104500Y448299D02*
X231702D01*
X222500Y432999D02*
X231618D01*
X222500Y441999D02*
X231616D01*
X222289Y443799D02*
X231609D01*
X222500Y439299D02*
X231480D01*
X222500Y435699D02*
X231479D01*
X222500Y433899D02*
X231306D01*
X222500Y441099D02*
X231306D01*
X222500Y440199D02*
X231264D01*
X222500Y434799D02*
X231264D01*
X218919Y447399D02*
X231066D01*
X221630Y444699D02*
X231022D01*
X209094Y525699D02*
X230925D01*
X219830Y446499D02*
X230788D01*
X220730Y445599D02*
X230775D01*
X209565Y519399D02*
X230528D01*
X222066Y349299D02*
X230193D01*
X222500Y354699D02*
X230189D01*
X222448Y350199D02*
X229295D01*
X222500Y353799D02*
X229293D01*
X209495Y524799D02*
X229202D01*
X209817Y520299D02*
X229109D01*
X222500Y351099D02*
X228877D01*
X222500Y352899D02*
X228877D01*
X222500Y351999D02*
X228750D01*
X209771Y523899D02*
X228566D01*
X209960Y521199D02*
X228522D01*
X209937Y522999D02*
X228288D01*
X209999Y522099D02*
X228275D01*
X222500Y425799D02*
X227693D01*
X222500Y431199D02*
X227689D01*
X222500Y426699D02*
X226795D01*
X222500Y430299D02*
X226793D01*
X222500Y427599D02*
X226377D01*
X222500Y429399D02*
X226377D01*
X222500Y428499D02*
X226250D01*
X104500Y499599D02*
X225063D01*
X104500Y294399D02*
X224030D01*
X104500Y507699D02*
X223437D01*
X104500Y500499D02*
X223173D01*
X192753Y293499D02*
X222937D01*
X104500Y506799D02*
X222476D01*
X193982Y292599D02*
X222441D01*
X104500Y501399D02*
X222328D01*
X194736Y290799D02*
X222327D01*
X194521Y291699D02*
X222256D01*
X104500Y505899D02*
X221920D01*
X104500Y502299D02*
X221834D01*
X104500Y504999D02*
X221612D01*
X104500Y503199D02*
X221572D01*
X104500Y504099D02*
X221501D01*
X194694Y289899D02*
X220030D01*
X104500Y284499D02*
X219425D01*
X194382Y288999D02*
X218937D01*
X104500Y285399D02*
X218672D01*
X193690Y288099D02*
X218441D01*
X104500Y286299D02*
X218327D01*
X171148Y287199D02*
X218256D01*
X200445Y326799D02*
X218193D01*
X104500Y332199D02*
X218189D01*
X200496Y327699D02*
X217295D01*
X198413Y331299D02*
X217293D01*
X200364Y328599D02*
X216877D01*
X199442Y330399D02*
X216877D01*
X200032Y329499D02*
X216750D01*
X199307Y178299D02*
X215939D01*
X104500Y184599D02*
X215520D01*
X200205Y179199D02*
X214205D01*
X199311Y183699D02*
X214107D01*
X200623Y180099D02*
X213568D01*
X200207Y182799D02*
X213521D01*
X200750Y180999D02*
X213289D01*
X200623Y181899D02*
X213275D01*
X181712Y270999D02*
X212247D01*
X175480Y265599D02*
X211310D01*
X208253Y149499D02*
X211247D01*
X181725Y270099D02*
X211018D01*
X194893Y215199D02*
X210852D01*
X104500Y266499D02*
X210618D01*
X104500Y220599D02*
X210548D01*
X181478Y269199D02*
X210479D01*
X209190Y144099D02*
X210310D01*
X179472Y267399D02*
X210306D01*
X180891Y268299D02*
X210264D01*
X209482Y148599D02*
X210018D01*
X193480Y216099D02*
X209864D01*
X104500Y219699D02*
X209729D01*
X116384Y216999D02*
X209408D01*
X104500Y218799D02*
X209350D01*
X115693Y217899D02*
X209252D01*
X152736Y245799D02*
X204848D01*
X203190Y144099D02*
X204810D01*
X152934Y240399D02*
X204552D01*
X203882Y144999D02*
X204118D01*
X152694Y244899D02*
X203862D01*
X152298Y241299D02*
X203731D01*
X198123Y159399D02*
X203530D01*
X152382Y243999D02*
X203407D01*
X150575Y242199D02*
X203350D01*
X151690Y243099D02*
X203251D01*
X136078Y153999D02*
X202925D01*
X136830Y153099D02*
X202518D01*
X198250Y158499D02*
X202437D01*
X104500Y154899D02*
X202172D01*
X137174Y152199D02*
X201979D01*
X198123Y157599D02*
X201941D01*
X196807Y155799D02*
X201827D01*
X137058Y150399D02*
X201806D01*
X137244Y151299D02*
X201764D01*
X197705Y156699D02*
X201756D01*
X196253Y149499D02*
X199747D01*
X197190Y144099D02*
X198810D01*
X104500Y529299D02*
X198724D01*
X197482Y148599D02*
X198518D01*
X123296Y514899D02*
X198316D01*
X197882Y144999D02*
X198118D01*
X194795Y210699D02*
X197925D01*
X194693Y204399D02*
X197528D01*
X104500Y528399D02*
X197198D01*
X123908Y515799D02*
X196946D01*
X192561Y187299D02*
X196939D01*
X192980Y193599D02*
X196520D01*
X193061Y209799D02*
X196202D01*
X104500Y527499D02*
X196189D01*
X188891Y205299D02*
X196109D01*
X124349Y516699D02*
X196009D01*
X164979Y178299D02*
X195693D01*
X126563Y183699D02*
X195689D01*
X189434Y208899D02*
X195566D01*
X189478Y206199D02*
X195522D01*
X119590Y526599D02*
X195454D01*
X124652Y517599D02*
X195320D01*
X189712Y207999D02*
X195288D01*
X189725Y207099D02*
X195275D01*
X194295Y188199D02*
X195205D01*
X194393Y192699D02*
X195107D01*
X121542Y525699D02*
X194906D01*
X124832Y518499D02*
X194807D01*
X164393Y179199D02*
X194795D01*
X127524Y182799D02*
X194793D01*
X155522Y323199D02*
X194678D01*
X122666Y524799D02*
X194505D01*
X124899Y519399D02*
X194435D01*
X162980Y180099D02*
X194377D01*
X128080Y181899D02*
X194377D01*
X193152Y308799D02*
X194348D01*
X128388Y180999D02*
X194250D01*
X123451Y523899D02*
X194229D01*
X124857Y520299D02*
X194183D01*
X124021Y522999D02*
X194063D01*
X193448Y298899D02*
X194052D01*
X124702Y521199D02*
X194040D01*
X124429Y522099D02*
X194001D01*
X136561Y149499D02*
X193747D01*
X116283Y331299D02*
X193587D01*
X104500Y155799D02*
X193193D01*
X134236Y161199D02*
X193189D01*
X156079Y324099D02*
X193054D01*
X104500Y144099D02*
X192810D01*
X152950Y330399D02*
X192558D01*
X135465Y148599D02*
X192518D01*
X104500Y156699D02*
X192295D01*
X134020Y160299D02*
X192293D01*
X156387Y324999D02*
X192259D01*
X104500Y144999D02*
X192118D01*
X104500Y147699D02*
X191979D01*
X154830Y329499D02*
X191968D01*
X188798Y209799D02*
X191939D01*
X104500Y157599D02*
X191877D01*
X133479Y159399D02*
X191877D01*
X104500Y145899D02*
X191806D01*
X156499Y325899D02*
X191795D01*
X104500Y146799D02*
X191764D01*
X132247Y158499D02*
X191750D01*
X155674Y328599D02*
X191636D01*
X156429Y326799D02*
X191555D01*
X116694Y216099D02*
X191520D01*
X156167Y327699D02*
X191504D01*
X104500Y187299D02*
X191439D01*
X134075Y198999D02*
X191253D01*
X133482Y193599D02*
X191020D01*
X187472Y204399D02*
X190307D01*
X182753Y293499D02*
X190247D01*
X187075Y210699D02*
X190205D01*
X116736Y215199D02*
X190107D01*
X122219Y321399D02*
X190030D01*
X134828Y199899D02*
X190021D01*
X104500Y309699D02*
X189852D01*
X104500Y308799D02*
X189848D01*
X104500Y188199D02*
X189705D01*
X134563Y203499D02*
X189616D01*
X134021Y192699D02*
X189607D01*
X104500Y211599D02*
X189568D01*
X189448Y298899D02*
X189552D01*
X104500Y315099D02*
X189548D01*
X116520Y214299D02*
X189521D01*
X135173Y200799D02*
X189480D01*
X117280Y315999D02*
X189425D01*
X183690Y288099D02*
X189310D01*
X135059Y202599D02*
X189306D01*
X114747Y212499D02*
X189289D01*
X115979Y213399D02*
X189275D01*
X135244Y201699D02*
X189264D01*
X133190Y189099D02*
X189068D01*
X134236Y191799D02*
X189021D01*
X183982Y292599D02*
X189018D01*
X121916Y320499D02*
X188937D01*
X104500Y310599D02*
X188864D01*
X133882Y189999D02*
X188789D01*
X134194Y190899D02*
X188775D01*
X104500Y314199D02*
X188729D01*
X119019Y316899D02*
X188672D01*
X184382Y288999D02*
X188618D01*
X184521Y291699D02*
X188479D01*
X121484Y319599D02*
X188441D01*
X104500Y311499D02*
X188408D01*
X104500Y313299D02*
X188350D01*
X120112Y317799D02*
X188327D01*
X184694Y289899D02*
X188306D01*
X184736Y290799D02*
X188264D01*
X120899Y318699D02*
X188256D01*
X104500Y312399D02*
X188252D01*
X104500Y210699D02*
X185925D01*
X104500Y298899D02*
X185552D01*
X133470Y204399D02*
X185528D01*
X104500Y307899D02*
X185307D01*
X104500Y303399D02*
X184862D01*
X104500Y299799D02*
X184731D01*
X104500Y306999D02*
X184616D01*
X104500Y304299D02*
X184480D01*
X104500Y302499D02*
X184407D01*
X104500Y300699D02*
X184350D01*
X104500Y306099D02*
X184306D01*
X104500Y305199D02*
X184264D01*
X104500Y301599D02*
X184251D01*
X104500Y209799D02*
X184202D01*
X104500Y205299D02*
X184109D01*
X104500Y208899D02*
X183566D01*
X104500Y206199D02*
X183522D01*
X104500Y207999D02*
X183288D01*
X104500Y207099D02*
X183275D01*
X122957Y122499D02*
X182354D01*
X104500Y293499D02*
X180247D01*
X172136Y288099D02*
X179310D01*
X104500Y338499D02*
X179253D01*
X104500Y107199D02*
X179230D01*
X171452Y292599D02*
X179018D01*
X123661Y121599D02*
X178811D01*
X172592Y288999D02*
X178618D01*
X172271Y291699D02*
X178479D01*
X104500Y343899D02*
X178307D01*
X172748Y289899D02*
X178306D01*
X172650Y290799D02*
X178264D01*
X104500Y339399D02*
X178021D01*
X116705Y273699D02*
X177925D01*
X104500Y108099D02*
X177702D01*
X104500Y342999D02*
X177616D01*
X104500Y267399D02*
X177528D01*
X104500Y340299D02*
X177480D01*
X124173Y120699D02*
X177443D01*
X104500Y342099D02*
X177306D01*
X104500Y341199D02*
X177264D01*
X104500Y108999D02*
X176692D01*
X124534Y119799D02*
X176506D01*
X115807Y272799D02*
X176202D01*
X104500Y268299D02*
X176109D01*
X104500Y109899D02*
X175956D01*
X124767Y118899D02*
X175818D01*
X104500Y271899D02*
X175566D01*
X104500Y269199D02*
X175522D01*
X120639Y110799D02*
X175408D01*
X124883Y117999D02*
X175306D01*
X104500Y270999D02*
X175288D01*
X104500Y270099D02*
X175275D01*
X104500Y345699D02*
X175230D01*
X122094Y111699D02*
X175006D01*
X124889Y117099D02*
X174934D01*
X123044Y112599D02*
X174729D01*
X124785Y116199D02*
X174682D01*
X123725Y113499D02*
X174563D01*
X124565Y115299D02*
X174540D01*
X124219Y114399D02*
X174501D01*
X104500Y346599D02*
X174073D01*
X104500Y259299D02*
X173939D01*
X104500Y447399D02*
X173581D01*
X104500Y265599D02*
X173520D01*
X104500Y347499D02*
X173173D01*
X104500Y446499D02*
X172670D01*
X104500Y348399D02*
X172273D01*
X104500Y260199D02*
X172205D01*
X104500Y264699D02*
X172107D01*
X104500Y445599D02*
X171770D01*
X104500Y261099D02*
X171568D01*
X104500Y263799D02*
X171521D01*
X104500Y349299D02*
X171434D01*
X104500Y261999D02*
X171289D01*
X104500Y262899D02*
X171275D01*
X104500Y444699D02*
X171170D01*
X104500Y350199D02*
X171052D01*
X104500Y443799D02*
X171000D01*
X104500Y442899D02*
X171000D01*
X104500Y441999D02*
X171000D01*
X104500Y441099D02*
X171000D01*
X104500Y440199D02*
X171000D01*
X104500Y430299D02*
X171000D01*
X104500Y429399D02*
X171000D01*
X104500Y428499D02*
X171000D01*
X104500Y422199D02*
X171000D01*
X104500Y421299D02*
X171000D01*
X104500Y420399D02*
X171000D01*
X104500Y419499D02*
X171000D01*
X104500Y418599D02*
X171000D01*
X104500Y417699D02*
X171000D01*
X104500Y416799D02*
X171000D01*
X104500Y415899D02*
X171000D01*
X104500Y414999D02*
X171000D01*
X104500Y414099D02*
X171000D01*
X104500Y413199D02*
X171000D01*
X104500Y412299D02*
X171000D01*
X104500Y411399D02*
X171000D01*
X104500Y410499D02*
X171000D01*
X104500Y409599D02*
X171000D01*
X104500Y408699D02*
X171000D01*
X104500Y407799D02*
X171000D01*
X161693Y406899D02*
X171000D01*
X162384Y405999D02*
X171000D01*
X162694Y405099D02*
X171000D01*
X162736Y404199D02*
X171000D01*
X162520Y403299D02*
X171000D01*
X161979Y402399D02*
X171000D01*
X160747Y401499D02*
X171000D01*
X104500Y400599D02*
X171000D01*
X104500Y399699D02*
X171000D01*
X104500Y398799D02*
X171000D01*
X104500Y397899D02*
X171000D01*
X104500Y396999D02*
X171000D01*
X104500Y396099D02*
X171000D01*
X104500Y395199D02*
X171000D01*
X104500Y394299D02*
X171000D01*
X104500Y393399D02*
X171000D01*
X104500Y392499D02*
X171000D01*
X104500Y391599D02*
X171000D01*
X104500Y390699D02*
X171000D01*
X104500Y389799D02*
X171000D01*
X166747Y388899D02*
X171000D01*
X167855Y387999D02*
X171000D01*
X168481Y387099D02*
X171000D01*
X168837Y386199D02*
X171000D01*
X168990Y385299D02*
X171000D01*
X168960Y384399D02*
X171000D01*
X168742Y383499D02*
X171000D01*
X168306Y382599D02*
X171000D01*
X167558Y381699D02*
X171000D01*
X166112Y380799D02*
X171000D01*
X104500Y379899D02*
X171000D01*
X104500Y378999D02*
X171000D01*
X104500Y378099D02*
X171000D01*
X104500Y377199D02*
X171000D01*
X104500Y376299D02*
X171000D01*
X104500Y375399D02*
X171000D01*
X104500Y374499D02*
X171000D01*
X104500Y373599D02*
X171000D01*
X104500Y372699D02*
X171000D01*
X104500Y371799D02*
X171000D01*
X104500Y370899D02*
X171000D01*
X104500Y369999D02*
X171000D01*
X104500Y369099D02*
X171000D01*
X104500Y368199D02*
X171000D01*
X104500Y367299D02*
X171000D01*
X104500Y366399D02*
X171000D01*
X104500Y365499D02*
X171000D01*
X104500Y364599D02*
X171000D01*
X104500Y363699D02*
X171000D01*
X104500Y362799D02*
X171000D01*
X104500Y361899D02*
X171000D01*
X104500Y360999D02*
X171000D01*
X104500Y360099D02*
X171000D01*
X104500Y359199D02*
X171000D01*
X104500Y358299D02*
X171000D01*
X104500Y357399D02*
X171000D01*
X104500Y356499D02*
X171000D01*
X104500Y355599D02*
X171000D01*
X104500Y354699D02*
X171000D01*
X104500Y353799D02*
X171000D01*
X104500Y352899D02*
X171000D01*
X104500Y351999D02*
X171000D01*
X104500Y351099D02*
X171000D01*
X104500Y423099D02*
X170901D01*
X104500Y427599D02*
X170725D01*
X104500Y426699D02*
X170600D01*
X104500Y425799D02*
X170600D01*
X104500Y424899D02*
X170600D01*
X104500Y423999D02*
X170600D01*
X104500Y431199D02*
X170178D01*
X104500Y439299D02*
X169087D01*
X104500Y432099D02*
X168554D01*
X104500Y438399D02*
X168058D01*
X104500Y287199D02*
X167852D01*
X104500Y432999D02*
X167759D01*
X104500Y292599D02*
X167548D01*
X104500Y437499D02*
X167468D01*
X152978Y237699D02*
X167425D01*
X104500Y433899D02*
X167295D01*
X104500Y436599D02*
X167136D01*
X104500Y434799D02*
X167055D01*
X104500Y231399D02*
X167028D01*
X104500Y435699D02*
X167004D01*
X104500Y288099D02*
X166864D01*
X104500Y291699D02*
X166729D01*
X104500Y288999D02*
X166408D01*
X104500Y290799D02*
X166350D01*
X104500Y289899D02*
X166252D01*
X152391Y236799D02*
X165702D01*
X104500Y232299D02*
X165609D01*
X150972Y235899D02*
X165066D01*
X104500Y233199D02*
X165022D01*
X104500Y234999D02*
X164788D01*
X104500Y234099D02*
X164775D01*
X104500Y380799D02*
X162888D01*
X104500Y388899D02*
X162253D01*
X104500Y381699D02*
X161442D01*
X104500Y173799D02*
X161439D01*
X104500Y387999D02*
X161145D01*
X128499Y180099D02*
X161020D01*
X104500Y382599D02*
X160694D01*
X104500Y387099D02*
X160519D01*
X104500Y383499D02*
X160258D01*
X104500Y386199D02*
X160163D01*
X104500Y384399D02*
X160040D01*
X104500Y385299D02*
X160010D01*
X104500Y174699D02*
X159705D01*
X128428Y179199D02*
X159607D01*
X124937Y175599D02*
X159068D01*
X128166Y178299D02*
X159021D01*
X126827Y176499D02*
X158789D01*
X127672Y177399D02*
X158775D01*
X104500Y401499D02*
X158253D01*
X104500Y127899D02*
X158148D01*
X104500Y135999D02*
X157936D01*
X104500Y406899D02*
X157307D01*
X104500Y402399D02*
X157021D01*
X104500Y128799D02*
X156837D01*
X104500Y135099D02*
X156737D01*
X104500Y405999D02*
X156616D01*
X104500Y403299D02*
X156480D01*
X104500Y405099D02*
X156306D01*
X104500Y404199D02*
X156264D01*
X104500Y129699D02*
X156133D01*
X104500Y134199D02*
X156074D01*
X104500Y130599D02*
X155724D01*
X104500Y133299D02*
X155691D01*
X104500Y131499D02*
X155528D01*
X104500Y132399D02*
X155518D01*
X118551Y330399D02*
X151050D01*
X122409Y322299D02*
X149441D01*
X104500Y242199D02*
X149425D01*
X119793Y329499D02*
X149170D01*
X104500Y235899D02*
X149028D01*
X104500Y252999D02*
X148753D01*
X122494Y323199D02*
X148478D01*
X120665Y328599D02*
X148326D01*
X104500Y248499D02*
X148247D01*
X122478Y324099D02*
X147921D01*
X121310Y327699D02*
X147833D01*
X104500Y258399D02*
X147807D01*
X104500Y241299D02*
X147702D01*
X122358Y324999D02*
X147613D01*
X104500Y236799D02*
X147609D01*
X121788Y326799D02*
X147571D01*
X104500Y253899D02*
X147521D01*
X122132Y325899D02*
X147501D01*
X104500Y243099D02*
X147310D01*
X104500Y257499D02*
X147116D01*
X104500Y240399D02*
X147066D01*
X104500Y237699D02*
X147022D01*
X104500Y247599D02*
X147018D01*
X104500Y254799D02*
X146980D01*
X104500Y256599D02*
X146806D01*
X104500Y239499D02*
X146788D01*
X104500Y238599D02*
X146775D01*
X104500Y255699D02*
X146764D01*
X104500Y243999D02*
X146618D01*
X104500Y246699D02*
X146479D01*
X104500Y244899D02*
X146306D01*
X104500Y245799D02*
X146264D01*
X104500Y148599D02*
X132535D01*
X104500Y153999D02*
X131922D01*
X104500Y149499D02*
X131439D01*
X104500Y153099D02*
X131170D01*
X104500Y150399D02*
X130942D01*
X104500Y152199D02*
X130826D01*
X104500Y151299D02*
X130756D01*
X104500Y204399D02*
X130530D01*
X104500Y198999D02*
X129925D01*
X104500Y158499D02*
X129753D01*
X104500Y194499D02*
X129747D01*
X104500Y203499D02*
X129437D01*
X104500Y199899D02*
X129172D01*
X104500Y202599D02*
X128941D01*
X104500Y200799D02*
X128827D01*
X104500Y189099D02*
X128810D01*
X104500Y163899D02*
X128807D01*
X104500Y201699D02*
X128756D01*
X104500Y159399D02*
X128521D01*
X104500Y193599D02*
X128518D01*
X104500Y189999D02*
X128118D01*
X104500Y162999D02*
X128116D01*
X104500Y160299D02*
X127980D01*
X104500Y192699D02*
X127979D01*
X104500Y190899D02*
X127806D01*
X104500Y162099D02*
X127806D01*
X104500Y161199D02*
X127764D01*
X104500Y191799D02*
X127764D01*
X104500Y175599D02*
X123063D01*
X104500Y183699D02*
X121437D01*
X104500Y176499D02*
X121173D01*
X104500Y182799D02*
X120476D01*
X104500Y177399D02*
X120328D01*
X104500Y181899D02*
X119920D01*
X104500Y178299D02*
X119834D01*
X104500Y180999D02*
X119612D01*
X104500Y179199D02*
X119572D01*
X104500Y180099D02*
X119501D01*
X104500Y512199D02*
X116295D01*
X104500Y526599D02*
X115410D01*
X104500Y124299D02*
X114578D01*
X104500Y110799D02*
X114361D01*
X104500Y513099D02*
X113787D01*
X104500Y525699D02*
X113458D01*
X104500Y123399D02*
X113032D01*
X104500Y111699D02*
X112906D01*
X104500Y331299D02*
X112717D01*
X104500Y513999D02*
X112551D01*
X104500Y524799D02*
X112334D01*
X104500Y212499D02*
X112253D01*
X104500Y272799D02*
X112193D01*
X104500Y278199D02*
X112189D01*
X104500Y122499D02*
X112043D01*
X104500Y112599D02*
X111956D01*
X104500Y315999D02*
X111720D01*
X104500Y514899D02*
X111704D01*
X104500Y523899D02*
X111549D01*
X104500Y121599D02*
X111339D01*
X104500Y217899D02*
X111307D01*
X104500Y273699D02*
X111295D01*
X104500Y277299D02*
X111293D01*
X104500Y113499D02*
X111275D01*
X104500Y515799D02*
X111092D01*
X104500Y213399D02*
X111021D01*
X104500Y522999D02*
X110979D01*
X104500Y274599D02*
X110877D01*
X104500Y276399D02*
X110877D01*
X104500Y120699D02*
X110827D01*
X104500Y114399D02*
X110781D01*
X104500Y275499D02*
X110750D01*
X104500Y516699D02*
X110651D01*
X104500Y216999D02*
X110616D01*
X104500Y522099D02*
X110571D01*
X104500Y214299D02*
X110480D01*
X104500Y119799D02*
X110466D01*
X104500Y330399D02*
X110449D01*
X104500Y115299D02*
X110435D01*
X104500Y517599D02*
X110348D01*
X104500Y216099D02*
X110306D01*
X104500Y521199D02*
X110298D01*
X104500Y215199D02*
X110264D01*
X104500Y118899D02*
X110233D01*
X104500Y116199D02*
X110215D01*
X104500Y518499D02*
X110168D01*
X104500Y520299D02*
X110143D01*
X104500Y117999D02*
X110117D01*
X104500Y117099D02*
X110111D01*
X104500Y519399D02*
X110101D01*
X104500Y316899D02*
X109981D01*
X104500Y329499D02*
X109207D01*
X104500Y317799D02*
X108888D01*
X104500Y328599D02*
X108335D01*
X104500Y318699D02*
X108101D01*
X104500Y327699D02*
X107690D01*
X104500Y319599D02*
X107516D01*
X104500Y326799D02*
X107212D01*
X104500Y320499D02*
X107084D01*
X104500Y325899D02*
X106868D01*
X104500Y321399D02*
X106781D01*
X104500Y324999D02*
X106642D01*
X104500Y322299D02*
X106591D01*
X104500Y324099D02*
X106522D01*
X104500Y323199D02*
X106506D01*
X630025Y244630D02*
X630312D01*
X100500Y100500D02*
X664000D01*
Y536000*
X100500*
Y100500*
G54D40*
X647000Y529000D03*
X637500Y519500D03*
X647000Y510000D03*
X656500Y519500D03*
X653750Y526250D03*
X640250D03*
Y512750D03*
X653750D03*
X117500Y529000D03*
X108000Y519500D03*
X117500Y510000D03*
X127000Y519500D03*
X124250Y526250D03*
X110750D03*
Y512750D03*
X124250D03*
X117500Y127000D03*
X108000Y117500D03*
X117500Y108000D03*
X127000Y117500D03*
X124250Y124250D03*
X110750D03*
Y110750D03*
X124250D03*
X647000Y127000D03*
X637500Y117500D03*
X647000Y108000D03*
X656500Y117500D03*
X653750Y124250D03*
X640250D03*
Y110750D03*
X653750D03*
G54D44*
X647000Y519500D03*
X117500D03*
Y117500D03*
X647000D03*
G54D45*
G54D46*
X170500Y425500D03*
X174000D03*
X292000Y218000D03*
X295500D03*
G54D49*
X315500Y425500D03*
Y422000D03*
G74*
X0Y0D02*
M02*
