*
*
G04 PADS 9.2 Build Number: 406656 generated Gerber (RS-274-X) file*
G04 PC Version=2.1*
*
%IN "POWERDESIGN_PCB_V03_051"*%
*
%MOIN*%
*
%FSLAX35Y35*%
*
*
*
*
G04 PC Standard Apertures*
*
*
G04 Thermal Relief Aperture macro.*
%AMTER*
1,1,$1,0,0*
1,0,$1-$2,0,0*
21,0,$3,$4,0,0,45*
21,0,$3,$4,0,0,135*
%
*
*
G04 Annular Aperture macro.*
%AMANN*
1,1,$1,0,0*
1,0,$2,0,0*
%
*
*
G04 Odd Aperture macro.*
%AMODD*
1,1,$1,0,0*
1,0,$1-0.005,0,0*
%
*
*
G04 PC Custom Aperture Macros*
*
*
*
*
*
*
G04 PC Aperture Table*
*
%ADD019C,0.06*%
%ADD021R,0.07X0.07*%
%ADD027R,0.06X0.06*%
%ADD033C,0.01*%
%ADD035C,0.04*%
%ADD045C,0.001*%
%ADD098R,0.14X0.14*%
%ADD099C,0.14*%
%ADD101C,0.07*%
%ADD127C,0.148*%
*
*
*
*
G04 PC Circuitry*
G04 Layer Name POWERDESIGN_PCB_V03_051 - circuitry*
%LPD*%
*
*
G04 PC Custom Flashes*
G04 Layer Name POWERDESIGN_PCB_V03_051 - flashes*
%LPD*%
*
*
G04 PC Circuitry*
G04 Layer Name POWERDESIGN_PCB_V03_051 - circuitry*
%LPD*%
*
G54D19*
G01X657500Y411500D03*
Y401500D03*
G54D21*
Y384500D03*
X476500Y253500D03*
G54D27*
X657500Y421500D03*
G54D33*
X100500Y100500D02*
X664000D01*
Y536000*
X100500*
Y100500*
G54D35*
X647000Y529000D03*
X637500Y519500D03*
X647000Y510000D03*
X656500Y519500D03*
X653750Y526250D03*
X640250D03*
Y512750D03*
X653750D03*
X117500Y529000D03*
X108000Y519500D03*
X117500Y510000D03*
X127000Y519500D03*
X124250Y526250D03*
X110750D03*
Y512750D03*
X124250D03*
X117500Y127000D03*
X108000Y117500D03*
X117500Y108000D03*
X127000Y117500D03*
X124250Y124250D03*
X110750D03*
Y110750D03*
X124250D03*
X647000Y127000D03*
X637500Y117500D03*
X647000Y108000D03*
X656500Y117500D03*
X653750Y124250D03*
X640250D03*
Y110750D03*
X653750D03*
X117500Y140000D03*
X642000Y482000D03*
G54D45*
G54D98*
X114500Y323500D03*
X425000Y114500D03*
X506000D03*
X587000D03*
X182500D03*
X202000Y522000D03*
X607000D03*
X445000D03*
X526000D03*
X283000D03*
X364000D03*
X344000Y114500D03*
X263000D03*
G54D99*
X114500Y303500D03*
X445000Y114500D03*
X526000D03*
X607000D03*
X202500D03*
X182000Y522000D03*
X587000D03*
X425000D03*
X506000D03*
X263000D03*
X344000D03*
X364000Y114500D03*
X283000D03*
G54D101*
X196000Y327500D03*
X291500Y308500D03*
X328500Y219000D03*
X164500Y385000D03*
X181000D03*
X556000Y487500D03*
X602500Y268000D03*
X564500Y255500D03*
X574500D03*
X517000Y193500D03*
X600000Y236000D03*
X611000D03*
X629000Y504000D03*
X466500D03*
X291500Y204000D03*
X271500D03*
X274500Y234000D03*
X657500Y374500D03*
Y364500D03*
Y354500D03*
Y344500D03*
X124000Y180000D03*
X171500Y435500D03*
X158500Y504000D03*
X401500D03*
X239500D03*
X321000Y503500D03*
X483000Y504000D03*
X387000Y132500D03*
X469500D03*
X225000D03*
X550000Y133500D03*
X657000D03*
X564000Y504000D03*
X304500D03*
X386000D03*
X548500D03*
X322500Y132500D03*
X403000D03*
X160000Y132000D03*
X485000Y132500D03*
X564500Y133500D03*
X226000Y504000D03*
X240000Y132500D03*
X306000D03*
X152000Y326000D03*
Y306500D03*
X486500Y253500D03*
X496500D03*
X506500D03*
Y283500D03*
X496500D03*
X486500D03*
X476500D03*
G54D127*
X647000Y519500D03*
X117500D03*
Y117500D03*
X647000D03*
X0Y0D02*
M02*
