*
*
G04 PADS 9.2 Build Number: 406656 generated Gerber (RS-274-X) file*
G04 PC Version=2.1*
*
%IN "POWERDESIGN_PCB_V03_051"*%
*
%MOIN*%
*
%FSLAX35Y35*%
*
*
*
*
G04 PC Standard Apertures*
*
*
G04 Thermal Relief Aperture macro.*
%AMTER*
1,1,$1,0,0*
1,0,$1-$2,0,0*
21,0,$3,$4,0,0,45*
21,0,$3,$4,0,0,135*
%
*
*
G04 Annular Aperture macro.*
%AMANN*
1,1,$1,0,0*
1,0,$2,0,0*
%
*
*
G04 Odd Aperture macro.*
%AMODD*
1,1,$1,0,0*
1,0,$1-0.005,0,0*
%
*
*
G04 PC Custom Aperture Macros*
*
*
*
*
*
*
G04 PC Aperture Table*
*
%ADD018C,0.05*%
%ADD019C,0.06*%
%ADD021R,0.07X0.07*%
%ADD027R,0.06X0.06*%
%ADD033C,0.01*%
%ADD035C,0.04*%
%ADD045C,0.001*%
%ADD086R,0.048X0.04*%
%ADD087O,0.06X0.034*%
%ADD088R,0.0509X0.0234*%
%ADD089R,0.04X0.048*%
%ADD090O,0.034X0.06*%
%ADD091O,0.045X0.05*%
%ADD093R,0.08X0.06*%
%ADD094R,0.0569X0.0234*%
%ADD095R,0.07X0.06*%
%ADD096R,0.06X0.07*%
%ADD097R,0.0328X0.049*%
%ADD098R,0.14X0.14*%
%ADD099C,0.14*%
%ADD100R,0.06X0.08*%
%ADD101C,0.07*%
%ADD102O,0.09X0.035*%
%ADD104R,0.16X0.1*%
%ADD106R,0.049X0.0328*%
%ADD107R,0.18X0.05*%
%ADD110R,0.0242X0.0411*%
%ADD111R,0.0399X0.0411*%
%ADD114R,0.135X0.055*%
%ADD115R,0.05X0.035*%
%ADD116R,0.023X0.04*%
%ADD117R,0.04X0.023*%
%ADD118R,0.0332X0.0246*%
%ADD121C,0.0242*%
%ADD122R,0.045X0.025*%
%ADD123R,0.025X0.045*%
%ADD124C,0.0254*%
%ADD126C,0.25*%
%ADD144R,0.06X0.022*%
%ADD145R,0.022X0.06*%
%ADD146R,0.049X0.0265*%
%ADD147O,0.07X0.09*%
%ADD148R,0.05X0.18*%
%ADD149R,0.07X0.11*%
%ADD150O,0.07X0.06*%
%ADD151R,0.11X0.128*%
%ADD152O,0.06X0.07*%
%ADD153R,0.0234X0.0569*%
%ADD154R,0.128X0.11*%
%ADD155R,0.04937X0.08874*%
%ADD156R,0.04937X0.12811*%
%ADD157R,0.1X0.16*%
%ADD158O,0.09X0.07*%
*
*
*
*
G04 PC Circuitry*
G04 Layer Name POWERDESIGN_PCB_V03_051 - circuitry*
%LPD*%
*
*
G04 PC Custom Flashes*
G04 Layer Name POWERDESIGN_PCB_V03_051 - flashes*
%LPD*%
*
*
G04 PC Circuitry*
G04 Layer Name POWERDESIGN_PCB_V03_051 - circuitry*
%LPD*%
*
G54D18*
G01X155500Y341400D03*
Y353600D03*
X387000Y238600D03*
Y226400D03*
X214900Y438500D03*
X227100D03*
X293500Y296100D03*
Y283900D03*
X451000Y240100D03*
Y227900D03*
G54D19*
X657500Y411500D03*
Y401500D03*
G54D21*
Y384500D03*
X562000Y222250D03*
Y208750D03*
X574750Y193000D03*
X561250D03*
X157250Y152500D03*
X170750D03*
X250750D03*
X237250D03*
X277750Y166000D03*
X291250D03*
X277750Y178500D03*
X291250D03*
X346750Y163000D03*
X360250D03*
X277750Y191000D03*
X291250D03*
X197250Y152500D03*
X183750D03*
X197250Y164500D03*
X183750D03*
X370250Y199000D03*
X356750D03*
X370250Y211500D03*
X356750D03*
X370250Y223500D03*
X356750D03*
X623500Y211750D03*
Y225250D03*
X636000Y211750D03*
Y225250D03*
X132250Y407000D03*
X118750D03*
X181500Y473250D03*
Y459750D03*
X277750Y153500D03*
X291250D03*
X573500Y222250D03*
Y208750D03*
X192250Y207500D03*
X178750D03*
X157250Y164500D03*
X170750D03*
X253750Y457000D03*
X240250D03*
X387750Y483000D03*
X374250D03*
X253750Y469000D03*
X240250D03*
X253750Y481000D03*
X240250D03*
X494750Y153500D03*
X508250D03*
X582250Y150500D03*
X568750D03*
X476500Y253500D03*
X588750Y178000D03*
X575250D03*
X588750Y166000D03*
X575250D03*
X548250Y178000D03*
X561750D03*
X548250Y166000D03*
X561750D03*
G54D27*
X657500Y421500D03*
G54D33*
X495000Y367000D02*
Y345000D01*
X517000*
Y367000*
X495000*
Y345000D02*
Y367000D01*
X495500Y345000D02*
Y367000D01*
X496000Y345000D02*
Y367000D01*
X496500Y345000D02*
Y367000D01*
X497000Y345000D02*
Y367000D01*
X497500Y345000D02*
Y367000D01*
X498000Y345000D02*
Y367000D01*
X498500Y345000D02*
Y367000D01*
X499000Y345000D02*
Y367000D01*
X499500Y345000D02*
Y367000D01*
X500000Y345000D02*
Y367000D01*
X500500Y345000D02*
Y367000D01*
X501000Y345000D02*
Y367000D01*
X501500Y345000D02*
Y367000D01*
X502000Y345000D02*
Y367000D01*
X502500Y345000D02*
Y367000D01*
X503000Y345000D02*
Y367000D01*
X503500Y345000D02*
Y367000D01*
X504000Y345000D02*
Y367000D01*
X504500Y345000D02*
Y367000D01*
X505000Y345000D02*
Y367000D01*
X505500Y345000D02*
Y367000D01*
X506000Y345000D02*
Y367000D01*
X506500Y345000D02*
Y367000D01*
X507000Y345000D02*
Y367000D01*
X507500Y345000D02*
Y367000D01*
X508000Y345000D02*
Y367000D01*
X508500Y345000D02*
Y367000D01*
X509000Y345000D02*
Y367000D01*
X509500Y345000D02*
Y367000D01*
X510000Y345000D02*
Y367000D01*
X510500Y345000D02*
Y367000D01*
X511000Y345000D02*
Y367000D01*
X511500Y345000D02*
Y367000D01*
X512000Y345000D02*
Y367000D01*
X512500Y345000D02*
Y367000D01*
X513000Y345000D02*
Y367000D01*
X513500Y345000D02*
Y367000D01*
X514000Y345000D02*
Y367000D01*
X514500Y345000D02*
Y367000D01*
X515000Y345000D02*
Y367000D01*
X515500Y345000D02*
Y367000D01*
X516000Y345000D02*
Y367000D01*
X516500Y345000D02*
Y367000D01*
X308375Y424375D02*
X321625D01*
Y437625*
X308375*
Y424375*
X308500D02*
Y437625D01*
X309000Y424375D02*
Y437625D01*
X309500Y424375D02*
Y437625D01*
X310000Y424375D02*
Y437625D01*
X310500Y424375D02*
Y437625D01*
X311000Y424375D02*
Y437625D01*
X311500Y424375D02*
Y437625D01*
X312000Y424375D02*
Y437625D01*
X312500Y424375D02*
Y437625D01*
X313000Y424375D02*
Y437625D01*
X313500Y424375D02*
Y437625D01*
X314000Y424375D02*
Y437625D01*
X314500Y424375D02*
Y437625D01*
X315000Y424375D02*
Y437625D01*
X315500Y424375D02*
Y437625D01*
X316000Y424375D02*
Y437625D01*
X316500Y424375D02*
Y437625D01*
X317000Y424375D02*
Y437625D01*
X317500Y424375D02*
Y437625D01*
X318000Y424375D02*
Y437625D01*
X318500Y424375D02*
Y437625D01*
X319000Y424375D02*
Y437625D01*
X319500Y424375D02*
Y437625D01*
X320000Y424375D02*
Y437625D01*
X320500Y424375D02*
Y437625D01*
X321000Y424375D02*
Y437625D01*
X321500Y424375D02*
Y437625D01*
X431500Y462000D02*
Y454000D01*
X439500*
Y462000*
X431500*
Y454000D02*
Y462000D01*
X432000Y454000D02*
Y462000D01*
X432500Y454000D02*
Y462000D01*
X433000Y454000D02*
Y462000D01*
X433500Y454000D02*
Y462000D01*
X434000Y454000D02*
Y462000D01*
X434500Y454000D02*
Y462000D01*
X435000Y454000D02*
Y462000D01*
X435500Y454000D02*
Y462000D01*
X436000Y454000D02*
Y462000D01*
X436500Y454000D02*
Y462000D01*
X437000Y454000D02*
Y462000D01*
X437500Y454000D02*
Y462000D01*
X438000Y454000D02*
Y462000D01*
X438500Y454000D02*
Y462000D01*
X439000Y454000D02*
Y462000D01*
X184250Y324000D02*
X188400D01*
Y328000*
X184250*
Y324000*
X184500D02*
Y328000D01*
X185000Y324000D02*
Y328000D01*
X185500Y324000D02*
Y328000D01*
X186000Y324000D02*
Y328000D01*
X186500Y324000D02*
Y328000D01*
X187000Y324000D02*
Y328000D01*
X187500Y324000D02*
Y328000D01*
X188000Y324000D02*
Y328000D01*
Y324000D02*
X188750Y324201D01*
X189299Y324750*
X189500Y325500*
X189299Y326250*
X188750Y326799*
X188000Y327000*
X186000*
X185250Y326799*
X184701Y326250*
X184500Y325500*
X184701Y324750*
X185250Y324201*
X186000Y324000*
X188000*
X184500Y325500D02*
X184500D01*
X185000Y324451D02*
Y326549D01*
X185500Y324134D02*
Y326866D01*
X186000Y324000D02*
Y327000D01*
X186500Y324000D02*
Y327000D01*
X187000Y324000D02*
Y327000D01*
X187500Y324000D02*
Y327000D01*
X188000Y324000D02*
Y327000D01*
X188500Y324134D02*
Y326866D01*
X189000Y324451D02*
Y326549D01*
X188000Y319000D02*
X188750Y319201D01*
X189299Y319750*
X189500Y320500*
X189299Y321250*
X188750Y321799*
X188000Y322000*
X186000*
X185250Y321799*
X184701Y321250*
X184500Y320500*
X184701Y319750*
X185250Y319201*
X186000Y319000*
X188000*
X184500Y320500D02*
X184500D01*
X185000Y319451D02*
Y321549D01*
X185500Y319134D02*
Y321866D01*
X186000Y319000D02*
Y322000D01*
X186500Y319000D02*
Y322000D01*
X187000Y319000D02*
Y322000D01*
X187500Y319000D02*
Y322000D01*
X188000Y319000D02*
Y322000D01*
X188500Y319134D02*
Y321866D01*
X189000Y319451D02*
Y321549D01*
X184250Y308000D02*
X187750D01*
Y322000*
X184250*
Y308000*
X184500D02*
Y322000D01*
X185000Y308000D02*
Y322000D01*
X185500Y308000D02*
Y322000D01*
X186000Y308000D02*
Y322000D01*
X186500Y308000D02*
Y322000D01*
X187000Y308000D02*
Y322000D01*
X187500Y308000D02*
Y322000D01*
X188000Y314000D02*
X188750Y314201D01*
X189299Y314750*
X189500Y315500*
X189299Y316250*
X188750Y316799*
X188000Y317000*
X186000*
X185250Y316799*
X184701Y316250*
X184500Y315500*
X184701Y314750*
X185250Y314201*
X186000Y314000*
X188000*
X184500Y315500D02*
X184500D01*
X185000Y314451D02*
Y316549D01*
X185500Y314134D02*
Y316866D01*
X186000Y314000D02*
Y317000D01*
X186500Y314000D02*
Y317000D01*
X187000Y314000D02*
Y317000D01*
X187500Y314000D02*
Y317000D01*
X188000Y314000D02*
Y317000D01*
X188500Y314134D02*
Y316866D01*
X189000Y314451D02*
Y316549D01*
X188000Y309000D02*
X188750Y309201D01*
X189299Y309750*
X189500Y310500*
X189299Y311250*
X188750Y311799*
X188000Y312000*
X186000*
X185250Y311799*
X184701Y311250*
X184500Y310500*
X184701Y309750*
X185250Y309201*
X186000Y309000*
X188000*
X184500Y310500D02*
X184500D01*
X185000Y309451D02*
Y311549D01*
X185500Y309134D02*
Y311866D01*
X186000Y309000D02*
Y312000D01*
X186500Y309000D02*
Y312000D01*
X187000Y309000D02*
Y312000D01*
X187500Y309000D02*
Y312000D01*
X188000Y309000D02*
Y312000D01*
X188500Y309134D02*
Y311866D01*
X189000Y309451D02*
Y311549D01*
X163000Y308000D02*
X179500D01*
Y328000*
X163000*
Y308000*
Y328000*
X163500Y308000D02*
Y328000D01*
X164000Y308000D02*
Y328000D01*
X164500Y308000D02*
Y328000D01*
X165000Y308000D02*
Y328000D01*
X165500Y308000D02*
Y328000D01*
X166000Y308000D02*
Y328000D01*
X166500Y308000D02*
Y328000D01*
X167000Y308000D02*
Y328000D01*
X167500Y308000D02*
Y328000D01*
X168000Y308000D02*
Y328000D01*
X168500Y308000D02*
Y328000D01*
X169000Y308000D02*
Y328000D01*
X169500Y308000D02*
Y328000D01*
X170000Y308000D02*
Y328000D01*
X170500Y308000D02*
Y328000D01*
X171000Y308000D02*
Y328000D01*
X171500Y308000D02*
Y328000D01*
X172000Y308000D02*
Y328000D01*
X172500Y308000D02*
Y328000D01*
X173000Y308000D02*
Y328000D01*
X173500Y308000D02*
Y328000D01*
X174000Y308000D02*
Y328000D01*
X174500Y308000D02*
Y328000D01*
X175000Y308000D02*
Y328000D01*
X175500Y308000D02*
Y328000D01*
X176000Y308000D02*
Y328000D01*
X176500Y308000D02*
Y328000D01*
X177000Y308000D02*
Y328000D01*
X177500Y308000D02*
Y328000D01*
X178000Y308000D02*
Y328000D01*
X178500Y308000D02*
Y328000D01*
X179000Y308000D02*
Y328000D01*
X165000Y319000D02*
X165750Y319201D01*
X166299Y319750*
X166500Y320500*
X166299Y321250*
X165750Y321799*
X165000Y322000*
X163000*
X162250Y321799*
X161701Y321250*
X161500Y320500*
X161701Y319750*
X162250Y319201*
X163000Y319000*
X165000*
X161500Y320500D02*
X161500D01*
X162000Y319451D02*
Y321549D01*
X162500Y319134D02*
Y321866D01*
X163000Y319000D02*
Y322000D01*
X163500Y319000D02*
Y322000D01*
X164000Y319000D02*
Y322000D01*
X164500Y319000D02*
Y322000D01*
X165000Y319000D02*
Y322000D01*
X165500Y319134D02*
Y321866D01*
X166000Y319451D02*
Y321549D01*
X176500Y326000D02*
X176701Y325250D01*
X177250Y324701*
X178000Y324500*
X178750Y324701*
X179299Y325250*
X179500Y326000*
Y328000*
X179299Y328750*
X178750Y329299*
X178000Y329500*
X177250Y329299*
X176701Y328750*
X176500Y328000*
Y326000*
Y328000*
X177000Y324951D02*
Y329049D01*
X177500Y324634D02*
Y329366D01*
X178000Y324500D02*
Y329500D01*
X178500Y324634D02*
Y329366D01*
X179000Y324951D02*
Y329049D01*
X176500Y308000D02*
X176701Y307250D01*
X177250Y306701*
X178000Y306500*
X178750Y306701*
X179299Y307250*
X179500Y308000*
Y310000*
X179299Y310750*
X178750Y311299*
X178000Y311500*
X177250Y311299*
X176701Y310750*
X176500Y310000*
Y308000*
Y310000*
X177000Y306951D02*
Y311049D01*
X177500Y306634D02*
Y311366D01*
X178000Y306500D02*
Y311500D01*
X178500Y306634D02*
Y311366D01*
X179000Y306951D02*
Y311049D01*
X165000Y324000D02*
X165750Y324201D01*
X166299Y324750*
X166500Y325500*
X166299Y326250*
X165750Y326799*
X165000Y327000*
X163000*
X162250Y326799*
X161701Y326250*
X161500Y325500*
X161701Y324750*
X162250Y324201*
X163000Y324000*
X165000*
X161500Y325500D02*
X161500D01*
X162000Y324451D02*
Y326549D01*
X162500Y324134D02*
Y326866D01*
X163000Y324000D02*
Y327000D01*
X163500Y324000D02*
Y327000D01*
X164000Y324000D02*
Y327000D01*
X164500Y324000D02*
Y327000D01*
X165000Y324000D02*
Y327000D01*
X165500Y324134D02*
Y326866D01*
X166000Y324451D02*
Y326549D01*
X165000Y309000D02*
X165750Y309201D01*
X166299Y309750*
X166500Y310500*
X166299Y311250*
X165750Y311799*
X165000Y312000*
X163000*
X162250Y311799*
X161701Y311250*
X161500Y310500*
X161701Y309750*
X162250Y309201*
X163000Y309000*
X165000*
X161500Y310500D02*
X161500D01*
X162000Y309451D02*
Y311549D01*
X162500Y309134D02*
Y311866D01*
X163000Y309000D02*
Y312000D01*
X163500Y309000D02*
Y312000D01*
X164000Y309000D02*
Y312000D01*
X164500Y309000D02*
Y312000D01*
X165000Y309000D02*
Y312000D01*
X165500Y309134D02*
Y311866D01*
X166000Y309451D02*
Y311549D01*
X165000Y314000D02*
X165750Y314201D01*
X166299Y314750*
X166500Y315500*
X166299Y316250*
X165750Y316799*
X165000Y317000*
X163000*
X162250Y316799*
X161701Y316250*
X161500Y315500*
X161701Y314750*
X162250Y314201*
X163000Y314000*
X165000*
X161500Y315500D02*
X161500D01*
X162000Y314451D02*
Y316549D01*
X162500Y314134D02*
Y316866D01*
X163000Y314000D02*
Y317000D01*
X163500Y314000D02*
Y317000D01*
X164000Y314000D02*
Y317000D01*
X164500Y314000D02*
Y317000D01*
X165000Y314000D02*
Y317000D01*
X165500Y314134D02*
Y316866D01*
X166000Y314451D02*
Y316549D01*
X149800Y344000D02*
Y339300D01*
X151300Y337800*
X159500*
X161000Y339300*
Y344000*
X149800*
X150000Y339100D02*
Y344000D01*
X150500Y338600D02*
Y344000D01*
X151000Y338100D02*
Y344000D01*
X151500Y337800D02*
Y344000D01*
X152000Y337800D02*
Y344000D01*
X152500Y337800D02*
Y344000D01*
X153000Y337800D02*
Y344000D01*
X153500Y337800D02*
Y344000D01*
X154000Y337800D02*
Y344000D01*
X154500Y337800D02*
Y344000D01*
X155000Y337800D02*
Y344000D01*
X155500Y337800D02*
Y344000D01*
X156000Y337800D02*
Y344000D01*
X156500Y337800D02*
Y344000D01*
X157000Y337800D02*
Y344000D01*
X157500Y337800D02*
Y344000D01*
X158000Y337800D02*
Y344000D01*
X158500Y337800D02*
Y344000D01*
X159000Y337800D02*
Y344000D01*
X159500Y337800D02*
Y344000D01*
X160000Y338300D02*
Y344000D01*
X160500Y338800D02*
Y344000D01*
X161200Y351000D02*
Y355700D01*
X159700Y357200*
X151500*
X150000Y355700*
Y351000*
X161200*
X150000D02*
Y355700D01*
X150500Y351000D02*
Y356200D01*
X151000Y351000D02*
Y356700D01*
X151500Y351000D02*
Y357200D01*
X152000Y351000D02*
Y357200D01*
X152500Y351000D02*
Y357200D01*
X153000Y351000D02*
Y357200D01*
X153500Y351000D02*
Y357200D01*
X154000Y351000D02*
Y357200D01*
X154500Y351000D02*
Y357200D01*
X155000Y351000D02*
Y357200D01*
X155500Y351000D02*
Y357200D01*
X156000Y351000D02*
Y357200D01*
X156500Y351000D02*
Y357200D01*
X157000Y351000D02*
Y357200D01*
X157500Y351000D02*
Y357200D01*
X158000Y351000D02*
Y357200D01*
X158500Y351000D02*
Y357200D01*
X159000Y351000D02*
Y357200D01*
X159500Y351000D02*
Y357200D01*
X160000Y351000D02*
Y356900D01*
X160500Y351000D02*
Y356400D01*
X161000Y351000D02*
Y355900D01*
X392700Y236000D02*
Y240700D01*
X391200Y242200*
X383000*
X381500Y240700*
Y236000*
X392700*
X381500D02*
Y240700D01*
X382000Y236000D02*
Y241200D01*
X382500Y236000D02*
Y241700D01*
X383000Y236000D02*
Y242200D01*
X383500Y236000D02*
Y242200D01*
X384000Y236000D02*
Y242200D01*
X384500Y236000D02*
Y242200D01*
X385000Y236000D02*
Y242200D01*
X385500Y236000D02*
Y242200D01*
X386000Y236000D02*
Y242200D01*
X386500Y236000D02*
Y242200D01*
X387000Y236000D02*
Y242200D01*
X387500Y236000D02*
Y242200D01*
X388000Y236000D02*
Y242200D01*
X388500Y236000D02*
Y242200D01*
X389000Y236000D02*
Y242200D01*
X389500Y236000D02*
Y242200D01*
X390000Y236000D02*
Y242200D01*
X390500Y236000D02*
Y242200D01*
X391000Y236000D02*
Y242200D01*
X391500Y236000D02*
Y241900D01*
X392000Y236000D02*
Y241400D01*
X392500Y236000D02*
Y240900D01*
X381300Y229000D02*
Y224300D01*
X382800Y222800*
X391000*
X392500Y224300*
Y229000*
X381300*
X381500Y224100D02*
Y229000D01*
X382000Y223600D02*
Y229000D01*
X382500Y223100D02*
Y229000D01*
X383000Y222800D02*
Y229000D01*
X383500Y222800D02*
Y229000D01*
X384000Y222800D02*
Y229000D01*
X384500Y222800D02*
Y229000D01*
X385000Y222800D02*
Y229000D01*
X385500Y222800D02*
Y229000D01*
X386000Y222800D02*
Y229000D01*
X386500Y222800D02*
Y229000D01*
X387000Y222800D02*
Y229000D01*
X387500Y222800D02*
Y229000D01*
X388000Y222800D02*
Y229000D01*
X388500Y222800D02*
Y229000D01*
X389000Y222800D02*
Y229000D01*
X389500Y222800D02*
Y229000D01*
X390000Y222800D02*
Y229000D01*
X390500Y222800D02*
Y229000D01*
X391000Y222800D02*
Y229000D01*
X391500Y223300D02*
Y229000D01*
X392000Y223800D02*
Y229000D01*
X217500Y444200D02*
X212800D01*
X211300Y442700*
Y434500*
X212800Y433000*
X217500*
Y444200*
X211500Y434300D02*
Y442900D01*
X212000Y433800D02*
Y443400D01*
X212500Y433300D02*
Y443900D01*
X213000Y433000D02*
Y444200D01*
X213500Y433000D02*
Y444200D01*
X214000Y433000D02*
Y444200D01*
X214500Y433000D02*
Y444200D01*
X215000Y433000D02*
Y444200D01*
X215500Y433000D02*
Y444200D01*
X216000Y433000D02*
Y444200D01*
X216500Y433000D02*
Y444200D01*
X217000Y433000D02*
Y444200D01*
X224500Y432800D02*
X229200D01*
X230700Y434300*
Y442500*
X229200Y444000*
X224500*
Y432800*
Y444000*
X225000Y432800D02*
Y444000D01*
X225500Y432800D02*
Y444000D01*
X226000Y432800D02*
Y444000D01*
X226500Y432800D02*
Y444000D01*
X227000Y432800D02*
Y444000D01*
X227500Y432800D02*
Y444000D01*
X228000Y432800D02*
Y444000D01*
X228500Y432800D02*
Y444000D01*
X229000Y432800D02*
Y444000D01*
X229500Y433100D02*
Y443700D01*
X230000Y433600D02*
Y443200D01*
X230500Y434100D02*
Y442700D01*
X299200Y293500D02*
Y298200D01*
X297700Y299700*
X289500*
X288000Y298200*
Y293500*
X299200*
X288000D02*
Y298200D01*
X288500Y293500D02*
Y298700D01*
X289000Y293500D02*
Y299200D01*
X289500Y293500D02*
Y299700D01*
X290000Y293500D02*
Y299700D01*
X290500Y293500D02*
Y299700D01*
X291000Y293500D02*
Y299700D01*
X291500Y293500D02*
Y299700D01*
X292000Y293500D02*
Y299700D01*
X292500Y293500D02*
Y299700D01*
X293000Y293500D02*
Y299700D01*
X293500Y293500D02*
Y299700D01*
X294000Y293500D02*
Y299700D01*
X294500Y293500D02*
Y299700D01*
X295000Y293500D02*
Y299700D01*
X295500Y293500D02*
Y299700D01*
X296000Y293500D02*
Y299700D01*
X296500Y293500D02*
Y299700D01*
X297000Y293500D02*
Y299700D01*
X297500Y293500D02*
Y299700D01*
X298000Y293500D02*
Y299400D01*
X298500Y293500D02*
Y298900D01*
X299000Y293500D02*
Y298400D01*
X287800Y286500D02*
Y281800D01*
X289300Y280300*
X297500*
X299000Y281800*
Y286500*
X287800*
X288000Y281600D02*
Y286500D01*
X288500Y281100D02*
Y286500D01*
X289000Y280600D02*
Y286500D01*
X289500Y280300D02*
Y286500D01*
X290000Y280300D02*
Y286500D01*
X290500Y280300D02*
Y286500D01*
X291000Y280300D02*
Y286500D01*
X291500Y280300D02*
Y286500D01*
X292000Y280300D02*
Y286500D01*
X292500Y280300D02*
Y286500D01*
X293000Y280300D02*
Y286500D01*
X293500Y280300D02*
Y286500D01*
X294000Y280300D02*
Y286500D01*
X294500Y280300D02*
Y286500D01*
X295000Y280300D02*
Y286500D01*
X295500Y280300D02*
Y286500D01*
X296000Y280300D02*
Y286500D01*
X296500Y280300D02*
Y286500D01*
X297000Y280300D02*
Y286500D01*
X297500Y280300D02*
Y286500D01*
X298000Y280800D02*
Y286500D01*
X298500Y281300D02*
Y286500D01*
X456700Y237500D02*
Y242200D01*
X455200Y243700*
X447000*
X445500Y242200*
Y237500*
X456700*
X445500D02*
Y242200D01*
X446000Y237500D02*
Y242700D01*
X446500Y237500D02*
Y243200D01*
X447000Y237500D02*
Y243700D01*
X447500Y237500D02*
Y243700D01*
X448000Y237500D02*
Y243700D01*
X448500Y237500D02*
Y243700D01*
X449000Y237500D02*
Y243700D01*
X449500Y237500D02*
Y243700D01*
X450000Y237500D02*
Y243700D01*
X450500Y237500D02*
Y243700D01*
X451000Y237500D02*
Y243700D01*
X451500Y237500D02*
Y243700D01*
X452000Y237500D02*
Y243700D01*
X452500Y237500D02*
Y243700D01*
X453000Y237500D02*
Y243700D01*
X453500Y237500D02*
Y243700D01*
X454000Y237500D02*
Y243700D01*
X454500Y237500D02*
Y243700D01*
X455000Y237500D02*
Y243700D01*
X455500Y237500D02*
Y243400D01*
X456000Y237500D02*
Y242900D01*
X456500Y237500D02*
Y242400D01*
X445300Y230500D02*
Y225800D01*
X446800Y224300*
X455000*
X456500Y225800*
Y230500*
X445300*
X445500Y225600D02*
Y230500D01*
X446000Y225100D02*
Y230500D01*
X446500Y224600D02*
Y230500D01*
X447000Y224300D02*
Y230500D01*
X447500Y224300D02*
Y230500D01*
X448000Y224300D02*
Y230500D01*
X448500Y224300D02*
Y230500D01*
X449000Y224300D02*
Y230500D01*
X449500Y224300D02*
Y230500D01*
X450000Y224300D02*
Y230500D01*
X450500Y224300D02*
Y230500D01*
X451000Y224300D02*
Y230500D01*
X451500Y224300D02*
Y230500D01*
X452000Y224300D02*
Y230500D01*
X452500Y224300D02*
Y230500D01*
X453000Y224300D02*
Y230500D01*
X453500Y224300D02*
Y230500D01*
X454000Y224300D02*
Y230500D01*
X454500Y224300D02*
Y230500D01*
X455000Y224300D02*
Y230500D01*
X455500Y224800D02*
Y230500D01*
X456000Y225300D02*
Y230500D01*
X232000Y326750D02*
Y330900D01*
X228000*
Y326750*
X232000*
X228000D02*
Y330900D01*
X228500Y326750D02*
Y330900D01*
X229000Y326750D02*
Y330900D01*
X229500Y326750D02*
Y330900D01*
X230000Y326750D02*
Y330900D01*
X230500Y326750D02*
Y330900D01*
X231000Y326750D02*
Y330900D01*
X231500Y326750D02*
Y330900D01*
X232000Y330500D02*
X231799Y331250D01*
X231250Y331799*
X230500Y332000*
X229750Y331799*
X229201Y331250*
X229000Y330500*
Y328500*
X229201Y327750*
X229750Y327201*
X230500Y327000*
X231250Y327201*
X231799Y327750*
X232000Y328500*
Y330500*
X229000Y328500D02*
Y330500D01*
X229500Y327451D02*
Y331549D01*
X230000Y327134D02*
Y331866D01*
X230500Y327000D02*
Y332000D01*
X231000Y327134D02*
Y331866D01*
X231500Y327451D02*
Y331549D01*
X237000Y330500D02*
X236799Y331250D01*
X236250Y331799*
X235500Y332000*
X234750Y331799*
X234201Y331250*
X234000Y330500*
Y328500*
X234201Y327750*
X234750Y327201*
X235500Y327000*
X236250Y327201*
X236799Y327750*
X237000Y328500*
Y330500*
X234000Y328500D02*
Y330500D01*
X234500Y327451D02*
Y331549D01*
X235000Y327134D02*
Y331866D01*
X235500Y327000D02*
Y332000D01*
X236000Y327134D02*
Y331866D01*
X236500Y327451D02*
Y331549D01*
X248000Y326750D02*
Y330250D01*
X234000*
Y326750*
X248000*
X234000D02*
Y330250D01*
X234500Y326750D02*
Y330250D01*
X235000Y326750D02*
Y330250D01*
X235500Y326750D02*
Y330250D01*
X236000Y326750D02*
Y330250D01*
X236500Y326750D02*
Y330250D01*
X237000Y326750D02*
Y330250D01*
X237500Y326750D02*
Y330250D01*
X238000Y326750D02*
Y330250D01*
X238500Y326750D02*
Y330250D01*
X239000Y326750D02*
Y330250D01*
X239500Y326750D02*
Y330250D01*
X240000Y326750D02*
Y330250D01*
X240500Y326750D02*
Y330250D01*
X241000Y326750D02*
Y330250D01*
X241500Y326750D02*
Y330250D01*
X242000Y326750D02*
Y330250D01*
X242500Y326750D02*
Y330250D01*
X243000Y326750D02*
Y330250D01*
X243500Y326750D02*
Y330250D01*
X244000Y326750D02*
Y330250D01*
X244500Y326750D02*
Y330250D01*
X245000Y326750D02*
Y330250D01*
X245500Y326750D02*
Y330250D01*
X246000Y326750D02*
Y330250D01*
X246500Y326750D02*
Y330250D01*
X247000Y326750D02*
Y330250D01*
X247500Y326750D02*
Y330250D01*
X242000Y330500D02*
X241799Y331250D01*
X241250Y331799*
X240500Y332000*
X239750Y331799*
X239201Y331250*
X239000Y330500*
Y328500*
X239201Y327750*
X239750Y327201*
X240500Y327000*
X241250Y327201*
X241799Y327750*
X242000Y328500*
Y330500*
X239000Y328500D02*
Y330500D01*
X239500Y327451D02*
Y331549D01*
X240000Y327134D02*
Y331866D01*
X240500Y327000D02*
Y332000D01*
X241000Y327134D02*
Y331866D01*
X241500Y327451D02*
Y331549D01*
X247000Y330500D02*
X246799Y331250D01*
X246250Y331799*
X245500Y332000*
X244750Y331799*
X244201Y331250*
X244000Y330500*
Y328500*
X244201Y327750*
X244750Y327201*
X245500Y327000*
X246250Y327201*
X246799Y327750*
X247000Y328500*
Y330500*
X244000Y328500D02*
Y330500D01*
X244500Y327451D02*
Y331549D01*
X245000Y327134D02*
Y331866D01*
X245500Y327000D02*
Y332000D01*
X246000Y327134D02*
Y331866D01*
X246500Y327451D02*
Y331549D01*
X248000Y305500D02*
Y322000D01*
X228000*
Y305500*
X248000*
X228000D02*
Y322000D01*
X228500Y305500D02*
Y322000D01*
X229000Y305500D02*
Y322000D01*
X229500Y305500D02*
Y322000D01*
X230000Y305500D02*
Y322000D01*
X230500Y305500D02*
Y322000D01*
X231000Y305500D02*
Y322000D01*
X231500Y305500D02*
Y322000D01*
X232000Y305500D02*
Y322000D01*
X232500Y305500D02*
Y322000D01*
X233000Y305500D02*
Y322000D01*
X233500Y305500D02*
Y322000D01*
X234000Y305500D02*
Y322000D01*
X234500Y305500D02*
Y322000D01*
X235000Y305500D02*
Y322000D01*
X235500Y305500D02*
Y322000D01*
X236000Y305500D02*
Y322000D01*
X236500Y305500D02*
Y322000D01*
X237000Y305500D02*
Y322000D01*
X237500Y305500D02*
Y322000D01*
X238000Y305500D02*
Y322000D01*
X238500Y305500D02*
Y322000D01*
X239000Y305500D02*
Y322000D01*
X239500Y305500D02*
Y322000D01*
X240000Y305500D02*
Y322000D01*
X240500Y305500D02*
Y322000D01*
X241000Y305500D02*
Y322000D01*
X241500Y305500D02*
Y322000D01*
X242000Y305500D02*
Y322000D01*
X242500Y305500D02*
Y322000D01*
X243000Y305500D02*
Y322000D01*
X243500Y305500D02*
Y322000D01*
X244000Y305500D02*
Y322000D01*
X244500Y305500D02*
Y322000D01*
X245000Y305500D02*
Y322000D01*
X245500Y305500D02*
Y322000D01*
X246000Y305500D02*
Y322000D01*
X246500Y305500D02*
Y322000D01*
X247000Y305500D02*
Y322000D01*
X247500Y305500D02*
Y322000D01*
X237000Y307500D02*
X236799Y308250D01*
X236250Y308799*
X235500Y309000*
X234750Y308799*
X234201Y308250*
X234000Y307500*
Y305500*
X234201Y304750*
X234750Y304201*
X235500Y304000*
X236250Y304201*
X236799Y304750*
X237000Y305500*
Y307500*
X234000Y305500D02*
Y307500D01*
X234500Y304451D02*
Y308549D01*
X235000Y304134D02*
Y308866D01*
X235500Y304000D02*
Y309000D01*
X236000Y304134D02*
Y308866D01*
X236500Y304451D02*
Y308549D01*
X230000Y319000D02*
X230750Y319201D01*
X231299Y319750*
X231500Y320500*
X231299Y321250*
X230750Y321799*
X230000Y322000*
X228000*
X227250Y321799*
X226701Y321250*
X226500Y320500*
X226701Y319750*
X227250Y319201*
X228000Y319000*
X230000*
X226500Y320500D02*
X226500D01*
X227000Y319451D02*
Y321549D01*
X227500Y319134D02*
Y321866D01*
X228000Y319000D02*
Y322000D01*
X228500Y319000D02*
Y322000D01*
X229000Y319000D02*
Y322000D01*
X229500Y319000D02*
Y322000D01*
X230000Y319000D02*
Y322000D01*
X230500Y319134D02*
Y321866D01*
X231000Y319451D02*
Y321549D01*
X248000Y319000D02*
X248750Y319201D01*
X249299Y319750*
X249500Y320500*
X249299Y321250*
X248750Y321799*
X248000Y322000*
X246000*
X245250Y321799*
X244701Y321250*
X244500Y320500*
X244701Y319750*
X245250Y319201*
X246000Y319000*
X248000*
X244500Y320500D02*
X244500D01*
X245000Y319451D02*
Y321549D01*
X245500Y319134D02*
Y321866D01*
X246000Y319000D02*
Y322000D01*
X246500Y319000D02*
Y322000D01*
X247000Y319000D02*
Y322000D01*
X247500Y319000D02*
Y322000D01*
X248000Y319000D02*
Y322000D01*
X248500Y319134D02*
Y321866D01*
X249000Y319451D02*
Y321549D01*
X232000Y307500D02*
X231799Y308250D01*
X231250Y308799*
X230500Y309000*
X229750Y308799*
X229201Y308250*
X229000Y307500*
Y305500*
X229201Y304750*
X229750Y304201*
X230500Y304000*
X231250Y304201*
X231799Y304750*
X232000Y305500*
Y307500*
X229000Y305500D02*
Y307500D01*
X229500Y304451D02*
Y308549D01*
X230000Y304134D02*
Y308866D01*
X230500Y304000D02*
Y309000D01*
X231000Y304134D02*
Y308866D01*
X231500Y304451D02*
Y308549D01*
X247000Y307500D02*
X246799Y308250D01*
X246250Y308799*
X245500Y309000*
X244750Y308799*
X244201Y308250*
X244000Y307500*
Y305500*
X244201Y304750*
X244750Y304201*
X245500Y304000*
X246250Y304201*
X246799Y304750*
X247000Y305500*
Y307500*
X244000Y305500D02*
Y307500D01*
X244500Y304451D02*
Y308549D01*
X245000Y304134D02*
Y308866D01*
X245500Y304000D02*
Y309000D01*
X246000Y304134D02*
Y308866D01*
X246500Y304451D02*
Y308549D01*
X242000Y307500D02*
X241799Y308250D01*
X241250Y308799*
X240500Y309000*
X239750Y308799*
X239201Y308250*
X239000Y307500*
Y305500*
X239201Y304750*
X239750Y304201*
X240500Y304000*
X241250Y304201*
X241799Y304750*
X242000Y305500*
Y307500*
X239000Y305500D02*
Y307500D01*
X239500Y304451D02*
Y308549D01*
X240000Y304134D02*
Y308866D01*
X240500Y304000D02*
Y309000D01*
X241000Y304134D02*
Y308866D01*
X241500Y304451D02*
Y308549D01*
G54D35*
X647000Y529000D03*
X637500Y519500D03*
X647000Y510000D03*
X656500Y519500D03*
X653750Y526250D03*
X640250D03*
Y512750D03*
X653750D03*
X117500Y529000D03*
X108000Y519500D03*
X117500Y510000D03*
X127000Y519500D03*
X124250Y526250D03*
X110750D03*
Y512750D03*
X124250D03*
X117500Y127000D03*
X108000Y117500D03*
X117500Y108000D03*
X127000Y117500D03*
X124250Y124250D03*
X110750D03*
Y110750D03*
X124250D03*
X647000Y127000D03*
X637500Y117500D03*
X647000Y108000D03*
X656500Y117500D03*
X653750Y124250D03*
X640250D03*
Y110750D03*
X653750D03*
X117500Y140000D03*
X642000Y482000D03*
G54D45*
G54D86*
X159600Y291000D03*
X153400D03*
X191400Y435000D03*
X197600D03*
X164900Y413000D03*
X171100D03*
X600100Y463500D03*
X593900D03*
X600100Y473500D03*
X593900D03*
X178600Y249500D03*
X172400D03*
X623900Y190500D03*
X630100D03*
Y199500D03*
X623900D03*
X438100Y485000D03*
X431900D03*
X287400Y419500D03*
X293600D03*
X340400Y419000D03*
X346600D03*
X350400Y152000D03*
X356600D03*
X519100Y471500D03*
X512900D03*
X430400Y164000D03*
X436600D03*
X499100Y331000D03*
X492900D03*
X516600Y184000D03*
X510400D03*
X590100Y245000D03*
X583900D03*
X618900Y268000D03*
X625100D03*
X492400Y184000D03*
X498600D03*
X624400Y152000D03*
X630600D03*
X418100Y182000D03*
X411900D03*
X324900Y405000D03*
X331100D03*
X206400Y181500D03*
X212600D03*
X213600Y425500D03*
X207400D03*
X213600Y398000D03*
X207400D03*
X639900Y157500D03*
X646100D03*
X308400Y179000D03*
X314600D03*
X438600Y442500D03*
X432400D03*
X277900Y387000D03*
X284100D03*
X352100D03*
X345900D03*
X314600Y217500D03*
X308400D03*
X293900Y396000D03*
X300100D03*
X197600Y398000D03*
X191400D03*
X197600Y407500D03*
X191400D03*
X314600Y208000D03*
X308400D03*
X212600Y208500D03*
X206400D03*
X274100Y419500D03*
X267900D03*
X358900Y419000D03*
X365100D03*
X175600Y294000D03*
X169400D03*
X314600Y227500D03*
X308400D03*
X389600Y215000D03*
X383400D03*
X577600Y449500D03*
X571400D03*
X491600D03*
X485400D03*
X434400Y198000D03*
X440600D03*
X136900Y201500D03*
X143100D03*
X213600Y416500D03*
X207400D03*
X190900Y384500D03*
X197100D03*
X464100Y442500D03*
X457900D03*
X178600Y282500D03*
X172400D03*
X207400Y407500D03*
X213600D03*
X143100Y210000D03*
X136900D03*
X436600Y385500D03*
X430400D03*
X143100Y171500D03*
X136900D03*
X197600Y176500D03*
X191400D03*
X583900Y236000D03*
X590100D03*
Y254000D03*
X583900D03*
X648900Y210000D03*
X655100D03*
X457900Y473500D03*
X464100D03*
Y482000D03*
X457900D03*
X446400Y367500D03*
X452600D03*
X430400Y349500D03*
X436600D03*
X639900Y174500D03*
X646100D03*
X212600Y199500D03*
X206400D03*
X287400Y410500D03*
X293600D03*
X290400Y239500D03*
X296600D03*
X207900Y384500D03*
X214100D03*
X172400Y274500D03*
X178600D03*
X314100Y261500D03*
X307900D03*
X171100Y396000D03*
X164900D03*
X336100D03*
X329900D03*
X602600Y427500D03*
X596400D03*
X602600Y418500D03*
X596400D03*
X267900Y410500D03*
X274100D03*
X365100D03*
X358900D03*
X324900Y413500D03*
X331100D03*
X240100Y527500D03*
X233900D03*
X321600D03*
X315400D03*
X158100D03*
X151900D03*
X395900D03*
X402100D03*
X639900Y166000D03*
X646100D03*
X153400Y282500D03*
X159600D03*
X178600Y258500D03*
X172400D03*
X476900Y527500D03*
X483100D03*
X178600Y266500D03*
X172400D03*
X206400Y190500D03*
X212600D03*
X430400Y376500D03*
X436600D03*
X452600Y385500D03*
X446400D03*
X191400Y425500D03*
X197600D03*
X446400Y376500D03*
X452600D03*
Y358500D03*
X446400D03*
Y349500D03*
X452600D03*
X336100Y387000D03*
X329900D03*
X234600Y108500D03*
X228400D03*
X557900Y527500D03*
X564100D03*
X397600Y108500D03*
X391400D03*
X152100Y108000D03*
X145900D03*
X639900Y183000D03*
X646100D03*
X559600Y108500D03*
X553400D03*
X612900Y427500D03*
X619100D03*
X612900Y418500D03*
X619100D03*
X430400Y367500D03*
X436600D03*
Y358500D03*
X430400D03*
X164900Y404500D03*
X171100D03*
X314600Y198000D03*
X308400D03*
X315600Y108500D03*
X309400D03*
X446400Y339500D03*
X452600D03*
X308400Y188000D03*
X314600D03*
X197600Y416500D03*
X191400D03*
X340400Y410500D03*
X346600D03*
X293900Y387000D03*
X300100D03*
G54D87*
X186700Y325500D03*
Y315500D03*
X164200D03*
G54D88*
X196340Y294940D03*
Y292970D03*
Y291000D03*
Y289030D03*
Y287060D03*
X213660D03*
Y289030D03*
Y291000D03*
Y292970D03*
Y294940D03*
X181160Y419560D03*
Y421530D03*
Y423500D03*
Y425470D03*
Y427440D03*
X163840D03*
Y425470D03*
Y423500D03*
Y421530D03*
Y419560D03*
G54D89*
X187500Y293100D03*
Y286900D03*
X177500Y195100D03*
Y188900D03*
X195500Y278600D03*
Y272400D03*
X530000Y458600D03*
Y452400D03*
X559500Y271600D03*
Y265400D03*
X354000Y186600D03*
Y180400D03*
X276000Y221100D03*
Y214900D03*
X181000Y412600D03*
Y406400D03*
X485000Y389400D03*
Y395600D03*
X523500Y390400D03*
Y396600D03*
X591000Y263900D03*
Y270100D03*
X197500Y231900D03*
Y238100D03*
X501500Y204900D03*
Y211100D03*
X257000Y221100D03*
Y214900D03*
X381500Y160400D03*
Y166600D03*
X526000Y176600D03*
Y170400D03*
X492000Y168900D03*
Y175100D03*
X197500Y254100D03*
Y247900D03*
X612000Y175600D03*
Y169400D03*
X541500Y271600D03*
Y265400D03*
X523500D03*
Y271600D03*
X188500Y231900D03*
Y238100D03*
X162500Y435900D03*
Y442100D03*
X205500Y327400D03*
Y333600D03*
X214000D03*
Y327400D03*
X381500Y176900D03*
Y183100D03*
X635500Y248900D03*
Y255100D03*
X550500Y271600D03*
Y265400D03*
X510500Y204900D03*
Y211100D03*
X474500Y236900D03*
Y243100D03*
X514500Y390400D03*
Y396600D03*
X505500D03*
Y390400D03*
X514500Y406900D03*
Y413100D03*
X505500Y406900D03*
Y413100D03*
X213500Y272400D03*
Y278600D03*
X252000Y427100D03*
Y420900D03*
X266500Y221100D03*
Y214900D03*
X492500Y220900D03*
Y227100D03*
X390000Y160400D03*
Y166600D03*
X483500Y236900D03*
Y243100D03*
X532500Y271600D03*
Y265400D03*
X501500Y236900D03*
Y243100D03*
X492500Y236900D03*
Y243100D03*
X188500Y254100D03*
Y247900D03*
X162500Y373600D03*
Y367400D03*
X483500Y220900D03*
Y227100D03*
X206500Y238100D03*
Y231900D03*
Y247900D03*
Y254100D03*
X501500Y220900D03*
Y227100D03*
X510500Y236900D03*
Y243100D03*
X309500Y389400D03*
Y395600D03*
X320500Y389400D03*
Y395600D03*
X510500Y220900D03*
Y227100D03*
G54D90*
X230500Y329200D03*
X240500D03*
Y306700D03*
G54D91*
X560750Y117500D03*
X554250D03*
X556250Y517500D03*
X562750D03*
X232750D03*
X239250D03*
X317250Y117500D03*
X310750D03*
X398250D03*
X391750D03*
X153250Y117000D03*
X146750D03*
X314250Y517500D03*
X320750D03*
X119750Y266000D03*
X113250D03*
X394750Y517500D03*
X401250D03*
X150750D03*
X157250D03*
X236250Y117500D03*
X229750D03*
X475750Y517500D03*
X482250D03*
X119750Y251000D03*
X113250D03*
X119750Y236000D03*
X113250D03*
X119750Y221000D03*
X113250D03*
G54D93*
X159950Y265300D03*
Y272700D03*
X150050Y269000D03*
X159950Y247300D03*
Y254700D03*
X150050Y251000D03*
X159950Y229300D03*
Y236700D03*
X150050Y233000D03*
G54D94*
X264280Y361640D03*
Y364240D03*
Y366760D03*
Y369360D03*
X246720D03*
Y366760D03*
Y364240D03*
Y361640D03*
X537220Y253360D03*
Y250760D03*
Y248240D03*
Y245640D03*
X554780D03*
Y248240D03*
Y250760D03*
Y253360D03*
G54D95*
X547500Y155000D03*
X538500D03*
X439500Y475500D03*
X430500D03*
X520500Y481500D03*
X511500D03*
X257000Y353500D03*
X248000D03*
X601500Y453500D03*
X592500D03*
X601500Y483500D03*
X592500D03*
X419500Y191500D03*
X410500D03*
X429000Y154000D03*
X438000D03*
X549500Y236500D03*
X540500D03*
X385500Y472000D03*
X376500D03*
X385500Y461000D03*
X376500D03*
X277500Y400500D03*
X268500D03*
X592500Y442500D03*
X601500D03*
X379500Y446500D03*
X388500D03*
X410500Y202500D03*
X419500D03*
X221500Y152500D03*
X212500D03*
G54D96*
X600500Y177000D03*
Y168000D03*
X535500Y176500D03*
Y167500D03*
X612500Y159000D03*
Y150000D03*
X194000Y470500D03*
Y461500D03*
X418500Y459000D03*
Y450000D03*
X520000Y460000D03*
Y451000D03*
X479500Y328000D03*
Y337000D03*
X494500Y390500D03*
Y399500D03*
X533500Y386500D03*
Y395500D03*
X274500Y366000D03*
Y357000D03*
X181000Y436500D03*
Y445500D03*
X340000Y440500D03*
Y431500D03*
X288500Y440500D03*
Y431500D03*
X277500Y440500D03*
Y431500D03*
X351000Y440500D03*
Y431500D03*
X508500Y451000D03*
Y460000D03*
G54D97*
X171760Y230460D03*
X175500D03*
X179240D03*
Y240540D03*
X175500D03*
X171760D03*
X610260Y463460D03*
X614000D03*
X617740D03*
Y473540D03*
X610260D03*
X418740Y174040D03*
X415000D03*
X411260D03*
Y163960D03*
X418740D03*
X188260Y185460D03*
X192000D03*
X195740D03*
Y195540D03*
X192000D03*
X188260D03*
X361760Y176960D03*
X365500D03*
X369240D03*
Y187040D03*
X365500D03*
X361760D03*
G54D98*
X114500Y323500D03*
X425000Y114500D03*
X506000D03*
X587000D03*
X182500D03*
X202000Y522000D03*
X607000D03*
X445000D03*
X526000D03*
X283000D03*
X364000D03*
X344000Y114500D03*
X263000D03*
G54D99*
X114500Y303500D03*
X445000Y114500D03*
X526000D03*
X607000D03*
X202500D03*
X182000Y522000D03*
X587000D03*
X425000D03*
X506000D03*
X263000D03*
X344000D03*
X364000Y114500D03*
X283000D03*
G54D100*
X307300Y241050D03*
X314700D03*
X311000Y250950D03*
X625700Y257450D03*
X618300D03*
X622000Y247550D03*
X571700Y244450D03*
X564300D03*
X568000Y234550D03*
X172300Y363050D03*
X179700D03*
X176000Y372950D03*
X189800Y363050D03*
X197200D03*
X193500Y372950D03*
X296700Y259950D03*
X289300D03*
X293000Y250050D03*
X481700Y180450D03*
X474300D03*
X478000Y170550D03*
X491700Y209950D03*
X484300D03*
X488000Y200050D03*
X390200Y204450D03*
X382800D03*
X386500Y194550D03*
X570800Y460050D03*
X578200D03*
X574500Y469950D03*
X457300Y453050D03*
X464700D03*
X461000Y462950D03*
X484800Y459550D03*
X492200D03*
X488500Y469450D03*
X441200Y186950D03*
X433800D03*
X437500Y177050D03*
X207300Y363050D03*
X214700D03*
X211000Y372950D03*
X143700Y191450D03*
X136300D03*
X140000Y181550D03*
X143700Y161450D03*
X136300D03*
X140000Y151550D03*
G54D101*
X196000Y327500D03*
X291500Y308500D03*
X328500Y219000D03*
X164500Y385000D03*
X181000D03*
X556000Y487500D03*
X602500Y268000D03*
X564500Y255500D03*
X574500D03*
X517000Y193500D03*
X600000Y236000D03*
X611000D03*
X629000Y504000D03*
X466500D03*
X291500Y204000D03*
X271500D03*
X274500Y234000D03*
X657500Y374500D03*
Y364500D03*
Y354500D03*
Y344500D03*
X124000Y180000D03*
X171500Y435500D03*
X158500Y504000D03*
X401500D03*
X239500D03*
X321000Y503500D03*
X483000Y504000D03*
X387000Y132500D03*
X469500D03*
X225000D03*
X550000Y133500D03*
X657000D03*
X564000Y504000D03*
X304500D03*
X386000D03*
X548500D03*
X322500Y132500D03*
X403000D03*
X160000Y132000D03*
X485000Y132500D03*
X564500Y133500D03*
X226000Y504000D03*
X240000Y132500D03*
X306000D03*
X152000Y326000D03*
Y306500D03*
X486500Y253500D03*
X496500D03*
X506500D03*
Y283500D03*
X496500D03*
X486500D03*
X476500D03*
G54D102*
X152500Y417500D03*
Y422500D03*
Y427500D03*
Y432500D03*
X131000D03*
Y427500D03*
Y422500D03*
Y417500D03*
X565000Y426000D03*
Y421000D03*
Y416000D03*
Y411000D03*
X586500D03*
Y416000D03*
Y421000D03*
Y426000D03*
G54D104*
X161500Y480900D03*
Y453900D03*
X366000Y281100D03*
Y308100D03*
X438000Y281100D03*
Y308100D03*
X266000Y329900D03*
Y302900D03*
X260500Y252100D03*
Y279100D03*
X234000Y252100D03*
Y279100D03*
G54D106*
X539960Y457740D03*
Y454000D03*
Y450260D03*
X550040D03*
Y457740D03*
X297040Y214260D03*
Y218000D03*
Y221740D03*
X286960D03*
Y218000D03*
Y214260D03*
G54D107*
X160500Y190750D03*
Y207250D03*
X336000Y194750D03*
Y178250D03*
G54D110*
X637940Y192640D03*
X643060Y200360D03*
X637940D03*
G54D111*
X642470Y192640D03*
G54D114*
X526500Y212000D03*
Y219000D03*
X548500D03*
Y212000D03*
X609000Y219000D03*
Y212000D03*
X587000D03*
Y219000D03*
G54D115*
X248012Y213760D03*
Y217500D03*
Y221240D03*
X236988D03*
Y217500D03*
Y213760D03*
G54D116*
X308110Y421330D03*
X310080D03*
X312050D03*
X314020D03*
X315980D03*
X317950D03*
X319920D03*
X321890D03*
Y440670D03*
X319920D03*
X317950D03*
X315980D03*
X314020D03*
X312050D03*
X310080D03*
X308110D03*
G54D117*
X324670Y424110D03*
Y426080D03*
Y428050D03*
Y430020D03*
Y431980D03*
Y433950D03*
Y435920D03*
Y437890D03*
X305330D03*
Y435920D03*
Y433950D03*
Y431980D03*
Y430020D03*
Y428050D03*
Y426080D03*
Y424110D03*
G54D118*
X315080Y431110D03*
G54D121*
X506000Y356000D03*
G54D122*
X428330Y461860D03*
Y459260D03*
Y456740D03*
Y454140D03*
X442670D03*
Y456740D03*
Y459260D03*
Y461860D03*
G54D123*
X431640Y450830D03*
X434240D03*
X436760D03*
X439360D03*
Y465170D03*
X436760D03*
X434240D03*
X431640D03*
G54D124*
X435500Y458000D03*
G54D126*
X647000Y519500D03*
X117500D03*
Y117500D03*
X647000D03*
G54D144*
X489390Y366830D03*
Y364860D03*
Y362890D03*
Y360920D03*
Y358950D03*
Y356980D03*
Y355020D03*
Y353050D03*
Y351080D03*
Y349110D03*
Y347140D03*
Y345170D03*
X522610D03*
Y347140D03*
Y349110D03*
Y351080D03*
Y353050D03*
Y355020D03*
Y356980D03*
Y358950D03*
Y360920D03*
Y362890D03*
Y364860D03*
Y366830D03*
G54D145*
X495170Y339390D03*
X497140D03*
X499110D03*
X501080D03*
X503050D03*
X505020D03*
X506980D03*
X508950D03*
X510920D03*
X512890D03*
X514860D03*
X516830D03*
Y372610D03*
X514860D03*
X512890D03*
X510920D03*
X508950D03*
X506980D03*
X505020D03*
X503050D03*
X501080D03*
X499110D03*
X497140D03*
X495170D03*
G54D146*
X504460Y176360D03*
Y173760D03*
Y171240D03*
Y168640D03*
X514540D03*
Y171240D03*
Y173760D03*
Y176360D03*
G54D147*
X590500Y193000D03*
X606500D03*
X545000D03*
X529000D03*
X171500Y177000D03*
X155500D03*
G54D148*
X547250Y476000D03*
X530750D03*
G54D149*
X263500Y234000D03*
X242500D03*
X197000Y314000D03*
X218000D03*
G54D150*
X474500Y211000D03*
Y200000D03*
X645500Y245500D03*
Y256500D03*
G54D151*
X304500Y467500D03*
X267500D03*
X323000D03*
X360000D03*
G54D152*
X182000Y352000D03*
X171000D03*
G54D153*
X622640Y163220D03*
X625240D03*
X627760D03*
X630360D03*
Y180780D03*
X627760D03*
X625240D03*
X622640D03*
G54D154*
X243000Y202000D03*
Y165000D03*
X127000Y445000D03*
Y482000D03*
G54D155*
X529012Y155000D03*
X517988D03*
X602512Y151000D03*
X591488D03*
G54D156*
X523500Y155000D03*
X597000Y151000D03*
G54D157*
X138400Y388500D03*
X111400D03*
X138400Y362500D03*
X111400D03*
G54D158*
X226500Y231500D03*
Y215500D03*
X339500Y225500D03*
Y209500D03*
X0Y0D02*
M02*
