*
*
G04 PADS 9.2 Build Number: 406656 generated Gerber (RS-274-X) file*
G04 PC Version=2.1*
*
%IN "POWERDESIGN_PCB_V03_051"*%
*
%MOIN*%
*
%FSLAX35Y35*%
*
*
*
*
G04 PC Standard Apertures*
*
*
G04 Thermal Relief Aperture macro.*
%AMTER*
1,1,$1,0,0*
1,0,$1-$2,0,0*
21,0,$3,$4,0,0,45*
21,0,$3,$4,0,0,135*
%
*
*
G04 Annular Aperture macro.*
%AMANN*
1,1,$1,0,0*
1,0,$2,0,0*
%
*
*
G04 Odd Aperture macro.*
%AMODD*
1,1,$1,0,0*
1,0,$1-0.005,0,0*
%
*
*
G04 PC Custom Aperture Macros*
*
*
*
*
*
*
G04 PC Aperture Table*
*
%ADD027R,0.06X0.06*%
%ADD033C,0.01*%
%ADD035C,0.04*%
%ADD036C,0.0142*%
%ADD037C,0.0154*%
%ADD040C,0.03*%
%ADD045C,0.001*%
%ADD046R,0.038X0.03*%
%ADD047O,0.05X0.024*%
%ADD048R,0.0409X0.0134*%
%ADD049R,0.03X0.038*%
%ADD050O,0.024X0.05*%
%ADD051O,0.035X0.04*%
%ADD052R,0.07X0.05*%
%ADD053R,0.0469X0.0134*%
%ADD054R,0.06X0.05*%
%ADD055R,0.05X0.06*%
%ADD056R,0.0228X0.039*%
%ADD057R,0.05X0.07*%
%ADD058O,0.08X0.025*%
%ADD060R,0.15X0.09*%
%ADD062R,0.039X0.0228*%
%ADD063R,0.17X0.04*%
%ADD066R,0.0142X0.0311*%
%ADD067R,0.0299X0.0311*%
%ADD070R,0.125X0.045*%
%ADD071R,0.04X0.025*%
%ADD072R,0.013X0.03*%
%ADD073R,0.03X0.013*%
%ADD074R,0.0232X0.0146*%
%ADD077R,0.035X0.015*%
%ADD078R,0.015X0.035*%
%ADD128R,0.05X0.012*%
%ADD129R,0.012X0.05*%
%ADD130R,0.039X0.0165*%
%ADD131O,0.06X0.08*%
%ADD132R,0.04X0.17*%
%ADD133R,0.06X0.1*%
%ADD134O,0.06X0.05*%
%ADD135R,0.1X0.118*%
%ADD136O,0.05X0.06*%
%ADD137R,0.0134X0.0469*%
%ADD138R,0.118X0.1*%
%ADD139R,0.03937X0.07874*%
%ADD140R,0.03937X0.11811*%
%ADD141R,0.09X0.15*%
%ADD142O,0.08X0.06*%
*
*
*
*
G04 PC Circuitry*
G04 Layer Name POWERDESIGN_PCB_V03_051 - circuitry*
%LPD*%
*
*
G04 PC Custom Flashes*
G04 Layer Name POWERDESIGN_PCB_V03_051 - flashes*
%LPD*%
*
*
G04 PC Circuitry*
G04 Layer Name POWERDESIGN_PCB_V03_051 - circuitry*
%LPD*%
*
G54D27*
G01X562000Y222250D03*
Y208750D03*
X574750Y193000D03*
X561250D03*
X157250Y152500D03*
X170750D03*
X250750D03*
X237250D03*
X277750Y166000D03*
X291250D03*
X277750Y178500D03*
X291250D03*
X346750Y163000D03*
X360250D03*
X277750Y191000D03*
X291250D03*
X197250Y152500D03*
X183750D03*
X197250Y164500D03*
X183750D03*
X370250Y199000D03*
X356750D03*
X370250Y211500D03*
X356750D03*
X370250Y223500D03*
X356750D03*
X623500Y211750D03*
Y225250D03*
X636000Y211750D03*
Y225250D03*
X132250Y407000D03*
X118750D03*
X181500Y473250D03*
Y459750D03*
X277750Y153500D03*
X291250D03*
X573500Y222250D03*
Y208750D03*
X192250Y207500D03*
X178750D03*
X157250Y164500D03*
X170750D03*
X253750Y457000D03*
X240250D03*
X387750Y483000D03*
X374250D03*
X253750Y469000D03*
X240250D03*
X253750Y481000D03*
X240250D03*
X494750Y153500D03*
X508250D03*
X582250Y150500D03*
X568750D03*
X588750Y178000D03*
X575250D03*
X588750Y166000D03*
X575250D03*
X548250Y178000D03*
X561750D03*
X548250Y166000D03*
X561750D03*
G54D33*
X516500Y366500D02*
X495500D01*
Y345500*
X516500*
Y366500*
X495500Y345500D02*
Y366500D01*
X496000Y345500D02*
Y366500D01*
X496500Y345500D02*
Y366500D01*
X497000Y345500D02*
Y366500D01*
X497500Y345500D02*
Y366500D01*
X498000Y345500D02*
Y366500D01*
X498500Y345500D02*
Y366500D01*
X499000Y345500D02*
Y366500D01*
X499500Y345500D02*
Y366500D01*
X500000Y345500D02*
Y366500D01*
X500500Y345500D02*
Y366500D01*
X501000Y345500D02*
Y366500D01*
X501500Y345500D02*
Y366500D01*
X502000Y345500D02*
Y366500D01*
X502500Y345500D02*
Y366500D01*
X503000Y345500D02*
Y366500D01*
X503500Y345500D02*
Y366500D01*
X504000Y345500D02*
Y366500D01*
X504500Y345500D02*
Y366500D01*
X505000Y345500D02*
Y366500D01*
X505500Y345500D02*
Y366500D01*
X506000Y345500D02*
Y366500D01*
X506500Y345500D02*
Y366500D01*
X507000Y345500D02*
Y366500D01*
X507500Y345500D02*
Y366500D01*
X508000Y345500D02*
Y366500D01*
X508500Y345500D02*
Y366500D01*
X509000Y345500D02*
Y366500D01*
X509500Y345500D02*
Y366500D01*
X510000Y345500D02*
Y366500D01*
X510500Y345500D02*
Y366500D01*
X511000Y345500D02*
Y366500D01*
X511500Y345500D02*
Y366500D01*
X512000Y345500D02*
Y366500D01*
X512500Y345500D02*
Y366500D01*
X513000Y345500D02*
Y366500D01*
X513500Y345500D02*
Y366500D01*
X514000Y345500D02*
Y366500D01*
X514500Y345500D02*
Y366500D01*
X515000Y345500D02*
Y366500D01*
X515500Y345500D02*
Y366500D01*
X516000Y345500D02*
Y366500D01*
X308875Y437125D02*
Y424875D01*
X321125*
Y437125*
X308875*
X309000Y424875D02*
Y437125D01*
X309500Y424875D02*
Y437125D01*
X310000Y424875D02*
Y437125D01*
X310500Y424875D02*
Y437125D01*
X311000Y424875D02*
Y437125D01*
X311500Y424875D02*
Y437125D01*
X312000Y424875D02*
Y437125D01*
X312500Y424875D02*
Y437125D01*
X313000Y424875D02*
Y437125D01*
X313500Y424875D02*
Y437125D01*
X314000Y424875D02*
Y437125D01*
X314500Y424875D02*
Y437125D01*
X315000Y424875D02*
Y437125D01*
X315500Y424875D02*
Y437125D01*
X316000Y424875D02*
Y437125D01*
X316500Y424875D02*
Y437125D01*
X317000Y424875D02*
Y437125D01*
X317500Y424875D02*
Y437125D01*
X318000Y424875D02*
Y437125D01*
X318500Y424875D02*
Y437125D01*
X319000Y424875D02*
Y437125D01*
X319500Y424875D02*
Y437125D01*
X320000Y424875D02*
Y437125D01*
X320500Y424875D02*
Y437125D01*
X321000Y424875D02*
Y437125D01*
X439000Y461500D02*
X432000D01*
Y454500*
X439000*
Y461500*
X432000Y454500D02*
Y461500D01*
X432500Y454500D02*
Y461500D01*
X433000Y454500D02*
Y461500D01*
X433500Y454500D02*
Y461500D01*
X434000Y454500D02*
Y461500D01*
X434500Y454500D02*
Y461500D01*
X435000Y454500D02*
Y461500D01*
X435500Y454500D02*
Y461500D01*
X436000Y454500D02*
Y461500D01*
X436500Y454500D02*
Y461500D01*
X437000Y454500D02*
Y461500D01*
X437500Y454500D02*
Y461500D01*
X438000Y454500D02*
Y461500D01*
X438500Y454500D02*
Y461500D01*
X184750Y327500D02*
Y324500D01*
X187900*
Y327500*
X184750*
X185000Y324500D02*
Y327500D01*
X185500Y324500D02*
Y327500D01*
X186000Y324500D02*
Y327500D01*
X186500Y324500D02*
Y327500D01*
X187000Y324500D02*
Y327500D01*
X187500Y324500D02*
Y327500D01*
X186000Y326500D02*
X185412Y326309D01*
X185049Y325809*
Y325191*
X185412Y324691*
X186000Y324500*
X188000*
X188588Y324691*
X188951Y325191*
Y325809*
X188588Y326309*
X188000Y326500*
X186000*
X185500Y324662D02*
Y326338D01*
X186000Y324500D02*
Y326500D01*
X186500Y324500D02*
Y326500D01*
X187000Y324500D02*
Y326500D01*
X187500Y324500D02*
Y326500D01*
X188000Y324500D02*
Y326500D01*
X188500Y324662D02*
Y326338D01*
X186000Y321500D02*
X185412Y321309D01*
X185049Y320809*
Y320191*
X185412Y319691*
X186000Y319500*
X188000*
X188588Y319691*
X188951Y320191*
Y320809*
X188588Y321309*
X188000Y321500*
X186000*
X185500Y319662D02*
Y321338D01*
X186000Y319500D02*
Y321500D01*
X186500Y319500D02*
Y321500D01*
X187000Y319500D02*
Y321500D01*
X187500Y319500D02*
Y321500D01*
X188000Y319500D02*
Y321500D01*
X188500Y319662D02*
Y321338D01*
X184750Y321500D02*
Y308500D01*
X187250*
Y321500*
X184750*
X185000Y308500D02*
Y321500D01*
X185500Y308500D02*
Y321500D01*
X186000Y308500D02*
Y321500D01*
X186500Y308500D02*
Y321500D01*
X187000Y308500D02*
Y321500D01*
X186000Y316500D02*
X185412Y316309D01*
X185049Y315809*
Y315191*
X185412Y314691*
X186000Y314500*
X188000*
X188588Y314691*
X188951Y315191*
Y315809*
X188588Y316309*
X188000Y316500*
X186000*
X185500Y314662D02*
Y316338D01*
X186000Y314500D02*
Y316500D01*
X186500Y314500D02*
Y316500D01*
X187000Y314500D02*
Y316500D01*
X187500Y314500D02*
Y316500D01*
X188000Y314500D02*
Y316500D01*
X188500Y314662D02*
Y316338D01*
X186000Y311500D02*
X185412Y311309D01*
X185049Y310809*
Y310191*
X185412Y309691*
X186000Y309500*
X188000*
X188588Y309691*
X188951Y310191*
Y310809*
X188588Y311309*
X188000Y311500*
X186000*
X185500Y309662D02*
Y311338D01*
X186000Y309500D02*
Y311500D01*
X186500Y309500D02*
Y311500D01*
X187000Y309500D02*
Y311500D01*
X187500Y309500D02*
Y311500D01*
X188000Y309500D02*
Y311500D01*
X188500Y309662D02*
Y311338D01*
X163500Y327500D02*
Y308500D01*
X179000*
Y327500*
X163500*
Y308500D02*
Y327500D01*
X164000Y308500D02*
Y327500D01*
X164500Y308500D02*
Y327500D01*
X165000Y308500D02*
Y327500D01*
X165500Y308500D02*
Y327500D01*
X166000Y308500D02*
Y327500D01*
X166500Y308500D02*
Y327500D01*
X167000Y308500D02*
Y327500D01*
X167500Y308500D02*
Y327500D01*
X168000Y308500D02*
Y327500D01*
X168500Y308500D02*
Y327500D01*
X169000Y308500D02*
Y327500D01*
X169500Y308500D02*
Y327500D01*
X170000Y308500D02*
Y327500D01*
X170500Y308500D02*
Y327500D01*
X171000Y308500D02*
Y327500D01*
X171500Y308500D02*
Y327500D01*
X172000Y308500D02*
Y327500D01*
X172500Y308500D02*
Y327500D01*
X173000Y308500D02*
Y327500D01*
X173500Y308500D02*
Y327500D01*
X174000Y308500D02*
Y327500D01*
X174500Y308500D02*
Y327500D01*
X175000Y308500D02*
Y327500D01*
X175500Y308500D02*
Y327500D01*
X176000Y308500D02*
Y327500D01*
X176500Y308500D02*
Y327500D01*
X177000Y308500D02*
Y327500D01*
X177500Y308500D02*
Y327500D01*
X178000Y308500D02*
Y327500D01*
X178500Y308500D02*
Y327500D01*
X163000Y321500D02*
X162412Y321309D01*
X162049Y320809*
Y320191*
X162412Y319691*
X163000Y319500*
X165000*
X165588Y319691*
X165951Y320191*
Y320809*
X165588Y321309*
X165000Y321500*
X163000*
X162500Y319662D02*
Y321338D01*
X163000Y319500D02*
Y321500D01*
X163500Y319500D02*
Y321500D01*
X164000Y319500D02*
Y321500D01*
X164500Y319500D02*
Y321500D01*
X165000Y319500D02*
Y321500D01*
X165500Y319662D02*
Y321338D01*
X178000Y329000D02*
X177500Y328866D01*
X177134Y328500*
X177000Y328000*
Y326000*
X177134Y325500*
X177500Y325134*
X178000Y325000*
X178500Y325134*
X178866Y325500*
X179000Y326000*
Y328000*
X178866Y328500*
X178500Y328866*
X178000Y329000*
X177000Y326000D02*
Y328000D01*
X177500Y325134D02*
Y328866D01*
X178000Y325000D02*
Y329000D01*
X178500Y325134D02*
Y328866D01*
X178000Y311000D02*
X177500Y310866D01*
X177134Y310500*
X177000Y310000*
Y308000*
X177134Y307500*
X177500Y307134*
X178000Y307000*
X178500Y307134*
X178866Y307500*
X179000Y308000*
Y310000*
X178866Y310500*
X178500Y310866*
X178000Y311000*
X177000Y308000D02*
Y310000D01*
X177500Y307134D02*
Y310866D01*
X178000Y307000D02*
Y311000D01*
X178500Y307134D02*
Y310866D01*
X163000Y326500D02*
X162412Y326309D01*
X162049Y325809*
Y325191*
X162412Y324691*
X163000Y324500*
X165000*
X165588Y324691*
X165951Y325191*
Y325809*
X165588Y326309*
X165000Y326500*
X163000*
X162500Y324662D02*
Y326338D01*
X163000Y324500D02*
Y326500D01*
X163500Y324500D02*
Y326500D01*
X164000Y324500D02*
Y326500D01*
X164500Y324500D02*
Y326500D01*
X165000Y324500D02*
Y326500D01*
X165500Y324662D02*
Y326338D01*
X163000Y311500D02*
X162412Y311309D01*
X162049Y310809*
Y310191*
X162412Y309691*
X163000Y309500*
X165000*
X165588Y309691*
X165951Y310191*
Y310809*
X165588Y311309*
X165000Y311500*
X163000*
X162500Y309662D02*
Y311338D01*
X163000Y309500D02*
Y311500D01*
X163500Y309500D02*
Y311500D01*
X164000Y309500D02*
Y311500D01*
X164500Y309500D02*
Y311500D01*
X165000Y309500D02*
Y311500D01*
X165500Y309662D02*
Y311338D01*
X163000Y316500D02*
X162412Y316309D01*
X162049Y315809*
Y315191*
X162412Y314691*
X163000Y314500*
X165000*
X165588Y314691*
X165951Y315191*
Y315809*
X165588Y316309*
X165000Y316500*
X163000*
X162500Y314662D02*
Y316338D01*
X163000Y314500D02*
Y316500D01*
X163500Y314500D02*
Y316500D01*
X164000Y314500D02*
Y316500D01*
X164500Y314500D02*
Y316500D01*
X165000Y314500D02*
Y316500D01*
X165500Y314662D02*
Y316338D01*
X160500Y343500D02*
X150300D01*
Y339507*
X151507Y338300*
X159293*
X160500Y339507*
Y343500*
X150500Y339307D02*
Y343500D01*
X151000Y338807D02*
Y343500D01*
X151500Y338307D02*
Y343500D01*
X152000Y338300D02*
Y343500D01*
X152500Y338300D02*
Y343500D01*
X153000Y338300D02*
Y343500D01*
X153500Y338300D02*
Y343500D01*
X154000Y338300D02*
Y343500D01*
X154500Y338300D02*
Y343500D01*
X155000Y338300D02*
Y343500D01*
X155500Y338300D02*
Y343500D01*
X156000Y338300D02*
Y343500D01*
X156500Y338300D02*
Y343500D01*
X157000Y338300D02*
Y343500D01*
X157500Y338300D02*
Y343500D01*
X158000Y338300D02*
Y343500D01*
X158500Y338300D02*
Y343500D01*
X159000Y338300D02*
Y343500D01*
X159500Y338507D02*
Y343500D01*
X160000Y339007D02*
Y343500D01*
X160700Y355493D02*
X159493Y356700D01*
X151707*
X150500Y355493*
Y351500*
X160700*
Y355493*
X150500Y351500D02*
Y355493D01*
X151000Y351500D02*
Y355993D01*
X151500Y351500D02*
Y356493D01*
X152000Y351500D02*
Y356700D01*
X152500Y351500D02*
Y356700D01*
X153000Y351500D02*
Y356700D01*
X153500Y351500D02*
Y356700D01*
X154000Y351500D02*
Y356700D01*
X154500Y351500D02*
Y356700D01*
X155000Y351500D02*
Y356700D01*
X155500Y351500D02*
Y356700D01*
X156000Y351500D02*
Y356700D01*
X156500Y351500D02*
Y356700D01*
X157000Y351500D02*
Y356700D01*
X157500Y351500D02*
Y356700D01*
X158000Y351500D02*
Y356700D01*
X158500Y351500D02*
Y356700D01*
X159000Y351500D02*
Y356700D01*
X159500Y351500D02*
Y356693D01*
X160000Y351500D02*
Y356193D01*
X160500Y351500D02*
Y355693D01*
X382000Y236500D02*
X392200D01*
Y240493*
X390993Y241700*
X383207*
X382000Y240493*
Y236500*
Y240493*
X382500Y236500D02*
Y240993D01*
X383000Y236500D02*
Y241493D01*
X383500Y236500D02*
Y241700D01*
X384000Y236500D02*
Y241700D01*
X384500Y236500D02*
Y241700D01*
X385000Y236500D02*
Y241700D01*
X385500Y236500D02*
Y241700D01*
X386000Y236500D02*
Y241700D01*
X386500Y236500D02*
Y241700D01*
X387000Y236500D02*
Y241700D01*
X387500Y236500D02*
Y241700D01*
X388000Y236500D02*
Y241700D01*
X388500Y236500D02*
Y241700D01*
X389000Y236500D02*
Y241700D01*
X389500Y236500D02*
Y241700D01*
X390000Y236500D02*
Y241700D01*
X390500Y236500D02*
Y241700D01*
X391000Y236500D02*
Y241693D01*
X391500Y236500D02*
Y241193D01*
X392000Y236500D02*
Y240693D01*
X381800Y224507D02*
X383007Y223300D01*
X390793*
X392000Y224507*
Y228500*
X381800*
Y224507*
X382000Y224307D02*
Y228500D01*
X382500Y223807D02*
Y228500D01*
X383000Y223307D02*
Y228500D01*
X383500Y223300D02*
Y228500D01*
X384000Y223300D02*
Y228500D01*
X384500Y223300D02*
Y228500D01*
X385000Y223300D02*
Y228500D01*
X385500Y223300D02*
Y228500D01*
X386000Y223300D02*
Y228500D01*
X386500Y223300D02*
Y228500D01*
X387000Y223300D02*
Y228500D01*
X387500Y223300D02*
Y228500D01*
X388000Y223300D02*
Y228500D01*
X388500Y223300D02*
Y228500D01*
X389000Y223300D02*
Y228500D01*
X389500Y223300D02*
Y228500D01*
X390000Y223300D02*
Y228500D01*
X390500Y223300D02*
Y228500D01*
X391000Y223507D02*
Y228500D01*
X391500Y224007D02*
Y228500D01*
X217000Y433500D02*
Y443700D01*
X213007*
X211800Y442493*
Y434707*
X213007Y433500*
X217000*
X212000Y434507D02*
Y442693D01*
X212500Y434007D02*
Y443193D01*
X213000Y433507D02*
Y443693D01*
X213500Y433500D02*
Y443700D01*
X214000Y433500D02*
Y443700D01*
X214500Y433500D02*
Y443700D01*
X215000Y433500D02*
Y443700D01*
X215500Y433500D02*
Y443700D01*
X216000Y433500D02*
Y443700D01*
X216500Y433500D02*
Y443700D01*
X228993Y433300D02*
X230200Y434507D01*
Y442293*
X228993Y443500*
X225000*
Y433300*
X228993*
X225000D02*
Y443500D01*
X225500Y433300D02*
Y443500D01*
X226000Y433300D02*
Y443500D01*
X226500Y433300D02*
Y443500D01*
X227000Y433300D02*
Y443500D01*
X227500Y433300D02*
Y443500D01*
X228000Y433300D02*
Y443500D01*
X228500Y433300D02*
Y443500D01*
X229000Y433307D02*
Y443493D01*
X229500Y433807D02*
Y442993D01*
X230000Y434307D02*
Y442493D01*
X288500Y294000D02*
X298700D01*
Y297993*
X297493Y299200*
X289707*
X288500Y297993*
Y294000*
Y297993*
X289000Y294000D02*
Y298493D01*
X289500Y294000D02*
Y298993D01*
X290000Y294000D02*
Y299200D01*
X290500Y294000D02*
Y299200D01*
X291000Y294000D02*
Y299200D01*
X291500Y294000D02*
Y299200D01*
X292000Y294000D02*
Y299200D01*
X292500Y294000D02*
Y299200D01*
X293000Y294000D02*
Y299200D01*
X293500Y294000D02*
Y299200D01*
X294000Y294000D02*
Y299200D01*
X294500Y294000D02*
Y299200D01*
X295000Y294000D02*
Y299200D01*
X295500Y294000D02*
Y299200D01*
X296000Y294000D02*
Y299200D01*
X296500Y294000D02*
Y299200D01*
X297000Y294000D02*
Y299200D01*
X297500Y294000D02*
Y299193D01*
X298000Y294000D02*
Y298693D01*
X298500Y294000D02*
Y298193D01*
X288300Y282007D02*
X289507Y280800D01*
X297293*
X298500Y282007*
Y286000*
X288300*
Y282007*
X288500Y281807D02*
Y286000D01*
X289000Y281307D02*
Y286000D01*
X289500Y280807D02*
Y286000D01*
X290000Y280800D02*
Y286000D01*
X290500Y280800D02*
Y286000D01*
X291000Y280800D02*
Y286000D01*
X291500Y280800D02*
Y286000D01*
X292000Y280800D02*
Y286000D01*
X292500Y280800D02*
Y286000D01*
X293000Y280800D02*
Y286000D01*
X293500Y280800D02*
Y286000D01*
X294000Y280800D02*
Y286000D01*
X294500Y280800D02*
Y286000D01*
X295000Y280800D02*
Y286000D01*
X295500Y280800D02*
Y286000D01*
X296000Y280800D02*
Y286000D01*
X296500Y280800D02*
Y286000D01*
X297000Y280800D02*
Y286000D01*
X297500Y281007D02*
Y286000D01*
X298000Y281507D02*
Y286000D01*
X446000Y238000D02*
X456200D01*
Y241993*
X454993Y243200*
X447207*
X446000Y241993*
Y238000*
Y241993*
X446500Y238000D02*
Y242493D01*
X447000Y238000D02*
Y242993D01*
X447500Y238000D02*
Y243200D01*
X448000Y238000D02*
Y243200D01*
X448500Y238000D02*
Y243200D01*
X449000Y238000D02*
Y243200D01*
X449500Y238000D02*
Y243200D01*
X450000Y238000D02*
Y243200D01*
X450500Y238000D02*
Y243200D01*
X451000Y238000D02*
Y243200D01*
X451500Y238000D02*
Y243200D01*
X452000Y238000D02*
Y243200D01*
X452500Y238000D02*
Y243200D01*
X453000Y238000D02*
Y243200D01*
X453500Y238000D02*
Y243200D01*
X454000Y238000D02*
Y243200D01*
X454500Y238000D02*
Y243200D01*
X455000Y238000D02*
Y243193D01*
X455500Y238000D02*
Y242693D01*
X456000Y238000D02*
Y242193D01*
X445800Y226007D02*
X447007Y224800D01*
X454793*
X456000Y226007*
Y230000*
X445800*
Y226007*
X446000Y225807D02*
Y230000D01*
X446500Y225307D02*
Y230000D01*
X447000Y224807D02*
Y230000D01*
X447500Y224800D02*
Y230000D01*
X448000Y224800D02*
Y230000D01*
X448500Y224800D02*
Y230000D01*
X449000Y224800D02*
Y230000D01*
X449500Y224800D02*
Y230000D01*
X450000Y224800D02*
Y230000D01*
X450500Y224800D02*
Y230000D01*
X451000Y224800D02*
Y230000D01*
X451500Y224800D02*
Y230000D01*
X452000Y224800D02*
Y230000D01*
X452500Y224800D02*
Y230000D01*
X453000Y224800D02*
Y230000D01*
X453500Y224800D02*
Y230000D01*
X454000Y224800D02*
Y230000D01*
X454500Y224800D02*
Y230000D01*
X455000Y225007D02*
Y230000D01*
X455500Y225507D02*
Y230000D01*
X228500Y327250D02*
X231500D01*
Y330400*
X228500*
Y327250*
Y330400*
X229000Y327250D02*
Y330400D01*
X229500Y327250D02*
Y330400D01*
X230000Y327250D02*
Y330400D01*
X230500Y327250D02*
Y330400D01*
X231000Y327250D02*
Y330400D01*
X229500Y328500D02*
X229691Y327912D01*
X230191Y327549*
X230809*
X231309Y327912*
X231500Y328500*
Y330500*
X231309Y331088*
X230809Y331451*
X230191*
X229691Y331088*
X229500Y330500*
Y328500*
Y330500*
X230000Y327688D02*
Y331312D01*
X230500Y327549D02*
Y331451D01*
X231000Y327688D02*
Y331312D01*
X234500Y328500D02*
X234691Y327912D01*
X235191Y327549*
X235809*
X236309Y327912*
X236500Y328500*
Y330500*
X236309Y331088*
X235809Y331451*
X235191*
X234691Y331088*
X234500Y330500*
Y328500*
Y330500*
X235000Y327688D02*
Y331312D01*
X235500Y327549D02*
Y331451D01*
X236000Y327688D02*
Y331312D01*
X234500Y327250D02*
X247500D01*
Y329750*
X234500*
Y327250*
Y329750*
X235000Y327250D02*
Y329750D01*
X235500Y327250D02*
Y329750D01*
X236000Y327250D02*
Y329750D01*
X236500Y327250D02*
Y329750D01*
X237000Y327250D02*
Y329750D01*
X237500Y327250D02*
Y329750D01*
X238000Y327250D02*
Y329750D01*
X238500Y327250D02*
Y329750D01*
X239000Y327250D02*
Y329750D01*
X239500Y327250D02*
Y329750D01*
X240000Y327250D02*
Y329750D01*
X240500Y327250D02*
Y329750D01*
X241000Y327250D02*
Y329750D01*
X241500Y327250D02*
Y329750D01*
X242000Y327250D02*
Y329750D01*
X242500Y327250D02*
Y329750D01*
X243000Y327250D02*
Y329750D01*
X243500Y327250D02*
Y329750D01*
X244000Y327250D02*
Y329750D01*
X244500Y327250D02*
Y329750D01*
X245000Y327250D02*
Y329750D01*
X245500Y327250D02*
Y329750D01*
X246000Y327250D02*
Y329750D01*
X246500Y327250D02*
Y329750D01*
X247000Y327250D02*
Y329750D01*
X239500Y328500D02*
X239691Y327912D01*
X240191Y327549*
X240809*
X241309Y327912*
X241500Y328500*
Y330500*
X241309Y331088*
X240809Y331451*
X240191*
X239691Y331088*
X239500Y330500*
Y328500*
Y330500*
X240000Y327688D02*
Y331312D01*
X240500Y327549D02*
Y331451D01*
X241000Y327688D02*
Y331312D01*
X244500Y328500D02*
X244691Y327912D01*
X245191Y327549*
X245809*
X246309Y327912*
X246500Y328500*
Y330500*
X246309Y331088*
X245809Y331451*
X245191*
X244691Y331088*
X244500Y330500*
Y328500*
Y330500*
X245000Y327688D02*
Y331312D01*
X245500Y327549D02*
Y331451D01*
X246000Y327688D02*
Y331312D01*
X228500Y306000D02*
X247500D01*
Y321500*
X228500*
Y306000*
Y321500*
X229000Y306000D02*
Y321500D01*
X229500Y306000D02*
Y321500D01*
X230000Y306000D02*
Y321500D01*
X230500Y306000D02*
Y321500D01*
X231000Y306000D02*
Y321500D01*
X231500Y306000D02*
Y321500D01*
X232000Y306000D02*
Y321500D01*
X232500Y306000D02*
Y321500D01*
X233000Y306000D02*
Y321500D01*
X233500Y306000D02*
Y321500D01*
X234000Y306000D02*
Y321500D01*
X234500Y306000D02*
Y321500D01*
X235000Y306000D02*
Y321500D01*
X235500Y306000D02*
Y321500D01*
X236000Y306000D02*
Y321500D01*
X236500Y306000D02*
Y321500D01*
X237000Y306000D02*
Y321500D01*
X237500Y306000D02*
Y321500D01*
X238000Y306000D02*
Y321500D01*
X238500Y306000D02*
Y321500D01*
X239000Y306000D02*
Y321500D01*
X239500Y306000D02*
Y321500D01*
X240000Y306000D02*
Y321500D01*
X240500Y306000D02*
Y321500D01*
X241000Y306000D02*
Y321500D01*
X241500Y306000D02*
Y321500D01*
X242000Y306000D02*
Y321500D01*
X242500Y306000D02*
Y321500D01*
X243000Y306000D02*
Y321500D01*
X243500Y306000D02*
Y321500D01*
X244000Y306000D02*
Y321500D01*
X244500Y306000D02*
Y321500D01*
X245000Y306000D02*
Y321500D01*
X245500Y306000D02*
Y321500D01*
X246000Y306000D02*
Y321500D01*
X246500Y306000D02*
Y321500D01*
X247000Y306000D02*
Y321500D01*
X234500Y305500D02*
X234691Y304912D01*
X235191Y304549*
X235809*
X236309Y304912*
X236500Y305500*
Y307500*
X236309Y308088*
X235809Y308451*
X235191*
X234691Y308088*
X234500Y307500*
Y305500*
Y307500*
X235000Y304688D02*
Y308312D01*
X235500Y304549D02*
Y308451D01*
X236000Y304688D02*
Y308312D01*
X227000Y320500D02*
X227134Y320000D01*
X227500Y319634*
X228000Y319500*
X230000*
X230500Y319634*
X230866Y320000*
X231000Y320500*
X230866Y321000*
X230500Y321366*
X230000Y321500*
X228000*
X227500Y321366*
X227134Y321000*
X227000Y320500*
X227000*
X227500Y319634D02*
Y321366D01*
X228000Y319500D02*
Y321500D01*
X228500Y319500D02*
Y321500D01*
X229000Y319500D02*
Y321500D01*
X229500Y319500D02*
Y321500D01*
X230000Y319500D02*
Y321500D01*
X230500Y319634D02*
Y321366D01*
X245000Y320500D02*
X245134Y320000D01*
X245500Y319634*
X246000Y319500*
X248000*
X248500Y319634*
X248866Y320000*
X249000Y320500*
X248866Y321000*
X248500Y321366*
X248000Y321500*
X246000*
X245500Y321366*
X245134Y321000*
X245000Y320500*
X245000*
X245500Y319634D02*
Y321366D01*
X246000Y319500D02*
Y321500D01*
X246500Y319500D02*
Y321500D01*
X247000Y319500D02*
Y321500D01*
X247500Y319500D02*
Y321500D01*
X248000Y319500D02*
Y321500D01*
X248500Y319634D02*
Y321366D01*
X229500Y305500D02*
X229691Y304912D01*
X230191Y304549*
X230809*
X231309Y304912*
X231500Y305500*
Y307500*
X231309Y308088*
X230809Y308451*
X230191*
X229691Y308088*
X229500Y307500*
Y305500*
Y307500*
X230000Y304688D02*
Y308312D01*
X230500Y304549D02*
Y308451D01*
X231000Y304688D02*
Y308312D01*
X244500Y305500D02*
X244691Y304912D01*
X245191Y304549*
X245809*
X246309Y304912*
X246500Y305500*
Y307500*
X246309Y308088*
X245809Y308451*
X245191*
X244691Y308088*
X244500Y307500*
Y305500*
Y307500*
X245000Y304688D02*
Y308312D01*
X245500Y304549D02*
Y308451D01*
X246000Y304688D02*
Y308312D01*
X239500Y305500D02*
X239691Y304912D01*
X240191Y304549*
X240809*
X241309Y304912*
X241500Y305500*
Y307500*
X241309Y308088*
X240809Y308451*
X240191*
X239691Y308088*
X239500Y307500*
Y305500*
Y307500*
X240000Y304688D02*
Y308312D01*
X240500Y304549D02*
Y308451D01*
X241000Y304688D02*
Y308312D01*
X100500Y100500D02*
X664000D01*
Y536000*
X100500*
Y100500*
G54D35*
X155500Y341400D03*
Y353600D03*
X387000Y238600D03*
Y226400D03*
X214900Y438500D03*
X227100D03*
X293500Y296100D03*
Y283900D03*
X451000Y240100D03*
Y227900D03*
G54D36*
X506000Y356000D03*
G54D37*
X435500Y458000D03*
G54D40*
X117500Y140000D03*
X642000Y482000D03*
G54D45*
G54D46*
X159600Y291000D03*
X153400D03*
X191400Y435000D03*
X197600D03*
X164900Y413000D03*
X171100D03*
X600100Y463500D03*
X593900D03*
X600100Y473500D03*
X593900D03*
X178600Y249500D03*
X172400D03*
X623900Y190500D03*
X630100D03*
Y199500D03*
X623900D03*
X438100Y485000D03*
X431900D03*
X287400Y419500D03*
X293600D03*
X340400Y419000D03*
X346600D03*
X350400Y152000D03*
X356600D03*
X519100Y471500D03*
X512900D03*
X430400Y164000D03*
X436600D03*
X499100Y331000D03*
X492900D03*
X516600Y184000D03*
X510400D03*
X590100Y245000D03*
X583900D03*
X618900Y268000D03*
X625100D03*
X492400Y184000D03*
X498600D03*
X624400Y152000D03*
X630600D03*
X418100Y182000D03*
X411900D03*
X324900Y405000D03*
X331100D03*
X206400Y181500D03*
X212600D03*
X213600Y425500D03*
X207400D03*
X213600Y398000D03*
X207400D03*
X639900Y157500D03*
X646100D03*
X308400Y179000D03*
X314600D03*
X438600Y442500D03*
X432400D03*
X277900Y387000D03*
X284100D03*
X352100D03*
X345900D03*
X314600Y217500D03*
X308400D03*
X293900Y396000D03*
X300100D03*
X197600Y398000D03*
X191400D03*
X197600Y407500D03*
X191400D03*
X314600Y208000D03*
X308400D03*
X212600Y208500D03*
X206400D03*
X274100Y419500D03*
X267900D03*
X358900Y419000D03*
X365100D03*
X175600Y294000D03*
X169400D03*
X314600Y227500D03*
X308400D03*
X389600Y215000D03*
X383400D03*
X577600Y449500D03*
X571400D03*
X491600D03*
X485400D03*
X434400Y198000D03*
X440600D03*
X136900Y201500D03*
X143100D03*
X213600Y416500D03*
X207400D03*
X190900Y384500D03*
X197100D03*
X464100Y442500D03*
X457900D03*
X178600Y282500D03*
X172400D03*
X207400Y407500D03*
X213600D03*
X143100Y210000D03*
X136900D03*
X436600Y385500D03*
X430400D03*
X143100Y171500D03*
X136900D03*
X197600Y176500D03*
X191400D03*
X583900Y236000D03*
X590100D03*
Y254000D03*
X583900D03*
X648900Y210000D03*
X655100D03*
X457900Y473500D03*
X464100D03*
Y482000D03*
X457900D03*
X446400Y367500D03*
X452600D03*
X430400Y349500D03*
X436600D03*
X639900Y174500D03*
X646100D03*
X212600Y199500D03*
X206400D03*
X287400Y410500D03*
X293600D03*
X290400Y239500D03*
X296600D03*
X207900Y384500D03*
X214100D03*
X172400Y274500D03*
X178600D03*
X314100Y261500D03*
X307900D03*
X171100Y396000D03*
X164900D03*
X336100D03*
X329900D03*
X602600Y427500D03*
X596400D03*
X602600Y418500D03*
X596400D03*
X267900Y410500D03*
X274100D03*
X365100D03*
X358900D03*
X324900Y413500D03*
X331100D03*
X240100Y527500D03*
X233900D03*
X321600D03*
X315400D03*
X158100D03*
X151900D03*
X395900D03*
X402100D03*
X639900Y166000D03*
X646100D03*
X153400Y282500D03*
X159600D03*
X178600Y258500D03*
X172400D03*
X476900Y527500D03*
X483100D03*
X178600Y266500D03*
X172400D03*
X206400Y190500D03*
X212600D03*
X430400Y376500D03*
X436600D03*
X452600Y385500D03*
X446400D03*
X191400Y425500D03*
X197600D03*
X446400Y376500D03*
X452600D03*
Y358500D03*
X446400D03*
Y349500D03*
X452600D03*
X336100Y387000D03*
X329900D03*
X234600Y108500D03*
X228400D03*
X557900Y527500D03*
X564100D03*
X397600Y108500D03*
X391400D03*
X152100Y108000D03*
X145900D03*
X639900Y183000D03*
X646100D03*
X559600Y108500D03*
X553400D03*
X612900Y427500D03*
X619100D03*
X612900Y418500D03*
X619100D03*
X430400Y367500D03*
X436600D03*
Y358500D03*
X430400D03*
X164900Y404500D03*
X171100D03*
X314600Y198000D03*
X308400D03*
X315600Y108500D03*
X309400D03*
X446400Y339500D03*
X452600D03*
X308400Y188000D03*
X314600D03*
X197600Y416500D03*
X191400D03*
X340400Y410500D03*
X346600D03*
X293900Y387000D03*
X300100D03*
G54D47*
X186700Y325500D03*
Y315500D03*
X164200D03*
G54D48*
X196340Y294940D03*
Y292970D03*
Y291000D03*
Y289030D03*
Y287060D03*
X213660D03*
Y289030D03*
Y291000D03*
Y292970D03*
Y294940D03*
X181160Y419560D03*
Y421530D03*
Y423500D03*
Y425470D03*
Y427440D03*
X163840D03*
Y425470D03*
Y423500D03*
Y421530D03*
Y419560D03*
G54D49*
X187500Y293100D03*
Y286900D03*
X177500Y195100D03*
Y188900D03*
X195500Y278600D03*
Y272400D03*
X530000Y458600D03*
Y452400D03*
X559500Y271600D03*
Y265400D03*
X354000Y186600D03*
Y180400D03*
X276000Y221100D03*
Y214900D03*
X181000Y412600D03*
Y406400D03*
X485000Y389400D03*
Y395600D03*
X523500Y390400D03*
Y396600D03*
X591000Y263900D03*
Y270100D03*
X197500Y231900D03*
Y238100D03*
X501500Y204900D03*
Y211100D03*
X257000Y221100D03*
Y214900D03*
X381500Y160400D03*
Y166600D03*
X526000Y176600D03*
Y170400D03*
X492000Y168900D03*
Y175100D03*
X197500Y254100D03*
Y247900D03*
X612000Y175600D03*
Y169400D03*
X541500Y271600D03*
Y265400D03*
X523500D03*
Y271600D03*
X188500Y231900D03*
Y238100D03*
X162500Y435900D03*
Y442100D03*
X205500Y327400D03*
Y333600D03*
X214000D03*
Y327400D03*
X381500Y176900D03*
Y183100D03*
X635500Y248900D03*
Y255100D03*
X550500Y271600D03*
Y265400D03*
X510500Y204900D03*
Y211100D03*
X474500Y236900D03*
Y243100D03*
X514500Y390400D03*
Y396600D03*
X505500D03*
Y390400D03*
X514500Y406900D03*
Y413100D03*
X505500Y406900D03*
Y413100D03*
X213500Y272400D03*
Y278600D03*
X252000Y427100D03*
Y420900D03*
X266500Y221100D03*
Y214900D03*
X492500Y220900D03*
Y227100D03*
X390000Y160400D03*
Y166600D03*
X483500Y236900D03*
Y243100D03*
X532500Y271600D03*
Y265400D03*
X501500Y236900D03*
Y243100D03*
X492500Y236900D03*
Y243100D03*
X188500Y254100D03*
Y247900D03*
X162500Y373600D03*
Y367400D03*
X483500Y220900D03*
Y227100D03*
X206500Y238100D03*
Y231900D03*
Y247900D03*
Y254100D03*
X501500Y220900D03*
Y227100D03*
X510500Y236900D03*
Y243100D03*
X309500Y389400D03*
Y395600D03*
X320500Y389400D03*
Y395600D03*
X510500Y220900D03*
Y227100D03*
G54D50*
X230500Y329200D03*
X240500D03*
Y306700D03*
G54D51*
X560750Y117500D03*
X554250D03*
X556250Y517500D03*
X562750D03*
X232750D03*
X239250D03*
X317250Y117500D03*
X310750D03*
X398250D03*
X391750D03*
X153250Y117000D03*
X146750D03*
X314250Y517500D03*
X320750D03*
X119750Y266000D03*
X113250D03*
X394750Y517500D03*
X401250D03*
X150750D03*
X157250D03*
X236250Y117500D03*
X229750D03*
X475750Y517500D03*
X482250D03*
X119750Y251000D03*
X113250D03*
X119750Y236000D03*
X113250D03*
X119750Y221000D03*
X113250D03*
G54D52*
X159950Y265300D03*
Y272700D03*
X150050Y269000D03*
X159950Y247300D03*
Y254700D03*
X150050Y251000D03*
X159950Y229300D03*
Y236700D03*
X150050Y233000D03*
G54D53*
X264280Y361640D03*
Y364240D03*
Y366760D03*
Y369360D03*
X246720D03*
Y366760D03*
Y364240D03*
Y361640D03*
X537220Y253360D03*
Y250760D03*
Y248240D03*
Y245640D03*
X554780D03*
Y248240D03*
Y250760D03*
Y253360D03*
G54D54*
X547500Y155000D03*
X538500D03*
X439500Y475500D03*
X430500D03*
X520500Y481500D03*
X511500D03*
X257000Y353500D03*
X248000D03*
X601500Y453500D03*
X592500D03*
X601500Y483500D03*
X592500D03*
X419500Y191500D03*
X410500D03*
X429000Y154000D03*
X438000D03*
X549500Y236500D03*
X540500D03*
X385500Y472000D03*
X376500D03*
X385500Y461000D03*
X376500D03*
X277500Y400500D03*
X268500D03*
X592500Y442500D03*
X601500D03*
X379500Y446500D03*
X388500D03*
X410500Y202500D03*
X419500D03*
X221500Y152500D03*
X212500D03*
G54D55*
X600500Y177000D03*
Y168000D03*
X535500Y176500D03*
Y167500D03*
X612500Y159000D03*
Y150000D03*
X194000Y470500D03*
Y461500D03*
X418500Y459000D03*
Y450000D03*
X520000Y460000D03*
Y451000D03*
X479500Y328000D03*
Y337000D03*
X494500Y390500D03*
Y399500D03*
X533500Y386500D03*
Y395500D03*
X274500Y366000D03*
Y357000D03*
X181000Y436500D03*
Y445500D03*
X340000Y440500D03*
Y431500D03*
X288500Y440500D03*
Y431500D03*
X277500Y440500D03*
Y431500D03*
X351000Y440500D03*
Y431500D03*
X508500Y451000D03*
Y460000D03*
G54D56*
X171760Y230460D03*
X175500D03*
X179240D03*
Y240540D03*
X175500D03*
X171760D03*
X610260Y463460D03*
X614000D03*
X617740D03*
Y473540D03*
X610260D03*
X418740Y174040D03*
X415000D03*
X411260D03*
Y163960D03*
X418740D03*
X188260Y185460D03*
X192000D03*
X195740D03*
Y195540D03*
X192000D03*
X188260D03*
X361760Y176960D03*
X365500D03*
X369240D03*
Y187040D03*
X365500D03*
X361760D03*
G54D57*
X307300Y241050D03*
X314700D03*
X311000Y250950D03*
X625700Y257450D03*
X618300D03*
X622000Y247550D03*
X571700Y244450D03*
X564300D03*
X568000Y234550D03*
X172300Y363050D03*
X179700D03*
X176000Y372950D03*
X189800Y363050D03*
X197200D03*
X193500Y372950D03*
X296700Y259950D03*
X289300D03*
X293000Y250050D03*
X481700Y180450D03*
X474300D03*
X478000Y170550D03*
X491700Y209950D03*
X484300D03*
X488000Y200050D03*
X390200Y204450D03*
X382800D03*
X386500Y194550D03*
X570800Y460050D03*
X578200D03*
X574500Y469950D03*
X457300Y453050D03*
X464700D03*
X461000Y462950D03*
X484800Y459550D03*
X492200D03*
X488500Y469450D03*
X441200Y186950D03*
X433800D03*
X437500Y177050D03*
X207300Y363050D03*
X214700D03*
X211000Y372950D03*
X143700Y191450D03*
X136300D03*
X140000Y181550D03*
X143700Y161450D03*
X136300D03*
X140000Y151550D03*
G54D58*
X152500Y417500D03*
Y422500D03*
Y427500D03*
Y432500D03*
X131000D03*
Y427500D03*
Y422500D03*
Y417500D03*
X565000Y426000D03*
Y421000D03*
Y416000D03*
Y411000D03*
X586500D03*
Y416000D03*
Y421000D03*
Y426000D03*
G54D60*
X161500Y480900D03*
Y453900D03*
X366000Y281100D03*
Y308100D03*
X438000Y281100D03*
Y308100D03*
X266000Y329900D03*
Y302900D03*
X260500Y252100D03*
Y279100D03*
X234000Y252100D03*
Y279100D03*
G54D62*
X539960Y457740D03*
Y454000D03*
Y450260D03*
X550040D03*
Y457740D03*
X297040Y214260D03*
Y218000D03*
Y221740D03*
X286960D03*
Y218000D03*
Y214260D03*
G54D63*
X160500Y190750D03*
Y207250D03*
X336000Y194750D03*
Y178250D03*
G54D66*
X637940Y192640D03*
X643060Y200360D03*
X637940D03*
G54D67*
X642470Y192640D03*
G54D70*
X526500Y212000D03*
Y219000D03*
X548500D03*
Y212000D03*
X609000Y219000D03*
Y212000D03*
X587000D03*
Y219000D03*
G54D71*
X248012Y213760D03*
Y217500D03*
Y221240D03*
X236988D03*
Y217500D03*
Y213760D03*
G54D72*
X308110Y421330D03*
X310080D03*
X312050D03*
X314020D03*
X315980D03*
X317950D03*
X319920D03*
X321890D03*
Y440670D03*
X319920D03*
X317950D03*
X315980D03*
X314020D03*
X312050D03*
X310080D03*
X308110D03*
G54D73*
X324670Y424110D03*
Y426080D03*
Y428050D03*
Y430020D03*
Y431980D03*
Y433950D03*
Y435920D03*
Y437890D03*
X305330D03*
Y435920D03*
Y433950D03*
Y431980D03*
Y430020D03*
Y428050D03*
Y426080D03*
Y424110D03*
G54D74*
X315080Y431110D03*
G54D77*
X428330Y461860D03*
Y459260D03*
Y456740D03*
Y454140D03*
X442670D03*
Y456740D03*
Y459260D03*
Y461860D03*
G54D78*
X431640Y450830D03*
X434240D03*
X436760D03*
X439360D03*
Y465170D03*
X436760D03*
X434240D03*
X431640D03*
G54D128*
X489390Y366830D03*
Y364860D03*
Y362890D03*
Y360920D03*
Y358950D03*
Y356980D03*
Y355020D03*
Y353050D03*
Y351080D03*
Y349110D03*
Y347140D03*
Y345170D03*
X522610D03*
Y347140D03*
Y349110D03*
Y351080D03*
Y353050D03*
Y355020D03*
Y356980D03*
Y358950D03*
Y360920D03*
Y362890D03*
Y364860D03*
Y366830D03*
G54D129*
X495170Y339390D03*
X497140D03*
X499110D03*
X501080D03*
X503050D03*
X505020D03*
X506980D03*
X508950D03*
X510920D03*
X512890D03*
X514860D03*
X516830D03*
Y372610D03*
X514860D03*
X512890D03*
X510920D03*
X508950D03*
X506980D03*
X505020D03*
X503050D03*
X501080D03*
X499110D03*
X497140D03*
X495170D03*
G54D130*
X504460Y176360D03*
Y173760D03*
Y171240D03*
Y168640D03*
X514540D03*
Y171240D03*
Y173760D03*
Y176360D03*
G54D131*
X590500Y193000D03*
X606500D03*
X545000D03*
X529000D03*
X171500Y177000D03*
X155500D03*
G54D132*
X547250Y476000D03*
X530750D03*
G54D133*
X263500Y234000D03*
X242500D03*
X197000Y314000D03*
X218000D03*
G54D134*
X474500Y211000D03*
Y200000D03*
X645500Y245500D03*
Y256500D03*
G54D135*
X304500Y467500D03*
X267500D03*
X323000D03*
X360000D03*
G54D136*
X182000Y352000D03*
X171000D03*
G54D137*
X622640Y163220D03*
X625240D03*
X627760D03*
X630360D03*
Y180780D03*
X627760D03*
X625240D03*
X622640D03*
G54D138*
X243000Y202000D03*
Y165000D03*
X127000Y445000D03*
Y482000D03*
G54D139*
X529012Y155000D03*
X517988D03*
X602512Y151000D03*
X591488D03*
G54D140*
X523500Y155000D03*
X597000Y151000D03*
G54D141*
X138400Y388500D03*
X111400D03*
X138400Y362500D03*
X111400D03*
G54D142*
X226500Y231500D03*
Y215500D03*
X339500Y225500D03*
Y209500D03*
X0Y0D02*
M02*
