*
*
G04 PADS 9.2 Build Number: 406656 generated Gerber (RS-274-X) file*
G04 PC Version=2.1*
*
%IN "POWERDESIGN_PCB_V03_051"*%
*
%MOIN*%
*
%FSLAX35Y35*%
*
*
*
*
G04 PC Standard Apertures*
*
*
G04 Thermal Relief Aperture macro.*
%AMTER*
1,1,$1,0,0*
1,0,$1-$2,0,0*
21,0,$3,$4,0,0,45*
21,0,$3,$4,0,0,135*
%
*
*
G04 Annular Aperture macro.*
%AMANN*
1,1,$1,0,0*
1,0,$2,0,0*
%
*
*
G04 Odd Aperture macro.*
%AMODD*
1,1,$1,0,0*
1,0,$1-0.005,0,0*
%
*
*
G04 PC Custom Aperture Macros*
*
*
*
*
*
*
G04 PC Aperture Table*
*
%ADD033C,0.01*%
%ADD045C,0.001*%
%ADD083C,0.006*%
%ADD084C,0.005*%
*
*
*
*
G04 PC Circuitry*
G04 Layer Name POWERDESIGN_PCB_V03_051 - circuitry*
%LPD*%
*
*
G04 PC Custom Flashes*
G04 Layer Name POWERDESIGN_PCB_V03_051 - flashes*
%LPD*%
*
*
G04 PC Circuitry*
G04 Layer Name POWERDESIGN_PCB_V03_051 - circuitry*
%LPD*%
*
G54D33*
G01X100500Y100500D02*
X664000D01*
Y536000*
X100500*
Y100500*
G54D45*
G54D83*
X322500Y427938D02*
Y424000D01*
Y427938D02*
X321273D01*
X320864Y427750*
X320727Y427563*
X320591Y427188*
Y426625*
X320727Y426250*
X320864Y426063*
X321273Y425875*
X322500*
X319364Y427188D02*
X319091Y427375D01*
X318682Y427938*
Y424000*
X177938Y423000D02*
X174000D01*
X177938D02*
Y424227D01*
X177938D02*
X177750Y424636D01*
X177563Y424773*
X177563D02*
X177188Y424909D01*
X177188D02*
X176625D01*
X176250Y424773*
X176063Y424636*
X176063D02*
X175875Y424227D01*
Y423000*
X177000Y426273D02*
X177188D01*
X177188D02*
X177563Y426409D01*
X177563D02*
X177750Y426545D01*
X177938Y426818*
X177938D02*
Y427364D01*
X177938D02*
X177750Y427636D01*
X177563Y427773*
X177563D02*
X177188Y427909D01*
X177188D02*
X176813D01*
X176813D02*
X176438Y427773D01*
X176438D02*
X175875Y427500D01*
X174000Y426136*
Y428045*
X295500Y220438D02*
Y216500D01*
Y220438D02*
X294273D01*
X294273D02*
X293864Y220250D01*
X293727Y220063*
X293727D02*
X293591Y219688D01*
X293591D02*
Y219125D01*
X293727Y218750*
X293864Y218563*
X293864D02*
X294273Y218375D01*
X295500*
X292091Y220438D02*
X290591D01*
X290591D02*
X291409Y218938D01*
X291409D02*
X291000D01*
X291000D02*
X290727Y218750D01*
X290591Y218563*
X290591D02*
X290455Y218000D01*
Y217625*
X290591Y217063*
X290591D02*
X290864Y216688D01*
X290864D02*
X291273Y216500D01*
X291682*
X292091Y216688*
X292091D02*
X292227Y216875D01*
X292364Y217250*
G54D84*
X119693Y148766D02*
Y145484D01*
Y148766D02*
X118784Y145484D01*
X117875Y148766D02*
X118784Y145484D01*
X117875Y148766D02*
Y145484D01*
X116625Y148766D02*
X115375D01*
X116057Y147516*
X115716*
X115489Y147359*
X115375Y147203*
X115261Y146734*
Y146422*
X115375Y145953*
X115602Y145641*
X115943Y145484*
X116284*
X116625Y145641*
X116739Y145797*
X116852Y146109*
X643750Y477266D02*
Y473984D01*
Y477266D02*
X642841Y473984D01*
X641932Y477266D02*
X642841Y473984D01*
X641932Y477266D02*
Y473984D01*
X639773Y477266D02*
X640909Y475078D01*
X639205*
X639773Y477266D02*
Y473984D01*
X0Y0D02*
M02*
