  0
SECTION
  2
HEADER
  9
$ACADVER
  1
AC1009
  9
$FILLMODE
 70
0
  9
$EXTMIN
 10
-0.8468
 20
-1.0160
 30
0.0000
  9
$EXTMAX
 10
89.0160
 20
95.3468
 30
0.0000
  0
ENDSEC
  0
SECTION
  2
TABLES
  0
TABLE
  2
LTYPE
 70
1
  0
LTYPE
  2
CONTINUOUS
 70
64
  3
Solid line
 72
65
 73
0
 40
0
  0
ENDTAB
  0
TABLE
  2
LAYER
 70
255
  0
LAYER
  2
20
 70
64
 62
7
  6
CONTINUOUS
  0
LAYER
  2
44
 70
64
 62
253
  6
CONTINUOUS
  0
ENDTAB
  0
ENDSEC
  0
SECTION
  2
BLOCKS
  0
BLOCK
  8
0
  2
RECT
 70
64
 10
0.0000
 20
0.0000
 30
0.0000
  3
RECT
  0
SOLID
  8
0
 10
-0.5000
 20
-0.5000
 30
0.0000
 11
0.5000
 21
-0.5000
 31
0.0000
 12
-0.5000
 22
0.5000
 32
0.0000
 13
0.5000
 23
0.5000
 33
0.0000
  0
ENDBLK
  8
0
  0
BLOCK
  8
0
  2
PIE
 70
64
 10
0.0000
 20
0.0000
 30
0.0000
  3
PIE
  0
CIRCLE
  8
0
 10
0.0000
 20
0.0000
 30
0.0000
 40
0.5000
  0
ENDBLK
  8
0
  0
BLOCK
  8
0
  2
OCTAGONP
 70
64
 10
0.0000
 20
0.0000
 30
0.0000
  3
OCTAGONP
  0
POLYLINE
  8
0
 66
1
 10
0.0000
 20
0.0000
 30
0.0000
 40
0.0000
 41
0.0000
 70
1
  0
VERTEX
  8
0
 10
-0.5000
 20
-0.2071
 30
0.0000
  0
VERTEX
  8
0
 10
-0.5000
 20
0.2071
 30
0.0000
  0
VERTEX
  8
0
 10
-0.2071
 20
0.5000
 30
0.0000
  0
VERTEX
  8
0
 10
0.2071
 20
0.5000
 30
0.0000
  0
VERTEX
  8
0
 10
0.5000
 20
0.2071
 30
0.0000
  0
VERTEX
  8
0
 10
0.5000
 20
-0.2071
 30
0.0000
  0
VERTEX
  8
0
 10
0.2071
 20
-0.5000
 30
0.0000
  0
VERTEX
  8
0
 10
-0.2071
 20
-0.5000
 30
0.0000
  0
SEQEND
  8
0
  0
ENDBLK
  8
0
  0
BLOCK
  8
0
  2
SQUAREP
 70
64
 10
0.0000
 20
0.0000
 30
0.0000
  3
SQUAREP
  0
SOLID
  8
0
 10
-0.5000
 20
-0.5000
 30
0.0000
 11
0.5000
 21
-0.5000
 31
0.0000
 12
-0.5000
 22
0.5000
 32
0.0000
 13
0.5000
 23
0.5000
 33
0.0000
  0
ENDBLK
  8
0
  0
BLOCK
  8
0
  2
ROUNDP
 70
64
 10
0.0000
 20
0.0000
 30
0.0000
  3
ROUNDP
  0
CIRCLE
  8
0
 10
0.0000
 20
0.0000
 30
0.0000
 40
0.5000
  0
ENDBLK
  8
0
  0
BLOCK
  8
0
  2
ANNULUSP
 70
64
 10
0.0000
 20
0.0000
 30
0.0000
  3
ANNULUSP
  0
CIRCLE
  8
0
 10
0.0000
 20
0.0000
 30
0.0000
 40
0.5000
  0
ENDBLK
  8
0
  0
BLOCK
  8
0
  2
THERMALP
 70
64
 10
0.0000
 20
0.0000
 30
0.0000
  3
THERMALP
  0
LINE
  8
0
 10
-0.2379
 20
0.4500
 30
0.0000
 11
0.2379
 21
0.4500
 31
0.0000
  0
LINE
  8
0
 10
0.4500
 20
0.2379
 30
0.0000
 11
0.4500
 21
-0.2379
 31
0.0000
  0
LINE
  8
0
 10
0.2379
 20
-0.4500
 30
0.0000
 11
-0.2379
 21
-0.4500
 31
0.0000
  0
LINE
  8
0
 10
-0.4500
 20
-0.2379
 30
0.0000
 11
-0.4500
 21
0.2379
 31
0.0000
  0
ENDBLK
  8
0
  0
BLOCK
  8
0
  2
OCTAGONV
 70
64
 10
0.0000
 20
0.0000
 30
0.0000
  3
OCTAGONV
  0
POLYLINE
  8
0
 66
1
 10
0.0000
 20
0.0000
 30
0.0000
 40
0.0000
 41
0.0000
 70
1
  0
VERTEX
  8
0
 10
-0.5000
 20
-0.2071
 30
0.0000
  0
VERTEX
  8
0
 10
-0.5000
 20
0.2071
 30
0.0000
  0
VERTEX
  8
0
 10
-0.2071
 20
0.5000
 30
0.0000
  0
VERTEX
  8
0
 10
0.2071
 20
0.5000
 30
0.0000
  0
VERTEX
  8
0
 10
0.5000
 20
0.2071
 30
0.0000
  0
VERTEX
  8
0
 10
0.5000
 20
-0.2071
 30
0.0000
  0
VERTEX
  8
0
 10
0.2071
 20
-0.5000
 30
0.0000
  0
VERTEX
  8
0
 10
-0.2071
 20
-0.5000
 30
0.0000
  0
SEQEND
  8
0
  0
ENDBLK
  8
0
  0
BLOCK
  8
0
  2
SQUAREV
 70
64
 10
0.0000
 20
0.0000
 30
0.0000
  3
SQUAREV
  0
SOLID
  8
0
 10
-0.5000
 20
-0.5000
 30
0.0000
 11
0.5000
 21
-0.5000
 31
0.0000
 12
-0.5000
 22
0.5000
 32
0.0000
 13
0.5000
 23
0.5000
 33
0.0000
  0
ENDBLK
  8
0
  0
BLOCK
  8
0
  2
ROUNDV
 70
64
 10
0.0000
 20
0.0000
 30
0.0000
  3
ROUNDV
  0
CIRCLE
  8
0
 10
0.0000
 20
0.0000
 30
0.0000
 40
0.5000
  0
ENDBLK
  8
0
  0
BLOCK
  8
0
  2
ANNULUSV
 70
64
 10
0.0000
 20
0.0000
 30
0.0000
  3
ANNULUSV
  0
CIRCLE
  8
0
 10
0.0000
 20
0.0000
 30
0.0000
 40
0.5000
  0
ENDBLK
  8
0
  0
BLOCK
  8
0
  2
THERMALV
 70
64
 10
0.0000
 20
0.0000
 30
0.0000
  3
THERMALV
  0
LINE
  8
0
 10
-0.2379
 20
0.4500
 30
0.0000
 11
0.2379
 21
0.4500
 31
0.0000
  0
LINE
  8
0
 10
0.4500
 20
0.2379
 30
0.0000
 11
0.4500
 21
-0.2379
 31
0.0000
  0
LINE
  8
0
 10
0.2379
 20
-0.4500
 30
0.0000
 11
-0.2379
 21
-0.4500
 31
0.0000
  0
LINE
  8
0
 10
-0.4500
 20
-0.2379
 30
0.0000
 11
-0.4500
 21
0.2379
 31
0.0000
  0
ENDBLK
  8
0
  0
ENDSEC
  0
SECTION
  2
ENTITIES
  0
LINE
  8
20
 10
5.6050
 20
77.0000
 30
0.0000
 11
1.2700
 21
77.0000
 31
0.0000
  0
ARC
  8
20
 10
1.2700
 20
78.2700
 30
0.0000
 40
1.2700
 50
180.0000
 51
270.0000
  0
LINE
  8
20
 10
0.0000
 20
78.2700
 30
0.0000
 11
0.0000
 21
92.0000
 31
0.0000
  0
ARC
  8
20
 10
2.0000
 20
92.0000
 30
0.0000
 40
2.0000
 50
90.0000
 51
180.0000
  0
LINE
  8
20
 10
2.0000
 20
94.0000
 30
0.0000
 11
86.0000
 21
94.0000
 31
0.0000
  0
ARC
  8
20
 10
86.0000
 20
92.0000
 30
0.0000
 40
2.0000
 50
0.0000
 51
90.0000
  0
LINE
  8
20
 10
88.0000
 20
92.0000
 30
0.0000
 11
88.0000
 21
79.0000
 31
0.0000
  0
ARC
  8
20
 10
86.0000
 20
79.0000
 30
0.0000
 40
2.0000
 50
270.0000
 51
0.0000
  0
LINE
  8
20
 10
86.0000
 20
77.0000
 30
0.0000
 11
82.3950
 21
77.0000
 31
0.0000
  0
ARC
  8
20
 10
82.3950
 20
75.7300
 30
0.0000
 40
1.2700
 50
90.0000
 51
180.0000
  0
LINE
  8
20
 10
81.1250
 20
75.7300
 30
0.0000
 11
81.1250
 21
11.2700
 31
0.0000
  0
ARC
  8
20
 10
82.3950
 20
11.2700
 30
0.0000
 40
1.2700
 50
180.0000
 51
270.0000
  0
LINE
  8
20
 10
82.3950
 20
10.0000
 30
0.0000
 11
86.0000
 21
10.0000
 31
0.0000
  0
ARC
  8
20
 10
86.0000
 20
8.0000
 30
0.0000
 40
2.0000
 50
0.0000
 51
90.0000
  0
LINE
  8
20
 10
88.0000
 20
8.0000
 30
0.0000
 11
88.0000
 21
0.0000
 31
0.0000
  0
LINE
  8
20
 10
88.0000
 20
0.0000
 30
0.0000
 11
2.0000
 21
0.0000
 31
0.0000
  0
ARC
  8
20
 10
2.0000
 20
2.0000
 30
0.0000
 40
2.0000
 50
180.0000
 51
270.0000
  0
LINE
  8
20
 10
0.0000
 20
2.0000
 30
0.0000
 11
0.0000
 21
8.0230
 31
0.0000
  0
ARC
  8
20
 10
1.9885
 20
8.0115
 30
0.0000
 40
1.9885
 50
89.6686
 51
179.6686
  0
LINE
  8
20
 10
2.0000
 20
10.0000
 30
0.0000
 11
5.6050
 21
10.0000
 31
0.0000
  0
ARC
  8
20
 10
5.6050
 20
11.2700
 30
0.0000
 40
1.2700
 50
270.0000
 51
0.0000
  0
LINE
  8
20
 10
6.8750
 20
11.2700
 30
0.0000
 11
6.8750
 21
75.7300
 31
0.0000
  0
ARC
  8
20
 10
5.6050
 20
75.7300
 30
0.0000
 40
1.2700
 50
0.0000
 51
90.0000
  0
LINE
  8
20
 10
67.0000
 20
15.5000
 30
0.0000
 11
21.0000
 21
15.5000
 31
0.0000
  0
LINE
  8
20
 10
21.0000
 20
15.5000
 30
0.0000
 11
21.0000
 21
38.5000
 31
0.0000
  0
LINE
  8
20
 10
21.0000
 20
38.5000
 30
0.0000
 11
31.5000
 21
38.5000
 31
0.0000
  0
LINE
  8
20
 10
31.5000
 20
38.5000
 30
0.0000
 11
31.5000
 21
82.0000
 31
0.0000
  0
LINE
  8
20
 10
31.5000
 20
82.0000
 30
0.0000
 11
56.5000
 21
82.0000
 31
0.0000
  0
LINE
  8
20
 10
56.5000
 20
82.0000
 30
0.0000
 11
56.5000
 21
38.5000
 31
0.0000
  0
LINE
  8
20
 10
56.5000
 20
38.5000
 30
0.0000
 11
67.0000
 21
38.5000
 31
0.0000
  0
LINE
  8
20
 10
67.0000
 20
38.5000
 30
0.0000
 11
67.0000
 21
15.5000
 31
0.0000
  0
ENDSEC
  0
EOF
