G75*
%MOIN*%
%OFA0B0*%
%FSLAX24Y24*%
%IPPOS*%
%LPD*%
%AMOC8*
5,1,8,0,0,1.08239X$1,22.5*
%
%ADD10R,0.0600X0.0600*%
%ADD11C,0.0600*%
%ADD12C,0.2756*%
%ADD13C,0.1890*%
%ADD14C,0.0210*%
%ADD15C,0.0100*%
%ADD16C,0.0300*%
%ADD17C,0.0050*%
D10*
X030100Y003500D03*
X030100Y005500D03*
D11*
X030100Y004500D03*
X029100Y004500D03*
X029100Y003500D03*
X029100Y002500D03*
X028100Y002500D03*
X027100Y002500D03*
X027100Y003500D03*
X027100Y004500D03*
X028100Y004500D03*
X028100Y003500D03*
X028100Y005500D03*
X027100Y005500D03*
X026100Y005500D03*
X026100Y004500D03*
X026100Y003500D03*
X026100Y002500D03*
X025100Y002500D03*
X025100Y003500D03*
X025100Y004500D03*
X025100Y005500D03*
X024100Y005500D03*
X024100Y004500D03*
X024100Y003500D03*
X024100Y002500D03*
X023100Y002500D03*
X022100Y002500D03*
X022100Y003500D03*
X022100Y004500D03*
X023100Y004500D03*
X023100Y003500D03*
X023100Y005500D03*
X022100Y005500D03*
X021100Y005500D03*
X021100Y004500D03*
X021100Y003500D03*
X021100Y002500D03*
X020100Y002500D03*
X020100Y003500D03*
X020100Y004500D03*
X020100Y005500D03*
X019100Y005500D03*
X018100Y005500D03*
X018100Y004500D03*
X018100Y003500D03*
X019100Y003500D03*
X019100Y004500D03*
X019100Y002500D03*
X018100Y002500D03*
X017100Y002500D03*
X017100Y003500D03*
X017100Y004500D03*
X017100Y005500D03*
X016100Y005500D03*
X016100Y004500D03*
X016100Y003500D03*
X016100Y002500D03*
X015100Y002500D03*
X014100Y002500D03*
X014100Y003500D03*
X014100Y004500D03*
X015100Y004500D03*
X015100Y003500D03*
X015100Y005500D03*
X014100Y005500D03*
X013100Y005500D03*
X013100Y004500D03*
X013100Y003500D03*
X013100Y002500D03*
X012100Y002500D03*
X012100Y003500D03*
X012100Y004500D03*
X012100Y005500D03*
X011100Y005500D03*
X011100Y004500D03*
X011100Y003500D03*
X011100Y002500D03*
X010100Y002500D03*
X009100Y002500D03*
X009100Y003500D03*
X009100Y004500D03*
X010100Y004500D03*
X010100Y003500D03*
X010100Y005500D03*
X009100Y005500D03*
X008100Y005500D03*
X008100Y004500D03*
X008100Y003500D03*
X008100Y002500D03*
X007100Y002500D03*
X007100Y003500D03*
X007100Y004500D03*
X007100Y005500D03*
X006100Y005500D03*
X005100Y005500D03*
X005100Y004500D03*
X005100Y003500D03*
X006100Y003500D03*
X006100Y004500D03*
X006100Y002500D03*
X005100Y002500D03*
X029100Y005500D03*
X030100Y002500D03*
D12*
X003084Y002390D03*
X032100Y002390D03*
X033635Y036130D03*
X002139Y036130D03*
D13*
X004509Y034051D03*
X031470Y034051D03*
D14*
X019488Y003000D03*
X019194Y001256D03*
X019984Y001257D03*
X020772Y001251D03*
X021559Y001247D03*
X022350Y001251D03*
X023311Y001230D03*
X023923Y001251D03*
X024316Y001261D03*
X024714Y001257D03*
X025104Y001259D03*
X025491Y001256D03*
X025883Y001257D03*
X026285Y001257D03*
X026672Y001249D03*
X027071Y001252D03*
X027467Y001254D03*
X027853Y001250D03*
X028251Y001249D03*
X028650Y001257D03*
X029039Y001257D03*
X029431Y001260D03*
X029830Y001257D03*
X030205Y001069D03*
X028431Y002125D03*
X027521Y002150D03*
X026480Y002126D03*
X025478Y002130D03*
X024666Y002140D03*
X017127Y001712D03*
X017168Y001110D03*
X012607Y002183D03*
X010583Y002184D03*
X009988Y001257D03*
X009193Y001247D03*
X008803Y001247D03*
X008403Y001247D03*
X008013Y001247D03*
X007613Y001247D03*
X007223Y001247D03*
X006570Y002150D03*
X006219Y001230D03*
X005825Y001235D03*
X005659Y002117D03*
X004884Y001694D03*
X009602Y002158D03*
D15*
X008046Y001247D02*
X008013Y001247D01*
X006842Y000826D02*
X006658Y001010D01*
X006658Y001443D01*
X006246Y001856D01*
X006246Y002354D01*
X006100Y002500D01*
X006842Y000826D02*
X029959Y000826D01*
X030202Y001069D01*
X030205Y001069D01*
X029830Y001257D02*
X029830Y001262D01*
X030578Y002010D01*
X030578Y005930D01*
X030168Y006340D01*
X029523Y006340D01*
X006793Y006344D01*
X006100Y005651D01*
X006100Y005500D01*
X014100Y005500D02*
X014156Y005500D01*
X014749Y006093D01*
X029294Y006093D01*
X029606Y005781D01*
X029606Y002246D01*
X029431Y002071D01*
X029431Y001260D01*
X028511Y002125D02*
X028601Y002215D01*
X028601Y004795D01*
X028385Y005010D01*
X026649Y005010D01*
X026159Y005500D01*
X026100Y005500D01*
X025604Y004848D02*
X025604Y004299D01*
X025899Y004004D01*
X027348Y004004D01*
X027608Y003744D01*
X027608Y002390D01*
X027521Y002304D01*
X027521Y002150D01*
X027100Y002500D02*
X026938Y002338D01*
X026938Y001870D01*
X026672Y001604D01*
X026672Y001249D01*
X026285Y001257D02*
X026285Y001663D01*
X026088Y001860D01*
X026088Y002488D01*
X026100Y002500D01*
X026480Y002252D02*
X026480Y002126D01*
X026480Y002252D02*
X026588Y002360D01*
X026588Y002700D01*
X026589Y002700D01*
X026278Y003011D01*
X025905Y003011D01*
X025594Y003321D01*
X025594Y003698D01*
X025280Y004013D01*
X024600Y004013D01*
X024113Y004500D01*
X024100Y004500D01*
X024100Y003500D02*
X024100Y003362D01*
X023608Y002870D01*
X023608Y001700D01*
X023923Y001385D01*
X023923Y001251D01*
X024714Y001257D02*
X024718Y001261D01*
X024718Y001460D01*
X025100Y001842D01*
X025100Y002500D01*
X025599Y002359D02*
X025599Y002881D01*
X025100Y003380D01*
X025100Y003500D01*
X025599Y002359D02*
X025788Y002170D01*
X025788Y001903D01*
X025144Y001259D01*
X025104Y001259D01*
X023100Y001981D02*
X022370Y001251D01*
X022350Y001251D01*
X022100Y001758D02*
X021589Y001247D01*
X021559Y001247D01*
X022100Y001758D02*
X022100Y002500D01*
X021607Y002846D02*
X021607Y002056D01*
X020802Y001251D01*
X020772Y001251D01*
X020014Y001257D02*
X019984Y001257D01*
X020014Y001257D02*
X021100Y002343D01*
X021100Y002500D01*
X021607Y002846D02*
X021100Y003352D01*
X021100Y003500D01*
X019194Y002406D02*
X019194Y001256D01*
X019194Y002406D02*
X019100Y002500D01*
X019100Y003500D01*
X018100Y003500D02*
X018100Y002500D01*
X017312Y001712D01*
X017127Y001712D01*
X023100Y001981D02*
X023100Y002500D01*
X025604Y004848D02*
X025100Y005352D01*
X025100Y005500D01*
X028431Y002125D02*
X028511Y002125D01*
D16*
X008100Y002500D02*
X008100Y001302D01*
X008046Y001247D01*
X008100Y002500D02*
X008100Y003500D01*
D17*
X006998Y001410D02*
X009408Y001410D01*
X009408Y001070D01*
X006998Y001070D01*
X006998Y001410D01*
X006998Y001373D02*
X009408Y001373D01*
X009408Y001325D02*
X006998Y001325D01*
X006998Y001276D02*
X009408Y001276D01*
X009408Y001228D02*
X006998Y001228D01*
X006998Y001179D02*
X009408Y001179D01*
X009408Y001131D02*
X006998Y001131D01*
X006998Y001082D02*
X009408Y001082D01*
M02*
