G75*
%MOIN*%
%OFA0B0*%
%FSLAX24Y24*%
%IPPOS*%
%LPD*%
%AMOC8*
5,1,8,0,0,1.08239X$1,22.5*
%
%ADD10C,0.0060*%
%ADD11C,0.0000*%
%ADD12C,0.0010*%
%ADD13C,0.0050*%
%ADD14C,0.0030*%
%ADD15C,0.0040*%
%ADD16C,0.0080*%
%ADD17C,0.0100*%
D10*
X004774Y020990D02*
X004904Y020990D01*
X004991Y020903D01*
X005034Y020903D01*
X004904Y020990D02*
X004991Y021077D01*
X005034Y021077D01*
X005034Y021198D02*
X005034Y021371D01*
X005034Y021284D02*
X004774Y021284D01*
X004774Y021481D02*
X004774Y021568D01*
X004774Y021524D02*
X005034Y021524D01*
X005034Y021481D02*
X005034Y021568D01*
X004991Y021689D02*
X005034Y021732D01*
X005034Y021819D01*
X004991Y021862D01*
X004948Y021862D01*
X004904Y021819D01*
X004904Y021732D01*
X004861Y021689D01*
X004817Y021689D01*
X004774Y021732D01*
X004774Y021819D01*
X004817Y021862D01*
X004774Y021983D02*
X004861Y022070D01*
X004861Y022027D02*
X004861Y022157D01*
X004774Y022157D02*
X005034Y022157D01*
X005034Y022027D01*
X004991Y021983D01*
X004904Y021983D01*
X004861Y022027D01*
X004774Y022278D02*
X004774Y022452D01*
X005034Y022452D01*
X005034Y022278D01*
X004904Y022365D02*
X004904Y022452D01*
X004861Y022573D02*
X005034Y022573D01*
X004861Y022573D02*
X004774Y022659D01*
X004861Y022746D01*
X005034Y022746D01*
X005034Y022856D02*
X005034Y022943D01*
X005034Y022899D02*
X004774Y022899D01*
X004774Y022856D02*
X004774Y022943D01*
X004774Y023064D02*
X005034Y023064D01*
X005034Y023237D02*
X004774Y023064D01*
X004774Y023237D02*
X005034Y023237D01*
X005034Y023358D02*
X004817Y023358D01*
X004774Y023402D01*
X004774Y023489D01*
X004817Y023532D01*
X005034Y023532D01*
X005034Y023948D02*
X004774Y023948D01*
X005034Y024121D01*
X004774Y024121D01*
X004817Y024242D02*
X004991Y024242D01*
X005034Y024286D01*
X005034Y024373D01*
X004991Y024416D01*
X004817Y024416D01*
X004774Y024373D01*
X004774Y024286D01*
X004817Y024242D01*
X005034Y024537D02*
X005034Y024711D01*
X005034Y024624D02*
X004774Y024624D01*
X004817Y024832D02*
X004904Y024832D01*
X004904Y024918D01*
X004817Y024832D02*
X004774Y024875D01*
X004774Y024962D01*
X004817Y025005D01*
X004991Y025005D01*
X005034Y024962D01*
X005034Y024875D01*
X004991Y024832D01*
X005034Y025126D02*
X004774Y025126D01*
X005034Y025300D01*
X004774Y025300D01*
X004774Y025410D02*
X004774Y025496D01*
X004774Y025453D02*
X005034Y025453D01*
X005034Y025496D02*
X005034Y025410D01*
X005034Y025617D02*
X004774Y025617D01*
X004904Y025617D02*
X004904Y025791D01*
X004861Y025912D02*
X004817Y025912D01*
X004774Y025955D01*
X004774Y026042D01*
X004817Y026086D01*
X004904Y026042D02*
X004948Y026086D01*
X004991Y026086D01*
X005034Y026042D01*
X005034Y025955D01*
X004991Y025912D01*
X004904Y025955D02*
X004861Y025912D01*
X004904Y025955D02*
X004904Y026042D01*
X004904Y026207D02*
X004904Y026380D01*
X004948Y026380D02*
X005034Y026294D01*
X004948Y026207D01*
X004774Y026207D01*
X004774Y026380D02*
X004948Y026380D01*
X005034Y026501D02*
X004774Y026501D01*
X004861Y026588D01*
X004774Y026675D01*
X005034Y026675D01*
X005034Y027091D02*
X005034Y027264D01*
X004774Y027264D01*
X004774Y027091D01*
X004904Y027177D02*
X004904Y027264D01*
X004904Y027385D02*
X004904Y027472D01*
X004904Y027385D02*
X004817Y027385D01*
X004774Y027429D01*
X004774Y027515D01*
X004817Y027559D01*
X004991Y027559D01*
X005034Y027515D01*
X005034Y027429D01*
X004991Y027385D01*
X004991Y027680D02*
X004904Y027680D01*
X004861Y027723D01*
X004861Y027854D01*
X004774Y027854D02*
X005034Y027854D01*
X005034Y027723D01*
X004991Y027680D01*
X004861Y027767D02*
X004774Y027680D01*
X004817Y027975D02*
X004991Y027975D01*
X005034Y028018D01*
X005034Y028105D01*
X004991Y028148D01*
X004817Y028148D01*
X004774Y028105D01*
X004774Y028018D01*
X004817Y027975D01*
X004774Y028269D02*
X004774Y028443D01*
X005034Y028443D01*
X005034Y028269D01*
X004904Y028356D02*
X004904Y028443D01*
X004904Y028564D02*
X004904Y028651D01*
X004904Y028564D02*
X004817Y028564D01*
X004774Y028607D01*
X004774Y028694D01*
X004817Y028737D01*
X004991Y028737D01*
X005034Y028694D01*
X005034Y028607D01*
X004991Y028564D01*
X005034Y029153D02*
X005034Y029327D01*
X004774Y029327D01*
X004774Y029153D01*
X004904Y029240D02*
X004904Y029327D01*
X004904Y029448D02*
X004904Y029621D01*
X004774Y029621D02*
X005034Y029621D01*
X005034Y029743D02*
X005034Y029916D01*
X005034Y029829D02*
X004774Y029829D01*
X004774Y029448D02*
X005034Y029448D01*
X004817Y030320D02*
X004817Y030364D01*
X004774Y030364D01*
X004774Y030320D01*
X004817Y030320D01*
X004774Y030320D02*
X004687Y030407D01*
X004817Y030528D02*
X004774Y030572D01*
X004774Y030658D01*
X004817Y030702D01*
X004904Y030702D02*
X004948Y030615D01*
X004948Y030572D01*
X004904Y030528D01*
X004817Y030528D01*
X004904Y030702D02*
X005034Y030702D01*
X005034Y030528D01*
X005034Y030910D02*
X004774Y030910D01*
X004774Y030996D02*
X004774Y030823D01*
X004948Y030996D02*
X005034Y030910D01*
X004991Y031118D02*
X004817Y031291D01*
X004774Y031248D01*
X004774Y031161D01*
X004817Y031118D01*
X004991Y031118D01*
X005034Y031161D01*
X005034Y031248D01*
X004991Y031291D01*
X004817Y031291D01*
X004774Y031412D02*
X004774Y031586D01*
X004948Y031412D01*
X004991Y031412D01*
X005034Y031456D01*
X005034Y031542D01*
X004991Y031586D01*
X004948Y031990D02*
X005034Y032077D01*
X004948Y031990D02*
X004861Y031990D01*
X004774Y032077D01*
X004774Y032198D02*
X004774Y032328D01*
X004817Y032371D01*
X004904Y032371D01*
X004948Y032328D01*
X004948Y032198D01*
X005034Y032481D02*
X004948Y032568D01*
X004861Y032568D01*
X004774Y032481D01*
X004774Y025791D02*
X005034Y025791D01*
X006293Y024021D02*
X006187Y023914D01*
X006187Y023487D01*
X006293Y023380D01*
X006507Y023380D01*
X006614Y023487D01*
X006614Y023700D01*
X006400Y023700D01*
X006614Y023914D02*
X006507Y024021D01*
X006293Y024021D01*
X006831Y024021D02*
X006831Y023380D01*
X007045Y023594D01*
X007258Y023380D01*
X007258Y024021D01*
X007476Y024021D02*
X007476Y023487D01*
X007583Y023380D01*
X007796Y023380D01*
X007903Y023487D01*
X007903Y024021D01*
X008765Y024021D02*
X008765Y023380D01*
X008765Y022971D02*
X008765Y022864D01*
X008978Y022650D01*
X008978Y022330D01*
X008978Y022650D02*
X009192Y022864D01*
X009192Y022971D01*
X009409Y022864D02*
X009409Y022757D01*
X009516Y022650D01*
X009730Y022650D01*
X009836Y022544D01*
X009836Y022437D01*
X009730Y022330D01*
X009516Y022330D01*
X009409Y022437D01*
X009409Y022864D02*
X009516Y022971D01*
X009730Y022971D01*
X009836Y022864D01*
X010054Y022971D02*
X010481Y022971D01*
X010268Y022971D02*
X010268Y022330D01*
X010699Y022330D02*
X010699Y022971D01*
X011126Y022971D01*
X011343Y022971D02*
X011343Y022330D01*
X011126Y022330D02*
X010699Y022330D01*
X010699Y022650D02*
X010912Y022650D01*
X011343Y022971D02*
X011557Y022757D01*
X011770Y022971D01*
X011770Y022330D01*
X011770Y021921D02*
X011343Y021280D01*
X011126Y021600D02*
X010699Y021600D01*
X010481Y021280D02*
X010054Y021280D01*
X010054Y021921D01*
X009836Y021707D02*
X009836Y021280D01*
X009836Y021600D02*
X009409Y021600D01*
X009409Y021707D02*
X009623Y021921D01*
X009836Y021707D01*
X009409Y021707D02*
X009409Y021280D01*
X009192Y021494D02*
X009192Y021921D01*
X008765Y021921D02*
X008765Y021494D01*
X008978Y021280D01*
X009192Y021494D01*
X008547Y021814D02*
X008547Y021921D01*
X008547Y021814D02*
X008334Y021600D01*
X008334Y021280D01*
X008334Y021600D02*
X008120Y021814D01*
X008120Y021921D01*
X007903Y021921D02*
X007903Y021280D01*
X007476Y021921D01*
X007476Y021280D01*
X007258Y021280D02*
X007258Y021707D01*
X007045Y021921D01*
X006831Y021707D01*
X006831Y021280D01*
X006614Y021387D02*
X006507Y021280D01*
X006293Y021280D01*
X006187Y021387D01*
X006187Y021814D01*
X006293Y021921D01*
X006507Y021921D01*
X006614Y021814D01*
X006831Y021600D02*
X007258Y021600D01*
X007152Y022330D02*
X007258Y022437D01*
X007258Y022971D01*
X007476Y022971D02*
X007796Y022971D01*
X007903Y022864D01*
X007903Y022757D01*
X007796Y022650D01*
X007476Y022650D01*
X007476Y022330D02*
X007476Y022971D01*
X007796Y022650D02*
X007903Y022544D01*
X007903Y022437D01*
X007796Y022330D01*
X007476Y022330D01*
X007152Y022330D02*
X006938Y022330D01*
X006831Y022437D01*
X006831Y022971D01*
X006614Y022864D02*
X006507Y022971D01*
X006293Y022971D01*
X006187Y022864D01*
X006187Y022757D01*
X006293Y022650D01*
X006507Y022650D01*
X006614Y022544D01*
X006614Y022437D01*
X006507Y022330D01*
X006293Y022330D01*
X006187Y022437D01*
X008120Y022437D02*
X008227Y022330D01*
X008441Y022330D01*
X008547Y022437D01*
X008547Y022544D01*
X008441Y022650D01*
X008227Y022650D01*
X008120Y022757D01*
X008120Y022864D01*
X008227Y022971D01*
X008441Y022971D01*
X008547Y022864D01*
X009192Y023380D02*
X009192Y024021D01*
X008978Y023807D01*
X008765Y024021D01*
X009409Y023914D02*
X009409Y023487D01*
X009516Y023380D01*
X009730Y023380D01*
X009836Y023487D01*
X010054Y023380D02*
X010054Y023807D01*
X010268Y024021D01*
X010481Y023807D01*
X010481Y023380D01*
X010481Y023700D02*
X010054Y023700D01*
X009836Y023914D02*
X009730Y024021D01*
X009516Y024021D01*
X009409Y023914D01*
X010699Y024021D02*
X011126Y024021D01*
X010912Y024021D02*
X010912Y023380D01*
X011343Y021921D02*
X011770Y021280D01*
D11*
X000565Y006132D02*
X000565Y001287D01*
X000567Y001233D01*
X000572Y001180D01*
X000581Y001127D01*
X000594Y001075D01*
X000610Y001023D01*
X000630Y000973D01*
X000653Y000925D01*
X000680Y000878D01*
X000709Y000833D01*
X000742Y000790D01*
X000777Y000750D01*
X000815Y000712D01*
X000855Y000677D01*
X000898Y000644D01*
X000943Y000615D01*
X000990Y000588D01*
X001038Y000565D01*
X001088Y000545D01*
X001140Y000529D01*
X001192Y000516D01*
X001245Y000507D01*
X001298Y000502D01*
X001352Y000500D01*
X001352Y000500D01*
X035151Y000500D01*
X035151Y006132D01*
X031401Y006132D01*
X031401Y030827D01*
X031401Y032790D01*
X032415Y032790D01*
X032415Y030825D01*
X034816Y030821D01*
X034855Y030823D01*
X034893Y030828D01*
X034931Y030838D01*
X034967Y030851D01*
X035002Y030867D01*
X035036Y030887D01*
X035067Y030910D01*
X035095Y030936D01*
X035121Y030965D01*
X035144Y030996D01*
X035164Y031029D01*
X035181Y031064D01*
X035194Y031101D01*
X035203Y031138D01*
X035209Y031176D01*
X035211Y031215D01*
X035210Y031215D02*
X035210Y037902D01*
X029870Y037902D01*
X029870Y027766D01*
X023100Y027766D01*
X023056Y027764D01*
X023013Y027758D01*
X022971Y027749D01*
X022929Y027736D01*
X022889Y027719D01*
X022850Y027699D01*
X022813Y027676D01*
X022779Y027649D01*
X022746Y027620D01*
X022717Y027587D01*
X022690Y027553D01*
X022667Y027516D01*
X022647Y027477D01*
X022630Y027437D01*
X022617Y027395D01*
X022608Y027353D01*
X022602Y027310D01*
X022600Y027266D01*
X022600Y016157D01*
X022602Y016113D01*
X022608Y016070D01*
X022617Y016028D01*
X022630Y015986D01*
X022647Y015946D01*
X022667Y015907D01*
X022690Y015870D01*
X022717Y015836D01*
X022746Y015803D01*
X022779Y015774D01*
X022813Y015747D01*
X022850Y015724D01*
X022889Y015704D01*
X022929Y015687D01*
X022971Y015674D01*
X023013Y015665D01*
X023056Y015659D01*
X023100Y015657D01*
X026119Y015657D01*
X026119Y007980D01*
X027891Y007980D01*
X027891Y006996D01*
X007884Y006996D01*
X007884Y007980D01*
X009656Y007980D01*
X009656Y015581D01*
X012896Y015581D01*
X012940Y015583D01*
X012983Y015589D01*
X013025Y015598D01*
X013067Y015611D01*
X013107Y015628D01*
X013146Y015648D01*
X013183Y015671D01*
X013217Y015698D01*
X013250Y015727D01*
X013279Y015760D01*
X013306Y015794D01*
X013329Y015831D01*
X013349Y015870D01*
X013366Y015910D01*
X013379Y015952D01*
X013388Y015994D01*
X013394Y016037D01*
X013396Y016081D01*
X013396Y027266D01*
X013394Y027310D01*
X013388Y027353D01*
X013379Y027395D01*
X013366Y027437D01*
X013349Y027477D01*
X013329Y027516D01*
X013306Y027553D01*
X013279Y027587D01*
X013250Y027620D01*
X013217Y027649D01*
X013183Y027676D01*
X013146Y027699D01*
X013107Y027719D01*
X013067Y027736D01*
X013025Y027749D01*
X012983Y027758D01*
X012940Y027764D01*
X012896Y027766D01*
X005905Y027766D01*
X005905Y037902D01*
X000565Y037902D01*
X000565Y031210D01*
X000564Y031210D02*
X000566Y031172D01*
X000571Y031134D01*
X000581Y031096D01*
X000594Y031060D01*
X000610Y031025D01*
X000629Y030992D01*
X000652Y030962D01*
X000678Y030933D01*
X000706Y030907D01*
X000737Y030884D01*
X000770Y030864D01*
X000804Y030847D01*
X000840Y030834D01*
X000877Y030824D01*
X000915Y030818D01*
X000954Y030816D01*
X001065Y030815D01*
X002771Y030815D01*
X003327Y030816D01*
X003327Y032787D01*
X004374Y032787D01*
X004374Y006132D01*
X000565Y006132D01*
X004897Y006407D02*
X004899Y006439D01*
X004905Y006471D01*
X004914Y006501D01*
X004927Y006531D01*
X004944Y006558D01*
X004964Y006583D01*
X004987Y006606D01*
X005012Y006626D01*
X005039Y006643D01*
X005069Y006656D01*
X005099Y006665D01*
X005131Y006671D01*
X005163Y006673D01*
X005195Y006671D01*
X005227Y006665D01*
X005257Y006656D01*
X005287Y006643D01*
X005314Y006626D01*
X005339Y006606D01*
X005362Y006583D01*
X005382Y006558D01*
X005399Y006531D01*
X005412Y006501D01*
X005421Y006471D01*
X005427Y006439D01*
X005429Y006407D01*
X005427Y006375D01*
X005421Y006343D01*
X005412Y006313D01*
X005399Y006283D01*
X005382Y006256D01*
X005362Y006231D01*
X005339Y006208D01*
X005314Y006188D01*
X005287Y006171D01*
X005257Y006158D01*
X005227Y006149D01*
X005195Y006143D01*
X005163Y006141D01*
X005131Y006143D01*
X005099Y006149D01*
X005069Y006158D01*
X005039Y006171D01*
X005012Y006188D01*
X004987Y006208D01*
X004964Y006231D01*
X004944Y006256D01*
X004927Y006283D01*
X004914Y006313D01*
X004905Y006343D01*
X004899Y006375D01*
X004897Y006407D01*
X004897Y007879D02*
X004899Y007911D01*
X004905Y007943D01*
X004914Y007973D01*
X004927Y008003D01*
X004944Y008030D01*
X004964Y008055D01*
X004987Y008078D01*
X005012Y008098D01*
X005039Y008115D01*
X005069Y008128D01*
X005099Y008137D01*
X005131Y008143D01*
X005163Y008145D01*
X005195Y008143D01*
X005227Y008137D01*
X005257Y008128D01*
X005287Y008115D01*
X005314Y008098D01*
X005339Y008078D01*
X005362Y008055D01*
X005382Y008030D01*
X005399Y008003D01*
X005412Y007973D01*
X005421Y007943D01*
X005427Y007911D01*
X005429Y007879D01*
X005427Y007847D01*
X005421Y007815D01*
X005412Y007785D01*
X005399Y007755D01*
X005382Y007728D01*
X005362Y007703D01*
X005339Y007680D01*
X005314Y007660D01*
X005287Y007643D01*
X005257Y007630D01*
X005227Y007621D01*
X005195Y007615D01*
X005163Y007613D01*
X005131Y007615D01*
X005099Y007621D01*
X005069Y007630D01*
X005039Y007643D01*
X005012Y007660D01*
X004987Y007680D01*
X004964Y007703D01*
X004944Y007728D01*
X004927Y007755D01*
X004914Y007785D01*
X004905Y007815D01*
X004899Y007847D01*
X004897Y007879D01*
X011041Y001366D02*
X011041Y001169D01*
X024192Y001169D02*
X024192Y001366D01*
X030482Y006608D02*
X030484Y006640D01*
X030490Y006672D01*
X030499Y006702D01*
X030512Y006732D01*
X030529Y006759D01*
X030549Y006784D01*
X030572Y006807D01*
X030597Y006827D01*
X030624Y006844D01*
X030654Y006857D01*
X030684Y006866D01*
X030716Y006872D01*
X030748Y006874D01*
X030780Y006872D01*
X030812Y006866D01*
X030842Y006857D01*
X030872Y006844D01*
X030899Y006827D01*
X030924Y006807D01*
X030947Y006784D01*
X030967Y006759D01*
X030984Y006732D01*
X030997Y006702D01*
X031006Y006672D01*
X031012Y006640D01*
X031014Y006608D01*
X031012Y006576D01*
X031006Y006544D01*
X030997Y006514D01*
X030984Y006484D01*
X030967Y006457D01*
X030947Y006432D01*
X030924Y006409D01*
X030899Y006389D01*
X030872Y006372D01*
X030842Y006359D01*
X030812Y006350D01*
X030780Y006344D01*
X030748Y006342D01*
X030716Y006344D01*
X030684Y006350D01*
X030654Y006359D01*
X030624Y006372D01*
X030597Y006389D01*
X030572Y006409D01*
X030549Y006432D01*
X030529Y006457D01*
X030512Y006484D01*
X030499Y006514D01*
X030490Y006544D01*
X030484Y006576D01*
X030482Y006608D01*
X030482Y008080D02*
X030484Y008112D01*
X030490Y008144D01*
X030499Y008174D01*
X030512Y008204D01*
X030529Y008231D01*
X030549Y008256D01*
X030572Y008279D01*
X030597Y008299D01*
X030624Y008316D01*
X030654Y008329D01*
X030684Y008338D01*
X030716Y008344D01*
X030748Y008346D01*
X030780Y008344D01*
X030812Y008338D01*
X030842Y008329D01*
X030872Y008316D01*
X030899Y008299D01*
X030924Y008279D01*
X030947Y008256D01*
X030967Y008231D01*
X030984Y008204D01*
X030997Y008174D01*
X031006Y008144D01*
X031012Y008112D01*
X031014Y008080D01*
X031012Y008048D01*
X031006Y008016D01*
X030997Y007986D01*
X030984Y007956D01*
X030967Y007929D01*
X030947Y007904D01*
X030924Y007881D01*
X030899Y007861D01*
X030872Y007844D01*
X030842Y007831D01*
X030812Y007822D01*
X030780Y007816D01*
X030748Y007814D01*
X030716Y007816D01*
X030684Y007822D01*
X030654Y007831D01*
X030624Y007844D01*
X030597Y007861D01*
X030572Y007881D01*
X030549Y007904D01*
X030529Y007929D01*
X030512Y007956D01*
X030499Y007986D01*
X030490Y008016D01*
X030484Y008048D01*
X030482Y008080D01*
X031401Y030827D02*
X031401Y030827D01*
X032875Y031097D02*
X032877Y031129D01*
X032883Y031161D01*
X032892Y031191D01*
X032905Y031221D01*
X032922Y031248D01*
X032942Y031273D01*
X032965Y031296D01*
X032990Y031316D01*
X033017Y031333D01*
X033047Y031346D01*
X033077Y031355D01*
X033109Y031361D01*
X033141Y031363D01*
X033173Y031361D01*
X033205Y031355D01*
X033235Y031346D01*
X033265Y031333D01*
X033292Y031316D01*
X033317Y031296D01*
X033340Y031273D01*
X033360Y031248D01*
X033377Y031221D01*
X033390Y031191D01*
X033399Y031161D01*
X033405Y031129D01*
X033407Y031097D01*
X033405Y031065D01*
X033399Y031033D01*
X033390Y031003D01*
X033377Y030973D01*
X033360Y030946D01*
X033340Y030921D01*
X033317Y030898D01*
X033292Y030878D01*
X033265Y030861D01*
X033235Y030848D01*
X033205Y030839D01*
X033173Y030833D01*
X033141Y030831D01*
X033109Y030833D01*
X033077Y030839D01*
X033047Y030848D01*
X033017Y030861D01*
X032990Y030878D01*
X032965Y030898D01*
X032942Y030921D01*
X032922Y030946D01*
X032905Y030973D01*
X032892Y031003D01*
X032883Y031033D01*
X032877Y031065D01*
X032875Y031097D01*
X032875Y032569D02*
X032877Y032601D01*
X032883Y032633D01*
X032892Y032663D01*
X032905Y032693D01*
X032922Y032720D01*
X032942Y032745D01*
X032965Y032768D01*
X032990Y032788D01*
X033017Y032805D01*
X033047Y032818D01*
X033077Y032827D01*
X033109Y032833D01*
X033141Y032835D01*
X033173Y032833D01*
X033205Y032827D01*
X033235Y032818D01*
X033265Y032805D01*
X033292Y032788D01*
X033317Y032768D01*
X033340Y032745D01*
X033360Y032720D01*
X033377Y032693D01*
X033390Y032663D01*
X033399Y032633D01*
X033405Y032601D01*
X033407Y032569D01*
X033405Y032537D01*
X033399Y032505D01*
X033390Y032475D01*
X033377Y032445D01*
X033360Y032418D01*
X033340Y032393D01*
X033317Y032370D01*
X033292Y032350D01*
X033265Y032333D01*
X033235Y032320D01*
X033205Y032311D01*
X033173Y032305D01*
X033141Y032303D01*
X033109Y032305D01*
X033077Y032311D01*
X033047Y032320D01*
X033017Y032333D01*
X032990Y032350D01*
X032965Y032370D01*
X032942Y032393D01*
X032922Y032418D01*
X032905Y032445D01*
X032892Y032475D01*
X032883Y032505D01*
X032877Y032537D01*
X032875Y032569D01*
X002425Y032628D02*
X002427Y032660D01*
X002433Y032692D01*
X002442Y032722D01*
X002455Y032752D01*
X002472Y032779D01*
X002492Y032804D01*
X002515Y032827D01*
X002540Y032847D01*
X002567Y032864D01*
X002597Y032877D01*
X002627Y032886D01*
X002659Y032892D01*
X002691Y032894D01*
X002723Y032892D01*
X002755Y032886D01*
X002785Y032877D01*
X002815Y032864D01*
X002842Y032847D01*
X002867Y032827D01*
X002890Y032804D01*
X002910Y032779D01*
X002927Y032752D01*
X002940Y032722D01*
X002949Y032692D01*
X002955Y032660D01*
X002957Y032628D01*
X002955Y032596D01*
X002949Y032564D01*
X002940Y032534D01*
X002927Y032504D01*
X002910Y032477D01*
X002890Y032452D01*
X002867Y032429D01*
X002842Y032409D01*
X002815Y032392D01*
X002785Y032379D01*
X002755Y032370D01*
X002723Y032364D01*
X002691Y032362D01*
X002659Y032364D01*
X002627Y032370D01*
X002597Y032379D01*
X002567Y032392D01*
X002540Y032409D01*
X002515Y032429D01*
X002492Y032452D01*
X002472Y032477D01*
X002455Y032504D01*
X002442Y032534D01*
X002433Y032564D01*
X002427Y032596D01*
X002425Y032628D01*
X002425Y031157D02*
X002427Y031189D01*
X002433Y031221D01*
X002442Y031251D01*
X002455Y031281D01*
X002472Y031308D01*
X002492Y031333D01*
X002515Y031356D01*
X002540Y031376D01*
X002567Y031393D01*
X002597Y031406D01*
X002627Y031415D01*
X002659Y031421D01*
X002691Y031423D01*
X002723Y031421D01*
X002755Y031415D01*
X002785Y031406D01*
X002815Y031393D01*
X002842Y031376D01*
X002867Y031356D01*
X002890Y031333D01*
X002910Y031308D01*
X002927Y031281D01*
X002940Y031251D01*
X002949Y031221D01*
X002955Y031189D01*
X002957Y031157D01*
X002955Y031125D01*
X002949Y031093D01*
X002940Y031063D01*
X002927Y031033D01*
X002910Y031006D01*
X002890Y030981D01*
X002867Y030958D01*
X002842Y030938D01*
X002815Y030921D01*
X002785Y030908D01*
X002755Y030899D01*
X002723Y030893D01*
X002691Y030891D01*
X002659Y030893D01*
X002627Y030899D01*
X002597Y030908D01*
X002567Y030921D01*
X002540Y030938D01*
X002515Y030958D01*
X002492Y030981D01*
X002472Y031006D01*
X002455Y031033D01*
X002442Y031063D01*
X002433Y031093D01*
X002427Y031125D01*
X002425Y031157D01*
D12*
X001521Y031555D02*
X001410Y031555D01*
X001410Y031628D01*
X001410Y031665D02*
X001410Y031739D01*
X001429Y031739D01*
X001502Y031665D01*
X001521Y031665D01*
X001466Y031592D02*
X001466Y031555D01*
X006333Y007453D02*
X006333Y007380D01*
X006388Y007380D01*
X006370Y007417D01*
X006370Y007435D01*
X006388Y007453D01*
X006425Y007453D01*
X006443Y007435D01*
X006443Y007398D01*
X006425Y007380D01*
X006388Y007306D02*
X006388Y007269D01*
X006333Y007269D02*
X006333Y007343D01*
X006333Y007269D02*
X006443Y007269D01*
X029468Y007172D02*
X029523Y007117D01*
X029523Y007190D01*
X029578Y007172D02*
X029468Y007172D01*
X029468Y007080D02*
X029468Y007006D01*
X029578Y007006D01*
X029523Y007006D02*
X029523Y007043D01*
X034312Y031960D02*
X034312Y032033D01*
X034367Y031996D02*
X034367Y031960D01*
X034422Y031960D02*
X034312Y031960D01*
X034367Y032070D02*
X034367Y032125D01*
X034385Y032143D01*
X034403Y032143D01*
X034422Y032125D01*
X034422Y032088D01*
X034403Y032070D01*
X034367Y032070D01*
X034330Y032107D01*
X034312Y032143D01*
D13*
X017656Y001957D02*
X017656Y000539D01*
X017576Y000539D02*
X017576Y001906D01*
X004505Y001957D02*
X004505Y000539D01*
X030727Y000539D02*
X030727Y001906D01*
D14*
X030883Y001175D02*
X030835Y001127D01*
X030835Y001030D01*
X030883Y000981D01*
X030980Y000981D01*
X030980Y001078D01*
X031077Y000981D02*
X031125Y001030D01*
X031125Y001127D01*
X031077Y001175D01*
X030883Y001175D01*
X030835Y000880D02*
X031028Y000687D01*
X031077Y000687D01*
X031125Y000735D01*
X031125Y000832D01*
X031077Y000880D01*
X030835Y000880D02*
X030835Y000687D01*
X030890Y004115D02*
X031083Y004115D01*
X030987Y004115D02*
X030987Y004405D01*
X030890Y004308D01*
X030890Y006115D02*
X031083Y006115D01*
X030987Y006115D02*
X030987Y006405D01*
X030890Y006308D01*
X004726Y006018D02*
X004532Y006018D01*
X004629Y006018D02*
X004629Y006308D01*
X004532Y006212D01*
X004431Y006163D02*
X004431Y006067D01*
X004383Y006018D01*
X004286Y006018D01*
X004238Y006067D01*
X004238Y006163D02*
X004334Y006212D01*
X004383Y006212D01*
X004431Y006163D01*
X004431Y006308D02*
X004238Y006308D01*
X004238Y006163D01*
X004238Y004308D02*
X004238Y004163D01*
X004334Y004212D01*
X004383Y004212D01*
X004431Y004163D01*
X004431Y004067D01*
X004383Y004018D01*
X004286Y004018D01*
X004238Y004067D01*
X004238Y004308D02*
X004431Y004308D01*
X004532Y004212D02*
X004629Y004308D01*
X004629Y004018D01*
X004532Y004018D02*
X004726Y004018D01*
X004372Y001103D02*
X004372Y000910D01*
X004372Y001006D02*
X004082Y001006D01*
X004179Y000910D01*
X004227Y000809D02*
X004227Y000712D01*
X004227Y000809D02*
X004324Y000809D01*
X004372Y000760D01*
X004372Y000663D01*
X004324Y000615D01*
X004130Y000615D01*
X004082Y000663D01*
X004082Y000760D01*
X004130Y000809D01*
D15*
X030610Y003503D02*
X030610Y003810D01*
X030917Y003503D01*
X030994Y003503D01*
X031070Y003579D01*
X031070Y003733D01*
X030994Y003810D01*
X031070Y003963D02*
X030610Y003963D01*
X030840Y003963D02*
X030840Y004270D01*
X030610Y004270D02*
X031070Y004270D01*
X030620Y005213D02*
X030620Y005520D01*
X030620Y005673D02*
X031080Y005673D01*
X030927Y005520D02*
X031080Y005366D01*
X030620Y005366D01*
X030850Y005673D02*
X030850Y005980D01*
X030620Y005980D02*
X031080Y005980D01*
D16*
X034041Y005582D02*
X034041Y005475D01*
X034094Y005422D01*
X034361Y005422D01*
X034361Y005635D02*
X034094Y005635D01*
X034041Y005582D01*
X034041Y005267D02*
X034361Y005053D01*
X034336Y004999D02*
X034336Y004839D01*
X034283Y004785D01*
X034229Y004785D01*
X034176Y004839D01*
X034176Y004999D01*
X034016Y004999D02*
X034016Y004839D01*
X034069Y004785D01*
X034123Y004785D01*
X034176Y004839D01*
X034016Y004999D02*
X034336Y004999D01*
X034283Y004631D02*
X034069Y004631D01*
X034016Y004577D01*
X034016Y004470D01*
X034069Y004417D01*
X034283Y004417D01*
X034336Y004470D01*
X034336Y004577D01*
X034283Y004631D01*
X034336Y004262D02*
X034336Y004049D01*
X034336Y004155D02*
X034016Y004155D01*
X034016Y003787D02*
X034336Y003787D01*
X034336Y003894D02*
X034336Y003680D01*
X034283Y003526D02*
X034336Y003472D01*
X034336Y003365D01*
X034283Y003312D01*
X034069Y003312D01*
X034016Y003365D01*
X034016Y003472D01*
X034069Y003526D01*
X034283Y003526D01*
X034336Y003157D02*
X034016Y003157D01*
X034016Y002944D02*
X034336Y002944D01*
X034229Y003051D01*
X034336Y003157D01*
D17*
X002255Y033889D02*
X002255Y034289D01*
X002255Y034089D02*
X001988Y034089D01*
X001795Y034089D02*
X001795Y034222D01*
X001728Y034289D01*
X001528Y034289D01*
X001528Y033889D01*
X001528Y034022D02*
X001728Y034022D01*
X001795Y034089D01*
X001661Y034022D02*
X001795Y033889D01*
X001988Y033889D02*
X001988Y034289D01*
M02*
