G75*
%MOIN*%
%OFA0B0*%
%FSLAX24Y24*%
%IPPOS*%
%LPD*%
%AMOC8*
5,1,8,0,0,1.08239X$1,22.5*
%
%ADD10C,0.0600*%
%ADD11C,0.2756*%
%ADD12C,0.1890*%
%ADD13C,0.0210*%
%ADD14C,0.0100*%
D10*
X005100Y002500D03*
X006100Y002500D03*
X006100Y003500D03*
X006100Y004500D03*
X005100Y004500D03*
X005100Y003500D03*
X005100Y005500D03*
X006100Y005500D03*
X007100Y005500D03*
X007100Y004500D03*
X007100Y003500D03*
X007100Y002500D03*
X008100Y002500D03*
X008100Y003500D03*
X008100Y004500D03*
X008100Y005500D03*
X009100Y005500D03*
X010100Y005500D03*
X010100Y004500D03*
X010100Y003500D03*
X009100Y003500D03*
X009100Y004500D03*
X009100Y002500D03*
X010100Y002500D03*
X011100Y002500D03*
X011100Y003500D03*
X011100Y004500D03*
X011100Y005500D03*
X012100Y005500D03*
X012100Y004500D03*
X012100Y003500D03*
X012100Y002500D03*
X013100Y002500D03*
X013100Y003500D03*
X013100Y004500D03*
X013100Y005500D03*
X014100Y005500D03*
X015100Y005500D03*
X015100Y004500D03*
X015100Y003500D03*
X014100Y003500D03*
X014100Y004500D03*
X014100Y002500D03*
X015100Y002500D03*
X016100Y002500D03*
X016100Y003500D03*
X016100Y004500D03*
X016100Y005500D03*
X017100Y005500D03*
X017100Y004500D03*
X017100Y003500D03*
X017100Y002500D03*
X018100Y002500D03*
X019100Y002500D03*
X019100Y003500D03*
X019100Y004500D03*
X018100Y004500D03*
X018100Y003500D03*
X018100Y005500D03*
X019100Y005500D03*
X020100Y005500D03*
X020100Y004500D03*
X020100Y003500D03*
X020100Y002500D03*
X021100Y002500D03*
X021100Y003500D03*
X021100Y004500D03*
X021100Y005500D03*
X022100Y005500D03*
X023100Y005500D03*
X023100Y004500D03*
X023100Y003500D03*
X022100Y003500D03*
X022100Y004500D03*
X022100Y002500D03*
X023100Y002500D03*
X024100Y002500D03*
X024100Y003500D03*
X024100Y004500D03*
X024100Y005500D03*
X025100Y005500D03*
X025100Y004500D03*
X025100Y003500D03*
X025100Y002500D03*
X026100Y002500D03*
X026100Y003500D03*
X026100Y004500D03*
X026100Y005500D03*
X027100Y005500D03*
X028100Y005500D03*
X028100Y004500D03*
X028100Y003500D03*
X027100Y003500D03*
X027100Y004500D03*
X027100Y002500D03*
X028100Y002500D03*
X029100Y002500D03*
X029100Y003500D03*
X029100Y004500D03*
X029100Y005500D03*
X030100Y005500D03*
X030100Y004500D03*
X030100Y003500D03*
X030100Y002500D03*
D11*
X003084Y002390D03*
X032100Y002390D03*
X033635Y036130D03*
X002139Y036130D03*
D12*
X004509Y034051D03*
X031470Y034051D03*
D13*
X019488Y003000D03*
X019194Y001256D03*
X019984Y001257D03*
X020772Y001251D03*
X021559Y001247D03*
X022350Y001251D03*
X023311Y001230D03*
X023923Y001251D03*
X024316Y001261D03*
X024714Y001257D03*
X025104Y001259D03*
X025491Y001256D03*
X025883Y001257D03*
X026285Y001257D03*
X026672Y001249D03*
X027071Y001252D03*
X027467Y001254D03*
X027853Y001250D03*
X028251Y001249D03*
X028650Y001257D03*
X029039Y001257D03*
X029431Y001260D03*
X029830Y001257D03*
X030205Y001069D03*
X028431Y002125D03*
X027521Y002150D03*
X026480Y002126D03*
X025478Y002130D03*
X024666Y002140D03*
X017127Y001712D03*
X017168Y001110D03*
X012607Y002183D03*
X010583Y002184D03*
X009988Y001257D03*
X009193Y001247D03*
X008803Y001247D03*
X008403Y001247D03*
X008013Y001247D03*
X007613Y001247D03*
X007223Y001247D03*
X006570Y002150D03*
X006219Y001230D03*
X005825Y001235D03*
X005659Y002117D03*
X004884Y001694D03*
X009602Y002158D03*
D14*
X009988Y001257D02*
X010463Y001257D01*
X010581Y001374D01*
X010581Y002182D01*
X010583Y002184D01*
X011085Y002500D02*
X011100Y002500D01*
X011085Y002500D02*
X010591Y002995D01*
X008819Y002995D01*
X008600Y002776D01*
X008600Y002255D01*
X008364Y002019D01*
X008217Y002019D01*
X007868Y001670D01*
X006268Y001670D01*
X005833Y001235D01*
X005825Y001235D01*
X005825Y001245D01*
X006219Y001230D02*
X006245Y001230D01*
X006618Y000857D01*
X010519Y000857D01*
X010887Y001224D01*
X010887Y001473D01*
X011583Y002169D01*
X011583Y003017D01*
X011100Y003500D01*
X012607Y002183D02*
X012607Y002071D01*
X012768Y001910D01*
X013298Y001910D01*
X013608Y002220D01*
X013608Y002756D01*
X013606Y002759D01*
X013851Y003004D01*
X016590Y003004D01*
X017094Y002500D01*
X017100Y002500D01*
X016590Y003004D02*
X017086Y003500D01*
X017100Y003500D01*
X019488Y003000D02*
X019588Y002900D01*
X019588Y002220D01*
X020188Y001620D01*
X022668Y001620D01*
X022938Y001350D01*
X022938Y001120D01*
X023118Y000940D01*
X023508Y000940D01*
X023618Y001050D01*
X023618Y001340D01*
X023908Y001630D01*
X025018Y001630D01*
X025478Y002090D01*
X025478Y002130D01*
X024666Y002140D02*
X024608Y002198D01*
X024608Y005745D01*
X024301Y006053D01*
X008685Y006053D01*
X008132Y005500D01*
X008100Y005500D01*
X006923Y004989D02*
X006570Y004636D01*
X006570Y002150D01*
X006038Y001880D02*
X007298Y001880D01*
X007601Y002183D01*
X007601Y003725D01*
X007880Y004004D01*
X020604Y004004D01*
X021100Y004500D01*
X020589Y004989D02*
X006923Y004989D01*
X005800Y002117D02*
X005659Y002117D01*
X005800Y002117D02*
X006038Y001880D01*
X020589Y004989D02*
X021100Y005500D01*
X023100Y003500D02*
X023100Y003352D01*
X023603Y002850D01*
X023603Y001702D01*
X023311Y001411D01*
X023311Y001230D01*
X025590Y004008D02*
X025591Y004010D01*
X026308Y004010D01*
X026598Y003720D01*
X026598Y002370D01*
X027071Y001896D01*
X027071Y001252D01*
X025590Y004008D02*
X025100Y004498D01*
X025100Y004500D01*
M02*
