G75*
%MOIN*%
%OFA0B0*%
%FSLAX24Y24*%
%IPPOS*%
%LPD*%
%AMOC8*
5,1,8,0,0,1.08239X$1,22.5*
%
%ADD10C,0.0000*%
%ADD11C,0.0080*%
D10*
X000565Y001287D02*
X000565Y006132D01*
X004374Y006132D01*
X004374Y032787D01*
X003327Y032787D01*
X003327Y030816D01*
X002771Y030815D01*
X001065Y030815D01*
X000954Y030816D01*
X000915Y030818D01*
X000877Y030824D01*
X000840Y030834D01*
X000804Y030847D01*
X000770Y030864D01*
X000737Y030884D01*
X000706Y030907D01*
X000678Y030933D01*
X000652Y030962D01*
X000629Y030992D01*
X000610Y031025D01*
X000594Y031060D01*
X000581Y031096D01*
X000571Y031134D01*
X000566Y031172D01*
X000564Y031210D01*
X000565Y031210D02*
X000565Y037902D01*
X005905Y037902D01*
X005905Y027766D01*
X012896Y027766D01*
X012940Y027764D01*
X012983Y027758D01*
X013025Y027749D01*
X013067Y027736D01*
X013107Y027719D01*
X013146Y027699D01*
X013183Y027676D01*
X013217Y027649D01*
X013250Y027620D01*
X013279Y027587D01*
X013306Y027553D01*
X013329Y027516D01*
X013349Y027477D01*
X013366Y027437D01*
X013379Y027395D01*
X013388Y027353D01*
X013394Y027310D01*
X013396Y027266D01*
X013396Y016081D01*
X013394Y016037D01*
X013388Y015994D01*
X013379Y015952D01*
X013366Y015910D01*
X013349Y015870D01*
X013329Y015831D01*
X013306Y015794D01*
X013279Y015760D01*
X013250Y015727D01*
X013217Y015698D01*
X013183Y015671D01*
X013146Y015648D01*
X013107Y015628D01*
X013067Y015611D01*
X013025Y015598D01*
X012983Y015589D01*
X012940Y015583D01*
X012896Y015581D01*
X009656Y015581D01*
X009656Y007980D01*
X007884Y007980D01*
X007884Y006996D01*
X027891Y006996D01*
X027891Y007980D01*
X026119Y007980D01*
X026119Y015657D01*
X023100Y015657D01*
X023056Y015659D01*
X023013Y015665D01*
X022971Y015674D01*
X022929Y015687D01*
X022889Y015704D01*
X022850Y015724D01*
X022813Y015747D01*
X022779Y015774D01*
X022746Y015803D01*
X022717Y015836D01*
X022690Y015870D01*
X022667Y015907D01*
X022647Y015946D01*
X022630Y015986D01*
X022617Y016028D01*
X022608Y016070D01*
X022602Y016113D01*
X022600Y016157D01*
X022600Y027266D01*
X022602Y027310D01*
X022608Y027353D01*
X022617Y027395D01*
X022630Y027437D01*
X022647Y027477D01*
X022667Y027516D01*
X022690Y027553D01*
X022717Y027587D01*
X022746Y027620D01*
X022779Y027649D01*
X022813Y027676D01*
X022850Y027699D01*
X022889Y027719D01*
X022929Y027736D01*
X022971Y027749D01*
X023013Y027758D01*
X023056Y027764D01*
X023100Y027766D01*
X029870Y027766D01*
X029870Y037902D01*
X035210Y037902D01*
X035210Y031215D01*
X035211Y031215D02*
X035209Y031176D01*
X035203Y031138D01*
X035194Y031101D01*
X035181Y031064D01*
X035164Y031029D01*
X035144Y030996D01*
X035121Y030965D01*
X035095Y030936D01*
X035067Y030910D01*
X035036Y030887D01*
X035002Y030867D01*
X034967Y030851D01*
X034931Y030838D01*
X034893Y030828D01*
X034855Y030823D01*
X034816Y030821D01*
X032415Y030825D01*
X032415Y032790D01*
X031401Y032790D01*
X031401Y030827D01*
X031401Y030827D01*
X031401Y006132D01*
X035151Y006132D01*
X035151Y000500D01*
X001352Y000500D01*
X001352Y000500D01*
X001298Y000502D01*
X001245Y000507D01*
X001192Y000516D01*
X001140Y000529D01*
X001088Y000545D01*
X001038Y000565D01*
X000990Y000588D01*
X000943Y000615D01*
X000898Y000644D01*
X000855Y000677D01*
X000815Y000712D01*
X000777Y000750D01*
X000742Y000790D01*
X000709Y000833D01*
X000680Y000878D01*
X000653Y000925D01*
X000630Y000973D01*
X000610Y001023D01*
X000594Y001075D01*
X000581Y001127D01*
X000572Y001180D01*
X000567Y001233D01*
X000565Y001287D01*
X004897Y006407D02*
X004899Y006439D01*
X004905Y006471D01*
X004914Y006501D01*
X004927Y006531D01*
X004944Y006558D01*
X004964Y006583D01*
X004987Y006606D01*
X005012Y006626D01*
X005039Y006643D01*
X005069Y006656D01*
X005099Y006665D01*
X005131Y006671D01*
X005163Y006673D01*
X005195Y006671D01*
X005227Y006665D01*
X005257Y006656D01*
X005287Y006643D01*
X005314Y006626D01*
X005339Y006606D01*
X005362Y006583D01*
X005382Y006558D01*
X005399Y006531D01*
X005412Y006501D01*
X005421Y006471D01*
X005427Y006439D01*
X005429Y006407D01*
X005427Y006375D01*
X005421Y006343D01*
X005412Y006313D01*
X005399Y006283D01*
X005382Y006256D01*
X005362Y006231D01*
X005339Y006208D01*
X005314Y006188D01*
X005287Y006171D01*
X005257Y006158D01*
X005227Y006149D01*
X005195Y006143D01*
X005163Y006141D01*
X005131Y006143D01*
X005099Y006149D01*
X005069Y006158D01*
X005039Y006171D01*
X005012Y006188D01*
X004987Y006208D01*
X004964Y006231D01*
X004944Y006256D01*
X004927Y006283D01*
X004914Y006313D01*
X004905Y006343D01*
X004899Y006375D01*
X004897Y006407D01*
X004897Y007879D02*
X004899Y007911D01*
X004905Y007943D01*
X004914Y007973D01*
X004927Y008003D01*
X004944Y008030D01*
X004964Y008055D01*
X004987Y008078D01*
X005012Y008098D01*
X005039Y008115D01*
X005069Y008128D01*
X005099Y008137D01*
X005131Y008143D01*
X005163Y008145D01*
X005195Y008143D01*
X005227Y008137D01*
X005257Y008128D01*
X005287Y008115D01*
X005314Y008098D01*
X005339Y008078D01*
X005362Y008055D01*
X005382Y008030D01*
X005399Y008003D01*
X005412Y007973D01*
X005421Y007943D01*
X005427Y007911D01*
X005429Y007879D01*
X005427Y007847D01*
X005421Y007815D01*
X005412Y007785D01*
X005399Y007755D01*
X005382Y007728D01*
X005362Y007703D01*
X005339Y007680D01*
X005314Y007660D01*
X005287Y007643D01*
X005257Y007630D01*
X005227Y007621D01*
X005195Y007615D01*
X005163Y007613D01*
X005131Y007615D01*
X005099Y007621D01*
X005069Y007630D01*
X005039Y007643D01*
X005012Y007660D01*
X004987Y007680D01*
X004964Y007703D01*
X004944Y007728D01*
X004927Y007755D01*
X004914Y007785D01*
X004905Y007815D01*
X004899Y007847D01*
X004897Y007879D01*
X002425Y031157D02*
X002427Y031189D01*
X002433Y031221D01*
X002442Y031251D01*
X002455Y031281D01*
X002472Y031308D01*
X002492Y031333D01*
X002515Y031356D01*
X002540Y031376D01*
X002567Y031393D01*
X002597Y031406D01*
X002627Y031415D01*
X002659Y031421D01*
X002691Y031423D01*
X002723Y031421D01*
X002755Y031415D01*
X002785Y031406D01*
X002815Y031393D01*
X002842Y031376D01*
X002867Y031356D01*
X002890Y031333D01*
X002910Y031308D01*
X002927Y031281D01*
X002940Y031251D01*
X002949Y031221D01*
X002955Y031189D01*
X002957Y031157D01*
X002955Y031125D01*
X002949Y031093D01*
X002940Y031063D01*
X002927Y031033D01*
X002910Y031006D01*
X002890Y030981D01*
X002867Y030958D01*
X002842Y030938D01*
X002815Y030921D01*
X002785Y030908D01*
X002755Y030899D01*
X002723Y030893D01*
X002691Y030891D01*
X002659Y030893D01*
X002627Y030899D01*
X002597Y030908D01*
X002567Y030921D01*
X002540Y030938D01*
X002515Y030958D01*
X002492Y030981D01*
X002472Y031006D01*
X002455Y031033D01*
X002442Y031063D01*
X002433Y031093D01*
X002427Y031125D01*
X002425Y031157D01*
X002425Y032628D02*
X002427Y032660D01*
X002433Y032692D01*
X002442Y032722D01*
X002455Y032752D01*
X002472Y032779D01*
X002492Y032804D01*
X002515Y032827D01*
X002540Y032847D01*
X002567Y032864D01*
X002597Y032877D01*
X002627Y032886D01*
X002659Y032892D01*
X002691Y032894D01*
X002723Y032892D01*
X002755Y032886D01*
X002785Y032877D01*
X002815Y032864D01*
X002842Y032847D01*
X002867Y032827D01*
X002890Y032804D01*
X002910Y032779D01*
X002927Y032752D01*
X002940Y032722D01*
X002949Y032692D01*
X002955Y032660D01*
X002957Y032628D01*
X002955Y032596D01*
X002949Y032564D01*
X002940Y032534D01*
X002927Y032504D01*
X002910Y032477D01*
X002890Y032452D01*
X002867Y032429D01*
X002842Y032409D01*
X002815Y032392D01*
X002785Y032379D01*
X002755Y032370D01*
X002723Y032364D01*
X002691Y032362D01*
X002659Y032364D01*
X002627Y032370D01*
X002597Y032379D01*
X002567Y032392D01*
X002540Y032409D01*
X002515Y032429D01*
X002492Y032452D01*
X002472Y032477D01*
X002455Y032504D01*
X002442Y032534D01*
X002433Y032564D01*
X002427Y032596D01*
X002425Y032628D01*
X030482Y008080D02*
X030484Y008112D01*
X030490Y008144D01*
X030499Y008174D01*
X030512Y008204D01*
X030529Y008231D01*
X030549Y008256D01*
X030572Y008279D01*
X030597Y008299D01*
X030624Y008316D01*
X030654Y008329D01*
X030684Y008338D01*
X030716Y008344D01*
X030748Y008346D01*
X030780Y008344D01*
X030812Y008338D01*
X030842Y008329D01*
X030872Y008316D01*
X030899Y008299D01*
X030924Y008279D01*
X030947Y008256D01*
X030967Y008231D01*
X030984Y008204D01*
X030997Y008174D01*
X031006Y008144D01*
X031012Y008112D01*
X031014Y008080D01*
X031012Y008048D01*
X031006Y008016D01*
X030997Y007986D01*
X030984Y007956D01*
X030967Y007929D01*
X030947Y007904D01*
X030924Y007881D01*
X030899Y007861D01*
X030872Y007844D01*
X030842Y007831D01*
X030812Y007822D01*
X030780Y007816D01*
X030748Y007814D01*
X030716Y007816D01*
X030684Y007822D01*
X030654Y007831D01*
X030624Y007844D01*
X030597Y007861D01*
X030572Y007881D01*
X030549Y007904D01*
X030529Y007929D01*
X030512Y007956D01*
X030499Y007986D01*
X030490Y008016D01*
X030484Y008048D01*
X030482Y008080D01*
X030482Y006608D02*
X030484Y006640D01*
X030490Y006672D01*
X030499Y006702D01*
X030512Y006732D01*
X030529Y006759D01*
X030549Y006784D01*
X030572Y006807D01*
X030597Y006827D01*
X030624Y006844D01*
X030654Y006857D01*
X030684Y006866D01*
X030716Y006872D01*
X030748Y006874D01*
X030780Y006872D01*
X030812Y006866D01*
X030842Y006857D01*
X030872Y006844D01*
X030899Y006827D01*
X030924Y006807D01*
X030947Y006784D01*
X030967Y006759D01*
X030984Y006732D01*
X030997Y006702D01*
X031006Y006672D01*
X031012Y006640D01*
X031014Y006608D01*
X031012Y006576D01*
X031006Y006544D01*
X030997Y006514D01*
X030984Y006484D01*
X030967Y006457D01*
X030947Y006432D01*
X030924Y006409D01*
X030899Y006389D01*
X030872Y006372D01*
X030842Y006359D01*
X030812Y006350D01*
X030780Y006344D01*
X030748Y006342D01*
X030716Y006344D01*
X030684Y006350D01*
X030654Y006359D01*
X030624Y006372D01*
X030597Y006389D01*
X030572Y006409D01*
X030549Y006432D01*
X030529Y006457D01*
X030512Y006484D01*
X030499Y006514D01*
X030490Y006544D01*
X030484Y006576D01*
X030482Y006608D01*
X032875Y031097D02*
X032877Y031129D01*
X032883Y031161D01*
X032892Y031191D01*
X032905Y031221D01*
X032922Y031248D01*
X032942Y031273D01*
X032965Y031296D01*
X032990Y031316D01*
X033017Y031333D01*
X033047Y031346D01*
X033077Y031355D01*
X033109Y031361D01*
X033141Y031363D01*
X033173Y031361D01*
X033205Y031355D01*
X033235Y031346D01*
X033265Y031333D01*
X033292Y031316D01*
X033317Y031296D01*
X033340Y031273D01*
X033360Y031248D01*
X033377Y031221D01*
X033390Y031191D01*
X033399Y031161D01*
X033405Y031129D01*
X033407Y031097D01*
X033405Y031065D01*
X033399Y031033D01*
X033390Y031003D01*
X033377Y030973D01*
X033360Y030946D01*
X033340Y030921D01*
X033317Y030898D01*
X033292Y030878D01*
X033265Y030861D01*
X033235Y030848D01*
X033205Y030839D01*
X033173Y030833D01*
X033141Y030831D01*
X033109Y030833D01*
X033077Y030839D01*
X033047Y030848D01*
X033017Y030861D01*
X032990Y030878D01*
X032965Y030898D01*
X032942Y030921D01*
X032922Y030946D01*
X032905Y030973D01*
X032892Y031003D01*
X032883Y031033D01*
X032877Y031065D01*
X032875Y031097D01*
X032875Y032569D02*
X032877Y032601D01*
X032883Y032633D01*
X032892Y032663D01*
X032905Y032693D01*
X032922Y032720D01*
X032942Y032745D01*
X032965Y032768D01*
X032990Y032788D01*
X033017Y032805D01*
X033047Y032818D01*
X033077Y032827D01*
X033109Y032833D01*
X033141Y032835D01*
X033173Y032833D01*
X033205Y032827D01*
X033235Y032818D01*
X033265Y032805D01*
X033292Y032788D01*
X033317Y032768D01*
X033340Y032745D01*
X033360Y032720D01*
X033377Y032693D01*
X033390Y032663D01*
X033399Y032633D01*
X033405Y032601D01*
X033407Y032569D01*
X033405Y032537D01*
X033399Y032505D01*
X033390Y032475D01*
X033377Y032445D01*
X033360Y032418D01*
X033340Y032393D01*
X033317Y032370D01*
X033292Y032350D01*
X033265Y032333D01*
X033235Y032320D01*
X033205Y032311D01*
X033173Y032305D01*
X033141Y032303D01*
X033109Y032305D01*
X033077Y032311D01*
X033047Y032320D01*
X033017Y032333D01*
X032990Y032350D01*
X032965Y032370D01*
X032942Y032393D01*
X032922Y032418D01*
X032905Y032445D01*
X032892Y032475D01*
X032883Y032505D01*
X032877Y032537D01*
X032875Y032569D01*
D11*
X034460Y005652D02*
X034780Y005652D01*
X034780Y005439D01*
X034780Y005284D02*
X034460Y005071D01*
X034447Y004993D02*
X034447Y004833D01*
X034501Y004779D01*
X034554Y004779D01*
X034608Y004833D01*
X034608Y004993D01*
X034768Y004993D02*
X034447Y004993D01*
X034608Y004833D02*
X034661Y004779D01*
X034714Y004779D01*
X034768Y004833D01*
X034768Y004993D01*
X034714Y004625D02*
X034501Y004625D01*
X034447Y004571D01*
X034447Y004465D01*
X034501Y004411D01*
X034714Y004411D01*
X034768Y004465D01*
X034768Y004571D01*
X034714Y004625D01*
X034447Y004256D02*
X034447Y004043D01*
X034447Y004150D02*
X034768Y004150D01*
X034768Y003781D02*
X034447Y003781D01*
X034447Y003675D02*
X034447Y003888D01*
X034501Y003520D02*
X034714Y003520D01*
X034768Y003466D01*
X034768Y003360D01*
X034714Y003306D01*
X034501Y003306D01*
X034447Y003360D01*
X034447Y003466D01*
X034501Y003520D01*
X034447Y003151D02*
X034554Y003045D01*
X034447Y002938D01*
X034768Y002938D01*
X034768Y003151D02*
X034447Y003151D01*
M02*
