G75*
%MOIN*%
%OFA0B0*%
%FSLAX24Y24*%
%IPPOS*%
%LPD*%
%AMOC8*
5,1,8,0,0,1.08239X$1,22.5*
%
%ADD10C,0.0591*%
%ADD11R,0.0660X0.0660*%
%ADD12C,0.0660*%
%ADD13C,0.2816*%
%ADD14C,0.1950*%
D10*
X005163Y006407D03*
X005163Y007879D03*
X002691Y031157D03*
X002691Y032628D03*
X030748Y008080D03*
X030748Y006608D03*
X033141Y031097D03*
X033141Y032569D03*
D11*
X030100Y005500D03*
X030100Y003500D03*
D12*
X030100Y004500D03*
X029100Y004500D03*
X029100Y003500D03*
X029100Y002500D03*
X028100Y002500D03*
X027100Y002500D03*
X027100Y003500D03*
X027100Y004500D03*
X028100Y004500D03*
X028100Y003500D03*
X028100Y005500D03*
X027100Y005500D03*
X026100Y005500D03*
X026100Y004500D03*
X026100Y003500D03*
X026100Y002500D03*
X025100Y002500D03*
X025100Y003500D03*
X025100Y004500D03*
X025100Y005500D03*
X024100Y005500D03*
X024100Y004500D03*
X024100Y003500D03*
X024100Y002500D03*
X023100Y002500D03*
X022100Y002500D03*
X022100Y003500D03*
X022100Y004500D03*
X023100Y004500D03*
X023100Y003500D03*
X023100Y005500D03*
X022100Y005500D03*
X021100Y005500D03*
X021100Y004500D03*
X021100Y003500D03*
X021100Y002500D03*
X020100Y002500D03*
X020100Y003500D03*
X020100Y004500D03*
X020100Y005500D03*
X019100Y005500D03*
X018100Y005500D03*
X018100Y004500D03*
X018100Y003500D03*
X019100Y003500D03*
X019100Y004500D03*
X019100Y002500D03*
X018100Y002500D03*
X017100Y002500D03*
X017100Y003500D03*
X017100Y004500D03*
X017100Y005500D03*
X016100Y005500D03*
X016100Y004500D03*
X016100Y003500D03*
X016100Y002500D03*
X015100Y002500D03*
X014100Y002500D03*
X014100Y003500D03*
X014100Y004500D03*
X015100Y004500D03*
X015100Y003500D03*
X015100Y005500D03*
X014100Y005500D03*
X013100Y005500D03*
X013100Y004500D03*
X013100Y003500D03*
X013100Y002500D03*
X012100Y002500D03*
X012100Y003500D03*
X012100Y004500D03*
X012100Y005500D03*
X011100Y005500D03*
X011100Y004500D03*
X011100Y003500D03*
X011100Y002500D03*
X010100Y002500D03*
X009100Y002500D03*
X009100Y003500D03*
X009100Y004500D03*
X010100Y004500D03*
X010100Y003500D03*
X010100Y005500D03*
X009100Y005500D03*
X008100Y005500D03*
X008100Y004500D03*
X008100Y003500D03*
X008100Y002500D03*
X007100Y002500D03*
X007100Y003500D03*
X007100Y004500D03*
X007100Y005500D03*
X006100Y005500D03*
X005100Y005500D03*
X005100Y004500D03*
X005100Y003500D03*
X006100Y003500D03*
X006100Y004500D03*
X006100Y002500D03*
X005100Y002500D03*
X029100Y005500D03*
X030100Y002500D03*
D13*
X003084Y002390D03*
X032100Y002390D03*
X033635Y036130D03*
X002139Y036130D03*
D14*
X004509Y034051D03*
X031470Y034051D03*
M02*
