G75*
%MOIN*%
%OFA0B0*%
%FSLAX24Y24*%
%IPPOS*%
%LPD*%
%AMOC8*
5,1,8,0,0,1.08239X$1,22.5*
%
%ADD10C,0.0010*%
%ADD11C,0.0000*%
%ADD12C,0.0124*%
%ADD13R,0.0248X0.0248*%
%ADD14R,0.1402X0.0701*%
%ADD15R,0.0748X0.1732*%
%ADD16C,0.0150*%
%ADD17C,0.0079*%
%ADD18R,0.0394X0.1102*%
%ADD19R,0.0630X0.0710*%
%ADD20R,0.0591X0.1142*%
%ADD21R,0.1732X0.0748*%
%ADD22R,0.0394X0.0433*%
%ADD23R,0.0512X0.0591*%
%ADD24R,0.1122X0.0787*%
%ADD25R,0.0276X0.0354*%
%ADD26R,0.0394X0.1260*%
%ADD27C,0.0118*%
%ADD28C,0.0138*%
%ADD29R,0.0220X0.0160*%
%ADD30R,0.0800X0.0680*%
%ADD31R,0.0500X0.1400*%
%ADD32R,0.0460X0.0630*%
%ADD33R,0.0591X0.0512*%
D10*
X000000Y000000D02*
X000000Y014880D01*
X000002Y014921D01*
X000007Y014962D01*
X000016Y015002D01*
X000028Y015041D01*
X000044Y015079D01*
X000063Y015115D01*
X000085Y015150D01*
X000110Y015182D01*
X000138Y015212D01*
X000168Y015240D01*
X000200Y015265D01*
X000235Y015287D01*
X000271Y015306D01*
X000309Y015322D01*
X000348Y015334D01*
X000388Y015343D01*
X000429Y015348D01*
X000470Y015350D01*
X000550Y015350D01*
X000576Y015352D01*
X000602Y015357D01*
X000627Y015365D01*
X000650Y015377D01*
X000672Y015391D01*
X000691Y015409D01*
X000709Y015428D01*
X000723Y015450D01*
X000735Y015473D01*
X000743Y015498D01*
X000748Y015524D01*
X000750Y015550D01*
X000750Y022200D01*
X000748Y022226D01*
X000743Y022252D01*
X000735Y022277D01*
X000723Y022300D01*
X000709Y022322D01*
X000691Y022341D01*
X000672Y022359D01*
X000650Y022373D01*
X000627Y022385D01*
X000602Y022393D01*
X000576Y022398D01*
X000550Y022400D01*
X000470Y022400D01*
X000429Y022402D01*
X000388Y022407D01*
X000348Y022416D01*
X000309Y022428D01*
X000271Y022444D01*
X000235Y022463D01*
X000200Y022485D01*
X000168Y022510D01*
X000138Y022538D01*
X000110Y022568D01*
X000085Y022600D01*
X000063Y022635D01*
X000044Y022671D01*
X000028Y022709D01*
X000016Y022748D01*
X000007Y022788D01*
X000002Y022829D01*
X000000Y022870D01*
X000000Y037280D01*
X000002Y037321D01*
X000007Y037362D01*
X000016Y037402D01*
X000028Y037441D01*
X000044Y037479D01*
X000063Y037515D01*
X000085Y037550D01*
X000110Y037582D01*
X000138Y037612D01*
X000168Y037640D01*
X000200Y037665D01*
X000235Y037687D01*
X000271Y037706D01*
X000309Y037722D01*
X000348Y037734D01*
X000388Y037743D01*
X000429Y037748D01*
X000470Y037750D01*
X013730Y037750D01*
X013771Y037748D01*
X013812Y037743D01*
X013852Y037734D01*
X013891Y037722D01*
X013929Y037706D01*
X013965Y037687D01*
X014000Y037665D01*
X014032Y037640D01*
X014062Y037612D01*
X014090Y037582D01*
X014115Y037550D01*
X014137Y037515D01*
X014156Y037479D01*
X014172Y037441D01*
X014184Y037402D01*
X014193Y037362D01*
X014198Y037321D01*
X014200Y037280D01*
X014200Y037070D01*
X014202Y037029D01*
X014207Y036988D01*
X014216Y036948D01*
X014228Y036909D01*
X014244Y036871D01*
X014263Y036835D01*
X014285Y036800D01*
X014310Y036768D01*
X014338Y036738D01*
X014368Y036710D01*
X014400Y036685D01*
X014435Y036663D01*
X014471Y036644D01*
X014509Y036628D01*
X014548Y036616D01*
X014588Y036607D01*
X014629Y036602D01*
X014670Y036600D01*
X021730Y036600D01*
X021771Y036602D01*
X021812Y036607D01*
X021852Y036616D01*
X021891Y036628D01*
X021929Y036644D01*
X021965Y036663D01*
X022000Y036685D01*
X022032Y036710D01*
X022062Y036738D01*
X022090Y036768D01*
X022115Y036800D01*
X022137Y036835D01*
X022156Y036871D01*
X022172Y036909D01*
X022184Y036948D01*
X022193Y036988D01*
X022198Y037029D01*
X022200Y037070D01*
X022200Y037280D01*
X022202Y037321D01*
X022207Y037362D01*
X022216Y037402D01*
X022228Y037441D01*
X022244Y037479D01*
X022263Y037515D01*
X022285Y037550D01*
X022310Y037582D01*
X022338Y037612D01*
X022368Y037640D01*
X022400Y037665D01*
X022435Y037687D01*
X022471Y037706D01*
X022509Y037722D01*
X022548Y037734D01*
X022588Y037743D01*
X022629Y037748D01*
X022670Y037750D01*
X035030Y037750D01*
X035071Y037748D01*
X035112Y037743D01*
X035152Y037734D01*
X035191Y037722D01*
X035229Y037706D01*
X035265Y037687D01*
X035300Y037665D01*
X035332Y037640D01*
X035362Y037612D01*
X035390Y037582D01*
X035415Y037550D01*
X035437Y037515D01*
X035456Y037479D01*
X035472Y037441D01*
X035484Y037402D01*
X035493Y037362D01*
X035498Y037321D01*
X035500Y037280D01*
X035500Y000470D01*
X035498Y000429D01*
X035493Y000388D01*
X035484Y000348D01*
X035472Y000309D01*
X035456Y000271D01*
X035437Y000235D01*
X035415Y000200D01*
X035390Y000168D01*
X035362Y000138D01*
X035332Y000110D01*
X035300Y000085D01*
X035265Y000063D01*
X035229Y000044D01*
X035191Y000028D01*
X035152Y000016D01*
X035112Y000007D01*
X035071Y000002D01*
X035030Y000000D01*
X022670Y000000D01*
X022629Y000002D01*
X022588Y000007D01*
X022548Y000016D01*
X022509Y000028D01*
X022471Y000044D01*
X022435Y000063D01*
X022400Y000085D01*
X022368Y000110D01*
X022338Y000138D01*
X022310Y000168D01*
X022285Y000200D01*
X022263Y000235D01*
X022244Y000271D01*
X022228Y000309D01*
X022216Y000348D01*
X022207Y000388D01*
X022202Y000429D01*
X022200Y000470D01*
X022200Y000680D01*
X022198Y000721D01*
X022193Y000762D01*
X022184Y000802D01*
X022172Y000841D01*
X022156Y000879D01*
X022137Y000915D01*
X022115Y000950D01*
X022090Y000982D01*
X022062Y001012D01*
X022032Y001040D01*
X022000Y001065D01*
X021965Y001087D01*
X021929Y001106D01*
X021891Y001122D01*
X021852Y001134D01*
X021812Y001143D01*
X021771Y001148D01*
X021730Y001150D01*
X015010Y001150D01*
X014963Y001147D01*
X014917Y001140D01*
X014872Y001130D01*
X014827Y001116D01*
X014784Y001099D01*
X014742Y001078D01*
X014701Y001054D01*
X014663Y001027D01*
X014627Y000998D01*
X014594Y000965D01*
X014563Y000930D01*
X014535Y000892D01*
X014510Y000853D01*
X014488Y000812D01*
X014470Y000769D01*
X014455Y000725D01*
X014443Y000679D01*
X014435Y000633D01*
X014431Y000587D01*
X014430Y000540D01*
X014428Y000495D01*
X014423Y000451D01*
X014413Y000407D01*
X014401Y000365D01*
X014385Y000323D01*
X014365Y000283D01*
X014342Y000245D01*
X014316Y000208D01*
X014287Y000174D01*
X014256Y000143D01*
X014222Y000114D01*
X014185Y000088D01*
X014147Y000065D01*
X014107Y000045D01*
X014065Y000029D01*
X014023Y000017D01*
X013979Y000007D01*
X013935Y000002D01*
X013890Y000000D01*
X013730Y000000D02*
X000000Y000000D01*
D11*
X013730Y000000D02*
X013890Y000000D01*
X013101Y005054D02*
X013103Y005112D01*
X013109Y005170D01*
X013119Y005227D01*
X013133Y005283D01*
X013150Y005339D01*
X013171Y005393D01*
X013196Y005445D01*
X013225Y005496D01*
X013257Y005544D01*
X013292Y005590D01*
X013330Y005634D01*
X013371Y005675D01*
X013415Y005713D01*
X013461Y005748D01*
X013509Y005780D01*
X013560Y005809D01*
X013612Y005834D01*
X013666Y005855D01*
X013722Y005872D01*
X013778Y005886D01*
X013835Y005896D01*
X013893Y005902D01*
X013951Y005904D01*
X014009Y005902D01*
X014067Y005896D01*
X014124Y005886D01*
X014180Y005872D01*
X014236Y005855D01*
X014290Y005834D01*
X014342Y005809D01*
X014393Y005780D01*
X014441Y005748D01*
X014487Y005713D01*
X014531Y005675D01*
X014572Y005634D01*
X014610Y005590D01*
X014645Y005544D01*
X014677Y005496D01*
X014706Y005445D01*
X014731Y005393D01*
X014752Y005339D01*
X014769Y005283D01*
X014783Y005227D01*
X014793Y005170D01*
X014799Y005112D01*
X014801Y005054D01*
X014799Y004996D01*
X014793Y004938D01*
X014783Y004881D01*
X014769Y004825D01*
X014752Y004769D01*
X014731Y004715D01*
X014706Y004663D01*
X014677Y004612D01*
X014645Y004564D01*
X014610Y004518D01*
X014572Y004474D01*
X014531Y004433D01*
X014487Y004395D01*
X014441Y004360D01*
X014393Y004328D01*
X014342Y004299D01*
X014290Y004274D01*
X014236Y004253D01*
X014180Y004236D01*
X014124Y004222D01*
X014067Y004212D01*
X014009Y004206D01*
X013951Y004204D01*
X013893Y004206D01*
X013835Y004212D01*
X013778Y004222D01*
X013722Y004236D01*
X013666Y004253D01*
X013612Y004274D01*
X013560Y004299D01*
X013509Y004328D01*
X013461Y004360D01*
X013415Y004395D01*
X013371Y004433D01*
X013330Y004474D01*
X013292Y004518D01*
X013257Y004564D01*
X013225Y004612D01*
X013196Y004663D01*
X013171Y004715D01*
X013150Y004769D01*
X013133Y004825D01*
X013119Y004881D01*
X013109Y004938D01*
X013103Y004996D01*
X013101Y005054D01*
X013140Y008993D02*
X013142Y009051D01*
X013148Y009109D01*
X013158Y009166D01*
X013172Y009222D01*
X013189Y009278D01*
X013210Y009332D01*
X013235Y009384D01*
X013264Y009435D01*
X013296Y009483D01*
X013331Y009529D01*
X013369Y009573D01*
X013410Y009614D01*
X013454Y009652D01*
X013500Y009687D01*
X013548Y009719D01*
X013599Y009748D01*
X013651Y009773D01*
X013705Y009794D01*
X013761Y009811D01*
X013817Y009825D01*
X013874Y009835D01*
X013932Y009841D01*
X013990Y009843D01*
X014048Y009841D01*
X014106Y009835D01*
X014163Y009825D01*
X014219Y009811D01*
X014275Y009794D01*
X014329Y009773D01*
X014381Y009748D01*
X014432Y009719D01*
X014480Y009687D01*
X014526Y009652D01*
X014570Y009614D01*
X014611Y009573D01*
X014649Y009529D01*
X014684Y009483D01*
X014716Y009435D01*
X014745Y009384D01*
X014770Y009332D01*
X014791Y009278D01*
X014808Y009222D01*
X014822Y009166D01*
X014832Y009109D01*
X014838Y009051D01*
X014840Y008993D01*
X014838Y008935D01*
X014832Y008877D01*
X014822Y008820D01*
X014808Y008764D01*
X014791Y008708D01*
X014770Y008654D01*
X014745Y008602D01*
X014716Y008551D01*
X014684Y008503D01*
X014649Y008457D01*
X014611Y008413D01*
X014570Y008372D01*
X014526Y008334D01*
X014480Y008299D01*
X014432Y008267D01*
X014381Y008238D01*
X014329Y008213D01*
X014275Y008192D01*
X014219Y008175D01*
X014163Y008161D01*
X014106Y008151D01*
X014048Y008145D01*
X013990Y008143D01*
X013932Y008145D01*
X013874Y008151D01*
X013817Y008161D01*
X013761Y008175D01*
X013705Y008192D01*
X013651Y008213D01*
X013599Y008238D01*
X013548Y008267D01*
X013500Y008299D01*
X013454Y008334D01*
X013410Y008372D01*
X013369Y008413D01*
X013331Y008457D01*
X013296Y008503D01*
X013264Y008551D01*
X013235Y008602D01*
X013210Y008654D01*
X013189Y008708D01*
X013172Y008764D01*
X013158Y008820D01*
X013148Y008877D01*
X013142Y008935D01*
X013140Y008993D01*
X011726Y015765D02*
X011728Y015823D01*
X011734Y015881D01*
X011744Y015938D01*
X011758Y015994D01*
X011775Y016050D01*
X011796Y016104D01*
X011821Y016156D01*
X011850Y016207D01*
X011882Y016255D01*
X011917Y016301D01*
X011955Y016345D01*
X011996Y016386D01*
X012040Y016424D01*
X012086Y016459D01*
X012134Y016491D01*
X012185Y016520D01*
X012237Y016545D01*
X012291Y016566D01*
X012347Y016583D01*
X012403Y016597D01*
X012460Y016607D01*
X012518Y016613D01*
X012576Y016615D01*
X012634Y016613D01*
X012692Y016607D01*
X012749Y016597D01*
X012805Y016583D01*
X012861Y016566D01*
X012915Y016545D01*
X012967Y016520D01*
X013018Y016491D01*
X013066Y016459D01*
X013112Y016424D01*
X013156Y016386D01*
X013197Y016345D01*
X013235Y016301D01*
X013270Y016255D01*
X013302Y016207D01*
X013331Y016156D01*
X013356Y016104D01*
X013377Y016050D01*
X013394Y015994D01*
X013408Y015938D01*
X013418Y015881D01*
X013424Y015823D01*
X013426Y015765D01*
X013424Y015707D01*
X013418Y015649D01*
X013408Y015592D01*
X013394Y015536D01*
X013377Y015480D01*
X013356Y015426D01*
X013331Y015374D01*
X013302Y015323D01*
X013270Y015275D01*
X013235Y015229D01*
X013197Y015185D01*
X013156Y015144D01*
X013112Y015106D01*
X013066Y015071D01*
X013018Y015039D01*
X012967Y015010D01*
X012915Y014985D01*
X012861Y014964D01*
X012805Y014947D01*
X012749Y014933D01*
X012692Y014923D01*
X012634Y014917D01*
X012576Y014915D01*
X012518Y014917D01*
X012460Y014923D01*
X012403Y014933D01*
X012347Y014947D01*
X012291Y014964D01*
X012237Y014985D01*
X012185Y015010D01*
X012134Y015039D01*
X012086Y015071D01*
X012040Y015106D01*
X011996Y015144D01*
X011955Y015185D01*
X011917Y015229D01*
X011882Y015275D01*
X011850Y015323D01*
X011821Y015374D01*
X011796Y015426D01*
X011775Y015480D01*
X011758Y015536D01*
X011744Y015592D01*
X011734Y015649D01*
X011728Y015707D01*
X011726Y015765D01*
X007879Y020044D02*
X007881Y020073D01*
X007887Y020101D01*
X007896Y020129D01*
X007909Y020155D01*
X007926Y020178D01*
X007945Y020200D01*
X007967Y020219D01*
X007992Y020234D01*
X008018Y020247D01*
X008046Y020255D01*
X008074Y020260D01*
X008103Y020261D01*
X008132Y020258D01*
X008160Y020251D01*
X008187Y020241D01*
X008213Y020227D01*
X008236Y020210D01*
X008257Y020190D01*
X008275Y020167D01*
X008290Y020142D01*
X008301Y020115D01*
X008309Y020087D01*
X008313Y020058D01*
X008313Y020030D01*
X008309Y020001D01*
X008301Y019973D01*
X008290Y019946D01*
X008275Y019921D01*
X008257Y019898D01*
X008236Y019878D01*
X008213Y019861D01*
X008187Y019847D01*
X008160Y019837D01*
X008132Y019830D01*
X008103Y019827D01*
X008074Y019828D01*
X008046Y019833D01*
X008018Y019841D01*
X007992Y019854D01*
X007967Y019869D01*
X007945Y019888D01*
X007926Y019910D01*
X007909Y019933D01*
X007896Y019959D01*
X007887Y019987D01*
X007881Y020015D01*
X007879Y020044D01*
X007781Y029571D02*
X007783Y029606D01*
X007789Y029641D01*
X007799Y029675D01*
X007812Y029708D01*
X007829Y029739D01*
X007850Y029767D01*
X007873Y029794D01*
X007900Y029817D01*
X007928Y029838D01*
X007959Y029855D01*
X007992Y029868D01*
X008026Y029878D01*
X008061Y029884D01*
X008096Y029886D01*
X008131Y029884D01*
X008166Y029878D01*
X008200Y029868D01*
X008233Y029855D01*
X008264Y029838D01*
X008292Y029817D01*
X008319Y029794D01*
X008342Y029767D01*
X008363Y029739D01*
X008380Y029708D01*
X008393Y029675D01*
X008403Y029641D01*
X008409Y029606D01*
X008411Y029571D01*
X008409Y029536D01*
X008403Y029501D01*
X008393Y029467D01*
X008380Y029434D01*
X008363Y029403D01*
X008342Y029375D01*
X008319Y029348D01*
X008292Y029325D01*
X008264Y029304D01*
X008233Y029287D01*
X008200Y029274D01*
X008166Y029264D01*
X008131Y029258D01*
X008096Y029256D01*
X008061Y029258D01*
X008026Y029264D01*
X007992Y029274D01*
X007959Y029287D01*
X007928Y029304D01*
X007900Y029325D01*
X007873Y029348D01*
X007850Y029375D01*
X007829Y029403D01*
X007812Y029434D01*
X007799Y029467D01*
X007789Y029501D01*
X007783Y029536D01*
X007781Y029571D01*
X015864Y015765D02*
X015866Y015823D01*
X015872Y015881D01*
X015882Y015938D01*
X015896Y015994D01*
X015913Y016050D01*
X015934Y016104D01*
X015959Y016156D01*
X015988Y016207D01*
X016020Y016255D01*
X016055Y016301D01*
X016093Y016345D01*
X016134Y016386D01*
X016178Y016424D01*
X016224Y016459D01*
X016272Y016491D01*
X016323Y016520D01*
X016375Y016545D01*
X016429Y016566D01*
X016485Y016583D01*
X016541Y016597D01*
X016598Y016607D01*
X016656Y016613D01*
X016714Y016615D01*
X016772Y016613D01*
X016830Y016607D01*
X016887Y016597D01*
X016943Y016583D01*
X016999Y016566D01*
X017053Y016545D01*
X017105Y016520D01*
X017156Y016491D01*
X017204Y016459D01*
X017250Y016424D01*
X017294Y016386D01*
X017335Y016345D01*
X017373Y016301D01*
X017408Y016255D01*
X017440Y016207D01*
X017469Y016156D01*
X017494Y016104D01*
X017515Y016050D01*
X017532Y015994D01*
X017546Y015938D01*
X017556Y015881D01*
X017562Y015823D01*
X017564Y015765D01*
X017562Y015707D01*
X017556Y015649D01*
X017546Y015592D01*
X017532Y015536D01*
X017515Y015480D01*
X017494Y015426D01*
X017469Y015374D01*
X017440Y015323D01*
X017408Y015275D01*
X017373Y015229D01*
X017335Y015185D01*
X017294Y015144D01*
X017250Y015106D01*
X017204Y015071D01*
X017156Y015039D01*
X017105Y015010D01*
X017053Y014985D01*
X016999Y014964D01*
X016943Y014947D01*
X016887Y014933D01*
X016830Y014923D01*
X016772Y014917D01*
X016714Y014915D01*
X016656Y014917D01*
X016598Y014923D01*
X016541Y014933D01*
X016485Y014947D01*
X016429Y014964D01*
X016375Y014985D01*
X016323Y015010D01*
X016272Y015039D01*
X016224Y015071D01*
X016178Y015106D01*
X016134Y015144D01*
X016093Y015185D01*
X016055Y015229D01*
X016020Y015275D01*
X015988Y015323D01*
X015959Y015374D01*
X015934Y015426D01*
X015913Y015480D01*
X015896Y015536D01*
X015882Y015592D01*
X015872Y015649D01*
X015866Y015707D01*
X015864Y015765D01*
X019640Y008993D02*
X019642Y009051D01*
X019648Y009109D01*
X019658Y009166D01*
X019672Y009222D01*
X019689Y009278D01*
X019710Y009332D01*
X019735Y009384D01*
X019764Y009435D01*
X019796Y009483D01*
X019831Y009529D01*
X019869Y009573D01*
X019910Y009614D01*
X019954Y009652D01*
X020000Y009687D01*
X020048Y009719D01*
X020099Y009748D01*
X020151Y009773D01*
X020205Y009794D01*
X020261Y009811D01*
X020317Y009825D01*
X020374Y009835D01*
X020432Y009841D01*
X020490Y009843D01*
X020548Y009841D01*
X020606Y009835D01*
X020663Y009825D01*
X020719Y009811D01*
X020775Y009794D01*
X020829Y009773D01*
X020881Y009748D01*
X020932Y009719D01*
X020980Y009687D01*
X021026Y009652D01*
X021070Y009614D01*
X021111Y009573D01*
X021149Y009529D01*
X021184Y009483D01*
X021216Y009435D01*
X021245Y009384D01*
X021270Y009332D01*
X021291Y009278D01*
X021308Y009222D01*
X021322Y009166D01*
X021332Y009109D01*
X021338Y009051D01*
X021340Y008993D01*
X021338Y008935D01*
X021332Y008877D01*
X021322Y008820D01*
X021308Y008764D01*
X021291Y008708D01*
X021270Y008654D01*
X021245Y008602D01*
X021216Y008551D01*
X021184Y008503D01*
X021149Y008457D01*
X021111Y008413D01*
X021070Y008372D01*
X021026Y008334D01*
X020980Y008299D01*
X020932Y008267D01*
X020881Y008238D01*
X020829Y008213D01*
X020775Y008192D01*
X020719Y008175D01*
X020663Y008161D01*
X020606Y008151D01*
X020548Y008145D01*
X020490Y008143D01*
X020432Y008145D01*
X020374Y008151D01*
X020317Y008161D01*
X020261Y008175D01*
X020205Y008192D01*
X020151Y008213D01*
X020099Y008238D01*
X020048Y008267D01*
X020000Y008299D01*
X019954Y008334D01*
X019910Y008372D01*
X019869Y008413D01*
X019831Y008457D01*
X019796Y008503D01*
X019764Y008551D01*
X019735Y008602D01*
X019710Y008654D01*
X019689Y008708D01*
X019672Y008764D01*
X019658Y008820D01*
X019648Y008877D01*
X019642Y008935D01*
X019640Y008993D01*
X019601Y005054D02*
X019603Y005112D01*
X019609Y005170D01*
X019619Y005227D01*
X019633Y005283D01*
X019650Y005339D01*
X019671Y005393D01*
X019696Y005445D01*
X019725Y005496D01*
X019757Y005544D01*
X019792Y005590D01*
X019830Y005634D01*
X019871Y005675D01*
X019915Y005713D01*
X019961Y005748D01*
X020009Y005780D01*
X020060Y005809D01*
X020112Y005834D01*
X020166Y005855D01*
X020222Y005872D01*
X020278Y005886D01*
X020335Y005896D01*
X020393Y005902D01*
X020451Y005904D01*
X020509Y005902D01*
X020567Y005896D01*
X020624Y005886D01*
X020680Y005872D01*
X020736Y005855D01*
X020790Y005834D01*
X020842Y005809D01*
X020893Y005780D01*
X020941Y005748D01*
X020987Y005713D01*
X021031Y005675D01*
X021072Y005634D01*
X021110Y005590D01*
X021145Y005544D01*
X021177Y005496D01*
X021206Y005445D01*
X021231Y005393D01*
X021252Y005339D01*
X021269Y005283D01*
X021283Y005227D01*
X021293Y005170D01*
X021299Y005112D01*
X021301Y005054D01*
X021299Y004996D01*
X021293Y004938D01*
X021283Y004881D01*
X021269Y004825D01*
X021252Y004769D01*
X021231Y004715D01*
X021206Y004663D01*
X021177Y004612D01*
X021145Y004564D01*
X021110Y004518D01*
X021072Y004474D01*
X021031Y004433D01*
X020987Y004395D01*
X020941Y004360D01*
X020893Y004328D01*
X020842Y004299D01*
X020790Y004274D01*
X020736Y004253D01*
X020680Y004236D01*
X020624Y004222D01*
X020567Y004212D01*
X020509Y004206D01*
X020451Y004204D01*
X020393Y004206D01*
X020335Y004212D01*
X020278Y004222D01*
X020222Y004236D01*
X020166Y004253D01*
X020112Y004274D01*
X020060Y004299D01*
X020009Y004328D01*
X019961Y004360D01*
X019915Y004395D01*
X019871Y004433D01*
X019830Y004474D01*
X019792Y004518D01*
X019757Y004564D01*
X019725Y004612D01*
X019696Y004663D01*
X019671Y004715D01*
X019650Y004769D01*
X019633Y004825D01*
X019619Y004881D01*
X019609Y004938D01*
X019603Y004996D01*
X019601Y005054D01*
X027721Y019886D02*
X027723Y019915D01*
X027729Y019943D01*
X027738Y019971D01*
X027751Y019997D01*
X027768Y020020D01*
X027787Y020042D01*
X027809Y020061D01*
X027834Y020076D01*
X027860Y020089D01*
X027888Y020097D01*
X027916Y020102D01*
X027945Y020103D01*
X027974Y020100D01*
X028002Y020093D01*
X028029Y020083D01*
X028055Y020069D01*
X028078Y020052D01*
X028099Y020032D01*
X028117Y020009D01*
X028132Y019984D01*
X028143Y019957D01*
X028151Y019929D01*
X028155Y019900D01*
X028155Y019872D01*
X028151Y019843D01*
X028143Y019815D01*
X028132Y019788D01*
X028117Y019763D01*
X028099Y019740D01*
X028078Y019720D01*
X028055Y019703D01*
X028029Y019689D01*
X028002Y019679D01*
X027974Y019672D01*
X027945Y019669D01*
X027916Y019670D01*
X027888Y019675D01*
X027860Y019683D01*
X027834Y019696D01*
X027809Y019711D01*
X027787Y019730D01*
X027768Y019752D01*
X027751Y019775D01*
X027738Y019801D01*
X027729Y019829D01*
X027723Y019857D01*
X027721Y019886D01*
X027623Y029729D02*
X027625Y029764D01*
X027631Y029799D01*
X027641Y029833D01*
X027654Y029866D01*
X027671Y029897D01*
X027692Y029925D01*
X027715Y029952D01*
X027742Y029975D01*
X027770Y029996D01*
X027801Y030013D01*
X027834Y030026D01*
X027868Y030036D01*
X027903Y030042D01*
X027938Y030044D01*
X027973Y030042D01*
X028008Y030036D01*
X028042Y030026D01*
X028075Y030013D01*
X028106Y029996D01*
X028134Y029975D01*
X028161Y029952D01*
X028184Y029925D01*
X028205Y029897D01*
X028222Y029866D01*
X028235Y029833D01*
X028245Y029799D01*
X028251Y029764D01*
X028253Y029729D01*
X028251Y029694D01*
X028245Y029659D01*
X028235Y029625D01*
X028222Y029592D01*
X028205Y029561D01*
X028184Y029533D01*
X028161Y029506D01*
X028134Y029483D01*
X028106Y029462D01*
X028075Y029445D01*
X028042Y029432D01*
X028008Y029422D01*
X027973Y029416D01*
X027938Y029414D01*
X027903Y029416D01*
X027868Y029422D01*
X027834Y029432D01*
X027801Y029445D01*
X027770Y029462D01*
X027742Y029483D01*
X027715Y029506D01*
X027692Y029533D01*
X027671Y029561D01*
X027654Y029592D01*
X027641Y029625D01*
X027631Y029659D01*
X027625Y029694D01*
X027623Y029729D01*
D12*
X011135Y009915D02*
X011135Y009791D01*
X011011Y009791D01*
X011011Y009915D01*
X011135Y009915D01*
X011135Y009914D02*
X011011Y009914D01*
D13*
X011073Y010353D03*
X011073Y010853D03*
X010573Y010853D03*
X010573Y010353D03*
X010573Y009853D03*
X010073Y009853D03*
X009573Y009853D03*
X009573Y010353D03*
X010073Y010353D03*
X010073Y010853D03*
X009573Y010853D03*
X009073Y010853D03*
X009073Y010353D03*
X009073Y009853D03*
X008573Y009853D03*
X008573Y010353D03*
X008573Y010853D03*
X008073Y010853D03*
X008073Y010353D03*
X008073Y009853D03*
X007573Y009853D03*
X007073Y009853D03*
X007073Y010353D03*
X007573Y010353D03*
X007573Y010853D03*
X007073Y010853D03*
X006573Y010853D03*
X006573Y010353D03*
X006573Y009853D03*
X006073Y009853D03*
X006073Y010353D03*
X006073Y010853D03*
X005573Y010853D03*
X005573Y010353D03*
X005573Y009853D03*
X005573Y011353D03*
X005573Y011853D03*
X005573Y012353D03*
X006073Y012353D03*
X006073Y011853D03*
X006073Y011353D03*
X006573Y011353D03*
X006573Y011853D03*
X006573Y012353D03*
X007073Y012353D03*
X007073Y011853D03*
X007073Y011353D03*
X007573Y011353D03*
X008073Y011353D03*
X008073Y011853D03*
X007573Y011853D03*
X007573Y012353D03*
X008073Y012353D03*
X008573Y012353D03*
X008573Y011853D03*
X008573Y011353D03*
X009073Y011353D03*
X009073Y011853D03*
X009073Y012353D03*
X009573Y012353D03*
X009573Y011853D03*
X009573Y011353D03*
X010073Y011353D03*
X010573Y011353D03*
X010573Y011853D03*
X010073Y011853D03*
X010073Y012353D03*
X010573Y012353D03*
X011073Y012353D03*
X011073Y011853D03*
X011073Y011353D03*
X011073Y012853D03*
X011073Y013353D03*
X011073Y013853D03*
X010573Y013853D03*
X010573Y013353D03*
X010573Y012853D03*
X010073Y012853D03*
X009573Y012853D03*
X009573Y013353D03*
X010073Y013353D03*
X010073Y013853D03*
X009573Y013853D03*
X009073Y013853D03*
X009073Y013353D03*
X009073Y012853D03*
X008073Y012853D03*
X007573Y012853D03*
X007073Y012853D03*
X007073Y013353D03*
X007573Y013353D03*
X008073Y013353D03*
X008073Y013853D03*
X007573Y013853D03*
X007073Y013853D03*
X006573Y013853D03*
X006573Y013353D03*
X006573Y012853D03*
X006073Y012853D03*
X006073Y013353D03*
X006073Y013853D03*
X005573Y013853D03*
X005573Y013353D03*
X005573Y012853D03*
X005573Y014353D03*
X005573Y014853D03*
X005573Y015353D03*
X006073Y015353D03*
X006073Y014853D03*
X006073Y014353D03*
X006573Y014353D03*
X006573Y014853D03*
X006573Y015353D03*
X007073Y015353D03*
X007073Y014853D03*
X007073Y014353D03*
X007573Y014353D03*
X008073Y014353D03*
X008073Y014853D03*
X007573Y014853D03*
X007573Y015353D03*
X008073Y015353D03*
X008573Y015353D03*
X008573Y014853D03*
X008573Y014353D03*
X009073Y014353D03*
X009073Y014853D03*
X009073Y015353D03*
X009573Y015353D03*
X009573Y014853D03*
X009573Y014353D03*
X010073Y014353D03*
X010573Y014353D03*
X010573Y014853D03*
X010073Y014853D03*
X010073Y015353D03*
X010573Y015353D03*
X011073Y015353D03*
X011073Y014853D03*
X011073Y014353D03*
D14*
X003123Y013801D03*
X003104Y017303D03*
X003104Y021044D03*
X003123Y010061D03*
D15*
X002909Y023049D03*
D16*
X003208Y025683D02*
X003208Y027265D01*
X003208Y025683D02*
X002610Y025683D01*
X002610Y027265D01*
X003208Y027265D01*
X003208Y025832D02*
X002610Y025832D01*
X002610Y025981D02*
X003208Y025981D01*
X003208Y026130D02*
X002610Y026130D01*
X002610Y026279D02*
X003208Y026279D01*
X003208Y026428D02*
X002610Y026428D01*
X002610Y026577D02*
X003208Y026577D01*
X003208Y026726D02*
X002610Y026726D01*
X002610Y026875D02*
X003208Y026875D01*
X003208Y027024D02*
X002610Y027024D01*
X002610Y027173D02*
X003208Y027173D01*
X002872Y006723D02*
X003989Y005606D01*
X003566Y005183D01*
X002449Y006300D01*
X002872Y006723D01*
X003417Y005332D02*
X003715Y005332D01*
X003864Y005481D02*
X003268Y005481D01*
X003119Y005630D02*
X003965Y005630D01*
X003816Y005779D02*
X002970Y005779D01*
X002821Y005928D02*
X003667Y005928D01*
X003518Y006077D02*
X002672Y006077D01*
X002523Y006226D02*
X003369Y006226D01*
X003220Y006375D02*
X002524Y006375D01*
X002673Y006524D02*
X003071Y006524D01*
X002922Y006673D02*
X002822Y006673D01*
D17*
X006518Y018651D02*
X006834Y018651D01*
X006834Y017627D01*
X006518Y017627D01*
X006518Y018651D01*
X006518Y017705D02*
X006834Y017705D01*
X006834Y017783D02*
X006518Y017783D01*
X006518Y017861D02*
X006834Y017861D01*
X006834Y017939D02*
X006518Y017939D01*
X006518Y018017D02*
X006834Y018017D01*
X006834Y018095D02*
X006518Y018095D01*
X006518Y018173D02*
X006834Y018173D01*
X006834Y018251D02*
X006518Y018251D01*
X006518Y018329D02*
X006834Y018329D01*
X006834Y018407D02*
X006518Y018407D01*
X006518Y018485D02*
X006834Y018485D01*
X006834Y018563D02*
X006518Y018563D01*
X006518Y018641D02*
X006834Y018641D01*
D18*
X007838Y018139D03*
D19*
X008231Y016303D03*
X009351Y016303D03*
D20*
X010473Y008150D03*
X011654Y008150D03*
X011664Y006786D03*
X010483Y006786D03*
D21*
G36*
X005294Y004407D02*
X006517Y003184D01*
X005988Y002655D01*
X004765Y003878D01*
X005294Y004407D01*
G37*
D22*
X011577Y010524D03*
X012247Y010524D03*
D23*
X012295Y011800D03*
X013043Y011800D03*
X013987Y011801D03*
X014735Y011801D03*
X029342Y017177D03*
X030011Y017177D03*
D24*
G36*
X009820Y008320D02*
X009028Y007528D01*
X008472Y008084D01*
X009264Y008876D01*
X009820Y008320D01*
G37*
G36*
X008482Y007001D02*
X007690Y006209D01*
X007134Y006765D01*
X007926Y007557D01*
X008482Y007001D01*
G37*
D25*
X008778Y003736D03*
X009290Y003736D03*
X009539Y003194D03*
X010051Y003194D03*
X010893Y003192D03*
X011404Y003192D03*
X007812Y003726D03*
X007300Y003726D03*
D26*
X015201Y004109D03*
X015988Y004109D03*
X016775Y004109D03*
X017563Y004109D03*
X018350Y004109D03*
X019138Y004109D03*
X019138Y005999D03*
X018350Y005999D03*
X017563Y005999D03*
X016775Y005999D03*
X015988Y005999D03*
X016027Y008048D03*
X016815Y008048D03*
X017602Y008048D03*
X018390Y008048D03*
X019177Y008048D03*
X019177Y009938D03*
X018390Y009938D03*
X017602Y009938D03*
X016815Y009938D03*
X016027Y009938D03*
X015240Y008048D03*
X015401Y014821D03*
X014614Y014821D03*
X013826Y014821D03*
X014614Y016710D03*
X015401Y016710D03*
D27*
X015378Y009367D02*
X015102Y009367D01*
X015102Y010509D01*
X015378Y010509D01*
X015378Y009367D01*
X015378Y009484D02*
X015102Y009484D01*
X015102Y009601D02*
X015378Y009601D01*
X015378Y009718D02*
X015102Y009718D01*
X015102Y009835D02*
X015378Y009835D01*
X015378Y009952D02*
X015102Y009952D01*
X015102Y010069D02*
X015378Y010069D01*
X015378Y010186D02*
X015102Y010186D01*
X015102Y010303D02*
X015378Y010303D01*
X015378Y010420D02*
X015102Y010420D01*
X015063Y005428D02*
X015339Y005428D01*
X015063Y005428D02*
X015063Y006570D01*
X015339Y006570D01*
X015339Y005428D01*
X015339Y005545D02*
X015063Y005545D01*
X015063Y005662D02*
X015339Y005662D01*
X015339Y005779D02*
X015063Y005779D01*
X015063Y005896D02*
X015339Y005896D01*
X015339Y006013D02*
X015063Y006013D01*
X015063Y006130D02*
X015339Y006130D01*
X015339Y006247D02*
X015063Y006247D01*
X015063Y006364D02*
X015339Y006364D01*
X015339Y006481D02*
X015063Y006481D01*
D28*
X013954Y016149D02*
X013698Y016149D01*
X013698Y017271D01*
X013954Y017271D01*
X013954Y016149D01*
X013954Y016286D02*
X013698Y016286D01*
X013698Y016423D02*
X013954Y016423D01*
X013954Y016560D02*
X013698Y016560D01*
X013698Y016697D02*
X013954Y016697D01*
X013954Y016834D02*
X013698Y016834D01*
X013698Y016971D02*
X013954Y016971D01*
X013954Y017108D02*
X013698Y017108D01*
X013698Y017245D02*
X013954Y017245D01*
D29*
X012063Y004470D03*
X011484Y004470D03*
X010851Y004460D03*
X010272Y004460D03*
X009542Y004451D03*
X008963Y004451D03*
X008231Y004442D03*
X007652Y004442D03*
X008104Y002497D03*
X008683Y002497D03*
X009425Y002487D03*
X010004Y002487D03*
X010766Y002487D03*
X011345Y002487D03*
X007133Y002497D03*
X006554Y002497D03*
D30*
X006844Y001977D03*
X008394Y001977D03*
X009715Y001967D03*
X011056Y001967D03*
X010562Y004980D03*
X009252Y004971D03*
X007942Y004962D03*
X011773Y004990D03*
D31*
X022324Y004075D03*
X023324Y004075D03*
X024324Y004075D03*
X025324Y004075D03*
X026324Y004075D03*
X027810Y004100D03*
X028810Y004100D03*
X029810Y004100D03*
X030810Y004100D03*
X031810Y004100D03*
X031810Y006150D03*
X030810Y006150D03*
X029810Y006150D03*
X028810Y006150D03*
X027810Y006150D03*
X026324Y006125D03*
X025324Y006125D03*
X024324Y006125D03*
X023324Y006125D03*
X022324Y006125D03*
D32*
X031077Y017185D03*
X031677Y017185D03*
X004761Y022051D03*
X004161Y022051D03*
D33*
X021360Y011285D03*
X021360Y010615D03*
X022640Y010605D03*
X022640Y011275D03*
M02*
