G75*
%MOIN*%
%OFA0B0*%
%FSLAX24Y24*%
%IPPOS*%
%LPD*%
%AMOC8*
5,1,8,0,0,1.08239X$1,22.5*
%
%ADD10C,0.0124*%
%ADD11R,0.0248X0.0248*%
%ADD12R,0.1402X0.0701*%
%ADD13R,0.1732X0.0748*%
%ADD14C,0.0150*%
%ADD15C,0.0079*%
%ADD16R,0.0394X0.1102*%
%ADD17R,0.0630X0.0710*%
%ADD18R,0.0591X0.1142*%
%ADD19R,0.0433X0.0394*%
%ADD20R,0.0591X0.0512*%
%ADD21R,0.1122X0.0787*%
%ADD22R,0.0276X0.0354*%
%ADD23R,0.0394X0.1260*%
%ADD24C,0.0118*%
%ADD25R,0.1260X0.0394*%
%ADD26R,0.0220X0.0160*%
%ADD27R,0.0800X0.0680*%
%ADD28C,0.0225*%
%ADD29R,0.0500X0.1400*%
%ADD30R,0.0630X0.0460*%
%ADD31R,0.0460X0.0630*%
D10*
X012920Y009716D02*
X012920Y009840D01*
X012920Y009716D02*
X012796Y009716D01*
X012796Y009840D01*
X012920Y009840D01*
X012920Y009839D02*
X012796Y009839D01*
D11*
X012358Y009778D03*
X011858Y009778D03*
X011358Y009778D03*
X010858Y009778D03*
X010358Y009778D03*
X009858Y009778D03*
X009358Y009778D03*
X008858Y009778D03*
X008358Y009778D03*
X007858Y009778D03*
X007358Y009778D03*
X007358Y010278D03*
X007358Y010778D03*
X007358Y011278D03*
X007858Y011278D03*
X007858Y010778D03*
X007858Y010278D03*
X008358Y010278D03*
X008858Y010278D03*
X008858Y010778D03*
X008358Y010778D03*
X008358Y011278D03*
X008858Y011278D03*
X009358Y011278D03*
X009358Y010778D03*
X009358Y010278D03*
X009858Y010278D03*
X009858Y010778D03*
X009858Y011278D03*
X010358Y011278D03*
X010358Y010778D03*
X010358Y010278D03*
X010858Y010278D03*
X011358Y010278D03*
X011358Y010778D03*
X010858Y010778D03*
X010858Y011278D03*
X011358Y011278D03*
X011858Y011278D03*
X011858Y010778D03*
X011858Y010278D03*
X012358Y010278D03*
X012358Y010778D03*
X012358Y011278D03*
X012858Y011278D03*
X012858Y010778D03*
X012858Y010278D03*
X012858Y011778D03*
X012858Y012278D03*
X012858Y012778D03*
X012858Y013278D03*
X012358Y013278D03*
X012358Y012778D03*
X012358Y012278D03*
X012358Y011778D03*
X011858Y011778D03*
X011858Y012278D03*
X011858Y012778D03*
X011858Y013278D03*
X011358Y013278D03*
X011358Y012778D03*
X011358Y012278D03*
X011358Y011778D03*
X010858Y011778D03*
X010358Y011778D03*
X010358Y012278D03*
X010858Y012278D03*
X010858Y012778D03*
X010858Y013278D03*
X010858Y013778D03*
X011358Y013778D03*
X011358Y014278D03*
X010858Y014278D03*
X010358Y014278D03*
X010358Y014778D03*
X010858Y014778D03*
X011358Y014778D03*
X011858Y014778D03*
X011858Y014278D03*
X011858Y013778D03*
X012358Y013778D03*
X012358Y014278D03*
X012358Y014778D03*
X012858Y014778D03*
X012858Y014278D03*
X012858Y013778D03*
X012858Y015278D03*
X012358Y015278D03*
X011858Y015278D03*
X011358Y015278D03*
X010858Y015278D03*
X010358Y015278D03*
X009858Y015278D03*
X009358Y015278D03*
X009358Y014778D03*
X009358Y014278D03*
X009358Y013778D03*
X009858Y013778D03*
X009858Y014278D03*
X009858Y014778D03*
X008858Y014778D03*
X008858Y014278D03*
X008858Y013778D03*
X008358Y013778D03*
X007858Y013778D03*
X007858Y014278D03*
X008358Y014278D03*
X008358Y014778D03*
X007858Y014778D03*
X007358Y014778D03*
X007358Y014278D03*
X007358Y013778D03*
X007358Y013278D03*
X007358Y012778D03*
X007358Y012278D03*
X007358Y011778D03*
X007858Y011778D03*
X008358Y011778D03*
X008858Y011778D03*
X008858Y012278D03*
X008358Y012278D03*
X007858Y012278D03*
X007858Y012778D03*
X008358Y012778D03*
X008858Y012778D03*
X008858Y013278D03*
X008358Y013278D03*
X007858Y013278D03*
X009358Y013278D03*
X009358Y012778D03*
X009358Y012278D03*
X009358Y011778D03*
X009858Y011778D03*
X009858Y012278D03*
X009858Y012778D03*
X009858Y013278D03*
X008858Y015278D03*
X008358Y015278D03*
X007858Y015278D03*
X007358Y015278D03*
D12*
X004696Y013118D03*
X003483Y016538D03*
X003483Y020279D03*
X004696Y009378D03*
D13*
X009963Y004548D03*
X011543Y021274D03*
D14*
X014177Y020975D02*
X015759Y020975D01*
X014177Y020975D02*
X014177Y021573D01*
X015759Y021573D01*
X015759Y020975D01*
X015759Y021124D02*
X014177Y021124D01*
X014177Y021273D02*
X015759Y021273D01*
X015759Y021422D02*
X014177Y021422D01*
X014177Y021571D02*
X015759Y021571D01*
X014179Y004249D02*
X012597Y004249D01*
X012597Y004847D01*
X014179Y004847D01*
X014179Y004249D01*
X014179Y004398D02*
X012597Y004398D01*
X012597Y004547D02*
X014179Y004547D01*
X014179Y004696D02*
X012597Y004696D01*
X012597Y004845D02*
X014179Y004845D01*
D15*
X008619Y018076D02*
X008303Y018076D01*
X008619Y018076D02*
X008619Y017052D01*
X008303Y017052D01*
X008303Y018076D01*
X008303Y017130D02*
X008619Y017130D01*
X008619Y017208D02*
X008303Y017208D01*
X008303Y017286D02*
X008619Y017286D01*
X008619Y017364D02*
X008303Y017364D01*
X008303Y017442D02*
X008619Y017442D01*
X008619Y017520D02*
X008303Y017520D01*
X008303Y017598D02*
X008619Y017598D01*
X008619Y017676D02*
X008303Y017676D01*
X008303Y017754D02*
X008619Y017754D01*
X008619Y017832D02*
X008303Y017832D01*
X008303Y017910D02*
X008619Y017910D01*
X008619Y017988D02*
X008303Y017988D01*
X008303Y018066D02*
X008619Y018066D01*
D16*
X009623Y017564D03*
D17*
X010066Y016098D03*
X011186Y016098D03*
D18*
X011759Y008755D03*
X010578Y008755D03*
X010588Y007491D03*
X011769Y007491D03*
D19*
X013689Y012188D03*
X013689Y012858D03*
D20*
X014584Y013932D03*
X014584Y014680D03*
X013705Y015650D03*
X013705Y016398D03*
X014682Y011813D03*
X014682Y011144D03*
X028092Y017104D03*
X028092Y017773D03*
D21*
G36*
X010125Y008425D02*
X009333Y007633D01*
X008777Y008189D01*
X009569Y008981D01*
X010125Y008425D01*
G37*
G36*
X008787Y007106D02*
X007995Y006314D01*
X007439Y006870D01*
X008231Y007662D01*
X008787Y007106D01*
G37*
D22*
X006045Y004301D03*
X005533Y004301D03*
X005316Y003779D03*
X004804Y003779D03*
X004567Y004291D03*
X004055Y004291D03*
X006158Y003777D03*
X006669Y003777D03*
D23*
X016587Y004546D03*
X017375Y004546D03*
X018162Y004546D03*
X018950Y004546D03*
X019737Y004546D03*
X019737Y006436D03*
X018950Y006436D03*
X018162Y006436D03*
X017375Y006436D03*
X016587Y006436D03*
X016505Y008283D03*
X017292Y008283D03*
X018080Y008283D03*
X018867Y008283D03*
X019655Y008283D03*
X020442Y008283D03*
X020524Y006436D03*
X020442Y010173D03*
X019655Y010173D03*
X018867Y010173D03*
X018080Y010173D03*
X017292Y010173D03*
D24*
X016643Y009602D02*
X016367Y009602D01*
X016367Y010744D01*
X016643Y010744D01*
X016643Y009602D01*
X016643Y009719D02*
X016367Y009719D01*
X016367Y009836D02*
X016643Y009836D01*
X016643Y009953D02*
X016367Y009953D01*
X016367Y010070D02*
X016643Y010070D01*
X016643Y010187D02*
X016367Y010187D01*
X016367Y010304D02*
X016643Y010304D01*
X016643Y010421D02*
X016367Y010421D01*
X016367Y010538D02*
X016643Y010538D01*
X016643Y010655D02*
X016367Y010655D01*
X020386Y005117D02*
X020662Y005117D01*
X020662Y003975D01*
X020386Y003975D01*
X020386Y005117D01*
X020386Y004092D02*
X020662Y004092D01*
X020662Y004209D02*
X020386Y004209D01*
X020386Y004326D02*
X020662Y004326D01*
X020662Y004443D02*
X020386Y004443D01*
X020386Y004560D02*
X020662Y004560D01*
X020662Y004677D02*
X020386Y004677D01*
X020386Y004794D02*
X020662Y004794D01*
X020662Y004911D02*
X020386Y004911D01*
X020386Y005028D02*
X020662Y005028D01*
X031558Y028081D02*
X031558Y028357D01*
X031558Y028081D02*
X030416Y028081D01*
X030416Y028357D01*
X031558Y028357D01*
X031558Y028198D02*
X030416Y028198D01*
X030416Y028315D02*
X031558Y028315D01*
D25*
X030987Y029006D03*
X030987Y029794D03*
X032877Y029794D03*
X032877Y029006D03*
X032877Y028219D03*
D26*
X003960Y002388D03*
X004539Y002388D03*
X005101Y002388D03*
X005680Y002388D03*
X006222Y002378D03*
X006801Y002378D03*
X007372Y002378D03*
X007951Y002378D03*
X007839Y004965D03*
X007206Y004955D03*
X006627Y004955D03*
X005897Y004946D03*
X005318Y004946D03*
X004586Y004937D03*
X004007Y004937D03*
X008418Y004965D03*
D27*
X008128Y005485D03*
X006917Y005475D03*
X005607Y005466D03*
X004297Y005457D03*
X004249Y002908D03*
X005390Y002908D03*
X006511Y002898D03*
X007661Y002898D03*
D28*
X025151Y004302D02*
X025427Y004302D01*
X025151Y004302D02*
X025151Y005478D01*
X025427Y005478D01*
X025427Y004302D01*
X025427Y004526D02*
X025151Y004526D01*
X025151Y004750D02*
X025427Y004750D01*
X025427Y004974D02*
X025151Y004974D01*
X025151Y005198D02*
X025427Y005198D01*
X025427Y005422D02*
X025151Y005422D01*
D29*
X026289Y004890D03*
X027289Y004890D03*
X028289Y004890D03*
X029289Y004890D03*
X029289Y002840D03*
X028289Y002840D03*
X027289Y002840D03*
X026289Y002840D03*
X025289Y002840D03*
D30*
X015892Y011852D03*
X015892Y012452D03*
X003570Y021399D03*
X003570Y021999D03*
X029180Y017748D03*
X029180Y017148D03*
D31*
X017108Y013786D03*
X016508Y013786D03*
M02*
