G75*
%MOIN*%
%OFA0B0*%
%FSLAX24Y24*%
%IPPOS*%
%LPD*%
%AMOC8*
5,1,8,0,0,1.08239X$1,22.5*
%
%ADD10C,0.0010*%
%ADD11C,0.0000*%
%ADD12C,0.0050*%
%ADD13C,0.0030*%
%ADD14C,0.0040*%
%ADD15C,0.0020*%
%ADD16C,0.0160*%
%ADD17C,0.0039*%
%ADD18C,0.0060*%
D10*
X000105Y000105D02*
X000105Y014985D01*
X000107Y015026D01*
X000112Y015067D01*
X000121Y015107D01*
X000133Y015146D01*
X000149Y015184D01*
X000168Y015220D01*
X000190Y015255D01*
X000215Y015287D01*
X000243Y015317D01*
X000273Y015345D01*
X000305Y015370D01*
X000340Y015392D01*
X000376Y015411D01*
X000414Y015427D01*
X000453Y015439D01*
X000493Y015448D01*
X000534Y015453D01*
X000575Y015455D01*
X000655Y015455D01*
X000681Y015457D01*
X000707Y015462D01*
X000732Y015470D01*
X000755Y015482D01*
X000777Y015496D01*
X000796Y015514D01*
X000814Y015533D01*
X000828Y015555D01*
X000840Y015578D01*
X000848Y015603D01*
X000853Y015629D01*
X000855Y015655D01*
X000855Y022305D01*
X000853Y022331D01*
X000848Y022357D01*
X000840Y022382D01*
X000828Y022405D01*
X000814Y022427D01*
X000796Y022446D01*
X000777Y022464D01*
X000755Y022478D01*
X000732Y022490D01*
X000707Y022498D01*
X000681Y022503D01*
X000655Y022505D01*
X000575Y022505D01*
X000534Y022507D01*
X000493Y022512D01*
X000453Y022521D01*
X000414Y022533D01*
X000376Y022549D01*
X000340Y022568D01*
X000305Y022590D01*
X000273Y022615D01*
X000243Y022643D01*
X000215Y022673D01*
X000190Y022705D01*
X000168Y022740D01*
X000149Y022776D01*
X000133Y022814D01*
X000121Y022853D01*
X000112Y022893D01*
X000107Y022934D01*
X000105Y022975D01*
X000105Y037385D01*
X000107Y037426D01*
X000112Y037467D01*
X000121Y037507D01*
X000133Y037546D01*
X000149Y037584D01*
X000168Y037620D01*
X000190Y037655D01*
X000215Y037687D01*
X000243Y037717D01*
X000273Y037745D01*
X000305Y037770D01*
X000340Y037792D01*
X000376Y037811D01*
X000414Y037827D01*
X000453Y037839D01*
X000493Y037848D01*
X000534Y037853D01*
X000575Y037855D01*
X013835Y037855D01*
X013876Y037853D01*
X013917Y037848D01*
X013957Y037839D01*
X013996Y037827D01*
X014034Y037811D01*
X014070Y037792D01*
X014105Y037770D01*
X014137Y037745D01*
X014167Y037717D01*
X014195Y037687D01*
X014220Y037655D01*
X014242Y037620D01*
X014261Y037584D01*
X014277Y037546D01*
X014289Y037507D01*
X014298Y037467D01*
X014303Y037426D01*
X014305Y037385D01*
X014305Y037175D01*
X014307Y037134D01*
X014312Y037093D01*
X014321Y037053D01*
X014333Y037014D01*
X014349Y036976D01*
X014368Y036940D01*
X014390Y036905D01*
X014415Y036873D01*
X014443Y036843D01*
X014473Y036815D01*
X014505Y036790D01*
X014540Y036768D01*
X014576Y036749D01*
X014614Y036733D01*
X014653Y036721D01*
X014693Y036712D01*
X014734Y036707D01*
X014775Y036705D01*
X021835Y036705D01*
X021876Y036707D01*
X021917Y036712D01*
X021957Y036721D01*
X021996Y036733D01*
X022034Y036749D01*
X022070Y036768D01*
X022105Y036790D01*
X022137Y036815D01*
X022167Y036843D01*
X022195Y036873D01*
X022220Y036905D01*
X022242Y036940D01*
X022261Y036976D01*
X022277Y037014D01*
X022289Y037053D01*
X022298Y037093D01*
X022303Y037134D01*
X022305Y037175D01*
X022305Y037385D01*
X022307Y037426D01*
X022312Y037467D01*
X022321Y037507D01*
X022333Y037546D01*
X022349Y037584D01*
X022368Y037620D01*
X022390Y037655D01*
X022415Y037687D01*
X022443Y037717D01*
X022473Y037745D01*
X022505Y037770D01*
X022540Y037792D01*
X022576Y037811D01*
X022614Y037827D01*
X022653Y037839D01*
X022693Y037848D01*
X022734Y037853D01*
X022775Y037855D01*
X035135Y037855D01*
X035176Y037853D01*
X035217Y037848D01*
X035257Y037839D01*
X035296Y037827D01*
X035334Y037811D01*
X035370Y037792D01*
X035405Y037770D01*
X035437Y037745D01*
X035467Y037717D01*
X035495Y037687D01*
X035520Y037655D01*
X035542Y037620D01*
X035561Y037584D01*
X035577Y037546D01*
X035589Y037507D01*
X035598Y037467D01*
X035603Y037426D01*
X035605Y037385D01*
X035605Y000575D01*
X035603Y000534D01*
X035598Y000493D01*
X035589Y000453D01*
X035577Y000414D01*
X035561Y000376D01*
X035542Y000340D01*
X035520Y000305D01*
X035495Y000273D01*
X035467Y000243D01*
X035437Y000215D01*
X035405Y000190D01*
X035370Y000168D01*
X035334Y000149D01*
X035296Y000133D01*
X035257Y000121D01*
X035217Y000112D01*
X035176Y000107D01*
X035135Y000105D01*
X022775Y000105D01*
X022734Y000107D01*
X022693Y000112D01*
X022653Y000121D01*
X022614Y000133D01*
X022576Y000149D01*
X022540Y000168D01*
X022505Y000190D01*
X022473Y000215D01*
X022443Y000243D01*
X022415Y000273D01*
X022390Y000305D01*
X022368Y000340D01*
X022349Y000376D01*
X022333Y000414D01*
X022321Y000453D01*
X022312Y000493D01*
X022307Y000534D01*
X022305Y000575D01*
X022305Y000785D01*
X022303Y000826D01*
X022298Y000867D01*
X022289Y000907D01*
X022277Y000946D01*
X022261Y000984D01*
X022242Y001020D01*
X022220Y001055D01*
X022195Y001087D01*
X022167Y001117D01*
X022137Y001145D01*
X022105Y001170D01*
X022070Y001192D01*
X022034Y001211D01*
X021996Y001227D01*
X021957Y001239D01*
X021917Y001248D01*
X021876Y001253D01*
X021835Y001255D01*
X015115Y001255D01*
X015068Y001252D01*
X015022Y001245D01*
X014977Y001235D01*
X014932Y001221D01*
X014889Y001204D01*
X014847Y001183D01*
X014806Y001159D01*
X014768Y001132D01*
X014732Y001103D01*
X014699Y001070D01*
X014668Y001035D01*
X014640Y000997D01*
X014615Y000958D01*
X014593Y000917D01*
X014575Y000874D01*
X014560Y000830D01*
X014548Y000784D01*
X014540Y000738D01*
X014536Y000692D01*
X014535Y000645D01*
X014533Y000600D01*
X014528Y000556D01*
X014518Y000512D01*
X014506Y000470D01*
X014490Y000428D01*
X014470Y000388D01*
X014447Y000350D01*
X014421Y000313D01*
X014392Y000279D01*
X014361Y000248D01*
X014327Y000219D01*
X014290Y000193D01*
X014252Y000170D01*
X014212Y000150D01*
X014170Y000134D01*
X014128Y000122D01*
X014084Y000112D01*
X014040Y000107D01*
X013995Y000105D01*
X013835Y000105D02*
X000105Y000105D01*
X003594Y002513D02*
X003649Y002513D01*
X003668Y002532D01*
X003668Y002605D01*
X003649Y002623D01*
X003594Y002623D01*
X003594Y002513D01*
X003594Y002873D02*
X003649Y002873D01*
X003668Y002892D01*
X003668Y002965D01*
X003649Y002983D01*
X003594Y002983D01*
X003594Y002873D01*
X003594Y003233D02*
X003649Y003233D01*
X003668Y003252D01*
X003668Y003325D01*
X003649Y003343D01*
X003594Y003343D01*
X003594Y003233D01*
X004735Y003233D02*
X004790Y003233D01*
X004809Y003251D01*
X004809Y003325D01*
X004790Y003343D01*
X004735Y003343D01*
X004735Y003233D01*
X004735Y002983D02*
X004790Y002983D01*
X004809Y002965D01*
X004809Y002891D01*
X004790Y002873D01*
X004735Y002873D01*
X004735Y002983D01*
X004735Y002623D02*
X004790Y002623D01*
X004809Y002605D01*
X004809Y002531D01*
X004790Y002513D01*
X004735Y002513D01*
X004735Y002623D01*
X005856Y002613D02*
X005912Y002613D01*
X005930Y002595D01*
X005930Y002522D01*
X005912Y002503D01*
X005856Y002503D01*
X005856Y002613D01*
X005856Y002863D02*
X005912Y002863D01*
X005930Y002882D01*
X005930Y002955D01*
X005912Y002973D01*
X005856Y002973D01*
X005856Y002863D01*
X005856Y003223D02*
X005912Y003223D01*
X005930Y003242D01*
X005930Y003315D01*
X005912Y003333D01*
X005856Y003333D01*
X005856Y003223D01*
X006226Y003372D02*
X006226Y003522D01*
X006302Y003522D01*
X006327Y003497D01*
X006327Y003447D01*
X006302Y003422D01*
X006226Y003422D01*
X006277Y003422D02*
X006327Y003372D01*
X006374Y003397D02*
X006399Y003372D01*
X006449Y003372D01*
X006474Y003397D01*
X006474Y003422D01*
X006449Y003447D01*
X006424Y003447D01*
X006449Y003447D02*
X006474Y003472D01*
X006474Y003497D01*
X006449Y003522D01*
X006399Y003522D01*
X006374Y003497D01*
X006521Y003472D02*
X006571Y003522D01*
X006571Y003372D01*
X006521Y003372D02*
X006621Y003372D01*
X007006Y003333D02*
X007062Y003333D01*
X007080Y003315D01*
X007080Y003242D01*
X007062Y003223D01*
X007006Y003223D01*
X007006Y003333D01*
X007006Y002973D02*
X007062Y002973D01*
X007080Y002955D01*
X007080Y002882D01*
X007062Y002863D01*
X007006Y002863D01*
X007006Y002973D01*
X007006Y002613D02*
X007062Y002613D01*
X007080Y002595D01*
X007080Y002522D01*
X007062Y002503D01*
X007006Y002503D01*
X007006Y002613D01*
X005209Y004060D02*
X005184Y004034D01*
X005134Y004034D01*
X005109Y004060D01*
X005062Y004060D02*
X005037Y004034D01*
X004987Y004034D01*
X004962Y004060D01*
X004915Y004034D02*
X004865Y004085D01*
X004890Y004085D02*
X004815Y004085D01*
X004815Y004034D02*
X004815Y004185D01*
X004890Y004185D01*
X004915Y004160D01*
X004915Y004110D01*
X004890Y004085D01*
X004962Y004160D02*
X004987Y004185D01*
X005037Y004185D01*
X005062Y004160D01*
X005062Y004135D01*
X005037Y004110D01*
X005062Y004085D01*
X005062Y004060D01*
X005037Y004110D02*
X005012Y004110D01*
X005109Y004160D02*
X005134Y004185D01*
X005184Y004185D01*
X005209Y004160D01*
X005209Y004135D01*
X005184Y004110D01*
X005209Y004085D01*
X005209Y004060D01*
X005184Y004110D02*
X005159Y004110D01*
X005544Y004556D02*
X005544Y004706D01*
X005619Y004706D01*
X005644Y004681D01*
X005644Y004631D01*
X005619Y004606D01*
X005544Y004606D01*
X005594Y004606D02*
X005644Y004556D01*
X005691Y004581D02*
X005716Y004556D01*
X005767Y004556D01*
X005792Y004581D01*
X005792Y004606D01*
X005767Y004631D01*
X005742Y004631D01*
X005767Y004631D02*
X005792Y004656D01*
X005792Y004681D01*
X005767Y004706D01*
X005716Y004706D01*
X005691Y004681D01*
X005839Y004681D02*
X005864Y004706D01*
X005914Y004706D01*
X005939Y004681D01*
X005939Y004656D01*
X005839Y004556D01*
X005939Y004556D01*
X006262Y005080D02*
X006317Y005080D01*
X006335Y005099D01*
X006335Y005172D01*
X006317Y005190D01*
X006262Y005190D01*
X006262Y005080D01*
X006262Y005440D02*
X006317Y005440D01*
X006335Y005459D01*
X006335Y005532D01*
X006317Y005550D01*
X006262Y005550D01*
X006262Y005440D01*
X006262Y005800D02*
X006317Y005800D01*
X006335Y005819D01*
X006335Y005892D01*
X006317Y005910D01*
X006262Y005910D01*
X006262Y005800D01*
X007473Y005810D02*
X007529Y005810D01*
X007547Y005828D01*
X007547Y005902D01*
X007529Y005920D01*
X007473Y005920D01*
X007473Y005810D01*
X007473Y005560D02*
X007529Y005560D01*
X007547Y005542D01*
X007547Y005468D01*
X007529Y005450D01*
X007473Y005450D01*
X007473Y005560D01*
X007473Y005200D02*
X007529Y005200D01*
X007547Y005182D01*
X007547Y005108D01*
X007529Y005090D01*
X007473Y005090D01*
X007473Y005200D01*
X005026Y005163D02*
X005007Y005181D01*
X004952Y005181D01*
X004952Y005071D01*
X005007Y005071D01*
X005026Y005089D01*
X005026Y005163D01*
X005007Y005431D02*
X004952Y005431D01*
X004952Y005541D01*
X005007Y005541D01*
X005026Y005523D01*
X005026Y005449D01*
X005007Y005431D01*
X005007Y005791D02*
X004952Y005791D01*
X004952Y005901D01*
X005007Y005901D01*
X005026Y005883D01*
X005026Y005809D01*
X005007Y005791D01*
X004436Y004696D02*
X004361Y004621D01*
X004461Y004621D01*
X004436Y004546D02*
X004436Y004696D01*
X004314Y004671D02*
X004314Y004646D01*
X004289Y004621D01*
X004314Y004596D01*
X004314Y004571D01*
X004289Y004546D01*
X004239Y004546D01*
X004214Y004571D01*
X004166Y004546D02*
X004116Y004596D01*
X004141Y004596D02*
X004066Y004596D01*
X004066Y004546D02*
X004066Y004696D01*
X004141Y004696D01*
X004166Y004671D01*
X004166Y004621D01*
X004141Y004596D01*
X004214Y004671D02*
X004239Y004696D01*
X004289Y004696D01*
X004314Y004671D01*
X004289Y004621D02*
X004264Y004621D01*
X003715Y005081D02*
X003715Y005154D01*
X003697Y005172D01*
X003642Y005172D01*
X003642Y005062D01*
X003697Y005062D01*
X003715Y005081D01*
X003697Y005422D02*
X003715Y005441D01*
X003715Y005514D01*
X003697Y005532D01*
X003642Y005532D01*
X003642Y005422D01*
X003697Y005422D01*
X003697Y005782D02*
X003715Y005801D01*
X003715Y005874D01*
X003697Y005892D01*
X003642Y005892D01*
X003642Y005782D01*
X003697Y005782D01*
X012768Y009434D02*
X012818Y009484D01*
X012918Y009484D01*
X012843Y009484D02*
X012843Y009384D01*
X012818Y009384D02*
X012768Y009434D01*
X012818Y009384D02*
X012918Y009384D01*
X013211Y009679D02*
X013161Y009729D01*
X013312Y009729D01*
X013312Y009679D02*
X013312Y009779D01*
X014044Y012583D02*
X014044Y012658D01*
X014069Y012683D01*
X014119Y012683D01*
X014144Y012658D01*
X014144Y012583D01*
X014194Y012583D02*
X014044Y012583D01*
X014144Y012633D02*
X014194Y012683D01*
X014119Y012731D02*
X014119Y012831D01*
X014194Y012806D02*
X014044Y012806D01*
X014119Y012731D01*
X010188Y015663D02*
X010114Y015663D01*
X010114Y015773D01*
X010188Y015773D01*
X010151Y015718D02*
X010114Y015718D01*
X010077Y015700D02*
X010077Y015681D01*
X010059Y015663D01*
X010022Y015663D01*
X010004Y015681D01*
X010022Y015718D02*
X010059Y015718D01*
X010077Y015700D01*
X010077Y015755D02*
X010059Y015773D01*
X010022Y015773D01*
X010004Y015755D01*
X010004Y015736D01*
X010022Y015718D01*
X009967Y015663D02*
X009967Y015773D01*
X009893Y015773D02*
X009967Y015663D01*
X009893Y015663D02*
X009893Y015773D01*
X009856Y015773D02*
X009783Y015773D01*
X009783Y015663D01*
X009856Y015663D01*
X009819Y015718D02*
X009783Y015718D01*
X009746Y015700D02*
X009746Y015681D01*
X009727Y015663D01*
X009691Y015663D01*
X009672Y015681D01*
X009635Y015663D02*
X009598Y015700D01*
X009617Y015700D02*
X009562Y015700D01*
X009562Y015663D02*
X009562Y015773D01*
X009617Y015773D01*
X009635Y015755D01*
X009635Y015718D01*
X009617Y015700D01*
X009672Y015736D02*
X009691Y015718D01*
X009727Y015718D01*
X009746Y015700D01*
X009746Y015755D02*
X009727Y015773D01*
X009691Y015773D01*
X009672Y015755D01*
X009672Y015736D01*
X007386Y015724D02*
X007236Y015724D01*
X007286Y015674D01*
X007236Y015624D01*
X007386Y015624D01*
X006973Y015458D02*
X006973Y015358D01*
X006873Y015458D01*
X006848Y015458D01*
X006823Y015433D01*
X006823Y015383D01*
X006848Y015358D01*
X006823Y015260D02*
X006973Y015260D01*
X006973Y015210D02*
X006973Y015310D01*
X006873Y015210D02*
X006823Y015260D01*
X018124Y009304D02*
X018224Y009304D01*
X018174Y009229D02*
X018124Y009229D01*
X018124Y009154D02*
X018124Y009304D01*
X018419Y009279D02*
X018419Y009254D01*
X018444Y009229D01*
X018494Y009229D01*
X018519Y009204D01*
X018519Y009179D01*
X018494Y009154D01*
X018444Y009154D01*
X018419Y009179D01*
X018419Y009279D02*
X018444Y009304D01*
X018494Y009304D01*
X018519Y009279D01*
X018566Y009304D02*
X018566Y009154D01*
X018566Y009204D02*
X018666Y009304D01*
X018713Y009304D02*
X018813Y009304D01*
X018763Y009304D02*
X018763Y009154D01*
X018666Y009154D02*
X018591Y009229D01*
X018621Y005565D02*
X018621Y005415D01*
X018621Y005465D02*
X018721Y005565D01*
X018768Y005565D02*
X018868Y005565D01*
X018818Y005565D02*
X018818Y005415D01*
X018721Y005415D02*
X018646Y005490D01*
X018573Y005465D02*
X018573Y005440D01*
X018548Y005415D01*
X018498Y005415D01*
X018473Y005440D01*
X018498Y005490D02*
X018548Y005490D01*
X018573Y005465D01*
X018573Y005540D02*
X018548Y005565D01*
X018498Y005565D01*
X018473Y005540D01*
X018473Y005515D01*
X018498Y005490D01*
X018279Y005565D02*
X018179Y005565D01*
X018179Y005415D01*
X018179Y005490D02*
X018229Y005490D01*
X031974Y028617D02*
X031974Y028718D01*
X032049Y028668D02*
X032049Y028617D01*
X032124Y028617D02*
X031974Y028617D01*
X031999Y028912D02*
X032024Y028912D01*
X032049Y028937D01*
X032049Y028987D01*
X032074Y029012D01*
X032099Y029012D01*
X032124Y028987D01*
X032124Y028937D01*
X032099Y028912D01*
X031999Y028912D02*
X031974Y028937D01*
X031974Y028987D01*
X031999Y029012D01*
X031974Y029059D02*
X032124Y029059D01*
X032074Y029059D02*
X031974Y029160D01*
X031974Y029207D02*
X031974Y029307D01*
X031974Y029257D02*
X032124Y029257D01*
X032124Y029160D02*
X032049Y029084D01*
D11*
X031082Y031107D02*
X031084Y031165D01*
X031090Y031223D01*
X031100Y031280D01*
X031114Y031336D01*
X031131Y031392D01*
X031152Y031446D01*
X031177Y031498D01*
X031206Y031549D01*
X031238Y031597D01*
X031273Y031643D01*
X031311Y031687D01*
X031352Y031728D01*
X031396Y031766D01*
X031442Y031801D01*
X031490Y031833D01*
X031541Y031862D01*
X031593Y031887D01*
X031647Y031908D01*
X031703Y031925D01*
X031759Y031939D01*
X031816Y031949D01*
X031874Y031955D01*
X031932Y031957D01*
X031990Y031955D01*
X032048Y031949D01*
X032105Y031939D01*
X032161Y031925D01*
X032217Y031908D01*
X032271Y031887D01*
X032323Y031862D01*
X032374Y031833D01*
X032422Y031801D01*
X032468Y031766D01*
X032512Y031728D01*
X032553Y031687D01*
X032591Y031643D01*
X032626Y031597D01*
X032658Y031549D01*
X032687Y031498D01*
X032712Y031446D01*
X032733Y031392D01*
X032750Y031336D01*
X032764Y031280D01*
X032774Y031223D01*
X032780Y031165D01*
X032782Y031107D01*
X032780Y031049D01*
X032774Y030991D01*
X032764Y030934D01*
X032750Y030878D01*
X032733Y030822D01*
X032712Y030768D01*
X032687Y030716D01*
X032658Y030665D01*
X032626Y030617D01*
X032591Y030571D01*
X032553Y030527D01*
X032512Y030486D01*
X032468Y030448D01*
X032422Y030413D01*
X032374Y030381D01*
X032323Y030352D01*
X032271Y030327D01*
X032217Y030306D01*
X032161Y030289D01*
X032105Y030275D01*
X032048Y030265D01*
X031990Y030259D01*
X031932Y030257D01*
X031874Y030259D01*
X031816Y030265D01*
X031759Y030275D01*
X031703Y030289D01*
X031647Y030306D01*
X031593Y030327D01*
X031541Y030352D01*
X031490Y030381D01*
X031442Y030413D01*
X031396Y030448D01*
X031352Y030486D01*
X031311Y030527D01*
X031273Y030571D01*
X031238Y030617D01*
X031206Y030665D01*
X031177Y030716D01*
X031152Y030768D01*
X031131Y030822D01*
X031114Y030878D01*
X031100Y030934D01*
X031090Y030991D01*
X031084Y031049D01*
X031082Y031107D01*
X031082Y026969D02*
X031084Y027027D01*
X031090Y027085D01*
X031100Y027142D01*
X031114Y027198D01*
X031131Y027254D01*
X031152Y027308D01*
X031177Y027360D01*
X031206Y027411D01*
X031238Y027459D01*
X031273Y027505D01*
X031311Y027549D01*
X031352Y027590D01*
X031396Y027628D01*
X031442Y027663D01*
X031490Y027695D01*
X031541Y027724D01*
X031593Y027749D01*
X031647Y027770D01*
X031703Y027787D01*
X031759Y027801D01*
X031816Y027811D01*
X031874Y027817D01*
X031932Y027819D01*
X031990Y027817D01*
X032048Y027811D01*
X032105Y027801D01*
X032161Y027787D01*
X032217Y027770D01*
X032271Y027749D01*
X032323Y027724D01*
X032374Y027695D01*
X032422Y027663D01*
X032468Y027628D01*
X032512Y027590D01*
X032553Y027549D01*
X032591Y027505D01*
X032626Y027459D01*
X032658Y027411D01*
X032687Y027360D01*
X032712Y027308D01*
X032733Y027254D01*
X032750Y027198D01*
X032764Y027142D01*
X032774Y027085D01*
X032780Y027027D01*
X032782Y026969D01*
X032780Y026911D01*
X032774Y026853D01*
X032764Y026796D01*
X032750Y026740D01*
X032733Y026684D01*
X032712Y026630D01*
X032687Y026578D01*
X032658Y026527D01*
X032626Y026479D01*
X032591Y026433D01*
X032553Y026389D01*
X032512Y026348D01*
X032468Y026310D01*
X032422Y026275D01*
X032374Y026243D01*
X032323Y026214D01*
X032271Y026189D01*
X032217Y026168D01*
X032161Y026151D01*
X032105Y026137D01*
X032048Y026127D01*
X031990Y026121D01*
X031932Y026119D01*
X031874Y026121D01*
X031816Y026127D01*
X031759Y026137D01*
X031703Y026151D01*
X031647Y026168D01*
X031593Y026189D01*
X031541Y026214D01*
X031490Y026243D01*
X031442Y026275D01*
X031396Y026310D01*
X031352Y026348D01*
X031311Y026389D01*
X031273Y026433D01*
X031238Y026479D01*
X031206Y026527D01*
X031177Y026578D01*
X031152Y026630D01*
X031131Y026684D01*
X031114Y026740D01*
X031100Y026796D01*
X031090Y026853D01*
X031084Y026911D01*
X031082Y026969D01*
X026417Y029815D02*
X026419Y029850D01*
X026425Y029885D01*
X026435Y029919D01*
X026448Y029952D01*
X026465Y029983D01*
X026486Y030011D01*
X026509Y030038D01*
X026536Y030061D01*
X026564Y030082D01*
X026595Y030099D01*
X026628Y030112D01*
X026662Y030122D01*
X026697Y030128D01*
X026732Y030130D01*
X026767Y030128D01*
X026802Y030122D01*
X026836Y030112D01*
X026869Y030099D01*
X026900Y030082D01*
X026928Y030061D01*
X026955Y030038D01*
X026978Y030011D01*
X026999Y029983D01*
X027016Y029952D01*
X027029Y029919D01*
X027039Y029885D01*
X027045Y029850D01*
X027047Y029815D01*
X027045Y029780D01*
X027039Y029745D01*
X027029Y029711D01*
X027016Y029678D01*
X026999Y029647D01*
X026978Y029619D01*
X026955Y029592D01*
X026928Y029569D01*
X026900Y029548D01*
X026869Y029531D01*
X026836Y029518D01*
X026802Y029508D01*
X026767Y029502D01*
X026732Y029500D01*
X026697Y029502D01*
X026662Y029508D01*
X026628Y029518D01*
X026595Y029531D01*
X026564Y029548D01*
X026536Y029569D01*
X026509Y029592D01*
X026486Y029619D01*
X026465Y029647D01*
X026448Y029678D01*
X026435Y029711D01*
X026425Y029745D01*
X026419Y029780D01*
X026417Y029815D01*
X026515Y019972D02*
X026517Y020001D01*
X026523Y020029D01*
X026532Y020057D01*
X026545Y020083D01*
X026562Y020106D01*
X026581Y020128D01*
X026603Y020147D01*
X026628Y020162D01*
X026654Y020175D01*
X026682Y020183D01*
X026710Y020188D01*
X026739Y020189D01*
X026768Y020186D01*
X026796Y020179D01*
X026823Y020169D01*
X026849Y020155D01*
X026872Y020138D01*
X026893Y020118D01*
X026911Y020095D01*
X026926Y020070D01*
X026937Y020043D01*
X026945Y020015D01*
X026949Y019986D01*
X026949Y019958D01*
X026945Y019929D01*
X026937Y019901D01*
X026926Y019874D01*
X026911Y019849D01*
X026893Y019826D01*
X026872Y019806D01*
X026849Y019789D01*
X026823Y019775D01*
X026796Y019765D01*
X026768Y019758D01*
X026739Y019755D01*
X026710Y019756D01*
X026682Y019761D01*
X026654Y019769D01*
X026628Y019782D01*
X026603Y019797D01*
X026581Y019816D01*
X026562Y019838D01*
X026545Y019861D01*
X026532Y019887D01*
X026523Y019915D01*
X026517Y019943D01*
X026515Y019972D01*
X020905Y009228D02*
X020907Y009286D01*
X020913Y009344D01*
X020923Y009401D01*
X020937Y009457D01*
X020954Y009513D01*
X020975Y009567D01*
X021000Y009619D01*
X021029Y009670D01*
X021061Y009718D01*
X021096Y009764D01*
X021134Y009808D01*
X021175Y009849D01*
X021219Y009887D01*
X021265Y009922D01*
X021313Y009954D01*
X021364Y009983D01*
X021416Y010008D01*
X021470Y010029D01*
X021526Y010046D01*
X021582Y010060D01*
X021639Y010070D01*
X021697Y010076D01*
X021755Y010078D01*
X021813Y010076D01*
X021871Y010070D01*
X021928Y010060D01*
X021984Y010046D01*
X022040Y010029D01*
X022094Y010008D01*
X022146Y009983D01*
X022197Y009954D01*
X022245Y009922D01*
X022291Y009887D01*
X022335Y009849D01*
X022376Y009808D01*
X022414Y009764D01*
X022449Y009718D01*
X022481Y009670D01*
X022510Y009619D01*
X022535Y009567D01*
X022556Y009513D01*
X022573Y009457D01*
X022587Y009401D01*
X022597Y009344D01*
X022603Y009286D01*
X022605Y009228D01*
X022603Y009170D01*
X022597Y009112D01*
X022587Y009055D01*
X022573Y008999D01*
X022556Y008943D01*
X022535Y008889D01*
X022510Y008837D01*
X022481Y008786D01*
X022449Y008738D01*
X022414Y008692D01*
X022376Y008648D01*
X022335Y008607D01*
X022291Y008569D01*
X022245Y008534D01*
X022197Y008502D01*
X022146Y008473D01*
X022094Y008448D01*
X022040Y008427D01*
X021984Y008410D01*
X021928Y008396D01*
X021871Y008386D01*
X021813Y008380D01*
X021755Y008378D01*
X021697Y008380D01*
X021639Y008386D01*
X021582Y008396D01*
X021526Y008410D01*
X021470Y008427D01*
X021416Y008448D01*
X021364Y008473D01*
X021313Y008502D01*
X021265Y008534D01*
X021219Y008569D01*
X021175Y008607D01*
X021134Y008648D01*
X021096Y008692D01*
X021061Y008738D01*
X021029Y008786D01*
X021000Y008837D01*
X020975Y008889D01*
X020954Y008943D01*
X020937Y008999D01*
X020923Y009055D01*
X020913Y009112D01*
X020907Y009170D01*
X020905Y009228D01*
X020924Y005491D02*
X020926Y005549D01*
X020932Y005607D01*
X020942Y005664D01*
X020956Y005720D01*
X020973Y005776D01*
X020994Y005830D01*
X021019Y005882D01*
X021048Y005933D01*
X021080Y005981D01*
X021115Y006027D01*
X021153Y006071D01*
X021194Y006112D01*
X021238Y006150D01*
X021284Y006185D01*
X021332Y006217D01*
X021383Y006246D01*
X021435Y006271D01*
X021489Y006292D01*
X021545Y006309D01*
X021601Y006323D01*
X021658Y006333D01*
X021716Y006339D01*
X021774Y006341D01*
X021832Y006339D01*
X021890Y006333D01*
X021947Y006323D01*
X022003Y006309D01*
X022059Y006292D01*
X022113Y006271D01*
X022165Y006246D01*
X022216Y006217D01*
X022264Y006185D01*
X022310Y006150D01*
X022354Y006112D01*
X022395Y006071D01*
X022433Y006027D01*
X022468Y005981D01*
X022500Y005933D01*
X022529Y005882D01*
X022554Y005830D01*
X022575Y005776D01*
X022592Y005720D01*
X022606Y005664D01*
X022616Y005607D01*
X022622Y005549D01*
X022624Y005491D01*
X022622Y005433D01*
X022616Y005375D01*
X022606Y005318D01*
X022592Y005262D01*
X022575Y005206D01*
X022554Y005152D01*
X022529Y005100D01*
X022500Y005049D01*
X022468Y005001D01*
X022433Y004955D01*
X022395Y004911D01*
X022354Y004870D01*
X022310Y004832D01*
X022264Y004797D01*
X022216Y004765D01*
X022165Y004736D01*
X022113Y004711D01*
X022059Y004690D01*
X022003Y004673D01*
X021947Y004659D01*
X021890Y004649D01*
X021832Y004643D01*
X021774Y004641D01*
X021716Y004643D01*
X021658Y004649D01*
X021601Y004659D01*
X021545Y004673D01*
X021489Y004690D01*
X021435Y004711D01*
X021383Y004736D01*
X021332Y004765D01*
X021284Y004797D01*
X021238Y004832D01*
X021194Y004870D01*
X021153Y004911D01*
X021115Y004955D01*
X021080Y005001D01*
X021048Y005049D01*
X021019Y005100D01*
X020994Y005152D01*
X020973Y005206D01*
X020956Y005262D01*
X020942Y005318D01*
X020932Y005375D01*
X020926Y005433D01*
X020924Y005491D01*
X014424Y005491D02*
X014426Y005549D01*
X014432Y005607D01*
X014442Y005664D01*
X014456Y005720D01*
X014473Y005776D01*
X014494Y005830D01*
X014519Y005882D01*
X014548Y005933D01*
X014580Y005981D01*
X014615Y006027D01*
X014653Y006071D01*
X014694Y006112D01*
X014738Y006150D01*
X014784Y006185D01*
X014832Y006217D01*
X014883Y006246D01*
X014935Y006271D01*
X014989Y006292D01*
X015045Y006309D01*
X015101Y006323D01*
X015158Y006333D01*
X015216Y006339D01*
X015274Y006341D01*
X015332Y006339D01*
X015390Y006333D01*
X015447Y006323D01*
X015503Y006309D01*
X015559Y006292D01*
X015613Y006271D01*
X015665Y006246D01*
X015716Y006217D01*
X015764Y006185D01*
X015810Y006150D01*
X015854Y006112D01*
X015895Y006071D01*
X015933Y006027D01*
X015968Y005981D01*
X016000Y005933D01*
X016029Y005882D01*
X016054Y005830D01*
X016075Y005776D01*
X016092Y005720D01*
X016106Y005664D01*
X016116Y005607D01*
X016122Y005549D01*
X016124Y005491D01*
X016122Y005433D01*
X016116Y005375D01*
X016106Y005318D01*
X016092Y005262D01*
X016075Y005206D01*
X016054Y005152D01*
X016029Y005100D01*
X016000Y005049D01*
X015968Y005001D01*
X015933Y004955D01*
X015895Y004911D01*
X015854Y004870D01*
X015810Y004832D01*
X015764Y004797D01*
X015716Y004765D01*
X015665Y004736D01*
X015613Y004711D01*
X015559Y004690D01*
X015503Y004673D01*
X015447Y004659D01*
X015390Y004649D01*
X015332Y004643D01*
X015274Y004641D01*
X015216Y004643D01*
X015158Y004649D01*
X015101Y004659D01*
X015045Y004673D01*
X014989Y004690D01*
X014935Y004711D01*
X014883Y004736D01*
X014832Y004765D01*
X014784Y004797D01*
X014738Y004832D01*
X014694Y004870D01*
X014653Y004911D01*
X014615Y004955D01*
X014580Y005001D01*
X014548Y005049D01*
X014519Y005100D01*
X014494Y005152D01*
X014473Y005206D01*
X014456Y005262D01*
X014442Y005318D01*
X014432Y005375D01*
X014426Y005433D01*
X014424Y005491D01*
X014519Y006391D02*
X013132Y006391D01*
X012542Y006391D02*
X011155Y006391D01*
X010565Y006391D02*
X009178Y006391D01*
X008588Y006391D02*
X007201Y006391D01*
X006611Y006391D02*
X005224Y006391D01*
X004634Y006391D02*
X003247Y006391D01*
X002657Y006391D02*
X001271Y006391D01*
X001271Y007624D01*
X001271Y008214D02*
X001271Y009448D01*
X001271Y010038D02*
X001271Y011272D01*
X001271Y011862D02*
X001271Y013095D01*
X001271Y013686D02*
X001271Y014919D01*
X001271Y015510D02*
X001271Y016743D01*
X001271Y017333D02*
X001271Y018567D01*
X002657Y018567D01*
X003247Y018567D02*
X004634Y018567D01*
X005224Y018567D02*
X006611Y018567D01*
X007201Y018567D02*
X008588Y018567D01*
X009178Y018567D02*
X010565Y018567D01*
X011155Y018567D02*
X012542Y018567D01*
X013132Y018567D02*
X014519Y018567D01*
X014519Y017333D01*
X014519Y016743D02*
X014519Y015510D01*
X014519Y014919D02*
X014519Y013686D01*
X014519Y013095D02*
X014519Y011862D01*
X014519Y011272D02*
X014519Y010038D01*
X014519Y009448D02*
X014519Y008214D01*
X014519Y007624D02*
X014519Y006391D01*
X014405Y009228D02*
X014407Y009286D01*
X014413Y009344D01*
X014423Y009401D01*
X014437Y009457D01*
X014454Y009513D01*
X014475Y009567D01*
X014500Y009619D01*
X014529Y009670D01*
X014561Y009718D01*
X014596Y009764D01*
X014634Y009808D01*
X014675Y009849D01*
X014719Y009887D01*
X014765Y009922D01*
X014813Y009954D01*
X014864Y009983D01*
X014916Y010008D01*
X014970Y010029D01*
X015026Y010046D01*
X015082Y010060D01*
X015139Y010070D01*
X015197Y010076D01*
X015255Y010078D01*
X015313Y010076D01*
X015371Y010070D01*
X015428Y010060D01*
X015484Y010046D01*
X015540Y010029D01*
X015594Y010008D01*
X015646Y009983D01*
X015697Y009954D01*
X015745Y009922D01*
X015791Y009887D01*
X015835Y009849D01*
X015876Y009808D01*
X015914Y009764D01*
X015949Y009718D01*
X015981Y009670D01*
X016010Y009619D01*
X016035Y009567D01*
X016056Y009513D01*
X016073Y009457D01*
X016087Y009401D01*
X016097Y009344D01*
X016103Y009286D01*
X016105Y009228D01*
X016103Y009170D01*
X016097Y009112D01*
X016087Y009055D01*
X016073Y008999D01*
X016056Y008943D01*
X016035Y008889D01*
X016010Y008837D01*
X015981Y008786D01*
X015949Y008738D01*
X015914Y008692D01*
X015876Y008648D01*
X015835Y008607D01*
X015791Y008569D01*
X015745Y008534D01*
X015697Y008502D01*
X015646Y008473D01*
X015594Y008448D01*
X015540Y008427D01*
X015484Y008410D01*
X015428Y008396D01*
X015371Y008386D01*
X015313Y008380D01*
X015255Y008378D01*
X015197Y008380D01*
X015139Y008386D01*
X015082Y008396D01*
X015026Y008410D01*
X014970Y008427D01*
X014916Y008448D01*
X014864Y008473D01*
X014813Y008502D01*
X014765Y008534D01*
X014719Y008569D01*
X014675Y008607D01*
X014634Y008648D01*
X014596Y008692D01*
X014561Y008738D01*
X014529Y008786D01*
X014500Y008837D01*
X014475Y008889D01*
X014454Y008943D01*
X014437Y008999D01*
X014423Y009055D01*
X014413Y009112D01*
X014407Y009170D01*
X014405Y009228D01*
X013080Y009674D02*
X012962Y009556D01*
X009109Y009556D01*
X007116Y009556D01*
X007116Y011519D01*
X007116Y012528D01*
X008592Y012528D01*
X008592Y013020D01*
X009104Y013020D01*
X009104Y014024D01*
X009104Y015481D01*
X009084Y014024D02*
X009104Y014024D01*
X009084Y014024D01*
X007135Y014024D01*
X007116Y015501D02*
X007116Y012528D01*
X007116Y011519D02*
X007116Y011500D01*
X009104Y011500D01*
X010108Y011500D01*
X010620Y011500D01*
X010620Y012528D01*
X010108Y012528D01*
X010108Y014024D01*
X010580Y014024D01*
X010620Y015501D02*
X010620Y012528D01*
X010108Y012528D02*
X010108Y011500D01*
X010620Y011500D02*
X010620Y010520D01*
X011112Y010520D01*
X011112Y009575D01*
X012608Y011032D02*
X012608Y011524D01*
X012116Y011524D01*
X012116Y014024D01*
X012608Y014024D01*
X012608Y014536D01*
X013080Y014536D01*
X013080Y015501D01*
X010620Y015501D01*
X007116Y015501D01*
X009104Y011500D02*
X009104Y009556D01*
X009109Y009556D01*
X012608Y011032D02*
X013080Y011032D01*
X013080Y011052D02*
X013080Y014536D01*
X013080Y011052D02*
X013080Y009693D01*
X013835Y000105D02*
X013995Y000105D01*
X006672Y020130D02*
X006674Y020159D01*
X006680Y020187D01*
X006689Y020215D01*
X006702Y020241D01*
X006719Y020264D01*
X006738Y020286D01*
X006760Y020305D01*
X006785Y020320D01*
X006811Y020333D01*
X006839Y020341D01*
X006867Y020346D01*
X006896Y020347D01*
X006925Y020344D01*
X006953Y020337D01*
X006980Y020327D01*
X007006Y020313D01*
X007029Y020296D01*
X007050Y020276D01*
X007068Y020253D01*
X007083Y020228D01*
X007094Y020201D01*
X007102Y020173D01*
X007106Y020144D01*
X007106Y020116D01*
X007102Y020087D01*
X007094Y020059D01*
X007083Y020032D01*
X007068Y020007D01*
X007050Y019984D01*
X007029Y019964D01*
X007006Y019947D01*
X006980Y019933D01*
X006953Y019923D01*
X006925Y019916D01*
X006896Y019913D01*
X006867Y019914D01*
X006839Y019919D01*
X006811Y019927D01*
X006785Y019940D01*
X006760Y019955D01*
X006738Y019974D01*
X006719Y019996D01*
X006702Y020019D01*
X006689Y020045D01*
X006680Y020073D01*
X006674Y020101D01*
X006672Y020130D01*
X006574Y029657D02*
X006576Y029692D01*
X006582Y029727D01*
X006592Y029761D01*
X006605Y029794D01*
X006622Y029825D01*
X006643Y029853D01*
X006666Y029880D01*
X006693Y029903D01*
X006721Y029924D01*
X006752Y029941D01*
X006785Y029954D01*
X006819Y029964D01*
X006854Y029970D01*
X006889Y029972D01*
X006924Y029970D01*
X006959Y029964D01*
X006993Y029954D01*
X007026Y029941D01*
X007057Y029924D01*
X007085Y029903D01*
X007112Y029880D01*
X007135Y029853D01*
X007156Y029825D01*
X007173Y029794D01*
X007186Y029761D01*
X007196Y029727D01*
X007202Y029692D01*
X007204Y029657D01*
X007202Y029622D01*
X007196Y029587D01*
X007186Y029553D01*
X007173Y029520D01*
X007156Y029489D01*
X007135Y029461D01*
X007112Y029434D01*
X007085Y029411D01*
X007057Y029390D01*
X007026Y029373D01*
X006993Y029360D01*
X006959Y029350D01*
X006924Y029344D01*
X006889Y029342D01*
X006854Y029344D01*
X006819Y029350D01*
X006785Y029360D01*
X006752Y029373D01*
X006721Y029390D01*
X006693Y029411D01*
X006666Y029434D01*
X006643Y029461D01*
X006622Y029489D01*
X006605Y029520D01*
X006592Y029553D01*
X006582Y029587D01*
X006576Y029622D01*
X006574Y029657D01*
D12*
X011801Y023322D02*
X011188Y022709D01*
X011188Y019812D01*
X011774Y019227D01*
X015283Y019227D01*
X011266Y021274D02*
X011268Y021362D01*
X011274Y021450D01*
X011284Y021538D01*
X011298Y021626D01*
X011315Y021712D01*
X011337Y021798D01*
X011362Y021882D01*
X011392Y021966D01*
X011424Y022048D01*
X011461Y022128D01*
X011501Y022207D01*
X011545Y022284D01*
X011592Y022359D01*
X011642Y022431D01*
X011696Y022502D01*
X011752Y022569D01*
X011812Y022635D01*
X011874Y022697D01*
X011940Y022757D01*
X012007Y022813D01*
X012078Y022867D01*
X012150Y022917D01*
X012225Y022964D01*
X012302Y023008D01*
X012381Y023048D01*
X012461Y023085D01*
X012543Y023117D01*
X012627Y023147D01*
X012711Y023172D01*
X012797Y023194D01*
X012883Y023211D01*
X012971Y023225D01*
X013059Y023235D01*
X013147Y023241D01*
X013235Y023243D01*
X013323Y023241D01*
X013411Y023235D01*
X013499Y023225D01*
X013587Y023211D01*
X013673Y023194D01*
X013759Y023172D01*
X013843Y023147D01*
X013927Y023117D01*
X014009Y023085D01*
X014089Y023048D01*
X014168Y023008D01*
X014245Y022964D01*
X014320Y022917D01*
X014392Y022867D01*
X014463Y022813D01*
X014530Y022757D01*
X014596Y022697D01*
X014658Y022635D01*
X014718Y022569D01*
X014774Y022502D01*
X014828Y022431D01*
X014878Y022359D01*
X014925Y022284D01*
X014969Y022207D01*
X015009Y022128D01*
X015046Y022048D01*
X015078Y021966D01*
X015108Y021882D01*
X015133Y021798D01*
X015155Y021712D01*
X015172Y021626D01*
X015186Y021538D01*
X015196Y021450D01*
X015202Y021362D01*
X015204Y021274D01*
X015202Y021186D01*
X015196Y021098D01*
X015186Y021010D01*
X015172Y020922D01*
X015155Y020836D01*
X015133Y020750D01*
X015108Y020666D01*
X015078Y020582D01*
X015046Y020500D01*
X015009Y020420D01*
X014969Y020341D01*
X014925Y020264D01*
X014878Y020189D01*
X014828Y020117D01*
X014774Y020046D01*
X014718Y019979D01*
X014658Y019913D01*
X014596Y019851D01*
X014530Y019791D01*
X014463Y019735D01*
X014392Y019681D01*
X014320Y019631D01*
X014245Y019584D01*
X014168Y019540D01*
X014089Y019500D01*
X014009Y019463D01*
X013927Y019431D01*
X013843Y019401D01*
X013759Y019376D01*
X013673Y019354D01*
X013587Y019337D01*
X013499Y019323D01*
X013411Y019313D01*
X013323Y019307D01*
X013235Y019305D01*
X013147Y019307D01*
X013059Y019313D01*
X012971Y019323D01*
X012883Y019337D01*
X012797Y019354D01*
X012711Y019376D01*
X012627Y019401D01*
X012543Y019431D01*
X012461Y019463D01*
X012381Y019500D01*
X012302Y019540D01*
X012225Y019584D01*
X012150Y019631D01*
X012078Y019681D01*
X012007Y019735D01*
X011940Y019791D01*
X011874Y019851D01*
X011812Y019913D01*
X011752Y019979D01*
X011696Y020046D01*
X011642Y020117D01*
X011592Y020189D01*
X011545Y020264D01*
X011501Y020341D01*
X011461Y020420D01*
X011424Y020500D01*
X011392Y020582D01*
X011362Y020666D01*
X011337Y020750D01*
X011315Y020836D01*
X011298Y020922D01*
X011284Y021010D01*
X011274Y021098D01*
X011268Y021186D01*
X011266Y021274D01*
X011801Y023322D02*
X015283Y023322D01*
X016258Y014711D02*
X016183Y014636D01*
X016183Y014561D01*
X016258Y014486D01*
X016408Y014486D01*
X016483Y014411D01*
X016483Y014336D01*
X016408Y014261D01*
X016258Y014261D01*
X016183Y014336D01*
X016258Y014711D02*
X016408Y014711D01*
X016483Y014636D01*
X016793Y014711D02*
X016943Y014711D01*
X016868Y014711D02*
X016868Y014336D01*
X016793Y014261D01*
X016718Y014261D01*
X016643Y014336D01*
X017104Y014486D02*
X017404Y014486D01*
X017329Y014261D02*
X017329Y014711D01*
X017104Y014486D01*
X016742Y012667D02*
X016817Y012592D01*
X016817Y012442D01*
X016742Y012367D01*
X016592Y012517D02*
X016592Y012592D01*
X016667Y012667D01*
X016742Y012667D01*
X016592Y012592D02*
X016517Y012667D01*
X016442Y012667D01*
X016367Y012592D01*
X016367Y012442D01*
X016442Y012367D01*
X016367Y012207D02*
X016367Y012057D01*
X016367Y012132D02*
X016742Y012132D01*
X016817Y012057D01*
X016817Y011982D01*
X016742Y011906D01*
X016742Y011746D02*
X016817Y011671D01*
X016817Y011521D01*
X016742Y011446D01*
X016592Y011521D02*
X016592Y011671D01*
X016667Y011746D01*
X016742Y011746D01*
X016592Y011521D02*
X016517Y011446D01*
X016442Y011446D01*
X016367Y011521D01*
X016367Y011671D01*
X016442Y011746D01*
X013080Y011052D02*
X013080Y011032D01*
X013703Y006595D02*
X010221Y006595D01*
X009608Y005982D01*
X009608Y003086D01*
X010193Y002500D01*
X013703Y002500D01*
X009686Y004548D02*
X009688Y004636D01*
X009694Y004724D01*
X009704Y004812D01*
X009718Y004900D01*
X009735Y004986D01*
X009757Y005072D01*
X009782Y005156D01*
X009812Y005240D01*
X009844Y005322D01*
X009881Y005402D01*
X009921Y005481D01*
X009965Y005558D01*
X010012Y005633D01*
X010062Y005705D01*
X010116Y005776D01*
X010172Y005843D01*
X010232Y005909D01*
X010294Y005971D01*
X010360Y006031D01*
X010427Y006087D01*
X010498Y006141D01*
X010570Y006191D01*
X010645Y006238D01*
X010722Y006282D01*
X010801Y006322D01*
X010881Y006359D01*
X010963Y006391D01*
X011047Y006421D01*
X011131Y006446D01*
X011217Y006468D01*
X011303Y006485D01*
X011391Y006499D01*
X011479Y006509D01*
X011567Y006515D01*
X011655Y006517D01*
X011743Y006515D01*
X011831Y006509D01*
X011919Y006499D01*
X012007Y006485D01*
X012093Y006468D01*
X012179Y006446D01*
X012263Y006421D01*
X012347Y006391D01*
X012429Y006359D01*
X012509Y006322D01*
X012588Y006282D01*
X012665Y006238D01*
X012740Y006191D01*
X012812Y006141D01*
X012883Y006087D01*
X012950Y006031D01*
X013016Y005971D01*
X013078Y005909D01*
X013138Y005843D01*
X013194Y005776D01*
X013248Y005705D01*
X013298Y005633D01*
X013345Y005558D01*
X013389Y005481D01*
X013429Y005402D01*
X013466Y005322D01*
X013498Y005240D01*
X013528Y005156D01*
X013553Y005072D01*
X013575Y004986D01*
X013592Y004900D01*
X013606Y004812D01*
X013616Y004724D01*
X013622Y004636D01*
X013624Y004548D01*
X013622Y004460D01*
X013616Y004372D01*
X013606Y004284D01*
X013592Y004196D01*
X013575Y004110D01*
X013553Y004024D01*
X013528Y003940D01*
X013498Y003856D01*
X013466Y003774D01*
X013429Y003694D01*
X013389Y003615D01*
X013345Y003538D01*
X013298Y003463D01*
X013248Y003391D01*
X013194Y003320D01*
X013138Y003253D01*
X013078Y003187D01*
X013016Y003125D01*
X012950Y003065D01*
X012883Y003009D01*
X012812Y002955D01*
X012740Y002905D01*
X012665Y002858D01*
X012588Y002814D01*
X012509Y002774D01*
X012429Y002737D01*
X012347Y002705D01*
X012263Y002675D01*
X012179Y002650D01*
X012093Y002628D01*
X012007Y002611D01*
X011919Y002597D01*
X011831Y002587D01*
X011743Y002581D01*
X011655Y002579D01*
X011567Y002581D01*
X011479Y002587D01*
X011391Y002597D01*
X011303Y002611D01*
X011217Y002628D01*
X011131Y002650D01*
X011047Y002675D01*
X010963Y002705D01*
X010881Y002737D01*
X010801Y002774D01*
X010722Y002814D01*
X010645Y002858D01*
X010570Y002905D01*
X010498Y002955D01*
X010427Y003009D01*
X010360Y003065D01*
X010294Y003125D01*
X010232Y003187D01*
X010172Y003253D01*
X010116Y003320D01*
X010062Y003391D01*
X010012Y003463D01*
X009965Y003538D01*
X009921Y003615D01*
X009881Y003694D01*
X009844Y003774D01*
X009812Y003856D01*
X009782Y003940D01*
X009757Y004024D01*
X009735Y004110D01*
X009718Y004196D01*
X009704Y004284D01*
X009694Y004372D01*
X009688Y004460D01*
X009686Y004548D01*
X008618Y004805D02*
X007648Y004805D01*
X007648Y005905D01*
X007658Y005905D02*
X008618Y005905D01*
X008618Y004805D01*
X007407Y004795D02*
X006437Y004795D01*
X006437Y005895D01*
X006447Y005895D02*
X007407Y005895D01*
X007407Y004795D01*
X006097Y004786D02*
X006097Y005886D01*
X005137Y005886D01*
X005127Y005886D02*
X005127Y004786D01*
X006097Y004786D01*
X004787Y004777D02*
X003817Y004777D01*
X003817Y005877D01*
X003827Y005877D02*
X004787Y005877D01*
X004787Y004777D01*
X004739Y003328D02*
X003779Y003328D01*
X003769Y003328D02*
X003769Y002228D01*
X004739Y002228D01*
X004739Y003328D01*
X004910Y003328D02*
X004910Y002228D01*
X005880Y002228D01*
X005880Y003328D01*
X004920Y003328D01*
X006031Y003318D02*
X006031Y002218D01*
X007001Y002218D01*
X007001Y003318D01*
X006041Y003318D01*
X007181Y003318D02*
X007181Y002218D01*
X008151Y002218D01*
X008151Y003318D01*
X007191Y003318D01*
X006107Y009240D02*
X003121Y009240D01*
X002727Y009634D01*
X002727Y012641D01*
X002727Y012685D02*
X003318Y013276D01*
X003342Y013256D02*
X006184Y013256D01*
X006656Y012784D01*
X006664Y012784D01*
X006664Y009797D01*
X006662Y009751D01*
X006656Y009705D01*
X006647Y009660D01*
X006634Y009616D01*
X006617Y009573D01*
X006597Y009532D01*
X006573Y009492D01*
X006547Y009455D01*
X006517Y009420D01*
X006484Y009387D01*
X006449Y009357D01*
X006412Y009331D01*
X006372Y009307D01*
X006331Y009287D01*
X006288Y009270D01*
X006244Y009257D01*
X006199Y009248D01*
X006153Y009242D01*
X006107Y009240D01*
X004895Y016401D02*
X001908Y016401D01*
X001515Y016794D01*
X001515Y019801D01*
X001515Y019845D02*
X002105Y020436D01*
X002130Y020416D02*
X004971Y020416D01*
X005444Y019944D01*
X005452Y019944D01*
X005452Y016957D01*
X005450Y016911D01*
X005444Y016865D01*
X005435Y016820D01*
X005422Y016776D01*
X005405Y016733D01*
X005385Y016692D01*
X005361Y016652D01*
X005335Y016615D01*
X005305Y016580D01*
X005272Y016547D01*
X005237Y016517D01*
X005200Y016491D01*
X005160Y016467D01*
X005119Y016447D01*
X005076Y016430D01*
X005032Y016417D01*
X004987Y016408D01*
X004941Y016402D01*
X004895Y016400D01*
X003020Y021074D02*
X003095Y021150D01*
X003095Y021300D01*
X003020Y021375D01*
X002944Y021375D01*
X002869Y021300D01*
X002869Y021150D01*
X002794Y021074D01*
X002719Y021074D01*
X002644Y021150D01*
X002644Y021300D01*
X002719Y021375D01*
X002644Y021685D02*
X002644Y021835D01*
X002644Y021760D02*
X003020Y021760D01*
X003095Y021685D01*
X003095Y021610D01*
X003020Y021535D01*
X003095Y021995D02*
X003095Y022296D01*
X003095Y022145D02*
X002644Y022145D01*
X002794Y021995D01*
X029654Y017887D02*
X029654Y017737D01*
X029729Y017662D01*
X029654Y017502D02*
X029654Y017352D01*
X029654Y017427D02*
X030030Y017427D01*
X030105Y017352D01*
X030105Y017277D01*
X030030Y017202D01*
X030030Y017042D02*
X029955Y017042D01*
X029880Y016967D01*
X029880Y016816D01*
X029805Y016741D01*
X029729Y016741D01*
X029654Y016816D01*
X029654Y016967D01*
X029729Y017042D01*
X030030Y017042D02*
X030105Y016967D01*
X030105Y016816D01*
X030030Y016741D01*
X030105Y017662D02*
X029805Y017962D01*
X029729Y017962D01*
X029654Y017887D01*
X030105Y017962D02*
X030105Y017662D01*
D13*
X013739Y021599D02*
X013739Y021722D01*
X013677Y021784D01*
X013739Y021905D02*
X013739Y022152D01*
X013739Y022029D02*
X013368Y022029D01*
X013492Y021905D01*
X013430Y021784D02*
X013368Y021722D01*
X013368Y021599D01*
X013430Y021537D01*
X013677Y021537D01*
X013739Y021599D01*
X012434Y015958D02*
X012289Y015958D01*
X012289Y015668D01*
X012434Y015668D01*
X012482Y015716D01*
X012482Y015910D01*
X012434Y015958D01*
X012188Y015958D02*
X012188Y015668D01*
X011994Y015958D01*
X011994Y015668D01*
X011893Y015716D02*
X011893Y015813D01*
X011796Y015813D01*
X011700Y015716D02*
X011748Y015668D01*
X011845Y015668D01*
X011893Y015716D01*
X011700Y015716D02*
X011700Y015910D01*
X011748Y015958D01*
X011845Y015958D01*
X011893Y015910D01*
X011598Y015910D02*
X011550Y015958D01*
X011405Y015958D01*
X011405Y015668D01*
X011405Y015765D02*
X011550Y015765D01*
X011598Y015813D01*
X011598Y015910D01*
X008408Y015899D02*
X008408Y015609D01*
X008214Y015899D01*
X008214Y015609D01*
X008114Y015609D02*
X008018Y015609D01*
X008066Y015609D02*
X008066Y015899D01*
X008018Y015899D02*
X008114Y015899D01*
X007916Y015899D02*
X007916Y015706D01*
X007820Y015609D01*
X007723Y015706D01*
X007723Y015899D01*
X006983Y013405D02*
X006983Y013211D01*
X006789Y013405D01*
X006741Y013405D01*
X006692Y013356D01*
X006692Y013260D01*
X006741Y013211D01*
X006692Y013110D02*
X006983Y013110D01*
X006886Y013013D01*
X006983Y012917D01*
X006692Y012917D01*
X006741Y012815D02*
X006692Y012767D01*
X006692Y012670D01*
X006741Y012622D01*
X006789Y012622D01*
X006838Y012670D01*
X006838Y012767D01*
X006886Y012815D01*
X006934Y012815D01*
X006983Y012767D01*
X006983Y012670D01*
X006934Y012622D01*
X007799Y009242D02*
X007751Y009193D01*
X007751Y009145D01*
X007799Y009097D01*
X007896Y009097D01*
X007944Y009048D01*
X007944Y009000D01*
X007896Y008951D01*
X007799Y008951D01*
X007751Y009000D01*
X007799Y009242D02*
X007896Y009242D01*
X007944Y009193D01*
X008045Y009242D02*
X008045Y008951D01*
X008142Y009048D01*
X008239Y008951D01*
X008239Y009242D01*
X008340Y009145D02*
X008437Y009242D01*
X008437Y008951D01*
X008340Y008951D02*
X008534Y008951D01*
X009559Y008991D02*
X009752Y008991D01*
X009656Y008991D02*
X009656Y009281D01*
X009853Y009232D02*
X009853Y008991D01*
X010047Y008991D02*
X010047Y009232D01*
X009999Y009281D01*
X009902Y009281D01*
X009853Y009232D01*
X010148Y009232D02*
X010148Y009039D01*
X010196Y008991D01*
X010293Y008991D01*
X010342Y009039D01*
X010342Y009232D01*
X010293Y009281D01*
X010196Y009281D01*
X010148Y009232D01*
X010443Y009184D02*
X010443Y008991D01*
X010443Y009184D02*
X010539Y009281D01*
X010636Y009184D01*
X010636Y008991D01*
X011484Y009014D02*
X011484Y009305D01*
X011629Y009305D01*
X011677Y009256D01*
X011677Y009160D01*
X011629Y009111D01*
X011484Y009111D01*
X011778Y009063D02*
X011778Y009256D01*
X011827Y009305D01*
X011923Y009305D01*
X011972Y009256D01*
X011972Y009160D02*
X011875Y009160D01*
X011972Y009160D02*
X011972Y009063D01*
X011923Y009014D01*
X011827Y009014D01*
X011778Y009063D01*
X012073Y009014D02*
X012073Y009305D01*
X012266Y009014D01*
X012266Y009305D01*
X012368Y009305D02*
X012513Y009305D01*
X012561Y009256D01*
X012561Y009063D01*
X012513Y009014D01*
X012368Y009014D01*
X012368Y009305D01*
X012097Y005425D02*
X012159Y005364D01*
X012159Y005240D01*
X012097Y005179D01*
X012097Y005057D02*
X012159Y004995D01*
X012159Y004872D01*
X012097Y004810D01*
X011850Y004810D01*
X011788Y004872D01*
X011788Y004995D01*
X011850Y005057D01*
X011788Y005179D02*
X011973Y005179D01*
X011912Y005302D01*
X011912Y005364D01*
X011973Y005425D01*
X012097Y005425D01*
X011788Y005425D02*
X011788Y005179D01*
D14*
X015293Y006507D02*
X015600Y006507D01*
X015753Y006507D02*
X016060Y006814D01*
X016060Y006891D01*
X015984Y006968D01*
X015830Y006968D01*
X015753Y006891D01*
X015446Y006968D02*
X015446Y006507D01*
X015753Y006507D02*
X016060Y006507D01*
X015446Y006968D02*
X015293Y006814D01*
X015934Y010154D02*
X016241Y010154D01*
X016088Y010154D02*
X016088Y010614D01*
X015934Y010461D01*
X015562Y010878D02*
X015102Y010878D01*
X015102Y011108D01*
X015178Y011185D01*
X015332Y011185D01*
X015409Y011108D01*
X015409Y010878D01*
X015409Y011031D02*
X015562Y011185D01*
X015485Y011338D02*
X015562Y011415D01*
X015562Y011569D01*
X015485Y011645D01*
X015409Y011645D01*
X015332Y011569D01*
X015332Y011338D01*
X015485Y011338D01*
X015332Y011338D02*
X015178Y011492D01*
X015102Y011645D01*
X013769Y011611D02*
X013769Y011918D01*
X013769Y011764D02*
X013309Y011764D01*
X013462Y011611D01*
X013309Y011457D02*
X013692Y011457D01*
X013769Y011381D01*
X013769Y011227D01*
X013692Y011150D01*
X013309Y011150D01*
X015104Y013655D02*
X015104Y013885D01*
X015180Y013962D01*
X015334Y013962D01*
X015411Y013885D01*
X015411Y013655D01*
X015564Y013655D02*
X015104Y013655D01*
X015411Y013808D02*
X015564Y013962D01*
X015564Y014115D02*
X015257Y014422D01*
X015180Y014422D01*
X015104Y014346D01*
X015104Y014192D01*
X015180Y014115D01*
X015564Y014115D02*
X015564Y014422D01*
X013185Y015794D02*
X012725Y015794D01*
X012725Y016024D01*
X012802Y016101D01*
X012955Y016101D01*
X013032Y016024D01*
X013032Y015794D01*
X013032Y015948D02*
X013185Y016101D01*
X013185Y016254D02*
X013185Y016561D01*
X013185Y016408D02*
X012725Y016408D01*
X012878Y016254D01*
X010863Y016645D02*
X010786Y016568D01*
X010633Y016568D01*
X010556Y016645D01*
X010403Y016568D02*
X010249Y016722D01*
X010326Y016722D02*
X010096Y016722D01*
X010096Y016568D02*
X010096Y017029D01*
X010326Y017029D01*
X010403Y016952D01*
X010403Y016798D01*
X010326Y016722D01*
X010556Y016952D02*
X010633Y017029D01*
X010786Y017029D01*
X010863Y016952D01*
X010863Y016875D01*
X010786Y016798D01*
X010863Y016722D01*
X010863Y016645D01*
X010786Y016798D02*
X010710Y016798D01*
X009726Y016759D02*
X009726Y016682D01*
X009419Y016375D01*
X009726Y016375D01*
X009726Y016759D02*
X009649Y016836D01*
X009495Y016836D01*
X009419Y016759D01*
X009265Y016759D02*
X009189Y016836D01*
X009035Y016836D01*
X008958Y016759D01*
X008958Y016452D01*
X009035Y016375D01*
X009189Y016375D01*
X009265Y016452D01*
X004014Y011644D02*
X003938Y011721D01*
X003784Y011721D01*
X003707Y011644D01*
X004014Y011644D02*
X004014Y011567D01*
X003707Y011260D01*
X004014Y011260D01*
X003554Y011260D02*
X003247Y011260D01*
X003247Y011721D01*
X002802Y018421D02*
X002495Y018421D01*
X002342Y018421D02*
X002035Y018421D01*
X002035Y018881D01*
X002495Y018728D02*
X002649Y018881D01*
X002649Y018421D01*
X004125Y032375D02*
X004432Y032375D01*
X004278Y032375D02*
X004278Y032835D01*
X004125Y032682D01*
X004202Y034625D02*
X004125Y034702D01*
X004202Y034625D02*
X004355Y034625D01*
X004432Y034702D01*
X004432Y034855D01*
X004355Y034932D01*
X004278Y034932D01*
X004125Y034855D01*
X004125Y035085D01*
X004432Y035085D01*
X004585Y035009D02*
X004662Y035085D01*
X004816Y035085D01*
X004892Y035009D01*
X004892Y034932D01*
X004816Y034855D01*
X004892Y034778D01*
X004892Y034702D01*
X004816Y034625D01*
X004662Y034625D01*
X004585Y034702D01*
X004739Y034855D02*
X004816Y034855D01*
X017269Y011756D02*
X017422Y011756D01*
X017346Y011756D02*
X017346Y011372D01*
X017269Y011295D01*
X017192Y011295D01*
X017115Y011372D01*
X017576Y011372D02*
X017653Y011295D01*
X017806Y011295D01*
X017883Y011372D01*
X017883Y011526D01*
X017806Y011602D01*
X017729Y011602D01*
X017576Y011526D01*
X017576Y011756D01*
X017883Y011756D01*
X021009Y008212D02*
X021009Y007752D01*
X020856Y007752D02*
X021163Y007752D01*
X021316Y007752D02*
X021623Y008059D01*
X021623Y008136D01*
X021546Y008212D01*
X021393Y008212D01*
X021316Y008136D01*
X021009Y008212D02*
X020856Y008059D01*
X021316Y007752D02*
X021623Y007752D01*
X020828Y004566D02*
X020828Y004106D01*
X020675Y004106D02*
X020981Y004106D01*
X020675Y004413D02*
X020828Y004566D01*
X019724Y003424D02*
X019493Y003194D01*
X019800Y003194D01*
X019724Y002964D02*
X019724Y003424D01*
X019340Y003424D02*
X019187Y003424D01*
X019263Y003424D02*
X019263Y003041D01*
X019187Y002964D01*
X019110Y002964D01*
X019033Y003041D01*
X024209Y002948D02*
X024209Y003101D01*
X024286Y003178D01*
X024362Y003178D01*
X024439Y003101D01*
X024516Y003178D01*
X024592Y003178D01*
X024669Y003101D01*
X024669Y002948D01*
X024592Y002871D01*
X024439Y003024D02*
X024439Y003101D01*
X024286Y002871D02*
X024209Y002948D01*
X024209Y002717D02*
X024209Y002564D01*
X024209Y002641D02*
X024592Y002641D01*
X024669Y002564D01*
X024669Y002487D01*
X024592Y002410D01*
X028511Y016838D02*
X028511Y017068D01*
X028588Y017145D01*
X028741Y017145D01*
X028818Y017068D01*
X028818Y016838D01*
X028818Y016991D02*
X028972Y017145D01*
X028895Y017298D02*
X028972Y017375D01*
X028972Y017528D01*
X028895Y017605D01*
X028741Y017605D01*
X028665Y017528D01*
X028665Y017452D01*
X028741Y017298D01*
X028511Y017298D01*
X028511Y017605D01*
X028511Y016838D02*
X028972Y016838D01*
X030700Y027648D02*
X030546Y027802D01*
X031006Y027802D01*
X031006Y027955D02*
X031006Y027648D01*
X029788Y028829D02*
X029865Y028906D01*
X029865Y028983D01*
X029788Y029060D01*
X029404Y029060D01*
X029404Y029136D02*
X029404Y028983D01*
X029481Y029290D02*
X029404Y029366D01*
X029404Y029520D01*
X029481Y029597D01*
X029558Y029597D01*
X029865Y029290D01*
X029865Y029597D01*
X032987Y030554D02*
X033064Y030400D01*
X033217Y030247D01*
X033217Y030477D01*
X033294Y030554D01*
X033371Y030554D01*
X033447Y030477D01*
X033447Y030323D01*
X033371Y030247D01*
X033217Y030247D01*
D15*
X017585Y032102D02*
X017548Y032138D01*
X017475Y032138D01*
X017438Y032175D01*
X017475Y032212D01*
X017585Y032212D01*
X017585Y032102D02*
X017548Y032065D01*
X017438Y032065D01*
X017364Y032065D02*
X017364Y032212D01*
X017364Y032065D02*
X017254Y032065D01*
X017217Y032102D01*
X017217Y032212D01*
X017143Y032212D02*
X017106Y032175D01*
X016996Y032175D01*
X017106Y032175D02*
X017143Y032138D01*
X017143Y032102D01*
X017106Y032065D01*
X016996Y032065D01*
X016996Y032285D01*
X017106Y032285D01*
X017143Y032248D01*
X017143Y032212D01*
X016701Y032212D02*
X016628Y032212D01*
X016664Y032248D02*
X016664Y032102D01*
X016701Y032065D01*
X016554Y032065D02*
X016480Y032065D01*
X016517Y032065D02*
X016517Y032212D01*
X016480Y032212D01*
X016517Y032285D02*
X016517Y032322D01*
X016406Y032285D02*
X016259Y032138D01*
X016296Y032175D02*
X016406Y032065D01*
X016259Y032065D02*
X016259Y032285D01*
X015964Y032212D02*
X015891Y032212D01*
X015928Y032248D02*
X015928Y032102D01*
X015964Y032065D01*
X015817Y032065D02*
X015707Y032065D01*
X015670Y032102D01*
X015707Y032138D01*
X015817Y032138D01*
X015817Y032175D02*
X015817Y032065D01*
X015817Y032175D02*
X015780Y032212D01*
X015707Y032212D01*
X015596Y032248D02*
X015559Y032285D01*
X015486Y032285D01*
X015449Y032248D01*
X015449Y032212D01*
X015486Y032175D01*
X015559Y032175D01*
X015596Y032138D01*
X015596Y032102D01*
X015559Y032065D01*
X015486Y032065D01*
X015449Y032102D01*
X015375Y032138D02*
X015228Y032138D01*
X015228Y032102D02*
X015228Y032175D01*
X015265Y032212D01*
X015338Y032212D01*
X015375Y032175D01*
X015375Y032138D01*
X015338Y032065D02*
X015265Y032065D01*
X015228Y032102D01*
X015154Y032102D02*
X015154Y032175D01*
X015117Y032212D01*
X015007Y032212D01*
X015007Y032285D02*
X015007Y032065D01*
X015117Y032065D01*
X015154Y032102D01*
X014933Y032065D02*
X014933Y032212D01*
X014933Y032065D02*
X014823Y032065D01*
X014786Y032102D01*
X014786Y032212D01*
X014712Y032248D02*
X014675Y032285D01*
X014602Y032285D01*
X014565Y032248D01*
X014565Y032102D01*
X014602Y032065D01*
X014675Y032065D01*
X014712Y032102D01*
X010879Y009596D02*
X010916Y009559D01*
X010916Y009522D01*
X010879Y009485D01*
X010916Y009449D01*
X010916Y009412D01*
X010879Y009375D01*
X010806Y009375D01*
X010769Y009412D01*
X010695Y009412D02*
X010658Y009375D01*
X010585Y009375D01*
X010548Y009412D01*
X010548Y009559D01*
X010585Y009596D01*
X010658Y009596D01*
X010695Y009559D01*
X010769Y009559D02*
X010806Y009596D01*
X010879Y009596D01*
X010879Y009485D02*
X010843Y009485D01*
X010890Y008332D02*
X010779Y008222D01*
X010926Y008222D01*
X010890Y008112D02*
X010890Y008332D01*
X010705Y008295D02*
X010669Y008332D01*
X010595Y008332D01*
X010559Y008295D01*
X010559Y008148D01*
X010595Y008112D01*
X010669Y008112D01*
X010705Y008148D01*
X008215Y008787D02*
X008178Y008750D01*
X008105Y008750D01*
X008068Y008787D01*
X007994Y008750D02*
X007847Y008750D01*
X007847Y008970D01*
X008068Y008934D02*
X008105Y008970D01*
X008178Y008970D01*
X008215Y008934D01*
X008215Y008897D01*
X008178Y008860D01*
X008215Y008823D01*
X008215Y008787D01*
X008178Y008860D02*
X008142Y008860D01*
X008066Y006225D02*
X007919Y006225D01*
X007919Y006115D01*
X007993Y006152D01*
X008030Y006152D01*
X008066Y006115D01*
X008066Y006041D01*
X008030Y006005D01*
X007956Y006005D01*
X007919Y006041D01*
X007845Y006041D02*
X007845Y006188D01*
X007809Y006225D01*
X007735Y006225D01*
X007698Y006188D01*
X007698Y006041D01*
X007735Y006005D01*
X007809Y006005D01*
X007845Y006041D01*
X007845Y006005D02*
X007772Y006078D01*
X006854Y006179D02*
X006708Y006032D01*
X006708Y005995D01*
X006633Y005995D02*
X006560Y006069D01*
X006633Y006032D02*
X006597Y005995D01*
X006523Y005995D01*
X006487Y006032D01*
X006487Y006179D01*
X006523Y006216D01*
X006597Y006216D01*
X006633Y006179D01*
X006633Y006032D01*
X006708Y006216D02*
X006854Y006216D01*
X006854Y006179D01*
X005545Y005986D02*
X005398Y005986D01*
X005472Y005986D02*
X005472Y006206D01*
X005398Y006133D01*
X005324Y006170D02*
X005324Y006023D01*
X005287Y005986D01*
X005214Y005986D01*
X005177Y006023D01*
X005177Y006170D01*
X005214Y006206D01*
X005287Y006206D01*
X005324Y006170D01*
X005251Y006059D02*
X005324Y005986D01*
X004234Y006014D02*
X004198Y005977D01*
X004124Y005977D01*
X004088Y006014D01*
X004013Y006014D02*
X003977Y005977D01*
X003903Y005977D01*
X003867Y006014D01*
X003867Y006161D01*
X003903Y006197D01*
X003977Y006197D01*
X004013Y006161D01*
X004013Y006014D01*
X004013Y005977D02*
X003940Y006051D01*
X004088Y006161D02*
X004124Y006197D01*
X004198Y006197D01*
X004234Y006161D01*
X004234Y006124D01*
X004198Y006087D01*
X004234Y006051D01*
X004234Y006014D01*
X004198Y006087D02*
X004161Y006087D01*
X004150Y003648D02*
X004077Y003648D01*
X004040Y003612D01*
X003966Y003612D02*
X003966Y003465D01*
X003929Y003428D01*
X003856Y003428D01*
X003819Y003465D01*
X003819Y003612D01*
X003856Y003648D01*
X003929Y003648D01*
X003966Y003612D01*
X003893Y003502D02*
X003966Y003428D01*
X004040Y003428D02*
X004187Y003575D01*
X004187Y003612D01*
X004150Y003648D01*
X004187Y003428D02*
X004040Y003428D01*
X004960Y003465D02*
X004997Y003428D01*
X005070Y003428D01*
X005107Y003465D01*
X005107Y003611D01*
X005070Y003648D01*
X004997Y003648D01*
X004960Y003611D01*
X004960Y003465D01*
X005034Y003501D02*
X005107Y003428D01*
X005181Y003538D02*
X005328Y003538D01*
X005291Y003428D02*
X005291Y003648D01*
X005181Y003538D01*
X006081Y003602D02*
X006118Y003638D01*
X006192Y003638D01*
X006228Y003602D01*
X006228Y003455D01*
X006192Y003418D01*
X006118Y003418D01*
X006081Y003455D01*
X006081Y003602D01*
X006155Y003492D02*
X006228Y003418D01*
X006302Y003455D02*
X006339Y003418D01*
X006413Y003418D01*
X006449Y003455D01*
X006449Y003492D01*
X006413Y003528D01*
X006302Y003528D01*
X006302Y003455D01*
X006302Y003528D02*
X006376Y003602D01*
X006449Y003638D01*
X007231Y003602D02*
X007268Y003638D01*
X007342Y003638D01*
X007378Y003602D01*
X007378Y003455D01*
X007342Y003418D01*
X007268Y003418D01*
X007231Y003455D01*
X007231Y003602D01*
X007305Y003492D02*
X007378Y003418D01*
X007452Y003455D02*
X007452Y003492D01*
X007489Y003528D01*
X007563Y003528D01*
X007599Y003492D01*
X007599Y003455D01*
X007563Y003418D01*
X007489Y003418D01*
X007452Y003455D01*
X007489Y003528D02*
X007452Y003565D01*
X007452Y003602D01*
X007489Y003638D01*
X007563Y003638D01*
X007599Y003602D01*
X007599Y003565D01*
X007563Y003528D01*
D16*
X013703Y002500D02*
X013703Y006595D01*
X015283Y019227D02*
X015283Y023322D01*
D17*
X009682Y018056D02*
X009682Y017072D01*
X009485Y017072D01*
X009485Y018017D01*
X009682Y018056D02*
X008619Y018056D01*
X008619Y017072D01*
X009485Y017072D01*
X008619Y017072D02*
X008422Y017072D01*
X008422Y018056D01*
X008619Y018056D01*
X016072Y010715D02*
X016435Y011078D01*
X016940Y011078D01*
X017334Y011078D02*
X017839Y011078D01*
X018232Y011078D02*
X018738Y011078D01*
X019131Y011078D02*
X019636Y011078D01*
X020030Y011078D02*
X020535Y011078D01*
X020954Y010660D01*
X020954Y007456D02*
X020468Y007456D01*
X020472Y007263D02*
X020957Y007263D01*
X020078Y007263D02*
X019593Y007263D01*
X019589Y007456D02*
X020074Y007456D01*
X019195Y007456D02*
X018710Y007456D01*
X018713Y007263D02*
X019199Y007263D01*
X018320Y007263D02*
X017834Y007263D01*
X017830Y007456D02*
X018316Y007456D01*
X017437Y007456D02*
X016951Y007456D01*
X016955Y007263D02*
X017440Y007263D01*
X016561Y007263D02*
X016076Y007263D01*
X016072Y007456D02*
X016557Y007456D01*
X016076Y004059D02*
X016494Y003641D01*
X016999Y003641D01*
X017393Y003641D02*
X017898Y003641D01*
X018292Y003641D02*
X018797Y003641D01*
X019191Y003641D02*
X019696Y003641D01*
X020089Y003641D02*
X020595Y003641D01*
X020957Y004004D01*
X009747Y006693D02*
X009747Y008661D01*
X007778Y008661D01*
X007778Y006693D01*
X009747Y006693D01*
X009648Y007212D02*
X009648Y008086D01*
X009172Y008563D01*
X008243Y008563D01*
X007877Y008197D01*
X007877Y007264D01*
X008350Y006791D01*
X009227Y006791D01*
X009648Y007212D01*
X030445Y027786D02*
X030082Y028149D01*
X030082Y028821D01*
X030082Y029215D02*
X030082Y029887D01*
X030461Y030227D01*
X033704Y030187D02*
X033704Y027786D01*
D18*
X029480Y018098D02*
X028880Y018098D01*
X028863Y018096D01*
X028846Y018092D01*
X028830Y018085D01*
X028816Y018075D01*
X028803Y018062D01*
X028793Y018048D01*
X028786Y018032D01*
X028782Y018015D01*
X028780Y017998D01*
X028780Y016898D01*
X028782Y016881D01*
X028786Y016864D01*
X028793Y016848D01*
X028803Y016834D01*
X028816Y016821D01*
X028830Y016811D01*
X028846Y016804D01*
X028863Y016800D01*
X028880Y016798D01*
X029480Y016798D01*
X029497Y016800D01*
X029514Y016804D01*
X029530Y016811D01*
X029544Y016821D01*
X029557Y016834D01*
X029567Y016848D01*
X029574Y016864D01*
X029578Y016881D01*
X029580Y016898D01*
X029580Y017998D01*
X029578Y018015D01*
X029574Y018032D01*
X029567Y018048D01*
X029557Y018062D01*
X029544Y018075D01*
X029530Y018085D01*
X029514Y018092D01*
X029497Y018096D01*
X029480Y018098D01*
X017458Y014086D02*
X017458Y013486D01*
X017456Y013469D01*
X017452Y013452D01*
X017445Y013436D01*
X017435Y013422D01*
X017422Y013409D01*
X017408Y013399D01*
X017392Y013392D01*
X017375Y013388D01*
X017358Y013386D01*
X016258Y013386D01*
X016241Y013388D01*
X016224Y013392D01*
X016208Y013399D01*
X016194Y013409D01*
X016181Y013422D01*
X016171Y013436D01*
X016164Y013452D01*
X016160Y013469D01*
X016158Y013486D01*
X016158Y014086D01*
X016160Y014103D01*
X016164Y014120D01*
X016171Y014136D01*
X016181Y014150D01*
X016194Y014163D01*
X016208Y014173D01*
X016224Y014180D01*
X016241Y014184D01*
X016258Y014186D01*
X017358Y014186D01*
X017375Y014184D01*
X017392Y014180D01*
X017408Y014173D01*
X017422Y014163D01*
X017435Y014150D01*
X017445Y014136D01*
X017452Y014120D01*
X017456Y014103D01*
X017458Y014086D01*
X016192Y012802D02*
X015592Y012802D01*
X015575Y012800D01*
X015558Y012796D01*
X015542Y012789D01*
X015528Y012779D01*
X015515Y012766D01*
X015505Y012752D01*
X015498Y012736D01*
X015494Y012719D01*
X015492Y012702D01*
X015492Y011602D01*
X015494Y011585D01*
X015498Y011568D01*
X015505Y011552D01*
X015515Y011538D01*
X015528Y011525D01*
X015542Y011515D01*
X015558Y011508D01*
X015575Y011504D01*
X015592Y011502D01*
X016192Y011502D01*
X016209Y011504D01*
X016226Y011508D01*
X016242Y011515D01*
X016256Y011525D01*
X016269Y011538D01*
X016279Y011552D01*
X016286Y011568D01*
X016290Y011585D01*
X016292Y011602D01*
X016292Y012702D01*
X016290Y012719D01*
X016286Y012736D01*
X016279Y012752D01*
X016269Y012766D01*
X016256Y012779D01*
X016242Y012789D01*
X016226Y012796D01*
X016209Y012800D01*
X016192Y012802D01*
X003970Y021149D02*
X003970Y022249D01*
X003968Y022266D01*
X003964Y022283D01*
X003957Y022299D01*
X003947Y022313D01*
X003934Y022326D01*
X003920Y022336D01*
X003904Y022343D01*
X003887Y022347D01*
X003870Y022349D01*
X003270Y022349D01*
X003253Y022347D01*
X003236Y022343D01*
X003220Y022336D01*
X003206Y022326D01*
X003193Y022313D01*
X003183Y022299D01*
X003176Y022283D01*
X003172Y022266D01*
X003170Y022249D01*
X003170Y021149D01*
X003172Y021132D01*
X003176Y021115D01*
X003183Y021099D01*
X003193Y021085D01*
X003206Y021072D01*
X003220Y021062D01*
X003236Y021055D01*
X003253Y021051D01*
X003270Y021049D01*
X003870Y021049D01*
X003887Y021051D01*
X003904Y021055D01*
X003920Y021062D01*
X003934Y021072D01*
X003947Y021085D01*
X003957Y021099D01*
X003964Y021115D01*
X003968Y021132D01*
X003970Y021149D01*
M02*
