%
M48
M72
T01C0.0080
T02C0.0400
T03C0.0433
T04C0.0630
T05C0.1250
%
T01
X7675Y8285
X8185Y8285
X8175Y8775
X7685Y8785
X7675Y9275
X8165Y9275
X8675Y9285
X9165Y9265
X9185Y9785
X8685Y9795
X8675Y8775
X9675Y9275
X10165Y9285
X10185Y9785
X10675Y9775
X10675Y9285
X11165Y9285
X11175Y9785
X11695Y9775
X11665Y9305
X12165Y9285
X12185Y8785
X12695Y8785
X12675Y9295
X12695Y9775
X12165Y9805
X12185Y10765
X12185Y11265
X12695Y11285
X12695Y10755
X11695Y11285
X11185Y11265
X10685Y11265
X10165Y11275
X9685Y11265
X9685Y11765
X10175Y11765
X9695Y12275
X9685Y12775
X9675Y13285
X10685Y13315
X11195Y13315
X11175Y12785
X11185Y12305
X10695Y12775
X12185Y12765
X12185Y12265
X12695Y12255
X12685Y12765
X12685Y13285
X12175Y13285
X9685Y9785
X8675Y10765
X8665Y11285
X8165Y11275
X8175Y10795
X7665Y10815
X7675Y11285
X7675Y10295
X7677Y12268
X8177Y12262
X8205Y12763
X8195Y13285
X7675Y13295
X7679Y12770
X8690Y12767
X8680Y12269
X8711Y13279
X12655Y8275
X16035Y8285
X16045Y8785
X16035Y9275
X16525Y9275
X16535Y8775
X17035Y8775
X17035Y9285
X17045Y9795
X17545Y9785
X18045Y9785
X18545Y9785
X18525Y9285
X18035Y9275
X17525Y9265
X16545Y8285
X16035Y10295
X16025Y10815
X16035Y11285
X16525Y11275
X16535Y10795
X17035Y10765
X17025Y11285
X17035Y12275
X17035Y12765
X16545Y12775
X16535Y12305
X16025Y12285
X16035Y12775
X16025Y13275
X16535Y13275
X17015Y13285
X18035Y13285
X18045Y12775
X18055Y12275
X18045Y11765
X18535Y11765
X18525Y11275
X18045Y11265
X19045Y11265
X19545Y11265
X20055Y11285
X20545Y11265
X20545Y10765
X21055Y10755
X21055Y11285
X21055Y12255
X21045Y12765
X20545Y12765
X20545Y12265
X20535Y13285
X21045Y13285
X19555Y13315
X19045Y13315
X19055Y12775
X19535Y12785
X19545Y12305
X19535Y9785
X19525Y9285
X19035Y9285
X19035Y9775
X20055Y9775
X20025Y9305
X20525Y9285
X20545Y8785
X21055Y8785
X21035Y9295
X21055Y9775
X20525Y9805
X21015Y8275
T02
X20605Y32855
X20605Y33855
X20605Y34855
X20605Y35855
X19605Y35855
X18605Y35855
X18605Y34855
X18605Y33855
X19605Y33855
X19605Y34855
X19605Y32855
X18605Y32855
X17605Y32855
X17605Y33855
X17605Y34855
X17605Y35855
X16605Y35855
X16605Y34855
X16605Y33855
X16605Y32855
X15605Y32855
X15605Y33855
X15605Y34855
X15605Y35855
X14605Y35855
X13605Y35855
X13605Y34855
X13605Y33855
X14605Y33855
X14605Y34855
X14605Y32855
X13605Y32855
X12605Y32855
X12605Y33855
X12605Y34855
X12605Y35855
X11605Y35855
X11605Y34855
X11605Y33855
X11605Y32855
X10605Y32855
X10605Y33855
X10605Y34855
X10605Y35855
X9605Y35855
X8605Y35855
X8605Y34855
X8605Y33855
X9605Y33855
X9605Y34855
X9605Y32855
X8605Y32855
X7605Y32855
X7605Y33855
X7605Y34855
X7605Y35855
X6605Y35855
X6605Y34855
X6605Y33855
X6605Y32855
X5605Y32855
X5605Y33855
X5605Y34855
X5605Y35855
X21605Y35855
X21605Y34855
X21605Y33855
X21605Y32855
X22605Y32855
X22605Y33855
X22605Y34855
X22605Y35855
X23605Y35855
X24605Y35855
X24605Y34855
X24605Y33855
X23605Y33855
X23605Y34855
X23605Y32855
X24605Y32855
X25605Y32855
X25605Y33855
X25605Y34855
X25605Y35855
X26605Y35855
X26605Y34855
X26605Y33855
X26605Y32855
X27605Y32855
X27605Y33855
X27605Y34855
X27605Y35855
X28605Y35855
X29605Y35855
X29605Y34855
X29605Y33855
X28605Y33855
X28605Y34855
X28605Y32855
X29605Y32855
X30605Y32855
X30605Y33855
X30605Y34855
X30605Y35855
T03
X28011Y28678
X8168Y28835
T04
X8168Y18993
X28011Y19150
T05
X2105Y2105
X33605Y2105
X32605Y35855
X3605Y35855
M30
