G75*
%MOIN*%
%OFA0B0*%
%FSLAX24Y24*%
%IPPOS*%
%LPD*%
%AMOC8*
5,1,8,0,0,1.08239X$1,22.5*
%
%ADD10R,0.0787X0.0236*%
%ADD11R,0.1260X0.0906*%
%ADD12R,0.1181X0.1890*%
%ADD13R,0.0669X0.0866*%
%ADD14C,0.0268*%
%ADD15R,0.0630X0.0710*%
%ADD16R,0.0354X0.0276*%
%ADD17R,0.0433X0.0394*%
%ADD18R,0.0300X0.0450*%
D10*
X025108Y020247D03*
X025108Y020562D03*
X025108Y020877D03*
X025108Y021192D03*
X025108Y021507D03*
X025108Y021822D03*
X025108Y022137D03*
X025108Y022452D03*
X025108Y022767D03*
X025108Y023082D03*
X025108Y023397D03*
X025108Y023711D03*
X025108Y024026D03*
X025108Y024341D03*
X025108Y024656D03*
X025108Y024971D03*
X025108Y025286D03*
X025108Y025601D03*
X025108Y027176D03*
X025108Y027491D03*
X025108Y027806D03*
X025108Y028121D03*
X025108Y028436D03*
X025108Y028751D03*
X025108Y029066D03*
X025108Y029381D03*
X028346Y029224D03*
X028346Y028909D03*
X028346Y028594D03*
X028346Y028279D03*
X028346Y027964D03*
X028346Y027649D03*
X028346Y027335D03*
X028346Y025760D03*
X028346Y025445D03*
X028346Y025130D03*
X028346Y024815D03*
X028346Y024500D03*
X028346Y024185D03*
X028346Y023870D03*
X028346Y023555D03*
X028346Y023240D03*
X028346Y022925D03*
X028346Y022610D03*
X028346Y022295D03*
X028346Y021980D03*
X028346Y021665D03*
X028346Y021350D03*
X028346Y021035D03*
X028346Y020720D03*
X028346Y020405D03*
X028346Y029539D03*
D11*
X028110Y030661D03*
X028110Y019126D03*
D12*
X008110Y020130D03*
X005669Y020130D03*
X005669Y029657D03*
X008110Y029657D03*
D13*
X016800Y016026D03*
X017800Y016026D03*
X018800Y016026D03*
X019800Y016026D03*
X020800Y016026D03*
X021800Y016026D03*
X022800Y016026D03*
X025218Y016043D03*
X026218Y016043D03*
X027218Y016043D03*
X028218Y016043D03*
X029218Y016043D03*
X030218Y016043D03*
X031218Y016043D03*
X031218Y012027D03*
X030218Y012027D03*
X029218Y012027D03*
X028218Y012027D03*
X027218Y012027D03*
X026218Y012027D03*
X025218Y012027D03*
X024218Y012027D03*
X022800Y012010D03*
X021800Y012010D03*
X020800Y012010D03*
X019800Y012010D03*
X018800Y012010D03*
X017800Y012010D03*
X016800Y012010D03*
X015800Y012010D03*
X023960Y007343D03*
X024960Y007343D03*
X025960Y007343D03*
X026960Y007343D03*
X027960Y007343D03*
X028960Y007343D03*
X029960Y007343D03*
X030960Y007343D03*
X029960Y003328D03*
X028960Y003328D03*
X027960Y003328D03*
X026960Y003328D03*
X025960Y003328D03*
X024960Y003328D03*
X023960Y003328D03*
D14*
X030760Y003029D02*
X031160Y003029D01*
X030760Y003029D02*
X030760Y003627D01*
X031160Y003627D01*
X031160Y003029D01*
X031160Y003296D02*
X030760Y003296D01*
X030760Y003563D02*
X031160Y003563D01*
X024418Y016342D02*
X024018Y016342D01*
X024418Y016342D02*
X024418Y015744D01*
X024018Y015744D01*
X024018Y016342D01*
X024018Y016011D02*
X024418Y016011D01*
X024418Y016278D02*
X024018Y016278D01*
X016000Y016325D02*
X015600Y016325D01*
X016000Y016325D02*
X016000Y015727D01*
X015600Y015727D01*
X015600Y016325D01*
X015600Y015994D02*
X016000Y015994D01*
X016000Y016261D02*
X015600Y016261D01*
D15*
X015521Y017219D03*
X016641Y017219D03*
X017738Y017181D03*
X018858Y017181D03*
X020032Y017234D03*
X021152Y017234D03*
X022144Y017245D03*
X023264Y017245D03*
X023536Y008498D03*
X024655Y008498D03*
X025832Y008489D03*
X026952Y008489D03*
X028122Y008506D03*
X029242Y008506D03*
X030356Y008540D03*
X031475Y008540D03*
D16*
X031303Y009899D03*
X031303Y010411D03*
X030011Y010386D03*
X030011Y009874D03*
X028611Y009814D03*
X028611Y010326D03*
X027220Y010312D03*
X027220Y009801D03*
X026057Y009777D03*
X026057Y010289D03*
X024678Y010297D03*
X024678Y009785D03*
X023411Y009766D03*
X023411Y010278D03*
X023101Y007533D03*
X023101Y007021D03*
D17*
X010520Y008404D03*
X010520Y009073D03*
X009665Y009060D03*
X009665Y008390D03*
X008781Y008391D03*
X008781Y009060D03*
X007880Y009059D03*
X007880Y008390D03*
X007865Y007808D03*
X007865Y007139D03*
X008754Y007114D03*
X008754Y007784D03*
X007024Y007788D03*
X007009Y008399D03*
X007009Y009069D03*
X007024Y007119D03*
D18*
X004036Y002407D03*
X004536Y002407D03*
X005036Y002407D03*
X005536Y002407D03*
X006036Y002407D03*
X006536Y002407D03*
X007036Y002407D03*
X007536Y002407D03*
X008036Y002407D03*
X008536Y002407D03*
X009367Y002414D03*
X009867Y002414D03*
X010367Y002414D03*
X010867Y002414D03*
X011367Y002414D03*
X011867Y002414D03*
X012367Y002414D03*
X012867Y002414D03*
X013367Y002414D03*
X013867Y002414D03*
X013867Y006114D03*
X013367Y006114D03*
X012867Y006114D03*
X012367Y006114D03*
X011867Y006114D03*
X011367Y006114D03*
X010867Y006114D03*
X010367Y006114D03*
X009867Y006114D03*
X009367Y006114D03*
X008536Y006107D03*
X008036Y006107D03*
X007536Y006107D03*
X007036Y006107D03*
X006536Y006107D03*
X006036Y006107D03*
X005536Y006107D03*
X005036Y006107D03*
X004536Y006107D03*
X004036Y006107D03*
M02*
