G75*
%MOIN*%
%OFA0B0*%
%FSLAX24Y24*%
%IPPOS*%
%LPD*%
%AMOC8*
5,1,8,0,0,1.08239X$1,22.5*
%
%ADD10C,0.2500*%
%ADD11R,0.0600X0.0600*%
%ADD12C,0.0600*%
%ADD13C,0.0124*%
%ADD14R,0.0248X0.0248*%
%ADD15C,0.0100*%
%ADD16C,0.0060*%
%ADD17C,0.0240*%
%ADD18C,0.0000*%
%ADD19C,0.0050*%
D10*
X002105Y002105D03*
X033605Y002105D03*
X032605Y035855D03*
X003605Y035855D03*
D11*
X005605Y034855D03*
X005605Y032855D03*
D12*
X005605Y033855D03*
X006605Y033855D03*
X006605Y034855D03*
X006605Y035855D03*
X005605Y035855D03*
X007605Y035855D03*
X007605Y034855D03*
X007605Y033855D03*
X007605Y032855D03*
X006605Y032855D03*
X008605Y032855D03*
X009605Y032855D03*
X009605Y033855D03*
X009605Y034855D03*
X008605Y034855D03*
X008605Y033855D03*
X008605Y035855D03*
X009605Y035855D03*
X010605Y035855D03*
X010605Y034855D03*
X010605Y033855D03*
X010605Y032855D03*
X011605Y032855D03*
X011605Y033855D03*
X011605Y034855D03*
X011605Y035855D03*
X012605Y035855D03*
X012605Y034855D03*
X012605Y033855D03*
X012605Y032855D03*
X013605Y032855D03*
X014605Y032855D03*
X014605Y033855D03*
X014605Y034855D03*
X013605Y034855D03*
X013605Y033855D03*
X013605Y035855D03*
X014605Y035855D03*
X015605Y035855D03*
X015605Y034855D03*
X015605Y033855D03*
X015605Y032855D03*
X016605Y032855D03*
X016605Y033855D03*
X016605Y034855D03*
X016605Y035855D03*
X017605Y035855D03*
X017605Y034855D03*
X017605Y033855D03*
X017605Y032855D03*
X018605Y032855D03*
X019605Y032855D03*
X019605Y033855D03*
X019605Y034855D03*
X018605Y034855D03*
X018605Y033855D03*
X018605Y035855D03*
X019605Y035855D03*
X020605Y035855D03*
X020605Y034855D03*
X020605Y033855D03*
X020605Y032855D03*
X021605Y032855D03*
X021605Y033855D03*
X021605Y034855D03*
X021605Y035855D03*
X022605Y035855D03*
X022605Y034855D03*
X022605Y033855D03*
X022605Y032855D03*
X023605Y032855D03*
X024605Y032855D03*
X024605Y033855D03*
X024605Y034855D03*
X023605Y034855D03*
X023605Y033855D03*
X023605Y035855D03*
X024605Y035855D03*
X025605Y035855D03*
X025605Y034855D03*
X025605Y033855D03*
X025605Y032855D03*
X026605Y032855D03*
X026605Y033855D03*
X026605Y034855D03*
X026605Y035855D03*
X027605Y035855D03*
X027605Y034855D03*
X027605Y033855D03*
X027605Y032855D03*
X028605Y032855D03*
X029605Y032855D03*
X029605Y033855D03*
X029605Y034855D03*
X028605Y034855D03*
X028605Y033855D03*
X028605Y035855D03*
X029605Y035855D03*
X030605Y035855D03*
X030605Y034855D03*
X030605Y033855D03*
X030605Y032855D03*
D13*
X007496Y007972D02*
X007372Y007972D01*
X007372Y008096D01*
X007496Y008096D01*
X007496Y007972D01*
X007496Y008095D02*
X007372Y008095D01*
D14*
X007434Y008534D03*
X007434Y009034D03*
X007934Y009034D03*
X007934Y008534D03*
X007934Y008034D03*
X008434Y008034D03*
X008434Y008534D03*
X008434Y009034D03*
X008934Y009034D03*
X008934Y008534D03*
X008934Y008034D03*
X009434Y008034D03*
X009934Y008034D03*
X009934Y008534D03*
X009434Y008534D03*
X009434Y009034D03*
X009934Y009034D03*
X010434Y009034D03*
X010434Y008534D03*
X010434Y008034D03*
X010934Y008034D03*
X010934Y008534D03*
X010934Y009034D03*
X011434Y009034D03*
X011434Y008534D03*
X011434Y008034D03*
X011934Y008034D03*
X012434Y008034D03*
X012434Y008534D03*
X011934Y008534D03*
X011934Y009034D03*
X012434Y009034D03*
X012934Y009034D03*
X012934Y008534D03*
X012934Y008034D03*
X012934Y009534D03*
X012934Y010034D03*
X012934Y010534D03*
X012434Y010534D03*
X012434Y010034D03*
X012434Y009534D03*
X011934Y009534D03*
X011434Y009534D03*
X011434Y010034D03*
X011934Y010034D03*
X011934Y010534D03*
X011934Y011034D03*
X012434Y011034D03*
X012434Y011534D03*
X011934Y011534D03*
X011434Y011534D03*
X011434Y011034D03*
X010934Y011034D03*
X010434Y011034D03*
X010434Y011534D03*
X010934Y011534D03*
X010934Y012034D03*
X010434Y012034D03*
X009934Y012034D03*
X009934Y011534D03*
X009934Y011034D03*
X009434Y011034D03*
X008934Y011034D03*
X008934Y011534D03*
X009434Y011534D03*
X009434Y012034D03*
X008934Y012034D03*
X008434Y012034D03*
X008434Y011534D03*
X008434Y011034D03*
X007934Y011034D03*
X007934Y011534D03*
X007934Y012034D03*
X007434Y012034D03*
X007434Y011534D03*
X007434Y011034D03*
X007434Y010534D03*
X007434Y010034D03*
X007434Y009534D03*
X007934Y009534D03*
X008434Y009534D03*
X008434Y010034D03*
X007934Y010034D03*
X007934Y010534D03*
X008434Y010534D03*
X008934Y010534D03*
X008934Y010034D03*
X008934Y009534D03*
X009434Y009534D03*
X009934Y009534D03*
X009934Y010034D03*
X009434Y010034D03*
X009434Y010534D03*
X009934Y010534D03*
X010434Y010034D03*
X010434Y009534D03*
X010934Y009534D03*
X010934Y010034D03*
X011434Y012034D03*
X011934Y012034D03*
X012434Y012034D03*
X012934Y012034D03*
X012934Y011534D03*
X012934Y011034D03*
X012934Y012534D03*
X012934Y013034D03*
X012934Y013534D03*
X012434Y013534D03*
X012434Y013034D03*
X012434Y012534D03*
X011934Y012534D03*
X011434Y012534D03*
X011434Y013034D03*
X011934Y013034D03*
X011934Y013534D03*
X011434Y013534D03*
X010934Y013534D03*
X010934Y013034D03*
X010934Y012534D03*
X010434Y012534D03*
X010434Y013034D03*
X010434Y013534D03*
X009934Y013534D03*
X009934Y013034D03*
X009934Y012534D03*
X009434Y012534D03*
X008934Y012534D03*
X008934Y013034D03*
X009434Y013034D03*
X009434Y013534D03*
X008934Y013534D03*
X008434Y013534D03*
X008434Y013034D03*
X008434Y012534D03*
X007934Y012534D03*
X007934Y013034D03*
X007934Y013534D03*
X007434Y013534D03*
X007434Y013034D03*
X007434Y012534D03*
D15*
X007425Y011507D02*
X007605Y011337D01*
X007735Y011337D02*
X007925Y011507D01*
X007957Y011526D02*
X008137Y011356D01*
X008137Y011226D02*
X007967Y011036D01*
X007937Y011005D02*
X008117Y010835D01*
X008247Y010835D02*
X008437Y011005D01*
X008439Y011005D02*
X008619Y010835D01*
X008749Y010835D02*
X008939Y011005D01*
X008929Y011026D02*
X008759Y011216D01*
X008749Y011346D02*
X008939Y011516D01*
X008619Y011346D02*
X008439Y011516D01*
X008457Y011526D02*
X008267Y011356D01*
X008277Y011226D02*
X008447Y011036D01*
X008449Y011026D02*
X008619Y011216D01*
X008619Y010705D02*
X008449Y010515D01*
X008427Y010515D02*
X008257Y010705D01*
X008117Y010705D02*
X007947Y010515D01*
X007925Y010515D02*
X007755Y010705D01*
X007745Y010835D02*
X007935Y011005D01*
X007915Y011017D02*
X007745Y011207D01*
X007605Y011207D02*
X007435Y011017D01*
X007435Y011005D02*
X007615Y010835D01*
X007615Y010705D02*
X007445Y010515D01*
X007445Y010483D02*
X007625Y010313D01*
X007625Y010183D02*
X007455Y009993D01*
X007765Y010183D02*
X007935Y009993D01*
X007755Y010313D02*
X007945Y010483D01*
X008439Y010020D02*
X008619Y009850D01*
X008619Y009720D02*
X008449Y009530D01*
X008437Y009499D02*
X008247Y009329D01*
X008117Y009329D02*
X007937Y009499D01*
X007925Y009509D02*
X007735Y009339D01*
X007605Y009339D02*
X007425Y009509D01*
X007605Y009209D02*
X007435Y009019D01*
X007435Y009016D02*
X007615Y008846D01*
X007615Y008716D02*
X007445Y008526D01*
X007445Y008515D02*
X007625Y008345D01*
X007755Y008345D02*
X007945Y008515D01*
X007937Y008505D02*
X008117Y008335D01*
X008247Y008335D02*
X008437Y008505D01*
X008437Y008507D02*
X008267Y008697D01*
X008257Y008827D02*
X008447Y008997D01*
X008459Y008999D02*
X008629Y009189D01*
X008629Y009319D02*
X008449Y009489D01*
X008257Y009199D02*
X008427Y009009D01*
X008439Y009026D02*
X008619Y008856D01*
X008619Y008726D02*
X008449Y008536D01*
X008127Y008697D02*
X007957Y008507D01*
X007925Y008526D02*
X007755Y008716D01*
X007745Y008846D02*
X007935Y009016D01*
X007947Y009009D02*
X008117Y009199D01*
X007947Y008997D02*
X008127Y008827D01*
X007915Y009019D02*
X007745Y009209D01*
X007765Y008215D02*
X007935Y008025D01*
X007947Y008015D02*
X008117Y008205D01*
X008257Y008205D02*
X008427Y008015D01*
X008929Y008536D02*
X008759Y008726D01*
X008749Y008856D02*
X008939Y009026D01*
X008951Y009009D02*
X009121Y009199D01*
X009121Y009329D02*
X008941Y009499D01*
X008949Y009489D02*
X008759Y009319D01*
X008769Y009189D02*
X008939Y008999D01*
X009261Y009199D02*
X009431Y009009D01*
X009453Y009009D02*
X009623Y009199D01*
X009623Y009329D02*
X009443Y009499D01*
X009441Y009499D02*
X009251Y009329D01*
X009431Y009511D02*
X009261Y009701D01*
X009251Y009831D02*
X009441Y010001D01*
X009443Y009991D02*
X009623Y009821D01*
X009753Y009821D02*
X009943Y009991D01*
X009935Y010011D02*
X010115Y009841D01*
X010245Y009841D02*
X010435Y010011D01*
X010437Y010011D02*
X010617Y009841D01*
X010747Y009841D02*
X010937Y010011D01*
X010939Y010011D02*
X011119Y009841D01*
X011249Y009841D02*
X011439Y010011D01*
X011441Y010011D02*
X011621Y009841D01*
X011751Y009841D02*
X011941Y010011D01*
X011943Y010011D02*
X012123Y009841D01*
X012253Y009841D02*
X012443Y010011D01*
X012435Y010011D02*
X012615Y009841D01*
X012745Y009841D02*
X012935Y010011D01*
X012755Y009711D02*
X012925Y009521D01*
X012935Y009509D02*
X012745Y009339D01*
X012615Y009339D02*
X012435Y009509D01*
X012423Y009509D02*
X012233Y009339D01*
X012103Y009339D02*
X011923Y009509D01*
X011931Y009521D02*
X011761Y009711D01*
X011621Y009711D02*
X011451Y009521D01*
X011429Y009521D02*
X011259Y009711D01*
X011119Y009711D02*
X010949Y009521D01*
X010937Y009509D02*
X010747Y009339D01*
X010617Y009339D02*
X010437Y009509D01*
X010445Y009499D02*
X010255Y009329D01*
X010125Y009329D02*
X009945Y009499D01*
X009943Y009499D02*
X009753Y009329D01*
X009763Y009199D02*
X009933Y009009D01*
X009955Y009009D02*
X010125Y009199D01*
X010265Y009199D02*
X010435Y009009D01*
X010447Y009019D02*
X010617Y009209D01*
X010757Y009209D02*
X010927Y009019D01*
X010939Y009009D02*
X011109Y009199D01*
X011109Y009329D02*
X010929Y009499D01*
X010927Y009521D02*
X010757Y009711D01*
X010617Y009711D02*
X010447Y009521D01*
X010425Y009521D02*
X010255Y009711D01*
X010115Y009711D02*
X009945Y009521D01*
X009933Y009501D02*
X009763Y009691D01*
X009623Y009691D02*
X009453Y009501D01*
X009121Y009701D02*
X008951Y009511D01*
X008929Y009530D02*
X008759Y009720D01*
X008749Y009850D02*
X008939Y010020D01*
X008941Y010001D02*
X009121Y009831D01*
X008929Y010515D02*
X008759Y010705D01*
X009463Y010997D02*
X009633Y011187D01*
X009633Y011317D02*
X009453Y011487D01*
X009443Y011519D02*
X009613Y011709D01*
X009613Y011839D02*
X009433Y012009D01*
X009443Y012021D02*
X009613Y012211D01*
X009613Y012341D02*
X009433Y012511D01*
X009424Y012523D02*
X009594Y012713D01*
X009594Y012843D02*
X009414Y013013D01*
X009424Y013034D02*
X009594Y013224D01*
X009594Y013354D02*
X009414Y013524D01*
X009724Y013354D02*
X009914Y013524D01*
X009734Y013224D02*
X009904Y013034D01*
X009914Y013013D02*
X009724Y012843D01*
X009734Y012713D02*
X009904Y012523D01*
X009933Y012511D02*
X009743Y012341D01*
X009753Y012211D02*
X009923Y012021D01*
X009933Y012009D02*
X009743Y011839D01*
X009753Y011709D02*
X009923Y011519D01*
X009955Y011516D02*
X010135Y011346D01*
X010135Y011216D02*
X009965Y011026D01*
X009943Y010997D02*
X009773Y011187D01*
X009763Y011317D02*
X009953Y011487D01*
X009955Y011538D02*
X010125Y011728D01*
X010125Y011858D02*
X009945Y012028D01*
X010255Y011858D02*
X010445Y012028D01*
X010265Y011728D02*
X010435Y011538D01*
X010447Y011516D02*
X010627Y011346D01*
X010627Y011216D02*
X010457Y011026D01*
X010445Y011026D02*
X010275Y011216D01*
X010265Y011346D02*
X010455Y011516D01*
X010757Y011346D02*
X010947Y011516D01*
X010949Y011507D02*
X011129Y011337D01*
X011259Y011337D02*
X011449Y011507D01*
X011441Y011487D02*
X011621Y011317D01*
X011621Y011187D02*
X011451Y010997D01*
X011439Y011017D02*
X011269Y011207D01*
X011129Y011207D02*
X010959Y011017D01*
X010937Y011026D02*
X010767Y011216D01*
X010939Y012001D02*
X011109Y012191D01*
X011109Y012321D02*
X010929Y012491D01*
X010927Y012483D02*
X010757Y012673D01*
X010747Y012803D02*
X010937Y012973D01*
X010939Y013003D02*
X011119Y012833D01*
X011249Y012833D02*
X011439Y013003D01*
X011429Y013015D02*
X011259Y013205D01*
X011249Y013335D02*
X011439Y013505D01*
X011119Y013335D02*
X010939Y013505D01*
X010927Y013515D02*
X010737Y013345D01*
X010607Y013345D02*
X010427Y013515D01*
X010607Y013215D02*
X010437Y013025D01*
X010437Y012973D02*
X010617Y012803D01*
X010617Y012673D02*
X010447Y012483D01*
X010949Y012513D02*
X011119Y012703D01*
X011259Y012703D02*
X011429Y012513D01*
X011429Y012491D02*
X011239Y012321D01*
X011249Y012191D02*
X011419Y012001D01*
X011963Y011991D02*
X012133Y012181D01*
X012133Y012311D02*
X011953Y012481D01*
X011963Y012483D02*
X012133Y012673D01*
X012133Y012803D02*
X011953Y012973D01*
X011953Y013005D02*
X012123Y013195D01*
X012123Y013325D02*
X011943Y013495D01*
X012253Y013325D02*
X012443Y013495D01*
X012445Y013515D02*
X012625Y013345D01*
X012755Y013345D02*
X012945Y013515D01*
X012765Y013215D02*
X012935Y013025D01*
X012955Y012983D02*
X012765Y012813D01*
X012635Y012813D02*
X012455Y012983D01*
X012453Y012973D02*
X012263Y012803D01*
X012273Y012673D02*
X012443Y012483D01*
X012453Y012481D02*
X012263Y012311D01*
X012273Y012181D02*
X012443Y011991D01*
X012465Y011991D02*
X012635Y012181D01*
X012635Y012311D02*
X012455Y012481D01*
X012465Y012493D02*
X012635Y012683D01*
X012775Y012683D02*
X012945Y012493D01*
X012955Y012481D02*
X012765Y012311D01*
X012775Y012181D02*
X012945Y011991D01*
X012955Y011507D02*
X012765Y011337D01*
X012635Y011337D02*
X012455Y011507D01*
X012453Y011497D02*
X012263Y011327D01*
X012133Y011327D02*
X011953Y011497D01*
X011941Y011487D02*
X011751Y011317D01*
X011761Y011187D02*
X011931Y010997D01*
X011933Y010995D02*
X012113Y010825D01*
X012113Y010695D02*
X011943Y010505D01*
X012253Y010695D02*
X012423Y010505D01*
X012465Y010515D02*
X012635Y010705D01*
X012635Y010835D02*
X012455Y011005D01*
X012443Y011007D02*
X012273Y011197D01*
X012133Y011197D02*
X011963Y011007D01*
X012243Y010825D02*
X012433Y010995D01*
X012465Y011017D02*
X012635Y011207D01*
X012775Y011207D02*
X012945Y011017D01*
X012955Y011005D02*
X012765Y010835D01*
X012775Y010705D02*
X012945Y010515D01*
X012615Y009711D02*
X012445Y009521D01*
X012433Y009521D02*
X012263Y009711D01*
X012123Y009711D02*
X011953Y009521D01*
X011941Y009499D02*
X011751Y009329D01*
X011621Y009329D02*
X011441Y009499D01*
X011429Y009499D02*
X011239Y009329D01*
X011249Y009199D02*
X011419Y009009D01*
X011451Y009009D02*
X011621Y009199D01*
X011761Y009199D02*
X011931Y009009D01*
X011933Y009019D02*
X012103Y009209D01*
X012243Y009209D02*
X012413Y009019D01*
X012423Y008997D02*
X012233Y008827D01*
X012103Y008827D02*
X011923Y008997D01*
X012103Y008697D02*
X011933Y008507D01*
X012243Y008697D02*
X012413Y008507D01*
X012425Y008505D02*
X012605Y008335D01*
X012605Y008205D02*
X012435Y008015D01*
X012745Y008205D02*
X012915Y008015D01*
X012735Y008335D02*
X012925Y008505D01*
X012945Y008507D02*
X012775Y008697D01*
X012765Y008827D02*
X012955Y008997D01*
X012925Y009019D02*
X012755Y009209D01*
X012615Y009209D02*
X012445Y009019D01*
X012455Y008997D02*
X012635Y008827D01*
X012635Y008697D02*
X012465Y008507D01*
X012433Y013005D02*
X012263Y013195D01*
X012455Y013025D02*
X012625Y013215D01*
X011119Y013205D02*
X010949Y013015D01*
X010917Y013025D02*
X010747Y013215D01*
X007625Y008215D02*
X007455Y008025D01*
X005914Y013544D02*
X005744Y013734D01*
X005734Y013864D02*
X005924Y014034D01*
X005615Y013864D02*
X005435Y014034D01*
X005604Y013734D02*
X005434Y013544D01*
D16*
X003605Y002105D02*
X002105Y002105D01*
X003605Y002105D02*
X003605Y035855D01*
X003605Y002105D02*
X033605Y002105D01*
D17*
X012670Y008268D03*
X012701Y008762D03*
X012680Y009270D03*
X012682Y009774D03*
X012190Y009774D03*
X012170Y009270D03*
X012170Y008761D03*
X011686Y009262D03*
X011176Y009262D03*
X011186Y009776D03*
X011688Y009774D03*
X010686Y009774D03*
X010686Y009272D03*
X010194Y009262D03*
X009688Y009268D03*
X009694Y009755D03*
X010184Y009776D03*
X009192Y009766D03*
X009186Y009262D03*
X008698Y009253D03*
X008686Y008792D03*
X008196Y008762D03*
X008184Y009262D03*
X007670Y009276D03*
X007684Y008784D03*
X007694Y008278D03*
X008184Y008268D03*
X008686Y009774D03*
X008684Y010766D03*
X008688Y011280D03*
X008207Y011302D03*
X007676Y011278D03*
X007682Y010770D03*
X008184Y010770D03*
X007692Y010249D03*
X007673Y012260D03*
X008177Y012262D03*
X008205Y012763D03*
X008195Y013285D03*
X007675Y013295D03*
X007679Y012770D03*
X007045Y012955D03*
X006966Y013586D03*
X008711Y013279D03*
X008690Y012767D03*
X008680Y012269D03*
X009676Y012274D03*
X009680Y011772D03*
X010192Y011794D03*
X010203Y011284D03*
X010692Y011282D03*
X011196Y011266D03*
X011688Y011253D03*
X012199Y011262D03*
X012180Y010762D03*
X012711Y010770D03*
X012703Y011274D03*
X012709Y012251D03*
X012709Y012753D03*
X012199Y012741D03*
X012199Y012243D03*
X012190Y013255D03*
X012690Y013290D03*
X011182Y013272D03*
X011188Y012766D03*
X011176Y012259D03*
X010686Y012739D03*
X010674Y013276D03*
X009664Y013290D03*
X009662Y012780D03*
X009699Y011249D03*
D18*
X009934Y010761D02*
X009264Y010761D01*
X009264Y012034D01*
X008934Y012034D01*
X009934Y010761D02*
X009934Y010534D01*
D19*
X009192Y011735D02*
X009130Y011735D01*
X009102Y011764D01*
X008766Y011764D01*
X008740Y011738D01*
X008626Y011739D01*
X008602Y011764D01*
X008266Y011764D01*
X008244Y011742D01*
X008123Y011743D01*
X008102Y011764D01*
X007766Y011764D01*
X007748Y011746D01*
X007619Y011747D01*
X007602Y011764D01*
X007266Y011764D01*
X007251Y011749D01*
X006804Y011753D01*
X006804Y011831D01*
X006333Y014160D01*
X009178Y014160D01*
X009178Y013981D01*
X009192Y013963D01*
X009192Y011735D01*
X009192Y011745D02*
X009120Y011745D01*
X009106Y011794D02*
X009135Y011810D01*
X009158Y011834D01*
X009174Y011862D01*
X009183Y011894D01*
X009183Y012009D01*
X008959Y012009D01*
X008959Y012059D01*
X009183Y012059D01*
X009183Y012175D01*
X009174Y012207D01*
X009158Y012235D01*
X009135Y012258D01*
X009106Y012275D01*
X009074Y012283D01*
X008959Y012283D01*
X008959Y012059D01*
X008909Y012059D01*
X008909Y012009D01*
X008959Y012009D01*
X008959Y011785D01*
X009074Y011785D01*
X009106Y011794D01*
X009105Y011794D02*
X009192Y011794D01*
X009192Y011842D02*
X009163Y011842D01*
X009182Y011891D02*
X009192Y011891D01*
X009183Y011939D02*
X009192Y011939D01*
X009183Y011988D02*
X009192Y011988D01*
X009192Y012036D02*
X008959Y012036D01*
X008959Y011988D02*
X008909Y011988D01*
X008909Y012009D02*
X008909Y011785D01*
X008793Y011785D01*
X008761Y011794D01*
X008733Y011810D01*
X008710Y011834D01*
X008693Y011862D01*
X008685Y011894D01*
X008685Y012009D01*
X008909Y012009D01*
X008909Y012036D02*
X008459Y012036D01*
X008459Y012059D02*
X008683Y012059D01*
X008683Y012175D01*
X008674Y012207D01*
X008658Y012235D01*
X008635Y012258D01*
X008606Y012275D01*
X008574Y012283D01*
X008459Y012283D01*
X008459Y012059D01*
X008459Y012009D01*
X008683Y012009D01*
X008683Y011894D01*
X008674Y011862D01*
X008658Y011834D01*
X008635Y011810D01*
X008606Y011794D01*
X008574Y011785D01*
X008459Y011785D01*
X008459Y012009D01*
X008409Y012009D01*
X008409Y011785D01*
X008293Y011785D01*
X008261Y011794D01*
X008233Y011810D01*
X008210Y011834D01*
X008193Y011862D01*
X008185Y011894D01*
X008185Y012009D01*
X008409Y012009D01*
X008409Y012059D01*
X008185Y012059D01*
X008185Y012175D01*
X008193Y012207D01*
X008210Y012235D01*
X008233Y012258D01*
X008261Y012275D01*
X008293Y012283D01*
X008409Y012283D01*
X008409Y012059D01*
X008459Y012059D01*
X008459Y012085D02*
X008409Y012085D01*
X008409Y012133D02*
X008459Y012133D01*
X008459Y012182D02*
X008409Y012182D01*
X008409Y012230D02*
X008459Y012230D01*
X008459Y012279D02*
X008409Y012279D01*
X008409Y012285D02*
X008409Y012509D01*
X008459Y012509D01*
X008459Y012559D01*
X008683Y012559D01*
X008683Y012675D01*
X008674Y012707D01*
X008658Y012735D01*
X008635Y012758D01*
X008606Y012775D01*
X008574Y012783D01*
X008459Y012783D01*
X008459Y012559D01*
X008409Y012559D01*
X008409Y012509D01*
X008185Y012509D01*
X008185Y012394D01*
X008193Y012362D01*
X008210Y012334D01*
X008233Y012310D01*
X008261Y012294D01*
X008293Y012285D01*
X008409Y012285D01*
X008409Y012327D02*
X008459Y012327D01*
X008459Y012285D02*
X008574Y012285D01*
X008606Y012294D01*
X008635Y012310D01*
X008658Y012334D01*
X008674Y012362D01*
X008683Y012394D01*
X008683Y012509D01*
X008459Y012509D01*
X008459Y012285D01*
X008459Y012376D02*
X008409Y012376D01*
X008409Y012424D02*
X008459Y012424D01*
X008459Y012473D02*
X008409Y012473D01*
X008409Y012521D02*
X007959Y012521D01*
X007959Y012509D02*
X007959Y012559D01*
X008183Y012559D01*
X008183Y012675D01*
X008174Y012707D01*
X008158Y012735D01*
X008135Y012758D01*
X008106Y012775D01*
X008074Y012783D01*
X007959Y012783D01*
X007959Y012559D01*
X007909Y012559D01*
X007909Y012509D01*
X007959Y012509D01*
X008183Y012509D01*
X008183Y012394D01*
X008174Y012362D01*
X008158Y012334D01*
X008135Y012310D01*
X008106Y012294D01*
X008074Y012285D01*
X007959Y012285D01*
X007959Y012509D01*
X007959Y012473D02*
X007909Y012473D01*
X007909Y012509D02*
X007909Y012285D01*
X007793Y012285D01*
X007761Y012294D01*
X007733Y012310D01*
X007710Y012334D01*
X007693Y012362D01*
X007685Y012394D01*
X007685Y012509D01*
X007909Y012509D01*
X007909Y012521D02*
X007459Y012521D01*
X007459Y012509D02*
X007459Y012559D01*
X007683Y012559D01*
X007683Y012675D01*
X007674Y012707D01*
X007658Y012735D01*
X007635Y012758D01*
X007606Y012775D01*
X007574Y012783D01*
X007459Y012783D01*
X007459Y012559D01*
X007409Y012559D01*
X007409Y012509D01*
X007459Y012509D01*
X007683Y012509D01*
X007683Y012394D01*
X007674Y012362D01*
X007658Y012334D01*
X007635Y012310D01*
X007606Y012294D01*
X007574Y012285D01*
X007459Y012285D01*
X007459Y012509D01*
X007459Y012473D02*
X007409Y012473D01*
X007409Y012509D02*
X007409Y012285D01*
X007293Y012285D01*
X007261Y012294D01*
X007233Y012310D01*
X007210Y012334D01*
X007193Y012362D01*
X007185Y012394D01*
X007185Y012509D01*
X007409Y012509D01*
X007409Y012521D02*
X006664Y012521D01*
X006655Y012570D02*
X007185Y012570D01*
X007185Y012559D02*
X007409Y012559D01*
X007409Y012783D01*
X007293Y012783D01*
X007261Y012775D01*
X007233Y012758D01*
X007210Y012735D01*
X007193Y012707D01*
X007185Y012675D01*
X007185Y012559D01*
X007185Y012618D02*
X006645Y012618D01*
X006635Y012667D02*
X007185Y012667D01*
X007198Y012715D02*
X006625Y012715D01*
X006615Y012764D02*
X007242Y012764D01*
X007261Y012794D02*
X007293Y012785D01*
X007409Y012785D01*
X007409Y013009D01*
X007459Y013009D01*
X007459Y013059D01*
X007683Y013059D01*
X007683Y013175D01*
X007674Y013207D01*
X007658Y013235D01*
X007635Y013258D01*
X007606Y013275D01*
X007574Y013283D01*
X007459Y013283D01*
X007459Y013059D01*
X007409Y013059D01*
X007409Y013009D01*
X007185Y013009D01*
X007185Y012894D01*
X007193Y012862D01*
X007210Y012834D01*
X007233Y012810D01*
X007261Y012794D01*
X007231Y012812D02*
X006606Y012812D01*
X006596Y012861D02*
X007194Y012861D01*
X007185Y012909D02*
X006586Y012909D01*
X006576Y012958D02*
X007185Y012958D01*
X007185Y013006D02*
X006566Y013006D01*
X006557Y013055D02*
X007409Y013055D01*
X007409Y013059D02*
X007185Y013059D01*
X007185Y013175D01*
X007193Y013207D01*
X007210Y013235D01*
X007233Y013258D01*
X007261Y013275D01*
X007293Y013283D01*
X007409Y013283D01*
X007409Y013059D01*
X007409Y013103D02*
X007459Y013103D01*
X007459Y013055D02*
X007909Y013055D01*
X007909Y013059D02*
X007909Y013009D01*
X007959Y013009D01*
X007959Y013059D01*
X008183Y013059D01*
X008183Y013175D01*
X008174Y013207D01*
X008158Y013235D01*
X008135Y013258D01*
X008106Y013275D01*
X008074Y013283D01*
X007959Y013283D01*
X007959Y013059D01*
X007909Y013059D01*
X007685Y013059D01*
X007685Y013175D01*
X007693Y013207D01*
X007710Y013235D01*
X007733Y013258D01*
X007761Y013275D01*
X007793Y013283D01*
X007909Y013283D01*
X007909Y013059D01*
X007909Y013103D02*
X007959Y013103D01*
X007959Y013055D02*
X008409Y013055D01*
X008409Y013059D02*
X008409Y013009D01*
X008459Y013009D01*
X008459Y013059D01*
X008683Y013059D01*
X008683Y013175D01*
X008674Y013207D01*
X008658Y013235D01*
X008635Y013258D01*
X008606Y013275D01*
X008574Y013283D01*
X008459Y013283D01*
X008459Y013059D01*
X008409Y013059D01*
X008185Y013059D01*
X008185Y013175D01*
X008193Y013207D01*
X008210Y013235D01*
X008233Y013258D01*
X008261Y013275D01*
X008293Y013283D01*
X008409Y013283D01*
X008409Y013059D01*
X008409Y013103D02*
X008459Y013103D01*
X008459Y013055D02*
X008909Y013055D01*
X008909Y013059D02*
X008909Y013009D01*
X008959Y013009D01*
X008959Y013059D01*
X009183Y013059D01*
X009183Y013175D01*
X009174Y013207D01*
X009158Y013235D01*
X009135Y013258D01*
X009106Y013275D01*
X009074Y013283D01*
X008959Y013283D01*
X008959Y013059D01*
X008909Y013059D01*
X008685Y013059D01*
X008685Y013175D01*
X008693Y013207D01*
X008710Y013235D01*
X008733Y013258D01*
X008761Y013275D01*
X008793Y013283D01*
X008909Y013283D01*
X008909Y013059D01*
X008909Y013103D02*
X008959Y013103D01*
X008959Y013055D02*
X009192Y013055D01*
X009183Y013009D02*
X008959Y013009D01*
X008959Y012785D01*
X009074Y012785D01*
X009106Y012794D01*
X009135Y012810D01*
X009158Y012834D01*
X009174Y012862D01*
X009183Y012894D01*
X009183Y013009D01*
X009183Y013006D02*
X009192Y013006D01*
X009183Y012958D02*
X009192Y012958D01*
X009183Y012909D02*
X009192Y012909D01*
X009192Y012861D02*
X009173Y012861D01*
X009192Y012812D02*
X009136Y012812D01*
X009106Y012775D02*
X009074Y012783D01*
X008959Y012783D01*
X008959Y012559D01*
X009183Y012559D01*
X009183Y012675D01*
X009174Y012707D01*
X009158Y012735D01*
X009135Y012758D01*
X009106Y012775D01*
X009125Y012764D02*
X009192Y012764D01*
X009192Y012715D02*
X009169Y012715D01*
X009183Y012667D02*
X009192Y012667D01*
X009183Y012618D02*
X009192Y012618D01*
X009183Y012570D02*
X009192Y012570D01*
X009192Y012521D02*
X008959Y012521D01*
X008959Y012509D02*
X008959Y012559D01*
X008909Y012559D01*
X008909Y012509D01*
X008959Y012509D01*
X009183Y012509D01*
X009183Y012394D01*
X009174Y012362D01*
X009158Y012334D01*
X009135Y012310D01*
X009106Y012294D01*
X009074Y012285D01*
X008959Y012285D01*
X008959Y012509D01*
X008959Y012473D02*
X008909Y012473D01*
X008909Y012509D02*
X008909Y012285D01*
X008793Y012285D01*
X008761Y012294D01*
X008733Y012310D01*
X008710Y012334D01*
X008693Y012362D01*
X008685Y012394D01*
X008685Y012509D01*
X008909Y012509D01*
X008909Y012521D02*
X008459Y012521D01*
X008459Y012570D02*
X008409Y012570D01*
X008409Y012559D02*
X008409Y012783D01*
X008293Y012783D01*
X008261Y012775D01*
X008233Y012758D01*
X008210Y012735D01*
X008193Y012707D01*
X008185Y012675D01*
X008185Y012559D01*
X008409Y012559D01*
X008409Y012618D02*
X008459Y012618D01*
X008459Y012667D02*
X008409Y012667D01*
X008409Y012715D02*
X008459Y012715D01*
X008459Y012764D02*
X008409Y012764D01*
X008409Y012785D02*
X008409Y013009D01*
X008185Y013009D01*
X008185Y012894D01*
X008193Y012862D01*
X008210Y012834D01*
X008233Y012810D01*
X008261Y012794D01*
X008293Y012785D01*
X008409Y012785D01*
X008409Y012812D02*
X008459Y012812D01*
X008459Y012785D02*
X008574Y012785D01*
X008606Y012794D01*
X008635Y012810D01*
X008658Y012834D01*
X008674Y012862D01*
X008683Y012894D01*
X008683Y013009D01*
X008459Y013009D01*
X008459Y012785D01*
X008459Y012861D02*
X008409Y012861D01*
X008409Y012909D02*
X008459Y012909D01*
X008459Y012958D02*
X008409Y012958D01*
X008409Y013006D02*
X008459Y013006D01*
X008459Y013152D02*
X008409Y013152D01*
X008409Y013200D02*
X008459Y013200D01*
X008459Y013249D02*
X008409Y013249D01*
X008409Y013285D02*
X008409Y013509D01*
X008459Y013509D01*
X008459Y013559D01*
X008683Y013559D01*
X008683Y013675D01*
X008674Y013707D01*
X008658Y013735D01*
X008635Y013758D01*
X008606Y013775D01*
X008574Y013783D01*
X008459Y013783D01*
X008459Y013559D01*
X008409Y013559D01*
X008409Y013509D01*
X008185Y013509D01*
X008185Y013394D01*
X008183Y013394D01*
X008183Y013509D01*
X007959Y013509D01*
X007959Y013559D01*
X008183Y013559D01*
X008183Y013675D01*
X008174Y013707D01*
X008158Y013735D01*
X008135Y013758D01*
X008106Y013775D01*
X008074Y013783D01*
X007959Y013783D01*
X007959Y013559D01*
X007909Y013559D01*
X007909Y013509D01*
X007959Y013509D01*
X007959Y013285D01*
X008074Y013285D01*
X008106Y013294D01*
X008135Y013310D01*
X008158Y013334D01*
X008174Y013362D01*
X008183Y013394D01*
X008185Y013394D02*
X008193Y013362D01*
X008210Y013334D01*
X008233Y013310D01*
X008261Y013294D01*
X008293Y013285D01*
X008409Y013285D01*
X008409Y013297D02*
X008459Y013297D01*
X008459Y013285D02*
X008459Y013509D01*
X008683Y013509D01*
X008683Y013394D01*
X008685Y013394D01*
X008693Y013362D01*
X008710Y013334D01*
X008733Y013310D01*
X008761Y013294D01*
X008793Y013285D01*
X008909Y013285D01*
X008909Y013509D01*
X008959Y013509D01*
X008959Y013559D01*
X009183Y013559D01*
X009183Y013675D01*
X009174Y013707D01*
X009158Y013735D01*
X009135Y013758D01*
X009106Y013775D01*
X009074Y013783D01*
X008959Y013783D01*
X008959Y013559D01*
X008909Y013559D01*
X008909Y013509D01*
X008685Y013509D01*
X008685Y013394D01*
X008683Y013394D02*
X008674Y013362D01*
X008658Y013334D01*
X008635Y013310D01*
X008606Y013294D01*
X008574Y013285D01*
X008459Y013285D01*
X008459Y013346D02*
X008409Y013346D01*
X008409Y013394D02*
X008459Y013394D01*
X008459Y013443D02*
X008409Y013443D01*
X008409Y013491D02*
X008459Y013491D01*
X008459Y013540D02*
X008909Y013540D01*
X008909Y013559D02*
X008685Y013559D01*
X008685Y013675D01*
X008693Y013707D01*
X008710Y013735D01*
X008733Y013758D01*
X008761Y013775D01*
X008793Y013783D01*
X008909Y013783D01*
X008909Y013559D01*
X008909Y013588D02*
X008959Y013588D01*
X008959Y013540D02*
X009192Y013540D01*
X009183Y013509D02*
X008959Y013509D01*
X008959Y013285D01*
X009074Y013285D01*
X009106Y013294D01*
X009135Y013310D01*
X009158Y013334D01*
X009174Y013362D01*
X009183Y013394D01*
X009192Y013394D01*
X009183Y013394D02*
X009183Y013509D01*
X009183Y013491D02*
X009192Y013491D01*
X009183Y013443D02*
X009192Y013443D01*
X009192Y013346D02*
X009165Y013346D01*
X009192Y013297D02*
X009112Y013297D01*
X009144Y013249D02*
X009192Y013249D01*
X009192Y013200D02*
X009176Y013200D01*
X009183Y013152D02*
X009192Y013152D01*
X009183Y013103D02*
X009192Y013103D01*
X008959Y013152D02*
X008909Y013152D01*
X008909Y013200D02*
X008959Y013200D01*
X008959Y013249D02*
X008909Y013249D01*
X008909Y013297D02*
X008959Y013297D01*
X008959Y013346D02*
X008909Y013346D01*
X008909Y013394D02*
X008959Y013394D01*
X008959Y013443D02*
X008909Y013443D01*
X008909Y013491D02*
X008959Y013491D01*
X008959Y013637D02*
X008909Y013637D01*
X008909Y013685D02*
X008959Y013685D01*
X008959Y013734D02*
X008909Y013734D01*
X008909Y013782D02*
X008959Y013782D01*
X009079Y013782D02*
X009192Y013782D01*
X009192Y013734D02*
X009159Y013734D01*
X009180Y013685D02*
X009192Y013685D01*
X009183Y013637D02*
X009192Y013637D01*
X009183Y013588D02*
X009192Y013588D01*
X009192Y013831D02*
X006400Y013831D01*
X006390Y013879D02*
X009192Y013879D01*
X009192Y013928D02*
X006380Y013928D01*
X006371Y013976D02*
X009182Y013976D01*
X009178Y014025D02*
X006361Y014025D01*
X006351Y014073D02*
X009178Y014073D01*
X009178Y014122D02*
X006341Y014122D01*
X006410Y013782D02*
X007289Y013782D01*
X007293Y013783D02*
X007261Y013775D01*
X007233Y013758D01*
X007210Y013735D01*
X007193Y013707D01*
X007185Y013675D01*
X007185Y013559D01*
X007409Y013559D01*
X007409Y013509D01*
X007459Y013509D01*
X007459Y013559D01*
X007683Y013559D01*
X007683Y013675D01*
X007674Y013707D01*
X007658Y013735D01*
X007635Y013758D01*
X007606Y013775D01*
X007574Y013783D01*
X007459Y013783D01*
X007459Y013559D01*
X007409Y013559D01*
X007409Y013783D01*
X007293Y013783D01*
X007209Y013734D02*
X006420Y013734D01*
X006429Y013685D02*
X007187Y013685D01*
X007185Y013637D02*
X006439Y013637D01*
X006449Y013588D02*
X007185Y013588D01*
X007185Y013509D02*
X007185Y013394D01*
X006488Y013394D01*
X006498Y013346D02*
X007203Y013346D01*
X007210Y013334D02*
X007233Y013310D01*
X007261Y013294D01*
X007293Y013285D01*
X007409Y013285D01*
X007409Y013509D01*
X007185Y013509D01*
X007185Y013491D02*
X006469Y013491D01*
X006478Y013443D02*
X007185Y013443D01*
X007185Y013394D02*
X007193Y013362D01*
X007210Y013334D01*
X007256Y013297D02*
X006508Y013297D01*
X006518Y013249D02*
X007223Y013249D01*
X007192Y013200D02*
X006527Y013200D01*
X006537Y013152D02*
X007185Y013152D01*
X007185Y013103D02*
X006547Y013103D01*
X006459Y013540D02*
X007409Y013540D01*
X007409Y013588D02*
X007459Y013588D01*
X007459Y013540D02*
X007909Y013540D01*
X007909Y013559D02*
X007685Y013559D01*
X007685Y013675D01*
X007693Y013707D01*
X007710Y013735D01*
X007733Y013758D01*
X007761Y013775D01*
X007793Y013783D01*
X007909Y013783D01*
X007909Y013559D01*
X007909Y013588D02*
X007959Y013588D01*
X007959Y013540D02*
X008409Y013540D01*
X008409Y013559D02*
X008185Y013559D01*
X008185Y013675D01*
X008193Y013707D01*
X008210Y013735D01*
X008233Y013758D01*
X008261Y013775D01*
X008293Y013783D01*
X008409Y013783D01*
X008409Y013559D01*
X008409Y013588D02*
X008459Y013588D01*
X008459Y013637D02*
X008409Y013637D01*
X008409Y013685D02*
X008459Y013685D01*
X008459Y013734D02*
X008409Y013734D01*
X008409Y013782D02*
X008459Y013782D01*
X008579Y013782D02*
X008789Y013782D01*
X008709Y013734D02*
X008659Y013734D01*
X008680Y013685D02*
X008687Y013685D01*
X008683Y013637D02*
X008685Y013637D01*
X008683Y013588D02*
X008685Y013588D01*
X008683Y013491D02*
X008685Y013491D01*
X008683Y013443D02*
X008685Y013443D01*
X008703Y013346D02*
X008665Y013346D01*
X008612Y013297D02*
X008756Y013297D01*
X008723Y013249D02*
X008644Y013249D01*
X008676Y013200D02*
X008692Y013200D01*
X008683Y013152D02*
X008685Y013152D01*
X008683Y013103D02*
X008685Y013103D01*
X008685Y013009D02*
X008685Y012894D01*
X008693Y012862D01*
X008710Y012834D01*
X008733Y012810D01*
X008761Y012794D01*
X008793Y012785D01*
X008909Y012785D01*
X008909Y013009D01*
X008685Y013009D01*
X008683Y013006D02*
X008685Y013006D01*
X008683Y012958D02*
X008685Y012958D01*
X008683Y012909D02*
X008685Y012909D01*
X008694Y012861D02*
X008673Y012861D01*
X008636Y012812D02*
X008731Y012812D01*
X008761Y012775D02*
X008733Y012758D01*
X008710Y012735D01*
X008693Y012707D01*
X008685Y012675D01*
X008685Y012559D01*
X008909Y012559D01*
X008909Y012783D01*
X008793Y012783D01*
X008761Y012775D01*
X008742Y012764D02*
X008625Y012764D01*
X008669Y012715D02*
X008698Y012715D01*
X008685Y012667D02*
X008683Y012667D01*
X008683Y012618D02*
X008685Y012618D01*
X008683Y012570D02*
X008685Y012570D01*
X008683Y012473D02*
X008685Y012473D01*
X008683Y012424D02*
X008685Y012424D01*
X008678Y012376D02*
X008690Y012376D01*
X008716Y012327D02*
X008651Y012327D01*
X008592Y012279D02*
X008776Y012279D01*
X008761Y012275D02*
X008733Y012258D01*
X008710Y012235D01*
X008693Y012207D01*
X008685Y012175D01*
X008685Y012059D01*
X008909Y012059D01*
X008909Y012283D01*
X008793Y012283D01*
X008761Y012275D01*
X008707Y012230D02*
X008661Y012230D01*
X008681Y012182D02*
X008687Y012182D01*
X008683Y012133D02*
X008685Y012133D01*
X008683Y012085D02*
X008685Y012085D01*
X008683Y011988D02*
X008685Y011988D01*
X008683Y011939D02*
X008685Y011939D01*
X008682Y011891D02*
X008686Y011891D01*
X008705Y011842D02*
X008663Y011842D01*
X008605Y011794D02*
X008762Y011794D01*
X008747Y011745D02*
X008620Y011745D01*
X008459Y011794D02*
X008409Y011794D01*
X008409Y011842D02*
X008459Y011842D01*
X008459Y011891D02*
X008409Y011891D01*
X008409Y011939D02*
X008459Y011939D01*
X008459Y011988D02*
X008409Y011988D01*
X008409Y012036D02*
X007959Y012036D01*
X007959Y012059D02*
X008183Y012059D01*
X008183Y012175D01*
X008174Y012207D01*
X008158Y012235D01*
X008135Y012258D01*
X008106Y012275D01*
X008074Y012283D01*
X007959Y012283D01*
X007959Y012059D01*
X007959Y012009D01*
X008183Y012009D01*
X008183Y011894D01*
X008174Y011862D01*
X008158Y011834D01*
X008135Y011810D01*
X008106Y011794D01*
X008074Y011785D01*
X007959Y011785D01*
X007959Y012009D01*
X007909Y012009D01*
X007909Y011785D01*
X007793Y011785D01*
X007761Y011794D01*
X007733Y011810D01*
X007710Y011834D01*
X007693Y011862D01*
X007685Y011894D01*
X007685Y012009D01*
X007909Y012009D01*
X007909Y012059D01*
X007685Y012059D01*
X007685Y012175D01*
X007693Y012207D01*
X007710Y012235D01*
X007733Y012258D01*
X007761Y012275D01*
X007793Y012283D01*
X007909Y012283D01*
X007909Y012059D01*
X007959Y012059D01*
X007959Y012085D02*
X007909Y012085D01*
X007909Y012133D02*
X007959Y012133D01*
X007959Y012182D02*
X007909Y012182D01*
X007909Y012230D02*
X007959Y012230D01*
X007959Y012279D02*
X007909Y012279D01*
X007909Y012327D02*
X007959Y012327D01*
X007959Y012376D02*
X007909Y012376D01*
X007909Y012424D02*
X007959Y012424D01*
X007909Y012559D02*
X007685Y012559D01*
X007685Y012675D01*
X007693Y012707D01*
X007710Y012735D01*
X007733Y012758D01*
X007761Y012775D01*
X007793Y012783D01*
X007909Y012783D01*
X007909Y012559D01*
X007909Y012570D02*
X007959Y012570D01*
X007959Y012618D02*
X007909Y012618D01*
X007909Y012667D02*
X007959Y012667D01*
X007959Y012715D02*
X007909Y012715D01*
X007909Y012764D02*
X007959Y012764D01*
X007959Y012785D02*
X008074Y012785D01*
X008106Y012794D01*
X008135Y012810D01*
X008158Y012834D01*
X008174Y012862D01*
X008183Y012894D01*
X008183Y013009D01*
X007959Y013009D01*
X007959Y012785D01*
X007959Y012812D02*
X007909Y012812D01*
X007909Y012785D02*
X007909Y013009D01*
X007685Y013009D01*
X007685Y012894D01*
X007693Y012862D01*
X007710Y012834D01*
X007733Y012810D01*
X007761Y012794D01*
X007793Y012785D01*
X007909Y012785D01*
X007909Y012861D02*
X007959Y012861D01*
X007959Y012909D02*
X007909Y012909D01*
X007909Y012958D02*
X007959Y012958D01*
X007959Y013006D02*
X007909Y013006D01*
X007909Y013152D02*
X007959Y013152D01*
X007959Y013200D02*
X007909Y013200D01*
X007909Y013249D02*
X007959Y013249D01*
X007959Y013297D02*
X007909Y013297D01*
X007909Y013285D02*
X007909Y013509D01*
X007685Y013509D01*
X007685Y013394D01*
X007683Y013394D01*
X007683Y013509D01*
X007459Y013509D01*
X007459Y013285D01*
X007574Y013285D01*
X007606Y013294D01*
X007635Y013310D01*
X007658Y013334D01*
X007674Y013362D01*
X007683Y013394D01*
X007685Y013394D02*
X007693Y013362D01*
X007710Y013334D01*
X007733Y013310D01*
X007761Y013294D01*
X007793Y013285D01*
X007909Y013285D01*
X007909Y013346D02*
X007959Y013346D01*
X007959Y013394D02*
X007909Y013394D01*
X007909Y013443D02*
X007959Y013443D01*
X007959Y013491D02*
X007909Y013491D01*
X007909Y013637D02*
X007959Y013637D01*
X007959Y013685D02*
X007909Y013685D01*
X007909Y013734D02*
X007959Y013734D01*
X007959Y013782D02*
X007909Y013782D01*
X007789Y013782D02*
X007579Y013782D01*
X007659Y013734D02*
X007709Y013734D01*
X007687Y013685D02*
X007680Y013685D01*
X007683Y013637D02*
X007685Y013637D01*
X007683Y013588D02*
X007685Y013588D01*
X007683Y013491D02*
X007685Y013491D01*
X007683Y013443D02*
X007685Y013443D01*
X007703Y013346D02*
X007665Y013346D01*
X007612Y013297D02*
X007756Y013297D01*
X007723Y013249D02*
X007644Y013249D01*
X007676Y013200D02*
X007692Y013200D01*
X007683Y013152D02*
X007685Y013152D01*
X007683Y013103D02*
X007685Y013103D01*
X007683Y013009D02*
X007459Y013009D01*
X007459Y012785D01*
X007574Y012785D01*
X007606Y012794D01*
X007635Y012810D01*
X007658Y012834D01*
X007674Y012862D01*
X007683Y012894D01*
X007683Y013009D01*
X007683Y013006D02*
X007685Y013006D01*
X007683Y012958D02*
X007685Y012958D01*
X007683Y012909D02*
X007685Y012909D01*
X007694Y012861D02*
X007673Y012861D01*
X007636Y012812D02*
X007731Y012812D01*
X007742Y012764D02*
X007625Y012764D01*
X007669Y012715D02*
X007698Y012715D01*
X007685Y012667D02*
X007683Y012667D01*
X007683Y012618D02*
X007685Y012618D01*
X007683Y012570D02*
X007685Y012570D01*
X007683Y012473D02*
X007685Y012473D01*
X007683Y012424D02*
X007685Y012424D01*
X007678Y012376D02*
X007690Y012376D01*
X007716Y012327D02*
X007651Y012327D01*
X007606Y012275D02*
X007574Y012283D01*
X007459Y012283D01*
X007459Y012059D01*
X007683Y012059D01*
X007683Y012175D01*
X007674Y012207D01*
X007658Y012235D01*
X007635Y012258D01*
X007606Y012275D01*
X007592Y012279D02*
X007776Y012279D01*
X007707Y012230D02*
X007661Y012230D01*
X007681Y012182D02*
X007687Y012182D01*
X007683Y012133D02*
X007685Y012133D01*
X007683Y012085D02*
X007685Y012085D01*
X007683Y012009D02*
X007459Y012009D01*
X007459Y012059D01*
X007409Y012059D01*
X007409Y012009D01*
X007459Y012009D01*
X007459Y011785D01*
X007574Y011785D01*
X007606Y011794D01*
X007635Y011810D01*
X007658Y011834D01*
X007674Y011862D01*
X007683Y011894D01*
X007683Y012009D01*
X007683Y011988D02*
X007685Y011988D01*
X007683Y011939D02*
X007685Y011939D01*
X007682Y011891D02*
X007686Y011891D01*
X007705Y011842D02*
X007663Y011842D01*
X007605Y011794D02*
X007762Y011794D01*
X007909Y011794D02*
X007959Y011794D01*
X007959Y011842D02*
X007909Y011842D01*
X007909Y011891D02*
X007959Y011891D01*
X007959Y011939D02*
X007909Y011939D01*
X007909Y011988D02*
X007959Y011988D01*
X007909Y012036D02*
X007459Y012036D01*
X007459Y011988D02*
X007409Y011988D01*
X007409Y012009D02*
X007409Y011785D01*
X007293Y011785D01*
X007261Y011794D01*
X007233Y011810D01*
X007210Y011834D01*
X007193Y011862D01*
X007185Y011894D01*
X007185Y012009D01*
X007409Y012009D01*
X007409Y012036D02*
X006762Y012036D01*
X006753Y012085D02*
X007185Y012085D01*
X007185Y012059D02*
X007409Y012059D01*
X007409Y012283D01*
X007293Y012283D01*
X007261Y012275D01*
X007233Y012258D01*
X007210Y012235D01*
X007193Y012207D01*
X007185Y012175D01*
X007185Y012059D01*
X007185Y011988D02*
X006772Y011988D01*
X006782Y011939D02*
X007185Y011939D01*
X007186Y011891D02*
X006792Y011891D01*
X006802Y011842D02*
X007205Y011842D01*
X007262Y011794D02*
X006804Y011794D01*
X006743Y012133D02*
X007185Y012133D01*
X007187Y012182D02*
X006733Y012182D01*
X006723Y012230D02*
X007207Y012230D01*
X007276Y012279D02*
X006713Y012279D01*
X006704Y012327D02*
X007216Y012327D01*
X007190Y012376D02*
X006694Y012376D01*
X006684Y012424D02*
X007185Y012424D01*
X007185Y012473D02*
X006674Y012473D01*
X007409Y012424D02*
X007459Y012424D01*
X007459Y012376D02*
X007409Y012376D01*
X007409Y012327D02*
X007459Y012327D01*
X007459Y012279D02*
X007409Y012279D01*
X007409Y012230D02*
X007459Y012230D01*
X007459Y012182D02*
X007409Y012182D01*
X007409Y012133D02*
X007459Y012133D01*
X007459Y012085D02*
X007409Y012085D01*
X007409Y011939D02*
X007459Y011939D01*
X007459Y011891D02*
X007409Y011891D01*
X007409Y011842D02*
X007459Y011842D01*
X007459Y011794D02*
X007409Y011794D01*
X008105Y011794D02*
X008262Y011794D01*
X008247Y011745D02*
X008120Y011745D01*
X008163Y011842D02*
X008205Y011842D01*
X008186Y011891D02*
X008182Y011891D01*
X008183Y011939D02*
X008185Y011939D01*
X008183Y011988D02*
X008185Y011988D01*
X008183Y012085D02*
X008185Y012085D01*
X008183Y012133D02*
X008185Y012133D01*
X008181Y012182D02*
X008187Y012182D01*
X008207Y012230D02*
X008161Y012230D01*
X008092Y012279D02*
X008276Y012279D01*
X008216Y012327D02*
X008151Y012327D01*
X008178Y012376D02*
X008190Y012376D01*
X008183Y012424D02*
X008185Y012424D01*
X008183Y012473D02*
X008185Y012473D01*
X008183Y012570D02*
X008185Y012570D01*
X008183Y012618D02*
X008185Y012618D01*
X008183Y012667D02*
X008185Y012667D01*
X008198Y012715D02*
X008169Y012715D01*
X008125Y012764D02*
X008242Y012764D01*
X008231Y012812D02*
X008136Y012812D01*
X008173Y012861D02*
X008194Y012861D01*
X008185Y012909D02*
X008183Y012909D01*
X008183Y012958D02*
X008185Y012958D01*
X008183Y013006D02*
X008185Y013006D01*
X008183Y013103D02*
X008185Y013103D01*
X008183Y013152D02*
X008185Y013152D01*
X008176Y013200D02*
X008192Y013200D01*
X008223Y013249D02*
X008144Y013249D01*
X008112Y013297D02*
X008256Y013297D01*
X008203Y013346D02*
X008165Y013346D01*
X008183Y013443D02*
X008185Y013443D01*
X008183Y013491D02*
X008185Y013491D01*
X008183Y013588D02*
X008185Y013588D01*
X008183Y013637D02*
X008185Y013637D01*
X008180Y013685D02*
X008187Y013685D01*
X008209Y013734D02*
X008159Y013734D01*
X008079Y013782D02*
X008289Y013782D01*
X008909Y013006D02*
X008959Y013006D01*
X008959Y012958D02*
X008909Y012958D01*
X008909Y012909D02*
X008959Y012909D01*
X008959Y012861D02*
X008909Y012861D01*
X008909Y012812D02*
X008959Y012812D01*
X008959Y012764D02*
X008909Y012764D01*
X008909Y012715D02*
X008959Y012715D01*
X008959Y012667D02*
X008909Y012667D01*
X008909Y012618D02*
X008959Y012618D01*
X008959Y012570D02*
X008909Y012570D01*
X008909Y012424D02*
X008959Y012424D01*
X008959Y012376D02*
X008909Y012376D01*
X008909Y012327D02*
X008959Y012327D01*
X008959Y012279D02*
X008909Y012279D01*
X008909Y012230D02*
X008959Y012230D01*
X008959Y012182D02*
X008909Y012182D01*
X008909Y012133D02*
X008959Y012133D01*
X008959Y012085D02*
X008909Y012085D01*
X008909Y011939D02*
X008959Y011939D01*
X008959Y011891D02*
X008909Y011891D01*
X008909Y011842D02*
X008959Y011842D01*
X008959Y011794D02*
X008909Y011794D01*
X009183Y012085D02*
X009192Y012085D01*
X009183Y012133D02*
X009192Y012133D01*
X009192Y012182D02*
X009181Y012182D01*
X009192Y012230D02*
X009161Y012230D01*
X009192Y012279D02*
X009092Y012279D01*
X009151Y012327D02*
X009192Y012327D01*
X009192Y012376D02*
X009178Y012376D01*
X009183Y012424D02*
X009192Y012424D01*
X009183Y012473D02*
X009192Y012473D01*
X007459Y012570D02*
X007409Y012570D01*
X007409Y012618D02*
X007459Y012618D01*
X007459Y012667D02*
X007409Y012667D01*
X007409Y012715D02*
X007459Y012715D01*
X007459Y012764D02*
X007409Y012764D01*
X007409Y012812D02*
X007459Y012812D01*
X007459Y012861D02*
X007409Y012861D01*
X007409Y012909D02*
X007459Y012909D01*
X007459Y012958D02*
X007409Y012958D01*
X007409Y013006D02*
X007459Y013006D01*
X007459Y013152D02*
X007409Y013152D01*
X007409Y013200D02*
X007459Y013200D01*
X007459Y013249D02*
X007409Y013249D01*
X007409Y013297D02*
X007459Y013297D01*
X007459Y013346D02*
X007409Y013346D01*
X007409Y013394D02*
X007459Y013394D01*
X007459Y013443D02*
X007409Y013443D01*
X007409Y013491D02*
X007459Y013491D01*
X007459Y013637D02*
X007409Y013637D01*
X007409Y013685D02*
X007459Y013685D01*
X007459Y013734D02*
X007409Y013734D01*
X007409Y013782D02*
X007459Y013782D01*
M02*
