G75*
%MOIN*%
%OFA0B0*%
%FSLAX24Y24*%
%IPPOS*%
%LPD*%
%AMOC8*
5,1,8,0,0,1.08239X$1,22.5*
%
%ADD10C,0.0010*%
%ADD11C,0.0040*%
%ADD12C,0.0000*%
%ADD13C,0.0050*%
%ADD14C,0.0030*%
D10*
X000105Y000105D02*
X000105Y014985D01*
X000107Y015026D01*
X000112Y015067D01*
X000121Y015107D01*
X000133Y015146D01*
X000149Y015184D01*
X000168Y015220D01*
X000190Y015255D01*
X000215Y015287D01*
X000243Y015317D01*
X000273Y015345D01*
X000305Y015370D01*
X000340Y015392D01*
X000376Y015411D01*
X000414Y015427D01*
X000453Y015439D01*
X000493Y015448D01*
X000534Y015453D01*
X000575Y015455D01*
X000655Y015455D01*
X000681Y015457D01*
X000707Y015462D01*
X000732Y015470D01*
X000755Y015482D01*
X000777Y015496D01*
X000796Y015514D01*
X000814Y015533D01*
X000828Y015555D01*
X000840Y015578D01*
X000848Y015603D01*
X000853Y015629D01*
X000855Y015655D01*
X000855Y022305D01*
X000853Y022331D01*
X000848Y022357D01*
X000840Y022382D01*
X000828Y022405D01*
X000814Y022427D01*
X000796Y022446D01*
X000777Y022464D01*
X000755Y022478D01*
X000732Y022490D01*
X000707Y022498D01*
X000681Y022503D01*
X000655Y022505D01*
X000575Y022505D01*
X000534Y022507D01*
X000493Y022512D01*
X000453Y022521D01*
X000414Y022533D01*
X000376Y022549D01*
X000340Y022568D01*
X000305Y022590D01*
X000273Y022615D01*
X000243Y022643D01*
X000215Y022673D01*
X000190Y022705D01*
X000168Y022740D01*
X000149Y022776D01*
X000133Y022814D01*
X000121Y022853D01*
X000112Y022893D01*
X000107Y022934D01*
X000105Y022975D01*
X000105Y037385D01*
X000107Y037426D01*
X000112Y037467D01*
X000121Y037507D01*
X000133Y037546D01*
X000149Y037584D01*
X000168Y037620D01*
X000190Y037655D01*
X000215Y037687D01*
X000243Y037717D01*
X000273Y037745D01*
X000305Y037770D01*
X000340Y037792D01*
X000376Y037811D01*
X000414Y037827D01*
X000453Y037839D01*
X000493Y037848D01*
X000534Y037853D01*
X000575Y037855D01*
X013835Y037855D01*
X013876Y037853D01*
X013917Y037848D01*
X013957Y037839D01*
X013996Y037827D01*
X014034Y037811D01*
X014070Y037792D01*
X014105Y037770D01*
X014137Y037745D01*
X014167Y037717D01*
X014195Y037687D01*
X014220Y037655D01*
X014242Y037620D01*
X014261Y037584D01*
X014277Y037546D01*
X014289Y037507D01*
X014298Y037467D01*
X014303Y037426D01*
X014305Y037385D01*
X014305Y037175D01*
X014307Y037134D01*
X014312Y037093D01*
X014321Y037053D01*
X014333Y037014D01*
X014349Y036976D01*
X014368Y036940D01*
X014390Y036905D01*
X014415Y036873D01*
X014443Y036843D01*
X014473Y036815D01*
X014505Y036790D01*
X014540Y036768D01*
X014576Y036749D01*
X014614Y036733D01*
X014653Y036721D01*
X014693Y036712D01*
X014734Y036707D01*
X014775Y036705D01*
X021835Y036705D01*
X021876Y036707D01*
X021917Y036712D01*
X021957Y036721D01*
X021996Y036733D01*
X022034Y036749D01*
X022070Y036768D01*
X022105Y036790D01*
X022137Y036815D01*
X022167Y036843D01*
X022195Y036873D01*
X022220Y036905D01*
X022242Y036940D01*
X022261Y036976D01*
X022277Y037014D01*
X022289Y037053D01*
X022298Y037093D01*
X022303Y037134D01*
X022305Y037175D01*
X022305Y037385D01*
X022307Y037426D01*
X022312Y037467D01*
X022321Y037507D01*
X022333Y037546D01*
X022349Y037584D01*
X022368Y037620D01*
X022390Y037655D01*
X022415Y037687D01*
X022443Y037717D01*
X022473Y037745D01*
X022505Y037770D01*
X022540Y037792D01*
X022576Y037811D01*
X022614Y037827D01*
X022653Y037839D01*
X022693Y037848D01*
X022734Y037853D01*
X022775Y037855D01*
X035135Y037855D01*
X035176Y037853D01*
X035217Y037848D01*
X035257Y037839D01*
X035296Y037827D01*
X035334Y037811D01*
X035370Y037792D01*
X035405Y037770D01*
X035437Y037745D01*
X035467Y037717D01*
X035495Y037687D01*
X035520Y037655D01*
X035542Y037620D01*
X035561Y037584D01*
X035577Y037546D01*
X035589Y037507D01*
X035598Y037467D01*
X035603Y037426D01*
X035605Y037385D01*
X035605Y000575D01*
X035603Y000534D01*
X035598Y000493D01*
X035589Y000453D01*
X035577Y000414D01*
X035561Y000376D01*
X035542Y000340D01*
X035520Y000305D01*
X035495Y000273D01*
X035467Y000243D01*
X035437Y000215D01*
X035405Y000190D01*
X035370Y000168D01*
X035334Y000149D01*
X035296Y000133D01*
X035257Y000121D01*
X035217Y000112D01*
X035176Y000107D01*
X035135Y000105D01*
X022775Y000105D01*
X022734Y000107D01*
X022693Y000112D01*
X022653Y000121D01*
X022614Y000133D01*
X022576Y000149D01*
X022540Y000168D01*
X022505Y000190D01*
X022473Y000215D01*
X022443Y000243D01*
X022415Y000273D01*
X022390Y000305D01*
X022368Y000340D01*
X022349Y000376D01*
X022333Y000414D01*
X022321Y000453D01*
X022312Y000493D01*
X022307Y000534D01*
X022305Y000575D01*
X022305Y000785D01*
X022303Y000826D01*
X022298Y000867D01*
X022289Y000907D01*
X022277Y000946D01*
X022261Y000984D01*
X022242Y001020D01*
X022220Y001055D01*
X022195Y001087D01*
X022167Y001117D01*
X022137Y001145D01*
X022105Y001170D01*
X022070Y001192D01*
X022034Y001211D01*
X021996Y001227D01*
X021957Y001239D01*
X021917Y001248D01*
X021876Y001253D01*
X021835Y001255D01*
X014775Y001255D01*
X014734Y001253D01*
X014693Y001248D01*
X014653Y001239D01*
X014614Y001227D01*
X014576Y001211D01*
X014540Y001192D01*
X014505Y001170D01*
X014473Y001145D01*
X014443Y001117D01*
X014415Y001087D01*
X014390Y001055D01*
X014368Y001020D01*
X014349Y000984D01*
X014333Y000946D01*
X014321Y000907D01*
X014312Y000867D01*
X014307Y000826D01*
X014305Y000785D01*
X014305Y000575D01*
X014303Y000534D01*
X014298Y000493D01*
X014289Y000453D01*
X014277Y000414D01*
X014261Y000376D01*
X014242Y000340D01*
X014220Y000305D01*
X014195Y000273D01*
X014167Y000243D01*
X014137Y000215D01*
X014105Y000190D01*
X014070Y000168D01*
X014034Y000149D01*
X013996Y000133D01*
X013957Y000121D01*
X013917Y000112D01*
X013876Y000107D01*
X013835Y000105D01*
X000105Y000105D01*
X007334Y007581D02*
X007434Y007581D01*
X007384Y007581D02*
X007384Y007731D01*
X007334Y007681D01*
X007139Y007974D02*
X007139Y008074D01*
X007089Y008124D01*
X007039Y008074D01*
X007039Y007974D01*
X007039Y008049D02*
X007139Y008049D01*
X012886Y013840D02*
X012986Y013840D01*
X013033Y013840D02*
X013133Y013941D01*
X013133Y013966D01*
X013108Y013991D01*
X013058Y013991D01*
X013033Y013966D01*
X012936Y013991D02*
X012936Y013840D01*
X013033Y013840D02*
X013133Y013840D01*
X013240Y013656D02*
X013290Y013606D01*
X013340Y013656D01*
X013340Y013506D01*
X013240Y013506D02*
X013240Y013656D01*
X012936Y013991D02*
X012886Y013941D01*
D11*
X009420Y007660D02*
X009420Y007046D01*
X009497Y007123D02*
X009573Y007200D01*
X009573Y007277D01*
X009497Y007353D01*
X009343Y007353D01*
X009266Y007430D01*
X009266Y007507D01*
X009343Y007584D01*
X009497Y007584D01*
X009573Y007507D01*
X009727Y007507D02*
X009804Y007584D01*
X009957Y007584D01*
X010034Y007507D01*
X010034Y007430D01*
X009727Y007123D01*
X010034Y007123D01*
X009497Y007123D02*
X009343Y007123D01*
X009266Y007200D01*
X009113Y007200D02*
X009113Y007584D01*
X008806Y007584D02*
X008806Y007200D01*
X008883Y007123D01*
X009036Y007123D01*
X009113Y007200D01*
X015202Y031375D02*
X015355Y031375D01*
X015432Y031452D01*
X015585Y031452D02*
X015662Y031375D01*
X015892Y031375D01*
X015892Y031682D01*
X016046Y031682D02*
X016276Y031682D01*
X016353Y031605D01*
X016353Y031452D01*
X016276Y031375D01*
X016046Y031375D01*
X016046Y031835D01*
X015585Y031682D02*
X015585Y031452D01*
X015432Y031759D02*
X015355Y031835D01*
X015202Y031835D01*
X015125Y031759D01*
X015125Y031452D01*
X015202Y031375D01*
X016506Y031452D02*
X016506Y031605D01*
X016583Y031682D01*
X016736Y031682D01*
X016813Y031605D01*
X016813Y031528D01*
X016506Y031528D01*
X016506Y031452D02*
X016583Y031375D01*
X016736Y031375D01*
X016967Y031452D02*
X017043Y031375D01*
X017197Y031375D01*
X017273Y031452D01*
X017273Y031528D01*
X017197Y031605D01*
X017043Y031605D01*
X016967Y031682D01*
X016967Y031759D01*
X017043Y031835D01*
X017197Y031835D01*
X017273Y031759D01*
X017504Y031682D02*
X017657Y031682D01*
X017734Y031605D01*
X017734Y031375D01*
X017504Y031375D01*
X017427Y031452D01*
X017504Y031528D01*
X017734Y031528D01*
X017887Y031682D02*
X018041Y031682D01*
X017964Y031759D02*
X017964Y031452D01*
X018041Y031375D01*
X018655Y031375D02*
X018655Y031835D01*
X018731Y031605D02*
X018962Y031375D01*
X019115Y031375D02*
X019269Y031375D01*
X019192Y031375D02*
X019192Y031682D01*
X019115Y031682D01*
X019192Y031835D02*
X019192Y031912D01*
X018962Y031835D02*
X018655Y031528D01*
X019422Y031682D02*
X019575Y031682D01*
X019499Y031759D02*
X019499Y031452D01*
X019575Y031375D01*
X020189Y031375D02*
X020420Y031375D01*
X020496Y031452D01*
X020496Y031528D01*
X020420Y031605D01*
X020189Y031605D01*
X020189Y031375D02*
X020189Y031835D01*
X020420Y031835D01*
X020496Y031759D01*
X020496Y031682D01*
X020420Y031605D01*
X020650Y031682D02*
X020650Y031452D01*
X020726Y031375D01*
X020957Y031375D01*
X020957Y031682D01*
X021110Y031605D02*
X021187Y031682D01*
X021417Y031682D01*
X021340Y031528D02*
X021187Y031528D01*
X021110Y031605D01*
X021110Y031375D02*
X021340Y031375D01*
X021417Y031452D01*
X021340Y031528D01*
X004932Y032375D02*
X004625Y032375D01*
X004778Y032375D02*
X004778Y032835D01*
X004625Y032682D01*
X004625Y034125D02*
X004932Y034125D01*
X004778Y034125D02*
X004778Y034585D01*
X004625Y034432D01*
D12*
X007951Y028835D02*
X007953Y028864D01*
X007959Y028892D01*
X007968Y028920D01*
X007981Y028946D01*
X007998Y028969D01*
X008017Y028991D01*
X008039Y029010D01*
X008064Y029025D01*
X008090Y029038D01*
X008118Y029046D01*
X008146Y029051D01*
X008175Y029052D01*
X008204Y029049D01*
X008232Y029042D01*
X008259Y029032D01*
X008285Y029018D01*
X008308Y029001D01*
X008329Y028981D01*
X008347Y028958D01*
X008362Y028933D01*
X008373Y028906D01*
X008381Y028878D01*
X008385Y028849D01*
X008385Y028821D01*
X008381Y028792D01*
X008373Y028764D01*
X008362Y028737D01*
X008347Y028712D01*
X008329Y028689D01*
X008308Y028669D01*
X008285Y028652D01*
X008259Y028638D01*
X008232Y028628D01*
X008204Y028621D01*
X008175Y028618D01*
X008146Y028619D01*
X008118Y028624D01*
X008090Y028632D01*
X008064Y028645D01*
X008039Y028660D01*
X008017Y028679D01*
X007998Y028701D01*
X007981Y028724D01*
X007968Y028750D01*
X007959Y028778D01*
X007953Y028806D01*
X007951Y028835D01*
X007853Y018993D02*
X007855Y019028D01*
X007861Y019063D01*
X007871Y019097D01*
X007884Y019130D01*
X007901Y019161D01*
X007922Y019189D01*
X007945Y019216D01*
X007972Y019239D01*
X008000Y019260D01*
X008031Y019277D01*
X008064Y019290D01*
X008098Y019300D01*
X008133Y019306D01*
X008168Y019308D01*
X008203Y019306D01*
X008238Y019300D01*
X008272Y019290D01*
X008305Y019277D01*
X008336Y019260D01*
X008364Y019239D01*
X008391Y019216D01*
X008414Y019189D01*
X008435Y019161D01*
X008452Y019130D01*
X008465Y019097D01*
X008475Y019063D01*
X008481Y019028D01*
X008483Y018993D01*
X008481Y018958D01*
X008475Y018923D01*
X008465Y018889D01*
X008452Y018856D01*
X008435Y018825D01*
X008414Y018797D01*
X008391Y018770D01*
X008364Y018747D01*
X008336Y018726D01*
X008305Y018709D01*
X008272Y018696D01*
X008238Y018686D01*
X008203Y018680D01*
X008168Y018678D01*
X008133Y018680D01*
X008098Y018686D01*
X008064Y018696D01*
X008031Y018709D01*
X008000Y018726D01*
X007972Y018747D01*
X007945Y018770D01*
X007922Y018797D01*
X007901Y018825D01*
X007884Y018856D01*
X007871Y018889D01*
X007861Y018923D01*
X007855Y018958D01*
X007853Y018993D01*
X007211Y013776D02*
X007211Y011783D01*
X007211Y011788D01*
X009155Y011788D01*
X009155Y013776D01*
X009175Y013776D01*
X007211Y013776D01*
X009175Y013776D02*
X010184Y013776D01*
X010184Y012300D01*
X010676Y012300D01*
X010676Y011788D01*
X011680Y011788D01*
X011680Y011808D02*
X011680Y013757D01*
X013136Y013776D02*
X010184Y013776D01*
X009155Y011788D02*
X009155Y010784D01*
X009155Y010272D01*
X010184Y010272D01*
X010184Y010784D01*
X011680Y010784D01*
X011680Y010312D01*
X013156Y010272D02*
X010184Y010272D01*
X010184Y010784D02*
X009155Y010784D01*
X009155Y010272D02*
X008176Y010272D01*
X008176Y009780D01*
X007231Y009780D01*
X008688Y008284D02*
X009180Y008284D01*
X009180Y008776D01*
X011680Y008776D01*
X011680Y008284D01*
X012192Y008284D01*
X012192Y007812D01*
X013156Y007812D01*
X013156Y010272D01*
X013156Y013757D01*
X008688Y008284D02*
X008688Y007812D01*
X008707Y007812D02*
X012192Y007812D01*
X008707Y007812D02*
X007349Y007812D01*
X007329Y007812D02*
X007211Y007930D01*
X007211Y011783D01*
X027696Y019150D02*
X027698Y019185D01*
X027704Y019220D01*
X027714Y019254D01*
X027727Y019287D01*
X027744Y019318D01*
X027765Y019346D01*
X027788Y019373D01*
X027815Y019396D01*
X027843Y019417D01*
X027874Y019434D01*
X027907Y019447D01*
X027941Y019457D01*
X027976Y019463D01*
X028011Y019465D01*
X028046Y019463D01*
X028081Y019457D01*
X028115Y019447D01*
X028148Y019434D01*
X028179Y019417D01*
X028207Y019396D01*
X028234Y019373D01*
X028257Y019346D01*
X028278Y019318D01*
X028295Y019287D01*
X028308Y019254D01*
X028318Y019220D01*
X028324Y019185D01*
X028326Y019150D01*
X028324Y019115D01*
X028318Y019080D01*
X028308Y019046D01*
X028295Y019013D01*
X028278Y018982D01*
X028257Y018954D01*
X028234Y018927D01*
X028207Y018904D01*
X028179Y018883D01*
X028148Y018866D01*
X028115Y018853D01*
X028081Y018843D01*
X028046Y018837D01*
X028011Y018835D01*
X027976Y018837D01*
X027941Y018843D01*
X027907Y018853D01*
X027874Y018866D01*
X027843Y018883D01*
X027815Y018904D01*
X027788Y018927D01*
X027765Y018954D01*
X027744Y018982D01*
X027727Y019013D01*
X027714Y019046D01*
X027704Y019080D01*
X027698Y019115D01*
X027696Y019150D01*
X027794Y028678D02*
X027796Y028707D01*
X027802Y028735D01*
X027811Y028763D01*
X027824Y028789D01*
X027841Y028812D01*
X027860Y028834D01*
X027882Y028853D01*
X027907Y028868D01*
X027933Y028881D01*
X027961Y028889D01*
X027989Y028894D01*
X028018Y028895D01*
X028047Y028892D01*
X028075Y028885D01*
X028102Y028875D01*
X028128Y028861D01*
X028151Y028844D01*
X028172Y028824D01*
X028190Y028801D01*
X028205Y028776D01*
X028216Y028749D01*
X028224Y028721D01*
X028228Y028692D01*
X028228Y028664D01*
X028224Y028635D01*
X028216Y028607D01*
X028205Y028580D01*
X028190Y028555D01*
X028172Y028532D01*
X028151Y028512D01*
X028128Y028495D01*
X028102Y028481D01*
X028075Y028471D01*
X028047Y028464D01*
X028018Y028461D01*
X027989Y028462D01*
X027961Y028467D01*
X027933Y028475D01*
X027907Y028488D01*
X027882Y028503D01*
X027860Y028522D01*
X027841Y028544D01*
X027824Y028567D01*
X027811Y028593D01*
X027802Y028621D01*
X027796Y028649D01*
X027794Y028678D01*
D13*
X013136Y011788D02*
X011680Y011788D01*
X011680Y011808D01*
X011680Y011788D01*
X008707Y007812D02*
X008688Y007812D01*
D14*
X006571Y009017D02*
X006571Y009210D01*
X006523Y009259D01*
X006378Y009259D01*
X006378Y008969D01*
X006523Y008969D01*
X006571Y009017D01*
X006277Y008969D02*
X006277Y009259D01*
X006083Y009259D02*
X006277Y008969D01*
X006083Y008969D02*
X006083Y009259D01*
X005982Y009210D02*
X005934Y009259D01*
X005837Y009259D01*
X005789Y009210D01*
X005789Y009017D01*
X005837Y008969D01*
X005934Y008969D01*
X005982Y009017D01*
X005982Y009114D01*
X005885Y009114D01*
X005688Y009114D02*
X005639Y009065D01*
X005494Y009065D01*
X005494Y008969D02*
X005494Y009259D01*
X005639Y009259D01*
X005688Y009210D01*
X005688Y009114D01*
X005670Y010740D02*
X005766Y010837D01*
X005766Y011030D01*
X005867Y010982D02*
X005916Y011030D01*
X006013Y011030D01*
X006061Y010982D01*
X006061Y010789D01*
X006013Y010740D01*
X005916Y010740D01*
X005867Y010789D01*
X005867Y010982D01*
X005573Y011030D02*
X005573Y010837D01*
X005670Y010740D01*
X006162Y010789D02*
X006210Y010740D01*
X006307Y010740D01*
X006356Y010789D01*
X006356Y011030D01*
X006457Y011030D02*
X006650Y011030D01*
X006553Y011030D02*
X006553Y010740D01*
X006162Y010789D02*
X006162Y011030D01*
X006222Y012787D02*
X006318Y012884D01*
X006415Y012787D01*
X006415Y013078D01*
X006516Y012981D02*
X006613Y013078D01*
X006613Y012787D01*
X006516Y012787D02*
X006710Y012787D01*
X006222Y012787D02*
X006222Y013078D01*
X006121Y013029D02*
X006072Y013078D01*
X005975Y013078D01*
X005927Y013029D01*
X005927Y012981D01*
X005975Y012933D01*
X006072Y012933D01*
X006121Y012884D01*
X006121Y012836D01*
X006072Y012787D01*
X005975Y012787D01*
X005927Y012836D01*
X010277Y013958D02*
X010326Y013910D01*
X010423Y013910D01*
X010471Y013958D01*
X010471Y014006D01*
X010423Y014055D01*
X010326Y014055D01*
X010277Y014103D01*
X010277Y014151D01*
X010326Y014200D01*
X010423Y014200D01*
X010471Y014151D01*
X010572Y014200D02*
X010572Y013910D01*
X010669Y014006D01*
X010766Y013910D01*
X010766Y014200D01*
X010867Y014151D02*
X010915Y014200D01*
X011012Y014200D01*
X011060Y014151D01*
X011060Y014103D01*
X010867Y013910D01*
X011060Y013910D01*
X013309Y013097D02*
X013309Y012904D01*
X013406Y012807D01*
X013502Y012904D01*
X013502Y013097D01*
X013604Y013097D02*
X013700Y013097D01*
X013652Y013097D02*
X013652Y012807D01*
X013604Y012807D02*
X013700Y012807D01*
X013800Y012807D02*
X013800Y013097D01*
X013994Y012807D01*
X013994Y013097D01*
X014052Y011267D02*
X013859Y011267D01*
X013859Y010976D01*
X014052Y010976D01*
X014154Y010976D02*
X014154Y011267D01*
X014347Y010976D01*
X014347Y011267D01*
X014448Y011218D02*
X014448Y011170D01*
X014497Y011122D01*
X014593Y011122D01*
X014642Y011073D01*
X014642Y011025D01*
X014593Y010976D01*
X014497Y010976D01*
X014448Y011025D01*
X014448Y011218D02*
X014497Y011267D01*
X014593Y011267D01*
X014642Y011218D01*
X014743Y011267D02*
X014743Y010976D01*
X014936Y010976D01*
X014840Y011122D02*
X014743Y011122D01*
X014743Y011267D02*
X014936Y011267D01*
X013956Y011122D02*
X013859Y011122D01*
X013758Y011073D02*
X013758Y011025D01*
X013709Y010976D01*
X013613Y010976D01*
X013564Y011025D01*
X013613Y011122D02*
X013564Y011170D01*
X013564Y011218D01*
X013613Y011267D01*
X013709Y011267D01*
X013758Y011218D01*
X013709Y011122D02*
X013758Y011073D01*
X013709Y011122D02*
X013613Y011122D01*
X013463Y011122D02*
X013415Y011073D01*
X013270Y011073D01*
X013366Y011073D02*
X013463Y010976D01*
X013463Y011122D02*
X013463Y011218D01*
X013415Y011267D01*
X013270Y011267D01*
X013270Y010976D01*
M02*
