G75*
%MOIN*%
%OFA0B0*%
%FSLAX24Y24*%
%IPPOS*%
%LPD*%
%AMOC8*
5,1,8,0,0,1.08239X$1,22.5*
%
%ADD10C,0.0010*%
%ADD11C,0.0000*%
%ADD12C,0.2560*%
%ADD13C,0.0154*%
%ADD14R,0.0308X0.0308*%
%ADD15R,0.1462X0.0761*%
%ADD16R,0.0660X0.0660*%
%ADD17C,0.0660*%
%ADD18C,0.0690*%
%ADD19C,0.0493*%
%ADD20R,0.1792X0.0808*%
%ADD21C,0.0162*%
%ADD22C,0.0091*%
%ADD23R,0.0454X0.1162*%
%ADD24R,0.0690X0.0770*%
%ADD25R,0.0651X0.1202*%
%ADD26R,0.0493X0.0454*%
%ADD27R,0.0651X0.0572*%
%ADD28R,0.1182X0.0847*%
%ADD29R,0.0336X0.0414*%
%ADD30R,0.0454X0.1320*%
%ADD31C,0.0136*%
%ADD32C,0.1760*%
%ADD33R,0.1320X0.0454*%
%ADD34R,0.0280X0.0220*%
%ADD35R,0.0860X0.0740*%
%ADD36C,0.0252*%
%ADD37R,0.0560X0.1460*%
%ADD38R,0.0690X0.0520*%
%ADD39R,0.0720X0.0060*%
%ADD40R,0.0520X0.0690*%
%ADD41R,0.0060X0.0720*%
%ADD42C,0.0260*%
%ADD43C,0.0280*%
%ADD44R,0.0260X0.0260*%
%ADD45R,0.0456X0.0456*%
D10*
X000105Y000105D02*
X000105Y014985D01*
X000107Y015026D01*
X000112Y015067D01*
X000121Y015107D01*
X000133Y015146D01*
X000149Y015184D01*
X000168Y015220D01*
X000190Y015255D01*
X000215Y015287D01*
X000243Y015317D01*
X000273Y015345D01*
X000305Y015370D01*
X000340Y015392D01*
X000376Y015411D01*
X000414Y015427D01*
X000453Y015439D01*
X000493Y015448D01*
X000534Y015453D01*
X000575Y015455D01*
X000655Y015455D01*
X000681Y015457D01*
X000707Y015462D01*
X000732Y015470D01*
X000755Y015482D01*
X000777Y015496D01*
X000796Y015514D01*
X000814Y015533D01*
X000828Y015555D01*
X000840Y015578D01*
X000848Y015603D01*
X000853Y015629D01*
X000855Y015655D01*
X000855Y022305D01*
X000853Y022331D01*
X000848Y022357D01*
X000840Y022382D01*
X000828Y022405D01*
X000814Y022427D01*
X000796Y022446D01*
X000777Y022464D01*
X000755Y022478D01*
X000732Y022490D01*
X000707Y022498D01*
X000681Y022503D01*
X000655Y022505D01*
X000575Y022505D01*
X000534Y022507D01*
X000493Y022512D01*
X000453Y022521D01*
X000414Y022533D01*
X000376Y022549D01*
X000340Y022568D01*
X000305Y022590D01*
X000273Y022615D01*
X000243Y022643D01*
X000215Y022673D01*
X000190Y022705D01*
X000168Y022740D01*
X000149Y022776D01*
X000133Y022814D01*
X000121Y022853D01*
X000112Y022893D01*
X000107Y022934D01*
X000105Y022975D01*
X000105Y037385D01*
X000107Y037426D01*
X000112Y037467D01*
X000121Y037507D01*
X000133Y037546D01*
X000149Y037584D01*
X000168Y037620D01*
X000190Y037655D01*
X000215Y037687D01*
X000243Y037717D01*
X000273Y037745D01*
X000305Y037770D01*
X000340Y037792D01*
X000376Y037811D01*
X000414Y037827D01*
X000453Y037839D01*
X000493Y037848D01*
X000534Y037853D01*
X000575Y037855D01*
X013835Y037855D01*
X013876Y037853D01*
X013917Y037848D01*
X013957Y037839D01*
X013996Y037827D01*
X014034Y037811D01*
X014070Y037792D01*
X014105Y037770D01*
X014137Y037745D01*
X014167Y037717D01*
X014195Y037687D01*
X014220Y037655D01*
X014242Y037620D01*
X014261Y037584D01*
X014277Y037546D01*
X014289Y037507D01*
X014298Y037467D01*
X014303Y037426D01*
X014305Y037385D01*
X014305Y037175D01*
X014307Y037134D01*
X014312Y037093D01*
X014321Y037053D01*
X014333Y037014D01*
X014349Y036976D01*
X014368Y036940D01*
X014390Y036905D01*
X014415Y036873D01*
X014443Y036843D01*
X014473Y036815D01*
X014505Y036790D01*
X014540Y036768D01*
X014576Y036749D01*
X014614Y036733D01*
X014653Y036721D01*
X014693Y036712D01*
X014734Y036707D01*
X014775Y036705D01*
X021835Y036705D01*
X021876Y036707D01*
X021917Y036712D01*
X021957Y036721D01*
X021996Y036733D01*
X022034Y036749D01*
X022070Y036768D01*
X022105Y036790D01*
X022137Y036815D01*
X022167Y036843D01*
X022195Y036873D01*
X022220Y036905D01*
X022242Y036940D01*
X022261Y036976D01*
X022277Y037014D01*
X022289Y037053D01*
X022298Y037093D01*
X022303Y037134D01*
X022305Y037175D01*
X022305Y037385D01*
X022307Y037426D01*
X022312Y037467D01*
X022321Y037507D01*
X022333Y037546D01*
X022349Y037584D01*
X022368Y037620D01*
X022390Y037655D01*
X022415Y037687D01*
X022443Y037717D01*
X022473Y037745D01*
X022505Y037770D01*
X022540Y037792D01*
X022576Y037811D01*
X022614Y037827D01*
X022653Y037839D01*
X022693Y037848D01*
X022734Y037853D01*
X022775Y037855D01*
X035135Y037855D01*
X035176Y037853D01*
X035217Y037848D01*
X035257Y037839D01*
X035296Y037827D01*
X035334Y037811D01*
X035370Y037792D01*
X035405Y037770D01*
X035437Y037745D01*
X035467Y037717D01*
X035495Y037687D01*
X035520Y037655D01*
X035542Y037620D01*
X035561Y037584D01*
X035577Y037546D01*
X035589Y037507D01*
X035598Y037467D01*
X035603Y037426D01*
X035605Y037385D01*
X035605Y000575D01*
X035603Y000534D01*
X035598Y000493D01*
X035589Y000453D01*
X035577Y000414D01*
X035561Y000376D01*
X035542Y000340D01*
X035520Y000305D01*
X035495Y000273D01*
X035467Y000243D01*
X035437Y000215D01*
X035405Y000190D01*
X035370Y000168D01*
X035334Y000149D01*
X035296Y000133D01*
X035257Y000121D01*
X035217Y000112D01*
X035176Y000107D01*
X035135Y000105D01*
X022775Y000105D01*
X022734Y000107D01*
X022693Y000112D01*
X022653Y000121D01*
X022614Y000133D01*
X022576Y000149D01*
X022540Y000168D01*
X022505Y000190D01*
X022473Y000215D01*
X022443Y000243D01*
X022415Y000273D01*
X022390Y000305D01*
X022368Y000340D01*
X022349Y000376D01*
X022333Y000414D01*
X022321Y000453D01*
X022312Y000493D01*
X022307Y000534D01*
X022305Y000575D01*
X022305Y000785D01*
X022303Y000826D01*
X022298Y000867D01*
X022289Y000907D01*
X022277Y000946D01*
X022261Y000984D01*
X022242Y001020D01*
X022220Y001055D01*
X022195Y001087D01*
X022167Y001117D01*
X022137Y001145D01*
X022105Y001170D01*
X022070Y001192D01*
X022034Y001211D01*
X021996Y001227D01*
X021957Y001239D01*
X021917Y001248D01*
X021876Y001253D01*
X021835Y001255D01*
X015115Y001255D01*
X015068Y001252D01*
X015022Y001245D01*
X014977Y001235D01*
X014932Y001221D01*
X014889Y001204D01*
X014847Y001183D01*
X014806Y001159D01*
X014768Y001132D01*
X014732Y001103D01*
X014699Y001070D01*
X014668Y001035D01*
X014640Y000997D01*
X014615Y000958D01*
X014593Y000917D01*
X014575Y000874D01*
X014560Y000830D01*
X014548Y000784D01*
X014540Y000738D01*
X014536Y000692D01*
X014535Y000645D01*
X014533Y000600D01*
X014528Y000556D01*
X014518Y000512D01*
X014506Y000470D01*
X014490Y000428D01*
X014470Y000388D01*
X014447Y000350D01*
X014421Y000313D01*
X014392Y000279D01*
X014361Y000248D01*
X014327Y000219D01*
X014290Y000193D01*
X014252Y000170D01*
X014212Y000150D01*
X014170Y000134D01*
X014128Y000122D01*
X014084Y000112D01*
X014040Y000107D01*
X013995Y000105D01*
X013835Y000105D02*
X000105Y000105D01*
D11*
X013835Y000105D02*
X013995Y000105D01*
X014424Y005491D02*
X014426Y005549D01*
X014432Y005607D01*
X014442Y005664D01*
X014456Y005720D01*
X014473Y005776D01*
X014494Y005830D01*
X014519Y005882D01*
X014548Y005933D01*
X014580Y005981D01*
X014615Y006027D01*
X014653Y006071D01*
X014694Y006112D01*
X014738Y006150D01*
X014784Y006185D01*
X014832Y006217D01*
X014883Y006246D01*
X014935Y006271D01*
X014989Y006292D01*
X015045Y006309D01*
X015101Y006323D01*
X015158Y006333D01*
X015216Y006339D01*
X015274Y006341D01*
X015332Y006339D01*
X015390Y006333D01*
X015447Y006323D01*
X015503Y006309D01*
X015559Y006292D01*
X015613Y006271D01*
X015665Y006246D01*
X015716Y006217D01*
X015764Y006185D01*
X015810Y006150D01*
X015854Y006112D01*
X015895Y006071D01*
X015933Y006027D01*
X015968Y005981D01*
X016000Y005933D01*
X016029Y005882D01*
X016054Y005830D01*
X016075Y005776D01*
X016092Y005720D01*
X016106Y005664D01*
X016116Y005607D01*
X016122Y005549D01*
X016124Y005491D01*
X016122Y005433D01*
X016116Y005375D01*
X016106Y005318D01*
X016092Y005262D01*
X016075Y005206D01*
X016054Y005152D01*
X016029Y005100D01*
X016000Y005049D01*
X015968Y005001D01*
X015933Y004955D01*
X015895Y004911D01*
X015854Y004870D01*
X015810Y004832D01*
X015764Y004797D01*
X015716Y004765D01*
X015665Y004736D01*
X015613Y004711D01*
X015559Y004690D01*
X015503Y004673D01*
X015447Y004659D01*
X015390Y004649D01*
X015332Y004643D01*
X015274Y004641D01*
X015216Y004643D01*
X015158Y004649D01*
X015101Y004659D01*
X015045Y004673D01*
X014989Y004690D01*
X014935Y004711D01*
X014883Y004736D01*
X014832Y004765D01*
X014784Y004797D01*
X014738Y004832D01*
X014694Y004870D01*
X014653Y004911D01*
X014615Y004955D01*
X014580Y005001D01*
X014548Y005049D01*
X014519Y005100D01*
X014494Y005152D01*
X014473Y005206D01*
X014456Y005262D01*
X014442Y005318D01*
X014432Y005375D01*
X014426Y005433D01*
X014424Y005491D01*
X014405Y009228D02*
X014407Y009286D01*
X014413Y009344D01*
X014423Y009401D01*
X014437Y009457D01*
X014454Y009513D01*
X014475Y009567D01*
X014500Y009619D01*
X014529Y009670D01*
X014561Y009718D01*
X014596Y009764D01*
X014634Y009808D01*
X014675Y009849D01*
X014719Y009887D01*
X014765Y009922D01*
X014813Y009954D01*
X014864Y009983D01*
X014916Y010008D01*
X014970Y010029D01*
X015026Y010046D01*
X015082Y010060D01*
X015139Y010070D01*
X015197Y010076D01*
X015255Y010078D01*
X015313Y010076D01*
X015371Y010070D01*
X015428Y010060D01*
X015484Y010046D01*
X015540Y010029D01*
X015594Y010008D01*
X015646Y009983D01*
X015697Y009954D01*
X015745Y009922D01*
X015791Y009887D01*
X015835Y009849D01*
X015876Y009808D01*
X015914Y009764D01*
X015949Y009718D01*
X015981Y009670D01*
X016010Y009619D01*
X016035Y009567D01*
X016056Y009513D01*
X016073Y009457D01*
X016087Y009401D01*
X016097Y009344D01*
X016103Y009286D01*
X016105Y009228D01*
X016103Y009170D01*
X016097Y009112D01*
X016087Y009055D01*
X016073Y008999D01*
X016056Y008943D01*
X016035Y008889D01*
X016010Y008837D01*
X015981Y008786D01*
X015949Y008738D01*
X015914Y008692D01*
X015876Y008648D01*
X015835Y008607D01*
X015791Y008569D01*
X015745Y008534D01*
X015697Y008502D01*
X015646Y008473D01*
X015594Y008448D01*
X015540Y008427D01*
X015484Y008410D01*
X015428Y008396D01*
X015371Y008386D01*
X015313Y008380D01*
X015255Y008378D01*
X015197Y008380D01*
X015139Y008386D01*
X015082Y008396D01*
X015026Y008410D01*
X014970Y008427D01*
X014916Y008448D01*
X014864Y008473D01*
X014813Y008502D01*
X014765Y008534D01*
X014719Y008569D01*
X014675Y008607D01*
X014634Y008648D01*
X014596Y008692D01*
X014561Y008738D01*
X014529Y008786D01*
X014500Y008837D01*
X014475Y008889D01*
X014454Y008943D01*
X014437Y008999D01*
X014423Y009055D01*
X014413Y009112D01*
X014407Y009170D01*
X014405Y009228D01*
X020905Y009228D02*
X020907Y009286D01*
X020913Y009344D01*
X020923Y009401D01*
X020937Y009457D01*
X020954Y009513D01*
X020975Y009567D01*
X021000Y009619D01*
X021029Y009670D01*
X021061Y009718D01*
X021096Y009764D01*
X021134Y009808D01*
X021175Y009849D01*
X021219Y009887D01*
X021265Y009922D01*
X021313Y009954D01*
X021364Y009983D01*
X021416Y010008D01*
X021470Y010029D01*
X021526Y010046D01*
X021582Y010060D01*
X021639Y010070D01*
X021697Y010076D01*
X021755Y010078D01*
X021813Y010076D01*
X021871Y010070D01*
X021928Y010060D01*
X021984Y010046D01*
X022040Y010029D01*
X022094Y010008D01*
X022146Y009983D01*
X022197Y009954D01*
X022245Y009922D01*
X022291Y009887D01*
X022335Y009849D01*
X022376Y009808D01*
X022414Y009764D01*
X022449Y009718D01*
X022481Y009670D01*
X022510Y009619D01*
X022535Y009567D01*
X022556Y009513D01*
X022573Y009457D01*
X022587Y009401D01*
X022597Y009344D01*
X022603Y009286D01*
X022605Y009228D01*
X022603Y009170D01*
X022597Y009112D01*
X022587Y009055D01*
X022573Y008999D01*
X022556Y008943D01*
X022535Y008889D01*
X022510Y008837D01*
X022481Y008786D01*
X022449Y008738D01*
X022414Y008692D01*
X022376Y008648D01*
X022335Y008607D01*
X022291Y008569D01*
X022245Y008534D01*
X022197Y008502D01*
X022146Y008473D01*
X022094Y008448D01*
X022040Y008427D01*
X021984Y008410D01*
X021928Y008396D01*
X021871Y008386D01*
X021813Y008380D01*
X021755Y008378D01*
X021697Y008380D01*
X021639Y008386D01*
X021582Y008396D01*
X021526Y008410D01*
X021470Y008427D01*
X021416Y008448D01*
X021364Y008473D01*
X021313Y008502D01*
X021265Y008534D01*
X021219Y008569D01*
X021175Y008607D01*
X021134Y008648D01*
X021096Y008692D01*
X021061Y008738D01*
X021029Y008786D01*
X021000Y008837D01*
X020975Y008889D01*
X020954Y008943D01*
X020937Y008999D01*
X020923Y009055D01*
X020913Y009112D01*
X020907Y009170D01*
X020905Y009228D01*
X020924Y005491D02*
X020926Y005549D01*
X020932Y005607D01*
X020942Y005664D01*
X020956Y005720D01*
X020973Y005776D01*
X020994Y005830D01*
X021019Y005882D01*
X021048Y005933D01*
X021080Y005981D01*
X021115Y006027D01*
X021153Y006071D01*
X021194Y006112D01*
X021238Y006150D01*
X021284Y006185D01*
X021332Y006217D01*
X021383Y006246D01*
X021435Y006271D01*
X021489Y006292D01*
X021545Y006309D01*
X021601Y006323D01*
X021658Y006333D01*
X021716Y006339D01*
X021774Y006341D01*
X021832Y006339D01*
X021890Y006333D01*
X021947Y006323D01*
X022003Y006309D01*
X022059Y006292D01*
X022113Y006271D01*
X022165Y006246D01*
X022216Y006217D01*
X022264Y006185D01*
X022310Y006150D01*
X022354Y006112D01*
X022395Y006071D01*
X022433Y006027D01*
X022468Y005981D01*
X022500Y005933D01*
X022529Y005882D01*
X022554Y005830D01*
X022575Y005776D01*
X022592Y005720D01*
X022606Y005664D01*
X022616Y005607D01*
X022622Y005549D01*
X022624Y005491D01*
X022622Y005433D01*
X022616Y005375D01*
X022606Y005318D01*
X022592Y005262D01*
X022575Y005206D01*
X022554Y005152D01*
X022529Y005100D01*
X022500Y005049D01*
X022468Y005001D01*
X022433Y004955D01*
X022395Y004911D01*
X022354Y004870D01*
X022310Y004832D01*
X022264Y004797D01*
X022216Y004765D01*
X022165Y004736D01*
X022113Y004711D01*
X022059Y004690D01*
X022003Y004673D01*
X021947Y004659D01*
X021890Y004649D01*
X021832Y004643D01*
X021774Y004641D01*
X021716Y004643D01*
X021658Y004649D01*
X021601Y004659D01*
X021545Y004673D01*
X021489Y004690D01*
X021435Y004711D01*
X021383Y004736D01*
X021332Y004765D01*
X021284Y004797D01*
X021238Y004832D01*
X021194Y004870D01*
X021153Y004911D01*
X021115Y004955D01*
X021080Y005001D01*
X021048Y005049D01*
X021019Y005100D01*
X020994Y005152D01*
X020973Y005206D01*
X020956Y005262D01*
X020942Y005318D01*
X020932Y005375D01*
X020926Y005433D01*
X020924Y005491D01*
X026515Y019972D02*
X026517Y020001D01*
X026523Y020029D01*
X026532Y020057D01*
X026545Y020083D01*
X026562Y020106D01*
X026581Y020128D01*
X026603Y020147D01*
X026628Y020162D01*
X026654Y020175D01*
X026682Y020183D01*
X026710Y020188D01*
X026739Y020189D01*
X026768Y020186D01*
X026796Y020179D01*
X026823Y020169D01*
X026849Y020155D01*
X026872Y020138D01*
X026893Y020118D01*
X026911Y020095D01*
X026926Y020070D01*
X026937Y020043D01*
X026945Y020015D01*
X026949Y019986D01*
X026949Y019958D01*
X026945Y019929D01*
X026937Y019901D01*
X026926Y019874D01*
X026911Y019849D01*
X026893Y019826D01*
X026872Y019806D01*
X026849Y019789D01*
X026823Y019775D01*
X026796Y019765D01*
X026768Y019758D01*
X026739Y019755D01*
X026710Y019756D01*
X026682Y019761D01*
X026654Y019769D01*
X026628Y019782D01*
X026603Y019797D01*
X026581Y019816D01*
X026562Y019838D01*
X026545Y019861D01*
X026532Y019887D01*
X026523Y019915D01*
X026517Y019943D01*
X026515Y019972D01*
X031082Y026969D02*
X031084Y027027D01*
X031090Y027085D01*
X031100Y027142D01*
X031114Y027198D01*
X031131Y027254D01*
X031152Y027308D01*
X031177Y027360D01*
X031206Y027411D01*
X031238Y027459D01*
X031273Y027505D01*
X031311Y027549D01*
X031352Y027590D01*
X031396Y027628D01*
X031442Y027663D01*
X031490Y027695D01*
X031541Y027724D01*
X031593Y027749D01*
X031647Y027770D01*
X031703Y027787D01*
X031759Y027801D01*
X031816Y027811D01*
X031874Y027817D01*
X031932Y027819D01*
X031990Y027817D01*
X032048Y027811D01*
X032105Y027801D01*
X032161Y027787D01*
X032217Y027770D01*
X032271Y027749D01*
X032323Y027724D01*
X032374Y027695D01*
X032422Y027663D01*
X032468Y027628D01*
X032512Y027590D01*
X032553Y027549D01*
X032591Y027505D01*
X032626Y027459D01*
X032658Y027411D01*
X032687Y027360D01*
X032712Y027308D01*
X032733Y027254D01*
X032750Y027198D01*
X032764Y027142D01*
X032774Y027085D01*
X032780Y027027D01*
X032782Y026969D01*
X032780Y026911D01*
X032774Y026853D01*
X032764Y026796D01*
X032750Y026740D01*
X032733Y026684D01*
X032712Y026630D01*
X032687Y026578D01*
X032658Y026527D01*
X032626Y026479D01*
X032591Y026433D01*
X032553Y026389D01*
X032512Y026348D01*
X032468Y026310D01*
X032422Y026275D01*
X032374Y026243D01*
X032323Y026214D01*
X032271Y026189D01*
X032217Y026168D01*
X032161Y026151D01*
X032105Y026137D01*
X032048Y026127D01*
X031990Y026121D01*
X031932Y026119D01*
X031874Y026121D01*
X031816Y026127D01*
X031759Y026137D01*
X031703Y026151D01*
X031647Y026168D01*
X031593Y026189D01*
X031541Y026214D01*
X031490Y026243D01*
X031442Y026275D01*
X031396Y026310D01*
X031352Y026348D01*
X031311Y026389D01*
X031273Y026433D01*
X031238Y026479D01*
X031206Y026527D01*
X031177Y026578D01*
X031152Y026630D01*
X031131Y026684D01*
X031114Y026740D01*
X031100Y026796D01*
X031090Y026853D01*
X031084Y026911D01*
X031082Y026969D01*
X031082Y031107D02*
X031084Y031165D01*
X031090Y031223D01*
X031100Y031280D01*
X031114Y031336D01*
X031131Y031392D01*
X031152Y031446D01*
X031177Y031498D01*
X031206Y031549D01*
X031238Y031597D01*
X031273Y031643D01*
X031311Y031687D01*
X031352Y031728D01*
X031396Y031766D01*
X031442Y031801D01*
X031490Y031833D01*
X031541Y031862D01*
X031593Y031887D01*
X031647Y031908D01*
X031703Y031925D01*
X031759Y031939D01*
X031816Y031949D01*
X031874Y031955D01*
X031932Y031957D01*
X031990Y031955D01*
X032048Y031949D01*
X032105Y031939D01*
X032161Y031925D01*
X032217Y031908D01*
X032271Y031887D01*
X032323Y031862D01*
X032374Y031833D01*
X032422Y031801D01*
X032468Y031766D01*
X032512Y031728D01*
X032553Y031687D01*
X032591Y031643D01*
X032626Y031597D01*
X032658Y031549D01*
X032687Y031498D01*
X032712Y031446D01*
X032733Y031392D01*
X032750Y031336D01*
X032764Y031280D01*
X032774Y031223D01*
X032780Y031165D01*
X032782Y031107D01*
X032780Y031049D01*
X032774Y030991D01*
X032764Y030934D01*
X032750Y030878D01*
X032733Y030822D01*
X032712Y030768D01*
X032687Y030716D01*
X032658Y030665D01*
X032626Y030617D01*
X032591Y030571D01*
X032553Y030527D01*
X032512Y030486D01*
X032468Y030448D01*
X032422Y030413D01*
X032374Y030381D01*
X032323Y030352D01*
X032271Y030327D01*
X032217Y030306D01*
X032161Y030289D01*
X032105Y030275D01*
X032048Y030265D01*
X031990Y030259D01*
X031932Y030257D01*
X031874Y030259D01*
X031816Y030265D01*
X031759Y030275D01*
X031703Y030289D01*
X031647Y030306D01*
X031593Y030327D01*
X031541Y030352D01*
X031490Y030381D01*
X031442Y030413D01*
X031396Y030448D01*
X031352Y030486D01*
X031311Y030527D01*
X031273Y030571D01*
X031238Y030617D01*
X031206Y030665D01*
X031177Y030716D01*
X031152Y030768D01*
X031131Y030822D01*
X031114Y030878D01*
X031100Y030934D01*
X031090Y030991D01*
X031084Y031049D01*
X031082Y031107D01*
X026417Y029815D02*
X026419Y029850D01*
X026425Y029885D01*
X026435Y029919D01*
X026448Y029952D01*
X026465Y029983D01*
X026486Y030011D01*
X026509Y030038D01*
X026536Y030061D01*
X026564Y030082D01*
X026595Y030099D01*
X026628Y030112D01*
X026662Y030122D01*
X026697Y030128D01*
X026732Y030130D01*
X026767Y030128D01*
X026802Y030122D01*
X026836Y030112D01*
X026869Y030099D01*
X026900Y030082D01*
X026928Y030061D01*
X026955Y030038D01*
X026978Y030011D01*
X026999Y029983D01*
X027016Y029952D01*
X027029Y029919D01*
X027039Y029885D01*
X027045Y029850D01*
X027047Y029815D01*
X027045Y029780D01*
X027039Y029745D01*
X027029Y029711D01*
X027016Y029678D01*
X026999Y029647D01*
X026978Y029619D01*
X026955Y029592D01*
X026928Y029569D01*
X026900Y029548D01*
X026869Y029531D01*
X026836Y029518D01*
X026802Y029508D01*
X026767Y029502D01*
X026732Y029500D01*
X026697Y029502D01*
X026662Y029508D01*
X026628Y029518D01*
X026595Y029531D01*
X026564Y029548D01*
X026536Y029569D01*
X026509Y029592D01*
X026486Y029619D01*
X026465Y029647D01*
X026448Y029678D01*
X026435Y029711D01*
X026425Y029745D01*
X026419Y029780D01*
X026417Y029815D01*
X006574Y029657D02*
X006576Y029692D01*
X006582Y029727D01*
X006592Y029761D01*
X006605Y029794D01*
X006622Y029825D01*
X006643Y029853D01*
X006666Y029880D01*
X006693Y029903D01*
X006721Y029924D01*
X006752Y029941D01*
X006785Y029954D01*
X006819Y029964D01*
X006854Y029970D01*
X006889Y029972D01*
X006924Y029970D01*
X006959Y029964D01*
X006993Y029954D01*
X007026Y029941D01*
X007057Y029924D01*
X007085Y029903D01*
X007112Y029880D01*
X007135Y029853D01*
X007156Y029825D01*
X007173Y029794D01*
X007186Y029761D01*
X007196Y029727D01*
X007202Y029692D01*
X007204Y029657D01*
X007202Y029622D01*
X007196Y029587D01*
X007186Y029553D01*
X007173Y029520D01*
X007156Y029489D01*
X007135Y029461D01*
X007112Y029434D01*
X007085Y029411D01*
X007057Y029390D01*
X007026Y029373D01*
X006993Y029360D01*
X006959Y029350D01*
X006924Y029344D01*
X006889Y029342D01*
X006854Y029344D01*
X006819Y029350D01*
X006785Y029360D01*
X006752Y029373D01*
X006721Y029390D01*
X006693Y029411D01*
X006666Y029434D01*
X006643Y029461D01*
X006622Y029489D01*
X006605Y029520D01*
X006592Y029553D01*
X006582Y029587D01*
X006576Y029622D01*
X006574Y029657D01*
X006672Y020130D02*
X006674Y020159D01*
X006680Y020187D01*
X006689Y020215D01*
X006702Y020241D01*
X006719Y020264D01*
X006738Y020286D01*
X006760Y020305D01*
X006785Y020320D01*
X006811Y020333D01*
X006839Y020341D01*
X006867Y020346D01*
X006896Y020347D01*
X006925Y020344D01*
X006953Y020337D01*
X006980Y020327D01*
X007006Y020313D01*
X007029Y020296D01*
X007050Y020276D01*
X007068Y020253D01*
X007083Y020228D01*
X007094Y020201D01*
X007102Y020173D01*
X007106Y020144D01*
X007106Y020116D01*
X007102Y020087D01*
X007094Y020059D01*
X007083Y020032D01*
X007068Y020007D01*
X007050Y019984D01*
X007029Y019964D01*
X007006Y019947D01*
X006980Y019933D01*
X006953Y019923D01*
X006925Y019916D01*
X006896Y019913D01*
X006867Y019914D01*
X006839Y019919D01*
X006811Y019927D01*
X006785Y019940D01*
X006760Y019955D01*
X006738Y019974D01*
X006719Y019996D01*
X006702Y020019D01*
X006689Y020045D01*
X006680Y020073D01*
X006674Y020101D01*
X006672Y020130D01*
D12*
X003605Y035855D03*
X032605Y035855D03*
X033605Y002105D03*
X002105Y002105D03*
D13*
X012935Y009701D02*
X012935Y009855D01*
X012935Y009701D02*
X012781Y009701D01*
X012781Y009855D01*
X012935Y009855D01*
X012935Y009854D02*
X012781Y009854D01*
D14*
X012358Y009778D03*
X011858Y009778D03*
X011358Y009778D03*
X010858Y009778D03*
X010358Y009778D03*
X009858Y009778D03*
X009358Y009778D03*
X008858Y009778D03*
X008358Y009778D03*
X007858Y009778D03*
X007358Y009778D03*
X007358Y010278D03*
X007358Y010778D03*
X007358Y011278D03*
X007858Y011278D03*
X007858Y010778D03*
X007858Y010278D03*
X008358Y010278D03*
X008858Y010278D03*
X008858Y010778D03*
X008358Y010778D03*
X008358Y011278D03*
X008858Y011278D03*
X009358Y011278D03*
X009358Y010778D03*
X009358Y010278D03*
X009858Y010278D03*
X009858Y010778D03*
X009858Y011278D03*
X010358Y011278D03*
X010358Y010778D03*
X010358Y010278D03*
X010858Y010278D03*
X011358Y010278D03*
X011358Y010778D03*
X010858Y010778D03*
X010858Y011278D03*
X011358Y011278D03*
X011858Y011278D03*
X011858Y010778D03*
X011858Y010278D03*
X012358Y010278D03*
X012358Y010778D03*
X012358Y011278D03*
X012858Y011278D03*
X012858Y010778D03*
X012858Y010278D03*
X012858Y011778D03*
X012858Y012278D03*
X012858Y012778D03*
X012858Y013278D03*
X012358Y013278D03*
X012358Y012778D03*
X012358Y012278D03*
X012358Y011778D03*
X011858Y011778D03*
X011858Y012278D03*
X011858Y012778D03*
X011858Y013278D03*
X011358Y013278D03*
X011358Y012778D03*
X011358Y012278D03*
X011358Y011778D03*
X010858Y011778D03*
X010358Y011778D03*
X010358Y012278D03*
X010858Y012278D03*
X010858Y012778D03*
X010858Y013278D03*
X010858Y013778D03*
X011358Y013778D03*
X011358Y014278D03*
X010858Y014278D03*
X010358Y014278D03*
X010358Y014778D03*
X010858Y014778D03*
X011358Y014778D03*
X011858Y014778D03*
X011858Y014278D03*
X011858Y013778D03*
X012358Y013778D03*
X012358Y014278D03*
X012358Y014778D03*
X012858Y014778D03*
X012858Y014278D03*
X012858Y013778D03*
X012858Y015278D03*
X012358Y015278D03*
X011858Y015278D03*
X011358Y015278D03*
X010858Y015278D03*
X010358Y015278D03*
X009858Y015278D03*
X009358Y015278D03*
X009358Y014778D03*
X009358Y014278D03*
X009358Y013778D03*
X009858Y013778D03*
X009858Y014278D03*
X009858Y014778D03*
X008858Y014778D03*
X008858Y014278D03*
X008858Y013778D03*
X008358Y013778D03*
X007858Y013778D03*
X007858Y014278D03*
X008358Y014278D03*
X008358Y014778D03*
X007858Y014778D03*
X007358Y014778D03*
X007358Y014278D03*
X007358Y013778D03*
X007358Y013278D03*
X007358Y012778D03*
X007358Y012278D03*
X007358Y011778D03*
X007858Y011778D03*
X008358Y011778D03*
X008858Y011778D03*
X008858Y012278D03*
X008358Y012278D03*
X007858Y012278D03*
X007858Y012778D03*
X008358Y012778D03*
X008858Y012778D03*
X008858Y013278D03*
X008358Y013278D03*
X007858Y013278D03*
X009358Y013278D03*
X009358Y012778D03*
X009358Y012278D03*
X009358Y011778D03*
X009858Y011778D03*
X009858Y012278D03*
X009858Y012778D03*
X009858Y013278D03*
X008858Y015278D03*
X008358Y015278D03*
X007858Y015278D03*
X007358Y015278D03*
D15*
X004696Y013118D03*
X003483Y016538D03*
X003483Y020279D03*
X004696Y009378D03*
D16*
X005605Y032855D03*
D17*
X005605Y033855D03*
X005605Y034855D03*
X005605Y035855D03*
X006605Y035855D03*
X006605Y034855D03*
X006605Y033855D03*
X006605Y032855D03*
X007605Y032855D03*
X007605Y033855D03*
X007605Y034855D03*
X007605Y035855D03*
X008605Y035855D03*
X009605Y035855D03*
X009605Y034855D03*
X009605Y033855D03*
X008605Y033855D03*
X008605Y034855D03*
X008605Y032855D03*
X009605Y032855D03*
X010605Y032855D03*
X010605Y033855D03*
X010605Y034855D03*
X010605Y035855D03*
X011605Y035855D03*
X011605Y034855D03*
X011605Y033855D03*
X011605Y032855D03*
X012605Y032855D03*
X012605Y033855D03*
X012605Y034855D03*
X012605Y035855D03*
X013605Y035855D03*
X014605Y035855D03*
X014605Y034855D03*
X014605Y033855D03*
X013605Y033855D03*
X013605Y034855D03*
X013605Y032855D03*
X014605Y032855D03*
X015605Y032855D03*
X015605Y033855D03*
X015605Y034855D03*
X015605Y035855D03*
X016605Y035855D03*
X016605Y034855D03*
X016605Y033855D03*
X016605Y032855D03*
X017605Y032855D03*
X017605Y033855D03*
X017605Y034855D03*
X017605Y035855D03*
X018605Y035855D03*
X019605Y035855D03*
X019605Y034855D03*
X019605Y033855D03*
X018605Y033855D03*
X018605Y034855D03*
X018605Y032855D03*
X019605Y032855D03*
X020605Y032855D03*
X020605Y033855D03*
X020605Y034855D03*
X020605Y035855D03*
X021605Y035855D03*
X021605Y034855D03*
X021605Y033855D03*
X021605Y032855D03*
X022605Y032855D03*
X022605Y033855D03*
X022605Y034855D03*
X022605Y035855D03*
X023605Y035855D03*
X024605Y035855D03*
X024605Y034855D03*
X024605Y033855D03*
X023605Y033855D03*
X023605Y034855D03*
X023605Y032855D03*
X024605Y032855D03*
X025605Y032855D03*
X025605Y033855D03*
X025605Y034855D03*
X025605Y035855D03*
X026605Y035855D03*
X026605Y034855D03*
X026605Y033855D03*
X026605Y032855D03*
X027605Y032855D03*
X027605Y033855D03*
X027605Y034855D03*
X027605Y035855D03*
X028605Y035855D03*
X029605Y035855D03*
X029605Y034855D03*
X029605Y033855D03*
X028605Y033855D03*
X028605Y034855D03*
X028605Y032855D03*
X029605Y032855D03*
X030605Y032855D03*
X030605Y033855D03*
X030605Y034855D03*
X030605Y035855D03*
D18*
X026732Y029815D03*
X006889Y029657D03*
D19*
X006889Y020130D03*
X026732Y019972D03*
D20*
X011543Y021274D03*
X009963Y004548D03*
D21*
X012573Y004225D02*
X014203Y004225D01*
X012573Y004225D02*
X012573Y004871D01*
X014203Y004871D01*
X014203Y004225D01*
X014203Y004386D02*
X012573Y004386D01*
X012573Y004547D02*
X014203Y004547D01*
X014203Y004708D02*
X012573Y004708D01*
X012573Y004869D02*
X014203Y004869D01*
X014153Y020951D02*
X015783Y020951D01*
X014153Y020951D02*
X014153Y021597D01*
X015783Y021597D01*
X015783Y020951D01*
X015783Y021112D02*
X014153Y021112D01*
X014153Y021273D02*
X015783Y021273D01*
X015783Y021434D02*
X014153Y021434D01*
X014153Y021595D02*
X015783Y021595D01*
D22*
X008643Y018100D02*
X008279Y018100D01*
X008643Y018100D02*
X008643Y017028D01*
X008279Y017028D01*
X008279Y018100D01*
X008279Y017118D02*
X008643Y017118D01*
X008643Y017208D02*
X008279Y017208D01*
X008279Y017298D02*
X008643Y017298D01*
X008643Y017388D02*
X008279Y017388D01*
X008279Y017478D02*
X008643Y017478D01*
X008643Y017568D02*
X008279Y017568D01*
X008279Y017658D02*
X008643Y017658D01*
X008643Y017748D02*
X008279Y017748D01*
X008279Y017838D02*
X008643Y017838D01*
X008643Y017928D02*
X008279Y017928D01*
X008279Y018018D02*
X008643Y018018D01*
D23*
X009623Y017564D03*
D24*
X010066Y016098D03*
X011186Y016098D03*
D25*
X011759Y008755D03*
X010578Y008755D03*
X010588Y007491D03*
X011769Y007491D03*
D26*
X013689Y012188D03*
X013689Y012858D03*
D27*
X014584Y013932D03*
X014584Y014680D03*
X013705Y015650D03*
X013705Y016398D03*
X014682Y011813D03*
X014682Y011144D03*
X028092Y017104D03*
X028092Y017773D03*
D28*
G36*
X010168Y008425D02*
X009333Y007590D01*
X008734Y008189D01*
X009569Y009024D01*
X010168Y008425D01*
G37*
G36*
X008830Y007106D02*
X007995Y006271D01*
X007396Y006870D01*
X008231Y007705D01*
X008830Y007106D01*
G37*
D29*
X006045Y004301D03*
X005533Y004301D03*
X005316Y003779D03*
X004804Y003779D03*
X004567Y004291D03*
X004055Y004291D03*
X006158Y003777D03*
X006669Y003777D03*
D30*
X016587Y004546D03*
X017375Y004546D03*
X018162Y004546D03*
X018950Y004546D03*
X019737Y004546D03*
X019737Y006436D03*
X018950Y006436D03*
X018162Y006436D03*
X017375Y006436D03*
X016587Y006436D03*
X016505Y008283D03*
X017292Y008283D03*
X018080Y008283D03*
X018867Y008283D03*
X019655Y008283D03*
X020442Y008283D03*
X020524Y006436D03*
X020442Y010173D03*
X019655Y010173D03*
X018867Y010173D03*
X018080Y010173D03*
X017292Y010173D03*
D31*
X016664Y009581D02*
X016346Y009581D01*
X016346Y010765D01*
X016664Y010765D01*
X016664Y009581D01*
X016664Y009716D02*
X016346Y009716D01*
X016346Y009851D02*
X016664Y009851D01*
X016664Y009986D02*
X016346Y009986D01*
X016346Y010121D02*
X016664Y010121D01*
X016664Y010256D02*
X016346Y010256D01*
X016346Y010391D02*
X016664Y010391D01*
X016664Y010526D02*
X016346Y010526D01*
X016346Y010661D02*
X016664Y010661D01*
X020365Y005138D02*
X020683Y005138D01*
X020683Y003954D01*
X020365Y003954D01*
X020365Y005138D01*
X020365Y004089D02*
X020683Y004089D01*
X020683Y004224D02*
X020365Y004224D01*
X020365Y004359D02*
X020683Y004359D01*
X020683Y004494D02*
X020365Y004494D01*
X020365Y004629D02*
X020683Y004629D01*
X020683Y004764D02*
X020365Y004764D01*
X020365Y004899D02*
X020683Y004899D01*
X020683Y005034D02*
X020365Y005034D01*
X031579Y028060D02*
X031579Y028378D01*
X031579Y028060D02*
X030395Y028060D01*
X030395Y028378D01*
X031579Y028378D01*
X031579Y028195D02*
X030395Y028195D01*
X030395Y028330D02*
X031579Y028330D01*
D32*
X031932Y026969D03*
X031932Y031107D03*
X021755Y009228D03*
X021774Y005491D03*
X015274Y005491D03*
X015255Y009228D03*
D33*
X032877Y028219D03*
X032877Y029006D03*
X032877Y029794D03*
X030987Y029794D03*
X030987Y029006D03*
D34*
X008418Y004965D03*
X007839Y004965D03*
X007206Y004955D03*
X006627Y004955D03*
X005897Y004946D03*
X005318Y004946D03*
X004586Y004937D03*
X004007Y004937D03*
X003960Y002388D03*
X004539Y002388D03*
X005101Y002388D03*
X005680Y002388D03*
X006222Y002378D03*
X006801Y002378D03*
X007372Y002378D03*
X007951Y002378D03*
D35*
X007661Y002898D03*
X006511Y002898D03*
X005390Y002908D03*
X004249Y002908D03*
X004297Y005457D03*
X005607Y005466D03*
X006917Y005475D03*
X008128Y005485D03*
D36*
X025135Y004286D02*
X025443Y004286D01*
X025135Y004286D02*
X025135Y005494D01*
X025443Y005494D01*
X025443Y004286D01*
X025443Y004537D02*
X025135Y004537D01*
X025135Y004788D02*
X025443Y004788D01*
X025443Y005039D02*
X025135Y005039D01*
X025135Y005290D02*
X025443Y005290D01*
D37*
X026289Y004890D03*
X027289Y004890D03*
X028289Y004890D03*
X029289Y004890D03*
X029289Y002840D03*
X028289Y002840D03*
X027289Y002840D03*
X026289Y002840D03*
X025289Y002840D03*
D38*
X015892Y011852D03*
X015892Y012452D03*
X003570Y021399D03*
X003570Y021999D03*
X029180Y017748D03*
X029180Y017148D03*
D39*
X029180Y017448D03*
X015892Y012152D03*
X003570Y021699D03*
D40*
X016508Y013786D03*
X017108Y013786D03*
D41*
X016808Y013786D03*
D42*
X013018Y014554D03*
X013038Y015046D03*
X011621Y015026D03*
X011601Y015499D03*
X011109Y015499D03*
X011109Y015026D03*
X011109Y014534D03*
X011601Y014534D03*
X011601Y014042D03*
X011109Y014042D03*
X011109Y013530D03*
X011109Y013058D03*
X011621Y013038D03*
X011621Y013550D03*
X011601Y012034D03*
X011109Y011542D03*
X011089Y011030D03*
X011601Y011030D03*
X012113Y011030D03*
X012113Y011522D03*
X012113Y010538D03*
X012113Y010026D03*
X012113Y009574D03*
X011621Y009554D03*
X011601Y010026D03*
X011601Y010538D03*
X012605Y010026D03*
X012625Y009574D03*
X013058Y010007D03*
X013058Y010558D03*
X010617Y009574D03*
X010105Y010026D03*
X010105Y010538D03*
X009613Y010538D03*
X009613Y010026D03*
X009613Y009534D03*
X008629Y009554D03*
X008609Y010026D03*
X008609Y010538D03*
X008117Y010538D03*
X007625Y010538D03*
X007625Y010026D03*
X007605Y009574D03*
X007605Y009574D03*
X007152Y009554D03*
X007152Y010026D03*
X007133Y010538D03*
X007133Y011011D03*
X007605Y011030D03*
X008097Y011030D03*
X008609Y011030D03*
X009613Y011050D03*
X010105Y011030D03*
X009613Y012014D03*
X009613Y012526D03*
X009121Y012526D03*
X009121Y012526D03*
X009101Y012034D03*
X008609Y012034D03*
X008097Y012034D03*
X007605Y012034D03*
X007152Y012034D03*
X007133Y013038D03*
X007113Y013530D03*
X007605Y013530D03*
X007605Y013038D03*
X008117Y013038D03*
X008117Y013530D03*
X008609Y013530D03*
X009613Y013530D03*
X009613Y013018D03*
X009613Y013018D03*
X010046Y013038D03*
X010046Y013530D03*
X010085Y014042D03*
X009613Y014042D03*
X009613Y014534D03*
X009633Y015026D03*
X009613Y015538D03*
X010105Y015538D03*
X010105Y015046D03*
X010105Y014534D03*
X008609Y014534D03*
X008609Y015026D03*
X008609Y015499D03*
X008097Y015499D03*
X008117Y015026D03*
X008117Y014554D03*
X007625Y014554D03*
X007605Y015026D03*
X007605Y015479D03*
X007133Y015479D03*
X007113Y015026D03*
X007133Y014554D03*
X008097Y010046D03*
X008117Y009554D03*
D43*
X007455Y007255D03*
X007555Y005555D03*
X007505Y004755D03*
X007505Y004405D03*
X006655Y004155D03*
X006005Y003405D03*
X005555Y003455D03*
X005205Y004655D03*
X005555Y004705D03*
X005005Y005355D03*
X004355Y004705D03*
X003705Y004955D03*
X006305Y005205D03*
X008905Y005005D03*
X009155Y003055D03*
X010655Y003855D03*
X011105Y004105D03*
X012955Y005155D03*
X012605Y006705D03*
X011255Y006555D03*
X009705Y007505D03*
X009355Y007005D03*
X013305Y009055D03*
X013905Y011155D03*
X013205Y011255D03*
X013255Y011905D03*
X013255Y012255D03*
X013205Y012755D03*
X014105Y012905D03*
X013205Y013705D03*
X014055Y014655D03*
X015105Y014455D03*
X015255Y012355D03*
X017555Y013805D03*
X018405Y011105D03*
X018055Y011005D03*
X018055Y009305D03*
X019255Y008005D03*
X019205Y007305D03*
X018505Y007455D03*
X017005Y006655D03*
X017705Y005355D03*
X018805Y005605D03*
X021055Y007355D03*
X021105Y008055D03*
X020255Y009305D03*
X021055Y010455D03*
X021805Y010505D03*
X022355Y011405D03*
X023855Y009555D03*
X024605Y009055D03*
X024005Y008005D03*
X023805Y006655D03*
X025805Y005455D03*
X026255Y005805D03*
X024755Y003955D03*
X026755Y002355D03*
X027605Y001805D03*
X027755Y002105D03*
X027755Y002655D03*
X028755Y005205D03*
X029855Y008005D03*
X029755Y008355D03*
X030655Y009905D03*
X032405Y008005D03*
X032155Y006605D03*
X026355Y008255D03*
X025655Y009805D03*
X020455Y012955D03*
X019405Y017205D03*
X021155Y017805D03*
X023555Y020205D03*
X025705Y021255D03*
X027755Y021005D03*
X027755Y021655D03*
X027755Y022755D03*
X027755Y023905D03*
X027755Y024855D03*
X028955Y022505D03*
X024505Y024855D03*
X027755Y028205D03*
X019805Y021505D03*
X014505Y017055D03*
X013205Y016355D03*
X013205Y015655D03*
X012455Y015605D03*
X011955Y015605D03*
X010605Y015555D03*
X010105Y017405D03*
X011105Y018855D03*
X010305Y012905D03*
X010328Y012596D03*
X016155Y004655D03*
X013705Y003605D03*
X012305Y001205D03*
X007805Y001955D03*
X007355Y002055D03*
X006205Y001955D03*
X005905Y002155D03*
X005855Y001455D03*
X006155Y000755D03*
X004805Y001705D03*
X004605Y002005D03*
X004705Y021405D03*
X027605Y017105D03*
X029655Y015055D03*
D44*
X025289Y004890D03*
X018162Y004546D03*
X013388Y004548D03*
X016505Y010173D03*
D45*
X013806Y004396D03*
M02*
