G75*
%MOIN*%
%OFA0B0*%
%FSLAX24Y24*%
%IPPOS*%
%LPD*%
%AMOC8*
5,1,8,0,0,1.08239X$1,22.5*
%
%ADD10C,0.2560*%
%ADD11R,0.0660X0.0660*%
%ADD12C,0.0660*%
%ADD13C,0.0690*%
%ADD14C,0.0493*%
%ADD15C,0.0154*%
%ADD16R,0.0308X0.0308*%
%ADD17C,0.0300*%
D10*
X002105Y002105D03*
X033605Y002105D03*
X032605Y035855D03*
X003605Y035855D03*
D11*
X005605Y034855D03*
X005605Y032855D03*
D12*
X005605Y033855D03*
X006605Y033855D03*
X006605Y034855D03*
X006605Y035855D03*
X005605Y035855D03*
X007605Y035855D03*
X007605Y034855D03*
X007605Y033855D03*
X007605Y032855D03*
X006605Y032855D03*
X008605Y032855D03*
X009605Y032855D03*
X009605Y033855D03*
X009605Y034855D03*
X008605Y034855D03*
X008605Y033855D03*
X008605Y035855D03*
X009605Y035855D03*
X010605Y035855D03*
X010605Y034855D03*
X010605Y033855D03*
X010605Y032855D03*
X011605Y032855D03*
X011605Y033855D03*
X011605Y034855D03*
X011605Y035855D03*
X012605Y035855D03*
X012605Y034855D03*
X012605Y033855D03*
X012605Y032855D03*
X013605Y032855D03*
X014605Y032855D03*
X014605Y033855D03*
X014605Y034855D03*
X013605Y034855D03*
X013605Y033855D03*
X013605Y035855D03*
X014605Y035855D03*
X015605Y035855D03*
X015605Y034855D03*
X015605Y033855D03*
X015605Y032855D03*
X016605Y032855D03*
X016605Y033855D03*
X016605Y034855D03*
X016605Y035855D03*
X017605Y035855D03*
X017605Y034855D03*
X017605Y033855D03*
X017605Y032855D03*
X018605Y032855D03*
X019605Y032855D03*
X019605Y033855D03*
X019605Y034855D03*
X018605Y034855D03*
X018605Y033855D03*
X018605Y035855D03*
X019605Y035855D03*
X020605Y035855D03*
X020605Y034855D03*
X020605Y033855D03*
X020605Y032855D03*
X021605Y032855D03*
X021605Y033855D03*
X021605Y034855D03*
X021605Y035855D03*
X022605Y035855D03*
X022605Y034855D03*
X022605Y033855D03*
X022605Y032855D03*
X023605Y032855D03*
X024605Y032855D03*
X024605Y033855D03*
X024605Y034855D03*
X023605Y034855D03*
X023605Y033855D03*
X023605Y035855D03*
X024605Y035855D03*
X025605Y035855D03*
X025605Y034855D03*
X025605Y033855D03*
X025605Y032855D03*
X026605Y032855D03*
X026605Y033855D03*
X026605Y034855D03*
X026605Y035855D03*
X027605Y035855D03*
X027605Y034855D03*
X027605Y033855D03*
X027605Y032855D03*
X028605Y032855D03*
X029605Y032855D03*
X029605Y033855D03*
X029605Y034855D03*
X028605Y034855D03*
X028605Y033855D03*
X028605Y035855D03*
X029605Y035855D03*
X030605Y035855D03*
X030605Y034855D03*
X030605Y033855D03*
X030605Y032855D03*
D13*
X028011Y019150D03*
X008168Y018993D03*
D14*
X008168Y028835D03*
X028011Y028678D03*
D15*
X007511Y007957D02*
X007357Y007957D01*
X007357Y008111D01*
X007511Y008111D01*
X007511Y007957D01*
X007511Y008110D02*
X007357Y008110D01*
D16*
X007434Y008534D03*
X007434Y009034D03*
X007934Y009034D03*
X007934Y008534D03*
X007934Y008034D03*
X008434Y008034D03*
X008434Y008534D03*
X008434Y009034D03*
X008934Y009034D03*
X008934Y008534D03*
X008934Y008034D03*
X009434Y008034D03*
X009934Y008034D03*
X009934Y008534D03*
X009434Y008534D03*
X009434Y009034D03*
X009934Y009034D03*
X010434Y009034D03*
X010434Y008534D03*
X010434Y008034D03*
X010934Y008034D03*
X010934Y008534D03*
X010934Y009034D03*
X011434Y009034D03*
X011434Y008534D03*
X011434Y008034D03*
X011934Y008034D03*
X012434Y008034D03*
X012434Y008534D03*
X011934Y008534D03*
X011934Y009034D03*
X012434Y009034D03*
X012934Y009034D03*
X012934Y008534D03*
X012934Y008034D03*
X012934Y009534D03*
X012934Y010034D03*
X012934Y010534D03*
X012434Y010534D03*
X012434Y010034D03*
X012434Y009534D03*
X011934Y009534D03*
X011434Y009534D03*
X011434Y010034D03*
X011934Y010034D03*
X011934Y010534D03*
X011934Y011034D03*
X012434Y011034D03*
X012434Y011534D03*
X011934Y011534D03*
X011434Y011534D03*
X011434Y011034D03*
X010934Y011034D03*
X010434Y011034D03*
X010434Y011534D03*
X010934Y011534D03*
X010934Y012034D03*
X010434Y012034D03*
X009934Y012034D03*
X009934Y011534D03*
X009934Y011034D03*
X009434Y011034D03*
X008934Y011034D03*
X008934Y011534D03*
X009434Y011534D03*
X009434Y012034D03*
X008934Y012034D03*
X008434Y012034D03*
X008434Y011534D03*
X008434Y011034D03*
X007934Y011034D03*
X007934Y011534D03*
X007934Y012034D03*
X007434Y012034D03*
X007434Y011534D03*
X007434Y011034D03*
X007434Y010534D03*
X007434Y010034D03*
X007434Y009534D03*
X007934Y009534D03*
X008434Y009534D03*
X008434Y010034D03*
X007934Y010034D03*
X007934Y010534D03*
X008434Y010534D03*
X008934Y010534D03*
X008934Y010034D03*
X008934Y009534D03*
X009434Y009534D03*
X009934Y009534D03*
X009934Y010034D03*
X009434Y010034D03*
X009434Y010534D03*
X009934Y010534D03*
X010434Y010034D03*
X010434Y009534D03*
X010934Y009534D03*
X010934Y010034D03*
X011434Y012034D03*
X011934Y012034D03*
X012434Y012034D03*
X012934Y012034D03*
X012934Y011534D03*
X012934Y011034D03*
X012934Y012534D03*
X012934Y013034D03*
X012934Y013534D03*
X012434Y013534D03*
X012434Y013034D03*
X012434Y012534D03*
X011934Y012534D03*
X011434Y012534D03*
X011434Y013034D03*
X011934Y013034D03*
X011934Y013534D03*
X011434Y013534D03*
X010934Y013534D03*
X010934Y013034D03*
X010934Y012534D03*
X010434Y012534D03*
X010434Y013034D03*
X010434Y013534D03*
X009934Y013534D03*
X009934Y013034D03*
X009934Y012534D03*
X009434Y012534D03*
X008934Y012534D03*
X008934Y013034D03*
X009434Y013034D03*
X009434Y013534D03*
X008934Y013534D03*
X008434Y013534D03*
X008434Y013034D03*
X008434Y012534D03*
X007934Y012534D03*
X007934Y013034D03*
X007934Y013534D03*
X007434Y013534D03*
X007434Y013034D03*
X007434Y012534D03*
D17*
X007679Y012770D03*
X007673Y012260D03*
X008177Y012262D03*
X008205Y012763D03*
X008195Y013285D03*
X007675Y013295D03*
X007045Y012955D03*
X006966Y013586D03*
X008711Y013279D03*
X008690Y012767D03*
X008680Y012269D03*
X008688Y011280D03*
X008684Y010766D03*
X008184Y010770D03*
X007682Y010770D03*
X007676Y011278D03*
X008207Y011302D03*
X007692Y010249D03*
X007670Y009276D03*
X007684Y008784D03*
X008196Y008762D03*
X008184Y009262D03*
X008698Y009253D03*
X008686Y008792D03*
X009186Y009262D03*
X009192Y009766D03*
X008686Y009774D03*
X009694Y009755D03*
X009688Y009268D03*
X010194Y009262D03*
X010686Y009272D03*
X010686Y009774D03*
X010184Y009776D03*
X011186Y009776D03*
X011688Y009774D03*
X011686Y009262D03*
X011176Y009262D03*
X012170Y009270D03*
X012190Y009774D03*
X012682Y009774D03*
X012680Y009270D03*
X012701Y008762D03*
X012170Y008761D03*
X012670Y008268D03*
X012711Y010770D03*
X012703Y011274D03*
X012199Y011262D03*
X012180Y010762D03*
X011688Y011253D03*
X011196Y011266D03*
X010692Y011282D03*
X010203Y011284D03*
X009699Y011249D03*
X009680Y011772D03*
X009676Y012274D03*
X009662Y012780D03*
X009664Y013290D03*
X010674Y013276D03*
X010686Y012739D03*
X011188Y012766D03*
X011182Y013272D03*
X011176Y012259D03*
X012199Y012243D03*
X012199Y012741D03*
X012709Y012753D03*
X012709Y012251D03*
X012190Y013255D03*
X012690Y013290D03*
X010192Y011794D03*
X008184Y008268D03*
X007694Y008278D03*
M02*
