G75*
%MOIN*%
%OFA0B0*%
%FSLAX24Y24*%
%IPPOS*%
%LPD*%
%AMOC8*
5,1,8,0,0,1.08239X$1,22.5*
%
%ADD10C,0.2500*%
%ADD11C,0.0600*%
%ADD12C,0.0240*%
D10*
X002105Y002105D03*
X033605Y002105D03*
X032605Y035855D03*
X003605Y035855D03*
D11*
X005605Y035855D03*
X005605Y034855D03*
X005605Y033855D03*
X005605Y032855D03*
X006605Y032855D03*
X006605Y033855D03*
X006605Y034855D03*
X006605Y035855D03*
X007605Y035855D03*
X007605Y034855D03*
X007605Y033855D03*
X007605Y032855D03*
X008605Y032855D03*
X009605Y032855D03*
X009605Y033855D03*
X009605Y034855D03*
X008605Y034855D03*
X008605Y033855D03*
X008605Y035855D03*
X009605Y035855D03*
X010605Y035855D03*
X010605Y034855D03*
X010605Y033855D03*
X010605Y032855D03*
X011605Y032855D03*
X011605Y033855D03*
X011605Y034855D03*
X011605Y035855D03*
X012605Y035855D03*
X012605Y034855D03*
X012605Y033855D03*
X012605Y032855D03*
X013605Y032855D03*
X014605Y032855D03*
X014605Y033855D03*
X014605Y034855D03*
X013605Y034855D03*
X013605Y033855D03*
X013605Y035855D03*
X014605Y035855D03*
X015605Y035855D03*
X015605Y034855D03*
X015605Y033855D03*
X015605Y032855D03*
X016605Y032855D03*
X016605Y033855D03*
X016605Y034855D03*
X016605Y035855D03*
X017605Y035855D03*
X017605Y034855D03*
X017605Y033855D03*
X017605Y032855D03*
X018605Y032855D03*
X019605Y032855D03*
X019605Y033855D03*
X019605Y034855D03*
X018605Y034855D03*
X018605Y033855D03*
X018605Y035855D03*
X019605Y035855D03*
X020605Y035855D03*
X020605Y034855D03*
X020605Y033855D03*
X020605Y032855D03*
X021605Y032855D03*
X021605Y033855D03*
X021605Y034855D03*
X021605Y035855D03*
X022605Y035855D03*
X022605Y034855D03*
X022605Y033855D03*
X022605Y032855D03*
X023605Y032855D03*
X024605Y032855D03*
X024605Y033855D03*
X024605Y034855D03*
X023605Y034855D03*
X023605Y033855D03*
X023605Y035855D03*
X024605Y035855D03*
X025605Y035855D03*
X025605Y034855D03*
X025605Y033855D03*
X025605Y032855D03*
X026605Y032855D03*
X026605Y033855D03*
X026605Y034855D03*
X026605Y035855D03*
X027605Y035855D03*
X027605Y034855D03*
X027605Y033855D03*
X027605Y032855D03*
X028605Y032855D03*
X029605Y032855D03*
X029605Y033855D03*
X029605Y034855D03*
X028605Y034855D03*
X028605Y033855D03*
X028605Y035855D03*
X029605Y035855D03*
X030605Y035855D03*
X030605Y034855D03*
X030605Y033855D03*
X030605Y032855D03*
D12*
X012690Y013290D03*
X012190Y013255D03*
X012199Y012741D03*
X012199Y012243D03*
X012709Y012251D03*
X012709Y012753D03*
X012703Y011274D03*
X012199Y011262D03*
X012180Y010762D03*
X012711Y010770D03*
X012682Y009774D03*
X012190Y009774D03*
X012170Y009270D03*
X012170Y008761D03*
X012701Y008762D03*
X012680Y009270D03*
X011686Y009262D03*
X011176Y009262D03*
X011186Y009776D03*
X011688Y009774D03*
X010686Y009774D03*
X010686Y009272D03*
X010194Y009262D03*
X009688Y009268D03*
X009694Y009755D03*
X010184Y009776D03*
X009192Y009766D03*
X009186Y009262D03*
X008698Y009253D03*
X008686Y008792D03*
X008196Y008762D03*
X008184Y009262D03*
X007670Y009276D03*
X007684Y008784D03*
X007694Y008278D03*
X008184Y008268D03*
X008686Y009774D03*
X008684Y010766D03*
X008688Y011280D03*
X008207Y011302D03*
X007676Y011278D03*
X007682Y010770D03*
X008184Y010770D03*
X007692Y010249D03*
X007673Y012260D03*
X008177Y012262D03*
X008205Y012763D03*
X008195Y013285D03*
X007675Y013295D03*
X007679Y012770D03*
X007045Y012955D03*
X006966Y013586D03*
X008711Y013279D03*
X008690Y012767D03*
X008680Y012269D03*
X009676Y012274D03*
X009680Y011772D03*
X010192Y011794D03*
X010203Y011284D03*
X010692Y011282D03*
X011196Y011266D03*
X011688Y011253D03*
X011176Y012259D03*
X011188Y012766D03*
X011182Y013272D03*
X010674Y013276D03*
X010686Y012739D03*
X009662Y012780D03*
X009664Y013290D03*
X009699Y011249D03*
X012670Y008268D03*
M02*
