G75*
%MOIN*%
%OFA0B0*%
%FSLAX24Y24*%
%IPPOS*%
%LPD*%
%AMOC8*
5,1,8,0,0,1.08239X$1,22.5*
%
%ADD10C,0.0124*%
%ADD11R,0.0248X0.0248*%
D10*
X007372Y007972D02*
X007496Y007972D01*
X007372Y007972D02*
X007372Y008096D01*
X007496Y008096D01*
X007496Y007972D01*
X007496Y008095D02*
X007372Y008095D01*
D11*
X007434Y008534D03*
X007434Y009034D03*
X007934Y009034D03*
X007934Y008534D03*
X007934Y008034D03*
X008434Y008034D03*
X008434Y008534D03*
X008434Y009034D03*
X008934Y009034D03*
X008934Y008534D03*
X008934Y008034D03*
X009434Y008034D03*
X009934Y008034D03*
X009934Y008534D03*
X009434Y008534D03*
X009434Y009034D03*
X009934Y009034D03*
X010434Y009034D03*
X010434Y008534D03*
X010434Y008034D03*
X010934Y008034D03*
X010934Y008534D03*
X010934Y009034D03*
X011434Y009034D03*
X011434Y008534D03*
X011434Y008034D03*
X011934Y008034D03*
X012434Y008034D03*
X012434Y008534D03*
X011934Y008534D03*
X011934Y009034D03*
X012434Y009034D03*
X012934Y009034D03*
X012934Y008534D03*
X012934Y008034D03*
X012934Y009534D03*
X012934Y010034D03*
X012934Y010534D03*
X012434Y010534D03*
X012434Y010034D03*
X012434Y009534D03*
X011934Y009534D03*
X011434Y009534D03*
X011434Y010034D03*
X011934Y010034D03*
X011934Y010534D03*
X011934Y011034D03*
X012434Y011034D03*
X012434Y011534D03*
X011934Y011534D03*
X011434Y011534D03*
X011434Y011034D03*
X010934Y011034D03*
X010434Y011034D03*
X010434Y011534D03*
X010934Y011534D03*
X010934Y012034D03*
X010434Y012034D03*
X009934Y012034D03*
X009934Y011534D03*
X009934Y011034D03*
X009434Y011034D03*
X008934Y011034D03*
X008934Y011534D03*
X009434Y011534D03*
X009434Y012034D03*
X008934Y012034D03*
X008434Y012034D03*
X008434Y011534D03*
X008434Y011034D03*
X007934Y011034D03*
X007934Y011534D03*
X007934Y012034D03*
X007434Y012034D03*
X007434Y011534D03*
X007434Y011034D03*
X007434Y010534D03*
X007434Y010034D03*
X007434Y009534D03*
X007934Y009534D03*
X008434Y009534D03*
X008434Y010034D03*
X007934Y010034D03*
X007934Y010534D03*
X008434Y010534D03*
X008934Y010534D03*
X008934Y010034D03*
X008934Y009534D03*
X009434Y009534D03*
X009934Y009534D03*
X009934Y010034D03*
X009434Y010034D03*
X009434Y010534D03*
X009934Y010534D03*
X010434Y010034D03*
X010434Y009534D03*
X010934Y009534D03*
X010934Y010034D03*
X011434Y012034D03*
X011934Y012034D03*
X012434Y012034D03*
X012934Y012034D03*
X012934Y011534D03*
X012934Y011034D03*
X012934Y012534D03*
X012934Y013034D03*
X012934Y013534D03*
X012434Y013534D03*
X012434Y013034D03*
X012434Y012534D03*
X011934Y012534D03*
X011434Y012534D03*
X011434Y013034D03*
X011934Y013034D03*
X011934Y013534D03*
X011434Y013534D03*
X010934Y013534D03*
X010934Y013034D03*
X010934Y012534D03*
X010434Y012534D03*
X010434Y013034D03*
X010434Y013534D03*
X009934Y013534D03*
X009934Y013034D03*
X009934Y012534D03*
X009434Y012534D03*
X008934Y012534D03*
X008934Y013034D03*
X009434Y013034D03*
X009434Y013534D03*
X008934Y013534D03*
X008434Y013534D03*
X008434Y013034D03*
X008434Y012534D03*
X007934Y012534D03*
X007934Y013034D03*
X007934Y013534D03*
X007434Y013534D03*
X007434Y013034D03*
X007434Y012534D03*
M02*
