G75*
%MOIN*%
%OFA0B0*%
%FSLAX24Y24*%
%IPPOS*%
%LPD*%
%AMOC8*
5,1,8,0,0,1.08239X$1,22.5*
%
%ADD10R,0.0354X0.0276*%
%ADD11R,0.0276X0.0354*%
%ADD12R,0.0250X0.1201*%
%ADD13R,0.0512X0.0591*%
%ADD14R,0.0460X0.0630*%
%ADD15R,0.0400X0.1050*%
%ADD16R,0.0236X0.0610*%
%ADD17C,0.0165*%
%ADD18R,0.0591X0.0512*%
%ADD19R,0.0630X0.0460*%
%ADD20R,0.0264X0.0118*%
%ADD21R,0.0197X0.0118*%
%ADD22R,0.0394X0.0138*%
%ADD23R,0.0630X0.1063*%
D10*
X022336Y012856D03*
X022336Y013368D03*
X022876Y013433D03*
X022876Y012921D03*
X023382Y012919D03*
X023382Y013430D03*
X022224Y014107D03*
X022224Y014619D03*
X023574Y012025D03*
X023574Y011513D03*
D11*
X023357Y014763D03*
X022846Y014763D03*
X022990Y015423D03*
X023502Y015423D03*
X023310Y015989D03*
X023822Y015989D03*
D12*
X004341Y015366D03*
X003917Y015366D03*
X003187Y016002D03*
X002763Y016002D03*
X002052Y015990D03*
X001628Y015990D03*
X001206Y015997D03*
X000782Y015997D03*
X000785Y014573D03*
X001209Y014573D03*
X001626Y014583D03*
X002050Y014583D03*
X002754Y014599D03*
X003178Y014599D03*
X003911Y013986D03*
X004335Y013986D03*
D13*
X014036Y013728D03*
X014784Y013728D03*
D14*
X021810Y023620D03*
X022410Y023620D03*
D15*
X000799Y013216D03*
D16*
X013233Y017424D03*
X013245Y021133D03*
D17*
X012781Y021356D02*
X012709Y021356D01*
X012781Y021356D02*
X012781Y020910D01*
X012709Y020910D01*
X012709Y021356D01*
X012709Y021074D02*
X012781Y021074D01*
X012781Y021238D02*
X012709Y021238D01*
X012281Y021356D02*
X012209Y021356D01*
X012281Y021356D02*
X012281Y020910D01*
X012209Y020910D01*
X012209Y021356D01*
X012209Y021074D02*
X012281Y021074D01*
X012281Y021238D02*
X012209Y021238D01*
X011781Y021368D02*
X011709Y021368D01*
X011781Y021368D02*
X011781Y020922D01*
X011709Y020922D01*
X011709Y021368D01*
X011709Y021086D02*
X011781Y021086D01*
X011781Y021250D02*
X011709Y021250D01*
X012445Y021981D02*
X012517Y021981D01*
X012445Y021981D02*
X012445Y022427D01*
X012517Y022427D01*
X012517Y021981D01*
X012517Y022145D02*
X012445Y022145D01*
X012445Y022309D02*
X012517Y022309D01*
X012709Y023036D02*
X012781Y023036D01*
X012709Y023036D02*
X012709Y023482D01*
X012781Y023482D01*
X012781Y023036D01*
X012781Y023200D02*
X012709Y023200D01*
X012709Y023364D02*
X012781Y023364D01*
X013205Y023036D02*
X013277Y023036D01*
X013205Y023036D02*
X013205Y023482D01*
X013277Y023482D01*
X013277Y023036D01*
X013277Y023200D02*
X013205Y023200D01*
X013205Y023364D02*
X013277Y023364D01*
X012281Y023036D02*
X012209Y023036D01*
X012209Y023482D01*
X012281Y023482D01*
X012281Y023036D01*
X012281Y023200D02*
X012209Y023200D01*
X012209Y023364D02*
X012281Y023364D01*
X011781Y023036D02*
X011709Y023036D01*
X011709Y023482D01*
X011781Y023482D01*
X011781Y023036D01*
X011781Y023200D02*
X011709Y023200D01*
X011709Y023364D02*
X011781Y023364D01*
X011769Y019327D02*
X011697Y019327D01*
X011697Y019773D01*
X011769Y019773D01*
X011769Y019327D01*
X011769Y019491D02*
X011697Y019491D01*
X011697Y019655D02*
X011769Y019655D01*
X012197Y019327D02*
X012269Y019327D01*
X012197Y019327D02*
X012197Y019773D01*
X012269Y019773D01*
X012269Y019327D01*
X012269Y019491D02*
X012197Y019491D01*
X012197Y019655D02*
X012269Y019655D01*
X012697Y019327D02*
X012769Y019327D01*
X012697Y019327D02*
X012697Y019773D01*
X012769Y019773D01*
X012769Y019327D01*
X012769Y019491D02*
X012697Y019491D01*
X012697Y019655D02*
X012769Y019655D01*
X013193Y019327D02*
X013265Y019327D01*
X013193Y019327D02*
X013193Y019773D01*
X013265Y019773D01*
X013265Y019327D01*
X013265Y019491D02*
X013193Y019491D01*
X013193Y019655D02*
X013265Y019655D01*
X012505Y018271D02*
X012433Y018271D01*
X012433Y018717D01*
X012505Y018717D01*
X012505Y018271D01*
X012505Y018435D02*
X012433Y018435D01*
X012433Y018599D02*
X012505Y018599D01*
X012697Y017647D02*
X012769Y017647D01*
X012769Y017201D01*
X012697Y017201D01*
X012697Y017647D01*
X012697Y017365D02*
X012769Y017365D01*
X012769Y017529D02*
X012697Y017529D01*
X012269Y017647D02*
X012197Y017647D01*
X012269Y017647D02*
X012269Y017201D01*
X012197Y017201D01*
X012197Y017647D01*
X012197Y017365D02*
X012269Y017365D01*
X012269Y017529D02*
X012197Y017529D01*
X011769Y017658D02*
X011697Y017658D01*
X011769Y017658D02*
X011769Y017212D01*
X011697Y017212D01*
X011697Y017658D01*
X011697Y017376D02*
X011769Y017376D01*
X011769Y017540D02*
X011697Y017540D01*
D18*
X014032Y015475D03*
X014032Y014727D03*
D19*
X025954Y022951D03*
X025954Y023551D03*
D20*
X000553Y023131D03*
X000553Y022895D03*
X000553Y022659D03*
X000553Y022423D03*
X000553Y022187D03*
X000553Y021950D03*
X000553Y021714D03*
X000553Y021478D03*
X000553Y021242D03*
X000553Y021006D03*
X000553Y020769D03*
X000553Y020533D03*
X000553Y020297D03*
X000553Y020061D03*
X000553Y019824D03*
X000553Y019588D03*
X000553Y019352D03*
X000553Y019116D03*
X000553Y018880D03*
X000553Y018643D03*
X000553Y018407D03*
X000553Y018171D03*
X000553Y017935D03*
X000553Y017698D03*
X000553Y017462D03*
X000553Y017226D03*
D21*
X001760Y017344D03*
X001760Y017580D03*
X001760Y017817D03*
X001760Y018053D03*
X001760Y018289D03*
X001760Y018525D03*
X001760Y018761D03*
X001760Y018998D03*
X001760Y019234D03*
X001760Y019470D03*
X001760Y019706D03*
X001760Y019943D03*
X001760Y020179D03*
X001760Y020415D03*
X001760Y020651D03*
X001760Y020887D03*
X001760Y021124D03*
X001760Y021360D03*
X001760Y021596D03*
X001760Y021832D03*
X001760Y022069D03*
X001760Y022305D03*
X001760Y022541D03*
X001760Y022777D03*
X001760Y023013D03*
D22*
X000657Y023515D03*
X000657Y016842D03*
D23*
X005106Y013004D03*
X006208Y013004D03*
X006198Y014548D03*
X005096Y014548D03*
M02*
