G75*
%MOIN*%
%OFA0B0*%
%FSLAX24Y24*%
%IPPOS*%
%LPD*%
%AMOC8*
5,1,8,0,0,1.08239X$1,22.5*
%
%ADD10C,0.0060*%
%ADD11C,0.0000*%
%ADD12C,0.0030*%
%ADD13C,0.0040*%
%ADD14C,0.0050*%
%ADD15C,0.0020*%
%ADD16C,0.0010*%
D10*
X000837Y005168D02*
X000751Y005255D01*
X000837Y005342D01*
X000837Y005463D02*
X000751Y005550D01*
X000837Y005636D01*
X000794Y005757D02*
X000881Y005757D01*
X000924Y005801D01*
X000924Y005931D01*
X000924Y005844D02*
X001011Y005757D01*
X001011Y005931D02*
X000751Y005931D01*
X000751Y005801D01*
X000794Y005757D01*
X000837Y006052D02*
X001011Y006052D01*
X000881Y006052D02*
X000881Y006226D01*
X000837Y006226D02*
X000751Y006139D01*
X000837Y006052D01*
X000837Y006226D02*
X001011Y006226D01*
X001011Y006347D02*
X001011Y006520D01*
X000751Y006520D01*
X000751Y006347D01*
X000881Y006433D02*
X000881Y006520D01*
X000881Y006641D02*
X000924Y006685D01*
X000924Y006815D01*
X000924Y006728D02*
X001011Y006641D01*
X000881Y006641D02*
X000794Y006641D01*
X000751Y006685D01*
X000751Y006815D01*
X001011Y006815D01*
X000837Y006936D02*
X000751Y007023D01*
X000837Y007110D01*
X000837Y007231D02*
X000751Y007317D01*
X000837Y007404D01*
X000639Y008896D02*
X000725Y008983D01*
X000465Y008983D01*
X000465Y009069D02*
X000465Y008896D01*
X000465Y009190D02*
X000509Y009190D01*
X000509Y009234D01*
X000465Y009234D01*
X000465Y009190D01*
X000595Y009190D02*
X000639Y009190D01*
X000639Y009234D01*
X000595Y009234D01*
X000595Y009190D01*
X000725Y009338D02*
X000725Y009511D01*
X000725Y009425D02*
X000465Y009425D01*
X000465Y009632D02*
X000725Y009632D01*
X000725Y009763D01*
X000682Y009806D01*
X000595Y009806D01*
X000552Y009763D01*
X000552Y009632D01*
X000509Y009927D02*
X000465Y009970D01*
X000465Y010057D01*
X000509Y010101D01*
X000552Y010101D01*
X000595Y010057D01*
X000595Y010014D01*
X000595Y010057D02*
X000639Y010101D01*
X000682Y010101D01*
X000725Y010057D01*
X000725Y009970D01*
X000682Y009927D01*
X004029Y009306D02*
X004203Y009306D01*
X004116Y009306D02*
X004116Y009567D01*
X004203Y009480D01*
X004324Y009523D02*
X004367Y009567D01*
X004454Y009567D01*
X004498Y009523D01*
X004498Y009350D01*
X004454Y009306D01*
X004367Y009306D01*
X004324Y009350D01*
X004602Y009350D02*
X004602Y009306D01*
X004645Y009306D01*
X004645Y009350D01*
X004602Y009350D01*
X004602Y009436D02*
X004645Y009436D01*
X004645Y009480D01*
X004602Y009480D01*
X004602Y009436D01*
X004766Y009393D02*
X004766Y009350D01*
X004809Y009306D01*
X004896Y009306D01*
X004940Y009350D01*
X004853Y009436D02*
X004809Y009436D01*
X004766Y009393D01*
X004809Y009436D02*
X004766Y009480D01*
X004766Y009523D01*
X004809Y009567D01*
X004896Y009567D01*
X004940Y009523D01*
X005910Y011317D02*
X006084Y011317D01*
X005997Y011317D02*
X005997Y011577D01*
X006084Y011491D01*
X006205Y011577D02*
X006378Y011577D01*
X006292Y011577D02*
X006292Y011317D01*
X006500Y011361D02*
X006543Y011317D01*
X006630Y011317D01*
X006673Y011361D01*
X006673Y011534D01*
X006630Y011577D01*
X006543Y011577D01*
X006500Y011534D01*
X006777Y011491D02*
X006777Y011447D01*
X006820Y011447D01*
X006820Y011491D01*
X006777Y011491D01*
X006777Y011361D02*
X006777Y011317D01*
X006820Y011317D01*
X006820Y011361D01*
X006777Y011361D01*
X006942Y011317D02*
X007115Y011317D01*
X007028Y011317D02*
X007028Y011577D01*
X007115Y011491D01*
X006717Y012058D02*
X006543Y012058D01*
X006630Y012058D02*
X006630Y012319D01*
X006717Y012232D01*
X006422Y012232D02*
X006422Y012189D01*
X006379Y012189D01*
X006379Y012232D01*
X006422Y012232D01*
X006422Y012102D02*
X006422Y012058D01*
X006379Y012058D01*
X006379Y012102D01*
X006422Y012102D01*
X006275Y012145D02*
X006145Y012145D01*
X006101Y012189D01*
X006101Y012275D01*
X006145Y012319D01*
X006275Y012319D01*
X006275Y012058D01*
X006188Y012145D02*
X006101Y012058D01*
X005980Y012058D02*
X005807Y012058D01*
X005894Y012058D02*
X005894Y012319D01*
X005980Y012232D01*
X006748Y015019D02*
X006705Y015063D01*
X006705Y015149D01*
X006748Y015193D01*
X006792Y015193D01*
X006835Y015149D01*
X006835Y015106D01*
X006835Y015149D02*
X006878Y015193D01*
X006922Y015193D01*
X006965Y015149D01*
X006965Y015063D01*
X006922Y015019D01*
X006878Y015314D02*
X006835Y015314D01*
X006835Y015357D01*
X006878Y015357D01*
X006878Y015314D01*
X006748Y015314D02*
X006705Y015314D01*
X006705Y015357D01*
X006748Y015357D01*
X006748Y015314D01*
X006705Y015461D02*
X006965Y015461D01*
X006965Y015591D01*
X006922Y015635D01*
X006835Y015635D01*
X006792Y015591D01*
X006792Y015461D01*
X006792Y015548D02*
X006705Y015635D01*
X006705Y015756D02*
X006705Y015929D01*
X006705Y015843D02*
X006965Y015843D01*
X006878Y015756D01*
X008147Y016055D02*
X008320Y016055D01*
X008233Y016055D02*
X008233Y016316D01*
X008320Y016229D01*
X008441Y016316D02*
X008615Y016316D01*
X008528Y016316D02*
X008528Y016055D01*
X008736Y016099D02*
X008779Y016055D01*
X008866Y016055D01*
X008909Y016099D01*
X008909Y016272D01*
X008866Y016316D01*
X008779Y016316D01*
X008736Y016272D01*
X009013Y016229D02*
X009013Y016185D01*
X009057Y016185D01*
X009057Y016229D01*
X009013Y016229D01*
X009013Y016099D02*
X009013Y016055D01*
X009057Y016055D01*
X009057Y016099D01*
X009013Y016099D01*
X009178Y016099D02*
X009221Y016055D01*
X009308Y016055D01*
X009351Y016099D01*
X009265Y016185D02*
X009221Y016185D01*
X009178Y016142D01*
X009178Y016099D01*
X009221Y016185D02*
X009178Y016229D01*
X009178Y016272D01*
X009221Y016316D01*
X009308Y016316D01*
X009351Y016272D01*
X010681Y012452D02*
X010681Y012192D01*
X010767Y012192D02*
X010594Y012192D01*
X010767Y012365D02*
X010681Y012452D01*
X010889Y012409D02*
X010932Y012452D01*
X011019Y012452D01*
X011062Y012409D01*
X011062Y012235D01*
X011019Y012192D01*
X010932Y012192D01*
X010889Y012235D01*
X011166Y012235D02*
X011166Y012192D01*
X011209Y012192D01*
X011209Y012235D01*
X011166Y012235D01*
X011166Y012322D02*
X011209Y012322D01*
X011209Y012365D01*
X011166Y012365D01*
X011166Y012322D01*
X011331Y012192D02*
X011504Y012192D01*
X011417Y012192D02*
X011417Y012452D01*
X011504Y012365D01*
X014028Y011155D02*
X014028Y010895D01*
X014115Y010895D02*
X013941Y010895D01*
X014115Y011068D02*
X014028Y011155D01*
X014323Y011155D02*
X014323Y010895D01*
X014410Y010895D02*
X014236Y010895D01*
X014410Y011068D02*
X014323Y011155D01*
X014531Y011111D02*
X014531Y010938D01*
X014574Y010895D01*
X014661Y010895D01*
X014704Y010938D01*
X014704Y011111D01*
X014661Y011155D01*
X014574Y011155D01*
X014531Y011111D01*
X014617Y010981D02*
X014531Y010895D01*
X014808Y010895D02*
X014851Y010895D01*
X014851Y010938D01*
X014808Y010938D01*
X014808Y010895D01*
X014808Y011025D02*
X014851Y011025D01*
X014851Y011068D01*
X014808Y011068D01*
X014808Y011025D01*
X014973Y011068D02*
X015016Y011025D01*
X014973Y010981D01*
X014973Y010938D01*
X015016Y010895D01*
X015103Y010895D01*
X015146Y010938D01*
X015059Y011025D02*
X015016Y011025D01*
X014973Y011068D02*
X014973Y011111D01*
X015016Y011155D01*
X015103Y011155D01*
X015146Y011111D01*
X015178Y012559D02*
X015004Y012559D01*
X015091Y012559D02*
X015091Y012819D01*
X015178Y012733D01*
X014883Y012733D02*
X014883Y012689D01*
X014840Y012689D01*
X014840Y012733D01*
X014883Y012733D01*
X014883Y012603D02*
X014883Y012559D01*
X014840Y012559D01*
X014840Y012603D01*
X014883Y012603D01*
X014736Y012646D02*
X014606Y012646D01*
X014562Y012689D01*
X014562Y012776D01*
X014606Y012819D01*
X014736Y012819D01*
X014736Y012559D01*
X014649Y012646D02*
X014562Y012559D01*
X014441Y012559D02*
X014268Y012733D01*
X014268Y012776D01*
X014311Y012819D01*
X014398Y012819D01*
X014441Y012776D01*
X014441Y012559D02*
X014268Y012559D01*
X014270Y016029D02*
X014270Y016072D01*
X014226Y016072D01*
X014226Y016029D01*
X014270Y016029D01*
X014391Y016072D02*
X014434Y016029D01*
X014521Y016029D01*
X014564Y016072D01*
X014478Y016159D02*
X014434Y016159D01*
X014391Y016116D01*
X014391Y016072D01*
X014434Y016159D02*
X014391Y016202D01*
X014391Y016246D01*
X014434Y016289D01*
X014521Y016289D01*
X014564Y016246D01*
X014270Y016202D02*
X014270Y016159D01*
X014226Y016159D01*
X014226Y016202D01*
X014270Y016202D01*
X014123Y016116D02*
X013992Y016116D01*
X013949Y016159D01*
X013949Y016246D01*
X013992Y016289D01*
X014123Y016289D01*
X014123Y016029D01*
X014036Y016116D02*
X013949Y016029D01*
X013828Y016029D02*
X013654Y016202D01*
X013654Y016246D01*
X013698Y016289D01*
X013784Y016289D01*
X013828Y016246D01*
X013828Y016029D02*
X013654Y016029D01*
X013714Y017403D02*
X013670Y017447D01*
X013670Y017533D01*
X013714Y017577D01*
X013757Y017577D01*
X013801Y017533D01*
X013801Y017490D01*
X013801Y017533D02*
X013844Y017577D01*
X013887Y017577D01*
X013931Y017533D01*
X013931Y017447D01*
X013887Y017403D01*
X013844Y017698D02*
X013801Y017698D01*
X013801Y017741D01*
X013844Y017741D01*
X013844Y017698D01*
X013714Y017698D02*
X013670Y017698D01*
X013670Y017741D01*
X013714Y017741D01*
X013714Y017698D01*
X013714Y017845D02*
X013670Y017889D01*
X013670Y017975D01*
X013714Y018019D01*
X013931Y018019D01*
X013887Y018140D02*
X013931Y018183D01*
X013931Y018270D01*
X013887Y018313D01*
X013801Y018270D02*
X013801Y018183D01*
X013844Y018140D01*
X013887Y018140D01*
X013974Y018227D02*
X013627Y018227D01*
X013670Y018270D02*
X013714Y018313D01*
X013757Y018313D01*
X013801Y018270D01*
X013670Y018270D02*
X013670Y018183D01*
X013714Y018140D01*
X013714Y017845D02*
X013931Y017845D01*
X013844Y018435D02*
X013931Y018521D01*
X013670Y018521D01*
X013670Y018435D02*
X013670Y018608D01*
X013953Y020730D02*
X013953Y021077D01*
X013910Y021033D02*
X013867Y020990D01*
X013910Y021033D02*
X013997Y021033D01*
X014040Y020990D01*
X014040Y020947D01*
X013997Y020903D01*
X013910Y020903D01*
X013867Y020860D01*
X013867Y020817D01*
X013910Y020773D01*
X013997Y020773D01*
X014040Y020817D01*
X014161Y020817D02*
X014161Y021033D01*
X014335Y021033D02*
X014335Y020817D01*
X014292Y020773D01*
X014205Y020773D01*
X014161Y020817D01*
X014439Y020817D02*
X014439Y020773D01*
X014482Y020773D01*
X014482Y020817D01*
X014439Y020817D01*
X014439Y020903D02*
X014482Y020903D01*
X014482Y020947D01*
X014439Y020947D01*
X014439Y020903D01*
X014603Y020773D02*
X014777Y020773D01*
X014690Y020773D02*
X014690Y021033D01*
X014777Y020947D01*
X013746Y020947D02*
X013659Y021033D01*
X013659Y020773D01*
X013746Y020773D02*
X013572Y020773D01*
X017387Y024098D02*
X017560Y024098D01*
X017474Y024098D02*
X017474Y024358D01*
X017560Y024271D01*
X017682Y024098D02*
X017855Y024098D01*
X017855Y024358D01*
X017959Y024271D02*
X017959Y024228D01*
X018002Y024228D01*
X018002Y024271D01*
X017959Y024271D01*
X017959Y024141D02*
X017959Y024098D01*
X018002Y024098D01*
X018002Y024141D01*
X017959Y024141D01*
X018124Y024141D02*
X018167Y024098D01*
X018254Y024098D01*
X018297Y024141D01*
X018210Y024228D02*
X018167Y024228D01*
X018124Y024185D01*
X018124Y024141D01*
X018167Y024228D02*
X018124Y024271D01*
X018124Y024315D01*
X018167Y024358D01*
X018254Y024358D01*
X018297Y024315D01*
X021342Y024462D02*
X021515Y024462D01*
X021429Y024462D02*
X021429Y024723D01*
X021515Y024636D01*
X021637Y024723D02*
X021723Y024723D01*
X021680Y024723D02*
X021680Y024506D01*
X021723Y024462D01*
X021767Y024462D01*
X021810Y024506D01*
X021931Y024506D02*
X021975Y024462D01*
X022061Y024462D01*
X022105Y024506D01*
X022061Y024592D02*
X021975Y024592D01*
X021931Y024549D01*
X021931Y024506D01*
X022061Y024592D02*
X022105Y024636D01*
X022105Y024679D01*
X022061Y024723D01*
X021975Y024723D01*
X021931Y024679D01*
X022209Y024636D02*
X022209Y024592D01*
X022252Y024592D01*
X022252Y024636D01*
X022209Y024636D01*
X022209Y024506D02*
X022209Y024462D01*
X022252Y024462D01*
X022252Y024506D01*
X022209Y024506D01*
X022373Y024462D02*
X022547Y024462D01*
X022460Y024462D02*
X022460Y024723D01*
X022547Y024636D01*
X022660Y024020D02*
X021560Y024020D01*
X021543Y024018D01*
X021526Y024014D01*
X021510Y024007D01*
X021496Y023997D01*
X021483Y023984D01*
X021473Y023970D01*
X021466Y023954D01*
X021462Y023937D01*
X021460Y023920D01*
X021460Y023320D01*
X021462Y023303D01*
X021466Y023286D01*
X021473Y023270D01*
X021483Y023256D01*
X021496Y023243D01*
X021510Y023233D01*
X021526Y023226D01*
X021543Y023222D01*
X021560Y023220D01*
X022660Y023220D01*
X022677Y023222D01*
X022694Y023226D01*
X022710Y023233D01*
X022724Y023243D01*
X022737Y023256D01*
X022747Y023270D01*
X022754Y023286D01*
X022758Y023303D01*
X022760Y023320D01*
X022760Y023920D01*
X022758Y023937D01*
X022754Y023954D01*
X022747Y023970D01*
X022737Y023984D01*
X022724Y023997D01*
X022710Y024007D01*
X022694Y024014D01*
X022677Y024018D01*
X022660Y024020D01*
X025554Y023801D02*
X025554Y022701D01*
X025556Y022684D01*
X025560Y022667D01*
X025567Y022651D01*
X025577Y022637D01*
X025590Y022624D01*
X025604Y022614D01*
X025620Y022607D01*
X025637Y022603D01*
X025654Y022601D01*
X026254Y022601D01*
X026271Y022603D01*
X026288Y022607D01*
X026304Y022614D01*
X026318Y022624D01*
X026331Y022637D01*
X026341Y022651D01*
X026348Y022667D01*
X026352Y022684D01*
X026354Y022701D01*
X026354Y023801D01*
X026352Y023818D01*
X026348Y023835D01*
X026341Y023851D01*
X026331Y023865D01*
X026318Y023878D01*
X026304Y023888D01*
X026288Y023895D01*
X026271Y023899D01*
X026254Y023901D01*
X025654Y023901D01*
X025637Y023899D01*
X025620Y023895D01*
X025604Y023888D01*
X025590Y023878D01*
X025577Y023865D01*
X025567Y023851D01*
X025560Y023835D01*
X025556Y023818D01*
X025554Y023801D01*
X026281Y024031D02*
X026454Y024031D01*
X026367Y024031D02*
X026367Y024291D01*
X026454Y024205D01*
X026575Y024291D02*
X026662Y024291D01*
X026619Y024291D02*
X026619Y024074D01*
X026662Y024031D01*
X026706Y024031D01*
X026749Y024074D01*
X026870Y024074D02*
X026913Y024031D01*
X027000Y024031D01*
X027044Y024074D01*
X027000Y024161D02*
X026913Y024161D01*
X026870Y024118D01*
X026870Y024074D01*
X027000Y024161D02*
X027044Y024205D01*
X027044Y024248D01*
X027000Y024291D01*
X026913Y024291D01*
X026870Y024248D01*
X027147Y024205D02*
X027147Y024161D01*
X027191Y024161D01*
X027191Y024205D01*
X027147Y024205D01*
X027147Y024074D02*
X027147Y024031D01*
X027191Y024031D01*
X027191Y024074D01*
X027147Y024074D01*
X027312Y024074D02*
X027355Y024031D01*
X027442Y024031D01*
X027486Y024074D01*
X027399Y024161D02*
X027355Y024161D01*
X027312Y024118D01*
X027312Y024074D01*
X027355Y024161D02*
X027312Y024205D01*
X027312Y024248D01*
X027355Y024291D01*
X027442Y024291D01*
X027486Y024248D01*
X024828Y016224D02*
X024698Y016224D01*
X024655Y016180D01*
X024655Y016094D01*
X024698Y016050D01*
X024828Y016050D01*
X024828Y015964D02*
X024828Y016224D01*
X024741Y016050D02*
X024655Y015964D01*
X024533Y015964D02*
X024533Y016007D01*
X024360Y016180D01*
X024360Y016224D01*
X024533Y016224D01*
X024587Y015603D02*
X024457Y015603D01*
X024414Y015559D01*
X024414Y015473D01*
X024457Y015429D01*
X024587Y015429D01*
X024501Y015429D02*
X024414Y015343D01*
X024293Y015386D02*
X024249Y015343D01*
X024163Y015343D01*
X024119Y015386D01*
X024119Y015559D01*
X024163Y015603D01*
X024249Y015603D01*
X024293Y015559D01*
X024293Y015516D01*
X024249Y015473D01*
X024119Y015473D01*
X024587Y015343D02*
X024587Y015603D01*
X024470Y014816D02*
X024383Y014816D01*
X024340Y014772D01*
X024340Y014729D01*
X024383Y014686D01*
X024340Y014642D01*
X024340Y014599D01*
X024383Y014556D01*
X024470Y014556D01*
X024513Y014599D01*
X024426Y014686D02*
X024383Y014686D01*
X024513Y014772D02*
X024470Y014816D01*
X024721Y014816D02*
X024721Y014556D01*
X024808Y014556D02*
X024634Y014556D01*
X024808Y014729D02*
X024721Y014816D01*
X024929Y014772D02*
X024929Y014686D01*
X024972Y014642D01*
X025103Y014642D01*
X025103Y014556D02*
X025103Y014816D01*
X024972Y014816D01*
X024929Y014772D01*
X025016Y014642D02*
X024929Y014556D01*
X024534Y013314D02*
X024404Y013314D01*
X024361Y013271D01*
X024361Y013184D01*
X024404Y013140D01*
X024534Y013140D01*
X024448Y013140D02*
X024361Y013054D01*
X024240Y013054D02*
X024066Y013054D01*
X024153Y013054D02*
X024153Y013314D01*
X024240Y013227D01*
X023945Y013184D02*
X023772Y013184D01*
X023815Y013314D02*
X023945Y013184D01*
X023815Y013054D02*
X023815Y013314D01*
X024534Y013314D02*
X024534Y013054D01*
X024600Y012266D02*
X024600Y012006D01*
X024687Y012006D02*
X024513Y012006D01*
X024392Y012006D02*
X024218Y012006D01*
X024305Y012006D02*
X024305Y012266D01*
X024392Y012179D01*
X024600Y012266D02*
X024687Y012179D01*
X024808Y012136D02*
X024851Y012093D01*
X024981Y012093D01*
X024895Y012093D02*
X024808Y012006D01*
X024808Y012136D02*
X024808Y012223D01*
X024851Y012266D01*
X024981Y012266D01*
X024981Y012006D01*
X023149Y013727D02*
X023149Y013987D01*
X023019Y013987D01*
X022975Y013944D01*
X022975Y013857D01*
X023019Y013814D01*
X023149Y013814D01*
X023062Y013814D02*
X022975Y013727D01*
X022854Y013727D02*
X022681Y013727D01*
X022767Y013727D02*
X022767Y013987D01*
X022854Y013900D01*
X022559Y013944D02*
X022516Y013987D01*
X022429Y013987D01*
X022386Y013944D01*
X022386Y013900D01*
X022559Y013727D01*
X022386Y013727D01*
X021973Y013123D02*
X021843Y013123D01*
X021800Y013080D01*
X021800Y012993D01*
X021843Y012949D01*
X021973Y012949D01*
X021973Y012863D02*
X021973Y013123D01*
X021887Y012949D02*
X021800Y012863D01*
X021679Y012863D02*
X021505Y012863D01*
X021592Y012863D02*
X021592Y013123D01*
X021679Y013036D01*
X021384Y013080D02*
X021341Y013123D01*
X021254Y013123D01*
X021211Y013080D01*
X021384Y012906D01*
X021341Y012863D01*
X021254Y012863D01*
X021211Y012906D01*
X021211Y013080D01*
X021384Y013080D02*
X021384Y012906D01*
X021424Y014425D02*
X021510Y014425D01*
X021554Y014468D01*
X021554Y014512D01*
X021510Y014555D01*
X021424Y014555D01*
X021380Y014512D01*
X021380Y014468D01*
X021424Y014425D01*
X021424Y014555D02*
X021380Y014598D01*
X021380Y014642D01*
X021424Y014685D01*
X021510Y014685D01*
X021554Y014642D01*
X021554Y014598D01*
X021510Y014555D01*
X021675Y014555D02*
X021718Y014512D01*
X021848Y014512D01*
X021762Y014512D02*
X021675Y014425D01*
X021675Y014555D02*
X021675Y014642D01*
X021718Y014685D01*
X021848Y014685D01*
X021848Y014425D01*
X019337Y017739D02*
X019381Y017782D01*
X019337Y017739D02*
X019251Y017739D01*
X019207Y017782D01*
X019207Y017826D01*
X019251Y017869D01*
X019294Y017869D01*
X019251Y017869D02*
X019207Y017912D01*
X019207Y017956D01*
X019251Y017999D01*
X019337Y017999D01*
X019381Y017956D01*
X019086Y017912D02*
X019086Y017869D01*
X019043Y017869D01*
X019043Y017912D01*
X019086Y017912D01*
X019086Y017782D02*
X019086Y017739D01*
X019043Y017739D01*
X019043Y017782D01*
X019086Y017782D01*
X018852Y017739D02*
X018852Y017999D01*
X018939Y017999D02*
X018765Y017999D01*
X018644Y017912D02*
X018557Y017999D01*
X018557Y017739D01*
X018471Y017739D02*
X018644Y017739D01*
X018472Y010487D02*
X018472Y010227D01*
X018299Y010227D01*
X018178Y010227D02*
X018004Y010227D01*
X018091Y010227D02*
X018091Y010487D01*
X018178Y010400D01*
X018576Y010400D02*
X018576Y010357D01*
X018620Y010357D01*
X018620Y010400D01*
X018576Y010400D01*
X018576Y010270D02*
X018576Y010227D01*
X018620Y010227D01*
X018620Y010270D01*
X018576Y010270D01*
X018741Y010227D02*
X018914Y010227D01*
X018828Y010227D02*
X018828Y010487D01*
X018914Y010400D01*
X018757Y009394D02*
X018757Y009134D01*
X018843Y009134D02*
X018670Y009134D01*
X018549Y009134D02*
X018549Y009177D01*
X018505Y009177D01*
X018505Y009134D01*
X018549Y009134D01*
X018549Y009264D02*
X018549Y009307D01*
X018505Y009307D01*
X018505Y009264D01*
X018549Y009264D01*
X018401Y009394D02*
X018228Y009394D01*
X018315Y009394D02*
X018315Y009134D01*
X018107Y009134D02*
X017933Y009134D01*
X018020Y009134D02*
X018020Y009394D01*
X018107Y009307D01*
X018757Y009394D02*
X018843Y009307D01*
X013066Y003550D02*
X013066Y003290D01*
X013152Y003290D02*
X012979Y003290D01*
X012858Y003290D02*
X012858Y003333D01*
X012814Y003333D01*
X012814Y003290D01*
X012858Y003290D01*
X012858Y003420D02*
X012858Y003463D01*
X012814Y003463D01*
X012814Y003420D01*
X012858Y003420D01*
X012710Y003507D02*
X012667Y003550D01*
X012580Y003550D01*
X012537Y003507D01*
X012537Y003333D01*
X012580Y003290D01*
X012667Y003290D01*
X012710Y003333D01*
X012710Y003507D01*
X012624Y003376D02*
X012537Y003290D01*
X012416Y003290D02*
X012242Y003290D01*
X012329Y003290D02*
X012329Y003550D01*
X012416Y003463D01*
X012121Y003463D02*
X012034Y003550D01*
X012034Y003290D01*
X011948Y003290D02*
X012121Y003290D01*
X013066Y003550D02*
X013152Y003463D01*
D11*
X002291Y003752D02*
X002291Y002265D01*
X028461Y002265D01*
X028461Y025494D01*
X028459Y025533D01*
X028453Y025571D01*
X028444Y025608D01*
X028431Y025645D01*
X028414Y025680D01*
X028395Y025713D01*
X028372Y025744D01*
X028346Y025773D01*
X028317Y025799D01*
X028286Y025822D01*
X028253Y025841D01*
X028218Y025858D01*
X028181Y025871D01*
X028144Y025880D01*
X028106Y025886D01*
X028067Y025888D01*
X028067Y025887D02*
X019024Y025887D01*
X019024Y024910D01*
X006031Y024910D01*
X006031Y025887D01*
X002685Y025887D01*
X002685Y025888D02*
X002646Y025886D01*
X002608Y025880D01*
X002571Y025871D01*
X002534Y025858D01*
X002499Y025841D01*
X002466Y025822D01*
X002435Y025799D01*
X002406Y025773D01*
X002380Y025744D01*
X002357Y025713D01*
X002338Y025680D01*
X002321Y025645D01*
X002308Y025608D01*
X002299Y025571D01*
X002293Y025533D01*
X002291Y025494D01*
X002291Y023889D01*
X000323Y023889D01*
X000323Y003752D01*
X002291Y003752D01*
X002264Y004374D02*
X002484Y004374D01*
X002484Y004897D01*
X002843Y005720D02*
X002845Y005761D01*
X002851Y005802D01*
X002861Y005842D01*
X002874Y005881D01*
X002891Y005918D01*
X002912Y005954D01*
X002936Y005988D01*
X002963Y006019D01*
X002992Y006047D01*
X003025Y006073D01*
X003059Y006095D01*
X003096Y006114D01*
X003134Y006129D01*
X003174Y006141D01*
X003214Y006149D01*
X003255Y006153D01*
X003297Y006153D01*
X003338Y006149D01*
X003378Y006141D01*
X003418Y006129D01*
X003456Y006114D01*
X003492Y006095D01*
X003527Y006073D01*
X003560Y006047D01*
X003589Y006019D01*
X003616Y005988D01*
X003640Y005954D01*
X003661Y005918D01*
X003678Y005881D01*
X003691Y005842D01*
X003701Y005802D01*
X003707Y005761D01*
X003709Y005720D01*
X003707Y005679D01*
X003701Y005638D01*
X003691Y005598D01*
X003678Y005559D01*
X003661Y005522D01*
X003640Y005486D01*
X003616Y005452D01*
X003589Y005421D01*
X003560Y005393D01*
X003527Y005367D01*
X003493Y005345D01*
X003456Y005326D01*
X003418Y005311D01*
X003378Y005299D01*
X003338Y005291D01*
X003297Y005287D01*
X003255Y005287D01*
X003214Y005291D01*
X003174Y005299D01*
X003134Y005311D01*
X003096Y005326D01*
X003060Y005345D01*
X003025Y005367D01*
X002992Y005393D01*
X002963Y005421D01*
X002936Y005452D01*
X002912Y005486D01*
X002891Y005522D01*
X002874Y005559D01*
X002861Y005598D01*
X002851Y005638D01*
X002845Y005679D01*
X002843Y005720D01*
X002882Y007994D02*
X002884Y008029D01*
X002890Y008064D01*
X002900Y008098D01*
X002913Y008131D01*
X002930Y008162D01*
X002951Y008190D01*
X002974Y008217D01*
X003001Y008240D01*
X003029Y008261D01*
X003060Y008278D01*
X003093Y008291D01*
X003127Y008301D01*
X003162Y008307D01*
X003197Y008309D01*
X003232Y008307D01*
X003267Y008301D01*
X003301Y008291D01*
X003334Y008278D01*
X003365Y008261D01*
X003393Y008240D01*
X003420Y008217D01*
X003443Y008190D01*
X003464Y008162D01*
X003481Y008131D01*
X003494Y008098D01*
X003504Y008064D01*
X003510Y008029D01*
X003512Y007994D01*
X003510Y007959D01*
X003504Y007924D01*
X003494Y007890D01*
X003481Y007857D01*
X003464Y007826D01*
X003443Y007798D01*
X003420Y007771D01*
X003393Y007748D01*
X003365Y007727D01*
X003334Y007710D01*
X003301Y007697D01*
X003267Y007687D01*
X003232Y007681D01*
X003197Y007679D01*
X003162Y007681D01*
X003127Y007687D01*
X003093Y007697D01*
X003060Y007710D01*
X003029Y007727D01*
X003001Y007748D01*
X002974Y007771D01*
X002951Y007798D01*
X002930Y007826D01*
X002913Y007857D01*
X002900Y007890D01*
X002890Y007924D01*
X002884Y007959D01*
X002882Y007994D01*
X002980Y017521D02*
X002982Y017550D01*
X002988Y017578D01*
X002997Y017606D01*
X003010Y017632D01*
X003027Y017655D01*
X003046Y017677D01*
X003068Y017696D01*
X003093Y017711D01*
X003119Y017724D01*
X003147Y017732D01*
X003175Y017737D01*
X003204Y017738D01*
X003233Y017735D01*
X003261Y017728D01*
X003288Y017718D01*
X003314Y017704D01*
X003337Y017687D01*
X003358Y017667D01*
X003376Y017644D01*
X003391Y017619D01*
X003402Y017592D01*
X003410Y017564D01*
X003414Y017535D01*
X003414Y017507D01*
X003410Y017478D01*
X003402Y017450D01*
X003391Y017423D01*
X003376Y017398D01*
X003358Y017375D01*
X003337Y017355D01*
X003314Y017338D01*
X003288Y017324D01*
X003261Y017314D01*
X003233Y017307D01*
X003204Y017304D01*
X003175Y017305D01*
X003147Y017310D01*
X003119Y017318D01*
X003093Y017331D01*
X003068Y017346D01*
X003046Y017365D01*
X003027Y017387D01*
X003010Y017410D01*
X002997Y017436D01*
X002988Y017464D01*
X002982Y017492D01*
X002980Y017521D01*
X002843Y021921D02*
X002845Y021962D01*
X002851Y022003D01*
X002861Y022043D01*
X002874Y022082D01*
X002891Y022119D01*
X002912Y022155D01*
X002936Y022189D01*
X002963Y022220D01*
X002992Y022248D01*
X003025Y022274D01*
X003059Y022296D01*
X003096Y022315D01*
X003134Y022330D01*
X003174Y022342D01*
X003214Y022350D01*
X003255Y022354D01*
X003297Y022354D01*
X003338Y022350D01*
X003378Y022342D01*
X003418Y022330D01*
X003456Y022315D01*
X003492Y022296D01*
X003527Y022274D01*
X003560Y022248D01*
X003589Y022220D01*
X003616Y022189D01*
X003640Y022155D01*
X003661Y022119D01*
X003678Y022082D01*
X003691Y022043D01*
X003701Y022003D01*
X003707Y021962D01*
X003709Y021921D01*
X003707Y021880D01*
X003701Y021839D01*
X003691Y021799D01*
X003678Y021760D01*
X003661Y021723D01*
X003640Y021687D01*
X003616Y021653D01*
X003589Y021622D01*
X003560Y021594D01*
X003527Y021568D01*
X003493Y021546D01*
X003456Y021527D01*
X003418Y021512D01*
X003378Y021500D01*
X003338Y021492D01*
X003297Y021488D01*
X003255Y021488D01*
X003214Y021492D01*
X003174Y021500D01*
X003134Y021512D01*
X003096Y021527D01*
X003060Y021546D01*
X003025Y021568D01*
X002992Y021594D01*
X002963Y021622D01*
X002936Y021653D01*
X002912Y021687D01*
X002891Y021723D01*
X002874Y021760D01*
X002861Y021799D01*
X002851Y021839D01*
X002845Y021880D01*
X002843Y021921D01*
X004067Y022744D02*
X004067Y023267D01*
X004287Y023267D01*
X022822Y017679D02*
X022824Y017708D01*
X022830Y017736D01*
X022839Y017764D01*
X022852Y017790D01*
X022869Y017813D01*
X022888Y017835D01*
X022910Y017854D01*
X022935Y017869D01*
X022961Y017882D01*
X022989Y017890D01*
X023017Y017895D01*
X023046Y017896D01*
X023075Y017893D01*
X023103Y017886D01*
X023130Y017876D01*
X023156Y017862D01*
X023179Y017845D01*
X023200Y017825D01*
X023218Y017802D01*
X023233Y017777D01*
X023244Y017750D01*
X023252Y017722D01*
X023256Y017693D01*
X023256Y017665D01*
X023252Y017636D01*
X023244Y017608D01*
X023233Y017581D01*
X023218Y017556D01*
X023200Y017533D01*
X023179Y017513D01*
X023156Y017496D01*
X023130Y017482D01*
X023103Y017472D01*
X023075Y017465D01*
X023046Y017462D01*
X023017Y017463D01*
X022989Y017468D01*
X022961Y017476D01*
X022935Y017489D01*
X022910Y017504D01*
X022888Y017523D01*
X022869Y017545D01*
X022852Y017568D01*
X022839Y017594D01*
X022830Y017622D01*
X022824Y017650D01*
X022822Y017679D01*
X027339Y014986D02*
X027341Y015027D01*
X027347Y015068D01*
X027357Y015108D01*
X027370Y015147D01*
X027387Y015184D01*
X027408Y015220D01*
X027432Y015254D01*
X027459Y015285D01*
X027488Y015313D01*
X027521Y015339D01*
X027555Y015361D01*
X027592Y015380D01*
X027630Y015395D01*
X027670Y015407D01*
X027710Y015415D01*
X027751Y015419D01*
X027793Y015419D01*
X027834Y015415D01*
X027874Y015407D01*
X027914Y015395D01*
X027952Y015380D01*
X027988Y015361D01*
X028023Y015339D01*
X028056Y015313D01*
X028085Y015285D01*
X028112Y015254D01*
X028136Y015220D01*
X028157Y015184D01*
X028174Y015147D01*
X028187Y015108D01*
X028197Y015068D01*
X028203Y015027D01*
X028205Y014986D01*
X028203Y014945D01*
X028197Y014904D01*
X028187Y014864D01*
X028174Y014825D01*
X028157Y014788D01*
X028136Y014752D01*
X028112Y014718D01*
X028085Y014687D01*
X028056Y014659D01*
X028023Y014633D01*
X027989Y014611D01*
X027952Y014592D01*
X027914Y014577D01*
X027874Y014565D01*
X027834Y014557D01*
X027793Y014553D01*
X027751Y014553D01*
X027710Y014557D01*
X027670Y014565D01*
X027630Y014577D01*
X027592Y014592D01*
X027556Y014611D01*
X027521Y014633D01*
X027488Y014659D01*
X027459Y014687D01*
X027432Y014718D01*
X027408Y014752D01*
X027387Y014788D01*
X027370Y014825D01*
X027357Y014864D01*
X027347Y014904D01*
X027341Y014945D01*
X027339Y014986D01*
X027339Y011852D02*
X027341Y011893D01*
X027347Y011934D01*
X027357Y011974D01*
X027370Y012013D01*
X027387Y012050D01*
X027408Y012086D01*
X027432Y012120D01*
X027459Y012151D01*
X027488Y012179D01*
X027521Y012205D01*
X027555Y012227D01*
X027592Y012246D01*
X027630Y012261D01*
X027670Y012273D01*
X027710Y012281D01*
X027751Y012285D01*
X027793Y012285D01*
X027834Y012281D01*
X027874Y012273D01*
X027914Y012261D01*
X027952Y012246D01*
X027988Y012227D01*
X028023Y012205D01*
X028056Y012179D01*
X028085Y012151D01*
X028112Y012120D01*
X028136Y012086D01*
X028157Y012050D01*
X028174Y012013D01*
X028187Y011974D01*
X028197Y011934D01*
X028203Y011893D01*
X028205Y011852D01*
X028203Y011811D01*
X028197Y011770D01*
X028187Y011730D01*
X028174Y011691D01*
X028157Y011654D01*
X028136Y011618D01*
X028112Y011584D01*
X028085Y011553D01*
X028056Y011525D01*
X028023Y011499D01*
X027989Y011477D01*
X027952Y011458D01*
X027914Y011443D01*
X027874Y011431D01*
X027834Y011423D01*
X027793Y011419D01*
X027751Y011419D01*
X027710Y011423D01*
X027670Y011431D01*
X027630Y011443D01*
X027592Y011458D01*
X027556Y011477D01*
X027521Y011499D01*
X027488Y011525D01*
X027459Y011553D01*
X027432Y011584D01*
X027408Y011618D01*
X027387Y011654D01*
X027370Y011691D01*
X027357Y011730D01*
X027347Y011770D01*
X027341Y011811D01*
X027339Y011852D01*
X022724Y007836D02*
X022726Y007871D01*
X022732Y007906D01*
X022742Y007940D01*
X022755Y007973D01*
X022772Y008004D01*
X022793Y008032D01*
X022816Y008059D01*
X022843Y008082D01*
X022871Y008103D01*
X022902Y008120D01*
X022935Y008133D01*
X022969Y008143D01*
X023004Y008149D01*
X023039Y008151D01*
X023074Y008149D01*
X023109Y008143D01*
X023143Y008133D01*
X023176Y008120D01*
X023207Y008103D01*
X023235Y008082D01*
X023262Y008059D01*
X023285Y008032D01*
X023306Y008004D01*
X023323Y007973D01*
X023336Y007940D01*
X023346Y007906D01*
X023352Y007871D01*
X023354Y007836D01*
X023352Y007801D01*
X023346Y007766D01*
X023336Y007732D01*
X023323Y007699D01*
X023306Y007668D01*
X023285Y007640D01*
X023262Y007613D01*
X023235Y007590D01*
X023207Y007569D01*
X023176Y007552D01*
X023143Y007539D01*
X023109Y007529D01*
X023074Y007523D01*
X023039Y007521D01*
X023004Y007523D01*
X022969Y007529D01*
X022935Y007539D01*
X022902Y007552D01*
X022871Y007569D01*
X022843Y007590D01*
X022816Y007613D01*
X022793Y007640D01*
X022772Y007668D01*
X022755Y007699D01*
X022742Y007732D01*
X022732Y007766D01*
X022726Y007801D01*
X022724Y007836D01*
X027339Y005720D02*
X027341Y005761D01*
X027347Y005802D01*
X027357Y005842D01*
X027370Y005881D01*
X027387Y005918D01*
X027408Y005954D01*
X027432Y005988D01*
X027459Y006019D01*
X027488Y006047D01*
X027521Y006073D01*
X027555Y006095D01*
X027592Y006114D01*
X027630Y006129D01*
X027670Y006141D01*
X027710Y006149D01*
X027751Y006153D01*
X027793Y006153D01*
X027834Y006149D01*
X027874Y006141D01*
X027914Y006129D01*
X027952Y006114D01*
X027988Y006095D01*
X028023Y006073D01*
X028056Y006047D01*
X028085Y006019D01*
X028112Y005988D01*
X028136Y005954D01*
X028157Y005918D01*
X028174Y005881D01*
X028187Y005842D01*
X028197Y005802D01*
X028203Y005761D01*
X028205Y005720D01*
X028203Y005679D01*
X028197Y005638D01*
X028187Y005598D01*
X028174Y005559D01*
X028157Y005522D01*
X028136Y005486D01*
X028112Y005452D01*
X028085Y005421D01*
X028056Y005393D01*
X028023Y005367D01*
X027989Y005345D01*
X027952Y005326D01*
X027914Y005311D01*
X027874Y005299D01*
X027834Y005291D01*
X027793Y005287D01*
X027751Y005287D01*
X027710Y005291D01*
X027670Y005299D01*
X027630Y005311D01*
X027592Y005326D01*
X027556Y005345D01*
X027521Y005367D01*
X027488Y005393D01*
X027459Y005421D01*
X027432Y005452D01*
X027408Y005486D01*
X027387Y005522D01*
X027370Y005559D01*
X027357Y005598D01*
X027347Y005638D01*
X027341Y005679D01*
X027339Y005720D01*
X027339Y021921D02*
X027341Y021962D01*
X027347Y022003D01*
X027357Y022043D01*
X027370Y022082D01*
X027387Y022119D01*
X027408Y022155D01*
X027432Y022189D01*
X027459Y022220D01*
X027488Y022248D01*
X027521Y022274D01*
X027555Y022296D01*
X027592Y022315D01*
X027630Y022330D01*
X027670Y022342D01*
X027710Y022350D01*
X027751Y022354D01*
X027793Y022354D01*
X027834Y022350D01*
X027874Y022342D01*
X027914Y022330D01*
X027952Y022315D01*
X027988Y022296D01*
X028023Y022274D01*
X028056Y022248D01*
X028085Y022220D01*
X028112Y022189D01*
X028136Y022155D01*
X028157Y022119D01*
X028174Y022082D01*
X028187Y022043D01*
X028197Y022003D01*
X028203Y021962D01*
X028205Y021921D01*
X028203Y021880D01*
X028197Y021839D01*
X028187Y021799D01*
X028174Y021760D01*
X028157Y021723D01*
X028136Y021687D01*
X028112Y021653D01*
X028085Y021622D01*
X028056Y021594D01*
X028023Y021568D01*
X027989Y021546D01*
X027952Y021527D01*
X027914Y021512D01*
X027874Y021500D01*
X027834Y021492D01*
X027793Y021488D01*
X027751Y021488D01*
X027710Y021492D01*
X027670Y021500D01*
X027630Y021512D01*
X027592Y021527D01*
X027556Y021546D01*
X027521Y021568D01*
X027488Y021594D01*
X027459Y021622D01*
X027432Y021653D01*
X027408Y021687D01*
X027387Y021723D01*
X027370Y021760D01*
X027357Y021799D01*
X027347Y021839D01*
X027341Y021880D01*
X027339Y021921D01*
D12*
X027801Y018580D02*
X027897Y018483D01*
X027801Y018386D01*
X027801Y018285D02*
X027897Y018188D01*
X027801Y018091D01*
X027897Y017990D02*
X027897Y017797D01*
X027897Y017894D02*
X027607Y017894D01*
X027607Y017696D02*
X027897Y017696D01*
X027897Y017502D02*
X027607Y017696D01*
X027607Y017502D02*
X027897Y017502D01*
X027849Y017401D02*
X027897Y017353D01*
X027897Y017256D01*
X027849Y017207D01*
X027655Y017207D01*
X027607Y017256D01*
X027607Y017353D01*
X027655Y017401D01*
X027849Y017401D01*
X027849Y017106D02*
X027752Y017106D01*
X027704Y017058D01*
X027704Y016913D01*
X027704Y017010D02*
X027607Y017106D01*
X027607Y016913D02*
X027897Y016913D01*
X027897Y017058D01*
X027849Y017106D01*
X027897Y016812D02*
X027897Y016618D01*
X027607Y016618D01*
X027752Y016618D02*
X027752Y016715D01*
X027801Y016517D02*
X027897Y016420D01*
X027801Y016324D01*
X027801Y016222D02*
X027897Y016126D01*
X027801Y016029D01*
X027145Y025253D02*
X026959Y025253D01*
X026898Y025315D01*
X026898Y025377D01*
X026959Y025438D01*
X027145Y025438D01*
X027145Y025253D02*
X027145Y025624D01*
X026959Y025624D01*
X026898Y025562D01*
X026898Y025500D01*
X026959Y025438D01*
X026776Y025377D02*
X026591Y025377D01*
X026529Y025438D01*
X026529Y025562D01*
X026591Y025624D01*
X026776Y025624D01*
X026776Y025253D01*
X026408Y025253D02*
X026408Y025624D01*
X026408Y025253D02*
X026161Y025253D01*
X027339Y025666D02*
X027586Y025295D01*
X027708Y025295D02*
X027831Y025295D01*
X027770Y025295D02*
X027770Y025666D01*
X027831Y025666D02*
X027708Y025666D01*
D13*
X009484Y012542D02*
X009177Y012542D01*
X009331Y012389D02*
X009331Y012696D01*
X003991Y011780D02*
X003684Y011780D01*
X003838Y011934D02*
X003838Y011627D01*
D14*
X004782Y011150D02*
X011393Y011150D01*
X011600Y011481D02*
X011600Y010326D01*
X011639Y010338D02*
X012308Y010338D01*
X012576Y010338D02*
X012630Y010338D01*
X012899Y010338D02*
X013568Y010338D01*
X013568Y011493D01*
X013568Y011762D02*
X013568Y011816D01*
X013568Y012084D02*
X013568Y013240D01*
X013568Y013508D02*
X013568Y013562D01*
X013568Y013830D02*
X013568Y014986D01*
X013568Y015254D02*
X013568Y015308D01*
X013568Y015576D02*
X013568Y016732D01*
X012899Y016732D01*
X012630Y016732D02*
X012576Y016732D01*
X012308Y016732D02*
X011639Y016732D01*
X011623Y016740D02*
X011600Y016716D01*
X011600Y015561D01*
X011718Y015561D02*
X011718Y016716D01*
X011836Y016716D02*
X011836Y015561D01*
X011836Y015293D02*
X011836Y015239D01*
X011718Y015239D02*
X011718Y015293D01*
X011600Y015293D02*
X011600Y015239D01*
X011600Y014971D02*
X011600Y013816D01*
X011718Y013816D02*
X011718Y014971D01*
X011836Y014971D02*
X011836Y013816D01*
X011836Y013548D02*
X011836Y013494D01*
X011718Y013494D02*
X011718Y013548D01*
X011600Y013548D02*
X011600Y013494D01*
X011600Y013226D02*
X011600Y012071D01*
X011718Y012071D02*
X011718Y013226D01*
X011836Y013226D02*
X011836Y012071D01*
X011836Y011803D02*
X011836Y011749D01*
X011718Y011749D02*
X011718Y011803D01*
X011600Y011803D02*
X011600Y011749D01*
X011718Y011481D02*
X011718Y010326D01*
X011836Y010326D02*
X011836Y011481D01*
X011393Y010283D02*
X011393Y005417D01*
X011600Y005388D02*
X011600Y006542D01*
X011718Y006542D02*
X011718Y005388D01*
X011836Y005388D02*
X011836Y006542D01*
X011836Y006810D02*
X011836Y006864D01*
X011718Y006864D02*
X011718Y006810D01*
X011600Y006810D02*
X011600Y006864D01*
X011600Y007133D02*
X011600Y008287D01*
X011718Y008287D02*
X011718Y007133D01*
X011836Y007133D02*
X011836Y008287D01*
X011836Y008555D02*
X011836Y008610D01*
X011718Y008610D02*
X011718Y008555D01*
X011600Y008555D02*
X011600Y008610D01*
X011600Y008878D02*
X011600Y010032D01*
X011623Y010056D01*
X011639Y010048D02*
X012308Y010048D01*
X012576Y010048D02*
X012630Y010048D01*
X012899Y010048D02*
X013568Y010048D01*
X013568Y008893D01*
X013568Y008624D02*
X013568Y008570D01*
X013568Y008302D02*
X013568Y007146D01*
X013568Y006878D02*
X013568Y006824D01*
X013568Y006556D02*
X013568Y005400D01*
X013568Y005132D02*
X013568Y005078D01*
X013568Y004810D02*
X013568Y003654D01*
X012899Y003654D01*
X012630Y003654D02*
X012576Y003654D01*
X012308Y003654D02*
X011639Y003654D01*
X011600Y003643D02*
X011600Y004797D01*
X011718Y004797D02*
X011718Y003643D01*
X011836Y003643D02*
X011836Y004797D01*
X011836Y005065D02*
X011836Y005119D01*
X011718Y005119D02*
X011718Y005065D01*
X011600Y005065D02*
X011600Y005119D01*
X011393Y005417D02*
X011391Y005331D01*
X011386Y005245D01*
X011376Y005160D01*
X011363Y005075D01*
X011346Y004991D01*
X011326Y004907D01*
X011302Y004825D01*
X011274Y004744D01*
X011243Y004663D01*
X011209Y004585D01*
X011171Y004508D01*
X011129Y004432D01*
X011085Y004359D01*
X011037Y004288D01*
X010986Y004218D01*
X010932Y004151D01*
X010876Y004087D01*
X010816Y004025D01*
X010754Y003965D01*
X010690Y003909D01*
X010623Y003855D01*
X010553Y003804D01*
X010482Y003756D01*
X010408Y003712D01*
X010333Y003670D01*
X010256Y003632D01*
X010178Y003598D01*
X010097Y003567D01*
X010016Y003539D01*
X009934Y003515D01*
X009850Y003495D01*
X009766Y003478D01*
X009681Y003465D01*
X009596Y003455D01*
X009510Y003450D01*
X009424Y003448D01*
X009424Y003449D02*
X006751Y003449D01*
X006751Y003448D02*
X006665Y003450D01*
X006579Y003455D01*
X006494Y003465D01*
X006409Y003478D01*
X006325Y003495D01*
X006241Y003515D01*
X006159Y003539D01*
X006078Y003567D01*
X005997Y003598D01*
X005919Y003632D01*
X005842Y003670D01*
X005766Y003712D01*
X005693Y003756D01*
X005622Y003804D01*
X005552Y003855D01*
X005485Y003909D01*
X005421Y003965D01*
X005359Y004025D01*
X005299Y004087D01*
X005243Y004151D01*
X005189Y004218D01*
X005138Y004288D01*
X005090Y004359D01*
X005046Y004433D01*
X005004Y004508D01*
X004966Y004585D01*
X004932Y004663D01*
X004901Y004744D01*
X004873Y004825D01*
X004849Y004907D01*
X004829Y004991D01*
X004812Y005075D01*
X004799Y005160D01*
X004789Y005245D01*
X004784Y005331D01*
X004782Y005417D01*
X004782Y010283D01*
X000598Y011341D02*
X000600Y011432D01*
X000606Y011522D01*
X000616Y011613D01*
X000630Y011702D01*
X000648Y011791D01*
X000669Y011880D01*
X000695Y011967D01*
X000724Y012053D01*
X000758Y012137D01*
X000794Y012220D01*
X000835Y012302D01*
X000879Y012381D01*
X000926Y012459D01*
X000977Y012534D01*
X001031Y012607D01*
X001088Y012677D01*
X001148Y012745D01*
X001211Y012811D01*
X001277Y012873D01*
X001346Y012932D01*
X001417Y012989D01*
X001491Y013042D01*
X001567Y013092D01*
X001645Y013139D01*
X001725Y013182D01*
X001806Y013221D01*
X001890Y013257D01*
X001975Y013289D01*
X002061Y013318D01*
X002148Y013342D01*
X002237Y013363D01*
X002326Y013380D01*
X002416Y013393D01*
X002506Y013402D01*
X002597Y013407D01*
X002688Y013408D01*
X002778Y013405D01*
X002869Y013398D01*
X002959Y013387D01*
X003049Y013372D01*
X003138Y013353D01*
X003226Y013331D01*
X003312Y013304D01*
X003398Y013274D01*
X003482Y013240D01*
X003565Y013202D01*
X003646Y013161D01*
X003725Y013116D01*
X003802Y013067D01*
X003876Y013016D01*
X003949Y012961D01*
X004019Y012903D01*
X004086Y012842D01*
X004150Y012778D01*
X004212Y012712D01*
X004271Y012642D01*
X004326Y012571D01*
X004379Y012496D01*
X004428Y012420D01*
X004474Y012342D01*
X004516Y012261D01*
X004555Y012179D01*
X004590Y012095D01*
X004621Y012010D01*
X004648Y011923D01*
X004672Y011836D01*
X004692Y011747D01*
X004708Y011658D01*
X004720Y011568D01*
X004728Y011477D01*
X004732Y011386D01*
X004732Y011296D01*
X004728Y011205D01*
X004720Y011114D01*
X004708Y011024D01*
X004692Y010935D01*
X004672Y010846D01*
X004648Y010759D01*
X004621Y010672D01*
X004590Y010587D01*
X004555Y010503D01*
X004516Y010421D01*
X004474Y010340D01*
X004428Y010262D01*
X004379Y010186D01*
X004326Y010111D01*
X004271Y010040D01*
X004212Y009970D01*
X004150Y009904D01*
X004086Y009840D01*
X004019Y009779D01*
X003949Y009721D01*
X003876Y009666D01*
X003802Y009615D01*
X003725Y009566D01*
X003646Y009521D01*
X003565Y009480D01*
X003482Y009442D01*
X003398Y009408D01*
X003312Y009378D01*
X003226Y009351D01*
X003138Y009329D01*
X003049Y009310D01*
X002959Y009295D01*
X002869Y009284D01*
X002778Y009277D01*
X002688Y009274D01*
X002597Y009275D01*
X002506Y009280D01*
X002416Y009289D01*
X002326Y009302D01*
X002237Y009319D01*
X002148Y009340D01*
X002061Y009364D01*
X001975Y009393D01*
X001890Y009425D01*
X001806Y009461D01*
X001725Y009500D01*
X001645Y009543D01*
X001567Y009590D01*
X001491Y009640D01*
X001417Y009693D01*
X001346Y009750D01*
X001277Y009809D01*
X001211Y009871D01*
X001148Y009937D01*
X001088Y010005D01*
X001031Y010075D01*
X000977Y010148D01*
X000926Y010223D01*
X000879Y010301D01*
X000835Y010380D01*
X000794Y010462D01*
X000758Y010545D01*
X000724Y010629D01*
X000695Y010715D01*
X000669Y010802D01*
X000648Y010891D01*
X000630Y010980D01*
X000616Y011069D01*
X000606Y011160D01*
X000600Y011250D01*
X000598Y011341D01*
X004522Y016436D02*
X011132Y016436D01*
X011132Y017302D02*
X011132Y022168D01*
X011133Y022168D02*
X011131Y022254D01*
X011126Y022340D01*
X011116Y022425D01*
X011103Y022510D01*
X011086Y022594D01*
X011066Y022678D01*
X011042Y022760D01*
X011014Y022841D01*
X010983Y022922D01*
X010949Y023000D01*
X010911Y023077D01*
X010869Y023153D01*
X010825Y023226D01*
X010777Y023297D01*
X010726Y023367D01*
X010672Y023434D01*
X010616Y023498D01*
X010556Y023560D01*
X010494Y023620D01*
X010430Y023676D01*
X010363Y023730D01*
X010293Y023781D01*
X010222Y023829D01*
X010149Y023873D01*
X010073Y023915D01*
X009996Y023953D01*
X009918Y023987D01*
X009837Y024018D01*
X009756Y024046D01*
X009674Y024070D01*
X009590Y024090D01*
X009506Y024107D01*
X009421Y024120D01*
X009336Y024130D01*
X009250Y024135D01*
X009164Y024137D01*
X009164Y024136D02*
X006491Y024136D01*
X006491Y024137D02*
X006405Y024135D01*
X006319Y024130D01*
X006234Y024120D01*
X006149Y024107D01*
X006065Y024090D01*
X005981Y024070D01*
X005899Y024046D01*
X005818Y024018D01*
X005737Y023987D01*
X005659Y023953D01*
X005582Y023915D01*
X005507Y023873D01*
X005433Y023829D01*
X005362Y023781D01*
X005292Y023730D01*
X005225Y023676D01*
X005161Y023620D01*
X005099Y023560D01*
X005039Y023498D01*
X004983Y023434D01*
X004929Y023367D01*
X004878Y023297D01*
X004830Y023226D01*
X004786Y023153D01*
X004744Y023077D01*
X004706Y023000D01*
X004672Y022922D01*
X004641Y022841D01*
X004613Y022760D01*
X004589Y022678D01*
X004569Y022594D01*
X004552Y022510D01*
X004539Y022425D01*
X004529Y022340D01*
X004524Y022254D01*
X004522Y022168D01*
X004522Y017302D01*
X006825Y013715D02*
X006827Y013806D01*
X006833Y013896D01*
X006843Y013987D01*
X006857Y014076D01*
X006875Y014165D01*
X006896Y014254D01*
X006922Y014341D01*
X006951Y014427D01*
X006985Y014511D01*
X007021Y014594D01*
X007062Y014676D01*
X007106Y014755D01*
X007153Y014833D01*
X007204Y014908D01*
X007258Y014981D01*
X007315Y015051D01*
X007375Y015119D01*
X007438Y015185D01*
X007504Y015247D01*
X007573Y015306D01*
X007644Y015363D01*
X007718Y015416D01*
X007794Y015466D01*
X007872Y015513D01*
X007952Y015556D01*
X008033Y015595D01*
X008117Y015631D01*
X008202Y015663D01*
X008288Y015692D01*
X008375Y015716D01*
X008464Y015737D01*
X008553Y015754D01*
X008643Y015767D01*
X008733Y015776D01*
X008824Y015781D01*
X008915Y015782D01*
X009005Y015779D01*
X009096Y015772D01*
X009186Y015761D01*
X009276Y015746D01*
X009365Y015727D01*
X009453Y015705D01*
X009539Y015678D01*
X009625Y015648D01*
X009709Y015614D01*
X009792Y015576D01*
X009873Y015535D01*
X009952Y015490D01*
X010029Y015441D01*
X010103Y015390D01*
X010176Y015335D01*
X010246Y015277D01*
X010313Y015216D01*
X010377Y015152D01*
X010439Y015086D01*
X010498Y015016D01*
X010553Y014945D01*
X010606Y014870D01*
X010655Y014794D01*
X010701Y014716D01*
X010743Y014635D01*
X010782Y014553D01*
X010817Y014469D01*
X010848Y014384D01*
X010875Y014297D01*
X010899Y014210D01*
X010919Y014121D01*
X010935Y014032D01*
X010947Y013942D01*
X010955Y013851D01*
X010959Y013760D01*
X010959Y013670D01*
X010955Y013579D01*
X010947Y013488D01*
X010935Y013398D01*
X010919Y013309D01*
X010899Y013220D01*
X010875Y013133D01*
X010848Y013046D01*
X010817Y012961D01*
X010782Y012877D01*
X010743Y012795D01*
X010701Y012714D01*
X010655Y012636D01*
X010606Y012560D01*
X010553Y012485D01*
X010498Y012414D01*
X010439Y012344D01*
X010377Y012278D01*
X010313Y012214D01*
X010246Y012153D01*
X010176Y012095D01*
X010103Y012040D01*
X010029Y011989D01*
X009952Y011940D01*
X009873Y011895D01*
X009792Y011854D01*
X009709Y011816D01*
X009625Y011782D01*
X009539Y011752D01*
X009453Y011725D01*
X009365Y011703D01*
X009276Y011684D01*
X009186Y011669D01*
X009096Y011658D01*
X009005Y011651D01*
X008915Y011648D01*
X008824Y011649D01*
X008733Y011654D01*
X008643Y011663D01*
X008553Y011676D01*
X008464Y011693D01*
X008375Y011714D01*
X008288Y011738D01*
X008202Y011767D01*
X008117Y011799D01*
X008033Y011835D01*
X007952Y011874D01*
X007872Y011917D01*
X007794Y011964D01*
X007718Y012014D01*
X007644Y012067D01*
X007573Y012124D01*
X007504Y012183D01*
X007438Y012245D01*
X007375Y012311D01*
X007315Y012379D01*
X007258Y012449D01*
X007204Y012522D01*
X007153Y012597D01*
X007106Y012675D01*
X007062Y012754D01*
X007021Y012836D01*
X006985Y012919D01*
X006951Y013003D01*
X006922Y013089D01*
X006896Y013176D01*
X006875Y013265D01*
X006857Y013354D01*
X006843Y013443D01*
X006833Y013534D01*
X006827Y013624D01*
X006825Y013715D01*
X011718Y010032D02*
X011718Y008878D01*
X011836Y008878D02*
X011836Y010032D01*
D15*
X013650Y008604D02*
X013652Y008746D01*
X013658Y008888D01*
X013668Y009030D01*
X013682Y009171D01*
X013700Y009312D01*
X013721Y009453D01*
X013747Y009592D01*
X013776Y009731D01*
X013810Y009870D01*
X013847Y010007D01*
X013888Y010143D01*
X013933Y010278D01*
X013982Y010411D01*
X014034Y010543D01*
X014090Y010674D01*
X014150Y010803D01*
X014213Y010930D01*
X014279Y011056D01*
X014350Y011179D01*
X014423Y011301D01*
X014500Y011420D01*
X014581Y011537D01*
X014664Y011652D01*
X014751Y011765D01*
X014841Y011875D01*
X014933Y011983D01*
X015029Y012088D01*
X015128Y012190D01*
X015230Y012289D01*
X015334Y012386D01*
X015441Y012479D01*
X015550Y012570D01*
X015662Y012658D01*
X015777Y012742D01*
X015893Y012823D01*
X016012Y012901D01*
X016133Y012975D01*
X016256Y013046D01*
X016381Y013114D01*
X016508Y013178D01*
X016637Y013238D01*
X016767Y013295D01*
X016899Y013349D01*
X017032Y013398D01*
X017166Y013444D01*
X017302Y013486D01*
X017439Y013524D01*
X017577Y013559D01*
X017716Y013589D01*
X017855Y013616D01*
X017996Y013638D01*
X018136Y013657D01*
X018278Y013672D01*
X018419Y013683D01*
X018561Y013690D01*
X018703Y013693D01*
X018846Y013692D01*
X018988Y013687D01*
X019129Y013678D01*
X019271Y013665D01*
X019412Y013648D01*
X019553Y013628D01*
X019693Y013603D01*
X019832Y013574D01*
X019970Y013542D01*
X020108Y013506D01*
X020244Y013465D01*
X020379Y013421D01*
X020513Y013374D01*
X020645Y013322D01*
X020776Y013267D01*
X020906Y013209D01*
X021034Y013146D01*
X021159Y013081D01*
X021284Y013011D01*
X021406Y012938D01*
X021526Y012862D01*
X021643Y012783D01*
X021759Y012700D01*
X021872Y012614D01*
X021983Y012525D01*
X022091Y012433D01*
X022197Y012338D01*
X022300Y012240D01*
X022400Y012139D01*
X022497Y012036D01*
X022591Y011929D01*
X022683Y011820D01*
X022771Y011709D01*
X022856Y011595D01*
X022938Y011479D01*
X023017Y011361D01*
X023092Y011240D01*
X023164Y011118D01*
X023232Y010993D01*
X023297Y010867D01*
X023359Y010739D01*
X023416Y010609D01*
X023471Y010477D01*
X023521Y010345D01*
X023568Y010210D01*
X023611Y010075D01*
X023650Y009938D01*
X023685Y009801D01*
X023717Y009662D01*
X023744Y009523D01*
X023768Y009383D01*
X023788Y009242D01*
X023804Y009101D01*
X023816Y008959D01*
X023824Y008817D01*
X023828Y008675D01*
X023828Y008533D01*
X023824Y008391D01*
X023816Y008249D01*
X023804Y008107D01*
X023788Y007966D01*
X023768Y007825D01*
X023744Y007685D01*
X023717Y007546D01*
X023685Y007407D01*
X023650Y007270D01*
X023611Y007133D01*
X023568Y006998D01*
X023521Y006863D01*
X023471Y006731D01*
X023416Y006599D01*
X023359Y006469D01*
X023297Y006341D01*
X023232Y006215D01*
X023164Y006090D01*
X023092Y005968D01*
X023017Y005847D01*
X022938Y005729D01*
X022856Y005613D01*
X022771Y005499D01*
X022683Y005388D01*
X022591Y005279D01*
X022497Y005172D01*
X022400Y005069D01*
X022300Y004968D01*
X022197Y004870D01*
X022091Y004775D01*
X021983Y004683D01*
X021872Y004594D01*
X021759Y004508D01*
X021643Y004425D01*
X021526Y004346D01*
X021406Y004270D01*
X021283Y004197D01*
X021159Y004127D01*
X021034Y004062D01*
X020906Y003999D01*
X020776Y003941D01*
X020645Y003886D01*
X020513Y003834D01*
X020379Y003787D01*
X020244Y003743D01*
X020108Y003702D01*
X019970Y003666D01*
X019832Y003634D01*
X019693Y003605D01*
X019553Y003580D01*
X019412Y003560D01*
X019271Y003543D01*
X019129Y003530D01*
X018988Y003521D01*
X018846Y003516D01*
X018703Y003515D01*
X018561Y003518D01*
X018419Y003525D01*
X018278Y003536D01*
X018136Y003551D01*
X017996Y003570D01*
X017855Y003592D01*
X017716Y003619D01*
X017577Y003649D01*
X017439Y003684D01*
X017302Y003722D01*
X017166Y003764D01*
X017032Y003810D01*
X016899Y003859D01*
X016767Y003913D01*
X016637Y003970D01*
X016508Y004030D01*
X016381Y004094D01*
X016256Y004162D01*
X016133Y004233D01*
X016012Y004307D01*
X015893Y004385D01*
X015777Y004466D01*
X015662Y004550D01*
X015550Y004638D01*
X015441Y004729D01*
X015334Y004822D01*
X015230Y004919D01*
X015128Y005018D01*
X015029Y005120D01*
X014933Y005225D01*
X014841Y005333D01*
X014751Y005443D01*
X014664Y005556D01*
X014581Y005671D01*
X014500Y005788D01*
X014423Y005907D01*
X014350Y006029D01*
X014279Y006152D01*
X014213Y006278D01*
X014150Y006405D01*
X014090Y006534D01*
X014034Y006665D01*
X013982Y006797D01*
X013933Y006930D01*
X013888Y007065D01*
X013847Y007201D01*
X013810Y007338D01*
X013776Y007477D01*
X013747Y007616D01*
X013721Y007755D01*
X013700Y007896D01*
X013682Y008037D01*
X013668Y008178D01*
X013658Y008320D01*
X013652Y008462D01*
X013650Y008604D01*
X016545Y008604D02*
X016547Y008697D01*
X016553Y008790D01*
X016563Y008883D01*
X016577Y008975D01*
X016594Y009066D01*
X016616Y009157D01*
X016641Y009246D01*
X016670Y009335D01*
X016703Y009422D01*
X016740Y009508D01*
X016780Y009592D01*
X016824Y009674D01*
X016871Y009754D01*
X016921Y009833D01*
X016975Y009909D01*
X017032Y009982D01*
X017092Y010054D01*
X017155Y010122D01*
X017221Y010188D01*
X017289Y010251D01*
X017361Y010311D01*
X017434Y010368D01*
X017510Y010422D01*
X017589Y010472D01*
X017669Y010519D01*
X017751Y010563D01*
X017835Y010603D01*
X017921Y010640D01*
X018008Y010673D01*
X018097Y010702D01*
X018186Y010727D01*
X018277Y010749D01*
X018368Y010766D01*
X018460Y010780D01*
X018553Y010790D01*
X018646Y010796D01*
X018739Y010798D01*
X018832Y010796D01*
X018925Y010790D01*
X019018Y010780D01*
X019110Y010766D01*
X019201Y010749D01*
X019292Y010727D01*
X019381Y010702D01*
X019470Y010673D01*
X019557Y010640D01*
X019643Y010603D01*
X019727Y010563D01*
X019809Y010519D01*
X019889Y010472D01*
X019968Y010422D01*
X020044Y010368D01*
X020117Y010311D01*
X020189Y010251D01*
X020257Y010188D01*
X020323Y010122D01*
X020386Y010054D01*
X020446Y009982D01*
X020503Y009909D01*
X020557Y009833D01*
X020607Y009754D01*
X020654Y009674D01*
X020698Y009592D01*
X020738Y009508D01*
X020775Y009422D01*
X020808Y009335D01*
X020837Y009246D01*
X020862Y009157D01*
X020884Y009066D01*
X020901Y008975D01*
X020915Y008883D01*
X020925Y008790D01*
X020931Y008697D01*
X020933Y008604D01*
X020931Y008511D01*
X020925Y008418D01*
X020915Y008325D01*
X020901Y008233D01*
X020884Y008142D01*
X020862Y008051D01*
X020837Y007962D01*
X020808Y007873D01*
X020775Y007786D01*
X020738Y007700D01*
X020698Y007616D01*
X020654Y007534D01*
X020607Y007454D01*
X020557Y007375D01*
X020503Y007299D01*
X020446Y007226D01*
X020386Y007154D01*
X020323Y007086D01*
X020257Y007020D01*
X020189Y006957D01*
X020117Y006897D01*
X020044Y006840D01*
X019968Y006786D01*
X019889Y006736D01*
X019809Y006689D01*
X019727Y006645D01*
X019643Y006605D01*
X019557Y006568D01*
X019470Y006535D01*
X019381Y006506D01*
X019292Y006481D01*
X019201Y006459D01*
X019110Y006442D01*
X019018Y006428D01*
X018925Y006418D01*
X018832Y006412D01*
X018739Y006410D01*
X018646Y006412D01*
X018553Y006418D01*
X018460Y006428D01*
X018368Y006442D01*
X018277Y006459D01*
X018186Y006481D01*
X018097Y006506D01*
X018008Y006535D01*
X017921Y006568D01*
X017835Y006605D01*
X017751Y006645D01*
X017669Y006689D01*
X017589Y006736D01*
X017510Y006786D01*
X017434Y006840D01*
X017361Y006897D01*
X017289Y006957D01*
X017221Y007020D01*
X017155Y007086D01*
X017092Y007154D01*
X017032Y007226D01*
X016975Y007299D01*
X016921Y007375D01*
X016871Y007454D01*
X016824Y007534D01*
X016780Y007616D01*
X016740Y007700D01*
X016703Y007786D01*
X016670Y007873D01*
X016641Y007962D01*
X016616Y008051D01*
X016594Y008142D01*
X016577Y008233D01*
X016563Y008325D01*
X016553Y008418D01*
X016547Y008511D01*
X016545Y008604D01*
X013605Y018875D02*
X013607Y019017D01*
X013613Y019159D01*
X013623Y019301D01*
X013637Y019442D01*
X013655Y019583D01*
X013676Y019724D01*
X013702Y019863D01*
X013731Y020002D01*
X013765Y020141D01*
X013802Y020278D01*
X013843Y020414D01*
X013888Y020549D01*
X013937Y020682D01*
X013989Y020814D01*
X014045Y020945D01*
X014105Y021074D01*
X014168Y021201D01*
X014234Y021327D01*
X014305Y021450D01*
X014378Y021572D01*
X014455Y021691D01*
X014536Y021808D01*
X014619Y021923D01*
X014706Y022036D01*
X014796Y022146D01*
X014888Y022254D01*
X014984Y022359D01*
X015083Y022461D01*
X015185Y022560D01*
X015289Y022657D01*
X015396Y022750D01*
X015505Y022841D01*
X015617Y022929D01*
X015732Y023013D01*
X015848Y023094D01*
X015967Y023172D01*
X016088Y023246D01*
X016211Y023317D01*
X016336Y023385D01*
X016463Y023449D01*
X016592Y023509D01*
X016722Y023566D01*
X016854Y023620D01*
X016987Y023669D01*
X017121Y023715D01*
X017257Y023757D01*
X017394Y023795D01*
X017532Y023830D01*
X017671Y023860D01*
X017810Y023887D01*
X017951Y023909D01*
X018091Y023928D01*
X018233Y023943D01*
X018374Y023954D01*
X018516Y023961D01*
X018658Y023964D01*
X018801Y023963D01*
X018943Y023958D01*
X019084Y023949D01*
X019226Y023936D01*
X019367Y023919D01*
X019508Y023899D01*
X019648Y023874D01*
X019787Y023845D01*
X019925Y023813D01*
X020063Y023777D01*
X020199Y023736D01*
X020334Y023692D01*
X020468Y023645D01*
X020600Y023593D01*
X020731Y023538D01*
X020861Y023480D01*
X020989Y023417D01*
X021114Y023352D01*
X021239Y023282D01*
X021361Y023209D01*
X021481Y023133D01*
X021598Y023054D01*
X021714Y022971D01*
X021827Y022885D01*
X021938Y022796D01*
X022046Y022704D01*
X022152Y022609D01*
X022255Y022511D01*
X022355Y022410D01*
X022452Y022307D01*
X022546Y022200D01*
X022638Y022091D01*
X022726Y021980D01*
X022811Y021866D01*
X022893Y021750D01*
X022972Y021632D01*
X023047Y021511D01*
X023119Y021389D01*
X023187Y021264D01*
X023252Y021138D01*
X023314Y021010D01*
X023371Y020880D01*
X023426Y020748D01*
X023476Y020616D01*
X023523Y020481D01*
X023566Y020346D01*
X023605Y020209D01*
X023640Y020072D01*
X023672Y019933D01*
X023699Y019794D01*
X023723Y019654D01*
X023743Y019513D01*
X023759Y019372D01*
X023771Y019230D01*
X023779Y019088D01*
X023783Y018946D01*
X023783Y018804D01*
X023779Y018662D01*
X023771Y018520D01*
X023759Y018378D01*
X023743Y018237D01*
X023723Y018096D01*
X023699Y017956D01*
X023672Y017817D01*
X023640Y017678D01*
X023605Y017541D01*
X023566Y017404D01*
X023523Y017269D01*
X023476Y017134D01*
X023426Y017002D01*
X023371Y016870D01*
X023314Y016740D01*
X023252Y016612D01*
X023187Y016486D01*
X023119Y016361D01*
X023047Y016239D01*
X022972Y016118D01*
X022893Y016000D01*
X022811Y015884D01*
X022726Y015770D01*
X022638Y015659D01*
X022546Y015550D01*
X022452Y015443D01*
X022355Y015340D01*
X022255Y015239D01*
X022152Y015141D01*
X022046Y015046D01*
X021938Y014954D01*
X021827Y014865D01*
X021714Y014779D01*
X021598Y014696D01*
X021481Y014617D01*
X021361Y014541D01*
X021238Y014468D01*
X021114Y014398D01*
X020989Y014333D01*
X020861Y014270D01*
X020731Y014212D01*
X020600Y014157D01*
X020468Y014105D01*
X020334Y014058D01*
X020199Y014014D01*
X020063Y013973D01*
X019925Y013937D01*
X019787Y013905D01*
X019648Y013876D01*
X019508Y013851D01*
X019367Y013831D01*
X019226Y013814D01*
X019084Y013801D01*
X018943Y013792D01*
X018801Y013787D01*
X018658Y013786D01*
X018516Y013789D01*
X018374Y013796D01*
X018233Y013807D01*
X018091Y013822D01*
X017951Y013841D01*
X017810Y013863D01*
X017671Y013890D01*
X017532Y013920D01*
X017394Y013955D01*
X017257Y013993D01*
X017121Y014035D01*
X016987Y014081D01*
X016854Y014130D01*
X016722Y014184D01*
X016592Y014241D01*
X016463Y014301D01*
X016336Y014365D01*
X016211Y014433D01*
X016088Y014504D01*
X015967Y014578D01*
X015848Y014656D01*
X015732Y014737D01*
X015617Y014821D01*
X015505Y014909D01*
X015396Y015000D01*
X015289Y015093D01*
X015185Y015190D01*
X015083Y015289D01*
X014984Y015391D01*
X014888Y015496D01*
X014796Y015604D01*
X014706Y015714D01*
X014619Y015827D01*
X014536Y015942D01*
X014455Y016059D01*
X014378Y016178D01*
X014305Y016300D01*
X014234Y016423D01*
X014168Y016549D01*
X014105Y016676D01*
X014045Y016805D01*
X013989Y016936D01*
X013937Y017068D01*
X013888Y017201D01*
X013843Y017336D01*
X013802Y017472D01*
X013765Y017609D01*
X013731Y017748D01*
X013702Y017887D01*
X013676Y018026D01*
X013655Y018167D01*
X013637Y018308D01*
X013623Y018449D01*
X013613Y018591D01*
X013607Y018733D01*
X013605Y018875D01*
X016500Y018875D02*
X016502Y018968D01*
X016508Y019061D01*
X016518Y019154D01*
X016532Y019246D01*
X016549Y019337D01*
X016571Y019428D01*
X016596Y019517D01*
X016625Y019606D01*
X016658Y019693D01*
X016695Y019779D01*
X016735Y019863D01*
X016779Y019945D01*
X016826Y020025D01*
X016876Y020104D01*
X016930Y020180D01*
X016987Y020253D01*
X017047Y020325D01*
X017110Y020393D01*
X017176Y020459D01*
X017244Y020522D01*
X017316Y020582D01*
X017389Y020639D01*
X017465Y020693D01*
X017544Y020743D01*
X017624Y020790D01*
X017706Y020834D01*
X017790Y020874D01*
X017876Y020911D01*
X017963Y020944D01*
X018052Y020973D01*
X018141Y020998D01*
X018232Y021020D01*
X018323Y021037D01*
X018415Y021051D01*
X018508Y021061D01*
X018601Y021067D01*
X018694Y021069D01*
X018787Y021067D01*
X018880Y021061D01*
X018973Y021051D01*
X019065Y021037D01*
X019156Y021020D01*
X019247Y020998D01*
X019336Y020973D01*
X019425Y020944D01*
X019512Y020911D01*
X019598Y020874D01*
X019682Y020834D01*
X019764Y020790D01*
X019844Y020743D01*
X019923Y020693D01*
X019999Y020639D01*
X020072Y020582D01*
X020144Y020522D01*
X020212Y020459D01*
X020278Y020393D01*
X020341Y020325D01*
X020401Y020253D01*
X020458Y020180D01*
X020512Y020104D01*
X020562Y020025D01*
X020609Y019945D01*
X020653Y019863D01*
X020693Y019779D01*
X020730Y019693D01*
X020763Y019606D01*
X020792Y019517D01*
X020817Y019428D01*
X020839Y019337D01*
X020856Y019246D01*
X020870Y019154D01*
X020880Y019061D01*
X020886Y018968D01*
X020888Y018875D01*
X020886Y018782D01*
X020880Y018689D01*
X020870Y018596D01*
X020856Y018504D01*
X020839Y018413D01*
X020817Y018322D01*
X020792Y018233D01*
X020763Y018144D01*
X020730Y018057D01*
X020693Y017971D01*
X020653Y017887D01*
X020609Y017805D01*
X020562Y017725D01*
X020512Y017646D01*
X020458Y017570D01*
X020401Y017497D01*
X020341Y017425D01*
X020278Y017357D01*
X020212Y017291D01*
X020144Y017228D01*
X020072Y017168D01*
X019999Y017111D01*
X019923Y017057D01*
X019844Y017007D01*
X019764Y016960D01*
X019682Y016916D01*
X019598Y016876D01*
X019512Y016839D01*
X019425Y016806D01*
X019336Y016777D01*
X019247Y016752D01*
X019156Y016730D01*
X019065Y016713D01*
X018973Y016699D01*
X018880Y016689D01*
X018787Y016683D01*
X018694Y016681D01*
X018601Y016683D01*
X018508Y016689D01*
X018415Y016699D01*
X018323Y016713D01*
X018232Y016730D01*
X018141Y016752D01*
X018052Y016777D01*
X017963Y016806D01*
X017876Y016839D01*
X017790Y016876D01*
X017706Y016916D01*
X017624Y016960D01*
X017544Y017007D01*
X017465Y017057D01*
X017389Y017111D01*
X017316Y017168D01*
X017244Y017228D01*
X017176Y017291D01*
X017110Y017357D01*
X017047Y017425D01*
X016987Y017497D01*
X016930Y017570D01*
X016876Y017646D01*
X016826Y017725D01*
X016779Y017805D01*
X016735Y017887D01*
X016695Y017971D01*
X016658Y018057D01*
X016625Y018144D01*
X016596Y018233D01*
X016571Y018322D01*
X016549Y018413D01*
X016532Y018504D01*
X016518Y018596D01*
X016508Y018689D01*
X016502Y018782D01*
X016500Y018875D01*
D16*
X002025Y017164D02*
X002025Y017114D01*
X002000Y017089D01*
X002025Y017164D02*
X002000Y017189D01*
X001975Y017189D01*
X001875Y017089D01*
X001875Y017189D01*
X000494Y017084D02*
X000344Y017084D01*
X000344Y017034D02*
X000344Y017134D01*
X000444Y017034D02*
X000494Y017084D01*
X000482Y023184D02*
X000407Y023184D01*
X000432Y023234D01*
X000432Y023259D01*
X000407Y023284D01*
X000357Y023284D01*
X000332Y023259D01*
X000332Y023209D01*
X000357Y023184D01*
X000482Y023184D02*
X000482Y023284D01*
X000432Y023331D02*
X000482Y023381D01*
X000332Y023381D01*
X000332Y023331D02*
X000332Y023431D01*
X000855Y023692D02*
X000905Y023692D01*
X000880Y023692D02*
X000880Y023817D01*
X000855Y023842D01*
X000830Y023842D01*
X000805Y023817D01*
X000952Y023842D02*
X001052Y023742D01*
X001052Y023717D01*
X001027Y023692D01*
X000977Y023692D01*
X000952Y023717D01*
X000952Y023842D02*
X001052Y023842D01*
X001859Y023335D02*
X001859Y023285D01*
X001884Y023260D01*
X001984Y023360D01*
X001884Y023360D01*
X001859Y023335D01*
X001884Y023260D02*
X001984Y023260D01*
X002009Y023285D01*
X002009Y023335D01*
X001984Y023360D01*
X002009Y023213D02*
X002009Y023113D01*
X001934Y023113D01*
X001959Y023163D01*
X001959Y023188D01*
X001934Y023213D01*
X001884Y023213D01*
X001859Y023188D01*
X001859Y023138D01*
X001884Y023113D01*
M02*
