G75*
%MOIN*%
%OFA0B0*%
%FSLAX24Y24*%
%IPPOS*%
%LPD*%
%AMOC8*
5,1,8,0,0,1.08239X$1,22.5*
%
%ADD10R,0.0250X0.0500*%
%ADD11R,0.0250X0.1201*%
%ADD12R,0.1181X0.1890*%
%ADD13R,0.0787X0.0236*%
%ADD14R,0.1260X0.0906*%
%ADD15C,0.0047*%
%ADD16R,0.0315X0.0571*%
%ADD17R,0.0591X0.0512*%
%ADD18R,0.0630X0.0460*%
%ADD19R,0.0472X0.1260*%
%ADD20R,0.1050X0.0400*%
%ADD21R,0.0160X0.0220*%
%ADD22R,0.0680X0.0800*%
%ADD23R,0.0354X0.0276*%
%ADD24R,0.0276X0.0354*%
%ADD25R,0.0710X0.0630*%
%ADD26C,0.0105*%
%ADD27R,0.0450X0.0300*%
%ADD28R,0.0118X0.0264*%
%ADD29R,0.0118X0.0197*%
%ADD30R,0.0138X0.0394*%
%ADD31C,0.0000*%
%ADD32C,0.0475*%
%ADD33R,0.0475X0.0475*%
%ADD34C,0.0475*%
%ADD35R,0.0886X0.0886*%
%ADD36C,0.0945*%
%ADD37R,0.1280X0.1280*%
%ADD38C,0.1280*%
%ADD39C,0.0945*%
%ADD40C,0.0100*%
%ADD41C,0.0240*%
%ADD42C,0.0340*%
%ADD43C,0.0050*%
%ADD44C,0.0020*%
%ADD45C,0.0220*%
%ADD46C,0.0270*%
%ADD47C,0.0200*%
%ADD48C,0.0300*%
%ADD49C,0.0150*%
%ADD50C,0.0250*%
%ADD51C,0.0280*%
%ADD52C,0.0240*%
%ADD53C,0.0160*%
D10*
X000965Y004238D03*
D11*
X025640Y011139D03*
X026065Y011139D03*
X026061Y012560D03*
X025637Y012560D03*
X025637Y014009D03*
X026061Y014009D03*
X026069Y015437D03*
X025645Y015437D03*
X025660Y016863D03*
X026084Y016863D03*
X026080Y018344D03*
X025655Y018344D03*
D12*
X004417Y017521D03*
X001976Y017521D03*
X001976Y007994D03*
X004417Y007994D03*
D13*
X021416Y008270D03*
X021416Y008585D03*
X021416Y008900D03*
X021416Y009215D03*
X021416Y009530D03*
X021416Y009845D03*
X021416Y010160D03*
X021416Y010475D03*
X021416Y012050D03*
X021416Y012365D03*
X021416Y012680D03*
X021416Y012995D03*
X021416Y013310D03*
X021416Y013625D03*
X021416Y013940D03*
X021416Y014255D03*
X021416Y014569D03*
X021416Y014884D03*
X021416Y015199D03*
X021416Y015514D03*
X021416Y015829D03*
X021416Y016144D03*
X021416Y016459D03*
X021416Y016774D03*
X021416Y017089D03*
X021416Y017404D03*
X024654Y017246D03*
X024654Y016931D03*
X024654Y016616D03*
X024654Y016301D03*
X024654Y015986D03*
X024654Y015671D03*
X024654Y015356D03*
X024654Y015041D03*
X024654Y014726D03*
X024654Y014411D03*
X024654Y014096D03*
X024654Y013781D03*
X024654Y013466D03*
X024654Y013151D03*
X024654Y012836D03*
X024654Y012521D03*
X024654Y012206D03*
X024654Y011891D03*
X024654Y010317D03*
X024654Y010002D03*
X024654Y009687D03*
X024654Y009372D03*
X024654Y009057D03*
X024654Y008742D03*
X024654Y008427D03*
X024654Y008112D03*
D14*
X024417Y006990D03*
X024417Y018525D03*
D15*
X023488Y006499D02*
X023220Y006499D01*
X023488Y006499D02*
X023488Y005975D01*
X023220Y005975D01*
X023220Y006499D01*
X023220Y006021D02*
X023488Y006021D01*
X023488Y006067D02*
X023220Y006067D01*
X023220Y006113D02*
X023488Y006113D01*
X023488Y006159D02*
X023220Y006159D01*
X023220Y006205D02*
X023488Y006205D01*
X023488Y006251D02*
X023220Y006251D01*
X023220Y006297D02*
X023488Y006297D01*
X023488Y006343D02*
X023220Y006343D01*
X023220Y006389D02*
X023488Y006389D01*
X023488Y006435D02*
X023220Y006435D01*
X023220Y006481D02*
X023488Y006481D01*
X017551Y006549D02*
X017283Y006549D01*
X017551Y006549D02*
X017551Y006025D01*
X017283Y006025D01*
X017283Y006549D01*
X017283Y006071D02*
X017551Y006071D01*
X017551Y006117D02*
X017283Y006117D01*
X017283Y006163D02*
X017551Y006163D01*
X017551Y006209D02*
X017283Y006209D01*
X017283Y006255D02*
X017551Y006255D01*
X017551Y006301D02*
X017283Y006301D01*
X017283Y006347D02*
X017551Y006347D01*
X017551Y006393D02*
X017283Y006393D01*
X017283Y006439D02*
X017551Y006439D01*
X017551Y006485D02*
X017283Y006485D01*
X017283Y006531D02*
X017551Y006531D01*
X005630Y003543D02*
X005362Y003543D01*
X005362Y004067D01*
X005630Y004067D01*
X005630Y003543D01*
X005630Y003589D02*
X005362Y003589D01*
X005362Y003635D02*
X005630Y003635D01*
X005630Y003681D02*
X005362Y003681D01*
X005362Y003727D02*
X005630Y003727D01*
X005630Y003773D02*
X005362Y003773D01*
X005362Y003819D02*
X005630Y003819D01*
X005630Y003865D02*
X005362Y003865D01*
X005362Y003911D02*
X005630Y003911D01*
X005630Y003957D02*
X005362Y003957D01*
X005362Y004003D02*
X005630Y004003D01*
X005630Y004049D02*
X005362Y004049D01*
D16*
X005996Y003805D03*
X006496Y003805D03*
X006996Y003805D03*
X007496Y003805D03*
X007996Y003805D03*
X008496Y003805D03*
X008996Y003805D03*
X008996Y006266D03*
X008496Y006266D03*
X007996Y006266D03*
X007496Y006266D03*
X006996Y006266D03*
X006496Y006266D03*
X005996Y006266D03*
X005496Y006266D03*
X013917Y006287D03*
X014417Y006287D03*
X014917Y006287D03*
X015417Y006287D03*
X015917Y006287D03*
X016417Y006287D03*
X016917Y006287D03*
X016917Y003826D03*
X016417Y003826D03*
X015917Y003826D03*
X015417Y003826D03*
X014917Y003826D03*
X014417Y003826D03*
X013917Y003826D03*
X017417Y003826D03*
X019854Y003776D03*
X020354Y003776D03*
X020854Y003776D03*
X021354Y003776D03*
X021854Y003776D03*
X022354Y003776D03*
X022854Y003776D03*
X023354Y003776D03*
X022854Y006237D03*
X022354Y006237D03*
X021854Y006237D03*
X021354Y006237D03*
X020854Y006237D03*
X020354Y006237D03*
X019854Y006237D03*
D17*
X004833Y006232D03*
X004833Y005562D03*
X004827Y004482D03*
X004827Y003813D03*
D18*
X003806Y022965D03*
X003806Y023565D03*
D19*
X024563Y023138D03*
X026138Y023138D03*
X026138Y020461D03*
X024563Y020461D03*
D20*
X024875Y025268D03*
X023448Y025271D03*
X026249Y025204D03*
X027504Y025196D03*
X004608Y025205D03*
X003266Y025206D03*
D21*
X002582Y020680D03*
X002582Y020101D03*
X002587Y019626D03*
X002587Y019047D03*
X005176Y019042D03*
X005176Y019622D03*
X005185Y020091D03*
X005185Y020670D03*
X008867Y020681D03*
X008867Y020101D03*
X008870Y019636D03*
X008870Y019056D03*
X011236Y019069D03*
X011236Y019648D03*
X011243Y020095D03*
X011243Y020674D03*
D22*
X011763Y020385D03*
X011756Y019359D03*
X009390Y019346D03*
X009387Y020391D03*
X005705Y020380D03*
X005696Y019332D03*
X003107Y019337D03*
X003102Y020391D03*
D23*
X017919Y006266D03*
X017919Y005755D03*
X018394Y005755D03*
X018861Y005755D03*
X018861Y006266D03*
X018394Y006266D03*
X019347Y006266D03*
X019347Y005755D03*
X023908Y005878D03*
X023908Y005366D03*
X024391Y005367D03*
X024842Y005365D03*
X024842Y005877D03*
X024391Y005878D03*
X025309Y005880D03*
X025309Y005369D03*
X025307Y004575D03*
X025307Y004064D03*
X024847Y004061D03*
X024391Y004064D03*
X024391Y004576D03*
X024847Y004573D03*
X023912Y004579D03*
X023912Y004068D03*
D24*
X018939Y004128D03*
X018929Y003670D03*
X018417Y003670D03*
X018427Y004128D03*
X018437Y004631D03*
X018674Y005103D03*
X018948Y004631D03*
X018162Y005103D03*
D25*
X013044Y019300D03*
X013044Y020419D03*
X010245Y020400D03*
X010245Y019280D03*
X006663Y019300D03*
X006663Y020419D03*
X003986Y020447D03*
X003986Y019327D03*
D26*
X013897Y023673D02*
X013897Y023869D01*
X013897Y023673D02*
X013551Y023673D01*
X013551Y023869D01*
X013897Y023869D01*
X013897Y023777D02*
X013551Y023777D01*
X020225Y023850D02*
X020225Y023654D01*
X019879Y023654D01*
X019879Y023850D01*
X020225Y023850D01*
X020225Y023758D02*
X019879Y023758D01*
D27*
X020052Y023252D03*
X020052Y022752D03*
X020052Y022252D03*
X020052Y021752D03*
X020052Y021252D03*
X020052Y020752D03*
X020052Y020252D03*
X020052Y019752D03*
X020052Y019252D03*
X017424Y019271D03*
X017424Y019771D03*
X017424Y020271D03*
X017424Y020771D03*
X017424Y021271D03*
X017424Y021771D03*
X017424Y022271D03*
X017424Y022771D03*
X017424Y023271D03*
X017424Y023771D03*
X013724Y023271D03*
X013724Y022771D03*
X013724Y022271D03*
X013724Y021771D03*
X013724Y021271D03*
X013724Y020771D03*
X013724Y020271D03*
X013724Y019771D03*
X013724Y019271D03*
X023752Y019252D03*
X023752Y019752D03*
X023752Y020252D03*
X023752Y020752D03*
X023752Y021252D03*
X023752Y021752D03*
X023752Y022252D03*
X023752Y022752D03*
X023752Y023252D03*
X023752Y023752D03*
D28*
X012867Y021226D03*
X012631Y021226D03*
X012395Y021226D03*
X012158Y021226D03*
X011922Y021226D03*
X011686Y021226D03*
X011450Y021226D03*
X011214Y021226D03*
X010977Y021226D03*
X010741Y021226D03*
X010505Y021226D03*
X010269Y021226D03*
X010032Y021226D03*
X009796Y021226D03*
X009560Y021226D03*
X009324Y021226D03*
X009088Y021226D03*
X008851Y021226D03*
X008615Y021226D03*
X008379Y021226D03*
X008143Y021226D03*
X007906Y021226D03*
X007670Y021226D03*
X007434Y021226D03*
X007198Y021226D03*
X006962Y021226D03*
D29*
X007080Y022433D03*
X007316Y022433D03*
X007552Y022433D03*
X007788Y022433D03*
X008025Y022433D03*
X008261Y022433D03*
X008497Y022433D03*
X008733Y022433D03*
X008969Y022433D03*
X009206Y022433D03*
X009442Y022433D03*
X009678Y022433D03*
X009914Y022433D03*
X010151Y022433D03*
X010387Y022433D03*
X010623Y022433D03*
X010859Y022433D03*
X011095Y022433D03*
X011332Y022433D03*
X011568Y022433D03*
X011804Y022433D03*
X012040Y022433D03*
X012277Y022433D03*
X012513Y022433D03*
X012749Y022433D03*
D30*
X013251Y021330D03*
X006578Y021330D03*
D31*
X013458Y021167D02*
X013458Y021171D01*
D32*
X008892Y015035D02*
X008892Y014560D01*
X001820Y011341D02*
X001345Y011341D01*
D33*
X003748Y011341D03*
X005325Y015794D03*
X008892Y012632D03*
X010589Y011791D03*
D34*
X010325Y015794D03*
X005589Y011791D03*
D35*
X008087Y007213D03*
X007827Y020373D03*
D36*
X014499Y022177D03*
X016359Y023630D03*
X016404Y013358D03*
X014544Y011905D03*
D37*
X012659Y008997D03*
X012659Y015680D03*
D38*
X012659Y013535D03*
X012659Y011389D03*
X012659Y006851D03*
X012659Y004706D03*
D39*
X018372Y008507D02*
X019317Y008507D01*
X019238Y018928D02*
X018293Y018928D01*
D40*
X018739Y019789D02*
X018739Y020047D01*
X018804Y020111D01*
X018804Y022241D01*
X018724Y022321D01*
X018724Y024297D01*
X019694Y025267D01*
X022358Y025267D01*
X022362Y025271D01*
X023448Y025271D01*
X023490Y024720D02*
X024345Y024720D01*
X024875Y025249D01*
X024875Y025268D01*
X023490Y024720D02*
X023173Y024403D01*
X023173Y023765D01*
X023039Y023631D01*
X023039Y023243D01*
X022832Y023035D01*
X020989Y023035D01*
X020892Y022938D01*
X020535Y022745D02*
X020535Y023260D01*
X020838Y023563D01*
X020838Y024087D01*
X020598Y024328D01*
X019909Y024328D01*
X020052Y023752D02*
X020045Y023744D01*
X019676Y023744D01*
X019372Y023441D01*
X019372Y023354D01*
X019375Y023350D01*
X019143Y022722D02*
X019069Y022610D01*
X019034Y022576D01*
X019034Y021671D01*
X019202Y021504D01*
X019202Y019749D01*
X019202Y019847D01*
X020052Y019752D02*
X020205Y019752D01*
X020657Y020204D01*
X020918Y020204D01*
X020925Y020197D01*
X020841Y019810D02*
X020841Y019783D01*
X020838Y019786D01*
X020838Y019793D01*
X020841Y019783D02*
X020324Y019265D01*
X020066Y019265D01*
X020052Y019252D01*
X019869Y018178D02*
X011950Y018178D01*
X011939Y018166D01*
X011737Y018166D01*
X011094Y017523D01*
X009907Y017523D01*
X009623Y017239D01*
X008263Y017239D01*
X008261Y017241D01*
X008004Y017241D01*
X007753Y017493D01*
X007376Y017493D01*
X007323Y017904D02*
X007443Y017904D01*
X007296Y017904D01*
X006914Y017521D01*
X006914Y016221D01*
X006755Y016062D01*
X006274Y016062D01*
X006161Y015948D01*
X006161Y015595D01*
X006452Y015304D01*
X007314Y015304D01*
X007655Y014964D01*
X007655Y014484D01*
X008296Y013843D01*
X008296Y012285D01*
X008307Y012274D01*
X007802Y012258D02*
X007802Y013043D01*
X007766Y013079D01*
X007418Y013383D02*
X007410Y013375D01*
X007410Y012234D01*
X007126Y011997D02*
X007387Y011735D01*
X009318Y011735D01*
X009634Y012052D01*
X009634Y012104D01*
X009835Y012305D01*
X011366Y012305D01*
X011496Y012174D01*
X013376Y012174D01*
X013724Y011827D01*
X013728Y011827D01*
X013728Y011425D01*
X014165Y010989D01*
X014636Y010989D01*
X014961Y010663D01*
X019451Y010663D01*
X019452Y010662D01*
X020107Y010662D01*
X020338Y010431D01*
X020338Y009091D01*
X020857Y008571D01*
X021401Y008571D01*
X021416Y008585D01*
X021416Y008270D02*
X020586Y008270D01*
X020580Y008276D01*
X020304Y008276D01*
X019944Y008636D01*
X019944Y008934D01*
X019818Y009060D01*
X019818Y009854D01*
X019276Y010396D01*
X011985Y010396D01*
X010589Y011791D01*
X010561Y011791D01*
X009952Y011183D01*
X005373Y011183D01*
X005366Y011176D01*
X004929Y011612D01*
X004929Y013579D01*
X005092Y013780D01*
X004474Y014060D02*
X004884Y014470D01*
X004884Y015026D01*
X005209Y015351D01*
X005670Y015351D01*
X005893Y015574D01*
X005893Y016056D01*
X006301Y016463D01*
X006418Y016463D01*
X006412Y015794D02*
X006671Y015535D01*
X007516Y015535D01*
X008019Y015033D01*
X008019Y014577D01*
X008596Y014000D01*
X009208Y014000D01*
X010325Y015117D01*
X010325Y015794D01*
X010439Y015794D01*
X011869Y014363D01*
X015010Y014363D01*
X015688Y015042D01*
X015922Y015042D01*
X015848Y015378D02*
X016212Y015378D01*
X016354Y015237D01*
X016354Y014838D01*
X016168Y014652D01*
X015797Y014652D01*
X014149Y013005D01*
X014050Y013005D01*
X014136Y013005D01*
X014156Y013024D01*
X014167Y013024D01*
X014359Y012701D02*
X012154Y012701D01*
X010943Y013913D01*
X010943Y014542D01*
X010798Y015013D02*
X010250Y014466D01*
X010250Y013289D01*
X011638Y015074D02*
X012054Y014658D01*
X013370Y014658D01*
X014329Y015616D01*
X016367Y015616D01*
X016399Y016048D02*
X016862Y016048D01*
X017167Y016353D01*
X017315Y016353D01*
X017681Y016720D01*
X017961Y016720D01*
X017926Y016720D01*
X017676Y016429D02*
X017275Y016028D01*
X016854Y016297D02*
X017270Y016713D01*
X017270Y017143D01*
X017231Y017143D01*
X016858Y016822D02*
X016798Y016762D01*
X014640Y016762D01*
X014455Y016947D01*
X014219Y017214D02*
X014007Y017002D01*
X010943Y017002D01*
X010784Y017161D01*
X010361Y017161D01*
X010063Y016863D01*
X009351Y016863D01*
X009254Y016766D01*
X008617Y016766D01*
X008302Y017041D02*
X008232Y016970D01*
X007698Y016970D01*
X007339Y016617D02*
X007334Y016612D01*
X007201Y016745D01*
X007202Y016745D01*
X007509Y016439D01*
X009250Y016439D01*
X009495Y016685D01*
X010308Y016685D01*
X010361Y016631D01*
X012280Y016631D01*
X012300Y016612D01*
X013428Y016612D01*
X013991Y016049D01*
X016118Y016049D01*
X016119Y016050D01*
X016398Y016050D01*
X016399Y016048D01*
X016391Y016297D02*
X016854Y016297D01*
X016391Y016297D02*
X016389Y016300D01*
X015936Y016300D01*
X015933Y016297D01*
X014139Y016297D01*
X013623Y016814D01*
X010661Y016814D01*
X010608Y016866D01*
X010188Y016492D02*
X010246Y016434D01*
X011092Y016434D01*
X011638Y015888D01*
X011638Y015074D01*
X009981Y016035D02*
X009491Y015544D01*
X008780Y015544D01*
X008686Y015451D01*
X008686Y015391D01*
X008426Y015130D01*
X008272Y015130D01*
X007574Y015828D01*
X007483Y015828D01*
X007897Y016159D02*
X009311Y016159D01*
X009644Y016492D01*
X010188Y016492D01*
X010012Y016216D02*
X009981Y016185D01*
X009981Y016035D01*
X009639Y016093D02*
X009498Y015952D01*
X008640Y015952D01*
X008365Y015677D01*
X008365Y015443D01*
X007093Y014679D02*
X007093Y013113D01*
X007126Y013080D01*
X007126Y011997D01*
X006831Y012624D02*
X006015Y011791D01*
X005589Y011791D01*
X005967Y010725D02*
X005878Y010635D01*
X003713Y010635D01*
X003164Y011184D01*
X003164Y011513D01*
X002414Y012263D01*
X002414Y014857D01*
X001828Y015443D01*
X001569Y015443D01*
X001565Y015440D01*
X001494Y015440D01*
X000634Y016300D01*
X000634Y018257D01*
X000701Y018324D01*
X000950Y018592D01*
X000950Y019239D01*
X001281Y019570D01*
X001281Y020485D01*
X000471Y021295D01*
X000471Y023171D01*
X000490Y023171D01*
X000883Y023564D01*
X002161Y023564D01*
X002162Y023565D01*
X003806Y023565D01*
X003806Y023892D01*
X003277Y024421D01*
X003277Y025294D01*
X003266Y025206D01*
X004291Y025280D02*
X004608Y025205D01*
X004609Y024502D02*
X003806Y023699D01*
X003806Y023565D01*
X003066Y022987D02*
X003066Y022980D01*
X002532Y022446D01*
X002532Y021543D01*
X002611Y021463D01*
X002768Y021146D02*
X002583Y020964D01*
X002583Y020692D01*
X002582Y020680D01*
X002768Y021146D02*
X005308Y021146D01*
X005945Y021783D01*
X005945Y021971D01*
X008035Y024061D01*
X010368Y024061D01*
X010368Y024061D01*
X011264Y024061D01*
X011516Y023810D01*
X012943Y023810D01*
X013122Y024056D02*
X013116Y024061D01*
X012644Y024061D01*
X012194Y024511D01*
X006836Y024511D01*
X006308Y023984D01*
X006308Y023624D01*
X005927Y023243D01*
X005823Y023243D01*
X005207Y022627D01*
X005207Y022294D01*
X005385Y021696D02*
X005385Y021620D01*
X005385Y021696D02*
X007193Y023504D01*
X007193Y023695D01*
X007422Y023924D01*
X007425Y023924D01*
X007453Y023952D01*
X007281Y024301D02*
X011514Y024301D01*
X011650Y024166D01*
X011833Y024166D01*
X012634Y024701D02*
X012932Y024404D01*
X012932Y024332D01*
X013122Y024056D02*
X013277Y024211D01*
X013289Y024211D01*
X013289Y024356D01*
X013348Y024415D01*
X014921Y024415D01*
X015084Y024251D01*
X015084Y022913D01*
X014960Y022789D01*
X014671Y022789D01*
X014557Y022790D01*
X013828Y022790D01*
X013724Y022771D01*
X013012Y022896D02*
X013012Y022075D01*
X013319Y021769D01*
X013710Y021769D01*
X013724Y021771D01*
X013697Y021787D01*
X013044Y021547D02*
X013044Y021041D01*
X012945Y020942D01*
X012594Y020942D01*
X012425Y020772D01*
X012425Y020337D01*
X012413Y020256D01*
X012514Y019990D02*
X012517Y019987D01*
X011969Y020267D02*
X011864Y020373D01*
X011243Y020095D02*
X011096Y020177D01*
X010866Y020179D01*
X011236Y019648D02*
X011234Y019623D01*
X010851Y019431D01*
X011126Y019070D02*
X011127Y019069D01*
X010598Y018711D02*
X010599Y018709D01*
X010949Y018367D02*
X010952Y018370D01*
X014672Y018370D01*
X015084Y018781D01*
X015084Y021030D01*
X015477Y021423D01*
X015477Y022286D01*
X015719Y022528D01*
X015719Y024428D01*
X015946Y024656D01*
X017892Y024656D01*
X018101Y024446D01*
X018101Y023488D01*
X018141Y023448D01*
X017960Y022771D02*
X017424Y022771D01*
X017411Y023270D02*
X017424Y023271D01*
X017960Y022771D02*
X018049Y022682D01*
X018254Y022283D02*
X018257Y022264D01*
X018273Y022128D01*
X017917Y021771D01*
X017424Y021771D01*
X017411Y022269D02*
X017424Y022271D01*
X017410Y021273D02*
X017424Y021271D01*
X017432Y020791D02*
X017761Y020791D01*
X018412Y021442D01*
X018412Y021518D01*
X018485Y020869D02*
X018485Y020506D01*
X017769Y019789D01*
X017431Y019789D01*
X017424Y019771D01*
X017424Y020271D02*
X017410Y020273D01*
X017424Y020771D02*
X017432Y020791D01*
X015879Y022207D02*
X015869Y019320D01*
X015866Y019317D01*
X015443Y018554D02*
X015443Y020905D01*
X015571Y021033D01*
X014290Y021178D02*
X013883Y020771D01*
X013724Y020771D01*
X014290Y021178D02*
X014290Y021361D01*
X013044Y021547D02*
X012828Y021763D01*
X012828Y021764D01*
X011388Y021761D01*
X011314Y021763D01*
X011306Y021767D01*
X011304Y021769D01*
X011159Y021909D01*
X010518Y021907D01*
X010435Y021821D01*
X010441Y021824D01*
X009836Y021819D02*
X009836Y021266D01*
X009796Y021226D01*
X009602Y021228D02*
X009590Y021216D01*
X009602Y021228D02*
X009560Y021226D01*
X009324Y021226D01*
X009375Y021219D01*
X009382Y021226D01*
X009382Y021824D01*
X009442Y022433D02*
X009678Y022433D01*
X009730Y022425D01*
X009725Y022430D01*
X009725Y022715D01*
X009730Y022425D02*
X009497Y022425D01*
X009434Y023075D02*
X009429Y023080D01*
X007655Y023080D01*
X007364Y022789D01*
X007206Y022789D01*
X007316Y022433D02*
X007080Y022433D01*
X007316Y022433D02*
X007359Y022412D01*
X007359Y022320D01*
X007496Y022120D01*
X007650Y022120D01*
X007783Y022316D01*
X007788Y022433D01*
X007848Y022428D01*
X007848Y022739D01*
X007788Y022433D02*
X007827Y022408D01*
X008477Y022099D02*
X008480Y022095D01*
X011370Y022109D01*
X011180Y021647D02*
X011026Y021647D01*
X011180Y021647D02*
X011296Y021531D01*
X012454Y021531D01*
X012631Y021355D01*
X012631Y021226D01*
X012395Y021226D02*
X012394Y021226D01*
X012394Y021051D01*
X012313Y020970D01*
X006409Y020970D01*
X006274Y021105D01*
X006663Y020419D02*
X006624Y020380D01*
X007210Y020701D02*
X007210Y018941D01*
X007048Y018778D01*
X006850Y018778D01*
X006164Y018093D01*
X006164Y017483D01*
X005703Y017022D01*
X005703Y016995D01*
X005702Y016994D01*
X005361Y016698D02*
X005361Y018156D01*
X005289Y018229D01*
X005270Y018233D01*
X005470Y018690D02*
X005762Y018397D01*
X005978Y018397D01*
X006107Y018527D01*
X006160Y018527D01*
X006439Y017972D02*
X006439Y017963D01*
X006439Y017972D02*
X007057Y018590D01*
X007233Y018590D01*
X007281Y018638D01*
X007281Y018734D01*
X007947Y019400D01*
X008497Y019400D01*
X008870Y019636D01*
X008867Y020101D02*
X008298Y019666D01*
X007797Y019666D01*
X007777Y019646D01*
X008542Y020385D02*
X008542Y020533D01*
X008689Y020680D01*
X008866Y020680D01*
X008867Y020681D01*
X009296Y020434D02*
X009299Y020437D01*
X009296Y020434D02*
X010245Y020400D01*
X010357Y020385D01*
X010432Y020460D01*
X010280Y020397D02*
X010240Y020437D01*
X010875Y020715D02*
X011235Y020683D01*
X011243Y020674D01*
X011756Y019359D02*
X011823Y019298D01*
X013044Y019300D01*
X013721Y019263D02*
X013730Y019272D01*
X013984Y019272D01*
X014174Y019082D01*
X014174Y019005D01*
X013721Y019262D02*
X013721Y019263D01*
X013724Y019271D01*
X013724Y019771D02*
X013718Y019776D01*
X014298Y019776D01*
X013014Y020351D02*
X013044Y020419D01*
X013014Y020397D01*
X012749Y022433D02*
X012744Y022437D01*
X012744Y022771D01*
X012544Y022971D01*
X011444Y022971D01*
X011422Y022994D01*
X011246Y022994D01*
X010940Y022750D02*
X012405Y022750D01*
X012513Y022642D01*
X012513Y022433D01*
X013012Y022896D02*
X012616Y023291D01*
X010484Y023291D01*
X010364Y023411D01*
X008149Y023411D01*
X007998Y023562D01*
X007281Y024301D02*
X006888Y023908D01*
X006887Y023908D01*
X005892Y022933D01*
X005961Y023720D02*
X005962Y023720D01*
X005961Y023720D02*
X004573Y022332D01*
X004573Y021474D01*
X004574Y021473D01*
X005006Y021470D02*
X005006Y021685D01*
X006893Y023572D01*
X005977Y024502D02*
X004609Y024502D01*
X005977Y024502D02*
X006176Y024701D01*
X012634Y024701D01*
X013265Y023856D02*
X013265Y023701D01*
X013086Y023521D01*
X010934Y023521D01*
X010674Y023781D01*
X010103Y023781D01*
X007724Y021217D02*
X007670Y021226D01*
X006977Y021255D02*
X006962Y021226D01*
X005705Y020380D02*
X005699Y020374D01*
X005185Y020091D02*
X005093Y019999D01*
X004699Y019999D01*
X004680Y020018D01*
X004808Y019487D02*
X005042Y019487D01*
X005176Y019622D01*
X005176Y019042D02*
X005171Y019037D01*
X005470Y018690D02*
X001854Y018690D01*
X001405Y019138D01*
X002169Y019630D02*
X002279Y019623D01*
X002587Y019626D01*
X002574Y020093D02*
X002269Y020093D01*
X002063Y020298D01*
X002063Y021769D01*
X001653Y022179D01*
X001391Y022179D01*
X000711Y021696D02*
X000711Y022885D01*
X001106Y023279D01*
X002708Y023279D01*
X004122Y022276D02*
X004122Y021481D01*
X004122Y022276D02*
X004581Y022736D01*
X004584Y022736D01*
X005006Y021470D02*
X005013Y021470D01*
X005052Y020802D02*
X004716Y020802D01*
X005052Y020802D02*
X005185Y020670D01*
X005696Y019332D02*
X006631Y019332D01*
X006663Y019300D01*
X008270Y018569D02*
X008272Y018545D01*
X009134Y018545D01*
X008870Y019056D02*
X008828Y019068D01*
X009390Y019346D02*
X010276Y019346D01*
X010245Y019280D01*
X009966Y018188D02*
X009966Y018178D01*
X010128Y018017D01*
X010763Y018017D01*
X010771Y018008D01*
X010063Y017329D02*
X009774Y017041D01*
X008302Y017041D01*
X008439Y017475D02*
X008260Y017654D01*
X008219Y017654D01*
X008439Y017475D02*
X009154Y017475D01*
X010063Y017329D02*
X013502Y017329D01*
X014026Y017854D01*
X014463Y017854D01*
X014559Y017757D01*
X017941Y017757D01*
X018072Y017888D01*
X018391Y017888D01*
X018606Y017673D01*
X019820Y017673D01*
X022398Y020251D01*
X022804Y020251D01*
X023129Y019752D02*
X023752Y019752D01*
X024245Y019253D02*
X024244Y019252D01*
X023741Y020235D02*
X023752Y020252D01*
X023752Y020752D02*
X022443Y020752D01*
X019869Y018178D01*
X020838Y018349D02*
X020838Y018358D01*
X020872Y018393D01*
X021141Y018393D01*
X020838Y018349D02*
X018918Y016429D01*
X017676Y016429D01*
X017824Y016239D02*
X017023Y015439D01*
X017023Y015102D01*
X017018Y015107D01*
X017023Y015102D02*
X016330Y014409D01*
X016064Y014409D01*
X016064Y014406D01*
X014359Y012701D01*
X015731Y012172D02*
X017039Y010865D01*
X020575Y010865D01*
X020662Y010952D01*
X022180Y010952D01*
X022942Y010190D01*
X022942Y010121D01*
X023379Y009684D01*
X023379Y008478D01*
X023745Y008112D01*
X024654Y008112D01*
X024682Y008398D02*
X025143Y008398D01*
X025309Y008232D01*
X025309Y007850D01*
X025168Y007709D01*
X023688Y007709D01*
X023447Y007468D01*
X023447Y007326D01*
X023364Y007243D01*
X013861Y007243D01*
X013141Y007963D01*
X007914Y007963D01*
X005601Y010276D01*
X003384Y010276D01*
X002725Y010935D01*
X002725Y011385D01*
X002046Y012065D01*
X002046Y014578D01*
X000465Y016159D01*
X000465Y019995D01*
X000689Y020219D01*
X000807Y020219D01*
X000947Y020359D01*
X001305Y021103D02*
X000711Y021696D01*
X002574Y020093D02*
X002582Y020101D01*
X003107Y019337D02*
X003792Y019337D01*
X003986Y019327D01*
X003473Y018185D02*
X003204Y018185D01*
X002983Y018406D01*
X002883Y018406D01*
X002905Y016954D02*
X002905Y016516D01*
X002626Y016237D01*
X001449Y016237D01*
X001224Y016461D01*
X001224Y017671D01*
X000987Y017908D01*
X000987Y018055D01*
X004474Y014060D02*
X004474Y013308D01*
X004324Y013159D01*
X004312Y012695D02*
X004462Y012545D01*
X004462Y011743D01*
X007374Y010143D02*
X009267Y008250D01*
X009639Y008250D01*
X010435Y008640D02*
X010893Y008182D01*
X015823Y008182D01*
X016729Y009088D01*
X016729Y009554D01*
X016945Y010011D02*
X017540Y009417D01*
X019490Y009417D01*
X020085Y009078D02*
X020085Y010237D01*
X020037Y010285D01*
X020631Y010566D02*
X020631Y009320D01*
X020679Y009272D01*
X020385Y008777D02*
X020085Y009078D01*
X020385Y008777D02*
X020385Y008605D01*
X021416Y009215D02*
X021431Y009200D01*
X022084Y009200D01*
X022214Y009330D01*
X022214Y009647D01*
X022411Y010074D02*
X022982Y009503D01*
X023052Y009503D01*
X022411Y010074D02*
X022411Y010426D01*
X022069Y010768D01*
X020833Y010768D01*
X020631Y010566D01*
X020557Y011309D02*
X019968Y011898D01*
X019968Y013390D01*
X018965Y014393D01*
X018793Y014064D02*
X018384Y014064D01*
X018793Y014064D02*
X019534Y013323D01*
X019534Y011783D01*
X019866Y011451D01*
X020120Y011135D02*
X020115Y011130D01*
X017287Y011130D01*
X016837Y011580D01*
X016837Y011632D01*
X017413Y011543D02*
X017501Y011543D01*
X018029Y012072D01*
X018029Y015085D01*
X018156Y015212D01*
X019335Y015212D01*
X020463Y014085D01*
X020633Y014085D01*
X020665Y014053D01*
X020456Y013517D02*
X019194Y014778D01*
X018509Y014778D01*
X018363Y014923D01*
X017761Y015004D02*
X017606Y015159D01*
X017583Y015159D01*
X017761Y015004D02*
X017769Y012360D01*
X017689Y012280D01*
X018058Y011518D02*
X018969Y012428D01*
X019194Y012428D01*
X020422Y012455D02*
X020500Y012531D01*
X020708Y012531D01*
X020818Y012642D01*
X020818Y012876D01*
X020937Y012995D01*
X021416Y012995D01*
X021430Y013296D02*
X022151Y013296D01*
X022659Y013804D01*
X022739Y013807D01*
X023022Y014087D01*
X023022Y014664D01*
X022084Y015713D01*
X022084Y017583D01*
X021876Y017791D01*
X021051Y017791D01*
X019193Y015933D01*
X018433Y015933D01*
X017960Y015959D02*
X017960Y015687D01*
X017841Y015569D01*
X017476Y015569D01*
X017250Y015343D01*
X017250Y014612D01*
X016683Y014046D01*
X016043Y014046D01*
X015731Y013734D01*
X015731Y012172D01*
X016945Y010011D02*
X011361Y010011D01*
X011146Y009797D01*
X011381Y009358D02*
X010009Y009358D01*
X008501Y010865D01*
X008475Y010865D01*
X011381Y009358D02*
X011843Y009819D01*
X014435Y009819D01*
X014941Y009313D01*
X014922Y006854D02*
X014921Y006291D01*
X014917Y006287D01*
X014431Y006301D02*
X014431Y006846D01*
X013941Y006858D02*
X013940Y006310D01*
X013917Y006287D01*
X014417Y006287D02*
X014431Y006301D01*
X013941Y006858D02*
X013941Y006859D01*
X013396Y005881D02*
X013844Y005433D01*
X014253Y005433D01*
X014907Y005038D02*
X014907Y004888D01*
X014917Y004878D01*
X014917Y003826D01*
X014417Y003826D02*
X014417Y004481D01*
X014424Y004489D01*
X013917Y004595D02*
X013917Y003826D01*
X013917Y004595D02*
X015086Y005763D01*
X017910Y005763D01*
X017919Y005755D01*
X017906Y005767D01*
X016098Y005767D01*
X015917Y006287D02*
X015917Y006866D01*
X015945Y006894D01*
X015435Y006865D02*
X015417Y006848D01*
X015417Y006287D01*
X015347Y005478D02*
X014907Y005038D01*
X015347Y005478D02*
X018237Y005478D01*
X018394Y005635D01*
X018861Y005606D02*
X018861Y005755D01*
X018861Y005600D01*
X018965Y005495D01*
X019689Y005495D01*
X020011Y005174D01*
X020141Y005703D02*
X019398Y005703D01*
X019347Y005755D01*
X019347Y006266D02*
X018861Y006266D01*
X018394Y006266D01*
X017919Y006266D01*
X017923Y006270D01*
X017923Y006833D01*
X017428Y006850D02*
X017417Y006839D01*
X017417Y006287D01*
X016917Y006287D02*
X016903Y006301D01*
X016905Y006845D01*
X016917Y006287D02*
X016417Y006287D01*
X016026Y005240D02*
X017628Y005240D01*
X017764Y005103D01*
X018162Y005103D01*
X018437Y004631D02*
X018395Y004589D01*
X017920Y004589D01*
X017417Y004086D01*
X017417Y003826D01*
X017892Y003828D02*
X017892Y003410D01*
X017660Y003178D01*
X016685Y003178D01*
X016417Y003446D01*
X016417Y003826D01*
X015922Y003831D02*
X015922Y004298D01*
X016589Y004965D01*
X016589Y004966D01*
X016961Y004635D02*
X016917Y004591D01*
X016917Y003826D01*
X017892Y003828D02*
X018172Y004108D01*
X018407Y004108D01*
X018427Y004128D01*
X018417Y003670D02*
X018289Y003543D01*
X018289Y003166D01*
X017888Y002765D01*
X015852Y002765D01*
X015417Y003199D01*
X015417Y003826D01*
X015917Y003826D02*
X015922Y003831D01*
X015431Y004641D02*
X015431Y004645D01*
X016026Y005240D01*
X017421Y007587D02*
X021636Y007587D01*
X022077Y008029D01*
X022077Y008650D01*
X022372Y008945D01*
X022400Y008511D02*
X022400Y008174D01*
X022400Y007604D01*
X022371Y006799D02*
X022370Y006253D01*
X022354Y006237D01*
X022846Y006245D02*
X022846Y006793D01*
X023354Y006809D02*
X023354Y006237D01*
X022854Y006237D02*
X022846Y006245D01*
X023354Y006809D02*
X023356Y006811D01*
X023908Y005878D02*
X023908Y005878D01*
X023908Y005366D02*
X023894Y005353D01*
X021683Y005353D01*
X021550Y005486D01*
X020963Y005486D01*
X020622Y005145D01*
X020622Y004774D01*
X020354Y004507D01*
X020354Y003776D01*
X020354Y004023D01*
X019867Y003764D02*
X019867Y003251D01*
X020656Y002461D01*
X024245Y002461D01*
X025307Y003523D01*
X025307Y004064D01*
X025307Y004575D02*
X024849Y004575D01*
X024847Y004573D01*
X024394Y004573D01*
X024391Y004576D01*
X023916Y004576D01*
X023912Y004579D01*
X023913Y004581D01*
X025857Y004581D01*
X026286Y004745D02*
X026286Y003775D01*
X026306Y003755D01*
X026827Y004700D02*
X026827Y006743D01*
X026626Y006944D01*
X026626Y008016D01*
X026826Y008216D01*
X026826Y010581D01*
X026827Y010583D01*
X026448Y010961D01*
X026903Y011331D02*
X027644Y010590D01*
X027644Y007453D01*
X027955Y007065D02*
X027048Y006158D01*
X027048Y005145D01*
X027308Y004885D01*
X027308Y004669D01*
X026827Y004700D02*
X027543Y003984D01*
X027543Y002889D01*
X026306Y005082D02*
X026305Y005083D01*
X025109Y005083D01*
X024842Y005350D01*
X024842Y005365D01*
X024391Y005367D02*
X024391Y005184D01*
X024211Y005004D01*
X023691Y005004D01*
X023372Y004685D01*
X023372Y003795D01*
X023354Y003776D01*
X022854Y003776D02*
X022844Y003766D01*
X022844Y003245D01*
X022846Y003334D02*
X022936Y003244D01*
X023739Y003244D01*
X023912Y003417D01*
X023912Y004068D01*
X024391Y004064D02*
X024391Y003514D01*
X023850Y002974D01*
X022160Y002974D01*
X021862Y003272D01*
X021862Y003769D01*
X021854Y003776D01*
X021863Y003768D01*
X021863Y003269D01*
X021354Y003776D02*
X021388Y003810D01*
X021388Y004622D01*
X021545Y005001D02*
X021124Y005001D01*
X021545Y005001D02*
X021932Y004614D01*
X022354Y005019D02*
X022354Y003777D01*
X022354Y003776D01*
X022846Y003768D02*
X022846Y003334D01*
X022846Y003768D02*
X022854Y003776D01*
X024065Y002724D02*
X024847Y003506D01*
X024847Y004061D01*
X025309Y005369D02*
X025674Y005369D01*
X026137Y005831D01*
X024846Y005880D02*
X024842Y005877D01*
X024393Y005877D02*
X024391Y005878D01*
X024682Y008398D02*
X024654Y008427D01*
X024643Y009046D02*
X024051Y009046D01*
X023926Y009170D01*
X023926Y010436D01*
X023924Y010931D01*
X023929Y010936D01*
X023930Y010937D01*
X023934Y010937D01*
X024198Y010937D01*
X024654Y011393D01*
X024654Y011891D01*
X025018Y011365D02*
X025293Y011639D01*
X025293Y014520D01*
X025087Y014726D01*
X024654Y014726D01*
X024654Y015041D02*
X023992Y015041D01*
X023954Y015103D01*
X024176Y015356D02*
X024654Y015356D01*
X024176Y015356D02*
X023985Y015547D01*
X023985Y016722D01*
X023893Y016814D01*
X023257Y016973D02*
X023781Y017497D01*
X025269Y017497D01*
X025107Y017740D02*
X025292Y017924D01*
X025292Y019608D01*
X025263Y020087D02*
X024889Y020461D01*
X024563Y020461D01*
X024563Y023138D01*
X023767Y023236D02*
X023752Y023252D01*
X023752Y023752D02*
X023760Y023760D01*
X023752Y022752D02*
X023543Y022752D01*
X023156Y022365D01*
X022885Y022365D01*
X022428Y021908D01*
X022042Y021844D02*
X022042Y020944D01*
X021620Y020719D02*
X021620Y021729D01*
X021597Y021752D01*
X020052Y021752D01*
X020052Y021752D01*
X019416Y022273D02*
X019416Y022439D01*
X019735Y022758D01*
X020046Y022758D01*
X020052Y022752D01*
X020535Y022745D02*
X020752Y022529D01*
X021744Y022529D01*
X022260Y022531D01*
X021776Y022110D02*
X022042Y021844D01*
X021776Y022110D02*
X020950Y022110D01*
X020927Y022133D01*
X020922Y022128D01*
X021051Y020742D02*
X020046Y020742D01*
X020044Y020744D01*
X020052Y020752D01*
X021051Y020742D02*
X021323Y020470D01*
X021323Y020426D01*
X021909Y019149D02*
X021909Y018570D01*
X021395Y018057D01*
X020984Y018057D01*
X019167Y016239D01*
X017824Y016239D01*
X017960Y015959D02*
X017930Y015939D01*
X017935Y017187D02*
X017726Y017396D01*
X014943Y017396D01*
X014746Y017199D01*
X014731Y017214D01*
X014219Y017214D01*
X014254Y017581D02*
X018258Y017581D01*
X018330Y017187D02*
X017935Y017187D01*
X018330Y017187D02*
X018423Y017094D01*
X020193Y015492D02*
X020486Y015199D01*
X021416Y015199D01*
X021416Y014884D02*
X020255Y014884D01*
X020251Y014881D01*
X020703Y014554D02*
X021400Y014554D01*
X021416Y014569D01*
X021416Y014255D02*
X022782Y014255D01*
X022716Y014258D01*
X023460Y014056D02*
X023460Y015367D01*
X022705Y016122D01*
X022666Y016973D02*
X023257Y016973D01*
X022666Y016973D02*
X022450Y017189D01*
X022450Y017916D01*
X022190Y018176D01*
X022454Y019085D02*
X023799Y017740D01*
X025107Y017740D01*
X025660Y018339D02*
X025660Y016863D01*
X025413Y016616D01*
X024654Y016616D01*
X025642Y015435D02*
X025645Y015437D01*
X026061Y015430D02*
X026061Y014009D01*
X026061Y014008D01*
X026061Y013263D01*
X026497Y013263D01*
X026500Y013266D01*
X026816Y013759D02*
X027067Y013508D01*
X027067Y012933D01*
X026903Y012769D01*
X026903Y011331D01*
X027123Y011489D02*
X027955Y010657D01*
X027955Y007065D01*
X026480Y008435D02*
X026238Y008435D01*
X025672Y009001D01*
X026049Y009346D02*
X026057Y009354D01*
X026057Y010103D01*
X026482Y010307D02*
X026482Y009026D01*
X026482Y010307D02*
X026526Y010351D01*
X026065Y011139D02*
X026065Y012556D01*
X026061Y012560D01*
X026069Y012552D01*
X026114Y012583D01*
X026061Y012560D02*
X026061Y013263D01*
X025637Y012560D02*
X025637Y012561D01*
X024654Y012836D02*
X024159Y012836D01*
X024041Y012718D01*
X024041Y012457D01*
X023973Y012438D01*
X023411Y012312D02*
X023006Y011906D01*
X023006Y011576D01*
X022939Y011509D01*
X022885Y011509D01*
X022543Y011383D02*
X023380Y010546D01*
X023380Y010444D01*
X023380Y010543D01*
X023929Y010936D02*
X024667Y010936D01*
X024802Y010801D01*
X024802Y010797D01*
X025637Y011143D02*
X025640Y011139D01*
X025308Y009687D02*
X024654Y009687D01*
X024654Y009687D01*
X024654Y009057D02*
X024643Y009046D01*
X022543Y011383D02*
X022306Y011383D01*
X022231Y011308D01*
X021086Y011308D01*
X021085Y011309D01*
X020557Y011309D01*
X020838Y011658D02*
X020989Y011658D01*
X021120Y011790D01*
X021747Y011790D01*
X021811Y011726D01*
X022223Y011726D01*
X022362Y011865D01*
X022362Y012127D01*
X022635Y012399D01*
X023063Y012372D02*
X022554Y011862D01*
X022554Y011711D01*
X022393Y011550D01*
X021265Y011550D01*
X021406Y012040D02*
X020474Y012040D01*
X020474Y012041D01*
X020474Y012041D01*
X020120Y011135D02*
X022388Y011135D01*
X022458Y011065D01*
X022076Y012008D02*
X022076Y012673D01*
X023460Y014056D01*
X023806Y014092D02*
X024649Y014092D01*
X024654Y014096D01*
X024654Y013781D02*
X024653Y013780D01*
X024091Y013780D01*
X024010Y013700D01*
X023952Y013700D01*
X024213Y013463D02*
X023411Y012661D01*
X023411Y012312D01*
X024213Y013463D02*
X024650Y013463D01*
X024654Y013466D01*
X024654Y014411D02*
X024039Y014411D01*
X023959Y014607D01*
X025637Y014009D02*
X025645Y014016D01*
X026816Y013759D02*
X026816Y016401D01*
X027122Y016707D01*
X027122Y016954D01*
X028133Y017965D01*
X028133Y018664D01*
X027799Y018998D01*
X027799Y019436D01*
X027558Y019676D01*
X026571Y019676D01*
X026554Y019660D01*
X026487Y019178D02*
X027376Y019178D01*
X027474Y019276D01*
X027249Y018289D02*
X027781Y018289D01*
X027249Y018289D02*
X026556Y017596D01*
X026498Y017596D01*
X026422Y016834D02*
X026083Y016834D01*
X026069Y016848D01*
X026069Y015437D01*
X026061Y015430D01*
X027037Y016122D02*
X027037Y013954D01*
X027308Y013683D01*
X027308Y012810D01*
X027123Y012625D01*
X027123Y011489D01*
X027037Y016122D02*
X027848Y016932D01*
X026084Y016863D02*
X026069Y016848D01*
X026084Y016863D02*
X026084Y018339D01*
X026080Y018344D01*
X026080Y020403D01*
X026138Y020461D01*
X026138Y023138D01*
X025217Y022716D02*
X025217Y021683D01*
X025228Y021671D01*
X023752Y021752D02*
X023484Y021752D01*
X022873Y021140D01*
X023752Y021252D02*
X023764Y021240D01*
X023752Y022252D02*
X023755Y022255D01*
X023129Y019752D02*
X023109Y019732D01*
X025650Y019189D02*
X025655Y019184D01*
X025655Y018344D01*
X025660Y018339D01*
X021416Y016774D02*
X021409Y016781D01*
X020593Y016781D01*
X020456Y013517D02*
X020456Y012851D01*
X020456Y012851D01*
X021416Y013310D02*
X021430Y013296D01*
X021416Y012050D02*
X021406Y012040D01*
X021357Y006809D02*
X021357Y006240D01*
X021354Y006237D01*
X021854Y006237D02*
X021854Y006805D01*
X021863Y006813D01*
X020857Y006800D02*
X020854Y006237D01*
X020854Y006237D01*
X020354Y006237D02*
X020354Y006816D01*
X020357Y006819D01*
X019884Y006820D02*
X019884Y006267D01*
X019854Y006237D01*
X019353Y006273D02*
X019353Y006817D01*
X019353Y006273D02*
X019347Y006266D01*
X019854Y003776D02*
X019290Y003212D01*
X018707Y003212D01*
X019651Y002552D02*
X014719Y002552D01*
X014719Y002551D01*
X010482Y002551D01*
X010478Y002547D01*
X010129Y004499D02*
X010130Y004500D01*
X010129Y004499D02*
X007242Y004499D01*
X007043Y004300D01*
X007043Y003853D01*
X006996Y003805D01*
X006496Y003805D02*
X006478Y003824D01*
X006478Y004300D01*
X006256Y004522D01*
X004827Y004522D01*
X004827Y004482D01*
X004827Y003813D02*
X004827Y003789D01*
X004812Y003789D01*
X004381Y003789D01*
X004202Y003968D01*
X004202Y006063D01*
X004411Y006271D01*
X004833Y006271D01*
X004833Y006232D01*
X004833Y006271D02*
X004833Y006422D01*
X005772Y007361D01*
X006468Y007202D02*
X006468Y006294D01*
X006496Y006266D01*
X006959Y006229D02*
X006959Y005675D01*
X006807Y005523D01*
X004833Y005523D01*
X004833Y005562D01*
X004812Y003789D02*
X004827Y003774D01*
X006959Y006229D02*
X006996Y006266D01*
X010651Y006370D02*
X010651Y006420D01*
X011591Y007359D01*
X014697Y014734D02*
X015343Y015380D01*
X015847Y015380D01*
X015848Y015378D01*
X009387Y020391D02*
X009296Y020434D01*
X013265Y023856D02*
X013599Y024189D01*
X014477Y024189D01*
X014809Y023857D01*
X014809Y023167D01*
X014488Y023756D02*
X014473Y023771D01*
X013724Y023771D01*
X013705Y023778D01*
X013687Y023760D01*
X026249Y025204D02*
X026250Y025277D01*
X026250Y025626D01*
X027498Y025629D02*
X027502Y025603D01*
X027504Y025196D01*
X020854Y003776D02*
X020904Y003726D01*
X020904Y003194D01*
X020906Y003195D02*
X021377Y002724D01*
X024065Y002724D01*
X020906Y003195D02*
X020906Y003725D01*
X020854Y003776D01*
X019867Y003764D02*
X019854Y003776D01*
X019800Y002701D02*
X019651Y002552D01*
D41*
X019800Y002701D03*
X020904Y003194D03*
X021863Y003269D03*
X022844Y003245D03*
X021932Y004614D03*
X022354Y005019D03*
X021388Y004622D03*
X021124Y005001D03*
X020141Y005703D03*
X020011Y005174D03*
X019884Y006821D03*
X020357Y006819D03*
X020862Y006801D03*
X021357Y006809D03*
X021863Y006813D03*
X022374Y006801D03*
X022850Y006793D03*
X023356Y006811D03*
X022400Y007604D03*
X022400Y008511D03*
X022372Y008945D03*
X022214Y009647D03*
X023052Y009503D03*
X023380Y010444D03*
X023934Y010937D03*
X024802Y010797D03*
X025018Y011365D03*
X023973Y012438D03*
X023063Y012372D03*
X022635Y012399D03*
X022076Y012008D03*
X022458Y011065D03*
X022885Y011509D03*
X021265Y011550D03*
X020838Y011658D03*
X020474Y012041D03*
X020422Y012455D03*
X020456Y012851D03*
X020665Y014053D03*
X020703Y014554D03*
X020251Y014881D03*
X020193Y015492D03*
X020593Y016781D03*
X021141Y018393D03*
X021909Y019149D03*
X022454Y019085D03*
X022190Y018176D03*
X023109Y019732D03*
X022804Y020251D03*
X022873Y021140D03*
X022428Y021908D03*
X022260Y022531D03*
X022042Y020944D03*
X021620Y020719D03*
X021323Y020426D03*
X020925Y020197D03*
X020838Y019793D03*
X020922Y022128D03*
X020892Y022938D03*
X022358Y025267D03*
X025217Y022716D03*
X025228Y021671D03*
X025263Y020087D03*
X025292Y019608D03*
X025650Y019189D03*
X026085Y019467D03*
X026487Y019178D03*
X026554Y019660D03*
X027474Y019276D03*
X027781Y018289D03*
X027848Y016932D03*
X026456Y016830D03*
X026498Y017596D03*
X025269Y017497D03*
X023893Y016814D03*
X022705Y016122D03*
X023954Y015103D03*
X023959Y014607D03*
X023806Y014092D03*
X023952Y013700D03*
X022716Y014258D03*
X019866Y011451D03*
X019194Y012428D03*
X018058Y011518D03*
X017413Y011543D03*
X016837Y011632D03*
X017689Y012280D03*
X018384Y014064D03*
X018965Y014393D03*
X018363Y014923D03*
X018433Y015933D03*
X017960Y015959D03*
X017275Y016028D03*
X016858Y016822D03*
X017270Y017143D03*
X017961Y016720D03*
X018423Y017094D03*
X018258Y017581D03*
X016367Y015616D03*
X015922Y015042D03*
X014697Y014734D03*
X014455Y016947D03*
X014254Y017581D03*
X014174Y019005D03*
X014298Y019776D03*
X015443Y018554D03*
X012413Y020256D03*
X010866Y020179D03*
X010875Y020715D03*
X011026Y021647D03*
X011370Y022109D03*
X010940Y022750D03*
X011246Y022994D03*
X010441Y021824D03*
X009836Y021819D03*
X009382Y021824D03*
X008477Y022099D03*
X007848Y022739D03*
X007206Y022789D03*
X006893Y023572D03*
X007453Y023952D03*
X007998Y023562D03*
X008434Y023819D03*
X009434Y023075D03*
X009721Y022756D03*
X010103Y023781D03*
X011833Y024166D03*
X012932Y024332D03*
X012943Y023810D03*
X014277Y023207D03*
X014488Y023756D03*
X014809Y023167D03*
X018049Y022682D03*
X018254Y022283D03*
X018412Y021518D03*
X018485Y020869D03*
X018141Y023448D03*
X017583Y015159D03*
X020037Y010285D03*
X019490Y009417D03*
X020679Y009272D03*
X020385Y008605D03*
X019353Y006817D03*
X017923Y006833D03*
X017428Y006850D03*
X016903Y006845D03*
X017421Y007587D03*
X015945Y006894D03*
X015435Y006865D03*
X014921Y006853D03*
X014431Y006846D03*
X013941Y006858D03*
X013396Y005881D03*
X014253Y005433D03*
X014907Y004888D03*
X014424Y004489D03*
X015431Y004641D03*
X016098Y005767D03*
X016589Y004966D03*
X016961Y004635D03*
X018707Y003212D03*
X016729Y009554D03*
X014941Y009313D03*
X010943Y014542D03*
X010798Y015013D03*
X010012Y016216D03*
X009639Y016093D03*
X010608Y016866D03*
X010771Y018008D03*
X010949Y018367D03*
X009966Y018188D03*
X009134Y018545D03*
X008270Y018569D03*
X007443Y017904D03*
X007376Y017493D03*
X007698Y016970D03*
X007201Y016745D03*
X007897Y016159D03*
X007483Y015828D03*
X008365Y015443D03*
X008617Y016766D03*
X009154Y017475D03*
X007777Y019646D03*
X008542Y020385D03*
X006439Y017963D03*
X006160Y018527D03*
X005270Y018233D03*
X004808Y019487D03*
X004680Y020018D03*
X004716Y020802D03*
X004574Y021473D03*
X005006Y021470D03*
X005385Y021620D03*
X006274Y021105D03*
X005892Y022933D03*
X005962Y023720D03*
X004584Y022736D03*
X004122Y021481D03*
X003066Y022987D03*
X002708Y023279D03*
X002134Y022442D03*
X001391Y022179D03*
X001305Y021103D03*
X000947Y020359D03*
X000950Y019239D03*
X001405Y019138D03*
X002169Y019630D03*
X002883Y018406D03*
X003473Y018185D03*
X002905Y016954D03*
X000987Y018055D03*
X002611Y021463D03*
X005702Y016994D03*
X005361Y016698D03*
X006418Y016463D03*
X006412Y015794D03*
X007093Y014679D03*
X007418Y013383D03*
X007766Y013079D03*
X007802Y012258D03*
X008307Y012274D03*
X007410Y012234D03*
X006831Y012624D03*
X005967Y010725D03*
X007374Y010143D03*
X008475Y010865D03*
X010250Y013289D03*
X010851Y019431D03*
X004324Y013159D03*
X004312Y012695D03*
X004462Y011743D03*
X001363Y013697D03*
X025308Y009687D03*
X025672Y009001D03*
X026049Y009346D03*
X026482Y009026D03*
X026480Y008435D03*
X027644Y007453D03*
X026137Y005831D03*
X026306Y005082D03*
X026286Y004745D03*
X025857Y004585D03*
X026306Y003755D03*
X027308Y004669D03*
X027543Y002889D03*
X026057Y010103D03*
X026526Y010351D03*
X026448Y010961D03*
X026500Y013266D03*
X026250Y025626D03*
X027498Y025629D03*
D42*
X023039Y023631D03*
X019909Y024328D03*
X019375Y023350D03*
X019143Y022722D03*
X019416Y022273D03*
X019202Y019749D03*
X018739Y019789D03*
X016749Y020762D03*
X015571Y021033D03*
X015879Y022207D03*
X014290Y021361D03*
X015866Y019317D03*
X010841Y019808D03*
X010598Y018711D03*
X008219Y017654D03*
X007732Y018707D03*
X008121Y021772D03*
X005414Y025037D03*
X004948Y023773D03*
X005207Y022294D03*
X004637Y019037D03*
X002147Y019041D03*
X000938Y017486D03*
X003584Y016198D03*
X005092Y013780D03*
X003093Y013351D03*
X005768Y007372D03*
X006468Y007202D03*
X009639Y008250D03*
X010435Y008640D03*
X011146Y009797D03*
X011591Y007359D03*
X010651Y006370D03*
X010130Y004500D03*
X010478Y002547D03*
X014050Y013005D03*
X019576Y004787D03*
X025694Y006836D03*
X025288Y015435D03*
X024245Y019253D03*
X001045Y022653D03*
D43*
X006892Y021349D02*
X006892Y021105D01*
X007725Y021105D01*
X007729Y021349D01*
X007727Y021345D01*
X006892Y021349D01*
X006892Y021315D02*
X007728Y021315D01*
X007728Y021266D02*
X006892Y021266D01*
X006892Y021218D02*
X007727Y021218D01*
X007726Y021169D02*
X006892Y021169D01*
X006892Y021121D02*
X007725Y021121D01*
X008082Y021121D02*
X009146Y021121D01*
X009146Y021105D02*
X008082Y021105D01*
X008082Y021348D01*
X009146Y021347D01*
X009146Y021105D01*
X009146Y021169D02*
X008082Y021169D01*
X008082Y021218D02*
X009146Y021218D01*
X009146Y021266D02*
X008082Y021266D01*
X008082Y021315D02*
X009146Y021315D01*
X009274Y021315D02*
X009614Y021315D01*
X009614Y021351D02*
X009274Y021351D01*
X009274Y021105D01*
X009614Y021105D01*
X009614Y021351D01*
X009614Y021266D02*
X009274Y021266D01*
X009274Y021218D02*
X009614Y021218D01*
X009614Y021169D02*
X009274Y021169D01*
X009274Y021121D02*
X009614Y021121D01*
X009738Y022324D02*
X009738Y022520D01*
X007726Y022521D01*
X007725Y022325D01*
X009738Y022324D01*
X009738Y022333D02*
X007725Y022333D01*
X007725Y022382D02*
X009738Y022382D01*
X009738Y022430D02*
X007726Y022430D01*
X007726Y022479D02*
X009738Y022479D01*
X007376Y022479D02*
X007024Y022479D01*
X007024Y022523D02*
X007376Y022524D01*
X007376Y022322D01*
X007025Y022320D01*
X007024Y022523D01*
X007025Y022430D02*
X007376Y022430D01*
X007376Y022382D02*
X007025Y022382D01*
X007025Y022333D02*
X007376Y022333D01*
X005768Y007372D02*
X005772Y007369D01*
X005772Y007361D01*
X014921Y006853D02*
X014922Y006854D01*
X016903Y006845D02*
X016905Y006845D01*
X016905Y006845D01*
X019884Y006821D02*
X019884Y006820D01*
X020857Y006800D02*
X020858Y006801D01*
X020862Y006801D01*
X022371Y006799D02*
X022373Y006801D01*
X022374Y006801D01*
X022846Y006793D02*
X022850Y006793D01*
X022850Y006793D01*
X025857Y004585D02*
X025857Y004581D01*
D44*
X018394Y005635D02*
X018394Y005755D01*
X014917Y003826D02*
X014907Y003837D01*
D45*
X007210Y020701D03*
D46*
X005705Y020380D02*
X005705Y021062D01*
X004223Y022964D02*
X004948Y023688D01*
X004948Y023773D01*
X004223Y022964D02*
X003807Y022964D01*
X003806Y022965D01*
X010280Y020397D02*
X010280Y020077D01*
X010548Y019808D01*
X010841Y019808D01*
X011763Y020385D02*
X011864Y020373D01*
X011969Y020267D02*
X011969Y020097D01*
X016749Y019620D02*
X016749Y020762D01*
X016749Y020898D01*
X017124Y021273D01*
X016749Y021649D01*
X016749Y022669D01*
X017148Y022269D01*
X017411Y022269D01*
X016749Y022669D02*
X016749Y022865D01*
X017153Y023270D01*
X017411Y023270D01*
X017424Y023271D02*
X017424Y023771D01*
X017410Y021273D02*
X017124Y021273D01*
X016749Y020659D02*
X017133Y020275D01*
X017408Y020275D01*
X016749Y019620D02*
X017098Y019271D01*
X017424Y019271D01*
X023752Y019252D02*
X024244Y019252D01*
X025288Y015435D02*
X025642Y015435D01*
X025645Y015437D02*
X025645Y014016D01*
X025637Y014009D02*
X025637Y012561D01*
X025637Y012560D02*
X025637Y011143D01*
X025679Y006251D02*
X025309Y005880D01*
X024846Y005880D01*
X024842Y005877D02*
X024393Y005877D01*
X024391Y005878D02*
X023908Y005878D01*
X023752Y023252D02*
X023752Y023752D01*
D47*
X023767Y023236D02*
X023983Y023236D01*
X024159Y023060D01*
X024159Y022256D01*
X024129Y022256D01*
X024128Y022255D01*
X023755Y022255D01*
X024159Y022256D02*
X024159Y021572D01*
X024154Y021566D01*
X024154Y021257D01*
X024145Y021257D01*
X024128Y021240D01*
X023764Y021240D01*
X024154Y021257D02*
X024154Y020237D01*
X024154Y020237D01*
X023767Y020237D01*
X023752Y020252D01*
X024154Y020237D02*
X024154Y019536D01*
X024245Y019445D01*
X024245Y019253D01*
X010240Y020437D02*
X009299Y020437D01*
X006624Y020380D02*
X005705Y020380D01*
X005699Y020374D02*
X004691Y020374D01*
X004619Y020447D01*
X003986Y020447D01*
X003742Y020387D01*
X003102Y020391D01*
D48*
X002382Y019041D02*
X002147Y019041D01*
X005705Y021062D02*
X005714Y021062D01*
X006484Y021831D01*
X006744Y021831D01*
X006984Y021591D01*
X006984Y021263D01*
X006977Y021255D01*
X007488Y021352D02*
X007878Y021742D01*
X008091Y021742D01*
X008121Y021772D01*
X008419Y021474D01*
X008379Y021434D01*
X008155Y019068D02*
X007794Y018707D01*
X007732Y018707D01*
X008155Y019068D02*
X008828Y019068D01*
X010599Y018709D02*
X010765Y018709D01*
X011126Y019070D01*
X016749Y020629D02*
X016749Y020762D01*
X016749Y020659D01*
X017408Y020275D02*
X017410Y020273D01*
X025694Y006836D02*
X025694Y006266D01*
X025679Y006251D01*
X019576Y004787D02*
X019352Y004787D01*
X019198Y004633D01*
X018951Y004633D01*
X018948Y004631D01*
X018939Y004621D01*
X018939Y004128D01*
X018929Y004118D01*
X018929Y003670D01*
X018948Y004631D02*
X018948Y005012D01*
X018882Y005078D01*
X018699Y005078D01*
X018674Y005103D01*
X005414Y025037D02*
X005255Y025037D01*
X005087Y025205D01*
X004608Y025205D01*
D49*
X010432Y020460D02*
X010701Y020460D01*
X010721Y020439D01*
X010973Y020439D01*
X011028Y020385D01*
X011763Y020385D01*
X011969Y020097D02*
X012076Y019990D01*
X012514Y019990D01*
X012517Y019987D02*
X012604Y019987D01*
X013014Y020397D01*
D50*
X007488Y021352D02*
X007434Y021226D01*
X005171Y019037D02*
X004637Y019037D01*
D51*
X008379Y021226D02*
X008379Y021434D01*
D52*
X011127Y019069D02*
X011236Y019069D01*
X002587Y019047D02*
X002389Y019047D01*
X002382Y019041D01*
D53*
X004608Y025205D02*
X004608Y025280D01*
M02*
