G75*
%MOIN*%
%OFA0B0*%
%FSLAX24Y24*%
%IPPOS*%
%LPD*%
%AMOC8*
5,1,8,0,0,1.08239X$1,22.5*
%
%ADD10R,0.0250X0.0500*%
%ADD11R,0.0250X0.1201*%
%ADD12R,0.1181X0.1890*%
%ADD13R,0.0787X0.0236*%
%ADD14R,0.1260X0.0906*%
%ADD15C,0.0047*%
%ADD16R,0.0315X0.0571*%
%ADD17R,0.0591X0.0512*%
%ADD18R,0.0630X0.0460*%
%ADD19R,0.0472X0.1260*%
%ADD20R,0.1050X0.0400*%
%ADD21R,0.0160X0.0220*%
%ADD22R,0.0680X0.0800*%
%ADD23R,0.0354X0.0276*%
%ADD24R,0.0276X0.0354*%
%ADD25R,0.0710X0.0630*%
%ADD26C,0.0105*%
%ADD27R,0.0450X0.0300*%
%ADD28R,0.0118X0.0264*%
%ADD29R,0.0118X0.0197*%
%ADD30R,0.0138X0.0394*%
D10*
X000965Y004238D03*
D11*
X025640Y011139D03*
X026065Y011139D03*
X026061Y012560D03*
X025637Y012560D03*
X025637Y014009D03*
X026061Y014009D03*
X026069Y015437D03*
X025645Y015437D03*
X025660Y016863D03*
X026084Y016863D03*
X026080Y018344D03*
X025655Y018344D03*
D12*
X004417Y017521D03*
X001976Y017521D03*
X001976Y007994D03*
X004417Y007994D03*
D13*
X021416Y008270D03*
X021416Y008585D03*
X021416Y008900D03*
X021416Y009215D03*
X021416Y009530D03*
X021416Y009845D03*
X021416Y010160D03*
X021416Y010475D03*
X021416Y012050D03*
X021416Y012365D03*
X021416Y012680D03*
X021416Y012995D03*
X021416Y013310D03*
X021416Y013625D03*
X021416Y013940D03*
X021416Y014255D03*
X021416Y014569D03*
X021416Y014884D03*
X021416Y015199D03*
X021416Y015514D03*
X021416Y015829D03*
X021416Y016144D03*
X021416Y016459D03*
X021416Y016774D03*
X021416Y017089D03*
X021416Y017404D03*
X024654Y017246D03*
X024654Y016931D03*
X024654Y016616D03*
X024654Y016301D03*
X024654Y015986D03*
X024654Y015671D03*
X024654Y015356D03*
X024654Y015041D03*
X024654Y014726D03*
X024654Y014411D03*
X024654Y014096D03*
X024654Y013781D03*
X024654Y013466D03*
X024654Y013151D03*
X024654Y012836D03*
X024654Y012521D03*
X024654Y012206D03*
X024654Y011891D03*
X024654Y010317D03*
X024654Y010002D03*
X024654Y009687D03*
X024654Y009372D03*
X024654Y009057D03*
X024654Y008742D03*
X024654Y008427D03*
X024654Y008112D03*
D14*
X024417Y006990D03*
X024417Y018525D03*
D15*
X023488Y006499D02*
X023220Y006499D01*
X023488Y006499D02*
X023488Y005975D01*
X023220Y005975D01*
X023220Y006499D01*
X023220Y006021D02*
X023488Y006021D01*
X023488Y006067D02*
X023220Y006067D01*
X023220Y006113D02*
X023488Y006113D01*
X023488Y006159D02*
X023220Y006159D01*
X023220Y006205D02*
X023488Y006205D01*
X023488Y006251D02*
X023220Y006251D01*
X023220Y006297D02*
X023488Y006297D01*
X023488Y006343D02*
X023220Y006343D01*
X023220Y006389D02*
X023488Y006389D01*
X023488Y006435D02*
X023220Y006435D01*
X023220Y006481D02*
X023488Y006481D01*
X017551Y006549D02*
X017283Y006549D01*
X017551Y006549D02*
X017551Y006025D01*
X017283Y006025D01*
X017283Y006549D01*
X017283Y006071D02*
X017551Y006071D01*
X017551Y006117D02*
X017283Y006117D01*
X017283Y006163D02*
X017551Y006163D01*
X017551Y006209D02*
X017283Y006209D01*
X017283Y006255D02*
X017551Y006255D01*
X017551Y006301D02*
X017283Y006301D01*
X017283Y006347D02*
X017551Y006347D01*
X017551Y006393D02*
X017283Y006393D01*
X017283Y006439D02*
X017551Y006439D01*
X017551Y006485D02*
X017283Y006485D01*
X017283Y006531D02*
X017551Y006531D01*
X005630Y003543D02*
X005362Y003543D01*
X005362Y004067D01*
X005630Y004067D01*
X005630Y003543D01*
X005630Y003589D02*
X005362Y003589D01*
X005362Y003635D02*
X005630Y003635D01*
X005630Y003681D02*
X005362Y003681D01*
X005362Y003727D02*
X005630Y003727D01*
X005630Y003773D02*
X005362Y003773D01*
X005362Y003819D02*
X005630Y003819D01*
X005630Y003865D02*
X005362Y003865D01*
X005362Y003911D02*
X005630Y003911D01*
X005630Y003957D02*
X005362Y003957D01*
X005362Y004003D02*
X005630Y004003D01*
X005630Y004049D02*
X005362Y004049D01*
D16*
X005996Y003805D03*
X006496Y003805D03*
X006996Y003805D03*
X007496Y003805D03*
X007996Y003805D03*
X008496Y003805D03*
X008996Y003805D03*
X008996Y006266D03*
X008496Y006266D03*
X007996Y006266D03*
X007496Y006266D03*
X006996Y006266D03*
X006496Y006266D03*
X005996Y006266D03*
X005496Y006266D03*
X013917Y006287D03*
X014417Y006287D03*
X014917Y006287D03*
X015417Y006287D03*
X015917Y006287D03*
X016417Y006287D03*
X016917Y006287D03*
X016917Y003826D03*
X016417Y003826D03*
X015917Y003826D03*
X015417Y003826D03*
X014917Y003826D03*
X014417Y003826D03*
X013917Y003826D03*
X017417Y003826D03*
X019854Y003776D03*
X020354Y003776D03*
X020854Y003776D03*
X021354Y003776D03*
X021854Y003776D03*
X022354Y003776D03*
X022854Y003776D03*
X023354Y003776D03*
X022854Y006237D03*
X022354Y006237D03*
X021854Y006237D03*
X021354Y006237D03*
X020854Y006237D03*
X020354Y006237D03*
X019854Y006237D03*
D17*
X004833Y006232D03*
X004833Y005562D03*
X004827Y004482D03*
X004827Y003813D03*
D18*
X003806Y022965D03*
X003806Y023565D03*
D19*
X024563Y023138D03*
X026138Y023138D03*
X026138Y020461D03*
X024563Y020461D03*
D20*
X024875Y025268D03*
X023448Y025271D03*
X026249Y025204D03*
X027504Y025196D03*
X004608Y025205D03*
X003266Y025206D03*
D21*
X002582Y020680D03*
X002582Y020101D03*
X002587Y019626D03*
X002587Y019047D03*
X005176Y019042D03*
X005176Y019622D03*
X005185Y020091D03*
X005185Y020670D03*
X008867Y020681D03*
X008867Y020101D03*
X008870Y019636D03*
X008870Y019056D03*
X011236Y019069D03*
X011236Y019648D03*
X011243Y020095D03*
X011243Y020674D03*
D22*
X011763Y020385D03*
X011756Y019359D03*
X009390Y019346D03*
X009387Y020391D03*
X005705Y020380D03*
X005696Y019332D03*
X003107Y019337D03*
X003102Y020391D03*
D23*
X017919Y006266D03*
X017919Y005755D03*
X018394Y005755D03*
X018861Y005755D03*
X018861Y006266D03*
X018394Y006266D03*
X019347Y006266D03*
X019347Y005755D03*
X023908Y005878D03*
X023908Y005366D03*
X024391Y005367D03*
X024842Y005365D03*
X024842Y005877D03*
X024391Y005878D03*
X025309Y005880D03*
X025309Y005369D03*
X025307Y004575D03*
X025307Y004064D03*
X024847Y004061D03*
X024391Y004064D03*
X024391Y004576D03*
X024847Y004573D03*
X023912Y004579D03*
X023912Y004068D03*
D24*
X018939Y004128D03*
X018929Y003670D03*
X018417Y003670D03*
X018427Y004128D03*
X018437Y004631D03*
X018674Y005103D03*
X018948Y004631D03*
X018162Y005103D03*
D25*
X013044Y019300D03*
X013044Y020419D03*
X010245Y020400D03*
X010245Y019280D03*
X006663Y019300D03*
X006663Y020419D03*
X003986Y020447D03*
X003986Y019327D03*
D26*
X013897Y023673D02*
X013897Y023869D01*
X013897Y023673D02*
X013551Y023673D01*
X013551Y023869D01*
X013897Y023869D01*
X013897Y023777D02*
X013551Y023777D01*
X020225Y023850D02*
X020225Y023654D01*
X019879Y023654D01*
X019879Y023850D01*
X020225Y023850D01*
X020225Y023758D02*
X019879Y023758D01*
D27*
X020052Y023252D03*
X020052Y022752D03*
X020052Y022252D03*
X020052Y021752D03*
X020052Y021252D03*
X020052Y020752D03*
X020052Y020252D03*
X020052Y019752D03*
X020052Y019252D03*
X017424Y019271D03*
X017424Y019771D03*
X017424Y020271D03*
X017424Y020771D03*
X017424Y021271D03*
X017424Y021771D03*
X017424Y022271D03*
X017424Y022771D03*
X017424Y023271D03*
X017424Y023771D03*
X013724Y023271D03*
X013724Y022771D03*
X013724Y022271D03*
X013724Y021771D03*
X013724Y021271D03*
X013724Y020771D03*
X013724Y020271D03*
X013724Y019771D03*
X013724Y019271D03*
X023752Y019252D03*
X023752Y019752D03*
X023752Y020252D03*
X023752Y020752D03*
X023752Y021252D03*
X023752Y021752D03*
X023752Y022252D03*
X023752Y022752D03*
X023752Y023252D03*
X023752Y023752D03*
D28*
X012867Y021226D03*
X012631Y021226D03*
X012395Y021226D03*
X012158Y021226D03*
X011922Y021226D03*
X011686Y021226D03*
X011450Y021226D03*
X011214Y021226D03*
X010977Y021226D03*
X010741Y021226D03*
X010505Y021226D03*
X010269Y021226D03*
X010032Y021226D03*
X009796Y021226D03*
X009560Y021226D03*
X009324Y021226D03*
X009088Y021226D03*
X008851Y021226D03*
X008615Y021226D03*
X008379Y021226D03*
X008143Y021226D03*
X007906Y021226D03*
X007670Y021226D03*
X007434Y021226D03*
X007198Y021226D03*
X006962Y021226D03*
D29*
X007080Y022433D03*
X007316Y022433D03*
X007552Y022433D03*
X007788Y022433D03*
X008025Y022433D03*
X008261Y022433D03*
X008497Y022433D03*
X008733Y022433D03*
X008969Y022433D03*
X009206Y022433D03*
X009442Y022433D03*
X009678Y022433D03*
X009914Y022433D03*
X010151Y022433D03*
X010387Y022433D03*
X010623Y022433D03*
X010859Y022433D03*
X011095Y022433D03*
X011332Y022433D03*
X011568Y022433D03*
X011804Y022433D03*
X012040Y022433D03*
X012277Y022433D03*
X012513Y022433D03*
X012749Y022433D03*
D30*
X013251Y021330D03*
X006578Y021330D03*
M02*
