G75*
%MOIN*%
%OFA0B0*%
%FSLAX24Y24*%
%IPPOS*%
%LPD*%
%AMOC8*
5,1,8,0,0,1.08239X$1,22.5*
%
%ADD10C,0.0475*%
%ADD11C,0.0886*%
%ADD12C,0.0945*%
%ADD13C,0.1280*%
%ADD14C,0.0240*%
%ADD15C,0.0340*%
%ADD16C,0.0220*%
%ADD17C,0.0300*%
%ADD18C,0.0270*%
%ADD19C,0.0600*%
D10*
X001582Y011341D03*
X003748Y011341D03*
X005589Y011791D03*
X008892Y012632D03*
X010589Y011791D03*
X008892Y014798D03*
X010325Y015794D03*
X005325Y015794D03*
D11*
X007827Y020373D03*
X008087Y007213D03*
D12*
X014544Y011905D03*
X016404Y013358D03*
X018844Y008507D03*
X018766Y018928D03*
X016359Y023630D03*
X014499Y022177D03*
D13*
X012659Y015680D03*
X012659Y013535D03*
X012659Y011389D03*
X012659Y008997D03*
X012659Y006851D03*
X012659Y004706D03*
D14*
X013396Y005881D03*
X014253Y005433D03*
X014907Y004888D03*
X014424Y004489D03*
X015431Y004641D03*
X016098Y005767D03*
X016589Y004966D03*
X016961Y004635D03*
X016903Y006845D03*
X017428Y006850D03*
X017923Y006833D03*
X017421Y007587D03*
X015945Y006894D03*
X015435Y006865D03*
X014921Y006853D03*
X014431Y006846D03*
X013941Y006858D03*
X014941Y009313D03*
X016729Y009554D03*
X016837Y011632D03*
X017413Y011543D03*
X018058Y011518D03*
X017689Y012280D03*
X019194Y012428D03*
X019866Y011451D03*
X020474Y012041D03*
X020838Y011658D03*
X021265Y011550D03*
X022076Y012008D03*
X022635Y012399D03*
X023063Y012372D03*
X022885Y011509D03*
X022458Y011065D03*
X023380Y010444D03*
X023934Y010937D03*
X024802Y010797D03*
X025018Y011365D03*
X023973Y012438D03*
X023952Y013700D03*
X023806Y014092D03*
X023959Y014607D03*
X023954Y015103D03*
X022716Y014258D03*
X022705Y016122D03*
X023893Y016814D03*
X025269Y017497D03*
X026498Y017596D03*
X026456Y016830D03*
X027848Y016932D03*
X027781Y018289D03*
X027474Y019276D03*
X026487Y019178D03*
X026554Y019660D03*
X026085Y019467D03*
X025650Y019189D03*
X025292Y019608D03*
X025263Y020087D03*
X025228Y021671D03*
X025217Y022716D03*
X022873Y021140D03*
X022428Y021908D03*
X022260Y022531D03*
X022042Y020944D03*
X021620Y020719D03*
X021323Y020426D03*
X020925Y020197D03*
X020838Y019793D03*
X021909Y019149D03*
X022454Y019085D03*
X022190Y018176D03*
X021141Y018393D03*
X020593Y016781D03*
X020193Y015492D03*
X020251Y014881D03*
X020703Y014554D03*
X020665Y014053D03*
X020456Y012851D03*
X020422Y012455D03*
X018965Y014393D03*
X018384Y014064D03*
X018363Y014923D03*
X018433Y015933D03*
X017960Y015959D03*
X017275Y016028D03*
X016858Y016822D03*
X017270Y017143D03*
X017961Y016720D03*
X018423Y017094D03*
X018258Y017581D03*
X016367Y015616D03*
X015922Y015042D03*
X014697Y014734D03*
X014455Y016947D03*
X014254Y017581D03*
X014174Y019005D03*
X014298Y019776D03*
X015443Y018554D03*
X012413Y020256D03*
X010866Y020179D03*
X010875Y020715D03*
X011026Y021647D03*
X011370Y022109D03*
X010940Y022750D03*
X011246Y022994D03*
X010441Y021824D03*
X009836Y021819D03*
X009382Y021824D03*
X008477Y022099D03*
X007848Y022739D03*
X007206Y022789D03*
X006893Y023572D03*
X007453Y023952D03*
X007998Y023562D03*
X008434Y023819D03*
X009434Y023075D03*
X009721Y022756D03*
X010103Y023781D03*
X011833Y024166D03*
X012932Y024332D03*
X012943Y023810D03*
X014277Y023207D03*
X014488Y023756D03*
X014809Y023167D03*
X018049Y022682D03*
X018254Y022283D03*
X018412Y021518D03*
X018485Y020869D03*
X018141Y023448D03*
X020892Y022938D03*
X020922Y022128D03*
X022804Y020251D03*
X023109Y019732D03*
X022358Y025267D03*
X026250Y025626D03*
X027498Y025629D03*
X017583Y015159D03*
X020037Y010285D03*
X019490Y009417D03*
X020679Y009272D03*
X020385Y008605D03*
X020357Y006819D03*
X019884Y006821D03*
X019353Y006817D03*
X020141Y005703D03*
X020011Y005174D03*
X021124Y005001D03*
X021388Y004622D03*
X021932Y004614D03*
X022354Y005019D03*
X022374Y006801D03*
X022850Y006793D03*
X023356Y006811D03*
X022400Y007604D03*
X022400Y008511D03*
X022372Y008945D03*
X022214Y009647D03*
X023052Y009503D03*
X021863Y006813D03*
X021357Y006809D03*
X020862Y006801D03*
X020904Y003194D03*
X021863Y003269D03*
X022844Y003245D03*
X019800Y002701D03*
X018707Y003212D03*
X025308Y009687D03*
X025672Y009001D03*
X026049Y009346D03*
X026482Y009026D03*
X026480Y008435D03*
X027644Y007453D03*
X026137Y005831D03*
X026306Y005082D03*
X026286Y004745D03*
X025857Y004585D03*
X026306Y003755D03*
X027308Y004669D03*
X027543Y002889D03*
X026057Y010103D03*
X026526Y010351D03*
X026448Y010961D03*
X026500Y013266D03*
X010943Y014542D03*
X010798Y015013D03*
X010012Y016216D03*
X009639Y016093D03*
X010608Y016866D03*
X010771Y018008D03*
X010949Y018367D03*
X009966Y018188D03*
X009134Y018545D03*
X008270Y018569D03*
X007443Y017904D03*
X007376Y017493D03*
X007698Y016970D03*
X007201Y016745D03*
X007897Y016159D03*
X007483Y015828D03*
X008365Y015443D03*
X008617Y016766D03*
X009154Y017475D03*
X007777Y019646D03*
X008542Y020385D03*
X006439Y017963D03*
X006160Y018527D03*
X005270Y018233D03*
X004808Y019487D03*
X004680Y020018D03*
X004716Y020802D03*
X004574Y021473D03*
X005006Y021470D03*
X005385Y021620D03*
X006274Y021105D03*
X005892Y022933D03*
X005962Y023720D03*
X004584Y022736D03*
X004122Y021481D03*
X003066Y022987D03*
X002708Y023279D03*
X002134Y022442D03*
X001391Y022179D03*
X001305Y021103D03*
X000947Y020359D03*
X000950Y019239D03*
X001405Y019138D03*
X002169Y019630D03*
X002883Y018406D03*
X003473Y018185D03*
X002905Y016954D03*
X000987Y018055D03*
X002611Y021463D03*
X005702Y016994D03*
X005361Y016698D03*
X006418Y016463D03*
X006412Y015794D03*
X007093Y014679D03*
X007418Y013383D03*
X007766Y013079D03*
X007802Y012258D03*
X008307Y012274D03*
X007410Y012234D03*
X006831Y012624D03*
X005967Y010725D03*
X007374Y010143D03*
X008475Y010865D03*
X010250Y013289D03*
X010851Y019431D03*
X004324Y013159D03*
X004312Y012695D03*
X004462Y011743D03*
X001363Y013697D03*
D15*
X005768Y007372D03*
X006468Y007202D03*
X009639Y008250D03*
X010435Y008640D03*
X011146Y009797D03*
X011591Y007359D03*
X010651Y006370D03*
X010130Y004500D03*
X010478Y002547D03*
X014050Y013005D03*
X010598Y018711D03*
X010841Y019808D03*
X008121Y021772D03*
X007732Y018707D03*
X008219Y017654D03*
X005092Y013780D03*
X003093Y013351D03*
X003584Y016198D03*
X000938Y017486D03*
X002147Y019041D03*
X004637Y019037D03*
X005207Y022294D03*
X004948Y023773D03*
X005414Y025037D03*
X001045Y022653D03*
X014290Y021361D03*
X015571Y021033D03*
X015879Y022207D03*
X016749Y020762D03*
X015866Y019317D03*
X018739Y019789D03*
X019202Y019749D03*
X019416Y022273D03*
X019143Y022722D03*
X019375Y023350D03*
X019909Y024328D03*
X023039Y023631D03*
X024245Y019253D03*
X025288Y015435D03*
X025694Y006836D03*
X019576Y004787D03*
D16*
X007210Y020701D03*
D17*
X008121Y021772D02*
X010085Y019808D01*
X010841Y019808D01*
X011276Y018781D02*
X011206Y018711D01*
X010598Y018711D01*
X010479Y018593D01*
X009721Y018593D01*
X009293Y018164D01*
X008022Y018164D01*
X007906Y018280D01*
X007276Y018280D01*
X006684Y017687D01*
X006684Y017466D01*
X005975Y016757D01*
X005975Y016684D01*
X005592Y016301D01*
X004479Y016301D01*
X004376Y016198D01*
X003584Y016198D01*
X003584Y012285D01*
X003748Y012122D01*
X003748Y011341D01*
X002147Y019041D02*
X001776Y019411D01*
X001776Y022330D01*
X001453Y022653D01*
X001045Y022653D01*
X005414Y024843D02*
X005414Y025037D01*
X005414Y024843D02*
X005710Y024546D01*
X010202Y024546D01*
X011248Y023500D01*
X011979Y023500D01*
X013303Y022177D01*
X014499Y022177D01*
X014488Y022060D01*
X014673Y021874D01*
X014673Y021709D01*
X014685Y021709D01*
X014685Y020910D01*
X014682Y020907D01*
X014682Y020443D01*
X014441Y020201D01*
X013827Y020201D01*
X012406Y018781D01*
X011276Y018781D01*
X016195Y020093D02*
X017359Y018928D01*
X018766Y018928D01*
X016195Y021172D02*
X016576Y021553D01*
X016576Y023401D01*
X016359Y023630D01*
X016195Y021172D02*
X016195Y020093D01*
D18*
X008121Y021772D02*
X006422Y021772D01*
X005423Y022772D01*
X005423Y023298D01*
X004948Y023773D01*
D19*
X012659Y013535D02*
X018052Y018928D01*
X018766Y018928D01*
X018859Y008500D02*
X014329Y008500D01*
X014322Y008494D01*
X014322Y008494D01*
X012665Y006837D01*
M02*
