G75*
%MOIN*%
%OFA0B0*%
%FSLAX24Y24*%
%IPPOS*%
%LPD*%
%AMOC8*
5,1,8,0,0,1.08239X$1,22.5*
%
%ADD10R,0.0354X0.0276*%
%ADD11R,0.0276X0.0354*%
%ADD12R,0.0250X0.1201*%
%ADD13C,0.0475*%
%ADD14R,0.0475X0.0475*%
%ADD15C,0.0475*%
%ADD16R,0.0886X0.0886*%
%ADD17C,0.0945*%
%ADD18R,0.1280X0.1280*%
%ADD19C,0.1280*%
%ADD20R,0.0512X0.0591*%
%ADD21R,0.0460X0.0630*%
%ADD22R,0.0400X0.1050*%
%ADD23R,0.0236X0.0610*%
%ADD24C,0.0165*%
%ADD25C,0.0000*%
%ADD26C,0.0001*%
%ADD27R,0.0591X0.0512*%
%ADD28R,0.0630X0.0460*%
%ADD29R,0.0264X0.0118*%
%ADD30R,0.0197X0.0118*%
%ADD31R,0.0394X0.0138*%
%ADD32C,0.0945*%
%ADD33R,0.0630X0.1063*%
%ADD34C,0.0240*%
%ADD35C,0.0100*%
%ADD36C,0.0340*%
%ADD37C,0.0220*%
%ADD38C,0.0300*%
%ADD39C,0.0050*%
%ADD40C,0.0200*%
%ADD41C,0.0150*%
D10*
X022336Y012856D03*
X022336Y013368D03*
X022876Y013433D03*
X022876Y012921D03*
X023382Y012919D03*
X023382Y013430D03*
X022224Y014107D03*
X022224Y014619D03*
X023574Y012025D03*
X023574Y011513D03*
D11*
X023357Y014763D03*
X022846Y014763D03*
X022990Y015423D03*
X023502Y015423D03*
X023310Y015989D03*
X023822Y015989D03*
D12*
X004341Y015366D03*
X003917Y015366D03*
X003187Y016002D03*
X002763Y016002D03*
X002052Y015990D03*
X001628Y015990D03*
X001206Y015997D03*
X000782Y015997D03*
X000785Y014573D03*
X001209Y014573D03*
X001626Y014583D03*
X002050Y014583D03*
X002754Y014599D03*
X003178Y014599D03*
X003911Y013986D03*
X004335Y013986D03*
D13*
X001820Y011341D02*
X001345Y011341D01*
X008892Y014560D02*
X008892Y015035D01*
D14*
X008892Y012632D03*
X010589Y011791D03*
X005325Y015794D03*
X003748Y011341D03*
D15*
X005589Y011791D03*
X010325Y015794D03*
D16*
X007827Y020373D03*
X008087Y007213D03*
D17*
X014544Y011905D03*
X016404Y013358D03*
X014499Y022177D03*
X016359Y023630D03*
D18*
X012659Y015680D03*
X012659Y008997D03*
D19*
X012659Y006851D03*
X012659Y004706D03*
X012659Y011389D03*
X012659Y013535D03*
D20*
X014036Y013728D03*
X014784Y013728D03*
D21*
X021810Y023620D03*
X022410Y023620D03*
D22*
X000799Y013216D03*
D23*
X013233Y017424D03*
X013245Y021133D03*
D24*
X012781Y021356D02*
X012709Y021356D01*
X012781Y021356D02*
X012781Y020910D01*
X012709Y020910D01*
X012709Y021356D01*
X012709Y021074D02*
X012781Y021074D01*
X012781Y021238D02*
X012709Y021238D01*
X012281Y021356D02*
X012209Y021356D01*
X012281Y021356D02*
X012281Y020910D01*
X012209Y020910D01*
X012209Y021356D01*
X012209Y021074D02*
X012281Y021074D01*
X012281Y021238D02*
X012209Y021238D01*
X011781Y021368D02*
X011709Y021368D01*
X011781Y021368D02*
X011781Y020922D01*
X011709Y020922D01*
X011709Y021368D01*
X011709Y021086D02*
X011781Y021086D01*
X011781Y021250D02*
X011709Y021250D01*
X012445Y021981D02*
X012517Y021981D01*
X012445Y021981D02*
X012445Y022427D01*
X012517Y022427D01*
X012517Y021981D01*
X012517Y022145D02*
X012445Y022145D01*
X012445Y022309D02*
X012517Y022309D01*
X012709Y023036D02*
X012781Y023036D01*
X012709Y023036D02*
X012709Y023482D01*
X012781Y023482D01*
X012781Y023036D01*
X012781Y023200D02*
X012709Y023200D01*
X012709Y023364D02*
X012781Y023364D01*
X013205Y023036D02*
X013277Y023036D01*
X013205Y023036D02*
X013205Y023482D01*
X013277Y023482D01*
X013277Y023036D01*
X013277Y023200D02*
X013205Y023200D01*
X013205Y023364D02*
X013277Y023364D01*
X012281Y023036D02*
X012209Y023036D01*
X012209Y023482D01*
X012281Y023482D01*
X012281Y023036D01*
X012281Y023200D02*
X012209Y023200D01*
X012209Y023364D02*
X012281Y023364D01*
X011781Y023036D02*
X011709Y023036D01*
X011709Y023482D01*
X011781Y023482D01*
X011781Y023036D01*
X011781Y023200D02*
X011709Y023200D01*
X011709Y023364D02*
X011781Y023364D01*
X011769Y019327D02*
X011697Y019327D01*
X011697Y019773D01*
X011769Y019773D01*
X011769Y019327D01*
X011769Y019491D02*
X011697Y019491D01*
X011697Y019655D02*
X011769Y019655D01*
X012197Y019327D02*
X012269Y019327D01*
X012197Y019327D02*
X012197Y019773D01*
X012269Y019773D01*
X012269Y019327D01*
X012269Y019491D02*
X012197Y019491D01*
X012197Y019655D02*
X012269Y019655D01*
X012697Y019327D02*
X012769Y019327D01*
X012697Y019327D02*
X012697Y019773D01*
X012769Y019773D01*
X012769Y019327D01*
X012769Y019491D02*
X012697Y019491D01*
X012697Y019655D02*
X012769Y019655D01*
X013193Y019327D02*
X013265Y019327D01*
X013193Y019327D02*
X013193Y019773D01*
X013265Y019773D01*
X013265Y019327D01*
X013265Y019491D02*
X013193Y019491D01*
X013193Y019655D02*
X013265Y019655D01*
X012505Y018271D02*
X012433Y018271D01*
X012433Y018717D01*
X012505Y018717D01*
X012505Y018271D01*
X012505Y018435D02*
X012433Y018435D01*
X012433Y018599D02*
X012505Y018599D01*
X012697Y017647D02*
X012769Y017647D01*
X012769Y017201D01*
X012697Y017201D01*
X012697Y017647D01*
X012697Y017365D02*
X012769Y017365D01*
X012769Y017529D02*
X012697Y017529D01*
X012269Y017647D02*
X012197Y017647D01*
X012269Y017647D02*
X012269Y017201D01*
X012197Y017201D01*
X012197Y017647D01*
X012197Y017365D02*
X012269Y017365D01*
X012269Y017529D02*
X012197Y017529D01*
X011769Y017658D02*
X011697Y017658D01*
X011769Y017658D02*
X011769Y017212D01*
X011697Y017212D01*
X011697Y017658D01*
X011697Y017376D02*
X011769Y017376D01*
X011769Y017540D02*
X011697Y017540D01*
D25*
X011737Y017945D02*
X011737Y019028D01*
X013233Y019028D01*
X013233Y017945D01*
X011737Y017945D01*
X011749Y021655D02*
X011749Y022737D01*
X013245Y022737D01*
X013245Y021655D01*
X011749Y021655D01*
X000498Y023722D02*
X000494Y023722D01*
D26*
X011749Y022737D02*
X013245Y022737D01*
X013245Y022736D02*
X011749Y022736D01*
X011749Y022735D02*
X013245Y022735D01*
X013245Y022734D02*
X011749Y022734D01*
X011749Y022733D02*
X013245Y022733D01*
X013245Y022732D02*
X011749Y022732D01*
X011749Y022731D02*
X013245Y022731D01*
X013245Y022730D02*
X011749Y022730D01*
X011749Y022729D02*
X013245Y022729D01*
X013245Y022728D02*
X011749Y022728D01*
X011749Y022727D02*
X013245Y022727D01*
X013245Y022726D02*
X011749Y022726D01*
X011749Y022725D02*
X013245Y022725D01*
X013245Y022724D02*
X011749Y022724D01*
X011749Y022723D02*
X013245Y022723D01*
X013245Y022722D02*
X011749Y022722D01*
X011749Y022721D02*
X013245Y022721D01*
X013245Y022720D02*
X011749Y022720D01*
X011749Y022719D02*
X013245Y022719D01*
X013245Y022718D02*
X011749Y022718D01*
X011749Y022717D02*
X013245Y022717D01*
X013245Y022716D02*
X011749Y022716D01*
X011749Y022715D02*
X013245Y022715D01*
X013245Y022714D02*
X011749Y022714D01*
X011749Y022713D02*
X013245Y022713D01*
X013245Y022712D02*
X011749Y022712D01*
X011749Y022711D02*
X013245Y022711D01*
X013245Y022710D02*
X011749Y022710D01*
X011749Y022709D02*
X013245Y022709D01*
X013245Y022708D02*
X011749Y022708D01*
X011749Y022707D02*
X013245Y022707D01*
X013245Y022706D02*
X011749Y022706D01*
X011749Y022705D02*
X013245Y022705D01*
X013245Y022704D02*
X011749Y022704D01*
X011749Y022703D02*
X013245Y022703D01*
X013245Y022702D02*
X011749Y022702D01*
X011749Y022701D02*
X013245Y022701D01*
X013245Y022700D02*
X011749Y022700D01*
X011749Y022699D02*
X013245Y022699D01*
X013245Y022698D02*
X011749Y022698D01*
X011749Y022697D02*
X013245Y022697D01*
X013245Y022696D02*
X011749Y022696D01*
X011749Y022695D02*
X013245Y022695D01*
X013245Y022694D02*
X011749Y022694D01*
X011749Y022693D02*
X013245Y022693D01*
X013245Y022692D02*
X011749Y022692D01*
X011749Y022691D02*
X013245Y022691D01*
X013245Y022690D02*
X011749Y022690D01*
X011749Y022689D02*
X013245Y022689D01*
X013245Y022688D02*
X011749Y022688D01*
X011749Y022687D02*
X013245Y022687D01*
X013245Y022686D02*
X011749Y022686D01*
X011749Y022685D02*
X013245Y022685D01*
X013245Y022684D02*
X011749Y022684D01*
X011749Y022683D02*
X013245Y022683D01*
X013245Y022682D02*
X011749Y022682D01*
X011749Y022681D02*
X013245Y022681D01*
X013245Y022680D02*
X011749Y022680D01*
X011749Y022679D02*
X013245Y022679D01*
X013245Y022678D02*
X011749Y022678D01*
X011749Y022677D02*
X013245Y022677D01*
X013245Y022676D02*
X011749Y022676D01*
X011749Y022675D02*
X013245Y022675D01*
X013245Y022674D02*
X011749Y022674D01*
X011749Y022673D02*
X013245Y022673D01*
X013245Y022672D02*
X011749Y022672D01*
X011749Y022671D02*
X013245Y022671D01*
X013245Y022670D02*
X011749Y022670D01*
X011749Y022669D02*
X013245Y022669D01*
X013245Y022668D02*
X011749Y022668D01*
X011749Y022667D02*
X013245Y022667D01*
X013245Y022666D02*
X011749Y022666D01*
X011749Y022665D02*
X013245Y022665D01*
X013245Y022664D02*
X011749Y022664D01*
X011749Y022663D02*
X013245Y022663D01*
X013245Y022662D02*
X011749Y022662D01*
X011749Y022661D02*
X013245Y022661D01*
X013245Y022660D02*
X011749Y022660D01*
X011749Y022659D02*
X013245Y022659D01*
X013245Y022658D02*
X011749Y022658D01*
X011749Y022657D02*
X013245Y022657D01*
X013245Y022656D02*
X011749Y022656D01*
X011749Y022655D02*
X013245Y022655D01*
X013245Y022654D02*
X011749Y022654D01*
X011749Y022653D02*
X013245Y022653D01*
X013245Y022652D02*
X011749Y022652D01*
X011749Y022651D02*
X013245Y022651D01*
X013245Y022650D02*
X011749Y022650D01*
X011749Y022649D02*
X013245Y022649D01*
X013245Y022648D02*
X011749Y022648D01*
X011749Y022647D02*
X013245Y022647D01*
X013245Y022646D02*
X011749Y022646D01*
X011749Y022645D02*
X013245Y022645D01*
X013245Y022644D02*
X011749Y022644D01*
X011749Y022643D02*
X013245Y022643D01*
X013245Y022642D02*
X011749Y022642D01*
X011749Y022641D02*
X013245Y022641D01*
X013245Y022640D02*
X011749Y022640D01*
X011749Y022639D02*
X013245Y022639D01*
X013245Y022638D02*
X011749Y022638D01*
X011749Y022637D02*
X013245Y022637D01*
X013245Y022636D02*
X011749Y022636D01*
X011749Y022635D02*
X013245Y022635D01*
X013245Y022634D02*
X011749Y022634D01*
X011749Y022633D02*
X013245Y022633D01*
X013245Y022632D02*
X011749Y022632D01*
X011749Y022631D02*
X013245Y022631D01*
X013245Y022630D02*
X011749Y022630D01*
X011749Y022629D02*
X013245Y022629D01*
X013245Y022628D02*
X011749Y022628D01*
X011749Y022627D02*
X013245Y022627D01*
X013245Y022626D02*
X011749Y022626D01*
X011749Y022625D02*
X013245Y022625D01*
X013245Y022624D02*
X011749Y022624D01*
X011749Y022623D02*
X013245Y022623D01*
X013245Y022622D02*
X011749Y022622D01*
X011749Y022621D02*
X013245Y022621D01*
X013245Y022620D02*
X011749Y022620D01*
X011749Y022619D02*
X013245Y022619D01*
X013245Y022618D02*
X011749Y022618D01*
X011749Y022617D02*
X013245Y022617D01*
X013245Y022616D02*
X011749Y022616D01*
X011749Y022615D02*
X013245Y022615D01*
X013245Y022614D02*
X011749Y022614D01*
X011749Y022613D02*
X013245Y022613D01*
X013245Y022612D02*
X011749Y022612D01*
X011749Y022611D02*
X013245Y022611D01*
X013245Y022610D02*
X011749Y022610D01*
X011749Y022609D02*
X013245Y022609D01*
X013245Y022608D02*
X011749Y022608D01*
X011749Y022607D02*
X013245Y022607D01*
X013245Y022606D02*
X011749Y022606D01*
X011749Y022605D02*
X013245Y022605D01*
X013245Y022604D02*
X011749Y022604D01*
X011749Y022603D02*
X013245Y022603D01*
X013245Y022602D02*
X011749Y022602D01*
X011749Y022601D02*
X013245Y022601D01*
X013245Y022600D02*
X011749Y022600D01*
X011749Y022599D02*
X013245Y022599D01*
X013245Y022598D02*
X011749Y022598D01*
X011749Y022597D02*
X013245Y022597D01*
X013245Y022596D02*
X011749Y022596D01*
X011749Y022595D02*
X013245Y022595D01*
X013245Y022594D02*
X011749Y022594D01*
X011749Y022593D02*
X013245Y022593D01*
X013245Y022592D02*
X011749Y022592D01*
X011749Y022591D02*
X013245Y022591D01*
X013245Y022590D02*
X011749Y022590D01*
X011749Y022589D02*
X013245Y022589D01*
X013245Y022588D02*
X011749Y022588D01*
X011749Y022587D02*
X013245Y022587D01*
X013245Y022586D02*
X011749Y022586D01*
X011749Y022585D02*
X013245Y022585D01*
X013245Y022584D02*
X011749Y022584D01*
X011749Y022583D02*
X013245Y022583D01*
X013245Y022582D02*
X011749Y022582D01*
X011749Y022581D02*
X013245Y022581D01*
X013245Y022580D02*
X011749Y022580D01*
X011749Y022579D02*
X013245Y022579D01*
X013245Y022578D02*
X011749Y022578D01*
X011749Y022577D02*
X013245Y022577D01*
X013245Y022576D02*
X011749Y022576D01*
X011749Y022575D02*
X013245Y022575D01*
X013245Y022574D02*
X011749Y022574D01*
X011749Y022573D02*
X013245Y022573D01*
X013245Y022572D02*
X011749Y022572D01*
X011749Y022571D02*
X013245Y022571D01*
X013245Y022570D02*
X011749Y022570D01*
X011749Y022569D02*
X013245Y022569D01*
X013245Y022568D02*
X011749Y022568D01*
X011749Y022567D02*
X013245Y022567D01*
X013245Y022566D02*
X011749Y022566D01*
X011749Y022565D02*
X013245Y022565D01*
X013245Y022564D02*
X011749Y022564D01*
X011749Y022563D02*
X013245Y022563D01*
X013245Y022562D02*
X011749Y022562D01*
X011749Y022561D02*
X013245Y022561D01*
X013245Y022560D02*
X011749Y022560D01*
X011749Y022559D02*
X013245Y022559D01*
X013245Y022558D02*
X011749Y022558D01*
X011749Y022557D02*
X013245Y022557D01*
X013245Y022556D02*
X011749Y022556D01*
X011749Y022555D02*
X013245Y022555D01*
X013245Y022554D02*
X011749Y022554D01*
X011749Y022553D02*
X013245Y022553D01*
X013245Y022552D02*
X011749Y022552D01*
X011749Y022551D02*
X013245Y022551D01*
X013245Y022550D02*
X011749Y022550D01*
X011749Y022549D02*
X013245Y022549D01*
X013245Y022548D02*
X011749Y022548D01*
X011749Y022547D02*
X013245Y022547D01*
X013245Y022546D02*
X011749Y022546D01*
X011749Y022545D02*
X013245Y022545D01*
X013245Y022544D02*
X011749Y022544D01*
X011749Y022543D02*
X013245Y022543D01*
X013245Y022542D02*
X011749Y022542D01*
X011749Y022541D02*
X013245Y022541D01*
X013245Y022540D02*
X011749Y022540D01*
X011749Y022539D02*
X013245Y022539D01*
X013245Y022538D02*
X011749Y022538D01*
X011749Y022537D02*
X013245Y022537D01*
X013245Y022536D02*
X011749Y022536D01*
X011749Y022535D02*
X013245Y022535D01*
X013245Y022534D02*
X011749Y022534D01*
X011749Y022533D02*
X013245Y022533D01*
X013245Y022532D02*
X011749Y022532D01*
X011749Y022531D02*
X013245Y022531D01*
X013245Y022530D02*
X011749Y022530D01*
X011749Y022529D02*
X013245Y022529D01*
X013245Y022528D02*
X011749Y022528D01*
X011749Y022527D02*
X013245Y022527D01*
X013245Y022526D02*
X011749Y022526D01*
X011749Y022525D02*
X013245Y022525D01*
X013245Y022524D02*
X011749Y022524D01*
X011749Y022523D02*
X013245Y022523D01*
X013245Y022522D02*
X011749Y022522D01*
X011749Y022521D02*
X013245Y022521D01*
X013245Y022520D02*
X011749Y022520D01*
X011749Y022519D02*
X013245Y022519D01*
X013245Y022518D02*
X011749Y022518D01*
X011749Y022517D02*
X013245Y022517D01*
X013245Y022516D02*
X011749Y022516D01*
X011749Y022515D02*
X013245Y022515D01*
X013245Y022514D02*
X011749Y022514D01*
X011749Y022513D02*
X013245Y022513D01*
X013245Y022512D02*
X011749Y022512D01*
X011749Y022511D02*
X013245Y022511D01*
X013245Y022510D02*
X011749Y022510D01*
X011749Y022509D02*
X013245Y022509D01*
X013245Y022508D02*
X011749Y022508D01*
X011749Y022507D02*
X013245Y022507D01*
X013245Y022506D02*
X011749Y022506D01*
X011749Y022505D02*
X013245Y022505D01*
X013245Y022504D02*
X011749Y022504D01*
X011749Y022503D02*
X013245Y022503D01*
X013245Y022502D02*
X011749Y022502D01*
X011749Y022501D02*
X013245Y022501D01*
X013245Y022500D02*
X011749Y022500D01*
X011749Y022499D02*
X013245Y022499D01*
X013245Y022498D02*
X011749Y022498D01*
X011749Y022497D02*
X013245Y022497D01*
X013245Y022496D02*
X011749Y022496D01*
X011749Y022495D02*
X013245Y022495D01*
X013245Y022494D02*
X011749Y022494D01*
X011749Y022493D02*
X013245Y022493D01*
X013245Y022492D02*
X011749Y022492D01*
X011749Y022491D02*
X013245Y022491D01*
X013245Y022490D02*
X011749Y022490D01*
X011749Y022489D02*
X013245Y022489D01*
X013245Y022488D02*
X011749Y022488D01*
X013245Y022488D01*
X013245Y022487D02*
X011749Y022487D01*
X011749Y022486D02*
X013245Y022486D01*
X013245Y022485D02*
X011749Y022485D01*
X011749Y022484D02*
X013245Y022484D01*
X013245Y022483D02*
X011749Y022483D01*
X011749Y022482D02*
X013245Y022482D01*
X013245Y022481D02*
X011749Y022481D01*
X011749Y022480D02*
X013245Y022480D01*
X013245Y022479D02*
X011749Y022479D01*
X011749Y022478D02*
X013245Y022478D01*
X013245Y022477D02*
X011749Y022477D01*
X011749Y022476D02*
X013245Y022476D01*
X013245Y022475D02*
X011749Y022475D01*
X011749Y022474D02*
X013245Y022474D01*
X013245Y022473D02*
X011749Y022473D01*
X011749Y022472D02*
X013245Y022472D01*
X013245Y022471D02*
X011749Y022471D01*
X011749Y022470D02*
X013245Y022470D01*
X013245Y022469D02*
X011749Y022469D01*
X011749Y022468D02*
X013245Y022468D01*
X013245Y022467D02*
X011749Y022467D01*
X011749Y022466D02*
X013245Y022466D01*
X013245Y022465D02*
X011749Y022465D01*
X011749Y022464D02*
X013245Y022464D01*
X013245Y022463D02*
X011749Y022463D01*
X011749Y022462D02*
X013245Y022462D01*
X013245Y022461D02*
X011749Y022461D01*
X011749Y022460D02*
X013245Y022460D01*
X013245Y022459D02*
X011749Y022459D01*
X011749Y022458D02*
X013245Y022458D01*
X013245Y022457D02*
X011749Y022457D01*
X011749Y022456D02*
X013245Y022456D01*
X013245Y022455D02*
X011749Y022455D01*
X011749Y022454D02*
X013245Y022454D01*
X013245Y022453D02*
X011749Y022453D01*
X011749Y022452D02*
X013245Y022452D01*
X013245Y022451D02*
X011749Y022451D01*
X011749Y022450D02*
X013245Y022450D01*
X013245Y022449D02*
X011749Y022449D01*
X011749Y022448D02*
X013245Y022448D01*
X013245Y022447D02*
X011749Y022447D01*
X011749Y022446D02*
X013245Y022446D01*
X013245Y022445D02*
X011749Y022445D01*
X011749Y022444D02*
X013245Y022444D01*
X013245Y022443D02*
X011749Y022443D01*
X011749Y022442D02*
X013245Y022442D01*
X013245Y022441D02*
X011749Y022441D01*
X011749Y022440D02*
X013245Y022440D01*
X013245Y022439D02*
X011749Y022439D01*
X011749Y022438D02*
X013245Y022438D01*
X013245Y022437D02*
X011749Y022437D01*
X011749Y022436D02*
X013245Y022436D01*
X013245Y022435D02*
X011749Y022435D01*
X011749Y022434D02*
X013245Y022434D01*
X013245Y022433D02*
X011749Y022433D01*
X011749Y022432D02*
X013245Y022432D01*
X013245Y022431D02*
X011749Y022431D01*
X011749Y022430D02*
X013245Y022430D01*
X013245Y022429D02*
X011749Y022429D01*
X011749Y022428D02*
X013245Y022428D01*
X013245Y022427D02*
X011749Y022427D01*
X011749Y022426D02*
X013245Y022426D01*
X013245Y022425D02*
X011749Y022425D01*
X011749Y022424D02*
X013245Y022424D01*
X013245Y022423D02*
X011749Y022423D01*
X011749Y022422D02*
X013245Y022422D01*
X013245Y022421D02*
X011749Y022421D01*
X011749Y022420D02*
X013245Y022420D01*
X013245Y022419D02*
X011749Y022419D01*
X011749Y022418D02*
X013245Y022418D01*
X013245Y022417D02*
X011749Y022417D01*
X011749Y022416D02*
X013245Y022416D01*
X013245Y022415D02*
X011749Y022415D01*
X011749Y022414D02*
X013245Y022414D01*
X013245Y022413D02*
X011749Y022413D01*
X011749Y022412D02*
X013245Y022412D01*
X013245Y022411D02*
X011749Y022411D01*
X011749Y022410D02*
X013245Y022410D01*
X013245Y022409D02*
X011749Y022409D01*
X011749Y022408D02*
X013245Y022408D01*
X013245Y022407D02*
X011749Y022407D01*
X011749Y022406D02*
X013245Y022406D01*
X013245Y022405D02*
X011749Y022405D01*
X011749Y022404D02*
X013245Y022404D01*
X013245Y022403D02*
X011749Y022403D01*
X011749Y022402D02*
X013245Y022402D01*
X013245Y022401D02*
X011749Y022401D01*
X011749Y022400D02*
X013245Y022400D01*
X013245Y022399D02*
X011749Y022399D01*
X011749Y022398D02*
X013245Y022398D01*
X013245Y022397D02*
X011749Y022397D01*
X011749Y022396D02*
X013245Y022396D01*
X013245Y022395D02*
X011749Y022395D01*
X011749Y022394D02*
X013245Y022394D01*
X013245Y022393D02*
X011749Y022393D01*
X011749Y022392D02*
X013245Y022392D01*
X013245Y022391D02*
X011749Y022391D01*
X011749Y022390D02*
X013245Y022390D01*
X013245Y022389D02*
X011749Y022389D01*
X011749Y022388D02*
X013245Y022388D01*
X013245Y022387D02*
X011749Y022387D01*
X011749Y022386D02*
X013245Y022386D01*
X013245Y022385D02*
X011749Y022385D01*
X011749Y022384D02*
X013245Y022384D01*
X013245Y022383D02*
X011749Y022383D01*
X011749Y022382D02*
X013245Y022382D01*
X013245Y022381D02*
X011749Y022381D01*
X011749Y022380D02*
X013245Y022380D01*
X013245Y022379D02*
X011749Y022379D01*
X011749Y022378D02*
X013245Y022378D01*
X013245Y022377D02*
X011749Y022377D01*
X011749Y022376D02*
X013245Y022376D01*
X013245Y022375D02*
X011749Y022375D01*
X011749Y022374D02*
X013245Y022374D01*
X013245Y022373D02*
X011749Y022373D01*
X011749Y022372D02*
X013245Y022372D01*
X013245Y022371D02*
X011749Y022371D01*
X011749Y022370D02*
X013245Y022370D01*
X013245Y022369D02*
X011749Y022369D01*
X011749Y022368D02*
X013245Y022368D01*
X013245Y022367D02*
X011749Y022367D01*
X011749Y022366D02*
X013245Y022366D01*
X013245Y022365D02*
X011749Y022365D01*
X011749Y022364D02*
X013245Y022364D01*
X013245Y022363D02*
X011749Y022363D01*
X011749Y022362D02*
X013245Y022362D01*
X013245Y022361D02*
X011749Y022361D01*
X011749Y022360D02*
X013245Y022360D01*
X013245Y022359D02*
X011749Y022359D01*
X011749Y022358D02*
X013245Y022358D01*
X013245Y022357D02*
X011749Y022357D01*
X011749Y022356D02*
X013245Y022356D01*
X013245Y022355D02*
X011749Y022355D01*
X011749Y022354D02*
X013245Y022354D01*
X013245Y022353D02*
X011749Y022353D01*
X011749Y022352D02*
X013245Y022352D01*
X013245Y022351D02*
X011749Y022351D01*
X011749Y022350D02*
X013245Y022350D01*
X013245Y022349D02*
X011749Y022349D01*
X011749Y022348D02*
X013245Y022348D01*
X013245Y022347D02*
X011749Y022347D01*
X011749Y022346D02*
X013245Y022346D01*
X013245Y022345D02*
X011749Y022345D01*
X011749Y022344D02*
X013245Y022344D01*
X013245Y022343D02*
X011749Y022343D01*
X011749Y022342D02*
X013245Y022342D01*
X013245Y022341D02*
X011749Y022341D01*
X011749Y022340D02*
X013245Y022340D01*
X013245Y022339D02*
X011749Y022339D01*
X011749Y022338D02*
X013245Y022338D01*
X013245Y022337D02*
X011749Y022337D01*
X011749Y022336D02*
X013245Y022336D01*
X013245Y022335D02*
X011749Y022335D01*
X011749Y022334D02*
X013245Y022334D01*
X013245Y022333D02*
X011749Y022333D01*
X011749Y022332D02*
X013245Y022332D01*
X013245Y022331D02*
X011749Y022331D01*
X011749Y022330D02*
X013245Y022330D01*
X013245Y022329D02*
X011749Y022329D01*
X011749Y022328D02*
X013245Y022328D01*
X013245Y022327D02*
X011749Y022327D01*
X011749Y022326D02*
X013245Y022326D01*
X013245Y022325D02*
X011749Y022325D01*
X011749Y022324D02*
X013245Y022324D01*
X013245Y022323D02*
X011749Y022323D01*
X011749Y022322D02*
X013245Y022322D01*
X013245Y022321D02*
X011749Y022321D01*
X011749Y022320D02*
X013245Y022320D01*
X013245Y022319D02*
X011749Y022319D01*
X011749Y022318D02*
X013245Y022318D01*
X013245Y022317D02*
X011749Y022317D01*
X011749Y022316D02*
X013245Y022316D01*
X013245Y022315D02*
X011749Y022315D01*
X011749Y022314D02*
X013245Y022314D01*
X013245Y022313D02*
X011749Y022313D01*
X011749Y022312D02*
X013245Y022312D01*
X013245Y022311D02*
X011749Y022311D01*
X011749Y022310D02*
X013245Y022310D01*
X013245Y022309D02*
X011749Y022309D01*
X011749Y022308D02*
X013245Y022308D01*
X013245Y022307D02*
X011749Y022307D01*
X011749Y022306D02*
X013245Y022306D01*
X013245Y022305D02*
X011749Y022305D01*
X011749Y022304D02*
X013245Y022304D01*
X013245Y022303D02*
X011749Y022303D01*
X011749Y022302D02*
X013245Y022302D01*
X013245Y022301D02*
X011749Y022301D01*
X011749Y022300D02*
X013245Y022300D01*
X013245Y022299D02*
X011749Y022299D01*
X011749Y022298D02*
X013245Y022298D01*
X013245Y022297D02*
X011749Y022297D01*
X011749Y022296D02*
X013245Y022296D01*
X013245Y022295D02*
X011749Y022295D01*
X011749Y022294D02*
X013245Y022294D01*
X013245Y022293D02*
X011749Y022293D01*
X011749Y022292D02*
X013245Y022292D01*
X013245Y022291D02*
X011749Y022291D01*
X011749Y022290D02*
X013245Y022290D01*
X013245Y022289D02*
X011749Y022289D01*
X011749Y022288D02*
X013245Y022288D01*
X013245Y022287D02*
X011749Y022287D01*
X011749Y022286D02*
X013245Y022286D01*
X013245Y022285D02*
X011749Y022285D01*
X011749Y022284D02*
X013245Y022284D01*
X013245Y022283D02*
X011749Y022283D01*
X011749Y022282D02*
X013245Y022282D01*
X013245Y022281D02*
X011749Y022281D01*
X011749Y022280D02*
X013245Y022280D01*
X013245Y022279D02*
X011749Y022279D01*
X011749Y022278D02*
X013245Y022278D01*
X013245Y022277D02*
X011749Y022277D01*
X011749Y022276D02*
X013245Y022276D01*
X013245Y022275D02*
X011749Y022275D01*
X011749Y022274D02*
X013245Y022274D01*
X013245Y022273D02*
X011749Y022273D01*
X011749Y022272D02*
X013245Y022272D01*
X013245Y022271D02*
X011749Y022271D01*
X011749Y022270D02*
X013245Y022270D01*
X013245Y022269D02*
X011749Y022269D01*
X011749Y022268D02*
X013245Y022268D01*
X013245Y022267D02*
X011749Y022267D01*
X011749Y022266D02*
X013245Y022266D01*
X013245Y022265D02*
X011749Y022265D01*
X011749Y022264D02*
X013245Y022264D01*
X013245Y022263D02*
X011749Y022263D01*
X011749Y022262D02*
X013245Y022262D01*
X013245Y022261D02*
X011749Y022261D01*
X011749Y022260D02*
X013245Y022260D01*
X013245Y022259D02*
X011749Y022259D01*
X011749Y022258D02*
X013245Y022258D01*
X013245Y022257D02*
X011749Y022257D01*
X011749Y022256D02*
X013245Y022256D01*
X013245Y022255D02*
X011749Y022255D01*
X011749Y022254D02*
X013245Y022254D01*
X013245Y022253D02*
X011749Y022253D01*
X011749Y022252D02*
X013245Y022252D01*
X013245Y022251D02*
X011749Y022251D01*
X011749Y022250D02*
X013245Y022250D01*
X013245Y022249D02*
X011749Y022249D01*
X011749Y022248D02*
X013245Y022248D01*
X013245Y022247D02*
X011749Y022247D01*
X011749Y022246D02*
X013245Y022246D01*
X013245Y022245D02*
X011749Y022245D01*
X011749Y022244D02*
X013245Y022244D01*
X013245Y022243D02*
X011749Y022243D01*
X011749Y022242D02*
X013245Y022242D01*
X013245Y022241D02*
X011749Y022241D01*
X011749Y022240D02*
X013245Y022240D01*
X013245Y022239D02*
X011749Y022239D01*
X011749Y022238D02*
X013245Y022238D01*
X013245Y022237D02*
X011749Y022237D01*
X011749Y022236D02*
X013245Y022236D01*
X013245Y022235D02*
X011749Y022235D01*
X011749Y022234D02*
X013245Y022234D01*
X013245Y022233D02*
X011749Y022233D01*
X011749Y022232D02*
X013245Y022232D01*
X013245Y022231D02*
X011749Y022231D01*
X011749Y022230D02*
X013245Y022230D01*
X013245Y022229D02*
X011749Y022229D01*
X011749Y022228D02*
X013245Y022228D01*
X013245Y022227D02*
X011749Y022227D01*
X011749Y022226D02*
X013245Y022226D01*
X013245Y022225D02*
X011749Y022225D01*
X011749Y022224D02*
X013245Y022224D01*
X013245Y022223D02*
X011749Y022223D01*
X011749Y022222D02*
X013245Y022222D01*
X013245Y022221D02*
X011749Y022221D01*
X011749Y022220D02*
X013245Y022220D01*
X013245Y022219D02*
X011749Y022219D01*
X011749Y022218D02*
X013245Y022218D01*
X013245Y022217D02*
X011749Y022217D01*
X011749Y022216D02*
X013245Y022216D01*
X013245Y022215D02*
X011749Y022215D01*
X011749Y022214D02*
X013245Y022214D01*
X013245Y022213D02*
X011749Y022213D01*
X011749Y022212D02*
X013245Y022212D01*
X013245Y022211D02*
X011749Y022211D01*
X011749Y022210D02*
X013245Y022210D01*
X013245Y022209D02*
X011749Y022209D01*
X011749Y022208D02*
X013245Y022208D01*
X013245Y022207D02*
X011749Y022207D01*
X011749Y022206D02*
X013245Y022206D01*
X013245Y022205D02*
X011749Y022205D01*
X011749Y022204D02*
X013245Y022204D01*
X013245Y022203D02*
X011749Y022203D01*
X011749Y022202D02*
X013245Y022202D01*
X013245Y022201D02*
X011749Y022201D01*
X011749Y022200D02*
X013245Y022200D01*
X013245Y022199D02*
X011749Y022199D01*
X011749Y022198D02*
X013245Y022198D01*
X013245Y022197D02*
X011749Y022197D01*
X011749Y022196D02*
X013245Y022196D01*
X013245Y022195D02*
X011749Y022195D01*
X011749Y022194D02*
X013245Y022194D01*
X013245Y022193D02*
X011749Y022193D01*
X011749Y022192D02*
X013245Y022192D01*
X013245Y022191D02*
X011749Y022191D01*
X011749Y022190D02*
X013245Y022190D01*
X013245Y022189D02*
X011749Y022189D01*
X011749Y022188D02*
X013245Y022188D01*
X013245Y022187D02*
X011749Y022187D01*
X011749Y022186D02*
X013245Y022186D01*
X013245Y022185D02*
X011749Y022185D01*
X011749Y022184D02*
X013245Y022184D01*
X013245Y022183D02*
X011749Y022183D01*
X011749Y022182D02*
X013245Y022182D01*
X013245Y022181D02*
X011749Y022181D01*
X011749Y022180D02*
X013245Y022180D01*
X013245Y022179D02*
X011749Y022179D01*
X011749Y022178D02*
X013245Y022178D01*
X013245Y022177D02*
X011749Y022177D01*
X011749Y022176D02*
X013245Y022176D01*
X013245Y022175D02*
X011749Y022175D01*
X011749Y022174D02*
X013245Y022174D01*
X013245Y022173D02*
X011749Y022173D01*
X011749Y022172D02*
X013245Y022172D01*
X013245Y022171D02*
X011749Y022171D01*
X011749Y022170D02*
X013245Y022170D01*
X013245Y022169D02*
X011749Y022169D01*
X011749Y022168D02*
X013245Y022168D01*
X013245Y022167D02*
X011749Y022167D01*
X011749Y022166D02*
X013245Y022166D01*
X013245Y022165D02*
X011749Y022165D01*
X011749Y022164D02*
X013245Y022164D01*
X013245Y022163D02*
X011749Y022163D01*
X011749Y022162D02*
X013245Y022162D01*
X013245Y022161D02*
X011749Y022161D01*
X011749Y022160D02*
X013245Y022160D01*
X013245Y022159D02*
X011749Y022159D01*
X011749Y022158D02*
X013245Y022158D01*
X013245Y022157D02*
X011749Y022157D01*
X011749Y022156D02*
X013245Y022156D01*
X013245Y022155D02*
X011749Y022155D01*
X011749Y022154D02*
X013245Y022154D01*
X013245Y022153D02*
X011749Y022153D01*
X011749Y022152D02*
X013245Y022152D01*
X013245Y022151D02*
X011749Y022151D01*
X011749Y022150D02*
X013245Y022150D01*
X013245Y022149D02*
X011749Y022149D01*
X011749Y022148D02*
X013245Y022148D01*
X013245Y022147D02*
X011749Y022147D01*
X011749Y022146D02*
X013245Y022146D01*
X013245Y022145D02*
X011749Y022145D01*
X011749Y022144D02*
X013245Y022144D01*
X013245Y022143D02*
X011749Y022143D01*
X011749Y022142D02*
X013245Y022142D01*
X013245Y022141D02*
X011749Y022141D01*
X011749Y022140D02*
X013245Y022140D01*
X013245Y022139D02*
X011749Y022139D01*
X011749Y022138D02*
X013245Y022138D01*
X013245Y022137D02*
X011749Y022137D01*
X011749Y022136D02*
X013245Y022136D01*
X013245Y022135D02*
X011749Y022135D01*
X011749Y022134D02*
X013245Y022134D01*
X013245Y022133D02*
X011749Y022133D01*
X011749Y022132D02*
X013245Y022132D01*
X013245Y022131D02*
X011749Y022131D01*
X011749Y022130D02*
X013245Y022130D01*
X013245Y022129D02*
X011749Y022129D01*
X011749Y022128D02*
X013245Y022128D01*
X013245Y022127D02*
X011749Y022127D01*
X011749Y022126D02*
X013245Y022126D01*
X013245Y022125D02*
X011749Y022125D01*
X011749Y022124D02*
X013245Y022124D01*
X013245Y022123D02*
X011749Y022123D01*
X011749Y022122D02*
X013245Y022122D01*
X013245Y022121D02*
X011749Y022121D01*
X011749Y022120D02*
X013245Y022120D01*
X013245Y022119D02*
X011749Y022119D01*
X011749Y022118D02*
X013245Y022118D01*
X013245Y022117D02*
X011749Y022117D01*
X011749Y022116D02*
X013245Y022116D01*
X013245Y022115D02*
X011749Y022115D01*
X011749Y022114D02*
X013245Y022114D01*
X013245Y022113D02*
X011749Y022113D01*
X011749Y022112D02*
X013245Y022112D01*
X013245Y022111D02*
X011749Y022111D01*
X011749Y022110D02*
X013245Y022110D01*
X013245Y022109D02*
X011749Y022109D01*
X011749Y022108D02*
X013245Y022108D01*
X013245Y022107D02*
X011749Y022107D01*
X011749Y022106D02*
X013245Y022106D01*
X013245Y022105D02*
X011749Y022105D01*
X011749Y022104D02*
X013245Y022104D01*
X013245Y022103D02*
X011749Y022103D01*
X011749Y022102D02*
X013245Y022102D01*
X013245Y022101D02*
X011749Y022101D01*
X011749Y022100D02*
X013245Y022100D01*
X013245Y022099D02*
X011749Y022099D01*
X011749Y022098D02*
X013245Y022098D01*
X013245Y022097D02*
X011749Y022097D01*
X011749Y022096D02*
X013245Y022096D01*
X013245Y022095D02*
X011749Y022095D01*
X011749Y022094D02*
X013245Y022094D01*
X013245Y022093D02*
X011749Y022093D01*
X011749Y022092D02*
X013245Y022092D01*
X013245Y022091D02*
X011749Y022091D01*
X011749Y022090D02*
X013245Y022090D01*
X013245Y022089D02*
X011749Y022089D01*
X011749Y022088D02*
X013245Y022088D01*
X013245Y022087D02*
X011749Y022087D01*
X011749Y022086D02*
X013245Y022086D01*
X013245Y022085D02*
X011749Y022085D01*
X011749Y022084D02*
X013245Y022084D01*
X013245Y022083D02*
X011749Y022083D01*
X011749Y022082D02*
X013245Y022082D01*
X013245Y022081D02*
X011749Y022081D01*
X011749Y022080D02*
X013245Y022080D01*
X013245Y022079D02*
X011749Y022079D01*
X011749Y022078D02*
X013245Y022078D01*
X013245Y022077D02*
X011749Y022077D01*
X011749Y022076D02*
X013245Y022076D01*
X013245Y022075D02*
X011749Y022075D01*
X011749Y022074D02*
X013245Y022074D01*
X013245Y022073D02*
X011749Y022073D01*
X011749Y022072D02*
X013245Y022072D01*
X013245Y022071D02*
X011749Y022071D01*
X011749Y022070D02*
X013245Y022070D01*
X013245Y022069D02*
X011749Y022069D01*
X011749Y022068D02*
X013245Y022068D01*
X013245Y022067D02*
X011749Y022067D01*
X011749Y022066D02*
X013245Y022066D01*
X013245Y022065D02*
X011749Y022065D01*
X011749Y022064D02*
X013245Y022064D01*
X013245Y022063D02*
X011749Y022063D01*
X011749Y022062D02*
X013245Y022062D01*
X013245Y022061D02*
X011749Y022061D01*
X011749Y022060D02*
X013245Y022060D01*
X013245Y022059D02*
X011749Y022059D01*
X011749Y022058D02*
X013245Y022058D01*
X013245Y022057D02*
X011749Y022057D01*
X011749Y022056D02*
X013245Y022056D01*
X013245Y022055D02*
X011749Y022055D01*
X011749Y022054D02*
X013245Y022054D01*
X013245Y022053D02*
X011749Y022053D01*
X011749Y022052D02*
X013245Y022052D01*
X013245Y022051D02*
X011749Y022051D01*
X011749Y022050D02*
X013245Y022050D01*
X013245Y022049D02*
X011749Y022049D01*
X011749Y022048D02*
X013245Y022048D01*
X013245Y022047D02*
X011749Y022047D01*
X011749Y022046D02*
X013245Y022046D01*
X013245Y022045D02*
X011749Y022045D01*
X011749Y022044D02*
X013245Y022044D01*
X013245Y022043D02*
X011749Y022043D01*
X011749Y022042D02*
X013245Y022042D01*
X013245Y022041D02*
X011749Y022041D01*
X011749Y022040D02*
X013245Y022040D01*
X013245Y022039D02*
X011749Y022039D01*
X011749Y022038D02*
X013245Y022038D01*
X013245Y022037D02*
X011749Y022037D01*
X011749Y022036D02*
X013245Y022036D01*
X013245Y022035D02*
X011749Y022035D01*
X011749Y022034D02*
X013245Y022034D01*
X013245Y022033D02*
X011749Y022033D01*
X011749Y022032D02*
X013245Y022032D01*
X013245Y022031D02*
X011749Y022031D01*
X011749Y022030D02*
X013245Y022030D01*
X013245Y022029D02*
X011749Y022029D01*
X011749Y022028D02*
X013245Y022028D01*
X013245Y022027D02*
X011749Y022027D01*
X011749Y022026D02*
X013245Y022026D01*
X013245Y022025D02*
X011749Y022025D01*
X011749Y022024D02*
X013245Y022024D01*
X013245Y022023D02*
X011749Y022023D01*
X011749Y022022D02*
X013245Y022022D01*
X013245Y022021D02*
X011749Y022021D01*
X011749Y022020D02*
X013245Y022020D01*
X013245Y022019D02*
X011749Y022019D01*
X011749Y022018D02*
X013245Y022018D01*
X013245Y022017D02*
X011749Y022017D01*
X011749Y022016D02*
X013245Y022016D01*
X013245Y022015D02*
X011749Y022015D01*
X011749Y022014D02*
X013245Y022014D01*
X013245Y022013D02*
X011749Y022013D01*
X011749Y022012D02*
X013245Y022012D01*
X013245Y022011D02*
X011749Y022011D01*
X011749Y022010D02*
X013245Y022010D01*
X013245Y022009D02*
X011749Y022009D01*
X011749Y022008D02*
X013245Y022008D01*
X013245Y022007D02*
X011749Y022007D01*
X011749Y022006D02*
X013245Y022006D01*
X013245Y022005D02*
X011749Y022005D01*
X011749Y022004D02*
X013245Y022004D01*
X013245Y022003D02*
X011749Y022003D01*
X011749Y022002D02*
X013245Y022002D01*
X013245Y022001D02*
X011749Y022001D01*
X011749Y022000D02*
X013245Y022000D01*
X013245Y021999D02*
X011749Y021999D01*
X011749Y021998D02*
X013245Y021998D01*
X013245Y021997D02*
X011749Y021997D01*
X011749Y021996D02*
X013245Y021996D01*
X013245Y021995D02*
X011749Y021995D01*
X011749Y021994D02*
X013245Y021994D01*
X013245Y021993D02*
X011749Y021993D01*
X011749Y021992D02*
X013245Y021992D01*
X013245Y021991D02*
X011749Y021991D01*
X011749Y021990D02*
X013245Y021990D01*
X013245Y021989D02*
X011749Y021989D01*
X011749Y021988D02*
X013245Y021988D01*
X013245Y021987D02*
X011749Y021987D01*
X011749Y021986D02*
X013245Y021986D01*
X013245Y021985D02*
X011749Y021985D01*
X011749Y021984D02*
X013245Y021984D01*
X013245Y021983D02*
X011749Y021983D01*
X011749Y021982D02*
X013245Y021982D01*
X013245Y021981D02*
X011749Y021981D01*
X011749Y021980D02*
X013245Y021980D01*
X013245Y021979D02*
X011749Y021979D01*
X011749Y021978D02*
X013245Y021978D01*
X013245Y021977D02*
X011749Y021977D01*
X011749Y021976D02*
X013245Y021976D01*
X013245Y021975D02*
X011749Y021975D01*
X011749Y021974D02*
X013245Y021974D01*
X013245Y021973D02*
X011749Y021973D01*
X011749Y021972D02*
X013245Y021972D01*
X013245Y021971D02*
X011749Y021971D01*
X011749Y021970D02*
X013245Y021970D01*
X013245Y021969D02*
X011749Y021969D01*
X011749Y021968D02*
X013245Y021968D01*
X013245Y021967D02*
X011749Y021967D01*
X011749Y021966D02*
X013245Y021966D01*
X013245Y021965D02*
X011749Y021965D01*
X011749Y021964D02*
X013245Y021964D01*
X013245Y021963D02*
X011749Y021963D01*
X011749Y021962D02*
X013245Y021962D01*
X013245Y021961D02*
X011749Y021961D01*
X011749Y021960D02*
X013245Y021960D01*
X013245Y021959D02*
X011749Y021959D01*
X011749Y021958D02*
X013245Y021958D01*
X013245Y021957D02*
X011749Y021957D01*
X011749Y021956D02*
X013245Y021956D01*
X013245Y021955D02*
X011749Y021955D01*
X011749Y021954D02*
X013245Y021954D01*
X013245Y021953D02*
X011749Y021953D01*
X011749Y021952D02*
X013245Y021952D01*
X013245Y021951D02*
X011749Y021951D01*
X011749Y021950D02*
X013245Y021950D01*
X013245Y021949D02*
X011749Y021949D01*
X011749Y021948D02*
X013245Y021948D01*
X013245Y021947D02*
X011749Y021947D01*
X011749Y021946D02*
X013245Y021946D01*
X013245Y021945D02*
X011749Y021945D01*
X011749Y021944D02*
X013245Y021944D01*
X013245Y021943D02*
X011749Y021943D01*
X011749Y021942D02*
X013245Y021942D01*
X013245Y021941D02*
X011749Y021941D01*
X011749Y021940D02*
X013245Y021940D01*
X013245Y021939D02*
X011749Y021939D01*
X011749Y021938D02*
X013245Y021938D01*
X013245Y021937D02*
X011749Y021937D01*
X011749Y021936D02*
X013245Y021936D01*
X013245Y021935D02*
X011749Y021935D01*
X011749Y021934D02*
X013245Y021934D01*
X013245Y021933D02*
X011749Y021933D01*
X011749Y021932D02*
X013245Y021932D01*
X013245Y021931D02*
X011749Y021931D01*
X011749Y021930D02*
X013245Y021930D01*
X013245Y021929D02*
X011749Y021929D01*
X011749Y021928D02*
X013245Y021928D01*
X013245Y021927D02*
X011749Y021927D01*
X011749Y021926D02*
X013245Y021926D01*
X013245Y021925D02*
X011749Y021925D01*
X011749Y021924D02*
X013245Y021924D01*
X013245Y021923D02*
X011749Y021923D01*
X011749Y021922D02*
X013245Y021922D01*
X013245Y021921D02*
X011749Y021921D01*
X011749Y021920D02*
X013245Y021920D01*
X013245Y021919D02*
X011749Y021919D01*
X011749Y021918D02*
X013245Y021918D01*
X013245Y021917D02*
X011749Y021917D01*
X011749Y021916D02*
X013245Y021916D01*
X013245Y021915D02*
X011749Y021915D01*
X011749Y021914D02*
X013245Y021914D01*
X013245Y021913D02*
X011749Y021913D01*
X011749Y021912D02*
X013245Y021912D01*
X013245Y021911D02*
X011749Y021911D01*
X011749Y021910D02*
X013245Y021910D01*
X013245Y021909D02*
X011749Y021909D01*
X011749Y021908D02*
X013245Y021908D01*
X013245Y021907D02*
X011749Y021907D01*
X011749Y021906D02*
X013245Y021906D01*
X013245Y021905D02*
X011749Y021905D01*
X011749Y021904D02*
X013245Y021904D01*
X013245Y021903D02*
X011749Y021903D01*
X011749Y021902D02*
X013245Y021902D01*
X013245Y021901D02*
X011749Y021901D01*
X011749Y021900D02*
X013245Y021900D01*
X013245Y021899D02*
X011749Y021899D01*
X011749Y021898D02*
X013245Y021898D01*
X013245Y021897D02*
X011749Y021897D01*
X011749Y021896D02*
X013245Y021896D01*
X013245Y021895D02*
X011749Y021895D01*
X011749Y021894D02*
X013245Y021894D01*
X013245Y021893D02*
X011749Y021893D01*
X011749Y021892D02*
X013245Y021892D01*
X013245Y021891D02*
X011749Y021891D01*
X011749Y021890D02*
X013245Y021890D01*
X013245Y021889D02*
X011749Y021889D01*
X011749Y021888D02*
X013245Y021888D01*
X013245Y021887D02*
X011749Y021887D01*
X011749Y021886D02*
X013245Y021886D01*
X013245Y021885D02*
X011749Y021885D01*
X011749Y021884D02*
X013245Y021884D01*
X013245Y021883D02*
X011749Y021883D01*
X011749Y021882D02*
X013245Y021882D01*
X013245Y021881D02*
X011749Y021881D01*
X011749Y021880D02*
X013245Y021880D01*
X013245Y021879D02*
X011749Y021879D01*
X011749Y021878D02*
X013245Y021878D01*
X013245Y021877D02*
X011749Y021877D01*
X011749Y021876D02*
X013245Y021876D01*
X013245Y021875D02*
X011749Y021875D01*
X011749Y021874D02*
X013245Y021874D01*
X013245Y021873D02*
X011749Y021873D01*
X011749Y021872D02*
X013245Y021872D01*
X013245Y021871D02*
X011749Y021871D01*
X011749Y021870D02*
X013245Y021870D01*
X013245Y021869D02*
X011749Y021869D01*
X011749Y021868D02*
X013245Y021868D01*
X013245Y021867D02*
X011749Y021867D01*
X011749Y021866D02*
X013245Y021866D01*
X013245Y021865D02*
X011749Y021865D01*
X011749Y021864D02*
X013245Y021864D01*
X013245Y021863D02*
X011749Y021863D01*
X011749Y021862D02*
X013245Y021862D01*
X013245Y021861D02*
X011749Y021861D01*
X011749Y021860D02*
X013245Y021860D01*
X013245Y021859D02*
X011749Y021859D01*
X011749Y021858D02*
X013245Y021858D01*
X013245Y021857D02*
X011749Y021857D01*
X011749Y021856D02*
X013245Y021856D01*
X013245Y021855D02*
X011749Y021855D01*
X011749Y021854D02*
X013245Y021854D01*
X013245Y021853D02*
X011749Y021853D01*
X011749Y021852D02*
X013245Y021852D01*
X013245Y021851D02*
X011749Y021851D01*
X011749Y021850D02*
X013245Y021850D01*
X013245Y021849D02*
X011749Y021849D01*
X011749Y021848D02*
X013245Y021848D01*
X013245Y021847D02*
X011749Y021847D01*
X011749Y021846D02*
X013245Y021846D01*
X013245Y021845D02*
X011749Y021845D01*
X011749Y021844D02*
X013245Y021844D01*
X013245Y021843D02*
X011749Y021843D01*
X011749Y021842D02*
X013245Y021842D01*
X013245Y021841D02*
X011749Y021841D01*
X011749Y021840D02*
X013245Y021840D01*
X013245Y021839D02*
X011749Y021839D01*
X011749Y021838D02*
X013245Y021838D01*
X013245Y021837D02*
X011749Y021837D01*
X011749Y021836D02*
X013245Y021836D01*
X013245Y021835D02*
X011749Y021835D01*
X011749Y021834D02*
X013245Y021834D01*
X013245Y021833D02*
X011749Y021833D01*
X011749Y021832D02*
X013245Y021832D01*
X013245Y021831D02*
X011749Y021831D01*
X011749Y021830D02*
X013245Y021830D01*
X013245Y021829D02*
X011749Y021829D01*
X011749Y021828D02*
X013245Y021828D01*
X013245Y021827D02*
X011749Y021827D01*
X011749Y021826D02*
X013245Y021826D01*
X013245Y021825D02*
X011749Y021825D01*
X011749Y021824D02*
X013245Y021824D01*
X013245Y021823D02*
X011749Y021823D01*
X011749Y021822D02*
X013245Y021822D01*
X013245Y021821D02*
X011749Y021821D01*
X011749Y021820D02*
X013245Y021820D01*
X013245Y021819D02*
X011749Y021819D01*
X011749Y021818D02*
X013245Y021818D01*
X013245Y021817D02*
X011749Y021817D01*
X011749Y021816D02*
X013245Y021816D01*
X013245Y021815D02*
X011749Y021815D01*
X011749Y021814D02*
X013245Y021814D01*
X013245Y021813D02*
X011749Y021813D01*
X011749Y021812D02*
X013245Y021812D01*
X013245Y021811D02*
X011749Y021811D01*
X011749Y021810D02*
X013245Y021810D01*
X013245Y021809D02*
X011749Y021809D01*
X011749Y021808D02*
X013245Y021808D01*
X013245Y021807D02*
X011749Y021807D01*
X011749Y021806D02*
X013245Y021806D01*
X013245Y021805D02*
X011749Y021805D01*
X011749Y021804D02*
X013245Y021804D01*
X013245Y021803D02*
X011749Y021803D01*
X011749Y021802D02*
X013245Y021802D01*
X013245Y021801D02*
X011749Y021801D01*
X011749Y021800D02*
X013245Y021800D01*
X013245Y021799D02*
X011749Y021799D01*
X011749Y021798D02*
X013245Y021798D01*
X013245Y021797D02*
X011749Y021797D01*
X011749Y021796D02*
X013245Y021796D01*
X013245Y021795D02*
X011749Y021795D01*
X011749Y021794D02*
X013245Y021794D01*
X013245Y021793D02*
X011749Y021793D01*
X011749Y021792D02*
X013245Y021792D01*
X013245Y021791D02*
X011749Y021791D01*
X011749Y021790D02*
X013245Y021790D01*
X013245Y021789D02*
X011749Y021789D01*
X011749Y021788D02*
X013245Y021788D01*
X013245Y021787D02*
X011749Y021787D01*
X011749Y021786D02*
X013245Y021786D01*
X013245Y021785D02*
X011749Y021785D01*
X011749Y021784D02*
X013245Y021784D01*
X013245Y021783D02*
X011749Y021783D01*
X011749Y021782D02*
X013245Y021782D01*
X013245Y021781D02*
X011749Y021781D01*
X011749Y021780D02*
X013245Y021780D01*
X013245Y021779D02*
X011749Y021779D01*
X011749Y021778D02*
X013245Y021778D01*
X013245Y021777D02*
X011749Y021777D01*
X011749Y021776D02*
X013245Y021776D01*
X013245Y021775D02*
X011749Y021775D01*
X011749Y021774D02*
X013245Y021774D01*
X013245Y021773D02*
X011749Y021773D01*
X011749Y021772D02*
X013245Y021772D01*
X013245Y021771D02*
X011749Y021771D01*
X011749Y021770D02*
X013245Y021770D01*
X013245Y021769D02*
X011749Y021769D01*
X011749Y021768D02*
X013245Y021768D01*
X013245Y021767D02*
X011749Y021767D01*
X011749Y021766D02*
X013245Y021766D01*
X013245Y021765D02*
X011749Y021765D01*
X011749Y021764D02*
X013245Y021764D01*
X013245Y021763D02*
X011749Y021763D01*
X011749Y021762D02*
X013245Y021762D01*
X013245Y021761D02*
X011749Y021761D01*
X011749Y021760D02*
X013245Y021760D01*
X013245Y021759D02*
X011749Y021759D01*
X011749Y021758D02*
X013245Y021758D01*
X013245Y021757D02*
X011749Y021757D01*
X011749Y021756D02*
X013245Y021756D01*
X013245Y021755D02*
X011749Y021755D01*
X011749Y021754D02*
X013245Y021754D01*
X013245Y021753D02*
X011749Y021753D01*
X011749Y021752D02*
X013245Y021752D01*
X013245Y021751D02*
X011749Y021751D01*
X011749Y021750D02*
X013245Y021750D01*
X013245Y021749D02*
X011749Y021749D01*
X011749Y021748D02*
X013245Y021748D01*
X013245Y021747D02*
X011749Y021747D01*
X011749Y021746D02*
X013245Y021746D01*
X013245Y021745D02*
X011749Y021745D01*
X011749Y021744D02*
X013245Y021744D01*
X013245Y021743D02*
X011749Y021743D01*
X011749Y021742D02*
X013245Y021742D01*
X013245Y021741D02*
X011749Y021741D01*
X011749Y021740D02*
X013245Y021740D01*
X013245Y021739D02*
X011749Y021739D01*
X011749Y021738D02*
X013245Y021738D01*
X013245Y021737D02*
X011749Y021737D01*
X011749Y021736D02*
X013245Y021736D01*
X013245Y021735D02*
X011749Y021735D01*
X011749Y021734D02*
X013245Y021734D01*
X013245Y021733D02*
X011749Y021733D01*
X011749Y021732D02*
X013245Y021732D01*
X013245Y021731D02*
X011749Y021731D01*
X011749Y021730D02*
X013245Y021730D01*
X013245Y021729D02*
X011749Y021729D01*
X011749Y021728D02*
X013245Y021728D01*
X013245Y021727D02*
X011749Y021727D01*
X011749Y021726D02*
X013245Y021726D01*
X013245Y021725D02*
X011749Y021725D01*
X011749Y021724D02*
X013245Y021724D01*
X013245Y021723D02*
X011749Y021723D01*
X011749Y021722D02*
X013245Y021722D01*
X013245Y021721D02*
X011749Y021721D01*
X011749Y021720D02*
X013245Y021720D01*
X013245Y021719D02*
X011749Y021719D01*
X011749Y021718D02*
X013245Y021718D01*
X013245Y021717D02*
X011749Y021717D01*
X011749Y021716D02*
X013245Y021716D01*
X013245Y021715D02*
X011749Y021715D01*
X011749Y021714D02*
X013245Y021714D01*
X013245Y021713D02*
X011749Y021713D01*
X011749Y021712D02*
X013245Y021712D01*
X013245Y021711D02*
X011749Y021711D01*
X011749Y021710D02*
X013245Y021710D01*
X013245Y021709D02*
X011749Y021709D01*
X011749Y021708D02*
X013245Y021708D01*
X013245Y021707D02*
X011749Y021707D01*
X011749Y021706D02*
X013245Y021706D01*
X013245Y021705D02*
X011749Y021705D01*
X011749Y021704D02*
X013245Y021704D01*
X013245Y021703D02*
X011749Y021703D01*
X011749Y021702D02*
X013245Y021702D01*
X013245Y021701D02*
X011749Y021701D01*
X011749Y021700D02*
X013245Y021700D01*
X013245Y021699D02*
X011749Y021699D01*
X011749Y021698D02*
X013245Y021698D01*
X013245Y021697D02*
X011749Y021697D01*
X011749Y021696D02*
X013245Y021696D01*
X013245Y021695D02*
X011749Y021695D01*
X011749Y021694D02*
X013245Y021694D01*
X013245Y021693D02*
X011749Y021693D01*
X011749Y021692D02*
X013245Y021692D01*
X013245Y021691D02*
X011749Y021691D01*
X011749Y021690D02*
X013245Y021690D01*
X013245Y021689D02*
X011749Y021689D01*
X011749Y021688D02*
X013245Y021688D01*
X013245Y021687D02*
X011749Y021687D01*
X011749Y021686D02*
X013245Y021686D01*
X013245Y021685D02*
X011749Y021685D01*
X011749Y021684D02*
X013245Y021684D01*
X013245Y021683D02*
X011749Y021683D01*
X011749Y021682D02*
X013245Y021682D01*
X013245Y021681D02*
X011749Y021681D01*
X011749Y021680D02*
X013245Y021680D01*
X013245Y021679D02*
X011749Y021679D01*
X011749Y021678D02*
X013245Y021678D01*
X013245Y021677D02*
X011749Y021677D01*
X011749Y021676D02*
X013245Y021676D01*
X013245Y021675D02*
X011749Y021675D01*
X011749Y021674D02*
X013245Y021674D01*
X013245Y021673D02*
X011749Y021673D01*
X011749Y021672D02*
X013245Y021672D01*
X013245Y021671D02*
X011749Y021671D01*
X011749Y021670D02*
X013245Y021670D01*
X013245Y021669D02*
X011749Y021669D01*
X011749Y021668D02*
X013245Y021668D01*
X013245Y021667D02*
X011749Y021667D01*
X011749Y021666D02*
X013245Y021666D01*
X013245Y021665D02*
X011749Y021665D01*
X011749Y021664D02*
X013245Y021664D01*
X013245Y021663D02*
X011749Y021663D01*
X011749Y021662D02*
X013245Y021662D01*
X013245Y021661D02*
X011749Y021661D01*
X011749Y021660D02*
X013245Y021660D01*
X013245Y021659D02*
X011749Y021659D01*
X011749Y021658D02*
X013245Y021658D01*
X013245Y021657D02*
X011749Y021657D01*
X011749Y021656D02*
X013245Y021656D01*
X013245Y021655D02*
X011749Y021655D01*
X011737Y019028D02*
X013233Y019028D01*
X013233Y019027D02*
X011737Y019027D01*
X011737Y019026D02*
X013233Y019026D01*
X013233Y019025D02*
X011737Y019025D01*
X011737Y019024D02*
X013233Y019024D01*
X013233Y019023D02*
X011737Y019023D01*
X011737Y019022D02*
X013233Y019022D01*
X013233Y019021D02*
X011737Y019021D01*
X011737Y019020D02*
X013233Y019020D01*
X013233Y019019D02*
X011737Y019019D01*
X011737Y019018D02*
X013233Y019018D01*
X013233Y019017D02*
X011737Y019017D01*
X011737Y019016D02*
X013233Y019016D01*
X013233Y019015D02*
X011737Y019015D01*
X011737Y019014D02*
X013233Y019014D01*
X013233Y019013D02*
X011737Y019013D01*
X011737Y019012D02*
X013233Y019012D01*
X013233Y019011D02*
X011737Y019011D01*
X011737Y019010D02*
X013233Y019010D01*
X013233Y019009D02*
X011737Y019009D01*
X011737Y019008D02*
X013233Y019008D01*
X013233Y019007D02*
X011737Y019007D01*
X011737Y019006D02*
X013233Y019006D01*
X013233Y019005D02*
X011737Y019005D01*
X011737Y019004D02*
X013233Y019004D01*
X013233Y019003D02*
X011737Y019003D01*
X011737Y019002D02*
X013233Y019002D01*
X013233Y019001D02*
X011737Y019001D01*
X011737Y019000D02*
X013233Y019000D01*
X013233Y018999D02*
X011737Y018999D01*
X011737Y018998D02*
X013233Y018998D01*
X013233Y018997D02*
X011737Y018997D01*
X011737Y018996D02*
X013233Y018996D01*
X013233Y018995D02*
X011737Y018995D01*
X011737Y018994D02*
X013233Y018994D01*
X013233Y018993D02*
X011737Y018993D01*
X011737Y018992D02*
X013233Y018992D01*
X013233Y018991D02*
X011737Y018991D01*
X011737Y018990D02*
X013233Y018990D01*
X013233Y018989D02*
X011737Y018989D01*
X011737Y018988D02*
X013233Y018988D01*
X013233Y018987D02*
X011737Y018987D01*
X011737Y018986D02*
X013233Y018986D01*
X013233Y018985D02*
X011737Y018985D01*
X011737Y018984D02*
X013233Y018984D01*
X013233Y018983D02*
X011737Y018983D01*
X011737Y018982D02*
X013233Y018982D01*
X013233Y018981D02*
X011737Y018981D01*
X011737Y018980D02*
X013233Y018980D01*
X013233Y018979D02*
X011737Y018979D01*
X011737Y018978D02*
X013233Y018978D01*
X013233Y018977D02*
X011737Y018977D01*
X011737Y018976D02*
X013233Y018976D01*
X013233Y018975D02*
X011737Y018975D01*
X011737Y018974D02*
X013233Y018974D01*
X013233Y018973D02*
X011737Y018973D01*
X011737Y018972D02*
X013233Y018972D01*
X013233Y018971D02*
X011737Y018971D01*
X011737Y018970D02*
X013233Y018970D01*
X013233Y018969D02*
X011737Y018969D01*
X011737Y018968D02*
X013233Y018968D01*
X013233Y018967D02*
X011737Y018967D01*
X011737Y018966D02*
X013233Y018966D01*
X013233Y018965D02*
X011737Y018965D01*
X011737Y018964D02*
X013233Y018964D01*
X013233Y018963D02*
X011737Y018963D01*
X011737Y018962D02*
X013233Y018962D01*
X013233Y018961D02*
X011737Y018961D01*
X011737Y018960D02*
X013233Y018960D01*
X013233Y018959D02*
X011737Y018959D01*
X011737Y018958D02*
X013233Y018958D01*
X013233Y018957D02*
X011737Y018957D01*
X011737Y018956D02*
X013233Y018956D01*
X013233Y018955D02*
X011737Y018955D01*
X011737Y018954D02*
X013233Y018954D01*
X013233Y018953D02*
X011737Y018953D01*
X011737Y018952D02*
X013233Y018952D01*
X013233Y018951D02*
X011737Y018951D01*
X011737Y018950D02*
X013233Y018950D01*
X013233Y018949D02*
X011737Y018949D01*
X011737Y018948D02*
X013233Y018948D01*
X013233Y018947D02*
X011737Y018947D01*
X011737Y018946D02*
X013233Y018946D01*
X013233Y018945D02*
X011737Y018945D01*
X011737Y018944D02*
X013233Y018944D01*
X013233Y018943D02*
X011737Y018943D01*
X011737Y018942D02*
X013233Y018942D01*
X013233Y018941D02*
X011737Y018941D01*
X011737Y018940D02*
X013233Y018940D01*
X013233Y018939D02*
X011737Y018939D01*
X011737Y018938D02*
X013233Y018938D01*
X013233Y018937D02*
X011737Y018937D01*
X011737Y018936D02*
X013233Y018936D01*
X013233Y018935D02*
X011737Y018935D01*
X011737Y018934D02*
X013233Y018934D01*
X013233Y018933D02*
X011737Y018933D01*
X011737Y018932D02*
X013233Y018932D01*
X013233Y018931D02*
X011737Y018931D01*
X011737Y018930D02*
X013233Y018930D01*
X013233Y018929D02*
X011737Y018929D01*
X011737Y018928D02*
X013233Y018928D01*
X013233Y018927D02*
X011737Y018927D01*
X011737Y018926D02*
X013233Y018926D01*
X013233Y018925D02*
X011737Y018925D01*
X011737Y018924D02*
X013233Y018924D01*
X013233Y018923D02*
X011737Y018923D01*
X011737Y018922D02*
X013233Y018922D01*
X013233Y018921D02*
X011737Y018921D01*
X011737Y018920D02*
X013233Y018920D01*
X013233Y018919D02*
X011737Y018919D01*
X011737Y018918D02*
X013233Y018918D01*
X013233Y018917D02*
X011737Y018917D01*
X011737Y018916D02*
X013233Y018916D01*
X013233Y018915D02*
X011737Y018915D01*
X011737Y018914D02*
X013233Y018914D01*
X013233Y018913D02*
X011737Y018913D01*
X011737Y018912D02*
X013233Y018912D01*
X013233Y018911D02*
X011737Y018911D01*
X011737Y018910D02*
X013233Y018910D01*
X013233Y018909D02*
X011737Y018909D01*
X011737Y018908D02*
X013233Y018908D01*
X013233Y018907D02*
X011737Y018907D01*
X011737Y018906D02*
X013233Y018906D01*
X013233Y018905D02*
X011737Y018905D01*
X011737Y018904D02*
X013233Y018904D01*
X013233Y018903D02*
X011737Y018903D01*
X011737Y018902D02*
X013233Y018902D01*
X013233Y018901D02*
X011737Y018901D01*
X011737Y018900D02*
X013233Y018900D01*
X013233Y018899D02*
X011737Y018899D01*
X011737Y018898D02*
X013233Y018898D01*
X013233Y018897D02*
X011737Y018897D01*
X011737Y018896D02*
X013233Y018896D01*
X013233Y018895D02*
X011737Y018895D01*
X011737Y018894D02*
X013233Y018894D01*
X013233Y018893D02*
X011737Y018893D01*
X011737Y018892D02*
X013233Y018892D01*
X013233Y018891D02*
X011737Y018891D01*
X011737Y018890D02*
X013233Y018890D01*
X013233Y018889D02*
X011737Y018889D01*
X011737Y018888D02*
X013233Y018888D01*
X013233Y018887D02*
X011737Y018887D01*
X011737Y018886D02*
X013233Y018886D01*
X013233Y018885D02*
X011737Y018885D01*
X011737Y018884D02*
X013233Y018884D01*
X013233Y018883D02*
X011737Y018883D01*
X011737Y018882D02*
X013233Y018882D01*
X013233Y018881D02*
X011737Y018881D01*
X011737Y018880D02*
X013233Y018880D01*
X013233Y018879D02*
X011737Y018879D01*
X011737Y018878D02*
X013233Y018878D01*
X013233Y018877D02*
X011737Y018877D01*
X011737Y018876D02*
X013233Y018876D01*
X013233Y018875D02*
X011737Y018875D01*
X011737Y018874D02*
X013233Y018874D01*
X013233Y018873D02*
X011737Y018873D01*
X011737Y018872D02*
X013233Y018872D01*
X013233Y018871D02*
X011737Y018871D01*
X011737Y018870D02*
X013233Y018870D01*
X013233Y018869D02*
X011737Y018869D01*
X011737Y018868D02*
X013233Y018868D01*
X013233Y018867D02*
X011737Y018867D01*
X011737Y018866D02*
X013233Y018866D01*
X013233Y018865D02*
X011737Y018865D01*
X011737Y018864D02*
X013233Y018864D01*
X013233Y018863D02*
X011737Y018863D01*
X011737Y018862D02*
X013233Y018862D01*
X013233Y018861D02*
X011737Y018861D01*
X011737Y018860D02*
X013233Y018860D01*
X013233Y018859D02*
X011737Y018859D01*
X011737Y018858D02*
X013233Y018858D01*
X013233Y018857D02*
X011737Y018857D01*
X011737Y018856D02*
X013233Y018856D01*
X013233Y018855D02*
X011737Y018855D01*
X011737Y018854D02*
X013233Y018854D01*
X013233Y018853D02*
X011737Y018853D01*
X011737Y018852D02*
X013233Y018852D01*
X013233Y018851D02*
X011737Y018851D01*
X011737Y018850D02*
X013233Y018850D01*
X013233Y018849D02*
X011737Y018849D01*
X011737Y018848D02*
X013233Y018848D01*
X013233Y018847D02*
X011737Y018847D01*
X011737Y018846D02*
X013233Y018846D01*
X013233Y018845D02*
X011737Y018845D01*
X011737Y018844D02*
X013233Y018844D01*
X013233Y018843D02*
X011737Y018843D01*
X011737Y018842D02*
X013233Y018842D01*
X013233Y018841D02*
X011737Y018841D01*
X011737Y018840D02*
X013233Y018840D01*
X013233Y018839D02*
X011737Y018839D01*
X011737Y018838D02*
X013233Y018838D01*
X013233Y018837D02*
X011737Y018837D01*
X011737Y018836D02*
X013233Y018836D01*
X013233Y018835D02*
X011737Y018835D01*
X011737Y018834D02*
X013233Y018834D01*
X013233Y018833D02*
X011737Y018833D01*
X011737Y018832D02*
X013233Y018832D01*
X013233Y018831D02*
X011737Y018831D01*
X011737Y018830D02*
X013233Y018830D01*
X013233Y018829D02*
X011737Y018829D01*
X011737Y018828D02*
X013233Y018828D01*
X013233Y018827D02*
X011737Y018827D01*
X011737Y018826D02*
X013233Y018826D01*
X013233Y018825D02*
X011737Y018825D01*
X011737Y018824D02*
X013233Y018824D01*
X013233Y018823D02*
X011737Y018823D01*
X011737Y018822D02*
X013233Y018822D01*
X013233Y018821D02*
X011737Y018821D01*
X011737Y018820D02*
X013233Y018820D01*
X013233Y018819D02*
X011737Y018819D01*
X011737Y018818D02*
X013233Y018818D01*
X013233Y018817D02*
X011737Y018817D01*
X011737Y018816D02*
X013233Y018816D01*
X013233Y018815D02*
X011737Y018815D01*
X011737Y018814D02*
X013233Y018814D01*
X013233Y018813D02*
X011737Y018813D01*
X011737Y018812D02*
X013233Y018812D01*
X013233Y018811D02*
X011737Y018811D01*
X011737Y018810D02*
X013233Y018810D01*
X013233Y018809D02*
X011737Y018809D01*
X011737Y018808D02*
X013233Y018808D01*
X013233Y018807D02*
X011737Y018807D01*
X011737Y018806D02*
X013233Y018806D01*
X013233Y018805D02*
X011737Y018805D01*
X011737Y018804D02*
X013233Y018804D01*
X013233Y018803D02*
X011737Y018803D01*
X011737Y018802D02*
X013233Y018802D01*
X013233Y018801D02*
X011737Y018801D01*
X011737Y018800D02*
X013233Y018800D01*
X013233Y018799D02*
X011737Y018799D01*
X011737Y018798D02*
X013233Y018798D01*
X013233Y018797D02*
X011737Y018797D01*
X011737Y018796D02*
X013233Y018796D01*
X013233Y018795D02*
X011737Y018795D01*
X011737Y018794D02*
X013233Y018794D01*
X013233Y018793D02*
X011737Y018793D01*
X011737Y018792D02*
X013233Y018792D01*
X013233Y018791D02*
X011737Y018791D01*
X011737Y018790D02*
X013233Y018790D01*
X013233Y018789D02*
X011737Y018789D01*
X011737Y018788D02*
X013233Y018788D01*
X013233Y018787D02*
X011737Y018787D01*
X011737Y018786D02*
X013233Y018786D01*
X013233Y018785D02*
X011737Y018785D01*
X011737Y018784D02*
X013233Y018784D01*
X013233Y018783D02*
X011737Y018783D01*
X011737Y018782D02*
X013233Y018782D01*
X013233Y018781D02*
X011737Y018781D01*
X011737Y018780D02*
X013233Y018780D01*
X013233Y018779D02*
X011737Y018779D01*
X011737Y018778D02*
X013233Y018778D01*
X013233Y018777D02*
X011737Y018777D01*
X011737Y018776D02*
X013233Y018776D01*
X013233Y018775D02*
X011737Y018775D01*
X011737Y018774D02*
X013233Y018774D01*
X013233Y018773D02*
X011737Y018773D01*
X011737Y018772D02*
X013233Y018772D01*
X013233Y018771D02*
X011737Y018771D01*
X011737Y018770D02*
X013233Y018770D01*
X013233Y018769D02*
X011737Y018769D01*
X011737Y018768D02*
X013233Y018768D01*
X013233Y018767D02*
X011737Y018767D01*
X011737Y018766D02*
X013233Y018766D01*
X013233Y018765D02*
X011737Y018765D01*
X011737Y018764D02*
X013233Y018764D01*
X013233Y018763D02*
X011737Y018763D01*
X011737Y018762D02*
X013233Y018762D01*
X013233Y018761D02*
X011737Y018761D01*
X011737Y018760D02*
X013233Y018760D01*
X013233Y018759D02*
X011737Y018759D01*
X011737Y018758D02*
X013233Y018758D01*
X013233Y018757D02*
X011737Y018757D01*
X011737Y018756D02*
X013233Y018756D01*
X013233Y018755D02*
X011737Y018755D01*
X011737Y018754D02*
X013233Y018754D01*
X013233Y018753D02*
X011737Y018753D01*
X011737Y018752D02*
X013233Y018752D01*
X013233Y018751D02*
X011737Y018751D01*
X011737Y018750D02*
X013233Y018750D01*
X013233Y018749D02*
X011737Y018749D01*
X011737Y018748D02*
X013233Y018748D01*
X013233Y018747D02*
X011737Y018747D01*
X011737Y018746D02*
X013233Y018746D01*
X013233Y018745D02*
X011737Y018745D01*
X011737Y018744D02*
X013233Y018744D01*
X013233Y018743D02*
X011737Y018743D01*
X011737Y018742D02*
X013233Y018742D01*
X013233Y018741D02*
X011737Y018741D01*
X011737Y018740D02*
X013233Y018740D01*
X013233Y018739D02*
X011737Y018739D01*
X011737Y018738D02*
X013233Y018738D01*
X013233Y018737D02*
X011737Y018737D01*
X011737Y018736D02*
X013233Y018736D01*
X013233Y018735D02*
X011737Y018735D01*
X011737Y018734D02*
X013233Y018734D01*
X013233Y018733D02*
X011737Y018733D01*
X011737Y018732D02*
X013233Y018732D01*
X013233Y018731D02*
X011737Y018731D01*
X011737Y018730D02*
X013233Y018730D01*
X013233Y018729D02*
X011737Y018729D01*
X011737Y018728D02*
X013233Y018728D01*
X013233Y018727D02*
X011737Y018727D01*
X011737Y018726D02*
X013233Y018726D01*
X013233Y018725D02*
X011737Y018725D01*
X011737Y018724D02*
X013233Y018724D01*
X013233Y018723D02*
X011737Y018723D01*
X011737Y018722D02*
X013233Y018722D01*
X013233Y018721D02*
X011737Y018721D01*
X011737Y018720D02*
X013233Y018720D01*
X013233Y018719D02*
X011737Y018719D01*
X011737Y018718D02*
X013233Y018718D01*
X013233Y018717D02*
X011737Y018717D01*
X011737Y018716D02*
X013233Y018716D01*
X013233Y018715D02*
X011737Y018715D01*
X011737Y018714D02*
X013233Y018714D01*
X013233Y018713D02*
X011737Y018713D01*
X011737Y018712D02*
X013233Y018712D01*
X013233Y018711D02*
X011737Y018711D01*
X011737Y018710D02*
X013233Y018710D01*
X013233Y018709D02*
X011737Y018709D01*
X011737Y018708D02*
X013233Y018708D01*
X013233Y018707D02*
X011737Y018707D01*
X011737Y018706D02*
X013233Y018706D01*
X013233Y018705D02*
X011737Y018705D01*
X011737Y018704D02*
X013233Y018704D01*
X013233Y018703D02*
X011737Y018703D01*
X011737Y018702D02*
X013233Y018702D01*
X013233Y018701D02*
X011737Y018701D01*
X011737Y018700D02*
X013233Y018700D01*
X013233Y018699D02*
X011737Y018699D01*
X011737Y018698D02*
X013233Y018698D01*
X013233Y018697D02*
X011737Y018697D01*
X011737Y018696D02*
X013233Y018696D01*
X013233Y018695D02*
X011737Y018695D01*
X011737Y018694D02*
X013233Y018694D01*
X013233Y018693D02*
X011737Y018693D01*
X011737Y018692D02*
X013233Y018692D01*
X013233Y018691D02*
X011737Y018691D01*
X011737Y018690D02*
X013233Y018690D01*
X013233Y018689D02*
X011737Y018689D01*
X011737Y018688D02*
X013233Y018688D01*
X013233Y018687D02*
X011737Y018687D01*
X011737Y018686D02*
X013233Y018686D01*
X013233Y018685D02*
X011737Y018685D01*
X011737Y018684D02*
X013233Y018684D01*
X013233Y018683D02*
X011737Y018683D01*
X011737Y018682D02*
X013233Y018682D01*
X013233Y018681D02*
X011737Y018681D01*
X011737Y018680D02*
X013233Y018680D01*
X013233Y018679D02*
X011737Y018679D01*
X011737Y018678D02*
X013233Y018678D01*
X013233Y018677D02*
X011737Y018677D01*
X011737Y018676D02*
X013233Y018676D01*
X013233Y018675D02*
X011737Y018675D01*
X011737Y018674D02*
X013233Y018674D01*
X013233Y018673D02*
X011737Y018673D01*
X011737Y018672D02*
X013233Y018672D01*
X013233Y018671D02*
X011737Y018671D01*
X011737Y018670D02*
X013233Y018670D01*
X013233Y018669D02*
X011737Y018669D01*
X011737Y018668D02*
X013233Y018668D01*
X013233Y018667D02*
X011737Y018667D01*
X011737Y018666D02*
X013233Y018666D01*
X013233Y018665D02*
X011737Y018665D01*
X011737Y018664D02*
X013233Y018664D01*
X013233Y018663D02*
X011737Y018663D01*
X011737Y018662D02*
X013233Y018662D01*
X013233Y018661D02*
X011737Y018661D01*
X011737Y018660D02*
X013233Y018660D01*
X013233Y018659D02*
X011737Y018659D01*
X011737Y018658D02*
X013233Y018658D01*
X013233Y018657D02*
X011737Y018657D01*
X011737Y018656D02*
X013233Y018656D01*
X013233Y018655D02*
X011737Y018655D01*
X011737Y018654D02*
X013233Y018654D01*
X013233Y018653D02*
X011737Y018653D01*
X011737Y018652D02*
X013233Y018652D01*
X013233Y018651D02*
X011737Y018651D01*
X011737Y018650D02*
X013233Y018650D01*
X013233Y018649D02*
X011737Y018649D01*
X011737Y018648D02*
X013233Y018648D01*
X013233Y018647D02*
X011737Y018647D01*
X011737Y018646D02*
X013233Y018646D01*
X013233Y018645D02*
X011737Y018645D01*
X011737Y018644D02*
X013233Y018644D01*
X013233Y018643D02*
X011737Y018643D01*
X011737Y018642D02*
X013233Y018642D01*
X013233Y018641D02*
X011737Y018641D01*
X011737Y018640D02*
X013233Y018640D01*
X013233Y018639D02*
X011737Y018639D01*
X011737Y018638D02*
X013233Y018638D01*
X013233Y018637D02*
X011737Y018637D01*
X011737Y018636D02*
X013233Y018636D01*
X013233Y018635D02*
X011737Y018635D01*
X011737Y018634D02*
X013233Y018634D01*
X013233Y018633D02*
X011737Y018633D01*
X011737Y018632D02*
X013233Y018632D01*
X013233Y018631D02*
X011737Y018631D01*
X011737Y018630D02*
X013233Y018630D01*
X013233Y018629D02*
X011737Y018629D01*
X011737Y018628D02*
X013233Y018628D01*
X013233Y018627D02*
X011737Y018627D01*
X011737Y018626D02*
X013233Y018626D01*
X013233Y018625D02*
X011737Y018625D01*
X011737Y018624D02*
X013233Y018624D01*
X013233Y018623D02*
X011737Y018623D01*
X011737Y018622D02*
X013233Y018622D01*
X013233Y018621D02*
X011737Y018621D01*
X011737Y018620D02*
X013233Y018620D01*
X013233Y018619D02*
X011737Y018619D01*
X011737Y018618D02*
X013233Y018618D01*
X013233Y018617D02*
X011737Y018617D01*
X011737Y018616D02*
X013233Y018616D01*
X013233Y018615D02*
X011737Y018615D01*
X011737Y018614D02*
X013233Y018614D01*
X013233Y018613D02*
X011737Y018613D01*
X011737Y018612D02*
X013233Y018612D01*
X013233Y018611D02*
X011737Y018611D01*
X011737Y018610D02*
X013233Y018610D01*
X013233Y018609D02*
X011737Y018609D01*
X011737Y018608D02*
X013233Y018608D01*
X013233Y018607D02*
X011737Y018607D01*
X011737Y018606D02*
X013233Y018606D01*
X013233Y018605D02*
X011737Y018605D01*
X011737Y018604D02*
X013233Y018604D01*
X013233Y018603D02*
X011737Y018603D01*
X011737Y018602D02*
X013233Y018602D01*
X013233Y018601D02*
X011737Y018601D01*
X011737Y018600D02*
X013233Y018600D01*
X013233Y018599D02*
X011737Y018599D01*
X011737Y018598D02*
X013233Y018598D01*
X013233Y018597D02*
X011737Y018597D01*
X011737Y018596D02*
X013233Y018596D01*
X013233Y018595D02*
X011737Y018595D01*
X011737Y018594D02*
X013233Y018594D01*
X013233Y018593D02*
X011737Y018593D01*
X011737Y018592D02*
X013233Y018592D01*
X013233Y018591D02*
X011737Y018591D01*
X011737Y018590D02*
X013233Y018590D01*
X013233Y018589D02*
X011737Y018589D01*
X011737Y018588D02*
X013233Y018588D01*
X013233Y018587D02*
X011737Y018587D01*
X011737Y018586D02*
X013233Y018586D01*
X013233Y018585D02*
X011737Y018585D01*
X011737Y018584D02*
X013233Y018584D01*
X013233Y018583D02*
X011737Y018583D01*
X011737Y018582D02*
X013233Y018582D01*
X013233Y018581D02*
X011737Y018581D01*
X011737Y018580D02*
X013233Y018580D01*
X013233Y018579D02*
X011737Y018579D01*
X011737Y018578D02*
X013233Y018578D01*
X013233Y018577D02*
X011737Y018577D01*
X011737Y018576D02*
X013233Y018576D01*
X013233Y018575D02*
X011737Y018575D01*
X011737Y018574D02*
X013233Y018574D01*
X013233Y018573D02*
X011737Y018573D01*
X011737Y018572D02*
X013233Y018572D01*
X013233Y018571D02*
X011737Y018571D01*
X011737Y018570D02*
X013233Y018570D01*
X013233Y018569D02*
X011737Y018569D01*
X011737Y018568D02*
X013233Y018568D01*
X013233Y018567D02*
X011737Y018567D01*
X011737Y018566D02*
X013233Y018566D01*
X013233Y018565D02*
X011737Y018565D01*
X011737Y018564D02*
X013233Y018564D01*
X013233Y018563D02*
X011737Y018563D01*
X011737Y018562D02*
X013233Y018562D01*
X013233Y018561D02*
X011737Y018561D01*
X011737Y018560D02*
X013233Y018560D01*
X013233Y018559D02*
X011737Y018559D01*
X011737Y018558D02*
X013233Y018558D01*
X013233Y018557D02*
X011737Y018557D01*
X011737Y018556D02*
X013233Y018556D01*
X013233Y018555D02*
X011737Y018555D01*
X011737Y018554D02*
X013233Y018554D01*
X013233Y018553D02*
X011737Y018553D01*
X011737Y018552D02*
X013233Y018552D01*
X013233Y018551D02*
X011737Y018551D01*
X011737Y018550D02*
X013233Y018550D01*
X013233Y018549D02*
X011737Y018549D01*
X011737Y018548D02*
X013233Y018548D01*
X013233Y018547D02*
X011737Y018547D01*
X011737Y018546D02*
X013233Y018546D01*
X013233Y018545D02*
X011737Y018545D01*
X011737Y018544D02*
X013233Y018544D01*
X013233Y018543D02*
X011737Y018543D01*
X011737Y018542D02*
X013233Y018542D01*
X013233Y018541D02*
X011737Y018541D01*
X011737Y018540D02*
X013233Y018540D01*
X013233Y018539D02*
X011737Y018539D01*
X011737Y018538D02*
X013233Y018538D01*
X013233Y018537D02*
X011737Y018537D01*
X011737Y018536D02*
X013233Y018536D01*
X013233Y018535D02*
X011737Y018535D01*
X011737Y018534D02*
X013233Y018534D01*
X013233Y018533D02*
X011737Y018533D01*
X011737Y018532D02*
X013233Y018532D01*
X013233Y018531D02*
X011737Y018531D01*
X011737Y018530D02*
X013233Y018530D01*
X013233Y018529D02*
X011737Y018529D01*
X011737Y018528D02*
X013233Y018528D01*
X013233Y018527D02*
X011737Y018527D01*
X011737Y018526D02*
X013233Y018526D01*
X013233Y018525D02*
X011737Y018525D01*
X011737Y018524D02*
X013233Y018524D01*
X013233Y018523D02*
X011737Y018523D01*
X011737Y018522D02*
X013233Y018522D01*
X013233Y018521D02*
X011737Y018521D01*
X011737Y018520D02*
X013233Y018520D01*
X013233Y018519D02*
X011737Y018519D01*
X011737Y018518D02*
X013233Y018518D01*
X013233Y018517D02*
X011737Y018517D01*
X011737Y018516D02*
X013233Y018516D01*
X013233Y018515D02*
X011737Y018515D01*
X011737Y018514D02*
X013233Y018514D01*
X013233Y018513D02*
X011737Y018513D01*
X011737Y018512D02*
X013233Y018512D01*
X013233Y018511D02*
X011737Y018511D01*
X011737Y018510D02*
X013233Y018510D01*
X013233Y018509D02*
X011737Y018509D01*
X011737Y018508D02*
X013233Y018508D01*
X013233Y018507D02*
X011737Y018507D01*
X011737Y018506D02*
X013233Y018506D01*
X013233Y018505D02*
X011737Y018505D01*
X011737Y018504D02*
X013233Y018504D01*
X013233Y018503D02*
X011737Y018503D01*
X011737Y018502D02*
X013233Y018502D01*
X013233Y018501D02*
X011737Y018501D01*
X011737Y018500D02*
X013233Y018500D01*
X013233Y018499D02*
X011737Y018499D01*
X011737Y018498D02*
X013233Y018498D01*
X013233Y018497D02*
X011737Y018497D01*
X011737Y018496D02*
X013233Y018496D01*
X013233Y018495D02*
X011737Y018495D01*
X011737Y018494D02*
X013233Y018494D01*
X013233Y018493D02*
X011737Y018493D01*
X011737Y018492D02*
X013233Y018492D01*
X013233Y018491D02*
X011737Y018491D01*
X011737Y018490D02*
X013233Y018490D01*
X013233Y018489D02*
X011737Y018489D01*
X011737Y018488D02*
X013233Y018488D01*
X013233Y018487D02*
X011737Y018487D01*
X011737Y018486D02*
X013233Y018486D01*
X013233Y018485D02*
X011737Y018485D01*
X011737Y018484D02*
X013233Y018484D01*
X013233Y018483D02*
X011737Y018483D01*
X011737Y018482D02*
X013233Y018482D01*
X013233Y018481D02*
X011737Y018481D01*
X011737Y018480D02*
X013233Y018480D01*
X013233Y018479D02*
X011737Y018479D01*
X011737Y018478D02*
X013233Y018478D01*
X013233Y018477D02*
X011737Y018477D01*
X011737Y018476D02*
X013233Y018476D01*
X013233Y018475D02*
X011737Y018475D01*
X011737Y018474D02*
X013233Y018474D01*
X013233Y018473D02*
X011737Y018473D01*
X011737Y018472D02*
X013233Y018472D01*
X013233Y018471D02*
X011737Y018471D01*
X011737Y018470D02*
X013233Y018470D01*
X013233Y018469D02*
X011737Y018469D01*
X011737Y018468D02*
X013233Y018468D01*
X013233Y018467D02*
X011737Y018467D01*
X011737Y018466D02*
X013233Y018466D01*
X013233Y018465D02*
X011737Y018465D01*
X011737Y018464D02*
X013233Y018464D01*
X013233Y018463D02*
X011737Y018463D01*
X011737Y018462D02*
X013233Y018462D01*
X013233Y018461D02*
X011737Y018461D01*
X011737Y018460D02*
X013233Y018460D01*
X013233Y018459D02*
X011737Y018459D01*
X011737Y018458D02*
X013233Y018458D01*
X013233Y018457D02*
X011737Y018457D01*
X011737Y018456D02*
X013233Y018456D01*
X013233Y018455D02*
X011737Y018455D01*
X011737Y018454D02*
X013233Y018454D01*
X013233Y018453D02*
X011737Y018453D01*
X011737Y018452D02*
X013233Y018452D01*
X013233Y018451D02*
X011737Y018451D01*
X011737Y018450D02*
X013233Y018450D01*
X013233Y018449D02*
X011737Y018449D01*
X011737Y018448D02*
X013233Y018448D01*
X013233Y018447D02*
X011737Y018447D01*
X011737Y018446D02*
X013233Y018446D01*
X013233Y018445D02*
X011737Y018445D01*
X011737Y018444D02*
X013233Y018444D01*
X013233Y018443D02*
X011737Y018443D01*
X011737Y018442D02*
X013233Y018442D01*
X013233Y018441D02*
X011737Y018441D01*
X011737Y018440D02*
X013233Y018440D01*
X013233Y018439D02*
X011737Y018439D01*
X011737Y018438D02*
X013233Y018438D01*
X013233Y018437D02*
X011737Y018437D01*
X011737Y018436D02*
X013233Y018436D01*
X013233Y018435D02*
X011737Y018435D01*
X011737Y018434D02*
X013233Y018434D01*
X013233Y018433D02*
X011737Y018433D01*
X011737Y018432D02*
X013233Y018432D01*
X013233Y018431D02*
X011737Y018431D01*
X011737Y018430D02*
X013233Y018430D01*
X013233Y018429D02*
X011737Y018429D01*
X011737Y018428D02*
X013233Y018428D01*
X011737Y018428D01*
X011737Y018427D02*
X013233Y018427D01*
X013233Y018426D02*
X011737Y018426D01*
X011737Y018425D02*
X013233Y018425D01*
X013233Y018424D02*
X011737Y018424D01*
X011737Y018423D02*
X013233Y018423D01*
X013233Y018422D02*
X011737Y018422D01*
X011737Y018421D02*
X013233Y018421D01*
X013233Y018420D02*
X011737Y018420D01*
X011737Y018419D02*
X013233Y018419D01*
X013233Y018418D02*
X011737Y018418D01*
X011737Y018417D02*
X013233Y018417D01*
X013233Y018416D02*
X011737Y018416D01*
X011737Y018415D02*
X013233Y018415D01*
X013233Y018414D02*
X011737Y018414D01*
X011737Y018413D02*
X013233Y018413D01*
X013233Y018412D02*
X011737Y018412D01*
X011737Y018411D02*
X013233Y018411D01*
X013233Y018410D02*
X011737Y018410D01*
X011737Y018409D02*
X013233Y018409D01*
X013233Y018408D02*
X011737Y018408D01*
X011737Y018407D02*
X013233Y018407D01*
X013233Y018406D02*
X011737Y018406D01*
X011737Y018405D02*
X013233Y018405D01*
X013233Y018404D02*
X011737Y018404D01*
X011737Y018403D02*
X013233Y018403D01*
X013233Y018402D02*
X011737Y018402D01*
X011737Y018401D02*
X013233Y018401D01*
X013233Y018400D02*
X011737Y018400D01*
X011737Y018399D02*
X013233Y018399D01*
X013233Y018398D02*
X011737Y018398D01*
X011737Y018397D02*
X013233Y018397D01*
X013233Y018396D02*
X011737Y018396D01*
X011737Y018395D02*
X013233Y018395D01*
X013233Y018394D02*
X011737Y018394D01*
X011737Y018393D02*
X013233Y018393D01*
X013233Y018392D02*
X011737Y018392D01*
X011737Y018391D02*
X013233Y018391D01*
X013233Y018390D02*
X011737Y018390D01*
X011737Y018389D02*
X013233Y018389D01*
X013233Y018388D02*
X011737Y018388D01*
X011737Y018387D02*
X013233Y018387D01*
X013233Y018386D02*
X011737Y018386D01*
X011737Y018385D02*
X013233Y018385D01*
X013233Y018384D02*
X011737Y018384D01*
X011737Y018383D02*
X013233Y018383D01*
X013233Y018382D02*
X011737Y018382D01*
X011737Y018381D02*
X013233Y018381D01*
X013233Y018380D02*
X011737Y018380D01*
X011737Y018379D02*
X013233Y018379D01*
X013233Y018378D02*
X011737Y018378D01*
X011737Y018377D02*
X013233Y018377D01*
X013233Y018376D02*
X011737Y018376D01*
X011737Y018375D02*
X013233Y018375D01*
X013233Y018374D02*
X011737Y018374D01*
X011737Y018373D02*
X013233Y018373D01*
X013233Y018372D02*
X011737Y018372D01*
X011737Y018371D02*
X013233Y018371D01*
X013233Y018370D02*
X011737Y018370D01*
X011737Y018369D02*
X013233Y018369D01*
X013233Y018368D02*
X011737Y018368D01*
X011737Y018367D02*
X013233Y018367D01*
X013233Y018366D02*
X011737Y018366D01*
X011737Y018365D02*
X013233Y018365D01*
X013233Y018364D02*
X011737Y018364D01*
X011737Y018363D02*
X013233Y018363D01*
X013233Y018362D02*
X011737Y018362D01*
X011737Y018361D02*
X013233Y018361D01*
X013233Y018360D02*
X011737Y018360D01*
X011737Y018359D02*
X013233Y018359D01*
X013233Y018358D02*
X011737Y018358D01*
X011737Y018357D02*
X013233Y018357D01*
X013233Y018356D02*
X011737Y018356D01*
X011737Y018355D02*
X013233Y018355D01*
X013233Y018354D02*
X011737Y018354D01*
X011737Y018353D02*
X013233Y018353D01*
X013233Y018352D02*
X011737Y018352D01*
X011737Y018351D02*
X013233Y018351D01*
X013233Y018350D02*
X011737Y018350D01*
X011737Y018349D02*
X013233Y018349D01*
X013233Y018348D02*
X011737Y018348D01*
X011737Y018347D02*
X013233Y018347D01*
X013233Y018346D02*
X011737Y018346D01*
X011737Y018345D02*
X013233Y018345D01*
X013233Y018344D02*
X011737Y018344D01*
X011737Y018343D02*
X013233Y018343D01*
X013233Y018342D02*
X011737Y018342D01*
X011737Y018341D02*
X013233Y018341D01*
X013233Y018340D02*
X011737Y018340D01*
X011737Y018339D02*
X013233Y018339D01*
X013233Y018338D02*
X011737Y018338D01*
X011737Y018337D02*
X013233Y018337D01*
X013233Y018336D02*
X011737Y018336D01*
X011737Y018335D02*
X013233Y018335D01*
X013233Y018334D02*
X011737Y018334D01*
X011737Y018333D02*
X013233Y018333D01*
X013233Y018332D02*
X011737Y018332D01*
X011737Y018331D02*
X013233Y018331D01*
X013233Y018330D02*
X011737Y018330D01*
X011737Y018329D02*
X013233Y018329D01*
X013233Y018328D02*
X011737Y018328D01*
X011737Y018327D02*
X013233Y018327D01*
X013233Y018326D02*
X011737Y018326D01*
X011737Y018325D02*
X013233Y018325D01*
X013233Y018324D02*
X011737Y018324D01*
X011737Y018323D02*
X013233Y018323D01*
X013233Y018322D02*
X011737Y018322D01*
X011737Y018321D02*
X013233Y018321D01*
X013233Y018320D02*
X011737Y018320D01*
X011737Y018319D02*
X013233Y018319D01*
X013233Y018318D02*
X011737Y018318D01*
X011737Y018317D02*
X013233Y018317D01*
X013233Y018316D02*
X011737Y018316D01*
X011737Y018315D02*
X013233Y018315D01*
X013233Y018314D02*
X011737Y018314D01*
X011737Y018313D02*
X013233Y018313D01*
X013233Y018312D02*
X011737Y018312D01*
X011737Y018311D02*
X013233Y018311D01*
X013233Y018310D02*
X011737Y018310D01*
X011737Y018309D02*
X013233Y018309D01*
X013233Y018308D02*
X011737Y018308D01*
X011737Y018307D02*
X013233Y018307D01*
X013233Y018306D02*
X011737Y018306D01*
X011737Y018305D02*
X013233Y018305D01*
X013233Y018304D02*
X011737Y018304D01*
X011737Y018303D02*
X013233Y018303D01*
X013233Y018302D02*
X011737Y018302D01*
X011737Y018301D02*
X013233Y018301D01*
X013233Y018300D02*
X011737Y018300D01*
X011737Y018299D02*
X013233Y018299D01*
X013233Y018298D02*
X011737Y018298D01*
X011737Y018297D02*
X013233Y018297D01*
X013233Y018296D02*
X011737Y018296D01*
X011737Y018295D02*
X013233Y018295D01*
X013233Y018294D02*
X011737Y018294D01*
X011737Y018293D02*
X013233Y018293D01*
X013233Y018292D02*
X011737Y018292D01*
X011737Y018291D02*
X013233Y018291D01*
X013233Y018290D02*
X011737Y018290D01*
X011737Y018289D02*
X013233Y018289D01*
X013233Y018288D02*
X011737Y018288D01*
X011737Y018287D02*
X013233Y018287D01*
X013233Y018286D02*
X011737Y018286D01*
X011737Y018285D02*
X013233Y018285D01*
X013233Y018284D02*
X011737Y018284D01*
X011737Y018283D02*
X013233Y018283D01*
X013233Y018282D02*
X011737Y018282D01*
X011737Y018281D02*
X013233Y018281D01*
X013233Y018280D02*
X011737Y018280D01*
X011737Y018279D02*
X013233Y018279D01*
X013233Y018278D02*
X011737Y018278D01*
X011737Y018277D02*
X013233Y018277D01*
X013233Y018276D02*
X011737Y018276D01*
X011737Y018275D02*
X013233Y018275D01*
X013233Y018274D02*
X011737Y018274D01*
X011737Y018273D02*
X013233Y018273D01*
X013233Y018272D02*
X011737Y018272D01*
X011737Y018271D02*
X013233Y018271D01*
X013233Y018270D02*
X011737Y018270D01*
X011737Y018269D02*
X013233Y018269D01*
X013233Y018268D02*
X011737Y018268D01*
X011737Y018267D02*
X013233Y018267D01*
X013233Y018266D02*
X011737Y018266D01*
X011737Y018265D02*
X013233Y018265D01*
X013233Y018264D02*
X011737Y018264D01*
X011737Y018263D02*
X013233Y018263D01*
X013233Y018262D02*
X011737Y018262D01*
X011737Y018261D02*
X013233Y018261D01*
X013233Y018260D02*
X011737Y018260D01*
X011737Y018259D02*
X013233Y018259D01*
X013233Y018258D02*
X011737Y018258D01*
X011737Y018257D02*
X013233Y018257D01*
X013233Y018256D02*
X011737Y018256D01*
X011737Y018255D02*
X013233Y018255D01*
X013233Y018254D02*
X011737Y018254D01*
X011737Y018253D02*
X013233Y018253D01*
X013233Y018252D02*
X011737Y018252D01*
X011737Y018251D02*
X013233Y018251D01*
X013233Y018250D02*
X011737Y018250D01*
X011737Y018249D02*
X013233Y018249D01*
X013233Y018248D02*
X011737Y018248D01*
X011737Y018247D02*
X013233Y018247D01*
X013233Y018246D02*
X011737Y018246D01*
X011737Y018245D02*
X013233Y018245D01*
X013233Y018244D02*
X011737Y018244D01*
X011737Y018243D02*
X013233Y018243D01*
X013233Y018242D02*
X011737Y018242D01*
X011737Y018241D02*
X013233Y018241D01*
X013233Y018240D02*
X011737Y018240D01*
X011737Y018239D02*
X013233Y018239D01*
X013233Y018238D02*
X011737Y018238D01*
X011737Y018237D02*
X013233Y018237D01*
X013233Y018236D02*
X011737Y018236D01*
X011737Y018235D02*
X013233Y018235D01*
X013233Y018234D02*
X011737Y018234D01*
X011737Y018233D02*
X013233Y018233D01*
X013233Y018232D02*
X011737Y018232D01*
X011737Y018231D02*
X013233Y018231D01*
X013233Y018230D02*
X011737Y018230D01*
X011737Y018229D02*
X013233Y018229D01*
X013233Y018228D02*
X011737Y018228D01*
X011737Y018227D02*
X013233Y018227D01*
X013233Y018226D02*
X011737Y018226D01*
X011737Y018225D02*
X013233Y018225D01*
X013233Y018224D02*
X011737Y018224D01*
X011737Y018223D02*
X013233Y018223D01*
X013233Y018222D02*
X011737Y018222D01*
X011737Y018221D02*
X013233Y018221D01*
X013233Y018220D02*
X011737Y018220D01*
X011737Y018219D02*
X013233Y018219D01*
X013233Y018218D02*
X011737Y018218D01*
X011737Y018217D02*
X013233Y018217D01*
X013233Y018216D02*
X011737Y018216D01*
X011737Y018215D02*
X013233Y018215D01*
X013233Y018214D02*
X011737Y018214D01*
X011737Y018213D02*
X013233Y018213D01*
X013233Y018212D02*
X011737Y018212D01*
X011737Y018211D02*
X013233Y018211D01*
X013233Y018210D02*
X011737Y018210D01*
X011737Y018209D02*
X013233Y018209D01*
X013233Y018208D02*
X011737Y018208D01*
X011737Y018207D02*
X013233Y018207D01*
X013233Y018206D02*
X011737Y018206D01*
X011737Y018205D02*
X013233Y018205D01*
X013233Y018204D02*
X011737Y018204D01*
X011737Y018203D02*
X013233Y018203D01*
X013233Y018202D02*
X011737Y018202D01*
X011737Y018201D02*
X013233Y018201D01*
X013233Y018200D02*
X011737Y018200D01*
X011737Y018199D02*
X013233Y018199D01*
X013233Y018198D02*
X011737Y018198D01*
X011737Y018197D02*
X013233Y018197D01*
X013233Y018196D02*
X011737Y018196D01*
X011737Y018195D02*
X013233Y018195D01*
X013233Y018194D02*
X011737Y018194D01*
X011737Y018193D02*
X013233Y018193D01*
X013233Y018192D02*
X011737Y018192D01*
X011737Y018191D02*
X013233Y018191D01*
X013233Y018190D02*
X011737Y018190D01*
X011737Y018189D02*
X013233Y018189D01*
X013233Y018188D02*
X011737Y018188D01*
X011737Y018187D02*
X013233Y018187D01*
X013233Y018186D02*
X011737Y018186D01*
X011737Y018185D02*
X013233Y018185D01*
X013233Y018184D02*
X011737Y018184D01*
X011737Y018183D02*
X013233Y018183D01*
X013233Y018182D02*
X011737Y018182D01*
X011737Y018181D02*
X013233Y018181D01*
X013233Y018180D02*
X011737Y018180D01*
X011737Y018179D02*
X013233Y018179D01*
X013233Y018178D02*
X011737Y018178D01*
X011737Y018177D02*
X013233Y018177D01*
X013233Y018176D02*
X011737Y018176D01*
X011737Y018175D02*
X013233Y018175D01*
X013233Y018174D02*
X011737Y018174D01*
X011737Y018173D02*
X013233Y018173D01*
X013233Y018172D02*
X011737Y018172D01*
X011737Y018171D02*
X013233Y018171D01*
X013233Y018170D02*
X011737Y018170D01*
X011737Y018169D02*
X013233Y018169D01*
X013233Y018168D02*
X011737Y018168D01*
X011737Y018167D02*
X013233Y018167D01*
X013233Y018166D02*
X011737Y018166D01*
X011737Y018165D02*
X013233Y018165D01*
X013233Y018164D02*
X011737Y018164D01*
X011737Y018163D02*
X013233Y018163D01*
X013233Y018162D02*
X011737Y018162D01*
X011737Y018161D02*
X013233Y018161D01*
X013233Y018160D02*
X011737Y018160D01*
X011737Y018159D02*
X013233Y018159D01*
X013233Y018158D02*
X011737Y018158D01*
X011737Y018157D02*
X013233Y018157D01*
X013233Y018156D02*
X011737Y018156D01*
X011737Y018155D02*
X013233Y018155D01*
X013233Y018154D02*
X011737Y018154D01*
X011737Y018153D02*
X013233Y018153D01*
X013233Y018152D02*
X011737Y018152D01*
X011737Y018151D02*
X013233Y018151D01*
X013233Y018150D02*
X011737Y018150D01*
X011737Y018149D02*
X013233Y018149D01*
X013233Y018148D02*
X011737Y018148D01*
X011737Y018147D02*
X013233Y018147D01*
X013233Y018146D02*
X011737Y018146D01*
X011737Y018145D02*
X013233Y018145D01*
X013233Y018144D02*
X011737Y018144D01*
X011737Y018143D02*
X013233Y018143D01*
X013233Y018142D02*
X011737Y018142D01*
X011737Y018141D02*
X013233Y018141D01*
X013233Y018140D02*
X011737Y018140D01*
X011737Y018139D02*
X013233Y018139D01*
X013233Y018138D02*
X011737Y018138D01*
X011737Y018137D02*
X013233Y018137D01*
X013233Y018136D02*
X011737Y018136D01*
X011737Y018135D02*
X013233Y018135D01*
X013233Y018134D02*
X011737Y018134D01*
X011737Y018133D02*
X013233Y018133D01*
X013233Y018132D02*
X011737Y018132D01*
X011737Y018131D02*
X013233Y018131D01*
X013233Y018130D02*
X011737Y018130D01*
X011737Y018129D02*
X013233Y018129D01*
X013233Y018128D02*
X011737Y018128D01*
X011737Y018127D02*
X013233Y018127D01*
X013233Y018126D02*
X011737Y018126D01*
X011737Y018125D02*
X013233Y018125D01*
X013233Y018124D02*
X011737Y018124D01*
X011737Y018123D02*
X013233Y018123D01*
X013233Y018122D02*
X011737Y018122D01*
X011737Y018121D02*
X013233Y018121D01*
X013233Y018120D02*
X011737Y018120D01*
X011737Y018119D02*
X013233Y018119D01*
X013233Y018118D02*
X011737Y018118D01*
X011737Y018117D02*
X013233Y018117D01*
X013233Y018116D02*
X011737Y018116D01*
X011737Y018115D02*
X013233Y018115D01*
X013233Y018114D02*
X011737Y018114D01*
X011737Y018113D02*
X013233Y018113D01*
X013233Y018112D02*
X011737Y018112D01*
X011737Y018111D02*
X013233Y018111D01*
X013233Y018110D02*
X011737Y018110D01*
X011737Y018109D02*
X013233Y018109D01*
X013233Y018108D02*
X011737Y018108D01*
X011737Y018107D02*
X013233Y018107D01*
X013233Y018106D02*
X011737Y018106D01*
X011737Y018105D02*
X013233Y018105D01*
X013233Y018104D02*
X011737Y018104D01*
X011737Y018103D02*
X013233Y018103D01*
X013233Y018102D02*
X011737Y018102D01*
X011737Y018101D02*
X013233Y018101D01*
X013233Y018100D02*
X011737Y018100D01*
X011737Y018099D02*
X013233Y018099D01*
X013233Y018098D02*
X011737Y018098D01*
X011737Y018097D02*
X013233Y018097D01*
X013233Y018096D02*
X011737Y018096D01*
X011737Y018095D02*
X013233Y018095D01*
X013233Y018094D02*
X011737Y018094D01*
X011737Y018093D02*
X013233Y018093D01*
X013233Y018092D02*
X011737Y018092D01*
X011737Y018091D02*
X013233Y018091D01*
X013233Y018090D02*
X011737Y018090D01*
X011737Y018089D02*
X013233Y018089D01*
X013233Y018088D02*
X011737Y018088D01*
X011737Y018087D02*
X013233Y018087D01*
X013233Y018086D02*
X011737Y018086D01*
X011737Y018085D02*
X013233Y018085D01*
X013233Y018084D02*
X011737Y018084D01*
X011737Y018083D02*
X013233Y018083D01*
X013233Y018082D02*
X011737Y018082D01*
X011737Y018081D02*
X013233Y018081D01*
X013233Y018080D02*
X011737Y018080D01*
X011737Y018079D02*
X013233Y018079D01*
X013233Y018078D02*
X011737Y018078D01*
X011737Y018077D02*
X013233Y018077D01*
X013233Y018076D02*
X011737Y018076D01*
X011737Y018075D02*
X013233Y018075D01*
X013233Y018074D02*
X011737Y018074D01*
X011737Y018073D02*
X013233Y018073D01*
X013233Y018072D02*
X011737Y018072D01*
X011737Y018071D02*
X013233Y018071D01*
X013233Y018070D02*
X011737Y018070D01*
X011737Y018069D02*
X013233Y018069D01*
X013233Y018068D02*
X011737Y018068D01*
X011737Y018067D02*
X013233Y018067D01*
X013233Y018066D02*
X011737Y018066D01*
X011737Y018065D02*
X013233Y018065D01*
X013233Y018064D02*
X011737Y018064D01*
X011737Y018063D02*
X013233Y018063D01*
X013233Y018062D02*
X011737Y018062D01*
X011737Y018061D02*
X013233Y018061D01*
X013233Y018060D02*
X011737Y018060D01*
X011737Y018059D02*
X013233Y018059D01*
X013233Y018058D02*
X011737Y018058D01*
X011737Y018057D02*
X013233Y018057D01*
X013233Y018056D02*
X011737Y018056D01*
X011737Y018055D02*
X013233Y018055D01*
X013233Y018054D02*
X011737Y018054D01*
X011737Y018053D02*
X013233Y018053D01*
X013233Y018052D02*
X011737Y018052D01*
X011737Y018051D02*
X013233Y018051D01*
X013233Y018050D02*
X011737Y018050D01*
X011737Y018049D02*
X013233Y018049D01*
X013233Y018048D02*
X011737Y018048D01*
X011737Y018047D02*
X013233Y018047D01*
X013233Y018046D02*
X011737Y018046D01*
X011737Y018045D02*
X013233Y018045D01*
X013233Y018044D02*
X011737Y018044D01*
X011737Y018043D02*
X013233Y018043D01*
X013233Y018042D02*
X011737Y018042D01*
X011737Y018041D02*
X013233Y018041D01*
X013233Y018040D02*
X011737Y018040D01*
X011737Y018039D02*
X013233Y018039D01*
X013233Y018038D02*
X011737Y018038D01*
X011737Y018037D02*
X013233Y018037D01*
X013233Y018036D02*
X011737Y018036D01*
X011737Y018035D02*
X013233Y018035D01*
X013233Y018034D02*
X011737Y018034D01*
X011737Y018033D02*
X013233Y018033D01*
X013233Y018032D02*
X011737Y018032D01*
X011737Y018031D02*
X013233Y018031D01*
X013233Y018030D02*
X011737Y018030D01*
X011737Y018029D02*
X013233Y018029D01*
X013233Y018028D02*
X011737Y018028D01*
X011737Y018027D02*
X013233Y018027D01*
X013233Y018026D02*
X011737Y018026D01*
X011737Y018025D02*
X013233Y018025D01*
X013233Y018024D02*
X011737Y018024D01*
X011737Y018023D02*
X013233Y018023D01*
X013233Y018022D02*
X011737Y018022D01*
X011737Y018021D02*
X013233Y018021D01*
X013233Y018020D02*
X011737Y018020D01*
X011737Y018019D02*
X013233Y018019D01*
X013233Y018018D02*
X011737Y018018D01*
X011737Y018017D02*
X013233Y018017D01*
X013233Y018016D02*
X011737Y018016D01*
X011737Y018015D02*
X013233Y018015D01*
X013233Y018014D02*
X011737Y018014D01*
X011737Y018013D02*
X013233Y018013D01*
X013233Y018012D02*
X011737Y018012D01*
X011737Y018011D02*
X013233Y018011D01*
X013233Y018010D02*
X011737Y018010D01*
X011737Y018009D02*
X013233Y018009D01*
X013233Y018008D02*
X011737Y018008D01*
X011737Y018007D02*
X013233Y018007D01*
X013233Y018006D02*
X011737Y018006D01*
X011737Y018005D02*
X013233Y018005D01*
X013233Y018004D02*
X011737Y018004D01*
X011737Y018003D02*
X013233Y018003D01*
X013233Y018002D02*
X011737Y018002D01*
X011737Y018001D02*
X013233Y018001D01*
X013233Y018000D02*
X011737Y018000D01*
X011737Y017999D02*
X013233Y017999D01*
X013233Y017998D02*
X011737Y017998D01*
X011737Y017997D02*
X013233Y017997D01*
X013233Y017996D02*
X011737Y017996D01*
X011737Y017995D02*
X013233Y017995D01*
X013233Y017994D02*
X011737Y017994D01*
X011737Y017993D02*
X013233Y017993D01*
X013233Y017992D02*
X011737Y017992D01*
X011737Y017991D02*
X013233Y017991D01*
X013233Y017990D02*
X011737Y017990D01*
X011737Y017989D02*
X013233Y017989D01*
X013233Y017988D02*
X011737Y017988D01*
X011737Y017987D02*
X013233Y017987D01*
X013233Y017986D02*
X011737Y017986D01*
X011737Y017985D02*
X013233Y017985D01*
X013233Y017984D02*
X011737Y017984D01*
X011737Y017983D02*
X013233Y017983D01*
X013233Y017982D02*
X011737Y017982D01*
X011737Y017981D02*
X013233Y017981D01*
X013233Y017980D02*
X011737Y017980D01*
X011737Y017979D02*
X013233Y017979D01*
X013233Y017978D02*
X011737Y017978D01*
X011737Y017977D02*
X013233Y017977D01*
X013233Y017976D02*
X011737Y017976D01*
X011737Y017975D02*
X013233Y017975D01*
X013233Y017974D02*
X011737Y017974D01*
X011737Y017973D02*
X013233Y017973D01*
X013233Y017972D02*
X011737Y017972D01*
X011737Y017971D02*
X013233Y017971D01*
X013233Y017970D02*
X011737Y017970D01*
X011737Y017969D02*
X013233Y017969D01*
X013233Y017968D02*
X011737Y017968D01*
X011737Y017967D02*
X013233Y017967D01*
X013233Y017966D02*
X011737Y017966D01*
X011737Y017965D02*
X013233Y017965D01*
X013233Y017964D02*
X011737Y017964D01*
X011737Y017963D02*
X013233Y017963D01*
X013233Y017962D02*
X011737Y017962D01*
X011737Y017961D02*
X013233Y017961D01*
X013233Y017960D02*
X011737Y017960D01*
X011737Y017959D02*
X013233Y017959D01*
X013233Y017958D02*
X011737Y017958D01*
X011737Y017957D02*
X013233Y017957D01*
X013233Y017956D02*
X011737Y017956D01*
X011737Y017955D02*
X013233Y017955D01*
X013233Y017954D02*
X011737Y017954D01*
X011737Y017953D02*
X013233Y017953D01*
X013233Y017952D02*
X011737Y017952D01*
X011737Y017951D02*
X013233Y017951D01*
X013233Y017950D02*
X011737Y017950D01*
X011737Y017949D02*
X013233Y017949D01*
X013233Y017948D02*
X011737Y017948D01*
X011737Y017947D02*
X013233Y017947D01*
X013233Y017946D02*
X011737Y017946D01*
D27*
X014032Y015475D03*
X014032Y014727D03*
D28*
X025954Y022951D03*
X025954Y023551D03*
D29*
X000553Y023131D03*
X000553Y022895D03*
X000553Y022659D03*
X000553Y022423D03*
X000553Y022187D03*
X000553Y021950D03*
X000553Y021714D03*
X000553Y021478D03*
X000553Y021242D03*
X000553Y021006D03*
X000553Y020769D03*
X000553Y020533D03*
X000553Y020297D03*
X000553Y020061D03*
X000553Y019824D03*
X000553Y019588D03*
X000553Y019352D03*
X000553Y019116D03*
X000553Y018880D03*
X000553Y018643D03*
X000553Y018407D03*
X000553Y018171D03*
X000553Y017935D03*
X000553Y017698D03*
X000553Y017462D03*
X000553Y017226D03*
D30*
X001760Y017344D03*
X001760Y017580D03*
X001760Y017817D03*
X001760Y018053D03*
X001760Y018289D03*
X001760Y018525D03*
X001760Y018761D03*
X001760Y018998D03*
X001760Y019234D03*
X001760Y019470D03*
X001760Y019706D03*
X001760Y019943D03*
X001760Y020179D03*
X001760Y020415D03*
X001760Y020651D03*
X001760Y020887D03*
X001760Y021124D03*
X001760Y021360D03*
X001760Y021596D03*
X001760Y021832D03*
X001760Y022069D03*
X001760Y022305D03*
X001760Y022541D03*
X001760Y022777D03*
X001760Y023013D03*
D31*
X000657Y023515D03*
X000657Y016842D03*
D32*
X018293Y018928D02*
X019238Y018928D01*
X019317Y008507D02*
X018372Y008507D01*
D33*
X006208Y013004D03*
X005106Y013004D03*
X005096Y014548D03*
X006198Y014548D03*
D34*
X007093Y014679D03*
X007483Y015828D03*
X007897Y016159D03*
X007698Y016970D03*
X007201Y016745D03*
X007376Y017493D03*
X007443Y017904D03*
X006439Y017963D03*
X006160Y018527D03*
X005270Y018233D03*
X004808Y019487D03*
X004680Y020018D03*
X004716Y020802D03*
X004574Y021473D03*
X005006Y021470D03*
X005385Y021620D03*
X006274Y021105D03*
X005892Y022933D03*
X005962Y023720D03*
X006893Y023572D03*
X007453Y023952D03*
X007998Y023562D03*
X008434Y023819D03*
X007848Y022739D03*
X007206Y022789D03*
X008477Y022099D03*
X009382Y021824D03*
X009836Y021819D03*
X010441Y021824D03*
X011026Y021647D03*
X011370Y022109D03*
X010940Y022750D03*
X011246Y022994D03*
X011833Y024166D03*
X012932Y024332D03*
X012943Y023810D03*
X014277Y023207D03*
X014488Y023756D03*
X014809Y023167D03*
X012413Y020256D03*
X010866Y020179D03*
X010875Y020715D03*
X010851Y019431D03*
X010949Y018367D03*
X010771Y018008D03*
X009966Y018188D03*
X009134Y018545D03*
X008270Y018569D03*
X007777Y019646D03*
X008542Y020385D03*
X009721Y022756D03*
X009434Y023075D03*
X010103Y023781D03*
X014298Y019776D03*
X014174Y019005D03*
X015443Y018554D03*
X014254Y017581D03*
X014455Y016947D03*
X015922Y015042D03*
X016367Y015616D03*
X017275Y016028D03*
X017960Y015959D03*
X018433Y015933D03*
X018363Y014923D03*
X018965Y014393D03*
X018384Y014064D03*
X017583Y015159D03*
X017961Y016720D03*
X018423Y017094D03*
X018258Y017581D03*
X017270Y017143D03*
X016858Y016822D03*
X014697Y014734D03*
X016837Y011632D03*
X017413Y011543D03*
X018058Y011518D03*
X017689Y012280D03*
X019194Y012428D03*
X019866Y011451D03*
X020474Y012041D03*
X020838Y011658D03*
X021265Y011550D03*
X022076Y012008D03*
X022635Y012399D03*
X023063Y012372D03*
X022885Y011509D03*
X022458Y011065D03*
X023380Y010444D03*
X023934Y010937D03*
X024802Y010797D03*
X025018Y011365D03*
X023973Y012438D03*
X023952Y013700D03*
X023806Y014092D03*
X023959Y014607D03*
X023954Y015103D03*
X022716Y014258D03*
X022705Y016122D03*
X023893Y016814D03*
X025269Y017497D03*
X026498Y017596D03*
X026456Y016830D03*
X027848Y016932D03*
X027781Y018289D03*
X027474Y019276D03*
X026487Y019178D03*
X026554Y019660D03*
X026085Y019467D03*
X025650Y019189D03*
X025292Y019608D03*
X025263Y020087D03*
X025228Y021671D03*
X025217Y022716D03*
X022873Y021140D03*
X022428Y021908D03*
X022260Y022531D03*
X022042Y020944D03*
X021620Y020719D03*
X021323Y020426D03*
X020925Y020197D03*
X020838Y019793D03*
X021909Y019149D03*
X022454Y019085D03*
X022190Y018176D03*
X021141Y018393D03*
X020593Y016781D03*
X020193Y015492D03*
X020251Y014881D03*
X020703Y014554D03*
X020665Y014053D03*
X020456Y012851D03*
X020422Y012455D03*
X020037Y010285D03*
X019490Y009417D03*
X020679Y009272D03*
X020385Y008605D03*
X020357Y006819D03*
X019884Y006821D03*
X019353Y006817D03*
X020141Y005703D03*
X020011Y005174D03*
X021124Y005001D03*
X021388Y004622D03*
X021932Y004614D03*
X022354Y005019D03*
X022374Y006801D03*
X022850Y006793D03*
X023356Y006811D03*
X022400Y007604D03*
X022400Y008511D03*
X022372Y008945D03*
X022214Y009647D03*
X023052Y009503D03*
X021863Y006813D03*
X021357Y006809D03*
X020862Y006801D03*
X017923Y006833D03*
X017428Y006850D03*
X016903Y006845D03*
X017421Y007587D03*
X015945Y006894D03*
X015435Y006865D03*
X014921Y006853D03*
X014431Y006846D03*
X013941Y006858D03*
X013396Y005881D03*
X014253Y005433D03*
X014907Y004888D03*
X014424Y004489D03*
X015431Y004641D03*
X016098Y005767D03*
X016589Y004966D03*
X016961Y004635D03*
X018707Y003212D03*
X019800Y002701D03*
X020904Y003194D03*
X021863Y003269D03*
X022844Y003245D03*
X025857Y004585D03*
X026286Y004745D03*
X026306Y005082D03*
X026137Y005831D03*
X027308Y004669D03*
X026306Y003755D03*
X027543Y002889D03*
X027644Y007453D03*
X026480Y008435D03*
X026482Y009026D03*
X026049Y009346D03*
X025672Y009001D03*
X025308Y009687D03*
X026057Y010103D03*
X026526Y010351D03*
X026448Y010961D03*
X026500Y013266D03*
X023109Y019732D03*
X022804Y020251D03*
X020922Y022128D03*
X020892Y022938D03*
X022358Y025267D03*
X026250Y025626D03*
X027498Y025629D03*
X018412Y021518D03*
X018485Y020869D03*
X018254Y022283D03*
X018049Y022682D03*
X018141Y023448D03*
X010798Y015013D03*
X010943Y014542D03*
X010250Y013289D03*
X008307Y012274D03*
X007802Y012258D03*
X007410Y012234D03*
X006831Y012624D03*
X007418Y013383D03*
X007766Y013079D03*
X008475Y010865D03*
X007374Y010143D03*
X005967Y010725D03*
X004462Y011743D03*
X004312Y012695D03*
X004324Y013159D03*
X006412Y015794D03*
X006418Y016463D03*
X005702Y016994D03*
X005361Y016698D03*
X003473Y018185D03*
X002883Y018406D03*
X002169Y019630D03*
X001405Y019138D03*
X000950Y019239D03*
X000947Y020359D03*
X001305Y021103D03*
X001391Y022179D03*
X002134Y022442D03*
X002708Y023279D03*
X003066Y022987D03*
X002611Y021463D03*
X004122Y021481D03*
X004584Y022736D03*
X000987Y018055D03*
X002905Y016954D03*
X001363Y013697D03*
X008365Y015443D03*
X008617Y016766D03*
X009154Y017475D03*
X009639Y016093D03*
X010012Y016216D03*
X010608Y016866D03*
X014941Y009313D03*
X016729Y009554D03*
D35*
X010024Y002547D02*
X005302Y007269D01*
X005302Y010903D01*
X004462Y011743D01*
X004445Y012695D02*
X004312Y012695D01*
X004445Y012695D02*
X004589Y012840D01*
X004589Y015846D01*
X005361Y016618D01*
X005361Y016698D01*
X005702Y016994D02*
X005886Y016994D01*
X006418Y016463D01*
X006329Y016191D02*
X005932Y015794D01*
X005325Y015794D01*
X005325Y014778D01*
X005096Y014548D01*
X005092Y013780D02*
X005089Y013021D01*
X005106Y013004D01*
X004324Y013159D02*
X004324Y015349D01*
X004341Y015366D01*
X004341Y014013D01*
X004335Y013986D01*
X003917Y013993D02*
X003917Y015366D01*
X003850Y015209D01*
X003178Y015993D02*
X003187Y016002D01*
X002763Y016002D02*
X002754Y016011D01*
X002754Y014599D01*
X002756Y014596D01*
X002756Y014029D01*
X002770Y014015D01*
X002770Y013943D01*
X002919Y013794D01*
X003676Y013794D01*
X003676Y013796D01*
X003865Y013986D01*
X003911Y013986D01*
X003917Y013993D01*
X002754Y014080D02*
X002754Y014599D01*
X002754Y014080D02*
X002414Y013741D01*
X001765Y013741D01*
X001677Y013697D01*
X001363Y013697D01*
X001683Y013822D02*
X001765Y013741D01*
X001683Y013822D02*
X001683Y014639D01*
X001628Y014584D01*
X001628Y015990D01*
X001641Y016003D01*
X001641Y016694D01*
X001760Y016812D01*
X001760Y017344D01*
X001760Y017580D01*
X001760Y017817D01*
X001760Y018053D01*
X001760Y018289D01*
X001760Y018525D01*
X001760Y018761D01*
X001762Y018759D01*
X001405Y019138D02*
X001405Y019542D01*
X001556Y019692D01*
X001746Y019692D01*
X001760Y019706D01*
X001760Y019943D02*
X001757Y019945D01*
X001469Y019945D01*
X001305Y020109D01*
X001305Y021103D01*
X000947Y020359D02*
X000947Y020061D01*
X000711Y019826D01*
X000554Y019826D01*
X000553Y019824D01*
X000553Y019588D02*
X001019Y019588D01*
X001374Y019943D01*
X001759Y019943D01*
X001760Y019943D01*
X002169Y019630D02*
X002169Y021843D01*
X002467Y022141D01*
X002467Y022418D01*
X002722Y022673D01*
X004099Y022673D01*
X004780Y021993D01*
X005128Y021993D01*
X005132Y021988D01*
X005633Y021988D01*
X005820Y021801D01*
X005820Y021574D01*
X005636Y021390D01*
X005636Y021156D01*
X005783Y021009D01*
X006007Y021009D01*
X006504Y020512D01*
X006504Y020251D01*
X006784Y019971D01*
X006784Y019581D01*
X007134Y019231D01*
X008239Y019231D01*
X008504Y018967D01*
X008504Y017407D01*
X008363Y017267D01*
X008363Y016650D01*
X010068Y014945D01*
X010068Y014941D01*
X010544Y014941D01*
X010943Y014542D01*
X011331Y013877D02*
X011146Y013693D01*
X011146Y009797D01*
X011732Y009271D02*
X011183Y008723D01*
X011183Y006279D01*
X011725Y005737D01*
X011725Y004115D01*
X012032Y003807D01*
X020477Y003807D01*
X020761Y004092D01*
X026349Y004092D01*
X026864Y004607D01*
X026864Y006027D01*
X027390Y006553D01*
X027689Y006553D01*
X028172Y007035D01*
X028172Y007841D01*
X027922Y008091D01*
X027303Y008091D01*
X027301Y008093D01*
X026968Y008093D01*
X026857Y007982D01*
X026232Y007982D01*
X026049Y008165D01*
X026049Y009346D01*
X026374Y009691D02*
X026894Y010212D01*
X026894Y011085D01*
X026701Y011279D01*
X026701Y012903D01*
X026856Y013059D01*
X026856Y013307D01*
X026851Y013313D01*
X026851Y013434D01*
X026609Y013676D01*
X026609Y016499D01*
X026812Y016702D01*
X026812Y019852D01*
X026577Y020087D01*
X025263Y020087D01*
X025416Y019732D02*
X026490Y019732D01*
X026554Y019668D01*
X026554Y019660D01*
X026476Y019189D02*
X025650Y019189D01*
X025292Y019608D02*
X025416Y019732D01*
X026476Y019189D02*
X026487Y019178D01*
X027474Y019276D02*
X027474Y016706D01*
X027038Y016269D01*
X027038Y013953D01*
X027307Y013683D01*
X027307Y012816D01*
X027121Y012630D01*
X027121Y011503D01*
X027399Y011225D01*
X027399Y009354D01*
X026480Y008435D01*
X026482Y009026D02*
X027144Y009687D01*
X027144Y011098D01*
X026899Y011343D01*
X026899Y011391D01*
X026897Y011393D01*
X026897Y012769D01*
X027061Y012933D01*
X027061Y013519D01*
X026810Y013770D01*
X026810Y016399D01*
X027124Y016713D01*
X027124Y020417D01*
X025869Y021671D01*
X025228Y021671D01*
X025217Y022716D02*
X024845Y023088D01*
X023269Y023088D01*
X022370Y022189D01*
X022159Y022189D01*
X019707Y019737D01*
X019202Y019749D01*
X019621Y020159D02*
X020825Y021363D01*
X021039Y021363D01*
X021620Y021944D01*
X021620Y022220D01*
X021608Y022232D01*
X021608Y022750D01*
X021165Y023193D01*
X021165Y023894D01*
X021580Y024309D01*
X025159Y024309D01*
X025528Y024679D01*
X025528Y024930D01*
X026250Y025626D01*
X027266Y025625D02*
X027498Y025629D01*
X027266Y025625D02*
X025977Y024361D01*
X025977Y023667D01*
X025954Y023644D01*
X025954Y023551D01*
X025954Y023644D02*
X026714Y023644D01*
X026811Y023548D01*
X026811Y022520D01*
X026423Y022132D01*
X023114Y022132D01*
X022374Y021393D01*
X022374Y020456D01*
X022365Y020446D01*
X022370Y020441D01*
X022370Y020205D01*
X022769Y019807D01*
X022769Y019617D01*
X023312Y019074D01*
X023312Y018439D01*
X023144Y018271D01*
X022832Y018271D01*
X022148Y017587D01*
X021156Y017587D01*
X018258Y017581D01*
X018423Y017094D02*
X018423Y015944D01*
X018433Y015933D01*
X018675Y015699D02*
X019413Y016437D01*
X022724Y016437D01*
X023756Y017470D01*
X023756Y019281D01*
X023306Y019732D01*
X023109Y019732D01*
X022804Y020251D02*
X022873Y020320D01*
X022873Y021140D01*
X022428Y021908D02*
X022261Y021908D01*
X020246Y019893D01*
X020246Y019784D01*
X020241Y019779D01*
X020241Y019007D01*
X019395Y018161D01*
X018026Y018161D01*
X017726Y017861D01*
X017726Y016926D01*
X017622Y016822D01*
X016858Y016822D01*
X017270Y017143D02*
X017383Y017255D01*
X017383Y017624D01*
X017293Y017714D01*
X016492Y017714D01*
X015866Y018339D01*
X015866Y019317D01*
X015881Y019788D02*
X015457Y019788D01*
X015116Y019447D01*
X015116Y018948D01*
X015124Y018940D01*
X015119Y018934D01*
X015119Y018411D01*
X015614Y017916D01*
X015614Y017425D01*
X015301Y017113D01*
X015301Y014385D01*
X014990Y014074D01*
X014990Y013933D01*
X014784Y013728D01*
X014761Y014265D02*
X014120Y014265D01*
X014032Y014353D01*
X014032Y014727D01*
X014037Y014733D01*
X014032Y015475D02*
X013827Y015680D01*
X012659Y015680D01*
X011727Y016191D02*
X011727Y014746D01*
X011732Y014741D01*
X011732Y009271D01*
X012659Y009524D02*
X012659Y008997D01*
X012659Y009524D02*
X012673Y009539D01*
X012673Y010385D01*
X012789Y010501D01*
X012998Y010501D01*
X013519Y011022D01*
X013519Y011800D01*
X013305Y012013D01*
X013305Y012798D01*
X013988Y013481D01*
X014036Y013481D01*
X014036Y013728D01*
X014050Y013005D02*
X013807Y012762D01*
X013807Y008011D01*
X013628Y007831D01*
X012094Y007831D01*
X011623Y007359D01*
X011591Y007359D01*
X010651Y006370D02*
X011424Y005597D01*
X011424Y003643D01*
X011895Y003172D01*
X018667Y003172D01*
X018707Y003212D01*
X018943Y002937D02*
X011576Y002937D01*
X011100Y003413D01*
X011100Y004622D01*
X010046Y005676D01*
X010046Y007843D01*
X009639Y008250D01*
X010435Y008640D02*
X010435Y010395D01*
X009945Y010885D01*
X009945Y012984D01*
X010250Y013289D01*
X011331Y013877D02*
X011331Y015671D01*
X009883Y017119D01*
X009883Y017836D01*
X009567Y018152D01*
X009567Y018492D01*
X009635Y018560D01*
X009635Y021478D01*
X009382Y021731D01*
X009382Y021824D01*
X009100Y021497D02*
X009187Y021410D01*
X009187Y021404D01*
X009394Y021198D01*
X009394Y018632D01*
X009385Y018623D01*
X009385Y018031D01*
X009639Y017776D01*
X009639Y017557D01*
X009633Y017552D01*
X009633Y017062D01*
X010794Y015901D01*
X010794Y015813D01*
X010798Y015809D01*
X010798Y015013D01*
X010066Y015534D02*
X010325Y015794D01*
X010066Y015534D02*
X009775Y015534D01*
X008871Y016438D01*
X008871Y022834D01*
X008414Y023291D01*
X002720Y023291D01*
X002708Y023279D01*
X003066Y022987D02*
X003099Y023020D01*
X005200Y023020D01*
X005286Y022933D01*
X005892Y022933D01*
X006589Y022933D01*
X006789Y022733D01*
X006789Y022370D01*
X006945Y022214D01*
X006945Y021746D01*
X006702Y021504D01*
X006702Y021002D01*
X006934Y020770D01*
X006934Y020511D01*
X007174Y020271D01*
X007174Y019921D01*
X007450Y019646D01*
X007777Y019646D01*
X007374Y019411D02*
X008363Y019411D01*
X008688Y019087D01*
X008688Y017239D01*
X008617Y017168D01*
X008617Y016766D01*
X009117Y016506D02*
X009117Y017439D01*
X009154Y017475D01*
X009428Y017612D02*
X009167Y017872D01*
X009167Y018299D01*
X009144Y018322D01*
X009144Y018388D01*
X009134Y018545D01*
X009933Y018221D02*
X009933Y019766D01*
X009836Y019863D01*
X009836Y021819D01*
X010441Y021824D02*
X010432Y021457D01*
X010432Y020497D01*
X010646Y020187D01*
X010866Y020179D01*
X010875Y020715D02*
X010750Y020839D01*
X010750Y021988D01*
X010704Y022035D01*
X010704Y022990D01*
X010103Y023591D01*
X010103Y023781D01*
X010300Y024036D02*
X009340Y024036D01*
X009101Y023797D01*
X009101Y023196D01*
X009101Y023196D01*
X009101Y022967D01*
X009100Y022966D01*
X009100Y021497D01*
X008477Y022099D02*
X008470Y020457D01*
X008542Y020385D01*
X007210Y020701D02*
X007206Y020705D01*
X007206Y022789D01*
X007827Y022719D02*
X007848Y022739D01*
X007998Y023562D02*
X007988Y023572D01*
X006893Y023572D01*
X007453Y023952D02*
X008301Y023952D01*
X008434Y023819D01*
X009434Y023075D02*
X010007Y023075D01*
X010443Y022639D01*
X010443Y021826D01*
X010441Y021824D01*
X011026Y021647D02*
X011014Y021492D01*
X011166Y021356D01*
X011172Y020883D01*
X011172Y020882D01*
X011172Y019369D01*
X010950Y019146D01*
X010950Y018572D01*
X010949Y018367D01*
X010771Y018008D02*
X010784Y017994D01*
X010784Y017504D01*
X010899Y017388D01*
X010899Y017019D01*
X011727Y016191D01*
X011835Y016534D02*
X011841Y016540D01*
X013555Y016540D01*
X013963Y016947D01*
X014455Y016947D01*
X014709Y017369D02*
X014709Y015150D01*
X014697Y015139D01*
X014697Y014734D01*
X015026Y014529D02*
X014761Y014265D01*
X015026Y014529D02*
X015026Y015134D01*
X015027Y015135D01*
X015027Y017149D01*
X015410Y017532D01*
X015410Y017793D01*
X014919Y018283D01*
X014919Y019813D01*
X015265Y020159D01*
X013087Y020159D01*
X012999Y020159D01*
X012538Y020511D01*
X011905Y020511D01*
X011741Y020344D01*
X011745Y019917D01*
X011737Y019909D01*
X011737Y019554D01*
X011733Y019550D01*
X012219Y019564D02*
X012219Y020015D01*
X012403Y020199D01*
X012413Y020256D01*
X012550Y020692D02*
X012673Y020815D01*
X012748Y020815D01*
X013126Y020437D01*
X019501Y020437D01*
X020643Y021579D01*
X020939Y021579D01*
X021268Y021908D01*
X021268Y022439D01*
X020892Y022815D01*
X020892Y022938D01*
X020922Y022128D02*
X020580Y022128D01*
X020573Y022135D01*
X019751Y022135D01*
X018485Y020869D01*
X018522Y021206D02*
X015744Y021206D01*
X015571Y021033D01*
X015212Y021793D02*
X015212Y022439D01*
X014796Y022855D01*
X014433Y022855D01*
X014277Y023011D01*
X014277Y023207D01*
X014083Y023756D02*
X014488Y023756D01*
X014809Y023167D02*
X015294Y022682D01*
X018049Y022682D01*
X018313Y023017D02*
X018445Y022900D01*
X018450Y022897D01*
X018737Y022633D01*
X018737Y021844D01*
X018412Y021518D01*
X018522Y021206D02*
X019007Y021691D01*
X019007Y021781D01*
X019416Y022190D01*
X019416Y022273D01*
X019143Y022722D02*
X018942Y022733D01*
X018370Y023305D01*
X018284Y023305D01*
X018141Y023448D01*
X018313Y023017D02*
X015817Y023017D01*
X015363Y023506D01*
X015363Y023880D01*
X015129Y024115D01*
X013245Y024123D01*
X013035Y023905D01*
X012943Y023810D01*
X012737Y023568D02*
X012284Y024021D01*
X012284Y024341D01*
X012287Y024341D01*
X012533Y024588D01*
X011537Y024588D01*
X011181Y024232D01*
X011181Y023711D01*
X011489Y023404D01*
X011601Y023404D01*
X011746Y023260D01*
X011745Y023259D01*
X012220Y023284D02*
X012220Y023680D01*
X011833Y024067D01*
X011833Y024166D01*
X012533Y024588D02*
X012882Y024588D01*
X012883Y024587D01*
X019371Y024587D01*
X019442Y024658D01*
X019442Y025119D01*
X019589Y025267D01*
X022358Y025267D01*
X022159Y024062D02*
X022158Y024061D01*
X021944Y024061D01*
X021810Y023927D01*
X021810Y023620D01*
X021767Y023577D01*
X021759Y023577D01*
X021716Y023620D01*
X021716Y023323D01*
X022253Y022786D01*
X022253Y022538D01*
X022260Y022531D01*
X022410Y023620D02*
X022504Y023620D01*
X022515Y023631D01*
X023039Y023631D01*
X022159Y024062D02*
X025111Y024062D01*
X025354Y023820D01*
X025354Y023124D01*
X025620Y022857D01*
X025954Y022857D01*
X025954Y022951D01*
X022454Y019085D02*
X022454Y019051D01*
X022190Y018787D01*
X021671Y018787D01*
X021609Y018849D01*
X021609Y020707D01*
X021620Y020719D01*
X021323Y020426D02*
X021380Y020369D01*
X021380Y018602D01*
X021806Y018176D01*
X022190Y018176D01*
X021909Y019149D02*
X021909Y019316D01*
X022065Y019472D01*
X022065Y020921D01*
X022042Y020944D01*
X021152Y020007D02*
X020962Y020197D01*
X020925Y020197D01*
X021152Y020007D02*
X021152Y018404D01*
X021141Y018393D01*
X019621Y020159D02*
X015265Y020159D01*
X015881Y019788D02*
X015882Y019789D01*
X018739Y019789D01*
X018254Y022283D02*
X015938Y022289D01*
X015886Y022277D01*
X015879Y022207D01*
X015212Y021793D02*
X014780Y021361D01*
X014290Y021361D01*
X013487Y022654D02*
X013679Y022846D01*
X013679Y023352D01*
X014083Y023756D01*
X013487Y022654D02*
X012931Y022654D01*
X012481Y022204D01*
X012245Y021968D01*
X012245Y021133D01*
X011749Y021141D02*
X011749Y020798D01*
X011856Y020692D01*
X012550Y020692D01*
X012748Y020815D02*
X012748Y021130D01*
X012745Y021133D01*
X011749Y021141D02*
X011745Y021145D01*
X011386Y021757D02*
X011386Y019119D01*
X011217Y018949D01*
X011217Y017152D01*
X011835Y016534D01*
X011911Y016866D02*
X012469Y016866D01*
X012472Y016863D01*
X013031Y016863D01*
X013579Y016863D01*
X013669Y016953D01*
X013669Y017053D01*
X014254Y017581D01*
X014604Y017474D02*
X014709Y017369D01*
X014604Y017474D02*
X014604Y019470D01*
X014298Y019776D01*
X014174Y019005D02*
X014087Y019005D01*
X013790Y018707D01*
X012682Y018707D01*
X012469Y018494D01*
X012233Y018258D01*
X012233Y017424D01*
X011751Y017418D02*
X011751Y017026D01*
X011911Y016866D01*
X011751Y017418D02*
X011733Y017435D01*
X012733Y017424D02*
X012733Y017131D01*
X012742Y017151D02*
X013031Y016863D01*
X012742Y017151D02*
X012742Y017415D01*
X012733Y017424D01*
X012733Y019550D02*
X012733Y019805D01*
X013087Y020159D01*
X012233Y019550D02*
X012219Y019564D01*
X010851Y019431D02*
X010424Y019435D01*
X010265Y019289D01*
X010260Y017419D01*
X010260Y017203D01*
X010597Y016866D01*
X010608Y016866D01*
X010012Y016216D02*
X009925Y016216D01*
X009428Y016713D01*
X009428Y017612D01*
X009966Y018188D02*
X009933Y018221D01*
X009117Y016506D02*
X009530Y016093D01*
X009639Y016093D01*
X008365Y015443D02*
X007766Y014844D01*
X007766Y013079D01*
X007418Y013383D02*
X007418Y015763D01*
X007483Y015828D01*
X007268Y016159D02*
X007897Y016159D01*
X007268Y016159D02*
X006876Y016551D01*
X006751Y016551D01*
X005909Y017393D01*
X005909Y018870D01*
X005304Y019475D01*
X005161Y019475D01*
X005157Y019480D01*
X004816Y019480D01*
X004808Y019487D01*
X004680Y019802D02*
X004680Y020018D01*
X004680Y019802D02*
X002496Y017618D01*
X002496Y017363D01*
X002905Y016954D01*
X002170Y016789D02*
X002170Y018181D01*
X002409Y018420D01*
X002409Y018767D01*
X002611Y018969D01*
X002611Y021463D01*
X001874Y022069D02*
X002126Y022320D01*
X002126Y022426D01*
X002134Y022433D01*
X002134Y022442D01*
X001874Y022069D02*
X001760Y022069D01*
X001760Y022305D01*
X001760Y022541D01*
X001760Y022777D01*
X001760Y023013D01*
X001391Y022179D02*
X000561Y022179D01*
X000553Y022187D01*
X000553Y022423D01*
X000806Y022656D02*
X000809Y022653D01*
X000950Y019239D02*
X000950Y018774D01*
X000829Y018653D01*
X000563Y018653D01*
X000553Y018643D01*
X000553Y018407D01*
X000553Y018171D02*
X000674Y018050D01*
X000987Y018055D01*
X000553Y018171D02*
X000553Y017935D01*
X000577Y017486D02*
X000553Y017462D01*
X000782Y015997D02*
X000785Y015994D01*
X001206Y015997D02*
X001214Y015990D01*
X001628Y015990D01*
X002052Y015990D02*
X002067Y016005D01*
X002067Y016686D01*
X002170Y016789D01*
X002052Y015990D02*
X002052Y014583D01*
X002050Y014583D01*
X001683Y014639D02*
X001683Y014923D01*
X001628Y014584D02*
X001626Y014583D01*
X001218Y014583D01*
X001209Y014573D01*
X000799Y014477D02*
X000744Y014532D01*
X000785Y014573D01*
X000906Y013351D02*
X000799Y013216D01*
X002754Y016011D02*
X002742Y016023D01*
X003473Y018185D02*
X003530Y018241D01*
X005270Y018233D01*
X006160Y018527D02*
X006160Y017761D01*
X006269Y017651D01*
X006278Y017651D01*
X007184Y016745D01*
X007201Y016745D01*
X007294Y017081D02*
X006439Y017937D01*
X006439Y017963D01*
X006611Y018156D02*
X007274Y017493D01*
X007376Y017493D01*
X007330Y017904D02*
X006844Y018389D01*
X006844Y018531D01*
X005284Y020091D01*
X005284Y020631D01*
X004574Y021342D01*
X004574Y021473D01*
X004574Y021350D01*
X004589Y021334D01*
X004599Y021334D01*
X005004Y021259D02*
X005881Y020382D01*
X005881Y019952D01*
X006244Y019589D01*
X006244Y019501D01*
X007044Y018701D01*
X007044Y018471D01*
X007244Y018271D01*
X007844Y018271D01*
X008204Y017911D01*
X008204Y017669D01*
X008219Y017654D01*
X007698Y016970D02*
X007598Y016970D01*
X007482Y017087D01*
X007477Y017081D01*
X007294Y017081D01*
X007330Y017904D02*
X007443Y017904D01*
X006611Y018156D02*
X006611Y018448D01*
X005040Y020019D01*
X005040Y020243D01*
X004716Y020568D01*
X004716Y020802D01*
X004723Y020810D01*
X004723Y020903D01*
X005004Y021259D02*
X005004Y021468D01*
X005006Y021470D01*
X005372Y021607D02*
X005372Y021156D01*
X006244Y020284D01*
X006244Y020061D01*
X006564Y019741D01*
X006564Y019501D01*
X007014Y019051D01*
X008024Y019051D01*
X008278Y018798D01*
X008278Y018783D01*
X008270Y018569D01*
X007374Y019411D02*
X006994Y019791D01*
X006994Y020111D01*
X006724Y020381D01*
X006724Y020644D01*
X006274Y021094D01*
X006274Y021105D01*
X005385Y021620D02*
X005372Y021607D01*
X005207Y022294D02*
X005026Y022294D01*
X004584Y022736D01*
X004122Y021481D02*
X004127Y021476D01*
X004127Y019980D01*
X002977Y018831D01*
X002977Y018500D01*
X002883Y018406D01*
X006198Y015581D02*
X006198Y014548D01*
X006211Y014561D01*
X006198Y014548D02*
X006208Y014538D01*
X006208Y013004D01*
X006590Y012622D01*
X006831Y012624D01*
X007374Y012199D02*
X007374Y010143D01*
X007926Y009005D02*
X009772Y007158D01*
X009772Y005225D01*
X009957Y005040D01*
X010419Y005040D01*
X010876Y004583D01*
X010876Y003336D01*
X011530Y002682D01*
X019215Y002682D01*
X019525Y002992D01*
X019993Y002992D01*
X020076Y002908D01*
X021502Y002908D01*
X021863Y003269D01*
X022300Y002701D02*
X019800Y002701D01*
X019231Y003226D02*
X018943Y002937D01*
X019231Y003226D02*
X020872Y003226D01*
X020904Y003194D01*
X020348Y004002D02*
X014219Y004002D01*
X013828Y004393D01*
X013828Y005509D01*
X014128Y005809D01*
X014676Y005809D01*
X014678Y005807D01*
X015585Y005807D01*
X015945Y006167D01*
X015945Y006894D01*
X015435Y006865D02*
X015435Y009565D01*
X017413Y011543D01*
X017743Y011300D02*
X017743Y011840D01*
X017689Y011895D01*
X017689Y012280D01*
X018358Y012736D02*
X018358Y013573D01*
X018716Y013931D01*
X019045Y013931D01*
X019351Y014237D01*
X019351Y015472D01*
X019737Y015857D01*
X021753Y015857D01*
X022846Y014763D01*
X023357Y014763D02*
X023466Y014774D01*
X023959Y014607D01*
X023954Y015103D02*
X023772Y015103D01*
X023502Y015423D01*
X023893Y015916D02*
X023893Y016814D01*
X023822Y015989D02*
X023893Y015916D01*
X023310Y015989D02*
X023177Y016122D01*
X022705Y016122D01*
X022107Y016163D02*
X022990Y015423D01*
X022224Y014619D02*
X021460Y015492D01*
X020193Y015492D01*
X020251Y014881D02*
X019926Y014881D01*
X019756Y014710D01*
X019756Y013607D01*
X019981Y013382D01*
X020869Y013382D01*
X020872Y013380D01*
X022324Y013380D01*
X022336Y013368D01*
X022336Y012856D02*
X022336Y012147D01*
X022365Y012147D01*
X022565Y011947D01*
X023086Y011947D01*
X023213Y011820D01*
X023213Y011190D01*
X022742Y010719D01*
X022742Y008419D01*
X022181Y007857D01*
X021935Y007857D01*
X021377Y007300D01*
X021377Y006828D01*
X021357Y006809D01*
X021863Y006813D02*
X021863Y007067D01*
X022400Y007604D01*
X022400Y008511D02*
X022310Y008511D01*
X022285Y008537D01*
X022368Y008537D01*
X022400Y008511D02*
X022263Y008511D01*
X020982Y009791D01*
X019828Y009791D01*
X019193Y010426D01*
X019193Y011628D01*
X019190Y011631D01*
X019190Y011904D01*
X018358Y012736D01*
X019194Y012428D02*
X019215Y012448D01*
X020422Y012455D01*
X020456Y012851D02*
X020706Y012851D01*
X021594Y011963D01*
X021594Y010267D01*
X022214Y009647D01*
X022488Y010056D02*
X022488Y009176D01*
X022372Y009060D01*
X022372Y008945D01*
X023023Y009532D02*
X023023Y010646D01*
X023317Y010941D01*
X023934Y010937D01*
X024321Y011081D02*
X023888Y011513D01*
X023574Y011513D01*
X023652Y011436D01*
X023574Y012025D02*
X023591Y012043D01*
X023955Y012043D01*
X024633Y011365D01*
X025018Y011365D01*
X024802Y010797D02*
X024831Y010768D01*
X024831Y009493D01*
X025323Y009001D01*
X025672Y009001D01*
X025308Y009687D02*
X025312Y009691D01*
X026374Y009691D01*
X026057Y010103D02*
X025506Y010655D01*
X025506Y012239D01*
X025312Y012433D01*
X023973Y012438D01*
X023388Y012469D02*
X023388Y012913D01*
X023382Y012919D01*
X023388Y012469D02*
X023264Y012345D01*
X023119Y012345D01*
X023093Y012372D01*
X023063Y012372D01*
X022635Y012399D02*
X022635Y012532D01*
X023006Y012903D01*
X022876Y012921D01*
X022876Y013433D02*
X023024Y013469D01*
X022733Y013760D01*
X021439Y013760D01*
X021338Y013659D01*
X020242Y013659D01*
X020088Y013813D01*
X020088Y014246D01*
X020396Y014554D01*
X020703Y014554D01*
X020665Y014053D02*
X020886Y014053D01*
X020944Y014111D01*
X022318Y014111D01*
X022224Y014107D01*
X022716Y014258D02*
X023341Y013708D01*
X023382Y013430D01*
X023952Y013700D02*
X023987Y013734D01*
X025528Y013734D01*
X025777Y013485D01*
X025777Y012220D01*
X026039Y011958D01*
X026039Y010634D01*
X026322Y010351D01*
X026526Y010351D01*
X026448Y010961D02*
X026448Y012051D01*
X026072Y012428D01*
X026072Y013769D01*
X025788Y014053D01*
X023844Y014053D01*
X023806Y014092D01*
X022107Y016163D02*
X019581Y016163D01*
X018965Y015548D01*
X018965Y014393D01*
X018682Y014674D02*
X018398Y014390D01*
X017809Y014390D01*
X017696Y014503D01*
X017480Y014503D01*
X016367Y015616D01*
X015922Y016143D02*
X015922Y015042D01*
X015915Y015048D01*
X015915Y015060D01*
X016116Y014128D02*
X018320Y014128D01*
X018384Y014064D01*
X018682Y014674D02*
X018682Y015061D01*
X018675Y015069D01*
X018675Y015699D01*
X018363Y015508D02*
X018363Y014923D01*
X018280Y014923D01*
X018363Y015508D02*
X018217Y015655D01*
X017788Y015655D01*
X017644Y015799D01*
X017644Y016078D01*
X017428Y016295D01*
X016912Y016295D01*
X016910Y016293D01*
X016072Y016293D01*
X015922Y016143D01*
X015599Y017082D02*
X015934Y017418D01*
X015934Y018016D01*
X015443Y018507D01*
X015443Y018554D01*
X015436Y018547D01*
X015607Y017425D02*
X015614Y017425D01*
X015599Y017082D02*
X015599Y014061D01*
X015365Y013827D01*
X015365Y010812D01*
X015370Y010807D01*
X014220Y009658D01*
X014220Y007752D01*
X013595Y007126D01*
X013595Y006094D01*
X013396Y005895D01*
X013396Y005881D01*
X014253Y005433D02*
X014440Y005246D01*
X015977Y005246D01*
X016266Y004957D01*
X016266Y004756D01*
X016387Y004635D01*
X016961Y004635D01*
X016930Y004635D01*
X016927Y004638D01*
X016961Y004635D02*
X017110Y004635D01*
X018173Y005698D01*
X020136Y005698D01*
X020141Y005703D01*
X020492Y006039D02*
X020631Y005900D01*
X020631Y005934D01*
X020631Y005900D02*
X020631Y005356D01*
X021785Y005356D01*
X022504Y006074D01*
X025898Y006074D01*
X026031Y006207D01*
X026377Y006207D01*
X027116Y006946D01*
X027399Y006946D01*
X027641Y007189D01*
X027641Y007450D01*
X027644Y007453D01*
X027947Y007708D02*
X027822Y007833D01*
X027249Y007833D01*
X027245Y007830D01*
X027037Y007830D01*
X026954Y007746D01*
X026005Y007746D01*
X024321Y009431D01*
X024321Y011081D01*
X023380Y010444D02*
X023763Y010061D01*
X023763Y007634D01*
X023356Y007226D01*
X023356Y006811D01*
X022597Y005831D02*
X021388Y004622D01*
X021124Y005001D02*
X020736Y004613D01*
X020289Y004613D01*
X019914Y004238D01*
X016235Y004238D01*
X015938Y004536D01*
X015938Y004826D01*
X015757Y005006D01*
X015295Y005006D01*
X015177Y004888D01*
X014907Y004888D01*
X015278Y004489D02*
X014424Y004489D01*
X015278Y004489D02*
X015431Y004641D01*
X016098Y005767D02*
X016457Y006126D01*
X016457Y007824D01*
X016014Y008267D01*
X016014Y009571D01*
X017743Y011300D01*
X018058Y011518D02*
X018058Y010883D01*
X016729Y009554D01*
X016064Y010585D02*
X014941Y009463D01*
X014941Y009313D01*
X014443Y009562D02*
X014774Y009894D01*
X014954Y009894D01*
X015627Y010567D01*
X015627Y013639D01*
X016116Y014128D01*
X017307Y015335D02*
X017483Y015159D01*
X017583Y015159D01*
X017307Y015335D02*
X017307Y015996D01*
X017275Y016028D01*
X017960Y015959D02*
X017961Y016720D01*
X022076Y012008D02*
X022058Y011990D01*
X022058Y010485D01*
X022488Y010056D01*
X023023Y009532D02*
X023052Y009503D01*
X022458Y011065D02*
X022458Y011082D01*
X022885Y011509D01*
X021265Y011550D02*
X020389Y010674D01*
X020389Y010673D01*
X020337Y010621D01*
X020337Y010601D01*
X020037Y010301D01*
X020037Y010285D01*
X019490Y009417D02*
X019634Y009272D01*
X020679Y009272D01*
X020385Y008605D02*
X020357Y008577D01*
X020357Y006819D01*
X020492Y006039D02*
X017663Y006039D01*
X016589Y004966D01*
X017428Y006850D02*
X017428Y007581D01*
X017421Y007587D01*
X016064Y010585D02*
X016064Y010859D01*
X016837Y011632D01*
X014443Y009562D02*
X014443Y006857D01*
X014431Y006846D01*
X010900Y002904D02*
X010427Y002904D01*
X010130Y003200D01*
X010130Y004500D01*
X010900Y002904D02*
X011366Y002438D01*
X012010Y002438D01*
X012016Y002432D01*
X027086Y002432D01*
X027543Y002889D01*
X026394Y003755D02*
X026306Y003755D01*
X026394Y003755D02*
X027308Y004669D01*
X026663Y004782D02*
X026178Y004297D01*
X020643Y004297D01*
X020348Y004002D01*
X020448Y005174D02*
X020011Y005174D01*
X020448Y005174D02*
X020631Y005356D01*
X021932Y004614D02*
X025381Y004614D01*
X025620Y004853D01*
X026178Y004853D01*
X026286Y004745D01*
X026306Y005082D02*
X022417Y005082D01*
X022354Y005019D01*
X022597Y005831D02*
X026137Y005831D01*
X026663Y006076D02*
X026663Y004782D01*
X026663Y006076D02*
X027324Y006736D01*
X027598Y006736D01*
X027947Y007085D01*
X027947Y007708D01*
X022844Y003245D02*
X022300Y002701D01*
X020631Y011451D02*
X019866Y011451D01*
X020631Y011451D02*
X020838Y011658D01*
X025269Y017497D02*
X025367Y017596D01*
X026498Y017596D01*
X027781Y018289D02*
X027848Y018222D01*
X027848Y016932D01*
X019909Y024328D02*
X019510Y023928D01*
X017157Y023928D01*
X016800Y024286D01*
X016678Y024286D01*
X016632Y024332D01*
X012932Y024332D01*
X012737Y023568D02*
X012737Y023267D01*
X012745Y023259D01*
X012788Y023302D01*
X012245Y023259D02*
X012220Y023284D01*
X011241Y023217D02*
X010996Y023462D01*
X010996Y023851D01*
X010603Y024244D01*
X006501Y024244D01*
X005977Y023720D01*
X005962Y023720D01*
X005983Y023741D01*
X010300Y024036D02*
X010517Y023819D01*
X010517Y023502D01*
X010515Y023500D01*
X010940Y023076D01*
X010940Y022750D01*
X011246Y022994D02*
X011246Y023062D01*
X011241Y023067D01*
X011241Y023217D01*
X011370Y022109D02*
X011386Y021757D01*
X006848Y016191D02*
X006329Y016191D01*
X006412Y015794D02*
X006198Y015581D01*
X006848Y016191D02*
X007091Y015948D01*
X007091Y015443D01*
X007093Y014679D01*
X007410Y012234D02*
X007374Y012199D01*
X007802Y012258D02*
X007916Y012132D01*
X007926Y009005D01*
X006458Y008819D02*
X006458Y007212D01*
X006468Y007202D01*
X006458Y008819D02*
X005967Y009310D01*
X005967Y010725D01*
X008307Y011033D02*
X008307Y012274D01*
X008307Y011033D02*
X008475Y010865D01*
X010024Y002547D02*
X010478Y002547D01*
D36*
X010478Y002547D03*
X010130Y004500D03*
X010651Y006370D03*
X011591Y007359D03*
X010435Y008640D03*
X009639Y008250D03*
X011146Y009797D03*
X014050Y013005D03*
X010598Y018711D03*
X010841Y019808D03*
X008121Y021772D03*
X007732Y018707D03*
X008219Y017654D03*
X005092Y013780D03*
X003093Y013351D03*
X003584Y016198D03*
X000938Y017486D03*
X002147Y019041D03*
X004637Y019037D03*
X005207Y022294D03*
X004948Y023773D03*
X005414Y025037D03*
X001045Y022653D03*
X005768Y007372D03*
X006468Y007202D03*
X015866Y019317D03*
X016749Y020762D03*
X015571Y021033D03*
X015879Y022207D03*
X014290Y021361D03*
X018739Y019789D03*
X019202Y019749D03*
X019416Y022273D03*
X019143Y022722D03*
X019375Y023350D03*
X019909Y024328D03*
X023039Y023631D03*
X024245Y019253D03*
X025288Y015435D03*
X025694Y006836D03*
X019576Y004787D03*
D37*
X007210Y020701D03*
D38*
X003584Y016198D02*
X003388Y016002D01*
X003187Y016002D01*
X003178Y015993D02*
X003178Y014599D01*
X003093Y013351D02*
X000906Y013351D01*
X000799Y013216D02*
X000799Y014477D01*
X000785Y014573D02*
X000785Y015994D01*
X000938Y017486D02*
X000577Y017486D01*
X000752Y017499D02*
X000938Y017486D01*
D39*
X000691Y017483D02*
X000420Y017483D01*
X000420Y017435D02*
X000691Y017435D01*
X000691Y017386D02*
X000420Y017386D01*
X000420Y017338D02*
X000691Y017338D01*
X000691Y017289D02*
X000420Y017289D01*
X000420Y017241D02*
X000691Y017241D01*
X000691Y017192D02*
X000420Y017192D01*
X000420Y017165D02*
X000420Y017757D01*
X000691Y017757D01*
X000691Y017165D01*
X000420Y017165D01*
X000420Y017532D02*
X000691Y017532D01*
X000691Y017580D02*
X000420Y017580D01*
X000420Y017629D02*
X000691Y017629D01*
X000691Y017677D02*
X000420Y017677D01*
X000420Y017726D02*
X000691Y017726D01*
X000686Y017874D02*
X000686Y018230D01*
X000424Y018230D01*
X000424Y018231D01*
X000421Y017874D01*
X000468Y017874D01*
X000477Y017883D01*
X000630Y017883D01*
X000639Y017874D01*
X000686Y017874D01*
X000686Y017920D02*
X000421Y017920D01*
X000422Y017968D02*
X000686Y017968D01*
X000686Y018017D02*
X000422Y018017D01*
X000423Y018065D02*
X000686Y018065D01*
X000686Y018114D02*
X000423Y018114D01*
X000424Y018162D02*
X000686Y018162D01*
X000686Y018211D02*
X000424Y018211D01*
X000422Y018347D02*
X000420Y018703D01*
X000687Y018703D01*
X000687Y018347D01*
X000422Y018347D01*
X000422Y018356D02*
X000687Y018356D01*
X000687Y018405D02*
X000422Y018405D01*
X000421Y018453D02*
X000687Y018453D01*
X000687Y018502D02*
X000421Y018502D01*
X000421Y018550D02*
X000687Y018550D01*
X000687Y018599D02*
X000420Y018599D01*
X000420Y018647D02*
X000687Y018647D01*
X000687Y018696D02*
X000420Y018696D01*
X000420Y022125D02*
X000420Y022482D01*
X000469Y022482D01*
X000480Y022471D01*
X000684Y022471D01*
X000684Y022125D01*
X000420Y022125D01*
X000420Y022139D02*
X000684Y022139D01*
X000684Y022188D02*
X000420Y022188D01*
X000420Y022236D02*
X000684Y022236D01*
X000684Y022285D02*
X000420Y022285D01*
X000420Y022333D02*
X000684Y022333D01*
X000684Y022382D02*
X000420Y022382D01*
X000420Y022430D02*
X000684Y022430D01*
X000687Y022599D02*
X000422Y022599D01*
X000423Y023191D01*
X000423Y023194D01*
X000687Y023194D01*
X000687Y022599D01*
X000687Y022624D02*
X000422Y022624D01*
X000422Y022673D02*
X000687Y022673D01*
X000687Y022721D02*
X000422Y022721D01*
X000422Y022770D02*
X000687Y022770D01*
X000687Y022818D02*
X000422Y022818D01*
X000422Y022867D02*
X000687Y022867D01*
X000687Y022915D02*
X000422Y022915D01*
X000423Y022964D02*
X000687Y022964D01*
X000687Y023012D02*
X000423Y023012D01*
X000423Y023061D02*
X000687Y023061D01*
X000687Y023109D02*
X000423Y023109D01*
X000423Y023158D02*
X000687Y023158D01*
X000472Y022479D02*
X000420Y022479D01*
D40*
X000556Y022656D02*
X000806Y022656D01*
X000809Y022653D02*
X001045Y022653D01*
X000553Y017698D02*
X000553Y017462D01*
X000553Y017226D01*
D41*
X000556Y022656D02*
X000553Y022659D01*
X000553Y022895D01*
X000553Y023131D01*
M02*
