  0
SECTION
  2
HEADER
  9
$ACADVER
  1
AC1009
  9
$FILLMODE
 70
1
  9
$EXTMIN
 10
0.0000
 20
-1.0160
 30
0.0000
  9
$EXTMAX
 10
91.1860
 20
95.8900
 30
0.0000
  0
ENDSEC
  0
SECTION
  2
TABLES
  0
TABLE
  2
LTYPE
 70
1
  0
LTYPE
  2
CONTINUOUS
 70
64
  3
Solid line
 72
65
 73
0
 40
0
  0
ENDTAB
  0
TABLE
  2
LAYER
 70
255
  0
LAYER
  2
1
 70
64
 62
22
  6
CONTINUOUS
  0
LAYER
  2
16
 70
64
 62
175
  6
CONTINUOUS
  0
LAYER
  2
17
 70
64
 62
82
  6
CONTINUOUS
  0
LAYER
  2
18
 70
64
 62
82
  6
CONTINUOUS
  0
LAYER
  2
19
 70
64
 62
53
  6
CONTINUOUS
  0
LAYER
  2
20
 70
64
 62
7
  6
CONTINUOUS
  0
LAYER
  2
21
 70
64
 62
253
  6
CONTINUOUS
  0
LAYER
  2
22
 70
64
 62
253
  6
CONTINUOUS
  0
LAYER
  2
23
 70
64
 62
7
  6
CONTINUOUS
  0
LAYER
  2
24
 70
64
 62
7
  6
CONTINUOUS
  0
LAYER
  2
25
 70
64
 62
253
  6
CONTINUOUS
  0
LAYER
  2
26
 70
64
 62
253
  6
CONTINUOUS
  0
LAYER
  2
27
 70
64
 62
253
  6
CONTINUOUS
  0
LAYER
  2
28
 70
64
 62
253
  6
CONTINUOUS
  0
LAYER
  2
29
 70
64
 62
253
  6
CONTINUOUS
  0
LAYER
  2
30
 70
64
 62
253
  6
CONTINUOUS
  0
LAYER
  2
31
 70
64
 62
253
  6
CONTINUOUS
  0
LAYER
  2
32
 70
64
 62
253
  6
CONTINUOUS
  0
LAYER
  2
33
 70
64
 62
53
  6
CONTINUOUS
  0
LAYER
  2
34
 70
64
 62
53
  6
CONTINUOUS
  0
LAYER
  2
35
 70
64
 62
253
  6
CONTINUOUS
  0
LAYER
  2
36
 70
64
 62
253
  6
CONTINUOUS
  0
LAYER
  2
37
 70
64
 62
253
  6
CONTINUOUS
  0
LAYER
  2
38
 70
64
 62
253
  6
CONTINUOUS
  0
LAYER
  2
39
 70
64
 62
22
  6
CONTINUOUS
  0
LAYER
  2
40
 70
64
 62
175
  6
CONTINUOUS
  0
LAYER
  2
41
 70
64
 62
22
  6
CONTINUOUS
  0
LAYER
  2
42
 70
64
 62
175
  6
CONTINUOUS
  0
LAYER
  2
43
 70
64
 62
82
  6
CONTINUOUS
  0
LAYER
  2
44
 70
64
 62
253
  6
CONTINUOUS
  0
LAYER
  2
45
 70
64
 62
253
  6
CONTINUOUS
  0
LAYER
  2
46
 70
64
 62
140
  6
CONTINUOUS
  0
LAYER
  2
47
 70
64
 62
253
  6
CONTINUOUS
  0
LAYER
  2
48
 70
64
 62
253
  6
CONTINUOUS
  0
LAYER
  2
49
 70
64
 62
253
  6
CONTINUOUS
  0
LAYER
  2
51
 70
64
 62
253
  6
CONTINUOUS
  0
LAYER
  2
52
 70
64
 62
253
  6
CONTINUOUS
  0
ENDTAB
  0
ENDSEC
  0
SECTION
  2
BLOCKS
  0
BLOCK
  8
0
  2
RECT
 70
64
 10
0.0000
 20
0.0000
 30
0.0000
  3
RECT
  0
SOLID
  8
0
 10
-0.5000
 20
-0.5000
 30
0.0000
 11
0.5000
 21
-0.5000
 31
0.0000
 12
-0.5000
 22
0.5000
 32
0.0000
 13
0.5000
 23
0.5000
 33
0.0000
  0
ENDBLK
  8
0
  0
BLOCK
  8
0
  2
PIE
 70
64
 10
0.0000
 20
0.0000
 30
0.0000
  3
PIE
  0
POLYLINE
  8
0
 66
1
 10
0.0000
 20
0.0000
 30
0.0000
 40
0.5000
 41
0.5000
 70
0
  0
VERTEX
  8
0
 10
0.0000
 20
-0.2500
 30
0.0000
 42
1.0000
  0
VERTEX
  8
0
 10
0.0000
 20
0.2500
 30
0.0000
 42
1.0000
  0
VERTEX
  8
0
 10
0.0000
 20
-0.2500
 30
0.0000
  0
SEQEND
  8
0
  0
ENDBLK
  8
0
  0
BLOCK
  8
0
  2
OCTAGONP
 70
64
 10
0.0000
 20
0.0000
 30
0.0000
  3
OCTAGONP
  0
POLYLINE
  8
0
 66
1
 10
0.0000
 20
0.0000
 30
0.0000
 40
0.5000
 41
0.5000
 70
0
  0
VERTEX
  8
0
 10
-0.2500
 20
-0.1036
 30
0.0000
  0
VERTEX
  8
0
 10
-0.2500
 20
0.1036
 30
0.0000
  0
VERTEX
  8
0
 10
-0.1036
 20
0.2500
 30
0.0000
  0
VERTEX
  8
0
 10
0.1036
 20
0.2500
 30
0.0000
  0
VERTEX
  8
0
 10
0.2500
 20
0.1036
 30
0.0000
  0
VERTEX
  8
0
 10
0.2500
 20
-0.1036
 30
0.0000
  0
VERTEX
  8
0
 10
0.1036
 20
-0.2500
 30
0.0000
  0
VERTEX
  8
0
 10
-0.1036
 20
-0.2500
 30
0.0000
  0
VERTEX
  8
0
 10
-0.2500
 20
-0.1036
 30
0.0000
  0
VERTEX
  8
0
 10
-0.2500
 20
0.1036
 30
0.0000
  0
SEQEND
  8
0
  0
ENDBLK
  8
0
  0
BLOCK
  8
0
  2
SQUAREP
 70
64
 10
0.0000
 20
0.0000
 30
0.0000
  3
SQUAREP
  0
SOLID
  8
0
 10
-0.5000
 20
-0.5000
 30
0.0000
 11
0.5000
 21
-0.5000
 31
0.0000
 12
-0.5000
 22
0.5000
 32
0.0000
 13
0.5000
 23
0.5000
 33
0.0000
  0
ENDBLK
  8
0
  0
BLOCK
  8
0
  2
ROUNDP
 70
64
 10
0.0000
 20
0.0000
 30
0.0000
  3
ROUNDP
  0
POLYLINE
  8
0
 66
1
 10
0.0000
 20
0.0000
 30
0.0000
 40
0.5000
 41
0.5000
 70
0
  0
VERTEX
  8
0
 10
0.0000
 20
-0.2500
 30
0.0000
 42
1.0000
  0
VERTEX
  8
0
 10
0.0000
 20
0.2500
 30
0.0000
 42
1.0000
  0
VERTEX
  8
0
 10
0.0000
 20
-0.2500
 30
0.0000
  0
SEQEND
  8
0
  0
ENDBLK
  8
0
  0
BLOCK
  8
0
  2
ANNULUSP
 70
64
 10
0.0000
 20
0.0000
 30
0.0000
  3
ANNULUSP
  0
POLYLINE
  8
0
 66
1
 10
0.0000
 20
0.0000
 30
0.0000
 40
0.5000
 41
0.5000
 70
0
  0
VERTEX
  8
0
 10
0.0000
 20
-0.2500
 30
0.0000
 42
1.0000
  0
VERTEX
  8
0
 10
0.0000
 20
0.2500
 30
0.0000
 42
1.0000
  0
VERTEX
  8
0
 10
0.0000
 20
-0.2500
 30
0.0000
  0
SEQEND
  8
0
  0
ENDBLK
  8
0
  0
BLOCK
  8
0
  2
THERMALP
 70
64
 10
0.0000
 20
0.0000
 30
0.0000
  3
THERMALP
  0
POLYLINE
  8
0
 66
1
 10
0.0000
 20
0.0000
 30
0.0000
 40
0.1000
 41
0.1000
 70
0
  0
VERTEX
  8
0
 10
-0.2379
 20
0.4500
 30
0.0000
  0
VERTEX
  8
0
 10
0.2379
 20
0.4500
 30
0.0000
  0
SEQEND
  8
0
  0
POLYLINE
  8
0
 66
1
 10
0.0000
 20
0.0000
 30
0.0000
 40
0.0500
 41
0.0500
 70
0
  0
VERTEX
  8
0
 10
0.2379
 20
0.4250
 30
0.0000
 42
1.0000
  0
VERTEX
  8
0
 10
0.2379
 20
0.4750
 30
0.0000
  0
SEQEND
  8
0
  0
POLYLINE
  8
0
 66
1
 10
0.0000
 20
0.0000
 30
0.0000
 40
0.0500
 41
0.0500
 70
0
  0
VERTEX
  8
0
 10
-0.2379
 20
0.4750
 30
0.0000
 42
1.0000
  0
VERTEX
  8
0
 10
-0.2379
 20
0.4250
 30
0.0000
  0
SEQEND
  8
0
  0
POLYLINE
  8
0
 66
1
 10
0.0000
 20
0.0000
 30
0.0000
 40
0.1000
 41
0.1000
 70
0
  0
VERTEX
  8
0
 10
0.4500
 20
0.2379
 30
0.0000
  0
VERTEX
  8
0
 10
0.4500
 20
-0.2379
 30
0.0000
  0
SEQEND
  8
0
  0
POLYLINE
  8
0
 66
1
 10
0.0000
 20
0.0000
 30
0.0000
 40
0.0500
 41
0.0500
 70
0
  0
VERTEX
  8
0
 10
0.4250
 20
-0.2379
 30
0.0000
 42
1.0000
  0
VERTEX
  8
0
 10
0.4750
 20
-0.2379
 30
0.0000
  0
SEQEND
  8
0
  0
POLYLINE
  8
0
 66
1
 10
0.0000
 20
0.0000
 30
0.0000
 40
0.0500
 41
0.0500
 70
0
  0
VERTEX
  8
0
 10
0.4750
 20
0.2379
 30
0.0000
 42
1.0000
  0
VERTEX
  8
0
 10
0.4250
 20
0.2379
 30
0.0000
  0
SEQEND
  8
0
  0
POLYLINE
  8
0
 66
1
 10
0.0000
 20
0.0000
 30
0.0000
 40
0.1000
 41
0.1000
 70
0
  0
VERTEX
  8
0
 10
0.2379
 20
-0.4500
 30
0.0000
  0
VERTEX
  8
0
 10
-0.2379
 20
-0.4500
 30
0.0000
  0
SEQEND
  8
0
  0
POLYLINE
  8
0
 66
1
 10
0.0000
 20
0.0000
 30
0.0000
 40
0.0500
 41
0.0500
 70
0
  0
VERTEX
  8
0
 10
-0.2379
 20
-0.4250
 30
0.0000
 42
1.0000
  0
VERTEX
  8
0
 10
-0.2379
 20
-0.4750
 30
0.0000
  0
SEQEND
  8
0
  0
POLYLINE
  8
0
 66
1
 10
0.0000
 20
0.0000
 30
0.0000
 40
0.0500
 41
0.0500
 70
0
  0
VERTEX
  8
0
 10
0.2379
 20
-0.4750
 30
0.0000
 42
1.0000
  0
VERTEX
  8
0
 10
0.2379
 20
-0.4250
 30
0.0000
  0
SEQEND
  8
0
  0
POLYLINE
  8
0
 66
1
 10
0.0000
 20
0.0000
 30
0.0000
 40
0.1000
 41
0.1000
 70
0
  0
VERTEX
  8
0
 10
-0.4500
 20
-0.2379
 30
0.0000
  0
VERTEX
  8
0
 10
-0.4500
 20
0.2379
 30
0.0000
  0
SEQEND
  8
0
  0
POLYLINE
  8
0
 66
1
 10
0.0000
 20
0.0000
 30
0.0000
 40
0.0500
 41
0.0500
 70
0
  0
VERTEX
  8
0
 10
-0.4250
 20
0.2379
 30
0.0000
 42
1.0000
  0
VERTEX
  8
0
 10
-0.4750
 20
0.2379
 30
0.0000
  0
SEQEND
  8
0
  0
POLYLINE
  8
0
 66
1
 10
0.0000
 20
0.0000
 30
0.0000
 40
0.0500
 41
0.0500
 70
0
  0
VERTEX
  8
0
 10
-0.4750
 20
-0.2379
 30
0.0000
 42
1.0000
  0
VERTEX
  8
0
 10
-0.4250
 20
-0.2379
 30
0.0000
  0
SEQEND
  8
0
  0
ENDBLK
  8
0
  0
BLOCK
  8
0
  2
OCTAGONV
 70
64
 10
0.0000
 20
0.0000
 30
0.0000
  3
OCTAGONV
  0
POLYLINE
  8
0
 66
1
 10
0.0000
 20
0.0000
 30
0.0000
 40
0.5000
 41
0.5000
 70
0
  0
VERTEX
  8
0
 10
-0.2500
 20
-0.1036
 30
0.0000
  0
VERTEX
  8
0
 10
-0.2500
 20
0.1036
 30
0.0000
  0
VERTEX
  8
0
 10
-0.1036
 20
0.2500
 30
0.0000
  0
VERTEX
  8
0
 10
0.1036
 20
0.2500
 30
0.0000
  0
VERTEX
  8
0
 10
0.2500
 20
0.1036
 30
0.0000
  0
VERTEX
  8
0
 10
0.2500
 20
-0.1036
 30
0.0000
  0
VERTEX
  8
0
 10
0.1036
 20
-0.2500
 30
0.0000
  0
VERTEX
  8
0
 10
-0.1036
 20
-0.2500
 30
0.0000
  0
VERTEX
  8
0
 10
-0.2500
 20
-0.1036
 30
0.0000
  0
VERTEX
  8
0
 10
-0.2500
 20
0.1036
 30
0.0000
  0
SEQEND
  8
0
  0
ENDBLK
  8
0
  0
BLOCK
  8
0
  2
SQUAREV
 70
64
 10
0.0000
 20
0.0000
 30
0.0000
  3
SQUAREV
  0
SOLID
  8
0
 10
-0.5000
 20
-0.5000
 30
0.0000
 11
0.5000
 21
-0.5000
 31
0.0000
 12
-0.5000
 22
0.5000
 32
0.0000
 13
0.5000
 23
0.5000
 33
0.0000
  0
ENDBLK
  8
0
  0
BLOCK
  8
0
  2
ROUNDV
 70
64
 10
0.0000
 20
0.0000
 30
0.0000
  3
ROUNDV
  0
POLYLINE
  8
0
 66
1
 10
0.0000
 20
0.0000
 30
0.0000
 40
0.5000
 41
0.5000
 70
0
  0
VERTEX
  8
0
 10
0.0000
 20
-0.2500
 30
0.0000
 42
1.0000
  0
VERTEX
  8
0
 10
0.0000
 20
0.2500
 30
0.0000
 42
1.0000
  0
VERTEX
  8
0
 10
0.0000
 20
-0.2500
 30
0.0000
  0
SEQEND
  8
0
  0
ENDBLK
  8
0
  0
BLOCK
  8
0
  2
ANNULUSV
 70
64
 10
0.0000
 20
0.0000
 30
0.0000
  3
ANNULUSV
  0
POLYLINE
  8
0
 66
1
 10
0.0000
 20
0.0000
 30
0.0000
 40
0.5000
 41
0.5000
 70
0
  0
VERTEX
  8
0
 10
0.0000
 20
-0.2500
 30
0.0000
 42
1.0000
  0
VERTEX
  8
0
 10
0.0000
 20
0.2500
 30
0.0000
 42
1.0000
  0
VERTEX
  8
0
 10
0.0000
 20
-0.2500
 30
0.0000
  0
SEQEND
  8
0
  0
ENDBLK
  8
0
  0
BLOCK
  8
0
  2
THERMALV
 70
64
 10
0.0000
 20
0.0000
 30
0.0000
  3
THERMALV
  0
POLYLINE
  8
0
 66
1
 10
0.0000
 20
0.0000
 30
0.0000
 40
0.1000
 41
0.1000
 70
0
  0
VERTEX
  8
0
 10
-0.2379
 20
0.4500
 30
0.0000
  0
VERTEX
  8
0
 10
0.2379
 20
0.4500
 30
0.0000
  0
SEQEND
  8
0
  0
POLYLINE
  8
0
 66
1
 10
0.0000
 20
0.0000
 30
0.0000
 40
0.0500
 41
0.0500
 70
0
  0
VERTEX
  8
0
 10
0.2379
 20
0.4250
 30
0.0000
 42
1.0000
  0
VERTEX
  8
0
 10
0.2379
 20
0.4750
 30
0.0000
  0
SEQEND
  8
0
  0
POLYLINE
  8
0
 66
1
 10
0.0000
 20
0.0000
 30
0.0000
 40
0.0500
 41
0.0500
 70
0
  0
VERTEX
  8
0
 10
-0.2379
 20
0.4750
 30
0.0000
 42
1.0000
  0
VERTEX
  8
0
 10
-0.2379
 20
0.4250
 30
0.0000
  0
SEQEND
  8
0
  0
POLYLINE
  8
0
 66
1
 10
0.0000
 20
0.0000
 30
0.0000
 40
0.1000
 41
0.1000
 70
0
  0
VERTEX
  8
0
 10
0.4500
 20
0.2379
 30
0.0000
  0
VERTEX
  8
0
 10
0.4500
 20
-0.2379
 30
0.0000
  0
SEQEND
  8
0
  0
POLYLINE
  8
0
 66
1
 10
0.0000
 20
0.0000
 30
0.0000
 40
0.0500
 41
0.0500
 70
0
  0
VERTEX
  8
0
 10
0.4250
 20
-0.2379
 30
0.0000
 42
1.0000
  0
VERTEX
  8
0
 10
0.4750
 20
-0.2379
 30
0.0000
  0
SEQEND
  8
0
  0
POLYLINE
  8
0
 66
1
 10
0.0000
 20
0.0000
 30
0.0000
 40
0.0500
 41
0.0500
 70
0
  0
VERTEX
  8
0
 10
0.4750
 20
0.2379
 30
0.0000
 42
1.0000
  0
VERTEX
  8
0
 10
0.4250
 20
0.2379
 30
0.0000
  0
SEQEND
  8
0
  0
POLYLINE
  8
0
 66
1
 10
0.0000
 20
0.0000
 30
0.0000
 40
0.1000
 41
0.1000
 70
0
  0
VERTEX
  8
0
 10
0.2379
 20
-0.4500
 30
0.0000
  0
VERTEX
  8
0
 10
-0.2379
 20
-0.4500
 30
0.0000
  0
SEQEND
  8
0
  0
POLYLINE
  8
0
 66
1
 10
0.0000
 20
0.0000
 30
0.0000
 40
0.0500
 41
0.0500
 70
0
  0
VERTEX
  8
0
 10
-0.2379
 20
-0.4250
 30
0.0000
 42
1.0000
  0
VERTEX
  8
0
 10
-0.2379
 20
-0.4750
 30
0.0000
  0
SEQEND
  8
0
  0
POLYLINE
  8
0
 66
1
 10
0.0000
 20
0.0000
 30
0.0000
 40
0.0500
 41
0.0500
 70
0
  0
VERTEX
  8
0
 10
0.2379
 20
-0.4750
 30
0.0000
 42
1.0000
  0
VERTEX
  8
0
 10
0.2379
 20
-0.4250
 30
0.0000
  0
SEQEND
  8
0
  0
POLYLINE
  8
0
 66
1
 10
0.0000
 20
0.0000
 30
0.0000
 40
0.1000
 41
0.1000
 70
0
  0
VERTEX
  8
0
 10
-0.4500
 20
-0.2379
 30
0.0000
  0
VERTEX
  8
0
 10
-0.4500
 20
0.2379
 30
0.0000
  0
SEQEND
  8
0
  0
POLYLINE
  8
0
 66
1
 10
0.0000
 20
0.0000
 30
0.0000
 40
0.0500
 41
0.0500
 70
0
  0
VERTEX
  8
0
 10
-0.4250
 20
0.2379
 30
0.0000
 42
1.0000
  0
VERTEX
  8
0
 10
-0.4750
 20
0.2379
 30
0.0000
  0
SEQEND
  8
0
  0
POLYLINE
  8
0
 66
1
 10
0.0000
 20
0.0000
 30
0.0000
 40
0.0500
 41
0.0500
 70
0
  0
VERTEX
  8
0
 10
-0.4750
 20
-0.2379
 30
0.0000
 42
1.0000
  0
VERTEX
  8
0
 10
-0.4250
 20
-0.2379
 30
0.0000
  0
SEQEND
  8
0
  0
ENDBLK
  8
0
  0
ENDSEC
  0
SECTION
  2
ENTITIES
  0
POINT
  8
23
 10
90.1700
 20
0.0000
 30
0.0000
  0
LINE
  8
20
 10
1.1800
 20
95.0000
 30
0.0000
 11
1.1800
 21
77.0445
 31
0.0000
  0
LINE
  8
20
 10
14.7450
 20
68.0000
 30
0.0000
 11
14.7450
 21
95.0000
 31
0.0000
  0
LINE
  8
20
 10
14.7450
 20
95.0000
 30
0.0000
 11
1.1800
 21
95.0000
 31
0.0000
  0
LINE
  8
20
 10
33.3411
 20
68.0000
 30
0.0000
 11
14.7450
 21
68.0000
 31
0.0000
  0
LINE
  8
20
 10
57.0890
 20
68.0000
 30
0.0000
 11
57.0890
 21
93.0000
 31
0.0000
  0
ARC
  8
20
 10
56.0890
 20
93.0000
 30
0.0000
 40
1.0000
 50
0.0000
 51
90.0000
  0
LINE
  8
20
 10
56.0890
 20
94.0000
 30
0.0000
 11
34.3411
 21
94.0000
 31
0.0000
  0
ARC
  8
20
 10
34.3411
 20
93.0000
 30
0.0000
 40
1.0000
 50
90.0000
 51
180.0000
  0
LINE
  8
20
 10
33.3411
 20
93.0000
 30
0.0000
 11
33.3411
 21
68.0000
 31
0.0000
  0
LINE
  8
20
 10
75.6150
 20
68.0000
 30
0.0000
 11
57.0890
 21
68.0000
 31
0.0000
  0
LINE
  8
20
 10
89.0300
 20
95.0000
 30
0.0000
 11
75.6150
 21
95.0000
 31
0.0000
  0
LINE
  8
20
 10
75.6150
 20
95.0000
 30
0.0000
 11
75.6150
 21
68.0000
 31
0.0000
  0
LINE
  8
20
 10
89.0300
 20
78.2840
 30
0.0000
 11
89.0300
 21
95.0000
 31
0.0000
  0
LINE
  8
20
 10
89.0300
 20
77.0445
 30
0.0000
 11
89.0300
 21
78.2840
 31
0.0000
  0
LINE
  8
20
 10
89.0300
 20
77.0445
 30
0.0000
 11
82.0792
 21
77.0445
 31
0.0000
  0
LINE
  8
20
 10
82.0792
 20
77.0445
 30
0.0000
 11
82.0792
 21
82.0445
 31
0.0000
  0
LINE
  8
20
 10
82.0792
 20
82.0445
 30
0.0000
 11
79.5042
 21
82.0445
 31
0.0000
  0
LINE
  8
20
 10
79.5042
 20
82.0445
 30
0.0000
 11
79.5042
 21
14.3065
 31
0.0000
  0
LINE
  8
20
 10
88.6418
 20
14.3065
 30
0.0000
 11
79.5042
 21
14.3065
 31
0.0000
  0
LINE
  8
20
 10
89.0297
 20
0.0000
 30
0.0000
 11
89.0297
 21
13.9186
 31
0.0000
  0
LINE
  8
20
 10
3.1800
 20
0.0000
 30
0.0000
 11
89.0297
 21
0.0000
 31
0.0000
  0
LINE
  8
20
 10
1.1800
 20
13.9186
 30
0.0000
 11
1.1800
 21
2.0000
 31
0.0000
  0
LINE
  8
20
 10
10.7710
 20
14.3065
 30
0.0000
 11
1.5679
 21
14.3065
 31
0.0000
  0
LINE
  8
20
 10
10.7710
 20
14.3065
 30
0.0000
 11
10.7710
 21
82.0445
 31
0.0000
  0
LINE
  8
20
 10
10.7710
 20
82.0445
 30
0.0000
 11
8.1960
 21
82.0445
 31
0.0000
  0
LINE
  8
20
 10
8.1960
 20
82.0445
 30
0.0000
 11
8.1960
 21
77.0445
 31
0.0000
  0
LINE
  8
20
 10
8.1960
 20
77.0445
 30
0.0000
 11
1.1800
 21
77.0445
 31
0.0000
  0
LINE
  8
20
 10
66.0890
 20
61.2954
 30
0.0000
 11
24.2710
 21
61.2954
 31
0.0000
  0
LINE
  8
20
 10
24.2710
 20
16.5000
 30
0.0000
 11
24.2710
 21
61.2954
 31
0.0000
  0
LINE
  8
20
 10
66.0890
 20
16.5000
 30
0.0000
 11
24.2710
 21
16.5000
 31
0.0000
  0
LINE
  8
20
 10
66.0890
 20
61.2954
 30
0.0000
 11
66.0890
 21
16.5000
 31
0.0000
  0
ARC
  8
20
 10
88.6418
 20
13.9186
 30
0.0000
 40
0.3879
 50
0.0000
 51
90.0000
  0
ARC
  8
20
 10
3.1800
 20
2.0000
 30
0.0000
 40
2.0000
 50
180.0000
 51
270.0000
  0
ARC
  8
20
 10
1.5679
 20
13.9186
 30
0.0000
 40
0.3879
 50
90.0000
 51
180.0000
  0
LINE
  8
48
 10
90.1700
 20
0.0000
 30
0.0000
 11
90.1700
 21
3.5500
 31
0.0000
  0
LINE
  8
48
 10
90.1700
 20
3.5500
 30
0.0000
 11
90.1700
 21
4.6431
 31
0.0000
  0
LINE
  8
48
 10
90.1700
 20
5.6431
 30
0.0000
 11
90.1700
 21
6.7362
 31
0.0000
  0
LINE
  8
48
 10
90.1700
 20
7.7362
 30
0.0000
 11
90.1700
 21
8.8293
 31
0.0000
  0
LINE
  8
48
 10
90.1700
 20
9.8293
 30
0.0000
 11
90.1700
 21
10.9224
 31
0.0000
  0
LINE
  8
48
 10
90.1700
 20
11.9224
 30
0.0000
 11
90.1700
 21
13.0155
 31
0.0000
  0
LINE
  8
48
 10
90.1700
 20
14.0155
 30
0.0000
 11
90.1700
 21
15.1085
 31
0.0000
  0
LINE
  8
48
 10
90.1700
 20
16.1085
 30
0.0000
 11
90.1700
 21
17.2016
 31
0.0000
  0
LINE
  8
48
 10
90.1700
 20
18.2016
 30
0.0000
 11
90.1700
 21
19.2947
 31
0.0000
  0
LINE
  8
48
 10
90.1700
 20
20.2947
 30
0.0000
 11
90.1700
 21
21.3878
 31
0.0000
  0
LINE
  8
48
 10
90.1700
 20
22.3878
 30
0.0000
 11
90.1700
 21
23.4809
 31
0.0000
  0
LINE
  8
48
 10
90.1700
 20
24.4809
 30
0.0000
 11
90.1700
 21
25.5740
 31
0.0000
  0
LINE
  8
48
 10
90.1700
 20
25.5740
 30
0.0000
 11
90.1700
 21
26.6365
 31
0.0000
  0
LINE
  8
48
 10
90.1700
 20
27.6365
 30
0.0000
 11
90.1700
 21
28.6990
 31
0.0000
  0
LINE
  8
48
 10
90.1700
 20
29.6990
 30
0.0000
 11
90.1700
 21
30.7615
 31
0.0000
  0
LINE
  8
48
 10
90.1700
 20
31.7615
 30
0.0000
 11
90.1700
 21
32.8240
 31
0.0000
  0
LINE
  8
48
 10
90.1700
 20
33.8240
 30
0.0000
 11
90.1700
 21
34.8865
 31
0.0000
  0
LINE
  8
48
 10
90.1700
 20
35.8865
 30
0.0000
 11
90.1700
 21
36.9490
 31
0.0000
  0
LINE
  8
48
 10
90.1700
 20
37.9490
 30
0.0000
 11
90.1700
 21
39.0115
 31
0.0000
  0
LINE
  8
48
 10
90.1700
 20
40.0115
 30
0.0000
 11
90.1700
 21
41.0740
 31
0.0000
  0
LINE
  8
48
 10
90.1700
 20
42.0740
 30
0.0000
 11
90.1700
 21
43.1365
 31
0.0000
  0
LINE
  8
48
 10
90.1700
 20
44.1365
 30
0.0000
 11
90.1700
 21
45.1990
 31
0.0000
  0
LINE
  8
48
 10
90.1700
 20
46.1990
 30
0.0000
 11
90.1700
 21
47.2615
 31
0.0000
  0
LINE
  8
48
 10
90.1700
 20
48.2615
 30
0.0000
 11
90.1700
 21
49.3240
 31
0.0000
  0
LINE
  8
48
 10
90.1700
 20
50.3240
 30
0.0000
 11
90.1700
 21
51.3865
 31
0.0000
  0
LINE
  8
48
 10
90.1700
 20
52.3865
 30
0.0000
 11
90.1700
 21
53.4490
 31
0.0000
  0
LINE
  8
48
 10
90.1700
 20
54.4490
 30
0.0000
 11
90.1700
 21
55.5115
 31
0.0000
  0
LINE
  8
48
 10
90.1700
 20
56.5115
 30
0.0000
 11
90.1700
 21
57.5740
 31
0.0000
  0
LINE
  8
48
 10
90.1700
 20
57.5740
 30
0.0000
 11
90.1700
 21
58.6433
 31
0.0000
  0
LINE
  8
48
 10
90.1700
 20
59.6433
 30
0.0000
 11
90.1700
 21
60.7125
 31
0.0000
  0
LINE
  8
48
 10
90.1700
 20
61.7125
 30
0.0000
 11
90.1700
 21
62.7818
 31
0.0000
  0
LINE
  8
48
 10
90.1700
 20
63.7818
 30
0.0000
 11
90.1700
 21
64.8511
 31
0.0000
  0
LINE
  8
48
 10
90.1700
 20
65.8511
 30
0.0000
 11
90.1700
 21
66.9203
 31
0.0000
  0
LINE
  8
48
 10
90.1700
 20
67.9203
 30
0.0000
 11
90.1700
 21
68.9896
 31
0.0000
  0
LINE
  8
48
 10
90.1700
 20
69.9896
 30
0.0000
 11
90.1700
 21
71.0588
 31
0.0000
  0
LINE
  8
48
 10
90.1700
 20
72.0588
 30
0.0000
 11
90.1700
 21
73.1281
 31
0.0000
  0
LINE
  8
48
 10
90.1700
 20
74.1281
 30
0.0000
 11
90.1700
 21
75.1974
 31
0.0000
  0
LINE
  8
48
 10
90.1700
 20
76.1974
 30
0.0000
 11
90.1700
 21
77.2666
 31
0.0000
  0
LINE
  8
48
 10
90.1700
 20
78.2666
 30
0.0000
 11
90.1700
 21
79.3359
 31
0.0000
  0
LINE
  8
48
 10
90.1700
 20
80.3359
 30
0.0000
 11
90.1700
 21
81.4052
 31
0.0000
  0
LINE
  8
48
 10
90.1700
 20
82.4052
 30
0.0000
 11
90.1700
 21
83.4744
 31
0.0000
  0
LINE
  8
48
 10
90.1700
 20
84.4744
 30
0.0000
 11
90.1700
 21
85.5437
 31
0.0000
  0
LINE
  8
48
 10
90.1700
 20
86.5437
 30
0.0000
 11
90.1700
 21
87.6129
 31
0.0000
  0
LINE
  8
48
 10
90.1700
 20
88.6129
 30
0.0000
 11
90.1700
 21
89.6822
 31
0.0000
  0
LINE
  8
48
 10
90.1700
 20
90.6822
 30
0.0000
 11
90.1700
 21
91.7515
 31
0.0000
  0
LINE
  8
48
 10
90.1700
 20
92.7515
 30
0.0000
 11
90.1700
 21
93.8207
 31
0.0000
  0
LINE
  8
48
 10
90.1700
 20
94.8207
 30
0.0000
 11
90.1700
 21
95.8900
 31
0.0000
  0
LINE
  8
48
 10
90.1700
 20
0.0000
 30
0.0000
 11
89.1440
 21
0.0000
 31
0.0000
  0
LINE
  8
48
 10
88.1440
 20
0.0000
 30
0.0000
 11
87.1180
 21
0.0000
 31
0.0000
  0
LINE
  8
48
 10
86.1180
 20
0.0000
 30
0.0000
 11
85.0920
 21
0.0000
 31
0.0000
  0
LINE
  8
48
 10
84.0920
 20
0.0000
 30
0.0000
 11
83.0660
 21
0.0000
 31
0.0000
  0
LINE
  8
48
 10
82.0660
 20
0.0000
 30
0.0000
 11
81.0400
 21
0.0000
 31
0.0000
  0
LINE
  8
48
 10
80.0400
 20
0.0000
 30
0.0000
 11
79.0140
 21
0.0000
 31
0.0000
  0
LINE
  8
48
 10
78.0140
 20
0.0000
 30
0.0000
 11
76.9880
 21
0.0000
 31
0.0000
  0
LINE
  8
48
 10
75.9880
 20
0.0000
 30
0.0000
 11
74.9620
 21
0.0000
 31
0.0000
  0
LINE
  8
48
 10
73.9620
 20
0.0000
 30
0.0000
 11
72.9360
 21
0.0000
 31
0.0000
  0
LINE
  8
48
 10
71.9360
 20
0.0000
 30
0.0000
 11
70.9100
 21
0.0000
 31
0.0000
  0
LINE
  8
48
 10
69.9100
 20
0.0000
 30
0.0000
 11
68.8840
 21
0.0000
 31
0.0000
  0
LINE
  8
48
 10
67.8840
 20
0.0000
 30
0.0000
 11
66.8580
 21
0.0000
 31
0.0000
  0
LINE
  8
48
 10
65.8580
 20
0.0000
 30
0.0000
 11
64.8320
 21
0.0000
 31
0.0000
  0
LINE
  8
48
 10
63.8320
 20
0.0000
 30
0.0000
 11
62.8060
 21
0.0000
 31
0.0000
  0
LINE
  8
48
 10
61.8060
 20
0.0000
 30
0.0000
 11
60.7800
 21
0.0000
 31
0.0000
  0
LINE
  8
48
 10
59.7800
 20
0.0000
 30
0.0000
 11
58.7540
 21
0.0000
 31
0.0000
  0
LINE
  8
48
 10
57.7540
 20
0.0000
 30
0.0000
 11
56.7280
 21
0.0000
 31
0.0000
  0
LINE
  8
48
 10
55.7280
 20
0.0000
 30
0.0000
 11
54.7020
 21
0.0000
 31
0.0000
  0
LINE
  8
48
 10
53.7020
 20
0.0000
 30
0.0000
 11
52.6760
 21
0.0000
 31
0.0000
  0
LINE
  8
48
 10
51.6760
 20
0.0000
 30
0.0000
 11
50.6500
 21
0.0000
 31
0.0000
  0
LINE
  8
48
 10
49.6500
 20
0.0000
 30
0.0000
 11
48.6240
 21
0.0000
 31
0.0000
  0
LINE
  8
48
 10
47.6240
 20
0.0000
 30
0.0000
 11
46.5980
 21
0.0000
 31
0.0000
  0
LINE
  8
48
 10
45.5980
 20
0.0000
 30
0.0000
 11
44.5720
 21
0.0000
 31
0.0000
  0
LINE
  8
48
 10
43.5720
 20
0.0000
 30
0.0000
 11
42.5460
 21
0.0000
 31
0.0000
  0
LINE
  8
48
 10
41.5460
 20
0.0000
 30
0.0000
 11
40.5200
 21
0.0000
 31
0.0000
  0
LINE
  8
48
 10
39.5200
 20
0.0000
 30
0.0000
 11
38.4940
 21
0.0000
 31
0.0000
  0
LINE
  8
48
 10
37.4940
 20
0.0000
 30
0.0000
 11
36.4680
 21
0.0000
 31
0.0000
  0
LINE
  8
48
 10
35.4680
 20
0.0000
 30
0.0000
 11
34.4420
 21
0.0000
 31
0.0000
  0
LINE
  8
48
 10
33.4420
 20
0.0000
 30
0.0000
 11
32.4160
 21
0.0000
 31
0.0000
  0
LINE
  8
48
 10
31.4160
 20
0.0000
 30
0.0000
 11
30.3900
 21
0.0000
 31
0.0000
  0
LINE
  8
48
 10
29.3900
 20
0.0000
 30
0.0000
 11
28.3640
 21
0.0000
 31
0.0000
  0
LINE
  8
48
 10
27.3640
 20
0.0000
 30
0.0000
 11
26.3380
 21
0.0000
 31
0.0000
  0
LINE
  8
48
 10
25.3380
 20
0.0000
 30
0.0000
 11
24.3120
 21
0.0000
 31
0.0000
  0
LINE
  8
48
 10
23.3120
 20
0.0000
 30
0.0000
 11
22.2860
 21
0.0000
 31
0.0000
  0
LINE
  8
48
 10
21.2860
 20
0.0000
 30
0.0000
 11
20.2600
 21
0.0000
 31
0.0000
  0
LINE
  8
48
 10
19.2600
 20
0.0000
 30
0.0000
 11
18.2340
 21
0.0000
 31
0.0000
  0
LINE
  8
48
 10
17.2340
 20
0.0000
 30
0.0000
 11
16.2080
 21
0.0000
 31
0.0000
  0
LINE
  8
48
 10
15.2080
 20
0.0000
 30
0.0000
 11
14.1820
 21
0.0000
 31
0.0000
  0
LINE
  8
48
 10
13.1820
 20
0.0000
 30
0.0000
 11
12.1560
 21
0.0000
 31
0.0000
  0
LINE
  8
48
 10
11.1560
 20
0.0000
 30
0.0000
 11
10.1300
 21
0.0000
 31
0.0000
  0
LINE
  8
48
 10
9.1300
 20
0.0000
 30
0.0000
 11
8.1040
 21
0.0000
 31
0.0000
  0
LINE
  8
48
 10
7.1040
 20
0.0000
 30
0.0000
 11
6.0780
 21
0.0000
 31
0.0000
  0
LINE
  8
48
 10
5.0780
 20
0.0000
 30
0.0000
 11
4.0520
 21
0.0000
 31
0.0000
  0
LINE
  8
48
 10
3.0520
 20
0.0000
 30
0.0000
 11
2.0260
 21
0.0000
 31
0.0000
  0
LINE
  8
48
 10
1.0260
 20
0.0000
 30
0.0000
 11
0.0000
 21
0.0000
 31
0.0000
  0
LINE
  8
48
 10
0.0000
 20
0.0000
 30
0.0000
 11
0.0000
 21
1.0185
 31
0.0000
  0
LINE
  8
48
 10
0.0000
 20
2.0185
 30
0.0000
 11
0.0000
 21
3.0371
 31
0.0000
  0
LINE
  8
48
 10
0.0000
 20
4.0371
 30
0.0000
 11
0.0000
 21
5.0556
 31
0.0000
  0
LINE
  8
48
 10
0.0000
 20
6.0556
 30
0.0000
 11
0.0000
 21
7.0742
 31
0.0000
  0
LINE
  8
48
 10
0.0000
 20
8.0742
 30
0.0000
 11
0.0000
 21
9.0927
 31
0.0000
  0
LINE
  8
48
 10
0.0000
 20
10.0927
 30
0.0000
 11
0.0000
 21
11.1113
 31
0.0000
  0
LINE
  8
48
 10
0.0000
 20
12.1113
 30
0.0000
 11
0.0000
 21
13.1298
 31
0.0000
  0
LINE
  8
48
 10
0.0000
 20
14.1298
 30
0.0000
 11
0.0000
 21
15.1483
 31
0.0000
  0
LINE
  8
48
 10
0.0000
 20
16.1483
 30
0.0000
 11
0.0000
 21
17.1669
 31
0.0000
  0
LINE
  8
48
 10
0.0000
 20
18.1669
 30
0.0000
 11
0.0000
 21
19.1854
 31
0.0000
  0
LINE
  8
48
 10
0.0000
 20
20.1854
 30
0.0000
 11
0.0000
 21
21.2040
 31
0.0000
  0
LINE
  8
48
 10
0.0000
 20
22.2040
 30
0.0000
 11
0.0000
 21
23.2225
 31
0.0000
  0
LINE
  8
48
 10
0.0000
 20
24.2225
 30
0.0000
 11
0.0000
 21
25.2410
 31
0.0000
  0
LINE
  8
48
 10
0.0000
 20
26.2410
 30
0.0000
 11
0.0000
 21
27.2596
 31
0.0000
  0
LINE
  8
48
 10
0.0000
 20
28.2596
 30
0.0000
 11
0.0000
 21
29.2781
 31
0.0000
  0
LINE
  8
48
 10
0.0000
 20
30.2781
 30
0.0000
 11
0.0000
 21
31.2967
 31
0.0000
  0
LINE
  8
48
 10
0.0000
 20
32.2967
 30
0.0000
 11
0.0000
 21
33.3152
 31
0.0000
  0
LINE
  8
48
 10
0.0000
 20
34.3152
 30
0.0000
 11
0.0000
 21
35.3338
 31
0.0000
  0
LINE
  8
48
 10
0.0000
 20
36.3338
 30
0.0000
 11
0.0000
 21
37.3523
 31
0.0000
  0
LINE
  8
48
 10
0.0000
 20
38.3523
 30
0.0000
 11
0.0000
 21
39.3708
 31
0.0000
  0
LINE
  8
48
 10
0.0000
 20
40.3708
 30
0.0000
 11
0.0000
 21
41.3894
 31
0.0000
  0
LINE
  8
48
 10
0.0000
 20
42.3894
 30
0.0000
 11
0.0000
 21
43.4079
 31
0.0000
  0
LINE
  8
48
 10
0.0000
 20
44.4079
 30
0.0000
 11
0.0000
 21
45.4265
 31
0.0000
  0
LINE
  8
48
 10
0.0000
 20
46.4265
 30
0.0000
 11
0.0000
 21
47.4450
 31
0.0000
  0
LINE
  8
48
 10
0.0000
 20
48.4450
 30
0.0000
 11
0.0000
 21
49.4635
 31
0.0000
  0
LINE
  8
48
 10
0.0000
 20
50.4635
 30
0.0000
 11
0.0000
 21
51.4821
 31
0.0000
  0
LINE
  8
48
 10
0.0000
 20
52.4821
 30
0.0000
 11
0.0000
 21
53.5006
 31
0.0000
  0
LINE
  8
48
 10
0.0000
 20
54.5006
 30
0.0000
 11
0.0000
 21
55.5192
 31
0.0000
  0
LINE
  8
48
 10
0.0000
 20
56.5192
 30
0.0000
 11
0.0000
 21
57.5377
 31
0.0000
  0
LINE
  8
48
 10
0.0000
 20
58.5377
 30
0.0000
 11
0.0000
 21
59.5563
 31
0.0000
  0
LINE
  8
48
 10
0.0000
 20
60.5563
 30
0.0000
 11
0.0000
 21
61.5748
 31
0.0000
  0
LINE
  8
48
 10
0.0000
 20
62.5748
 30
0.0000
 11
0.0000
 21
63.5933
 31
0.0000
  0
LINE
  8
48
 10
0.0000
 20
64.5933
 30
0.0000
 11
0.0000
 21
65.6119
 31
0.0000
  0
LINE
  8
48
 10
0.0000
 20
66.6119
 30
0.0000
 11
0.0000
 21
67.6304
 31
0.0000
  0
LINE
  8
48
 10
0.0000
 20
68.6304
 30
0.0000
 11
0.0000
 21
69.6490
 31
0.0000
  0
LINE
  8
48
 10
0.0000
 20
70.6490
 30
0.0000
 11
0.0000
 21
71.6675
 31
0.0000
  0
LINE
  8
48
 10
0.0000
 20
72.6675
 30
0.0000
 11
0.0000
 21
73.6860
 31
0.0000
  0
LINE
  8
48
 10
0.0000
 20
74.6860
 30
0.0000
 11
0.0000
 21
75.7046
 31
0.0000
  0
LINE
  8
48
 10
0.0000
 20
76.7046
 30
0.0000
 11
0.0000
 21
77.7231
 31
0.0000
  0
LINE
  8
48
 10
0.0000
 20
78.7231
 30
0.0000
 11
0.0000
 21
79.7417
 31
0.0000
  0
LINE
  8
48
 10
0.0000
 20
80.7417
 30
0.0000
 11
0.0000
 21
81.7602
 31
0.0000
  0
LINE
  8
48
 10
0.0000
 20
82.7602
 30
0.0000
 11
0.0000
 21
83.7788
 31
0.0000
  0
LINE
  8
48
 10
0.0000
 20
84.7788
 30
0.0000
 11
0.0000
 21
85.7973
 31
0.0000
  0
LINE
  8
48
 10
0.0000
 20
86.7973
 30
0.0000
 11
0.0000
 21
87.8158
 31
0.0000
  0
LINE
  8
48
 10
0.0000
 20
88.8158
 30
0.0000
 11
0.0000
 21
89.8344
 31
0.0000
  0
LINE
  8
48
 10
0.0000
 20
90.8344
 30
0.0000
 11
0.0000
 21
91.8529
 31
0.0000
  0
LINE
  8
48
 10
0.0000
 20
92.8529
 30
0.0000
 11
0.0000
 21
93.8715
 31
0.0000
  0
LINE
  8
48
 10
0.0000
 20
94.8715
 30
0.0000
 11
0.0000
 21
95.8900
 31
0.0000
  0
LINE
  8
48
 10
0.0000
 20
95.8900
 30
0.0000
 11
1.0260
 21
95.8900
 31
0.0000
  0
LINE
  8
48
 10
2.0260
 20
95.8900
 30
0.0000
 11
3.0520
 21
95.8900
 31
0.0000
  0
LINE
  8
48
 10
4.0520
 20
95.8900
 30
0.0000
 11
5.0780
 21
95.8900
 31
0.0000
  0
LINE
  8
48
 10
6.0780
 20
95.8900
 30
0.0000
 11
7.1040
 21
95.8900
 31
0.0000
  0
LINE
  8
48
 10
8.1040
 20
95.8900
 30
0.0000
 11
9.1300
 21
95.8900
 31
0.0000
  0
LINE
  8
48
 10
10.1300
 20
95.8900
 30
0.0000
 11
11.1560
 21
95.8900
 31
0.0000
  0
LINE
  8
48
 10
12.1560
 20
95.8900
 30
0.0000
 11
13.1820
 21
95.8900
 31
0.0000
  0
LINE
  8
48
 10
14.1820
 20
95.8900
 30
0.0000
 11
15.2080
 21
95.8900
 31
0.0000
  0
LINE
  8
48
 10
16.2080
 20
95.8900
 30
0.0000
 11
17.2340
 21
95.8900
 31
0.0000
  0
LINE
  8
48
 10
18.2340
 20
95.8900
 30
0.0000
 11
19.2600
 21
95.8900
 31
0.0000
  0
LINE
  8
48
 10
20.2600
 20
95.8900
 30
0.0000
 11
21.2860
 21
95.8900
 31
0.0000
  0
LINE
  8
48
 10
22.2860
 20
95.8900
 30
0.0000
 11
23.3120
 21
95.8900
 31
0.0000
  0
LINE
  8
48
 10
24.3120
 20
95.8900
 30
0.0000
 11
25.3380
 21
95.8900
 31
0.0000
  0
LINE
  8
48
 10
26.3380
 20
95.8900
 30
0.0000
 11
27.3640
 21
95.8900
 31
0.0000
  0
LINE
  8
48
 10
28.3640
 20
95.8900
 30
0.0000
 11
29.3900
 21
95.8900
 31
0.0000
  0
LINE
  8
48
 10
30.3900
 20
95.8900
 30
0.0000
 11
31.4160
 21
95.8900
 31
0.0000
  0
LINE
  8
48
 10
32.4160
 20
95.8900
 30
0.0000
 11
33.4420
 21
95.8900
 31
0.0000
  0
LINE
  8
48
 10
34.4420
 20
95.8900
 30
0.0000
 11
35.4680
 21
95.8900
 31
0.0000
  0
LINE
  8
48
 10
36.4680
 20
95.8900
 30
0.0000
 11
37.4940
 21
95.8900
 31
0.0000
  0
LINE
  8
48
 10
38.4940
 20
95.8900
 30
0.0000
 11
39.5200
 21
95.8900
 31
0.0000
  0
LINE
  8
48
 10
40.5200
 20
95.8900
 30
0.0000
 11
41.5460
 21
95.8900
 31
0.0000
  0
LINE
  8
48
 10
42.5460
 20
95.8900
 30
0.0000
 11
43.5720
 21
95.8900
 31
0.0000
  0
LINE
  8
48
 10
44.5720
 20
95.8900
 30
0.0000
 11
45.5980
 21
95.8900
 31
0.0000
  0
LINE
  8
48
 10
46.5980
 20
95.8900
 30
0.0000
 11
47.6240
 21
95.8900
 31
0.0000
  0
LINE
  8
48
 10
48.6240
 20
95.8900
 30
0.0000
 11
49.6500
 21
95.8900
 31
0.0000
  0
LINE
  8
48
 10
50.6500
 20
95.8900
 30
0.0000
 11
51.6760
 21
95.8900
 31
0.0000
  0
LINE
  8
48
 10
52.6760
 20
95.8900
 30
0.0000
 11
53.7020
 21
95.8900
 31
0.0000
  0
LINE
  8
48
 10
54.7020
 20
95.8900
 30
0.0000
 11
55.7280
 21
95.8900
 31
0.0000
  0
LINE
  8
48
 10
56.7280
 20
95.8900
 30
0.0000
 11
57.7540
 21
95.8900
 31
0.0000
  0
LINE
  8
48
 10
58.7540
 20
95.8900
 30
0.0000
 11
59.7800
 21
95.8900
 31
0.0000
  0
LINE
  8
48
 10
60.7800
 20
95.8900
 30
0.0000
 11
61.8060
 21
95.8900
 31
0.0000
  0
LINE
  8
48
 10
62.8060
 20
95.8900
 30
0.0000
 11
63.8320
 21
95.8900
 31
0.0000
  0
LINE
  8
48
 10
64.8320
 20
95.8900
 30
0.0000
 11
65.8580
 21
95.8900
 31
0.0000
  0
LINE
  8
48
 10
66.8580
 20
95.8900
 30
0.0000
 11
67.8840
 21
95.8900
 31
0.0000
  0
LINE
  8
48
 10
68.8840
 20
95.8900
 30
0.0000
 11
69.9100
 21
95.8900
 31
0.0000
  0
LINE
  8
48
 10
70.9100
 20
95.8900
 30
0.0000
 11
71.9360
 21
95.8900
 31
0.0000
  0
LINE
  8
48
 10
72.9360
 20
95.8900
 30
0.0000
 11
73.9620
 21
95.8900
 31
0.0000
  0
LINE
  8
48
 10
74.9620
 20
95.8900
 30
0.0000
 11
75.9880
 21
95.8900
 31
0.0000
  0
LINE
  8
48
 10
76.9880
 20
95.8900
 30
0.0000
 11
78.0140
 21
95.8900
 31
0.0000
  0
LINE
  8
48
 10
79.0140
 20
95.8900
 30
0.0000
 11
80.0400
 21
95.8900
 31
0.0000
  0
LINE
  8
48
 10
81.0400
 20
95.8900
 30
0.0000
 11
82.0660
 21
95.8900
 31
0.0000
  0
LINE
  8
48
 10
83.0660
 20
95.8900
 30
0.0000
 11
84.0920
 21
95.8900
 31
0.0000
  0
LINE
  8
48
 10
85.0920
 20
95.8900
 30
0.0000
 11
86.1180
 21
95.8900
 31
0.0000
  0
LINE
  8
48
 10
87.1180
 20
95.8900
 30
0.0000
 11
88.1440
 21
95.8900
 31
0.0000
  0
LINE
  8
48
 10
89.1440
 20
95.8900
 30
0.0000
 11
90.1700
 21
95.8900
 31
0.0000
  0
LINE
  8
48
 10
90.1700
 20
25.5740
 30
0.0000
 11
89.1700
 21
25.5740
 31
0.0000
  0
LINE
  8
48
 10
88.1700
 20
25.5740
 30
0.0000
 11
87.1700
 21
25.5740
 31
0.0000
  0
LINE
  8
48
 10
86.1700
 20
25.5740
 30
0.0000
 11
85.1700
 21
25.5740
 31
0.0000
  0
LINE
  8
48
 10
84.1700
 20
25.5740
 30
0.0000
 11
83.1700
 21
25.5740
 31
0.0000
  0
LINE
  8
48
 10
82.1700
 20
25.5740
 30
0.0000
 11
81.1700
 21
25.5740
 31
0.0000
  0
LINE
  8
48
 10
80.1700
 20
25.5740
 30
0.0000
 11
79.1700
 21
25.5740
 31
0.0000
  0
LINE
  8
48
 10
78.1700
 20
25.5740
 30
0.0000
 11
77.1700
 21
25.5740
 31
0.0000
  0
LINE
  8
48
 10
76.1700
 20
25.5740
 30
0.0000
 11
75.1700
 21
25.5740
 31
0.0000
  0
LINE
  8
48
 10
74.1700
 20
25.5740
 30
0.0000
 11
73.1700
 21
25.5740
 31
0.0000
  0
LINE
  8
48
 10
72.1700
 20
25.5740
 30
0.0000
 11
71.1700
 21
25.5740
 31
0.0000
  0
LINE
  8
48
 10
70.1700
 20
25.5740
 30
0.0000
 11
69.1700
 21
25.5740
 31
0.0000
  0
LINE
  8
48
 10
68.1700
 20
25.5740
 30
0.0000
 11
67.1700
 21
25.5740
 31
0.0000
  0
LINE
  8
48
 10
66.1700
 20
25.5740
 30
0.0000
 11
65.1700
 21
25.5740
 31
0.0000
  0
LINE
  8
48
 10
90.1700
 20
57.5740
 30
0.0000
 11
89.1700
 21
57.5740
 31
0.0000
  0
LINE
  8
48
 10
88.1700
 20
57.5740
 30
0.0000
 11
87.1700
 21
57.5740
 31
0.0000
  0
LINE
  8
48
 10
86.1700
 20
57.5740
 30
0.0000
 11
85.1700
 21
57.5740
 31
0.0000
  0
LINE
  8
48
 10
84.1700
 20
57.5740
 30
0.0000
 11
83.1700
 21
57.5740
 31
0.0000
  0
LINE
  8
48
 10
82.1700
 20
57.5740
 30
0.0000
 11
81.1700
 21
57.5740
 31
0.0000
  0
LINE
  8
48
 10
80.1700
 20
57.5740
 30
0.0000
 11
79.1700
 21
57.5740
 31
0.0000
  0
LINE
  8
48
 10
78.1700
 20
57.5740
 30
0.0000
 11
77.1700
 21
57.5740
 31
0.0000
  0
LINE
  8
48
 10
76.1700
 20
57.5740
 30
0.0000
 11
75.1700
 21
57.5740
 31
0.0000
  0
LINE
  8
48
 10
74.1700
 20
57.5740
 30
0.0000
 11
73.1700
 21
57.5740
 31
0.0000
  0
LINE
  8
48
 10
72.1700
 20
57.5740
 30
0.0000
 11
71.1700
 21
57.5740
 31
0.0000
  0
LINE
  8
48
 10
70.1700
 20
57.5740
 30
0.0000
 11
69.1700
 21
57.5740
 31
0.0000
  0
LINE
  8
48
 10
68.1700
 20
57.5740
 30
0.0000
 11
67.1700
 21
57.5740
 31
0.0000
  0
LINE
  8
48
 10
66.1700
 20
57.5740
 30
0.0000
 11
65.1700
 21
57.5740
 31
0.0000
  0
POLYLINE
  8
21
 66
1
 10
0.0000
 20
0.0000
 30
0.0000
 40
0.0762
 41
0.0762
 70
0
  0
VERTEX
  8
21
 10
86.7062
 20
12.3269
 30
0.0000
  0
VERTEX
  8
21
 10
85.9224
 20
12.3269
 30
0.0000
  0
SEQEND
  8
0
  0
POLYLINE
  8
21
 66
1
 10
0.0000
 20
0.0000
 30
0.0000
 40
0.0381
 41
0.0381
 70
0
  0
VERTEX
  8
21
 10
85.9224
 20
12.3460
 30
0.0000
 42
1.0000
  0
VERTEX
  8
21
 10
85.9224
 20
12.3079
 30
0.0000
  0
SEQEND
  8
0
  0
POLYLINE
  8
21
 66
1
 10
0.0000
 20
0.0000
 30
0.0000
 40
0.0381
 41
0.0381
 70
0
  0
VERTEX
  8
21
 10
86.7062
 20
12.3079
 30
0.0000
 42
1.0000
  0
VERTEX
  8
21
 10
86.7062
 20
12.3460
 30
0.0000
  0
SEQEND
  8
0
  0
POLYLINE
  8
21
 66
1
 10
0.0000
 20
0.0000
 30
0.0000
 40
0.0762
 41
0.0762
 70
0
  0
VERTEX
  8
21
 10
85.9224
 20
12.3269
 30
0.0000
  0
VERTEX
  8
21
 10
85.7656
 20
12.1701
 30
0.0000
  0
SEQEND
  8
0
  0
POLYLINE
  8
21
 66
1
 10
0.0000
 20
0.0000
 30
0.0000
 40
0.0381
 41
0.0381
 70
0
  0
VERTEX
  8
21
 10
85.7521
 20
12.1836
 30
0.0000
 42
1.0000
  0
VERTEX
  8
21
 10
85.7791
 20
12.1567
 30
0.0000
  0
SEQEND
  8
0
  0
POLYLINE
  8
21
 66
1
 10
0.0000
 20
0.0000
 30
0.0000
 40
0.0381
 41
0.0381
 70
0
  0
VERTEX
  8
21
 10
85.9358
 20
12.3134
 30
0.0000
 42
1.0000
  0
VERTEX
  8
21
 10
85.9089
 20
12.3404
 30
0.0000
  0
SEQEND
  8
0
  0
POLYLINE
  8
21
 66
1
 10
0.0000
 20
0.0000
 30
0.0000
 40
0.0762
 41
0.0762
 70
0
  0
VERTEX
  8
21
 10
85.7656
 20
12.1701
 30
0.0000
  0
VERTEX
  8
21
 10
85.7656
 20
11.8566
 30
0.0000
  0
SEQEND
  8
0
  0
POLYLINE
  8
21
 66
1
 10
0.0000
 20
0.0000
 30
0.0000
 40
0.0381
 41
0.0381
 70
0
  0
VERTEX
  8
21
 10
85.7466
 20
11.8566
 30
0.0000
 42
1.0000
  0
VERTEX
  8
21
 10
85.7846
 20
11.8566
 30
0.0000
  0
SEQEND
  8
0
  0
POLYLINE
  8
21
 66
1
 10
0.0000
 20
0.0000
 30
0.0000
 40
0.0381
 41
0.0381
 70
0
  0
VERTEX
  8
21
 10
85.7846
 20
12.1701
 30
0.0000
 42
1.0000
  0
VERTEX
  8
21
 10
85.7466
 20
12.1701
 30
0.0000
  0
SEQEND
  8
0
  0
POLYLINE
  8
21
 66
1
 10
0.0000
 20
0.0000
 30
0.0000
 40
0.0762
 41
0.0762
 70
0
  0
VERTEX
  8
21
 10
85.7656
 20
11.8566
 30
0.0000
  0
VERTEX
  8
21
 10
85.9224
 20
11.6998
 30
0.0000
  0
SEQEND
  8
0
  0
POLYLINE
  8
21
 66
1
 10
0.0000
 20
0.0000
 30
0.0000
 40
0.0381
 41
0.0381
 70
0
  0
VERTEX
  8
21
 10
85.9089
 20
11.6864
 30
0.0000
 42
1.0000
  0
VERTEX
  8
21
 10
85.9358
 20
11.7133
 30
0.0000
  0
SEQEND
  8
0
  0
POLYLINE
  8
21
 66
1
 10
0.0000
 20
0.0000
 30
0.0000
 40
0.0381
 41
0.0381
 70
0
  0
VERTEX
  8
21
 10
85.7791
 20
11.8701
 30
0.0000
 42
1.0000
  0
VERTEX
  8
21
 10
85.7521
 20
11.8431
 30
0.0000
  0
SEQEND
  8
0
  0
POLYLINE
  8
21
 66
1
 10
0.0000
 20
0.0000
 30
0.0000
 40
0.0762
 41
0.0762
 70
0
  0
VERTEX
  8
21
 10
85.9224
 20
11.6998
 30
0.0000
  0
VERTEX
  8
21
 10
86.7062
 20
11.6998
 30
0.0000
  0
SEQEND
  8
0
  0
POLYLINE
  8
21
 66
1
 10
0.0000
 20
0.0000
 30
0.0000
 40
0.0381
 41
0.0381
 70
0
  0
VERTEX
  8
21
 10
86.7062
 20
11.6808
 30
0.0000
 42
1.0000
  0
VERTEX
  8
21
 10
86.7062
 20
11.7189
 30
0.0000
  0
SEQEND
  8
0
  0
POLYLINE
  8
21
 66
1
 10
0.0000
 20
0.0000
 30
0.0000
 40
0.0381
 41
0.0381
 70
0
  0
VERTEX
  8
21
 10
85.9224
 20
11.7189
 30
0.0000
 42
1.0000
  0
VERTEX
  8
21
 10
85.9224
 20
11.6808
 30
0.0000
  0
SEQEND
  8
0
  0
POLYLINE
  8
21
 66
1
 10
0.0000
 20
0.0000
 30
0.0000
 40
0.0762
 41
0.0762
 70
0
  0
VERTEX
  8
21
 10
85.7656
 20
11.3914
 30
0.0000
  0
VERTEX
  8
21
 10
86.7062
 20
10.7643
 30
0.0000
  0
SEQEND
  8
0
  0
POLYLINE
  8
21
 66
1
 10
0.0000
 20
0.0000
 30
0.0000
 40
0.0381
 41
0.0381
 70
0
  0
VERTEX
  8
21
 10
86.6956
 20
10.7485
 30
0.0000
 42
1.0000
  0
VERTEX
  8
21
 10
86.7168
 20
10.7802
 30
0.0000
  0
SEQEND
  8
0
  0
POLYLINE
  8
21
 66
1
 10
0.0000
 20
0.0000
 30
0.0000
 40
0.0381
 41
0.0381
 70
0
  0
VERTEX
  8
21
 10
85.7762
 20
11.4072
 30
0.0000
 42
1.0000
  0
VERTEX
  8
21
 10
85.7550
 20
11.3755
 30
0.0000
  0
SEQEND
  8
0
  0
POLYLINE
  8
22
 66
1
 10
0.0000
 20
0.0000
 30
0.0000
 40
0.0762
 41
0.0762
 70
0
  0
VERTEX
  8
22
 10
86.8300
 20
12.3707
 30
0.0000
  0
VERTEX
  8
22
 10
87.7707
 20
12.3707
 30
0.0000
  0
SEQEND
  8
0
  0
POLYLINE
  8
22
 66
1
 10
0.0000
 20
0.0000
 30
0.0000
 40
0.0381
 41
0.0381
 70
0
  0
VERTEX
  8
22
 10
87.7707
 20
12.3516
 30
0.0000
 42
1.0000
  0
VERTEX
  8
22
 10
87.7707
 20
12.3897
 30
0.0000
  0
SEQEND
  8
0
  0
POLYLINE
  8
22
 66
1
 10
0.0000
 20
0.0000
 30
0.0000
 40
0.0381
 41
0.0381
 70
0
  0
VERTEX
  8
22
 10
86.8300
 20
12.3897
 30
0.0000
 42
1.0000
  0
VERTEX
  8
22
 10
86.8300
 20
12.3516
 30
0.0000
  0
SEQEND
  8
0
  0
POLYLINE
  8
22
 66
1
 10
0.0000
 20
0.0000
 30
0.0000
 40
0.0762
 41
0.0762
 70
0
  0
VERTEX
  8
22
 10
87.7707
 20
12.3707
 30
0.0000
  0
VERTEX
  8
22
 10
87.7707
 20
11.7436
 30
0.0000
  0
SEQEND
  8
0
  0
POLYLINE
  8
22
 66
1
 10
0.0000
 20
0.0000
 30
0.0000
 40
0.0381
 41
0.0381
 70
0
  0
VERTEX
  8
22
 10
87.7516
 20
11.7436
 30
0.0000
 42
1.0000
  0
VERTEX
  8
22
 10
87.7897
 20
11.7436
 30
0.0000
  0
SEQEND
  8
0
  0
POLYLINE
  8
22
 66
1
 10
0.0000
 20
0.0000
 30
0.0000
 40
0.0381
 41
0.0381
 70
0
  0
VERTEX
  8
22
 10
87.7897
 20
12.3707
 30
0.0000
 42
1.0000
  0
VERTEX
  8
22
 10
87.7516
 20
12.3707
 30
0.0000
  0
SEQEND
  8
0
  0
POLYLINE
  8
22
 66
1
 10
0.0000
 20
0.0000
 30
0.0000
 40
0.0762
 41
0.0762
 70
0
  0
VERTEX
  8
22
 10
87.7707
 20
11.4351
 30
0.0000
  0
VERTEX
  8
22
 10
86.8300
 20
10.8081
 30
0.0000
  0
SEQEND
  8
0
  0
POLYLINE
  8
22
 66
1
 10
0.0000
 20
0.0000
 30
0.0000
 40
0.0381
 41
0.0381
 70
0
  0
VERTEX
  8
22
 10
86.8195
 20
10.8239
 30
0.0000
 42
1.0000
  0
VERTEX
  8
22
 10
86.8406
 20
10.7922
 30
0.0000
  0
SEQEND
  8
0
  0
POLYLINE
  8
22
 66
1
 10
0.0000
 20
0.0000
 30
0.0000
 40
0.0381
 41
0.0381
 70
0
  0
VERTEX
  8
22
 10
87.7812
 20
11.4193
 30
0.0000
 42
1.0000
  0
VERTEX
  8
22
 10
87.7601
 20
11.4510
 30
0.0000
  0
SEQEND
  8
0
  0
POLYLINE
  8
21
 66
1
 10
0.0000
 20
0.0000
 30
0.0000
 40
0.0762
 41
0.0762
 70
0
  0
VERTEX
  8
21
 10
86.6437
 20
10.7107
 30
0.0000
  0
VERTEX
  8
21
 10
86.1734
 20
10.0836
 30
0.0000
  0
SEQEND
  8
0
  0
POLYLINE
  8
21
 66
1
 10
0.0000
 20
0.0000
 30
0.0000
 40
0.0381
 41
0.0381
 70
0
  0
VERTEX
  8
21
 10
86.1582
 20
10.0950
 30
0.0000
 42
1.0000
  0
VERTEX
  8
21
 10
86.1886
 20
10.0722
 30
0.0000
  0
SEQEND
  8
0
  0
POLYLINE
  8
21
 66
1
 10
0.0000
 20
0.0000
 30
0.0000
 40
0.0381
 41
0.0381
 70
0
  0
VERTEX
  8
21
 10
86.6589
 20
10.6992
 30
0.0000
 42
1.0000
  0
VERTEX
  8
21
 10
86.6285
 20
10.7221
 30
0.0000
  0
SEQEND
  8
0
  0
POLYLINE
  8
21
 66
1
 10
0.0000
 20
0.0000
 30
0.0000
 40
0.0762
 41
0.0762
 70
0
  0
VERTEX
  8
21
 10
86.1734
 20
10.0836
 30
0.0000
  0
VERTEX
  8
21
 10
85.7031
 20
10.7107
 30
0.0000
  0
SEQEND
  8
0
  0
POLYLINE
  8
21
 66
1
 10
0.0000
 20
0.0000
 30
0.0000
 40
0.0381
 41
0.0381
 70
0
  0
VERTEX
  8
21
 10
85.7183
 20
10.7221
 30
0.0000
 42
1.0000
  0
VERTEX
  8
21
 10
85.6879
 20
10.6992
 30
0.0000
  0
SEQEND
  8
0
  0
POLYLINE
  8
21
 66
1
 10
0.0000
 20
0.0000
 30
0.0000
 40
0.0381
 41
0.0381
 70
0
  0
VERTEX
  8
21
 10
86.1582
 20
10.0722
 30
0.0000
 42
1.0000
  0
VERTEX
  8
21
 10
86.1886
 20
10.0950
 30
0.0000
  0
SEQEND
  8
0
  0
POLYLINE
  8
21
 66
1
 10
0.0000
 20
0.0000
 30
0.0000
 40
0.0762
 41
0.0762
 70
0
  0
VERTEX
  8
21
 10
85.7031
 20
9.7751
 30
0.0000
  0
VERTEX
  8
21
 10
86.6437
 20
9.7751
 30
0.0000
  0
SEQEND
  8
0
  0
POLYLINE
  8
21
 66
1
 10
0.0000
 20
0.0000
 30
0.0000
 40
0.0381
 41
0.0381
 70
0
  0
VERTEX
  8
21
 10
86.6437
 20
9.7561
 30
0.0000
 42
1.0000
  0
VERTEX
  8
21
 10
86.6437
 20
9.7942
 30
0.0000
  0
SEQEND
  8
0
  0
POLYLINE
  8
21
 66
1
 10
0.0000
 20
0.0000
 30
0.0000
 40
0.0381
 41
0.0381
 70
0
  0
VERTEX
  8
21
 10
85.7031
 20
9.7942
 30
0.0000
 42
1.0000
  0
VERTEX
  8
21
 10
85.7031
 20
9.7561
 30
0.0000
  0
SEQEND
  8
0
  0
POLYLINE
  8
21
 66
1
 10
0.0000
 20
0.0000
 30
0.0000
 40
0.0762
 41
0.0762
 70
0
  0
VERTEX
  8
21
 10
86.6437
 20
9.7751
 30
0.0000
  0
VERTEX
  8
21
 10
86.6437
 20
9.3048
 30
0.0000
  0
SEQEND
  8
0
  0
POLYLINE
  8
21
 66
1
 10
0.0000
 20
0.0000
 30
0.0000
 40
0.0381
 41
0.0381
 70
0
  0
VERTEX
  8
21
 10
86.6247
 20
9.3048
 30
0.0000
 42
1.0000
  0
VERTEX
  8
21
 10
86.6628
 20
9.3048
 30
0.0000
  0
SEQEND
  8
0
  0
POLYLINE
  8
21
 66
1
 10
0.0000
 20
0.0000
 30
0.0000
 40
0.0381
 41
0.0381
 70
0
  0
VERTEX
  8
21
 10
86.6628
 20
9.7751
 30
0.0000
 42
1.0000
  0
VERTEX
  8
21
 10
86.6247
 20
9.7751
 30
0.0000
  0
SEQEND
  8
0
  0
POLYLINE
  8
21
 66
1
 10
0.0000
 20
0.0000
 30
0.0000
 40
0.0762
 41
0.0762
 70
0
  0
VERTEX
  8
21
 10
86.6437
 20
9.3048
 30
0.0000
  0
VERTEX
  8
21
 10
86.4869
 20
9.1481
 30
0.0000
  0
SEQEND
  8
0
  0
POLYLINE
  8
21
 66
1
 10
0.0000
 20
0.0000
 30
0.0000
 40
0.0381
 41
0.0381
 70
0
  0
VERTEX
  8
21
 10
86.4735
 20
9.1615
 30
0.0000
 42
1.0000
  0
VERTEX
  8
21
 10
86.5004
 20
9.1346
 30
0.0000
  0
SEQEND
  8
0
  0
POLYLINE
  8
21
 66
1
 10
0.0000
 20
0.0000
 30
0.0000
 40
0.0381
 41
0.0381
 70
0
  0
VERTEX
  8
21
 10
86.6572
 20
9.2914
 30
0.0000
 42
1.0000
  0
VERTEX
  8
21
 10
86.6302
 20
9.3183
 30
0.0000
  0
SEQEND
  8
0
  0
POLYLINE
  8
21
 66
1
 10
0.0000
 20
0.0000
 30
0.0000
 40
0.0762
 41
0.0762
 70
0
  0
VERTEX
  8
21
 10
86.4869
 20
9.1481
 30
0.0000
  0
VERTEX
  8
21
 10
86.1734
 20
9.1481
 30
0.0000
  0
SEQEND
  8
0
  0
POLYLINE
  8
21
 66
1
 10
0.0000
 20
0.0000
 30
0.0000
 40
0.0381
 41
0.0381
 70
0
  0
VERTEX
  8
21
 10
86.1734
 20
9.1671
 30
0.0000
 42
1.0000
  0
VERTEX
  8
21
 10
86.1734
 20
9.1290
 30
0.0000
  0
SEQEND
  8
0
  0
POLYLINE
  8
21
 66
1
 10
0.0000
 20
0.0000
 30
0.0000
 40
0.0381
 41
0.0381
 70
0
  0
VERTEX
  8
21
 10
86.4869
 20
9.1290
 30
0.0000
 42
1.0000
  0
VERTEX
  8
21
 10
86.4869
 20
9.1671
 30
0.0000
  0
SEQEND
  8
0
  0
POLYLINE
  8
21
 66
1
 10
0.0000
 20
0.0000
 30
0.0000
 40
0.0762
 41
0.0762
 70
0
  0
VERTEX
  8
21
 10
86.1734
 20
9.1481
 30
0.0000
  0
VERTEX
  8
21
 10
86.0166
 20
9.3048
 30
0.0000
  0
SEQEND
  8
0
  0
POLYLINE
  8
21
 66
1
 10
0.0000
 20
0.0000
 30
0.0000
 40
0.0381
 41
0.0381
 70
0
  0
VERTEX
  8
21
 10
86.0301
 20
9.3183
 30
0.0000
 42
1.0000
  0
VERTEX
  8
21
 10
86.0032
 20
9.2914
 30
0.0000
  0
SEQEND
  8
0
  0
POLYLINE
  8
21
 66
1
 10
0.0000
 20
0.0000
 30
0.0000
 40
0.0381
 41
0.0381
 70
0
  0
VERTEX
  8
21
 10
86.1599
 20
9.1346
 30
0.0000
 42
1.0000
  0
VERTEX
  8
21
 10
86.1869
 20
9.1615
 30
0.0000
  0
SEQEND
  8
0
  0
POLYLINE
  8
21
 66
1
 10
0.0000
 20
0.0000
 30
0.0000
 40
0.0762
 41
0.0762
 70
0
  0
VERTEX
  8
21
 10
86.0166
 20
9.3048
 30
0.0000
  0
VERTEX
  8
21
 10
86.0166
 20
9.7751
 30
0.0000
  0
SEQEND
  8
0
  0
POLYLINE
  8
21
 66
1
 10
0.0000
 20
0.0000
 30
0.0000
 40
0.0381
 41
0.0381
 70
0
  0
VERTEX
  8
21
 10
86.0357
 20
9.7751
 30
0.0000
 42
1.0000
  0
VERTEX
  8
21
 10
85.9976
 20
9.7751
 30
0.0000
  0
SEQEND
  8
0
  0
POLYLINE
  8
21
 66
1
 10
0.0000
 20
0.0000
 30
0.0000
 40
0.0381
 41
0.0381
 70
0
  0
VERTEX
  8
21
 10
85.9976
 20
9.3048
 30
0.0000
 42
1.0000
  0
VERTEX
  8
21
 10
86.0357
 20
9.3048
 30
0.0000
  0
SEQEND
  8
0
  0
POLYLINE
  8
21
 66
1
 10
0.0000
 20
0.0000
 30
0.0000
 40
0.0762
 41
0.0762
 70
0
  0
VERTEX
  8
21
 10
86.4869
 20
8.2125
 30
0.0000
  0
VERTEX
  8
21
 10
86.6437
 20
8.3693
 30
0.0000
  0
SEQEND
  8
0
  0
POLYLINE
  8
21
 66
1
 10
0.0000
 20
0.0000
 30
0.0000
 40
0.0381
 41
0.0381
 70
0
  0
VERTEX
  8
21
 10
86.6572
 20
8.3558
 30
0.0000
 42
1.0000
  0
VERTEX
  8
21
 10
86.6302
 20
8.3828
 30
0.0000
  0
SEQEND
  8
0
  0
POLYLINE
  8
21
 66
1
 10
0.0000
 20
0.0000
 30
0.0000
 40
0.0381
 41
0.0381
 70
0
  0
VERTEX
  8
21
 10
86.4735
 20
8.2260
 30
0.0000
 42
1.0000
  0
VERTEX
  8
21
 10
86.5004
 20
8.1991
 30
0.0000
  0
SEQEND
  8
0
  0
POLYLINE
  8
21
 66
1
 10
0.0000
 20
0.0000
 30
0.0000
 40
0.0762
 41
0.0762
 70
0
  0
VERTEX
  8
21
 10
86.6437
 20
8.3693
 30
0.0000
  0
VERTEX
  8
21
 10
86.6437
 20
8.6828
 30
0.0000
  0
SEQEND
  8
0
  0
POLYLINE
  8
21
 66
1
 10
0.0000
 20
0.0000
 30
0.0000
 40
0.0381
 41
0.0381
 70
0
  0
VERTEX
  8
21
 10
86.6628
 20
8.6828
 30
0.0000
 42
1.0000
  0
VERTEX
  8
21
 10
86.6247
 20
8.6828
 30
0.0000
  0
SEQEND
  8
0
  0
POLYLINE
  8
21
 66
1
 10
0.0000
 20
0.0000
 30
0.0000
 40
0.0381
 41
0.0381
 70
0
  0
VERTEX
  8
21
 10
86.6247
 20
8.3693
 30
0.0000
 42
1.0000
  0
VERTEX
  8
21
 10
86.6628
 20
8.3693
 30
0.0000
  0
SEQEND
  8
0
  0
POLYLINE
  8
21
 66
1
 10
0.0000
 20
0.0000
 30
0.0000
 40
0.0762
 41
0.0762
 70
0
  0
VERTEX
  8
21
 10
86.6437
 20
8.6828
 30
0.0000
  0
VERTEX
  8
21
 10
86.4869
 20
8.8396
 30
0.0000
  0
SEQEND
  8
0
  0
POLYLINE
  8
21
 66
1
 10
0.0000
 20
0.0000
 30
0.0000
 40
0.0381
 41
0.0381
 70
0
  0
VERTEX
  8
21
 10
86.5004
 20
8.8531
 30
0.0000
 42
1.0000
  0
VERTEX
  8
21
 10
86.4735
 20
8.8261
 30
0.0000
  0
SEQEND
  8
0
  0
POLYLINE
  8
21
 66
1
 10
0.0000
 20
0.0000
 30
0.0000
 40
0.0381
 41
0.0381
 70
0
  0
VERTEX
  8
21
 10
86.6302
 20
8.6694
 30
0.0000
 42
1.0000
  0
VERTEX
  8
21
 10
86.6572
 20
8.6963
 30
0.0000
  0
SEQEND
  8
0
  0
POLYLINE
  8
21
 66
1
 10
0.0000
 20
0.0000
 30
0.0000
 40
0.0762
 41
0.0762
 70
0
  0
VERTEX
  8
21
 10
86.4869
 20
8.8396
 30
0.0000
  0
VERTEX
  8
21
 10
85.8599
 20
8.8396
 30
0.0000
  0
SEQEND
  8
0
  0
POLYLINE
  8
21
 66
1
 10
0.0000
 20
0.0000
 30
0.0000
 40
0.0381
 41
0.0381
 70
0
  0
VERTEX
  8
21
 10
85.8599
 20
8.8587
 30
0.0000
 42
1.0000
  0
VERTEX
  8
21
 10
85.8599
 20
8.8206
 30
0.0000
  0
SEQEND
  8
0
  0
POLYLINE
  8
21
 66
1
 10
0.0000
 20
0.0000
 30
0.0000
 40
0.0381
 41
0.0381
 70
0
  0
VERTEX
  8
21
 10
86.4869
 20
8.8206
 30
0.0000
 42
1.0000
  0
VERTEX
  8
21
 10
86.4869
 20
8.8587
 30
0.0000
  0
SEQEND
  8
0
  0
POLYLINE
  8
21
 66
1
 10
0.0000
 20
0.0000
 30
0.0000
 40
0.0762
 41
0.0762
 70
0
  0
VERTEX
  8
21
 10
85.8599
 20
8.8396
 30
0.0000
  0
VERTEX
  8
21
 10
85.7031
 20
8.6828
 30
0.0000
  0
SEQEND
  8
0
  0
POLYLINE
  8
21
 66
1
 10
0.0000
 20
0.0000
 30
0.0000
 40
0.0381
 41
0.0381
 70
0
  0
VERTEX
  8
21
 10
85.6896
 20
8.6963
 30
0.0000
 42
1.0000
  0
VERTEX
  8
21
 10
85.7166
 20
8.6694
 30
0.0000
  0
SEQEND
  8
0
  0
POLYLINE
  8
21
 66
1
 10
0.0000
 20
0.0000
 30
0.0000
 40
0.0381
 41
0.0381
 70
0
  0
VERTEX
  8
21
 10
85.8733
 20
8.8261
 30
0.0000
 42
1.0000
  0
VERTEX
  8
21
 10
85.8464
 20
8.8531
 30
0.0000
  0
SEQEND
  8
0
  0
POLYLINE
  8
21
 66
1
 10
0.0000
 20
0.0000
 30
0.0000
 40
0.0762
 41
0.0762
 70
0
  0
VERTEX
  8
21
 10
85.7031
 20
8.6828
 30
0.0000
  0
VERTEX
  8
21
 10
85.7031
 20
8.3693
 30
0.0000
  0
SEQEND
  8
0
  0
POLYLINE
  8
21
 66
1
 10
0.0000
 20
0.0000
 30
0.0000
 40
0.0381
 41
0.0381
 70
0
  0
VERTEX
  8
21
 10
85.6841
 20
8.3693
 30
0.0000
 42
1.0000
  0
VERTEX
  8
21
 10
85.7221
 20
8.3693
 30
0.0000
  0
SEQEND
  8
0
  0
POLYLINE
  8
21
 66
1
 10
0.0000
 20
0.0000
 30
0.0000
 40
0.0381
 41
0.0381
 70
0
  0
VERTEX
  8
21
 10
85.7221
 20
8.6828
 30
0.0000
 42
1.0000
  0
VERTEX
  8
21
 10
85.6841
 20
8.6828
 30
0.0000
  0
SEQEND
  8
0
  0
POLYLINE
  8
21
 66
1
 10
0.0000
 20
0.0000
 30
0.0000
 40
0.0762
 41
0.0762
 70
0
  0
VERTEX
  8
21
 10
85.7031
 20
8.3693
 30
0.0000
  0
VERTEX
  8
21
 10
85.8599
 20
8.2125
 30
0.0000
  0
SEQEND
  8
0
  0
POLYLINE
  8
21
 66
1
 10
0.0000
 20
0.0000
 30
0.0000
 40
0.0381
 41
0.0381
 70
0
  0
VERTEX
  8
21
 10
85.8464
 20
8.1991
 30
0.0000
 42
1.0000
  0
VERTEX
  8
21
 10
85.8733
 20
8.2260
 30
0.0000
  0
SEQEND
  8
0
  0
POLYLINE
  8
21
 66
1
 10
0.0000
 20
0.0000
 30
0.0000
 40
0.0381
 41
0.0381
 70
0
  0
VERTEX
  8
21
 10
85.7166
 20
8.3828
 30
0.0000
 42
1.0000
  0
VERTEX
  8
21
 10
85.6896
 20
8.3558
 30
0.0000
  0
SEQEND
  8
0
  0
POLYLINE
  8
21
 66
1
 10
0.0000
 20
0.0000
 30
0.0000
 40
0.0762
 41
0.0762
 70
0
  0
VERTEX
  8
21
 10
85.7031
 20
7.9041
 30
0.0000
  0
VERTEX
  8
21
 10
86.6437
 20
7.9041
 30
0.0000
  0
SEQEND
  8
0
  0
POLYLINE
  8
21
 66
1
 10
0.0000
 20
0.0000
 30
0.0000
 40
0.0381
 41
0.0381
 70
0
  0
VERTEX
  8
21
 10
86.6437
 20
7.8850
 30
0.0000
 42
1.0000
  0
VERTEX
  8
21
 10
86.6437
 20
7.9231
 30
0.0000
  0
SEQEND
  8
0
  0
POLYLINE
  8
21
 66
1
 10
0.0000
 20
0.0000
 30
0.0000
 40
0.0381
 41
0.0381
 70
0
  0
VERTEX
  8
21
 10
85.7031
 20
7.9231
 30
0.0000
 42
1.0000
  0
VERTEX
  8
21
 10
85.7031
 20
7.8850
 30
0.0000
  0
SEQEND
  8
0
  0
POLYLINE
  8
21
 66
1
 10
0.0000
 20
0.0000
 30
0.0000
 40
0.0762
 41
0.0762
 70
0
  0
VERTEX
  8
21
 10
86.6437
 20
7.9041
 30
0.0000
  0
VERTEX
  8
21
 10
86.6437
 20
7.4338
 30
0.0000
  0
SEQEND
  8
0
  0
POLYLINE
  8
21
 66
1
 10
0.0000
 20
0.0000
 30
0.0000
 40
0.0381
 41
0.0381
 70
0
  0
VERTEX
  8
21
 10
86.6247
 20
7.4338
 30
0.0000
 42
1.0000
  0
VERTEX
  8
21
 10
86.6628
 20
7.4338
 30
0.0000
  0
SEQEND
  8
0
  0
POLYLINE
  8
21
 66
1
 10
0.0000
 20
0.0000
 30
0.0000
 40
0.0381
 41
0.0381
 70
0
  0
VERTEX
  8
21
 10
86.6628
 20
7.9041
 30
0.0000
 42
1.0000
  0
VERTEX
  8
21
 10
86.6247
 20
7.9041
 30
0.0000
  0
SEQEND
  8
0
  0
POLYLINE
  8
21
 66
1
 10
0.0000
 20
0.0000
 30
0.0000
 40
0.0762
 41
0.0762
 70
0
  0
VERTEX
  8
21
 10
86.6437
 20
7.4338
 30
0.0000
  0
VERTEX
  8
21
 10
86.4869
 20
7.2770
 30
0.0000
  0
SEQEND
  8
0
  0
POLYLINE
  8
21
 66
1
 10
0.0000
 20
0.0000
 30
0.0000
 40
0.0381
 41
0.0381
 70
0
  0
VERTEX
  8
21
 10
86.4735
 20
7.2905
 30
0.0000
 42
1.0000
  0
VERTEX
  8
21
 10
86.5004
 20
7.2636
 30
0.0000
  0
SEQEND
  8
0
  0
POLYLINE
  8
21
 66
1
 10
0.0000
 20
0.0000
 30
0.0000
 40
0.0381
 41
0.0381
 70
0
  0
VERTEX
  8
21
 10
86.6572
 20
7.4203
 30
0.0000
 42
1.0000
  0
VERTEX
  8
21
 10
86.6302
 20
7.4473
 30
0.0000
  0
SEQEND
  8
0
  0
POLYLINE
  8
21
 66
1
 10
0.0000
 20
0.0000
 30
0.0000
 40
0.0762
 41
0.0762
 70
0
  0
VERTEX
  8
21
 10
86.4869
 20
7.2770
 30
0.0000
  0
VERTEX
  8
21
 10
86.3302
 20
7.2770
 30
0.0000
  0
SEQEND
  8
0
  0
POLYLINE
  8
21
 66
1
 10
0.0000
 20
0.0000
 30
0.0000
 40
0.0381
 41
0.0381
 70
0
  0
VERTEX
  8
21
 10
86.3302
 20
7.2961
 30
0.0000
 42
1.0000
  0
VERTEX
  8
21
 10
86.3302
 20
7.2580
 30
0.0000
  0
SEQEND
  8
0
  0
POLYLINE
  8
21
 66
1
 10
0.0000
 20
0.0000
 30
0.0000
 40
0.0381
 41
0.0381
 70
0
  0
VERTEX
  8
21
 10
86.4869
 20
7.2580
 30
0.0000
 42
1.0000
  0
VERTEX
  8
21
 10
86.4869
 20
7.2961
 30
0.0000
  0
SEQEND
  8
0
  0
POLYLINE
  8
21
 66
1
 10
0.0000
 20
0.0000
 30
0.0000
 40
0.0762
 41
0.0762
 70
0
  0
VERTEX
  8
21
 10
86.3302
 20
7.2770
 30
0.0000
  0
VERTEX
  8
21
 10
86.1734
 20
7.4338
 30
0.0000
  0
SEQEND
  8
0
  0
POLYLINE
  8
21
 66
1
 10
0.0000
 20
0.0000
 30
0.0000
 40
0.0381
 41
0.0381
 70
0
  0
VERTEX
  8
21
 10
86.1869
 20
7.4473
 30
0.0000
 42
1.0000
  0
VERTEX
  8
21
 10
86.1599
 20
7.4203
 30
0.0000
  0
SEQEND
  8
0
  0
POLYLINE
  8
21
 66
1
 10
0.0000
 20
0.0000
 30
0.0000
 40
0.0381
 41
0.0381
 70
0
  0
VERTEX
  8
21
 10
86.3167
 20
7.2636
 30
0.0000
 42
1.0000
  0
VERTEX
  8
21
 10
86.3436
 20
7.2905
 30
0.0000
  0
SEQEND
  8
0
  0
POLYLINE
  8
21
 66
1
 10
0.0000
 20
0.0000
 30
0.0000
 40
0.0762
 41
0.0762
 70
0
  0
VERTEX
  8
21
 10
86.1734
 20
7.4338
 30
0.0000
  0
VERTEX
  8
21
 10
86.0166
 20
7.2770
 30
0.0000
  0
SEQEND
  8
0
  0
POLYLINE
  8
21
 66
1
 10
0.0000
 20
0.0000
 30
0.0000
 40
0.0381
 41
0.0381
 70
0
  0
VERTEX
  8
21
 10
86.0032
 20
7.2905
 30
0.0000
 42
1.0000
  0
VERTEX
  8
21
 10
86.0301
 20
7.2636
 30
0.0000
  0
SEQEND
  8
0
  0
POLYLINE
  8
21
 66
1
 10
0.0000
 20
0.0000
 30
0.0000
 40
0.0381
 41
0.0381
 70
0
  0
VERTEX
  8
21
 10
86.1869
 20
7.4203
 30
0.0000
 42
1.0000
  0
VERTEX
  8
21
 10
86.1599
 20
7.4473
 30
0.0000
  0
SEQEND
  8
0
  0
POLYLINE
  8
21
 66
1
 10
0.0000
 20
0.0000
 30
0.0000
 40
0.0762
 41
0.0762
 70
0
  0
VERTEX
  8
21
 10
86.0166
 20
7.2770
 30
0.0000
  0
VERTEX
  8
21
 10
85.8599
 20
7.2770
 30
0.0000
  0
SEQEND
  8
0
  0
POLYLINE
  8
21
 66
1
 10
0.0000
 20
0.0000
 30
0.0000
 40
0.0381
 41
0.0381
 70
0
  0
VERTEX
  8
21
 10
85.8599
 20
7.2961
 30
0.0000
 42
1.0000
  0
VERTEX
  8
21
 10
85.8599
 20
7.2580
 30
0.0000
  0
SEQEND
  8
0
  0
POLYLINE
  8
21
 66
1
 10
0.0000
 20
0.0000
 30
0.0000
 40
0.0381
 41
0.0381
 70
0
  0
VERTEX
  8
21
 10
86.0166
 20
7.2580
 30
0.0000
 42
1.0000
  0
VERTEX
  8
21
 10
86.0166
 20
7.2961
 30
0.0000
  0
SEQEND
  8
0
  0
POLYLINE
  8
21
 66
1
 10
0.0000
 20
0.0000
 30
0.0000
 40
0.0762
 41
0.0762
 70
0
  0
VERTEX
  8
21
 10
85.8599
 20
7.2770
 30
0.0000
  0
VERTEX
  8
21
 10
85.7031
 20
7.4338
 30
0.0000
  0
SEQEND
  8
0
  0
POLYLINE
  8
21
 66
1
 10
0.0000
 20
0.0000
 30
0.0000
 40
0.0381
 41
0.0381
 70
0
  0
VERTEX
  8
21
 10
85.7166
 20
7.4473
 30
0.0000
 42
1.0000
  0
VERTEX
  8
21
 10
85.6896
 20
7.4203
 30
0.0000
  0
SEQEND
  8
0
  0
POLYLINE
  8
21
 66
1
 10
0.0000
 20
0.0000
 30
0.0000
 40
0.0381
 41
0.0381
 70
0
  0
VERTEX
  8
21
 10
85.8464
 20
7.2636
 30
0.0000
 42
1.0000
  0
VERTEX
  8
21
 10
85.8733
 20
7.2905
 30
0.0000
  0
SEQEND
  8
0
  0
POLYLINE
  8
21
 66
1
 10
0.0000
 20
0.0000
 30
0.0000
 40
0.0762
 41
0.0762
 70
0
  0
VERTEX
  8
21
 10
85.7031
 20
7.4338
 30
0.0000
  0
VERTEX
  8
21
 10
85.7031
 20
7.9041
 30
0.0000
  0
SEQEND
  8
0
  0
POLYLINE
  8
21
 66
1
 10
0.0000
 20
0.0000
 30
0.0000
 40
0.0381
 41
0.0381
 70
0
  0
VERTEX
  8
21
 10
85.7221
 20
7.9041
 30
0.0000
 42
1.0000
  0
VERTEX
  8
21
 10
85.6841
 20
7.9041
 30
0.0000
  0
SEQEND
  8
0
  0
POLYLINE
  8
21
 66
1
 10
0.0000
 20
0.0000
 30
0.0000
 40
0.0381
 41
0.0381
 70
0
  0
VERTEX
  8
21
 10
85.6841
 20
7.4338
 30
0.0000
 42
1.0000
  0
VERTEX
  8
21
 10
85.7221
 20
7.4338
 30
0.0000
  0
SEQEND
  8
0
  0
POLYLINE
  8
21
 66
1
 10
0.0000
 20
0.0000
 30
0.0000
 40
0.0762
 41
0.0762
 70
0
  0
VERTEX
  8
21
 10
86.1734
 20
7.9041
 30
0.0000
  0
VERTEX
  8
21
 10
86.1734
 20
7.4338
 30
0.0000
  0
SEQEND
  8
0
  0
POLYLINE
  8
21
 66
1
 10
0.0000
 20
0.0000
 30
0.0000
 40
0.0381
 41
0.0381
 70
0
  0
VERTEX
  8
21
 10
86.1544
 20
7.4338
 30
0.0000
 42
1.0000
  0
VERTEX
  8
21
 10
86.1924
 20
7.4338
 30
0.0000
  0
SEQEND
  8
0
  0
POLYLINE
  8
21
 66
1
 10
0.0000
 20
0.0000
 30
0.0000
 40
0.0381
 41
0.0381
 70
0
  0
VERTEX
  8
21
 10
86.1924
 20
7.9041
 30
0.0000
 42
1.0000
  0
VERTEX
  8
21
 10
86.1544
 20
7.9041
 30
0.0000
  0
SEQEND
  8
0
  0
POLYLINE
  8
21
 66
1
 10
0.0000
 20
0.0000
 30
0.0000
 40
0.0762
 41
0.0762
 70
0
  0
VERTEX
  8
21
 10
86.6437
 20
6.9686
 30
0.0000
  0
VERTEX
  8
21
 10
85.7031
 20
6.9686
 30
0.0000
  0
SEQEND
  8
0
  0
POLYLINE
  8
21
 66
1
 10
0.0000
 20
0.0000
 30
0.0000
 40
0.0381
 41
0.0381
 70
0
  0
VERTEX
  8
21
 10
85.7031
 20
6.9876
 30
0.0000
 42
1.0000
  0
VERTEX
  8
21
 10
85.7031
 20
6.9495
 30
0.0000
  0
SEQEND
  8
0
  0
POLYLINE
  8
21
 66
1
 10
0.0000
 20
0.0000
 30
0.0000
 40
0.0381
 41
0.0381
 70
0
  0
VERTEX
  8
21
 10
86.6437
 20
6.9495
 30
0.0000
 42
1.0000
  0
VERTEX
  8
21
 10
86.6437
 20
6.9876
 30
0.0000
  0
SEQEND
  8
0
  0
POLYLINE
  8
21
 66
1
 10
0.0000
 20
0.0000
 30
0.0000
 40
0.0762
 41
0.0762
 70
0
  0
VERTEX
  8
21
 10
85.7031
 20
6.9686
 30
0.0000
  0
VERTEX
  8
21
 10
85.7031
 20
6.3415
 30
0.0000
  0
SEQEND
  8
0
  0
POLYLINE
  8
21
 66
1
 10
0.0000
 20
0.0000
 30
0.0000
 40
0.0381
 41
0.0381
 70
0
  0
VERTEX
  8
21
 10
85.6841
 20
6.3415
 30
0.0000
 42
1.0000
  0
VERTEX
  8
21
 10
85.7221
 20
6.3415
 30
0.0000
  0
SEQEND
  8
0
  0
POLYLINE
  8
21
 66
1
 10
0.0000
 20
0.0000
 30
0.0000
 40
0.0381
 41
0.0381
 70
0
  0
VERTEX
  8
21
 10
85.7221
 20
6.9686
 30
0.0000
 42
1.0000
  0
VERTEX
  8
21
 10
85.6841
 20
6.9686
 30
0.0000
  0
SEQEND
  8
0
  0
POLYLINE
  8
21
 66
1
 10
0.0000
 20
0.0000
 30
0.0000
 40
0.0762
 41
0.0762
 70
0
  0
VERTEX
  8
21
 10
85.7031
 20
6.0331
 30
0.0000
  0
VERTEX
  8
21
 10
86.3302
 20
6.0331
 30
0.0000
  0
SEQEND
  8
0
  0
POLYLINE
  8
21
 66
1
 10
0.0000
 20
0.0000
 30
0.0000
 40
0.0381
 41
0.0381
 70
0
  0
VERTEX
  8
21
 10
86.3302
 20
6.0140
 30
0.0000
 42
1.0000
  0
VERTEX
  8
21
 10
86.3302
 20
6.0521
 30
0.0000
  0
SEQEND
  8
0
  0
POLYLINE
  8
21
 66
1
 10
0.0000
 20
0.0000
 30
0.0000
 40
0.0381
 41
0.0381
 70
0
  0
VERTEX
  8
21
 10
85.7031
 20
6.0521
 30
0.0000
 42
1.0000
  0
VERTEX
  8
21
 10
85.7031
 20
6.0140
 30
0.0000
  0
SEQEND
  8
0
  0
POLYLINE
  8
21
 66
1
 10
0.0000
 20
0.0000
 30
0.0000
 40
0.0762
 41
0.0762
 70
0
  0
VERTEX
  8
21
 10
86.3302
 20
6.0331
 30
0.0000
  0
VERTEX
  8
21
 10
86.6437
 20
5.7195
 30
0.0000
  0
SEQEND
  8
0
  0
POLYLINE
  8
21
 66
1
 10
0.0000
 20
0.0000
 30
0.0000
 40
0.0381
 41
0.0381
 70
0
  0
VERTEX
  8
21
 10
86.6302
 20
5.7061
 30
0.0000
 42
1.0000
  0
VERTEX
  8
21
 10
86.6572
 20
5.7330
 30
0.0000
  0
SEQEND
  8
0
  0
POLYLINE
  8
21
 66
1
 10
0.0000
 20
0.0000
 30
0.0000
 40
0.0381
 41
0.0381
 70
0
  0
VERTEX
  8
21
 10
86.3436
 20
6.0465
 30
0.0000
 42
1.0000
  0
VERTEX
  8
21
 10
86.3167
 20
6.0196
 30
0.0000
  0
SEQEND
  8
0
  0
POLYLINE
  8
21
 66
1
 10
0.0000
 20
0.0000
 30
0.0000
 40
0.0762
 41
0.0762
 70
0
  0
VERTEX
  8
21
 10
86.6437
 20
5.7195
 30
0.0000
  0
VERTEX
  8
21
 10
86.3302
 20
5.4060
 30
0.0000
  0
SEQEND
  8
0
  0
POLYLINE
  8
21
 66
1
 10
0.0000
 20
0.0000
 30
0.0000
 40
0.0381
 41
0.0381
 70
0
  0
VERTEX
  8
21
 10
86.3167
 20
5.4195
 30
0.0000
 42
1.0000
  0
VERTEX
  8
21
 10
86.3436
 20
5.3925
 30
0.0000
  0
SEQEND
  8
0
  0
POLYLINE
  8
21
 66
1
 10
0.0000
 20
0.0000
 30
0.0000
 40
0.0381
 41
0.0381
 70
0
  0
VERTEX
  8
21
 10
86.6572
 20
5.7061
 30
0.0000
 42
1.0000
  0
VERTEX
  8
21
 10
86.6302
 20
5.7330
 30
0.0000
  0
SEQEND
  8
0
  0
POLYLINE
  8
21
 66
1
 10
0.0000
 20
0.0000
 30
0.0000
 40
0.0762
 41
0.0762
 70
0
  0
VERTEX
  8
21
 10
86.3302
 20
5.4060
 30
0.0000
  0
VERTEX
  8
21
 10
85.7031
 20
5.4060
 30
0.0000
  0
SEQEND
  8
0
  0
POLYLINE
  8
21
 66
1
 10
0.0000
 20
0.0000
 30
0.0000
 40
0.0381
 41
0.0381
 70
0
  0
VERTEX
  8
21
 10
85.7031
 20
5.4250
 30
0.0000
 42
1.0000
  0
VERTEX
  8
21
 10
85.7031
 20
5.3869
 30
0.0000
  0
SEQEND
  8
0
  0
POLYLINE
  8
21
 66
1
 10
0.0000
 20
0.0000
 30
0.0000
 40
0.0381
 41
0.0381
 70
0
  0
VERTEX
  8
21
 10
86.3302
 20
5.3869
 30
0.0000
 42
1.0000
  0
VERTEX
  8
21
 10
86.3302
 20
5.4250
 30
0.0000
  0
SEQEND
  8
0
  0
POLYLINE
  8
21
 66
1
 10
0.0000
 20
0.0000
 30
0.0000
 40
0.0762
 41
0.0762
 70
0
  0
VERTEX
  8
21
 10
86.1734
 20
6.0331
 30
0.0000
  0
VERTEX
  8
21
 10
86.1734
 20
5.4060
 30
0.0000
  0
SEQEND
  8
0
  0
POLYLINE
  8
21
 66
1
 10
0.0000
 20
0.0000
 30
0.0000
 40
0.0381
 41
0.0381
 70
0
  0
VERTEX
  8
21
 10
86.1544
 20
5.4060
 30
0.0000
 42
1.0000
  0
VERTEX
  8
21
 10
86.1924
 20
5.4060
 30
0.0000
  0
SEQEND
  8
0
  0
POLYLINE
  8
21
 66
1
 10
0.0000
 20
0.0000
 30
0.0000
 40
0.0381
 41
0.0381
 70
0
  0
VERTEX
  8
21
 10
86.1924
 20
6.0331
 30
0.0000
 42
1.0000
  0
VERTEX
  8
21
 10
86.1544
 20
6.0331
 30
0.0000
  0
SEQEND
  8
0
  0
POLYLINE
  8
21
 66
1
 10
0.0000
 20
0.0000
 30
0.0000
 40
0.0762
 41
0.0762
 70
0
  0
VERTEX
  8
21
 10
85.7031
 20
5.0975
 30
0.0000
  0
VERTEX
  8
21
 10
86.6437
 20
5.0975
 30
0.0000
  0
SEQEND
  8
0
  0
POLYLINE
  8
21
 66
1
 10
0.0000
 20
0.0000
 30
0.0000
 40
0.0381
 41
0.0381
 70
0
  0
VERTEX
  8
21
 10
86.6437
 20
5.0785
 30
0.0000
 42
1.0000
  0
VERTEX
  8
21
 10
86.6437
 20
5.1166
 30
0.0000
  0
SEQEND
  8
0
  0
POLYLINE
  8
21
 66
1
 10
0.0000
 20
0.0000
 30
0.0000
 40
0.0381
 41
0.0381
 70
0
  0
VERTEX
  8
21
 10
85.7031
 20
5.1166
 30
0.0000
 42
1.0000
  0
VERTEX
  8
21
 10
85.7031
 20
5.0785
 30
0.0000
  0
SEQEND
  8
0
  0
POLYLINE
  8
21
 66
1
 10
0.0000
 20
0.0000
 30
0.0000
 40
0.0762
 41
0.0762
 70
0
  0
VERTEX
  8
21
 10
86.6437
 20
5.0975
 30
0.0000
  0
VERTEX
  8
21
 10
86.6437
 20
4.6272
 30
0.0000
  0
SEQEND
  8
0
  0
POLYLINE
  8
21
 66
1
 10
0.0000
 20
0.0000
 30
0.0000
 40
0.0381
 41
0.0381
 70
0
  0
VERTEX
  8
21
 10
86.6247
 20
4.6272
 30
0.0000
 42
1.0000
  0
VERTEX
  8
21
 10
86.6628
 20
4.6272
 30
0.0000
  0
SEQEND
  8
0
  0
POLYLINE
  8
21
 66
1
 10
0.0000
 20
0.0000
 30
0.0000
 40
0.0381
 41
0.0381
 70
0
  0
VERTEX
  8
21
 10
86.6628
 20
5.0975
 30
0.0000
 42
1.0000
  0
VERTEX
  8
21
 10
86.6247
 20
5.0975
 30
0.0000
  0
SEQEND
  8
0
  0
POLYLINE
  8
21
 66
1
 10
0.0000
 20
0.0000
 30
0.0000
 40
0.0762
 41
0.0762
 70
0
  0
VERTEX
  8
21
 10
86.6437
 20
4.6272
 30
0.0000
  0
VERTEX
  8
21
 10
86.4869
 20
4.4705
 30
0.0000
  0
SEQEND
  8
0
  0
POLYLINE
  8
21
 66
1
 10
0.0000
 20
0.0000
 30
0.0000
 40
0.0381
 41
0.0381
 70
0
  0
VERTEX
  8
21
 10
86.4735
 20
4.4839
 30
0.0000
 42
1.0000
  0
VERTEX
  8
21
 10
86.5004
 20
4.4570
 30
0.0000
  0
SEQEND
  8
0
  0
POLYLINE
  8
21
 66
1
 10
0.0000
 20
0.0000
 30
0.0000
 40
0.0381
 41
0.0381
 70
0
  0
VERTEX
  8
21
 10
86.6572
 20
4.6138
 30
0.0000
 42
1.0000
  0
VERTEX
  8
21
 10
86.6302
 20
4.6407
 30
0.0000
  0
SEQEND
  8
0
  0
POLYLINE
  8
21
 66
1
 10
0.0000
 20
0.0000
 30
0.0000
 40
0.0762
 41
0.0762
 70
0
  0
VERTEX
  8
21
 10
86.4869
 20
4.4705
 30
0.0000
  0
VERTEX
  8
21
 10
86.3302
 20
4.4705
 30
0.0000
  0
SEQEND
  8
0
  0
POLYLINE
  8
21
 66
1
 10
0.0000
 20
0.0000
 30
0.0000
 40
0.0381
 41
0.0381
 70
0
  0
VERTEX
  8
21
 10
86.3302
 20
4.4895
 30
0.0000
 42
1.0000
  0
VERTEX
  8
21
 10
86.3302
 20
4.4514
 30
0.0000
  0
SEQEND
  8
0
  0
POLYLINE
  8
21
 66
1
 10
0.0000
 20
0.0000
 30
0.0000
 40
0.0381
 41
0.0381
 70
0
  0
VERTEX
  8
21
 10
86.4869
 20
4.4514
 30
0.0000
 42
1.0000
  0
VERTEX
  8
21
 10
86.4869
 20
4.4895
 30
0.0000
  0
SEQEND
  8
0
  0
POLYLINE
  8
21
 66
1
 10
0.0000
 20
0.0000
 30
0.0000
 40
0.0762
 41
0.0762
 70
0
  0
VERTEX
  8
21
 10
86.3302
 20
4.4705
 30
0.0000
  0
VERTEX
  8
21
 10
86.1734
 20
4.6272
 30
0.0000
  0
SEQEND
  8
0
  0
POLYLINE
  8
21
 66
1
 10
0.0000
 20
0.0000
 30
0.0000
 40
0.0381
 41
0.0381
 70
0
  0
VERTEX
  8
21
 10
86.1869
 20
4.6407
 30
0.0000
 42
1.0000
  0
VERTEX
  8
21
 10
86.1599
 20
4.6138
 30
0.0000
  0
SEQEND
  8
0
  0
POLYLINE
  8
21
 66
1
 10
0.0000
 20
0.0000
 30
0.0000
 40
0.0381
 41
0.0381
 70
0
  0
VERTEX
  8
21
 10
86.3167
 20
4.4570
 30
0.0000
 42
1.0000
  0
VERTEX
  8
21
 10
86.3436
 20
4.4839
 30
0.0000
  0
SEQEND
  8
0
  0
POLYLINE
  8
21
 66
1
 10
0.0000
 20
0.0000
 30
0.0000
 40
0.0762
 41
0.0762
 70
0
  0
VERTEX
  8
21
 10
86.1734
 20
4.6272
 30
0.0000
  0
VERTEX
  8
21
 10
86.0166
 20
4.4705
 30
0.0000
  0
SEQEND
  8
0
  0
POLYLINE
  8
21
 66
1
 10
0.0000
 20
0.0000
 30
0.0000
 40
0.0381
 41
0.0381
 70
0
  0
VERTEX
  8
21
 10
86.0032
 20
4.4839
 30
0.0000
 42
1.0000
  0
VERTEX
  8
21
 10
86.0301
 20
4.4570
 30
0.0000
  0
SEQEND
  8
0
  0
POLYLINE
  8
21
 66
1
 10
0.0000
 20
0.0000
 30
0.0000
 40
0.0381
 41
0.0381
 70
0
  0
VERTEX
  8
21
 10
86.1869
 20
4.6138
 30
0.0000
 42
1.0000
  0
VERTEX
  8
21
 10
86.1599
 20
4.6407
 30
0.0000
  0
SEQEND
  8
0
  0
POLYLINE
  8
21
 66
1
 10
0.0000
 20
0.0000
 30
0.0000
 40
0.0762
 41
0.0762
 70
0
  0
VERTEX
  8
21
 10
86.0166
 20
4.4705
 30
0.0000
  0
VERTEX
  8
21
 10
85.8599
 20
4.4705
 30
0.0000
  0
SEQEND
  8
0
  0
POLYLINE
  8
21
 66
1
 10
0.0000
 20
0.0000
 30
0.0000
 40
0.0381
 41
0.0381
 70
0
  0
VERTEX
  8
21
 10
85.8599
 20
4.4895
 30
0.0000
 42
1.0000
  0
VERTEX
  8
21
 10
85.8599
 20
4.4514
 30
0.0000
  0
SEQEND
  8
0
  0
POLYLINE
  8
21
 66
1
 10
0.0000
 20
0.0000
 30
0.0000
 40
0.0381
 41
0.0381
 70
0
  0
VERTEX
  8
21
 10
86.0166
 20
4.4514
 30
0.0000
 42
1.0000
  0
VERTEX
  8
21
 10
86.0166
 20
4.4895
 30
0.0000
  0
SEQEND
  8
0
  0
POLYLINE
  8
21
 66
1
 10
0.0000
 20
0.0000
 30
0.0000
 40
0.0762
 41
0.0762
 70
0
  0
VERTEX
  8
21
 10
85.8599
 20
4.4705
 30
0.0000
  0
VERTEX
  8
21
 10
85.7031
 20
4.6272
 30
0.0000
  0
SEQEND
  8
0
  0
POLYLINE
  8
21
 66
1
 10
0.0000
 20
0.0000
 30
0.0000
 40
0.0381
 41
0.0381
 70
0
  0
VERTEX
  8
21
 10
85.7166
 20
4.6407
 30
0.0000
 42
1.0000
  0
VERTEX
  8
21
 10
85.6896
 20
4.6138
 30
0.0000
  0
SEQEND
  8
0
  0
POLYLINE
  8
21
 66
1
 10
0.0000
 20
0.0000
 30
0.0000
 40
0.0381
 41
0.0381
 70
0
  0
VERTEX
  8
21
 10
85.8464
 20
4.4570
 30
0.0000
 42
1.0000
  0
VERTEX
  8
21
 10
85.8733
 20
4.4839
 30
0.0000
  0
SEQEND
  8
0
  0
POLYLINE
  8
21
 66
1
 10
0.0000
 20
0.0000
 30
0.0000
 40
0.0762
 41
0.0762
 70
0
  0
VERTEX
  8
21
 10
85.7031
 20
4.6272
 30
0.0000
  0
VERTEX
  8
21
 10
85.7031
 20
5.0975
 30
0.0000
  0
SEQEND
  8
0
  0
POLYLINE
  8
21
 66
1
 10
0.0000
 20
0.0000
 30
0.0000
 40
0.0381
 41
0.0381
 70
0
  0
VERTEX
  8
21
 10
85.7221
 20
5.0975
 30
0.0000
 42
1.0000
  0
VERTEX
  8
21
 10
85.6841
 20
5.0975
 30
0.0000
  0
SEQEND
  8
0
  0
POLYLINE
  8
21
 66
1
 10
0.0000
 20
0.0000
 30
0.0000
 40
0.0381
 41
0.0381
 70
0
  0
VERTEX
  8
21
 10
85.6841
 20
4.6272
 30
0.0000
 42
1.0000
  0
VERTEX
  8
21
 10
85.7221
 20
4.6272
 30
0.0000
  0
SEQEND
  8
0
  0
POLYLINE
  8
21
 66
1
 10
0.0000
 20
0.0000
 30
0.0000
 40
0.0762
 41
0.0762
 70
0
  0
VERTEX
  8
21
 10
86.1734
 20
5.0975
 30
0.0000
  0
VERTEX
  8
21
 10
86.1734
 20
4.6272
 30
0.0000
  0
SEQEND
  8
0
  0
POLYLINE
  8
21
 66
1
 10
0.0000
 20
0.0000
 30
0.0000
 40
0.0381
 41
0.0381
 70
0
  0
VERTEX
  8
21
 10
86.1544
 20
4.6272
 30
0.0000
 42
1.0000
  0
VERTEX
  8
21
 10
86.1924
 20
4.6272
 30
0.0000
  0
SEQEND
  8
0
  0
POLYLINE
  8
21
 66
1
 10
0.0000
 20
0.0000
 30
0.0000
 40
0.0381
 41
0.0381
 70
0
  0
VERTEX
  8
21
 10
86.1924
 20
5.0975
 30
0.0000
 42
1.0000
  0
VERTEX
  8
21
 10
86.1544
 20
5.0975
 30
0.0000
  0
SEQEND
  8
0
  0
POLYLINE
  8
21
 66
1
 10
0.0000
 20
0.0000
 30
0.0000
 40
0.0762
 41
0.0762
 70
0
  0
VERTEX
  8
21
 10
86.6437
 20
3.5350
 30
0.0000
  0
VERTEX
  8
21
 10
86.6437
 20
4.1620
 30
0.0000
  0
SEQEND
  8
0
  0
POLYLINE
  8
21
 66
1
 10
0.0000
 20
0.0000
 30
0.0000
 40
0.0381
 41
0.0381
 70
0
  0
VERTEX
  8
21
 10
86.6628
 20
4.1620
 30
0.0000
 42
1.0000
  0
VERTEX
  8
21
 10
86.6247
 20
4.1620
 30
0.0000
  0
SEQEND
  8
0
  0
POLYLINE
  8
21
 66
1
 10
0.0000
 20
0.0000
 30
0.0000
 40
0.0381
 41
0.0381
 70
0
  0
VERTEX
  8
21
 10
86.6247
 20
3.5350
 30
0.0000
 42
1.0000
  0
VERTEX
  8
21
 10
86.6628
 20
3.5350
 30
0.0000
  0
SEQEND
  8
0
  0
POLYLINE
  8
21
 66
1
 10
0.0000
 20
0.0000
 30
0.0000
 40
0.0762
 41
0.0762
 70
0
  0
VERTEX
  8
21
 10
86.6437
 20
4.1620
 30
0.0000
  0
VERTEX
  8
21
 10
85.7031
 20
4.1620
 30
0.0000
  0
SEQEND
  8
0
  0
POLYLINE
  8
21
 66
1
 10
0.0000
 20
0.0000
 30
0.0000
 40
0.0381
 41
0.0381
 70
0
  0
VERTEX
  8
21
 10
85.7031
 20
4.1811
 30
0.0000
 42
1.0000
  0
VERTEX
  8
21
 10
85.7031
 20
4.1430
 30
0.0000
  0
SEQEND
  8
0
  0
POLYLINE
  8
21
 66
1
 10
0.0000
 20
0.0000
 30
0.0000
 40
0.0381
 41
0.0381
 70
0
  0
VERTEX
  8
21
 10
86.6437
 20
4.1430
 30
0.0000
 42
1.0000
  0
VERTEX
  8
21
 10
86.6437
 20
4.1811
 30
0.0000
  0
SEQEND
  8
0
  0
POLYLINE
  8
21
 66
1
 10
0.0000
 20
0.0000
 30
0.0000
 40
0.0762
 41
0.0762
 70
0
  0
VERTEX
  8
21
 10
85.7031
 20
4.1620
 30
0.0000
  0
VERTEX
  8
21
 10
85.7031
 20
3.5350
 30
0.0000
  0
SEQEND
  8
0
  0
POLYLINE
  8
21
 66
1
 10
0.0000
 20
0.0000
 30
0.0000
 40
0.0381
 41
0.0381
 70
0
  0
VERTEX
  8
21
 10
85.6841
 20
3.5350
 30
0.0000
 42
1.0000
  0
VERTEX
  8
21
 10
85.7221
 20
3.5350
 30
0.0000
  0
SEQEND
  8
0
  0
POLYLINE
  8
21
 66
1
 10
0.0000
 20
0.0000
 30
0.0000
 40
0.0381
 41
0.0381
 70
0
  0
VERTEX
  8
21
 10
85.7221
 20
4.1620
 30
0.0000
 42
1.0000
  0
VERTEX
  8
21
 10
85.6841
 20
4.1620
 30
0.0000
  0
SEQEND
  8
0
  0
POLYLINE
  8
21
 66
1
 10
0.0000
 20
0.0000
 30
0.0000
 40
0.0762
 41
0.0762
 70
0
  0
VERTEX
  8
21
 10
86.1734
 20
4.1620
 30
0.0000
  0
VERTEX
  8
21
 10
86.1734
 20
3.8485
 30
0.0000
  0
SEQEND
  8
0
  0
POLYLINE
  8
21
 66
1
 10
0.0000
 20
0.0000
 30
0.0000
 40
0.0381
 41
0.0381
 70
0
  0
VERTEX
  8
21
 10
86.1544
 20
3.8485
 30
0.0000
 42
1.0000
  0
VERTEX
  8
21
 10
86.1924
 20
3.8485
 30
0.0000
  0
SEQEND
  8
0
  0
POLYLINE
  8
21
 66
1
 10
0.0000
 20
0.0000
 30
0.0000
 40
0.0381
 41
0.0381
 70
0
  0
VERTEX
  8
21
 10
86.1924
 20
4.1620
 30
0.0000
 42
1.0000
  0
VERTEX
  8
21
 10
86.1544
 20
4.1620
 30
0.0000
  0
SEQEND
  8
0
  0
POLYLINE
  8
21
 66
1
 10
0.0000
 20
0.0000
 30
0.0000
 40
0.0762
 41
0.0762
 70
0
  0
VERTEX
  8
21
 10
86.6437
 20
3.2265
 30
0.0000
  0
VERTEX
  8
21
 10
85.7031
 20
3.2265
 30
0.0000
  0
SEQEND
  8
0
  0
POLYLINE
  8
21
 66
1
 10
0.0000
 20
0.0000
 30
0.0000
 40
0.0381
 41
0.0381
 70
0
  0
VERTEX
  8
21
 10
85.7031
 20
3.2456
 30
0.0000
 42
1.0000
  0
VERTEX
  8
21
 10
85.7031
 20
3.2075
 30
0.0000
  0
SEQEND
  8
0
  0
POLYLINE
  8
21
 66
1
 10
0.0000
 20
0.0000
 30
0.0000
 40
0.0381
 41
0.0381
 70
0
  0
VERTEX
  8
21
 10
86.6437
 20
3.2075
 30
0.0000
 42
1.0000
  0
VERTEX
  8
21
 10
86.6437
 20
3.2456
 30
0.0000
  0
SEQEND
  8
0
  0
POLYLINE
  8
21
 66
1
 10
0.0000
 20
0.0000
 30
0.0000
 40
0.0762
 41
0.0762
 70
0
  0
VERTEX
  8
21
 10
85.7031
 20
3.2265
 30
0.0000
  0
VERTEX
  8
21
 10
85.7031
 20
2.5994
 30
0.0000
  0
SEQEND
  8
0
  0
POLYLINE
  8
21
 66
1
 10
0.0000
 20
0.0000
 30
0.0000
 40
0.0381
 41
0.0381
 70
0
  0
VERTEX
  8
21
 10
85.6841
 20
2.5994
 30
0.0000
 42
1.0000
  0
VERTEX
  8
21
 10
85.7221
 20
2.5994
 30
0.0000
  0
SEQEND
  8
0
  0
POLYLINE
  8
21
 66
1
 10
0.0000
 20
0.0000
 30
0.0000
 40
0.0381
 41
0.0381
 70
0
  0
VERTEX
  8
21
 10
85.7221
 20
3.2265
 30
0.0000
 42
1.0000
  0
VERTEX
  8
21
 10
85.6841
 20
3.2265
 30
0.0000
  0
SEQEND
  8
0
  0
POLYLINE
  8
22
 66
1
 10
0.0000
 20
0.0000
 30
0.0000
 40
0.0762
 41
0.0762
 70
0
  0
VERTEX
  8
22
 10
86.7988
 20
10.6957
 30
0.0000
  0
VERTEX
  8
22
 10
87.2691
 20
10.0686
 30
0.0000
  0
SEQEND
  8
0
  0
POLYLINE
  8
22
 66
1
 10
0.0000
 20
0.0000
 30
0.0000
 40
0.0381
 41
0.0381
 70
0
  0
VERTEX
  8
22
 10
87.2539
 20
10.0572
 30
0.0000
 42
1.0000
  0
VERTEX
  8
22
 10
87.2843
 20
10.0800
 30
0.0000
  0
SEQEND
  8
0
  0
POLYLINE
  8
22
 66
1
 10
0.0000
 20
0.0000
 30
0.0000
 40
0.0381
 41
0.0381
 70
0
  0
VERTEX
  8
22
 10
86.8140
 20
10.7071
 30
0.0000
 42
1.0000
  0
VERTEX
  8
22
 10
86.7836
 20
10.6842
 30
0.0000
  0
SEQEND
  8
0
  0
POLYLINE
  8
22
 66
1
 10
0.0000
 20
0.0000
 30
0.0000
 40
0.0762
 41
0.0762
 70
0
  0
VERTEX
  8
22
 10
87.2691
 20
10.0686
 30
0.0000
  0
VERTEX
  8
22
 10
87.7394
 20
10.6957
 30
0.0000
  0
SEQEND
  8
0
  0
POLYLINE
  8
22
 66
1
 10
0.0000
 20
0.0000
 30
0.0000
 40
0.0381
 41
0.0381
 70
0
  0
VERTEX
  8
22
 10
87.7546
 20
10.6842
 30
0.0000
 42
1.0000
  0
VERTEX
  8
22
 10
87.7242
 20
10.7071
 30
0.0000
  0
SEQEND
  8
0
  0
POLYLINE
  8
22
 66
1
 10
0.0000
 20
0.0000
 30
0.0000
 40
0.0381
 41
0.0381
 70
0
  0
VERTEX
  8
22
 10
87.2539
 20
10.0800
 30
0.0000
 42
1.0000
  0
VERTEX
  8
22
 10
87.2843
 20
10.0572
 30
0.0000
  0
SEQEND
  8
0
  0
POLYLINE
  8
22
 66
1
 10
0.0000
 20
0.0000
 30
0.0000
 40
0.0762
 41
0.0762
 70
0
  0
VERTEX
  8
22
 10
87.7394
 20
9.7601
 30
0.0000
  0
VERTEX
  8
22
 10
86.7988
 20
9.7601
 30
0.0000
  0
SEQEND
  8
0
  0
POLYLINE
  8
22
 66
1
 10
0.0000
 20
0.0000
 30
0.0000
 40
0.0381
 41
0.0381
 70
0
  0
VERTEX
  8
22
 10
86.7988
 20
9.7792
 30
0.0000
 42
1.0000
  0
VERTEX
  8
22
 10
86.7988
 20
9.7411
 30
0.0000
  0
SEQEND
  8
0
  0
POLYLINE
  8
22
 66
1
 10
0.0000
 20
0.0000
 30
0.0000
 40
0.0381
 41
0.0381
 70
0
  0
VERTEX
  8
22
 10
87.7394
 20
9.7411
 30
0.0000
 42
1.0000
  0
VERTEX
  8
22
 10
87.7394
 20
9.7792
 30
0.0000
  0
SEQEND
  8
0
  0
POLYLINE
  8
22
 66
1
 10
0.0000
 20
0.0000
 30
0.0000
 40
0.0762
 41
0.0762
 70
0
  0
VERTEX
  8
22
 10
86.7988
 20
9.7601
 30
0.0000
  0
VERTEX
  8
22
 10
86.7988
 20
9.2898
 30
0.0000
  0
SEQEND
  8
0
  0
POLYLINE
  8
22
 66
1
 10
0.0000
 20
0.0000
 30
0.0000
 40
0.0381
 41
0.0381
 70
0
  0
VERTEX
  8
22
 10
86.7797
 20
9.2898
 30
0.0000
 42
1.0000
  0
VERTEX
  8
22
 10
86.8178
 20
9.2898
 30
0.0000
  0
SEQEND
  8
0
  0
POLYLINE
  8
22
 66
1
 10
0.0000
 20
0.0000
 30
0.0000
 40
0.0381
 41
0.0381
 70
0
  0
VERTEX
  8
22
 10
86.8178
 20
9.7601
 30
0.0000
 42
1.0000
  0
VERTEX
  8
22
 10
86.7797
 20
9.7601
 30
0.0000
  0
SEQEND
  8
0
  0
POLYLINE
  8
22
 66
1
 10
0.0000
 20
0.0000
 30
0.0000
 40
0.0762
 41
0.0762
 70
0
  0
VERTEX
  8
22
 10
86.7988
 20
9.2898
 30
0.0000
  0
VERTEX
  8
22
 10
86.9556
 20
9.1331
 30
0.0000
  0
SEQEND
  8
0
  0
POLYLINE
  8
22
 66
1
 10
0.0000
 20
0.0000
 30
0.0000
 40
0.0381
 41
0.0381
 70
0
  0
VERTEX
  8
22
 10
86.9421
 20
9.1196
 30
0.0000
 42
1.0000
  0
VERTEX
  8
22
 10
86.9690
 20
9.1465
 30
0.0000
  0
SEQEND
  8
0
  0
POLYLINE
  8
22
 66
1
 10
0.0000
 20
0.0000
 30
0.0000
 40
0.0381
 41
0.0381
 70
0
  0
VERTEX
  8
22
 10
86.8123
 20
9.3033
 30
0.0000
 42
1.0000
  0
VERTEX
  8
22
 10
86.7853
 20
9.2764
 30
0.0000
  0
SEQEND
  8
0
  0
POLYLINE
  8
22
 66
1
 10
0.0000
 20
0.0000
 30
0.0000
 40
0.0762
 41
0.0762
 70
0
  0
VERTEX
  8
22
 10
86.9556
 20
9.1331
 30
0.0000
  0
VERTEX
  8
22
 10
87.2691
 20
9.1331
 30
0.0000
  0
SEQEND
  8
0
  0
POLYLINE
  8
22
 66
1
 10
0.0000
 20
0.0000
 30
0.0000
 40
0.0381
 41
0.0381
 70
0
  0
VERTEX
  8
22
 10
87.2691
 20
9.1140
 30
0.0000
 42
1.0000
  0
VERTEX
  8
22
 10
87.2691
 20
9.1521
 30
0.0000
  0
SEQEND
  8
0
  0
POLYLINE
  8
22
 66
1
 10
0.0000
 20
0.0000
 30
0.0000
 40
0.0381
 41
0.0381
 70
0
  0
VERTEX
  8
22
 10
86.9556
 20
9.1521
 30
0.0000
 42
1.0000
  0
VERTEX
  8
22
 10
86.9556
 20
9.1140
 30
0.0000
  0
SEQEND
  8
0
  0
POLYLINE
  8
22
 66
1
 10
0.0000
 20
0.0000
 30
0.0000
 40
0.0762
 41
0.0762
 70
0
  0
VERTEX
  8
22
 10
87.2691
 20
9.1331
 30
0.0000
  0
VERTEX
  8
22
 10
87.4259
 20
9.2898
 30
0.0000
  0
SEQEND
  8
0
  0
POLYLINE
  8
22
 66
1
 10
0.0000
 20
0.0000
 30
0.0000
 40
0.0381
 41
0.0381
 70
0
  0
VERTEX
  8
22
 10
87.4393
 20
9.2764
 30
0.0000
 42
1.0000
  0
VERTEX
  8
22
 10
87.4124
 20
9.3033
 30
0.0000
  0
SEQEND
  8
0
  0
POLYLINE
  8
22
 66
1
 10
0.0000
 20
0.0000
 30
0.0000
 40
0.0381
 41
0.0381
 70
0
  0
VERTEX
  8
22
 10
87.2556
 20
9.1465
 30
0.0000
 42
1.0000
  0
VERTEX
  8
22
 10
87.2826
 20
9.1196
 30
0.0000
  0
SEQEND
  8
0
  0
POLYLINE
  8
22
 66
1
 10
0.0000
 20
0.0000
 30
0.0000
 40
0.0762
 41
0.0762
 70
0
  0
VERTEX
  8
22
 10
87.4259
 20
9.2898
 30
0.0000
  0
VERTEX
  8
22
 10
87.4259
 20
9.7601
 30
0.0000
  0
SEQEND
  8
0
  0
POLYLINE
  8
22
 66
1
 10
0.0000
 20
0.0000
 30
0.0000
 40
0.0381
 41
0.0381
 70
0
  0
VERTEX
  8
22
 10
87.4449
 20
9.7601
 30
0.0000
 42
1.0000
  0
VERTEX
  8
22
 10
87.4068
 20
9.7601
 30
0.0000
  0
SEQEND
  8
0
  0
POLYLINE
  8
22
 66
1
 10
0.0000
 20
0.0000
 30
0.0000
 40
0.0381
 41
0.0381
 70
0
  0
VERTEX
  8
22
 10
87.4068
 20
9.2898
 30
0.0000
 42
1.0000
  0
VERTEX
  8
22
 10
87.4449
 20
9.2898
 30
0.0000
  0
SEQEND
  8
0
  0
POLYLINE
  8
22
 66
1
 10
0.0000
 20
0.0000
 30
0.0000
 40
0.0762
 41
0.0762
 70
0
  0
VERTEX
  8
22
 10
86.9556
 20
8.1975
 30
0.0000
  0
VERTEX
  8
22
 10
86.7988
 20
8.3543
 30
0.0000
  0
SEQEND
  8
0
  0
POLYLINE
  8
22
 66
1
 10
0.0000
 20
0.0000
 30
0.0000
 40
0.0381
 41
0.0381
 70
0
  0
VERTEX
  8
22
 10
86.8123
 20
8.3678
 30
0.0000
 42
1.0000
  0
VERTEX
  8
22
 10
86.7853
 20
8.3408
 30
0.0000
  0
SEQEND
  8
0
  0
POLYLINE
  8
22
 66
1
 10
0.0000
 20
0.0000
 30
0.0000
 40
0.0381
 41
0.0381
 70
0
  0
VERTEX
  8
22
 10
86.9421
 20
8.1841
 30
0.0000
 42
1.0000
  0
VERTEX
  8
22
 10
86.9690
 20
8.2110
 30
0.0000
  0
SEQEND
  8
0
  0
POLYLINE
  8
22
 66
1
 10
0.0000
 20
0.0000
 30
0.0000
 40
0.0762
 41
0.0762
 70
0
  0
VERTEX
  8
22
 10
86.7988
 20
8.3543
 30
0.0000
  0
VERTEX
  8
22
 10
86.7988
 20
8.6678
 30
0.0000
  0
SEQEND
  8
0
  0
POLYLINE
  8
22
 66
1
 10
0.0000
 20
0.0000
 30
0.0000
 40
0.0381
 41
0.0381
 70
0
  0
VERTEX
  8
22
 10
86.8178
 20
8.6678
 30
0.0000
 42
1.0000
  0
VERTEX
  8
22
 10
86.7797
 20
8.6678
 30
0.0000
  0
SEQEND
  8
0
  0
POLYLINE
  8
22
 66
1
 10
0.0000
 20
0.0000
 30
0.0000
 40
0.0381
 41
0.0381
 70
0
  0
VERTEX
  8
22
 10
86.7797
 20
8.3543
 30
0.0000
 42
1.0000
  0
VERTEX
  8
22
 10
86.8178
 20
8.3543
 30
0.0000
  0
SEQEND
  8
0
  0
POLYLINE
  8
22
 66
1
 10
0.0000
 20
0.0000
 30
0.0000
 40
0.0762
 41
0.0762
 70
0
  0
VERTEX
  8
22
 10
86.7988
 20
8.6678
 30
0.0000
  0
VERTEX
  8
22
 10
86.9556
 20
8.8246
 30
0.0000
  0
SEQEND
  8
0
  0
POLYLINE
  8
22
 66
1
 10
0.0000
 20
0.0000
 30
0.0000
 40
0.0381
 41
0.0381
 70
0
  0
VERTEX
  8
22
 10
86.9690
 20
8.8111
 30
0.0000
 42
1.0000
  0
VERTEX
  8
22
 10
86.9421
 20
8.8381
 30
0.0000
  0
SEQEND
  8
0
  0
POLYLINE
  8
22
 66
1
 10
0.0000
 20
0.0000
 30
0.0000
 40
0.0381
 41
0.0381
 70
0
  0
VERTEX
  8
22
 10
86.7853
 20
8.6813
 30
0.0000
 42
1.0000
  0
VERTEX
  8
22
 10
86.8123
 20
8.6544
 30
0.0000
  0
SEQEND
  8
0
  0
POLYLINE
  8
22
 66
1
 10
0.0000
 20
0.0000
 30
0.0000
 40
0.0762
 41
0.0762
 70
0
  0
VERTEX
  8
22
 10
86.9556
 20
8.8246
 30
0.0000
  0
VERTEX
  8
22
 10
87.5826
 20
8.8246
 30
0.0000
  0
SEQEND
  8
0
  0
POLYLINE
  8
22
 66
1
 10
0.0000
 20
0.0000
 30
0.0000
 40
0.0381
 41
0.0381
 70
0
  0
VERTEX
  8
22
 10
87.5826
 20
8.8056
 30
0.0000
 42
1.0000
  0
VERTEX
  8
22
 10
87.5826
 20
8.8437
 30
0.0000
  0
SEQEND
  8
0
  0
POLYLINE
  8
22
 66
1
 10
0.0000
 20
0.0000
 30
0.0000
 40
0.0381
 41
0.0381
 70
0
  0
VERTEX
  8
22
 10
86.9556
 20
8.8437
 30
0.0000
 42
1.0000
  0
VERTEX
  8
22
 10
86.9556
 20
8.8056
 30
0.0000
  0
SEQEND
  8
0
  0
POLYLINE
  8
22
 66
1
 10
0.0000
 20
0.0000
 30
0.0000
 40
0.0762
 41
0.0762
 70
0
  0
VERTEX
  8
22
 10
87.5826
 20
8.8246
 30
0.0000
  0
VERTEX
  8
22
 10
87.7394
 20
8.6678
 30
0.0000
  0
SEQEND
  8
0
  0
POLYLINE
  8
22
 66
1
 10
0.0000
 20
0.0000
 30
0.0000
 40
0.0381
 41
0.0381
 70
0
  0
VERTEX
  8
22
 10
87.7259
 20
8.6544
 30
0.0000
 42
1.0000
  0
VERTEX
  8
22
 10
87.7529
 20
8.6813
 30
0.0000
  0
SEQEND
  8
0
  0
POLYLINE
  8
22
 66
1
 10
0.0000
 20
0.0000
 30
0.0000
 40
0.0381
 41
0.0381
 70
0
  0
VERTEX
  8
22
 10
87.5961
 20
8.8381
 30
0.0000
 42
1.0000
  0
VERTEX
  8
22
 10
87.5692
 20
8.8111
 30
0.0000
  0
SEQEND
  8
0
  0
POLYLINE
  8
22
 66
1
 10
0.0000
 20
0.0000
 30
0.0000
 40
0.0762
 41
0.0762
 70
0
  0
VERTEX
  8
22
 10
87.7394
 20
8.6678
 30
0.0000
  0
VERTEX
  8
22
 10
87.7394
 20
8.3543
 30
0.0000
  0
SEQEND
  8
0
  0
POLYLINE
  8
22
 66
1
 10
0.0000
 20
0.0000
 30
0.0000
 40
0.0381
 41
0.0381
 70
0
  0
VERTEX
  8
22
 10
87.7204
 20
8.3543
 30
0.0000
 42
1.0000
  0
VERTEX
  8
22
 10
87.7584
 20
8.3543
 30
0.0000
  0
SEQEND
  8
0
  0
POLYLINE
  8
22
 66
1
 10
0.0000
 20
0.0000
 30
0.0000
 40
0.0381
 41
0.0381
 70
0
  0
VERTEX
  8
22
 10
87.7584
 20
8.6678
 30
0.0000
 42
1.0000
  0
VERTEX
  8
22
 10
87.7204
 20
8.6678
 30
0.0000
  0
SEQEND
  8
0
  0
POLYLINE
  8
22
 66
1
 10
0.0000
 20
0.0000
 30
0.0000
 40
0.0762
 41
0.0762
 70
0
  0
VERTEX
  8
22
 10
87.7394
 20
8.3543
 30
0.0000
  0
VERTEX
  8
22
 10
87.5826
 20
8.1975
 30
0.0000
  0
SEQEND
  8
0
  0
POLYLINE
  8
22
 66
1
 10
0.0000
 20
0.0000
 30
0.0000
 40
0.0381
 41
0.0381
 70
0
  0
VERTEX
  8
22
 10
87.5692
 20
8.2110
 30
0.0000
 42
1.0000
  0
VERTEX
  8
22
 10
87.5961
 20
8.1841
 30
0.0000
  0
SEQEND
  8
0
  0
POLYLINE
  8
22
 66
1
 10
0.0000
 20
0.0000
 30
0.0000
 40
0.0381
 41
0.0381
 70
0
  0
VERTEX
  8
22
 10
87.7529
 20
8.3408
 30
0.0000
 42
1.0000
  0
VERTEX
  8
22
 10
87.7259
 20
8.3678
 30
0.0000
  0
SEQEND
  8
0
  0
POLYLINE
  8
22
 66
1
 10
0.0000
 20
0.0000
 30
0.0000
 40
0.0762
 41
0.0762
 70
0
  0
VERTEX
  8
22
 10
87.7394
 20
7.8891
 30
0.0000
  0
VERTEX
  8
22
 10
86.7988
 20
7.8891
 30
0.0000
  0
SEQEND
  8
0
  0
POLYLINE
  8
22
 66
1
 10
0.0000
 20
0.0000
 30
0.0000
 40
0.0381
 41
0.0381
 70
0
  0
VERTEX
  8
22
 10
86.7988
 20
7.9081
 30
0.0000
 42
1.0000
  0
VERTEX
  8
22
 10
86.7988
 20
7.8700
 30
0.0000
  0
SEQEND
  8
0
  0
POLYLINE
  8
22
 66
1
 10
0.0000
 20
0.0000
 30
0.0000
 40
0.0381
 41
0.0381
 70
0
  0
VERTEX
  8
22
 10
87.7394
 20
7.8700
 30
0.0000
 42
1.0000
  0
VERTEX
  8
22
 10
87.7394
 20
7.9081
 30
0.0000
  0
SEQEND
  8
0
  0
POLYLINE
  8
22
 66
1
 10
0.0000
 20
0.0000
 30
0.0000
 40
0.0762
 41
0.0762
 70
0
  0
VERTEX
  8
22
 10
86.7988
 20
7.8891
 30
0.0000
  0
VERTEX
  8
22
 10
86.7988
 20
7.4188
 30
0.0000
  0
SEQEND
  8
0
  0
POLYLINE
  8
22
 66
1
 10
0.0000
 20
0.0000
 30
0.0000
 40
0.0381
 41
0.0381
 70
0
  0
VERTEX
  8
22
 10
86.7797
 20
7.4188
 30
0.0000
 42
1.0000
  0
VERTEX
  8
22
 10
86.8178
 20
7.4188
 30
0.0000
  0
SEQEND
  8
0
  0
POLYLINE
  8
22
 66
1
 10
0.0000
 20
0.0000
 30
0.0000
 40
0.0381
 41
0.0381
 70
0
  0
VERTEX
  8
22
 10
86.8178
 20
7.8891
 30
0.0000
 42
1.0000
  0
VERTEX
  8
22
 10
86.7797
 20
7.8891
 30
0.0000
  0
SEQEND
  8
0
  0
POLYLINE
  8
22
 66
1
 10
0.0000
 20
0.0000
 30
0.0000
 40
0.0762
 41
0.0762
 70
0
  0
VERTEX
  8
22
 10
86.7988
 20
7.4188
 30
0.0000
  0
VERTEX
  8
22
 10
86.9556
 20
7.2620
 30
0.0000
  0
SEQEND
  8
0
  0
POLYLINE
  8
22
 66
1
 10
0.0000
 20
0.0000
 30
0.0000
 40
0.0381
 41
0.0381
 70
0
  0
VERTEX
  8
22
 10
86.9421
 20
7.2486
 30
0.0000
 42
1.0000
  0
VERTEX
  8
22
 10
86.9690
 20
7.2755
 30
0.0000
  0
SEQEND
  8
0
  0
POLYLINE
  8
22
 66
1
 10
0.0000
 20
0.0000
 30
0.0000
 40
0.0381
 41
0.0381
 70
0
  0
VERTEX
  8
22
 10
86.8123
 20
7.4323
 30
0.0000
 42
1.0000
  0
VERTEX
  8
22
 10
86.7853
 20
7.4053
 30
0.0000
  0
SEQEND
  8
0
  0
POLYLINE
  8
22
 66
1
 10
0.0000
 20
0.0000
 30
0.0000
 40
0.0762
 41
0.0762
 70
0
  0
VERTEX
  8
22
 10
86.9556
 20
7.2620
 30
0.0000
  0
VERTEX
  8
22
 10
87.1123
 20
7.2620
 30
0.0000
  0
SEQEND
  8
0
  0
POLYLINE
  8
22
 66
1
 10
0.0000
 20
0.0000
 30
0.0000
 40
0.0381
 41
0.0381
 70
0
  0
VERTEX
  8
22
 10
87.1123
 20
7.2430
 30
0.0000
 42
1.0000
  0
VERTEX
  8
22
 10
87.1123
 20
7.2811
 30
0.0000
  0
SEQEND
  8
0
  0
POLYLINE
  8
22
 66
1
 10
0.0000
 20
0.0000
 30
0.0000
 40
0.0381
 41
0.0381
 70
0
  0
VERTEX
  8
22
 10
86.9556
 20
7.2811
 30
0.0000
 42
1.0000
  0
VERTEX
  8
22
 10
86.9556
 20
7.2430
 30
0.0000
  0
SEQEND
  8
0
  0
POLYLINE
  8
22
 66
1
 10
0.0000
 20
0.0000
 30
0.0000
 40
0.0762
 41
0.0762
 70
0
  0
VERTEX
  8
22
 10
87.1123
 20
7.2620
 30
0.0000
  0
VERTEX
  8
22
 10
87.2691
 20
7.4188
 30
0.0000
  0
SEQEND
  8
0
  0
POLYLINE
  8
22
 66
1
 10
0.0000
 20
0.0000
 30
0.0000
 40
0.0381
 41
0.0381
 70
0
  0
VERTEX
  8
22
 10
87.2826
 20
7.4053
 30
0.0000
 42
1.0000
  0
VERTEX
  8
22
 10
87.2556
 20
7.4323
 30
0.0000
  0
SEQEND
  8
0
  0
POLYLINE
  8
22
 66
1
 10
0.0000
 20
0.0000
 30
0.0000
 40
0.0381
 41
0.0381
 70
0
  0
VERTEX
  8
22
 10
87.0989
 20
7.2755
 30
0.0000
 42
1.0000
  0
VERTEX
  8
22
 10
87.1258
 20
7.2486
 30
0.0000
  0
SEQEND
  8
0
  0
POLYLINE
  8
22
 66
1
 10
0.0000
 20
0.0000
 30
0.0000
 40
0.0762
 41
0.0762
 70
0
  0
VERTEX
  8
22
 10
87.2691
 20
7.4188
 30
0.0000
  0
VERTEX
  8
22
 10
87.4259
 20
7.2620
 30
0.0000
  0
SEQEND
  8
0
  0
POLYLINE
  8
22
 66
1
 10
0.0000
 20
0.0000
 30
0.0000
 40
0.0381
 41
0.0381
 70
0
  0
VERTEX
  8
22
 10
87.4124
 20
7.2486
 30
0.0000
 42
1.0000
  0
VERTEX
  8
22
 10
87.4393
 20
7.2755
 30
0.0000
  0
SEQEND
  8
0
  0
POLYLINE
  8
22
 66
1
 10
0.0000
 20
0.0000
 30
0.0000
 40
0.0381
 41
0.0381
 70
0
  0
VERTEX
  8
22
 10
87.2826
 20
7.4323
 30
0.0000
 42
1.0000
  0
VERTEX
  8
22
 10
87.2556
 20
7.4053
 30
0.0000
  0
SEQEND
  8
0
  0
POLYLINE
  8
22
 66
1
 10
0.0000
 20
0.0000
 30
0.0000
 40
0.0762
 41
0.0762
 70
0
  0
VERTEX
  8
22
 10
87.4259
 20
7.2620
 30
0.0000
  0
VERTEX
  8
22
 10
87.5826
 20
7.2620
 30
0.0000
  0
SEQEND
  8
0
  0
POLYLINE
  8
22
 66
1
 10
0.0000
 20
0.0000
 30
0.0000
 40
0.0381
 41
0.0381
 70
0
  0
VERTEX
  8
22
 10
87.5826
 20
7.2430
 30
0.0000
 42
1.0000
  0
VERTEX
  8
22
 10
87.5826
 20
7.2811
 30
0.0000
  0
SEQEND
  8
0
  0
POLYLINE
  8
22
 66
1
 10
0.0000
 20
0.0000
 30
0.0000
 40
0.0381
 41
0.0381
 70
0
  0
VERTEX
  8
22
 10
87.4259
 20
7.2811
 30
0.0000
 42
1.0000
  0
VERTEX
  8
22
 10
87.4259
 20
7.2430
 30
0.0000
  0
SEQEND
  8
0
  0
POLYLINE
  8
22
 66
1
 10
0.0000
 20
0.0000
 30
0.0000
 40
0.0762
 41
0.0762
 70
0
  0
VERTEX
  8
22
 10
87.5826
 20
7.2620
 30
0.0000
  0
VERTEX
  8
22
 10
87.7394
 20
7.4188
 30
0.0000
  0
SEQEND
  8
0
  0
POLYLINE
  8
22
 66
1
 10
0.0000
 20
0.0000
 30
0.0000
 40
0.0381
 41
0.0381
 70
0
  0
VERTEX
  8
22
 10
87.7529
 20
7.4053
 30
0.0000
 42
1.0000
  0
VERTEX
  8
22
 10
87.7259
 20
7.4323
 30
0.0000
  0
SEQEND
  8
0
  0
POLYLINE
  8
22
 66
1
 10
0.0000
 20
0.0000
 30
0.0000
 40
0.0381
 41
0.0381
 70
0
  0
VERTEX
  8
22
 10
87.5692
 20
7.2755
 30
0.0000
 42
1.0000
  0
VERTEX
  8
22
 10
87.5961
 20
7.2486
 30
0.0000
  0
SEQEND
  8
0
  0
POLYLINE
  8
22
 66
1
 10
0.0000
 20
0.0000
 30
0.0000
 40
0.0762
 41
0.0762
 70
0
  0
VERTEX
  8
22
 10
87.7394
 20
7.4188
 30
0.0000
  0
VERTEX
  8
22
 10
87.7394
 20
7.8891
 30
0.0000
  0
SEQEND
  8
0
  0
POLYLINE
  8
22
 66
1
 10
0.0000
 20
0.0000
 30
0.0000
 40
0.0381
 41
0.0381
 70
0
  0
VERTEX
  8
22
 10
87.7584
 20
7.8891
 30
0.0000
 42
1.0000
  0
VERTEX
  8
22
 10
87.7204
 20
7.8891
 30
0.0000
  0
SEQEND
  8
0
  0
POLYLINE
  8
22
 66
1
 10
0.0000
 20
0.0000
 30
0.0000
 40
0.0381
 41
0.0381
 70
0
  0
VERTEX
  8
22
 10
87.7204
 20
7.4188
 30
0.0000
 42
1.0000
  0
VERTEX
  8
22
 10
87.7584
 20
7.4188
 30
0.0000
  0
SEQEND
  8
0
  0
POLYLINE
  8
22
 66
1
 10
0.0000
 20
0.0000
 30
0.0000
 40
0.0762
 41
0.0762
 70
0
  0
VERTEX
  8
22
 10
87.2691
 20
7.8891
 30
0.0000
  0
VERTEX
  8
22
 10
87.2691
 20
7.4188
 30
0.0000
  0
SEQEND
  8
0
  0
POLYLINE
  8
22
 66
1
 10
0.0000
 20
0.0000
 30
0.0000
 40
0.0381
 41
0.0381
 70
0
  0
VERTEX
  8
22
 10
87.2501
 20
7.4188
 30
0.0000
 42
1.0000
  0
VERTEX
  8
22
 10
87.2882
 20
7.4188
 30
0.0000
  0
SEQEND
  8
0
  0
POLYLINE
  8
22
 66
1
 10
0.0000
 20
0.0000
 30
0.0000
 40
0.0381
 41
0.0381
 70
0
  0
VERTEX
  8
22
 10
87.2882
 20
7.8891
 30
0.0000
 42
1.0000
  0
VERTEX
  8
22
 10
87.2501
 20
7.8891
 30
0.0000
  0
SEQEND
  8
0
  0
POLYLINE
  8
22
 66
1
 10
0.0000
 20
0.0000
 30
0.0000
 40
0.0762
 41
0.0762
 70
0
  0
VERTEX
  8
22
 10
86.7988
 20
6.9536
 30
0.0000
  0
VERTEX
  8
22
 10
87.7394
 20
6.9536
 30
0.0000
  0
SEQEND
  8
0
  0
POLYLINE
  8
22
 66
1
 10
0.0000
 20
0.0000
 30
0.0000
 40
0.0381
 41
0.0381
 70
0
  0
VERTEX
  8
22
 10
87.7394
 20
6.9345
 30
0.0000
 42
1.0000
  0
VERTEX
  8
22
 10
87.7394
 20
6.9726
 30
0.0000
  0
SEQEND
  8
0
  0
POLYLINE
  8
22
 66
1
 10
0.0000
 20
0.0000
 30
0.0000
 40
0.0381
 41
0.0381
 70
0
  0
VERTEX
  8
22
 10
86.7988
 20
6.9726
 30
0.0000
 42
1.0000
  0
VERTEX
  8
22
 10
86.7988
 20
6.9345
 30
0.0000
  0
SEQEND
  8
0
  0
POLYLINE
  8
22
 66
1
 10
0.0000
 20
0.0000
 30
0.0000
 40
0.0762
 41
0.0762
 70
0
  0
VERTEX
  8
22
 10
87.7394
 20
6.9536
 30
0.0000
  0
VERTEX
  8
22
 10
87.7394
 20
6.3265
 30
0.0000
  0
SEQEND
  8
0
  0
POLYLINE
  8
22
 66
1
 10
0.0000
 20
0.0000
 30
0.0000
 40
0.0381
 41
0.0381
 70
0
  0
VERTEX
  8
22
 10
87.7204
 20
6.3265
 30
0.0000
 42
1.0000
  0
VERTEX
  8
22
 10
87.7584
 20
6.3265
 30
0.0000
  0
SEQEND
  8
0
  0
POLYLINE
  8
22
 66
1
 10
0.0000
 20
0.0000
 30
0.0000
 40
0.0381
 41
0.0381
 70
0
  0
VERTEX
  8
22
 10
87.7584
 20
6.9536
 30
0.0000
 42
1.0000
  0
VERTEX
  8
22
 10
87.7204
 20
6.9536
 30
0.0000
  0
SEQEND
  8
0
  0
POLYLINE
  8
22
 66
1
 10
0.0000
 20
0.0000
 30
0.0000
 40
0.0762
 41
0.0762
 70
0
  0
VERTEX
  8
22
 10
87.7394
 20
6.0181
 30
0.0000
  0
VERTEX
  8
22
 10
87.1123
 20
6.0181
 30
0.0000
  0
SEQEND
  8
0
  0
POLYLINE
  8
22
 66
1
 10
0.0000
 20
0.0000
 30
0.0000
 40
0.0381
 41
0.0381
 70
0
  0
VERTEX
  8
22
 10
87.1123
 20
6.0371
 30
0.0000
 42
1.0000
  0
VERTEX
  8
22
 10
87.1123
 20
5.9990
 30
0.0000
  0
SEQEND
  8
0
  0
POLYLINE
  8
22
 66
1
 10
0.0000
 20
0.0000
 30
0.0000
 40
0.0381
 41
0.0381
 70
0
  0
VERTEX
  8
22
 10
87.7394
 20
5.9990
 30
0.0000
 42
1.0000
  0
VERTEX
  8
22
 10
87.7394
 20
6.0371
 30
0.0000
  0
SEQEND
  8
0
  0
POLYLINE
  8
22
 66
1
 10
0.0000
 20
0.0000
 30
0.0000
 40
0.0762
 41
0.0762
 70
0
  0
VERTEX
  8
22
 10
87.1123
 20
6.0181
 30
0.0000
  0
VERTEX
  8
22
 10
86.7988
 20
5.7045
 30
0.0000
  0
SEQEND
  8
0
  0
POLYLINE
  8
22
 66
1
 10
0.0000
 20
0.0000
 30
0.0000
 40
0.0381
 41
0.0381
 70
0
  0
VERTEX
  8
22
 10
86.7853
 20
5.7180
 30
0.0000
 42
1.0000
  0
VERTEX
  8
22
 10
86.8123
 20
5.6911
 30
0.0000
  0
SEQEND
  8
0
  0
POLYLINE
  8
22
 66
1
 10
0.0000
 20
0.0000
 30
0.0000
 40
0.0381
 41
0.0381
 70
0
  0
VERTEX
  8
22
 10
87.1258
 20
6.0046
 30
0.0000
 42
1.0000
  0
VERTEX
  8
22
 10
87.0989
 20
6.0315
 30
0.0000
  0
SEQEND
  8
0
  0
POLYLINE
  8
22
 66
1
 10
0.0000
 20
0.0000
 30
0.0000
 40
0.0762
 41
0.0762
 70
0
  0
VERTEX
  8
22
 10
86.7988
 20
5.7045
 30
0.0000
  0
VERTEX
  8
22
 10
87.1123
 20
5.3910
 30
0.0000
  0
SEQEND
  8
0
  0
POLYLINE
  8
22
 66
1
 10
0.0000
 20
0.0000
 30
0.0000
 40
0.0381
 41
0.0381
 70
0
  0
VERTEX
  8
22
 10
87.0989
 20
5.3775
 30
0.0000
 42
1.0000
  0
VERTEX
  8
22
 10
87.1258
 20
5.4045
 30
0.0000
  0
SEQEND
  8
0
  0
POLYLINE
  8
22
 66
1
 10
0.0000
 20
0.0000
 30
0.0000
 40
0.0381
 41
0.0381
 70
0
  0
VERTEX
  8
22
 10
86.8123
 20
5.7180
 30
0.0000
 42
1.0000
  0
VERTEX
  8
22
 10
86.7853
 20
5.6911
 30
0.0000
  0
SEQEND
  8
0
  0
POLYLINE
  8
22
 66
1
 10
0.0000
 20
0.0000
 30
0.0000
 40
0.0762
 41
0.0762
 70
0
  0
VERTEX
  8
22
 10
87.1123
 20
5.3910
 30
0.0000
  0
VERTEX
  8
22
 10
87.7394
 20
5.3910
 30
0.0000
  0
SEQEND
  8
0
  0
POLYLINE
  8
22
 66
1
 10
0.0000
 20
0.0000
 30
0.0000
 40
0.0381
 41
0.0381
 70
0
  0
VERTEX
  8
22
 10
87.7394
 20
5.3719
 30
0.0000
 42
1.0000
  0
VERTEX
  8
22
 10
87.7394
 20
5.4100
 30
0.0000
  0
SEQEND
  8
0
  0
POLYLINE
  8
22
 66
1
 10
0.0000
 20
0.0000
 30
0.0000
 40
0.0381
 41
0.0381
 70
0
  0
VERTEX
  8
22
 10
87.1123
 20
5.4100
 30
0.0000
 42
1.0000
  0
VERTEX
  8
22
 10
87.1123
 20
5.3719
 30
0.0000
  0
SEQEND
  8
0
  0
POLYLINE
  8
22
 66
1
 10
0.0000
 20
0.0000
 30
0.0000
 40
0.0762
 41
0.0762
 70
0
  0
VERTEX
  8
22
 10
87.2691
 20
6.0181
 30
0.0000
  0
VERTEX
  8
22
 10
87.2691
 20
5.3910
 30
0.0000
  0
SEQEND
  8
0
  0
POLYLINE
  8
22
 66
1
 10
0.0000
 20
0.0000
 30
0.0000
 40
0.0381
 41
0.0381
 70
0
  0
VERTEX
  8
22
 10
87.2501
 20
5.3910
 30
0.0000
 42
1.0000
  0
VERTEX
  8
22
 10
87.2882
 20
5.3910
 30
0.0000
  0
SEQEND
  8
0
  0
POLYLINE
  8
22
 66
1
 10
0.0000
 20
0.0000
 30
0.0000
 40
0.0381
 41
0.0381
 70
0
  0
VERTEX
  8
22
 10
87.2882
 20
6.0181
 30
0.0000
 42
1.0000
  0
VERTEX
  8
22
 10
87.2501
 20
6.0181
 30
0.0000
  0
SEQEND
  8
0
  0
POLYLINE
  8
22
 66
1
 10
0.0000
 20
0.0000
 30
0.0000
 40
0.0762
 41
0.0762
 70
0
  0
VERTEX
  8
22
 10
87.7394
 20
5.0825
 30
0.0000
  0
VERTEX
  8
22
 10
86.7988
 20
5.0825
 30
0.0000
  0
SEQEND
  8
0
  0
POLYLINE
  8
22
 66
1
 10
0.0000
 20
0.0000
 30
0.0000
 40
0.0381
 41
0.0381
 70
0
  0
VERTEX
  8
22
 10
86.7988
 20
5.1016
 30
0.0000
 42
1.0000
  0
VERTEX
  8
22
 10
86.7988
 20
5.0635
 30
0.0000
  0
SEQEND
  8
0
  0
POLYLINE
  8
22
 66
1
 10
0.0000
 20
0.0000
 30
0.0000
 40
0.0381
 41
0.0381
 70
0
  0
VERTEX
  8
22
 10
87.7394
 20
5.0635
 30
0.0000
 42
1.0000
  0
VERTEX
  8
22
 10
87.7394
 20
5.1016
 30
0.0000
  0
SEQEND
  8
0
  0
POLYLINE
  8
22
 66
1
 10
0.0000
 20
0.0000
 30
0.0000
 40
0.0762
 41
0.0762
 70
0
  0
VERTEX
  8
22
 10
86.7988
 20
5.0825
 30
0.0000
  0
VERTEX
  8
22
 10
86.7988
 20
4.6122
 30
0.0000
  0
SEQEND
  8
0
  0
POLYLINE
  8
22
 66
1
 10
0.0000
 20
0.0000
 30
0.0000
 40
0.0381
 41
0.0381
 70
0
  0
VERTEX
  8
22
 10
86.7797
 20
4.6122
 30
0.0000
 42
1.0000
  0
VERTEX
  8
22
 10
86.8178
 20
4.6122
 30
0.0000
  0
SEQEND
  8
0
  0
POLYLINE
  8
22
 66
1
 10
0.0000
 20
0.0000
 30
0.0000
 40
0.0381
 41
0.0381
 70
0
  0
VERTEX
  8
22
 10
86.8178
 20
5.0825
 30
0.0000
 42
1.0000
  0
VERTEX
  8
22
 10
86.7797
 20
5.0825
 30
0.0000
  0
SEQEND
  8
0
  0
POLYLINE
  8
22
 66
1
 10
0.0000
 20
0.0000
 30
0.0000
 40
0.0762
 41
0.0762
 70
0
  0
VERTEX
  8
22
 10
86.7988
 20
4.6122
 30
0.0000
  0
VERTEX
  8
22
 10
86.9556
 20
4.4555
 30
0.0000
  0
SEQEND
  8
0
  0
POLYLINE
  8
22
 66
1
 10
0.0000
 20
0.0000
 30
0.0000
 40
0.0381
 41
0.0381
 70
0
  0
VERTEX
  8
22
 10
86.9421
 20
4.4420
 30
0.0000
 42
1.0000
  0
VERTEX
  8
22
 10
86.9690
 20
4.4689
 30
0.0000
  0
SEQEND
  8
0
  0
POLYLINE
  8
22
 66
1
 10
0.0000
 20
0.0000
 30
0.0000
 40
0.0381
 41
0.0381
 70
0
  0
VERTEX
  8
22
 10
86.8123
 20
4.6257
 30
0.0000
 42
1.0000
  0
VERTEX
  8
22
 10
86.7853
 20
4.5988
 30
0.0000
  0
SEQEND
  8
0
  0
POLYLINE
  8
22
 66
1
 10
0.0000
 20
0.0000
 30
0.0000
 40
0.0762
 41
0.0762
 70
0
  0
VERTEX
  8
22
 10
86.9556
 20
4.4555
 30
0.0000
  0
VERTEX
  8
22
 10
87.1123
 20
4.4555
 30
0.0000
  0
SEQEND
  8
0
  0
POLYLINE
  8
22
 66
1
 10
0.0000
 20
0.0000
 30
0.0000
 40
0.0381
 41
0.0381
 70
0
  0
VERTEX
  8
22
 10
87.1123
 20
4.4364
 30
0.0000
 42
1.0000
  0
VERTEX
  8
22
 10
87.1123
 20
4.4745
 30
0.0000
  0
SEQEND
  8
0
  0
POLYLINE
  8
22
 66
1
 10
0.0000
 20
0.0000
 30
0.0000
 40
0.0381
 41
0.0381
 70
0
  0
VERTEX
  8
22
 10
86.9556
 20
4.4745
 30
0.0000
 42
1.0000
  0
VERTEX
  8
22
 10
86.9556
 20
4.4364
 30
0.0000
  0
SEQEND
  8
0
  0
POLYLINE
  8
22
 66
1
 10
0.0000
 20
0.0000
 30
0.0000
 40
0.0762
 41
0.0762
 70
0
  0
VERTEX
  8
22
 10
87.1123
 20
4.4555
 30
0.0000
  0
VERTEX
  8
22
 10
87.2691
 20
4.6122
 30
0.0000
  0
SEQEND
  8
0
  0
POLYLINE
  8
22
 66
1
 10
0.0000
 20
0.0000
 30
0.0000
 40
0.0381
 41
0.0381
 70
0
  0
VERTEX
  8
22
 10
87.2826
 20
4.5988
 30
0.0000
 42
1.0000
  0
VERTEX
  8
22
 10
87.2556
 20
4.6257
 30
0.0000
  0
SEQEND
  8
0
  0
POLYLINE
  8
22
 66
1
 10
0.0000
 20
0.0000
 30
0.0000
 40
0.0381
 41
0.0381
 70
0
  0
VERTEX
  8
22
 10
87.0989
 20
4.4689
 30
0.0000
 42
1.0000
  0
VERTEX
  8
22
 10
87.1258
 20
4.4420
 30
0.0000
  0
SEQEND
  8
0
  0
POLYLINE
  8
22
 66
1
 10
0.0000
 20
0.0000
 30
0.0000
 40
0.0762
 41
0.0762
 70
0
  0
VERTEX
  8
22
 10
87.2691
 20
4.6122
 30
0.0000
  0
VERTEX
  8
22
 10
87.4259
 20
4.4555
 30
0.0000
  0
SEQEND
  8
0
  0
POLYLINE
  8
22
 66
1
 10
0.0000
 20
0.0000
 30
0.0000
 40
0.0381
 41
0.0381
 70
0
  0
VERTEX
  8
22
 10
87.4124
 20
4.4420
 30
0.0000
 42
1.0000
  0
VERTEX
  8
22
 10
87.4393
 20
4.4689
 30
0.0000
  0
SEQEND
  8
0
  0
POLYLINE
  8
22
 66
1
 10
0.0000
 20
0.0000
 30
0.0000
 40
0.0381
 41
0.0381
 70
0
  0
VERTEX
  8
22
 10
87.2826
 20
4.6257
 30
0.0000
 42
1.0000
  0
VERTEX
  8
22
 10
87.2556
 20
4.5988
 30
0.0000
  0
SEQEND
  8
0
  0
POLYLINE
  8
22
 66
1
 10
0.0000
 20
0.0000
 30
0.0000
 40
0.0762
 41
0.0762
 70
0
  0
VERTEX
  8
22
 10
87.4259
 20
4.4555
 30
0.0000
  0
VERTEX
  8
22
 10
87.5826
 20
4.4555
 30
0.0000
  0
SEQEND
  8
0
  0
POLYLINE
  8
22
 66
1
 10
0.0000
 20
0.0000
 30
0.0000
 40
0.0381
 41
0.0381
 70
0
  0
VERTEX
  8
22
 10
87.5826
 20
4.4364
 30
0.0000
 42
1.0000
  0
VERTEX
  8
22
 10
87.5826
 20
4.4745
 30
0.0000
  0
SEQEND
  8
0
  0
POLYLINE
  8
22
 66
1
 10
0.0000
 20
0.0000
 30
0.0000
 40
0.0381
 41
0.0381
 70
0
  0
VERTEX
  8
22
 10
87.4259
 20
4.4745
 30
0.0000
 42
1.0000
  0
VERTEX
  8
22
 10
87.4259
 20
4.4364
 30
0.0000
  0
SEQEND
  8
0
  0
POLYLINE
  8
22
 66
1
 10
0.0000
 20
0.0000
 30
0.0000
 40
0.0762
 41
0.0762
 70
0
  0
VERTEX
  8
22
 10
87.5826
 20
4.4555
 30
0.0000
  0
VERTEX
  8
22
 10
87.7394
 20
4.6122
 30
0.0000
  0
SEQEND
  8
0
  0
POLYLINE
  8
22
 66
1
 10
0.0000
 20
0.0000
 30
0.0000
 40
0.0381
 41
0.0381
 70
0
  0
VERTEX
  8
22
 10
87.7529
 20
4.5988
 30
0.0000
 42
1.0000
  0
VERTEX
  8
22
 10
87.7259
 20
4.6257
 30
0.0000
  0
SEQEND
  8
0
  0
POLYLINE
  8
22
 66
1
 10
0.0000
 20
0.0000
 30
0.0000
 40
0.0381
 41
0.0381
 70
0
  0
VERTEX
  8
22
 10
87.5692
 20
4.4689
 30
0.0000
 42
1.0000
  0
VERTEX
  8
22
 10
87.5961
 20
4.4420
 30
0.0000
  0
SEQEND
  8
0
  0
POLYLINE
  8
22
 66
1
 10
0.0000
 20
0.0000
 30
0.0000
 40
0.0762
 41
0.0762
 70
0
  0
VERTEX
  8
22
 10
87.7394
 20
4.6122
 30
0.0000
  0
VERTEX
  8
22
 10
87.7394
 20
5.0825
 30
0.0000
  0
SEQEND
  8
0
  0
POLYLINE
  8
22
 66
1
 10
0.0000
 20
0.0000
 30
0.0000
 40
0.0381
 41
0.0381
 70
0
  0
VERTEX
  8
22
 10
87.7584
 20
5.0825
 30
0.0000
 42
1.0000
  0
VERTEX
  8
22
 10
87.7204
 20
5.0825
 30
0.0000
  0
SEQEND
  8
0
  0
POLYLINE
  8
22
 66
1
 10
0.0000
 20
0.0000
 30
0.0000
 40
0.0381
 41
0.0381
 70
0
  0
VERTEX
  8
22
 10
87.7204
 20
4.6122
 30
0.0000
 42
1.0000
  0
VERTEX
  8
22
 10
87.7584
 20
4.6122
 30
0.0000
  0
SEQEND
  8
0
  0
POLYLINE
  8
22
 66
1
 10
0.0000
 20
0.0000
 30
0.0000
 40
0.0762
 41
0.0762
 70
0
  0
VERTEX
  8
22
 10
87.2691
 20
5.0825
 30
0.0000
  0
VERTEX
  8
22
 10
87.2691
 20
4.6122
 30
0.0000
  0
SEQEND
  8
0
  0
POLYLINE
  8
22
 66
1
 10
0.0000
 20
0.0000
 30
0.0000
 40
0.0381
 41
0.0381
 70
0
  0
VERTEX
  8
22
 10
87.2501
 20
4.6122
 30
0.0000
 42
1.0000
  0
VERTEX
  8
22
 10
87.2882
 20
4.6122
 30
0.0000
  0
SEQEND
  8
0
  0
POLYLINE
  8
22
 66
1
 10
0.0000
 20
0.0000
 30
0.0000
 40
0.0381
 41
0.0381
 70
0
  0
VERTEX
  8
22
 10
87.2882
 20
5.0825
 30
0.0000
 42
1.0000
  0
VERTEX
  8
22
 10
87.2501
 20
5.0825
 30
0.0000
  0
SEQEND
  8
0
  0
POLYLINE
  8
22
 66
1
 10
0.0000
 20
0.0000
 30
0.0000
 40
0.0762
 41
0.0762
 70
0
  0
VERTEX
  8
22
 10
86.7988
 20
3.5200
 30
0.0000
  0
VERTEX
  8
22
 10
86.7988
 20
4.1470
 30
0.0000
  0
SEQEND
  8
0
  0
POLYLINE
  8
22
 66
1
 10
0.0000
 20
0.0000
 30
0.0000
 40
0.0381
 41
0.0381
 70
0
  0
VERTEX
  8
22
 10
86.8178
 20
4.1470
 30
0.0000
 42
1.0000
  0
VERTEX
  8
22
 10
86.7797
 20
4.1470
 30
0.0000
  0
SEQEND
  8
0
  0
POLYLINE
  8
22
 66
1
 10
0.0000
 20
0.0000
 30
0.0000
 40
0.0381
 41
0.0381
 70
0
  0
VERTEX
  8
22
 10
86.7797
 20
3.5200
 30
0.0000
 42
1.0000
  0
VERTEX
  8
22
 10
86.8178
 20
3.5200
 30
0.0000
  0
SEQEND
  8
0
  0
POLYLINE
  8
22
 66
1
 10
0.0000
 20
0.0000
 30
0.0000
 40
0.0762
 41
0.0762
 70
0
  0
VERTEX
  8
22
 10
86.7988
 20
4.1470
 30
0.0000
  0
VERTEX
  8
22
 10
87.7394
 20
4.1470
 30
0.0000
  0
SEQEND
  8
0
  0
POLYLINE
  8
22
 66
1
 10
0.0000
 20
0.0000
 30
0.0000
 40
0.0381
 41
0.0381
 70
0
  0
VERTEX
  8
22
 10
87.7394
 20
4.1280
 30
0.0000
 42
1.0000
  0
VERTEX
  8
22
 10
87.7394
 20
4.1661
 30
0.0000
  0
SEQEND
  8
0
  0
POLYLINE
  8
22
 66
1
 10
0.0000
 20
0.0000
 30
0.0000
 40
0.0381
 41
0.0381
 70
0
  0
VERTEX
  8
22
 10
86.7988
 20
4.1661
 30
0.0000
 42
1.0000
  0
VERTEX
  8
22
 10
86.7988
 20
4.1280
 30
0.0000
  0
SEQEND
  8
0
  0
POLYLINE
  8
22
 66
1
 10
0.0000
 20
0.0000
 30
0.0000
 40
0.0762
 41
0.0762
 70
0
  0
VERTEX
  8
22
 10
87.7394
 20
4.1470
 30
0.0000
  0
VERTEX
  8
22
 10
87.7394
 20
3.5200
 30
0.0000
  0
SEQEND
  8
0
  0
POLYLINE
  8
22
 66
1
 10
0.0000
 20
0.0000
 30
0.0000
 40
0.0381
 41
0.0381
 70
0
  0
VERTEX
  8
22
 10
87.7204
 20
3.5200
 30
0.0000
 42
1.0000
  0
VERTEX
  8
22
 10
87.7584
 20
3.5200
 30
0.0000
  0
SEQEND
  8
0
  0
POLYLINE
  8
22
 66
1
 10
0.0000
 20
0.0000
 30
0.0000
 40
0.0381
 41
0.0381
 70
0
  0
VERTEX
  8
22
 10
87.7584
 20
4.1470
 30
0.0000
 42
1.0000
  0
VERTEX
  8
22
 10
87.7204
 20
4.1470
 30
0.0000
  0
SEQEND
  8
0
  0
POLYLINE
  8
22
 66
1
 10
0.0000
 20
0.0000
 30
0.0000
 40
0.0762
 41
0.0762
 70
0
  0
VERTEX
  8
22
 10
87.2691
 20
4.1470
 30
0.0000
  0
VERTEX
  8
22
 10
87.2691
 20
3.8335
 30
0.0000
  0
SEQEND
  8
0
  0
POLYLINE
  8
22
 66
1
 10
0.0000
 20
0.0000
 30
0.0000
 40
0.0381
 41
0.0381
 70
0
  0
VERTEX
  8
22
 10
87.2501
 20
3.8335
 30
0.0000
 42
1.0000
  0
VERTEX
  8
22
 10
87.2882
 20
3.8335
 30
0.0000
  0
SEQEND
  8
0
  0
POLYLINE
  8
22
 66
1
 10
0.0000
 20
0.0000
 30
0.0000
 40
0.0381
 41
0.0381
 70
0
  0
VERTEX
  8
22
 10
87.2882
 20
4.1470
 30
0.0000
 42
1.0000
  0
VERTEX
  8
22
 10
87.2501
 20
4.1470
 30
0.0000
  0
SEQEND
  8
0
  0
POLYLINE
  8
22
 66
1
 10
0.0000
 20
0.0000
 30
0.0000
 40
0.0762
 41
0.0762
 70
0
  0
VERTEX
  8
22
 10
86.7988
 20
3.2115
 30
0.0000
  0
VERTEX
  8
22
 10
87.7394
 20
3.2115
 30
0.0000
  0
SEQEND
  8
0
  0
POLYLINE
  8
22
 66
1
 10
0.0000
 20
0.0000
 30
0.0000
 40
0.0381
 41
0.0381
 70
0
  0
VERTEX
  8
22
 10
87.7394
 20
3.1925
 30
0.0000
 42
1.0000
  0
VERTEX
  8
22
 10
87.7394
 20
3.2306
 30
0.0000
  0
SEQEND
  8
0
  0
POLYLINE
  8
22
 66
1
 10
0.0000
 20
0.0000
 30
0.0000
 40
0.0381
 41
0.0381
 70
0
  0
VERTEX
  8
22
 10
86.7988
 20
3.2306
 30
0.0000
 42
1.0000
  0
VERTEX
  8
22
 10
86.7988
 20
3.1925
 30
0.0000
  0
SEQEND
  8
0
  0
POLYLINE
  8
22
 66
1
 10
0.0000
 20
0.0000
 30
0.0000
 40
0.0762
 41
0.0762
 70
0
  0
VERTEX
  8
22
 10
87.7394
 20
3.2115
 30
0.0000
  0
VERTEX
  8
22
 10
87.7394
 20
2.5844
 30
0.0000
  0
SEQEND
  8
0
  0
POLYLINE
  8
22
 66
1
 10
0.0000
 20
0.0000
 30
0.0000
 40
0.0381
 41
0.0381
 70
0
  0
VERTEX
  8
22
 10
87.7204
 20
2.5844
 30
0.0000
 42
1.0000
  0
VERTEX
  8
22
 10
87.7584
 20
2.5844
 30
0.0000
  0
SEQEND
  8
0
  0
POLYLINE
  8
22
 66
1
 10
0.0000
 20
0.0000
 30
0.0000
 40
0.0381
 41
0.0381
 70
0
  0
VERTEX
  8
22
 10
87.7584
 20
3.2115
 30
0.0000
 42
1.0000
  0
VERTEX
  8
22
 10
87.7204
 20
3.2115
 30
0.0000
  0
SEQEND
  8
0
  0
POLYLINE
  8
21
 66
1
 10
0.0000
 20
0.0000
 30
0.0000
 40
0.0762
 41
0.0762
 70
0
  0
VERTEX
  8
21
 10
23.3413
 20
61.1106
 30
0.0000
  0
VERTEX
  8
21
 10
22.9727
 20
60.6192
 30
0.0000
  0
SEQEND
  8
0
  0
POLYLINE
  8
21
 66
1
 10
0.0000
 20
0.0000
 30
0.0000
 40
0.0381
 41
0.0381
 70
0
  0
VERTEX
  8
21
 10
22.9575
 20
60.6306
 30
0.0000
 42
1.0000
  0
VERTEX
  8
21
 10
22.9880
 20
60.6077
 30
0.0000
  0
SEQEND
  8
0
  0
POLYLINE
  8
21
 66
1
 10
0.0000
 20
0.0000
 30
0.0000
 40
0.0381
 41
0.0381
 70
0
  0
VERTEX
  8
21
 10
23.3566
 20
61.0992
 30
0.0000
 42
1.0000
  0
VERTEX
  8
21
 10
23.3261
 20
61.1221
 30
0.0000
  0
SEQEND
  8
0
  0
POLYLINE
  8
21
 66
1
 10
0.0000
 20
0.0000
 30
0.0000
 40
0.0762
 41
0.0762
 70
0
  0
VERTEX
  8
21
 10
22.9727
 20
60.6192
 30
0.0000
  0
VERTEX
  8
21
 10
22.6041
 20
61.1106
 30
0.0000
  0
SEQEND
  8
0
  0
POLYLINE
  8
21
 66
1
 10
0.0000
 20
0.0000
 30
0.0000
 40
0.0381
 41
0.0381
 70
0
  0
VERTEX
  8
21
 10
22.6193
 20
61.1221
 30
0.0000
 42
1.0000
  0
VERTEX
  8
21
 10
22.5889
 20
61.0992
 30
0.0000
  0
SEQEND
  8
0
  0
POLYLINE
  8
21
 66
1
 10
0.0000
 20
0.0000
 30
0.0000
 40
0.0381
 41
0.0381
 70
0
  0
VERTEX
  8
21
 10
22.9575
 20
60.6077
 30
0.0000
 42
1.0000
  0
VERTEX
  8
21
 10
22.9880
 20
60.6306
 30
0.0000
  0
SEQEND
  8
0
  0
POLYLINE
  8
21
 66
1
 10
0.0000
 20
0.0000
 30
0.0000
 40
0.0762
 41
0.0762
 70
0
  0
VERTEX
  8
21
 10
23.2185
 20
59.8708
 30
0.0000
  0
VERTEX
  8
21
 10
23.3413
 20
59.9936
 30
0.0000
  0
SEQEND
  8
0
  0
POLYLINE
  8
21
 66
1
 10
0.0000
 20
0.0000
 30
0.0000
 40
0.0381
 41
0.0381
 70
0
  0
VERTEX
  8
21
 10
23.3548
 20
59.9802
 30
0.0000
 42
1.0000
  0
VERTEX
  8
21
 10
23.3279
 20
60.0071
 30
0.0000
  0
SEQEND
  8
0
  0
POLYLINE
  8
21
 66
1
 10
0.0000
 20
0.0000
 30
0.0000
 40
0.0381
 41
0.0381
 70
0
  0
VERTEX
  8
21
 10
23.2050
 20
59.8842
 30
0.0000
 42
1.0000
  0
VERTEX
  8
21
 10
23.2319
 20
59.8573
 30
0.0000
  0
SEQEND
  8
0
  0
POLYLINE
  8
21
 66
1
 10
0.0000
 20
0.0000
 30
0.0000
 40
0.0762
 41
0.0762
 70
0
  0
VERTEX
  8
21
 10
23.3413
 20
59.9936
 30
0.0000
  0
VERTEX
  8
21
 10
23.3413
 20
60.2394
 30
0.0000
  0
SEQEND
  8
0
  0
POLYLINE
  8
21
 66
1
 10
0.0000
 20
0.0000
 30
0.0000
 40
0.0381
 41
0.0381
 70
0
  0
VERTEX
  8
21
 10
23.3604
 20
60.2394
 30
0.0000
 42
1.0000
  0
VERTEX
  8
21
 10
23.3223
 20
60.2394
 30
0.0000
  0
SEQEND
  8
0
  0
POLYLINE
  8
21
 66
1
 10
0.0000
 20
0.0000
 30
0.0000
 40
0.0381
 41
0.0381
 70
0
  0
VERTEX
  8
21
 10
23.3223
 20
59.9936
 30
0.0000
 42
1.0000
  0
VERTEX
  8
21
 10
23.3604
 20
59.9936
 30
0.0000
  0
SEQEND
  8
0
  0
POLYLINE
  8
21
 66
1
 10
0.0000
 20
0.0000
 30
0.0000
 40
0.0762
 41
0.0762
 70
0
  0
VERTEX
  8
21
 10
23.3413
 20
60.2394
 30
0.0000
  0
VERTEX
  8
21
 10
23.2185
 20
60.3622
 30
0.0000
  0
SEQEND
  8
0
  0
POLYLINE
  8
21
 66
1
 10
0.0000
 20
0.0000
 30
0.0000
 40
0.0381
 41
0.0381
 70
0
  0
VERTEX
  8
21
 10
23.2319
 20
60.3757
 30
0.0000
 42
1.0000
  0
VERTEX
  8
21
 10
23.2050
 20
60.3488
 30
0.0000
  0
SEQEND
  8
0
  0
POLYLINE
  8
21
 66
1
 10
0.0000
 20
0.0000
 30
0.0000
 40
0.0381
 41
0.0381
 70
0
  0
VERTEX
  8
21
 10
23.3279
 20
60.2259
 30
0.0000
 42
1.0000
  0
VERTEX
  8
21
 10
23.3548
 20
60.2528
 30
0.0000
  0
SEQEND
  8
0
  0
POLYLINE
  8
21
 66
1
 10
0.0000
 20
0.0000
 30
0.0000
 40
0.0762
 41
0.0762
 70
0
  0
VERTEX
  8
21
 10
23.2185
 20
60.3622
 30
0.0000
  0
VERTEX
  8
21
 10
22.7270
 20
60.3622
 30
0.0000
  0
SEQEND
  8
0
  0
POLYLINE
  8
21
 66
1
 10
0.0000
 20
0.0000
 30
0.0000
 40
0.0381
 41
0.0381
 70
0
  0
VERTEX
  8
21
 10
22.7270
 20
60.3813
 30
0.0000
 42
1.0000
  0
VERTEX
  8
21
 10
22.7270
 20
60.3432
 30
0.0000
  0
SEQEND
  8
0
  0
POLYLINE
  8
21
 66
1
 10
0.0000
 20
0.0000
 30
0.0000
 40
0.0381
 41
0.0381
 70
0
  0
VERTEX
  8
21
 10
23.2185
 20
60.3432
 30
0.0000
 42
1.0000
  0
VERTEX
  8
21
 10
23.2185
 20
60.3813
 30
0.0000
  0
SEQEND
  8
0
  0
POLYLINE
  8
21
 66
1
 10
0.0000
 20
0.0000
 30
0.0000
 40
0.0762
 41
0.0762
 70
0
  0
VERTEX
  8
21
 10
22.7270
 20
60.3622
 30
0.0000
  0
VERTEX
  8
21
 10
22.6041
 20
60.2394
 30
0.0000
  0
SEQEND
  8
0
  0
POLYLINE
  8
21
 66
1
 10
0.0000
 20
0.0000
 30
0.0000
 40
0.0381
 41
0.0381
 70
0
  0
VERTEX
  8
21
 10
22.5906
 20
60.2528
 30
0.0000
 42
1.0000
  0
VERTEX
  8
21
 10
22.6176
 20
60.2259
 30
0.0000
  0
SEQEND
  8
0
  0
POLYLINE
  8
21
 66
1
 10
0.0000
 20
0.0000
 30
0.0000
 40
0.0381
 41
0.0381
 70
0
  0
VERTEX
  8
21
 10
22.7404
 20
60.3488
 30
0.0000
 42
1.0000
  0
VERTEX
  8
21
 10
22.7135
 20
60.3757
 30
0.0000
  0
SEQEND
  8
0
  0
POLYLINE
  8
21
 66
1
 10
0.0000
 20
0.0000
 30
0.0000
 40
0.0762
 41
0.0762
 70
0
  0
VERTEX
  8
21
 10
22.6041
 20
60.2394
 30
0.0000
  0
VERTEX
  8
21
 10
22.6041
 20
59.9936
 30
0.0000
  0
SEQEND
  8
0
  0
POLYLINE
  8
21
 66
1
 10
0.0000
 20
0.0000
 30
0.0000
 40
0.0381
 41
0.0381
 70
0
  0
VERTEX
  8
21
 10
22.5851
 20
59.9936
 30
0.0000
 42
1.0000
  0
VERTEX
  8
21
 10
22.6232
 20
59.9936
 30
0.0000
  0
SEQEND
  8
0
  0
POLYLINE
  8
21
 66
1
 10
0.0000
 20
0.0000
 30
0.0000
 40
0.0381
 41
0.0381
 70
0
  0
VERTEX
  8
21
 10
22.6232
 20
60.2394
 30
0.0000
 42
1.0000
  0
VERTEX
  8
21
 10
22.5851
 20
60.2394
 30
0.0000
  0
SEQEND
  8
0
  0
POLYLINE
  8
21
 66
1
 10
0.0000
 20
0.0000
 30
0.0000
 40
0.0762
 41
0.0762
 70
0
  0
VERTEX
  8
21
 10
22.6041
 20
59.9936
 30
0.0000
  0
VERTEX
  8
21
 10
22.7270
 20
59.8708
 30
0.0000
  0
SEQEND
  8
0
  0
POLYLINE
  8
21
 66
1
 10
0.0000
 20
0.0000
 30
0.0000
 40
0.0381
 41
0.0381
 70
0
  0
VERTEX
  8
21
 10
22.7135
 20
59.8573
 30
0.0000
 42
1.0000
  0
VERTEX
  8
21
 10
22.7404
 20
59.8842
 30
0.0000
  0
SEQEND
  8
0
  0
POLYLINE
  8
21
 66
1
 10
0.0000
 20
0.0000
 30
0.0000
 40
0.0381
 41
0.0381
 70
0
  0
VERTEX
  8
21
 10
22.6176
 20
60.0071
 30
0.0000
 42
1.0000
  0
VERTEX
  8
21
 10
22.5906
 20
59.9802
 30
0.0000
  0
SEQEND
  8
0
  0
POLYLINE
  8
21
 66
1
 10
0.0000
 20
0.0000
 30
0.0000
 40
0.0762
 41
0.0762
 70
0
  0
VERTEX
  8
21
 10
23.3413
 20
59.2452
 30
0.0000
  0
VERTEX
  8
21
 10
23.3413
 20
59.4910
 30
0.0000
  0
SEQEND
  8
0
  0
POLYLINE
  8
21
 66
1
 10
0.0000
 20
0.0000
 30
0.0000
 40
0.0381
 41
0.0381
 70
0
  0
VERTEX
  8
21
 10
23.3604
 20
59.4910
 30
0.0000
 42
1.0000
  0
VERTEX
  8
21
 10
23.3223
 20
59.4910
 30
0.0000
  0
SEQEND
  8
0
  0
POLYLINE
  8
21
 66
1
 10
0.0000
 20
0.0000
 30
0.0000
 40
0.0381
 41
0.0381
 70
0
  0
VERTEX
  8
21
 10
23.3223
 20
59.2452
 30
0.0000
 42
1.0000
  0
VERTEX
  8
21
 10
23.3604
 20
59.2452
 30
0.0000
  0
SEQEND
  8
0
  0
POLYLINE
  8
21
 66
1
 10
0.0000
 20
0.0000
 30
0.0000
 40
0.0762
 41
0.0762
 70
0
  0
VERTEX
  8
21
 10
23.3413
 20
59.4910
 30
0.0000
  0
VERTEX
  8
21
 10
23.2185
 20
59.6138
 30
0.0000
  0
SEQEND
  8
0
  0
POLYLINE
  8
21
 66
1
 10
0.0000
 20
0.0000
 30
0.0000
 40
0.0381
 41
0.0381
 70
0
  0
VERTEX
  8
21
 10
23.2319
 20
59.6273
 30
0.0000
 42
1.0000
  0
VERTEX
  8
21
 10
23.2050
 20
59.6003
 30
0.0000
  0
SEQEND
  8
0
  0
POLYLINE
  8
21
 66
1
 10
0.0000
 20
0.0000
 30
0.0000
 40
0.0381
 41
0.0381
 70
0
  0
VERTEX
  8
21
 10
23.3279
 20
59.4775
 30
0.0000
 42
1.0000
  0
VERTEX
  8
21
 10
23.3548
 20
59.5044
 30
0.0000
  0
SEQEND
  8
0
  0
POLYLINE
  8
21
 66
1
 10
0.0000
 20
0.0000
 30
0.0000
 40
0.0762
 41
0.0762
 70
0
  0
VERTEX
  8
21
 10
23.2185
 20
59.6138
 30
0.0000
  0
VERTEX
  8
21
 10
22.7270
 20
59.6138
 30
0.0000
  0
SEQEND
  8
0
  0
POLYLINE
  8
21
 66
1
 10
0.0000
 20
0.0000
 30
0.0000
 40
0.0381
 41
0.0381
 70
0
  0
VERTEX
  8
21
 10
22.7270
 20
59.6329
 30
0.0000
 42
1.0000
  0
VERTEX
  8
21
 10
22.7270
 20
59.5948
 30
0.0000
  0
SEQEND
  8
0
  0
POLYLINE
  8
21
 66
1
 10
0.0000
 20
0.0000
 30
0.0000
 40
0.0381
 41
0.0381
 70
0
  0
VERTEX
  8
21
 10
23.2185
 20
59.5948
 30
0.0000
 42
1.0000
  0
VERTEX
  8
21
 10
23.2185
 20
59.6329
 30
0.0000
  0
SEQEND
  8
0
  0
POLYLINE
  8
21
 66
1
 10
0.0000
 20
0.0000
 30
0.0000
 40
0.0762
 41
0.0762
 70
0
  0
VERTEX
  8
21
 10
22.7270
 20
59.6138
 30
0.0000
  0
VERTEX
  8
21
 10
22.6041
 20
59.4910
 30
0.0000
  0
SEQEND
  8
0
  0
POLYLINE
  8
21
 66
1
 10
0.0000
 20
0.0000
 30
0.0000
 40
0.0381
 41
0.0381
 70
0
  0
VERTEX
  8
21
 10
22.5906
 20
59.5044
 30
0.0000
 42
1.0000
  0
VERTEX
  8
21
 10
22.6176
 20
59.4775
 30
0.0000
  0
SEQEND
  8
0
  0
POLYLINE
  8
21
 66
1
 10
0.0000
 20
0.0000
 30
0.0000
 40
0.0381
 41
0.0381
 70
0
  0
VERTEX
  8
21
 10
22.7404
 20
59.6003
 30
0.0000
 42
1.0000
  0
VERTEX
  8
21
 10
22.7135
 20
59.6273
 30
0.0000
  0
SEQEND
  8
0
  0
POLYLINE
  8
21
 66
1
 10
0.0000
 20
0.0000
 30
0.0000
 40
0.0762
 41
0.0762
 70
0
  0
VERTEX
  8
21
 10
22.6041
 20
59.4910
 30
0.0000
  0
VERTEX
  8
21
 10
22.6041
 20
59.2452
 30
0.0000
  0
SEQEND
  8
0
  0
POLYLINE
  8
21
 66
1
 10
0.0000
 20
0.0000
 30
0.0000
 40
0.0381
 41
0.0381
 70
0
  0
VERTEX
  8
21
 10
22.5851
 20
59.2452
 30
0.0000
 42
1.0000
  0
VERTEX
  8
21
 10
22.6232
 20
59.2452
 30
0.0000
  0
SEQEND
  8
0
  0
POLYLINE
  8
21
 66
1
 10
0.0000
 20
0.0000
 30
0.0000
 40
0.0381
 41
0.0381
 70
0
  0
VERTEX
  8
21
 10
22.6232
 20
59.4910
 30
0.0000
 42
1.0000
  0
VERTEX
  8
21
 10
22.5851
 20
59.4910
 30
0.0000
  0
SEQEND
  8
0
  0
POLYLINE
  8
21
 66
1
 10
0.0000
 20
0.0000
 30
0.0000
 40
0.0762
 41
0.0762
 70
0
  0
VERTEX
  8
21
 10
22.6041
 20
59.2452
 30
0.0000
  0
VERTEX
  8
21
 10
22.7270
 20
59.1223
 30
0.0000
  0
SEQEND
  8
0
  0
POLYLINE
  8
21
 66
1
 10
0.0000
 20
0.0000
 30
0.0000
 40
0.0381
 41
0.0381
 70
0
  0
VERTEX
  8
21
 10
22.7135
 20
59.1089
 30
0.0000
 42
1.0000
  0
VERTEX
  8
21
 10
22.7404
 20
59.1358
 30
0.0000
  0
SEQEND
  8
0
  0
POLYLINE
  8
21
 66
1
 10
0.0000
 20
0.0000
 30
0.0000
 40
0.0381
 41
0.0381
 70
0
  0
VERTEX
  8
21
 10
22.6176
 20
59.2587
 30
0.0000
 42
1.0000
  0
VERTEX
  8
21
 10
22.5906
 20
59.2317
 30
0.0000
  0
SEQEND
  8
0
  0
POLYLINE
  8
21
 66
1
 10
0.0000
 20
0.0000
 30
0.0000
 40
0.0762
 41
0.0762
 70
0
  0
VERTEX
  8
21
 10
22.7270
 20
59.1223
 30
0.0000
  0
VERTEX
  8
21
 10
23.2185
 20
59.1223
 30
0.0000
  0
SEQEND
  8
0
  0
POLYLINE
  8
21
 66
1
 10
0.0000
 20
0.0000
 30
0.0000
 40
0.0381
 41
0.0381
 70
0
  0
VERTEX
  8
21
 10
23.2185
 20
59.1033
 30
0.0000
 42
1.0000
  0
VERTEX
  8
21
 10
23.2185
 20
59.1414
 30
0.0000
  0
SEQEND
  8
0
  0
POLYLINE
  8
21
 66
1
 10
0.0000
 20
0.0000
 30
0.0000
 40
0.0381
 41
0.0381
 70
0
  0
VERTEX
  8
21
 10
22.7270
 20
59.1414
 30
0.0000
 42
1.0000
  0
VERTEX
  8
21
 10
22.7270
 20
59.1033
 30
0.0000
  0
SEQEND
  8
0
  0
POLYLINE
  8
21
 66
1
 10
0.0000
 20
0.0000
 30
0.0000
 40
0.0762
 41
0.0762
 70
0
  0
VERTEX
  8
21
 10
23.2185
 20
59.1223
 30
0.0000
  0
VERTEX
  8
21
 10
23.3413
 20
59.2452
 30
0.0000
  0
SEQEND
  8
0
  0
POLYLINE
  8
21
 66
1
 10
0.0000
 20
0.0000
 30
0.0000
 40
0.0381
 41
0.0381
 70
0
  0
VERTEX
  8
21
 10
23.3548
 20
59.2317
 30
0.0000
 42
1.0000
  0
VERTEX
  8
21
 10
23.3279
 20
59.2587
 30
0.0000
  0
SEQEND
  8
0
  0
POLYLINE
  8
21
 66
1
 10
0.0000
 20
0.0000
 30
0.0000
 40
0.0381
 41
0.0381
 70
0
  0
VERTEX
  8
21
 10
23.2050
 20
59.1358
 30
0.0000
 42
1.0000
  0
VERTEX
  8
21
 10
23.2319
 20
59.1089
 30
0.0000
  0
SEQEND
  8
0
  0
POLYLINE
  8
21
 66
1
 10
0.0000
 20
0.0000
 30
0.0000
 40
0.0762
 41
0.0762
 70
0
  0
VERTEX
  8
21
 10
22.6041
 20
58.8654
 30
0.0000
  0
VERTEX
  8
21
 10
23.3413
 20
58.8654
 30
0.0000
  0
SEQEND
  8
0
  0
POLYLINE
  8
21
 66
1
 10
0.0000
 20
0.0000
 30
0.0000
 40
0.0381
 41
0.0381
 70
0
  0
VERTEX
  8
21
 10
23.3413
 20
58.8464
 30
0.0000
 42
1.0000
  0
VERTEX
  8
21
 10
23.3413
 20
58.8845
 30
0.0000
  0
SEQEND
  8
0
  0
POLYLINE
  8
21
 66
1
 10
0.0000
 20
0.0000
 30
0.0000
 40
0.0381
 41
0.0381
 70
0
  0
VERTEX
  8
21
 10
22.6041
 20
58.8845
 30
0.0000
 42
1.0000
  0
VERTEX
  8
21
 10
22.6041
 20
58.8464
 30
0.0000
  0
SEQEND
  8
0
  0
POLYLINE
  8
21
 66
1
 10
0.0000
 20
0.0000
 30
0.0000
 40
0.0762
 41
0.0762
 70
0
  0
VERTEX
  8
21
 10
23.3413
 20
58.8654
 30
0.0000
  0
VERTEX
  8
21
 10
23.3413
 20
58.4968
 30
0.0000
  0
SEQEND
  8
0
  0
POLYLINE
  8
21
 66
1
 10
0.0000
 20
0.0000
 30
0.0000
 40
0.0381
 41
0.0381
 70
0
  0
VERTEX
  8
21
 10
23.3223
 20
58.4968
 30
0.0000
 42
1.0000
  0
VERTEX
  8
21
 10
23.3604
 20
58.4968
 30
0.0000
  0
SEQEND
  8
0
  0
POLYLINE
  8
21
 66
1
 10
0.0000
 20
0.0000
 30
0.0000
 40
0.0381
 41
0.0381
 70
0
  0
VERTEX
  8
21
 10
23.3604
 20
58.8654
 30
0.0000
 42
1.0000
  0
VERTEX
  8
21
 10
23.3223
 20
58.8654
 30
0.0000
  0
SEQEND
  8
0
  0
POLYLINE
  8
21
 66
1
 10
0.0000
 20
0.0000
 30
0.0000
 40
0.0762
 41
0.0762
 70
0
  0
VERTEX
  8
21
 10
23.3413
 20
58.4968
 30
0.0000
  0
VERTEX
  8
21
 10
23.2185
 20
58.3739
 30
0.0000
  0
SEQEND
  8
0
  0
POLYLINE
  8
21
 66
1
 10
0.0000
 20
0.0000
 30
0.0000
 40
0.0381
 41
0.0381
 70
0
  0
VERTEX
  8
21
 10
23.2050
 20
58.3874
 30
0.0000
 42
1.0000
  0
VERTEX
  8
21
 10
23.2319
 20
58.3604
 30
0.0000
  0
SEQEND
  8
0
  0
POLYLINE
  8
21
 66
1
 10
0.0000
 20
0.0000
 30
0.0000
 40
0.0381
 41
0.0381
 70
0
  0
VERTEX
  8
21
 10
23.3548
 20
58.4833
 30
0.0000
 42
1.0000
  0
VERTEX
  8
21
 10
23.3279
 20
58.5103
 30
0.0000
  0
SEQEND
  8
0
  0
POLYLINE
  8
21
 66
1
 10
0.0000
 20
0.0000
 30
0.0000
 40
0.0762
 41
0.0762
 70
0
  0
VERTEX
  8
21
 10
23.2185
 20
58.3739
 30
0.0000
  0
VERTEX
  8
21
 10
22.9727
 20
58.3739
 30
0.0000
  0
SEQEND
  8
0
  0
POLYLINE
  8
21
 66
1
 10
0.0000
 20
0.0000
 30
0.0000
 40
0.0381
 41
0.0381
 70
0
  0
VERTEX
  8
21
 10
22.9727
 20
58.3930
 30
0.0000
 42
1.0000
  0
VERTEX
  8
21
 10
22.9727
 20
58.3549
 30
0.0000
  0
SEQEND
  8
0
  0
POLYLINE
  8
21
 66
1
 10
0.0000
 20
0.0000
 30
0.0000
 40
0.0381
 41
0.0381
 70
0
  0
VERTEX
  8
21
 10
23.2185
 20
58.3549
 30
0.0000
 42
1.0000
  0
VERTEX
  8
21
 10
23.2185
 20
58.3930
 30
0.0000
  0
SEQEND
  8
0
  0
POLYLINE
  8
21
 66
1
 10
0.0000
 20
0.0000
 30
0.0000
 40
0.0762
 41
0.0762
 70
0
  0
VERTEX
  8
21
 10
22.9727
 20
58.3739
 30
0.0000
  0
VERTEX
  8
21
 10
22.8498
 20
58.4968
 30
0.0000
  0
SEQEND
  8
0
  0
POLYLINE
  8
21
 66
1
 10
0.0000
 20
0.0000
 30
0.0000
 40
0.0381
 41
0.0381
 70
0
  0
VERTEX
  8
21
 10
22.8633
 20
58.5103
 30
0.0000
 42
1.0000
  0
VERTEX
  8
21
 10
22.8364
 20
58.4833
 30
0.0000
  0
SEQEND
  8
0
  0
POLYLINE
  8
21
 66
1
 10
0.0000
 20
0.0000
 30
0.0000
 40
0.0381
 41
0.0381
 70
0
  0
VERTEX
  8
21
 10
22.9592
 20
58.3604
 30
0.0000
 42
1.0000
  0
VERTEX
  8
21
 10
22.9862
 20
58.3874
 30
0.0000
  0
SEQEND
  8
0
  0
POLYLINE
  8
21
 66
1
 10
0.0000
 20
0.0000
 30
0.0000
 40
0.0762
 41
0.0762
 70
0
  0
VERTEX
  8
21
 10
22.8498
 20
58.4968
 30
0.0000
  0
VERTEX
  8
21
 10
22.8498
 20
58.8654
 30
0.0000
  0
SEQEND
  8
0
  0
POLYLINE
  8
21
 66
1
 10
0.0000
 20
0.0000
 30
0.0000
 40
0.0381
 41
0.0381
 70
0
  0
VERTEX
  8
21
 10
22.8689
 20
58.8654
 30
0.0000
 42
1.0000
  0
VERTEX
  8
21
 10
22.8308
 20
58.8654
 30
0.0000
  0
SEQEND
  8
0
  0
POLYLINE
  8
21
 66
1
 10
0.0000
 20
0.0000
 30
0.0000
 40
0.0381
 41
0.0381
 70
0
  0
VERTEX
  8
21
 10
22.8308
 20
58.4968
 30
0.0000
 42
1.0000
  0
VERTEX
  8
21
 10
22.8689
 20
58.4968
 30
0.0000
  0
SEQEND
  8
0
  0
POLYLINE
  8
21
 66
1
 10
0.0000
 20
0.0000
 30
0.0000
 40
0.0762
 41
0.0762
 70
0
  0
VERTEX
  8
21
 10
23.3413
 20
58.1170
 30
0.0000
  0
VERTEX
  8
21
 10
23.2185
 20
58.1170
 30
0.0000
  0
SEQEND
  8
0
  0
POLYLINE
  8
21
 66
1
 10
0.0000
 20
0.0000
 30
0.0000
 40
0.0381
 41
0.0381
 70
0
  0
VERTEX
  8
21
 10
23.2185
 20
58.1360
 30
0.0000
 42
1.0000
  0
VERTEX
  8
21
 10
23.2185
 20
58.0979
 30
0.0000
  0
SEQEND
  8
0
  0
POLYLINE
  8
21
 66
1
 10
0.0000
 20
0.0000
 30
0.0000
 40
0.0381
 41
0.0381
 70
0
  0
VERTEX
  8
21
 10
23.3413
 20
58.0979
 30
0.0000
 42
1.0000
  0
VERTEX
  8
21
 10
23.3413
 20
58.1360
 30
0.0000
  0
SEQEND
  8
0
  0
POLYLINE
  8
21
 66
1
 10
0.0000
 20
0.0000
 30
0.0000
 40
0.0762
 41
0.0762
 70
0
  0
VERTEX
  8
21
 10
23.2185
 20
58.1170
 30
0.0000
  0
VERTEX
  8
21
 10
22.9727
 20
57.8712
 30
0.0000
  0
SEQEND
  8
0
  0
POLYLINE
  8
21
 66
1
 10
0.0000
 20
0.0000
 30
0.0000
 40
0.0381
 41
0.0381
 70
0
  0
VERTEX
  8
21
 10
22.9592
 20
57.8847
 30
0.0000
 42
1.0000
  0
VERTEX
  8
21
 10
22.9862
 20
57.8578
 30
0.0000
  0
SEQEND
  8
0
  0
POLYLINE
  8
21
 66
1
 10
0.0000
 20
0.0000
 30
0.0000
 40
0.0381
 41
0.0381
 70
0
  0
VERTEX
  8
21
 10
23.2319
 20
58.1035
 30
0.0000
 42
1.0000
  0
VERTEX
  8
21
 10
23.2050
 20
58.1305
 30
0.0000
  0
SEQEND
  8
0
  0
POLYLINE
  8
21
 66
1
 10
0.0000
 20
0.0000
 30
0.0000
 40
0.0762
 41
0.0762
 70
0
  0
VERTEX
  8
21
 10
22.9727
 20
57.8712
 30
0.0000
  0
VERTEX
  8
21
 10
23.2185
 20
57.6255
 30
0.0000
  0
SEQEND
  8
0
  0
POLYLINE
  8
21
 66
1
 10
0.0000
 20
0.0000
 30
0.0000
 40
0.0381
 41
0.0381
 70
0
  0
VERTEX
  8
21
 10
23.2050
 20
57.6120
 30
0.0000
 42
1.0000
  0
VERTEX
  8
21
 10
23.2319
 20
57.6390
 30
0.0000
  0
SEQEND
  8
0
  0
POLYLINE
  8
21
 66
1
 10
0.0000
 20
0.0000
 30
0.0000
 40
0.0381
 41
0.0381
 70
0
  0
VERTEX
  8
21
 10
22.9862
 20
57.8847
 30
0.0000
 42
1.0000
  0
VERTEX
  8
21
 10
22.9592
 20
57.8578
 30
0.0000
  0
SEQEND
  8
0
  0
POLYLINE
  8
21
 66
1
 10
0.0000
 20
0.0000
 30
0.0000
 40
0.0762
 41
0.0762
 70
0
  0
VERTEX
  8
21
 10
23.2185
 20
57.6255
 30
0.0000
  0
VERTEX
  8
21
 10
23.3413
 20
57.6255
 30
0.0000
  0
SEQEND
  8
0
  0
POLYLINE
  8
21
 66
1
 10
0.0000
 20
0.0000
 30
0.0000
 40
0.0381
 41
0.0381
 70
0
  0
VERTEX
  8
21
 10
23.3413
 20
57.6065
 30
0.0000
 42
1.0000
  0
VERTEX
  8
21
 10
23.3413
 20
57.6446
 30
0.0000
  0
SEQEND
  8
0
  0
POLYLINE
  8
21
 66
1
 10
0.0000
 20
0.0000
 30
0.0000
 40
0.0381
 41
0.0381
 70
0
  0
VERTEX
  8
21
 10
23.2185
 20
57.6446
 30
0.0000
 42
1.0000
  0
VERTEX
  8
21
 10
23.2185
 20
57.6065
 30
0.0000
  0
SEQEND
  8
0
  0
POLYLINE
  8
21
 66
1
 10
0.0000
 20
0.0000
 30
0.0000
 40
0.0762
 41
0.0762
 70
0
  0
VERTEX
  8
21
 10
22.9727
 20
57.8712
 30
0.0000
  0
VERTEX
  8
21
 10
22.6041
 20
57.8712
 30
0.0000
  0
SEQEND
  8
0
  0
POLYLINE
  8
21
 66
1
 10
0.0000
 20
0.0000
 30
0.0000
 40
0.0381
 41
0.0381
 70
0
  0
VERTEX
  8
21
 10
22.6041
 20
57.8903
 30
0.0000
 42
1.0000
  0
VERTEX
  8
21
 10
22.6041
 20
57.8522
 30
0.0000
  0
SEQEND
  8
0
  0
POLYLINE
  8
21
 66
1
 10
0.0000
 20
0.0000
 30
0.0000
 40
0.0381
 41
0.0381
 70
0
  0
VERTEX
  8
21
 10
22.9727
 20
57.8522
 30
0.0000
 42
1.0000
  0
VERTEX
  8
21
 10
22.9727
 20
57.8903
 30
0.0000
  0
SEQEND
  8
0
  0
POLYLINE
  8
21
 66
1
 10
0.0000
 20
0.0000
 30
0.0000
 40
0.0762
 41
0.0762
 70
0
  0
VERTEX
  8
21
 10
22.6041
 20
57.3686
 30
0.0000
  0
VERTEX
  8
21
 10
23.3413
 20
57.3686
 30
0.0000
  0
SEQEND
  8
0
  0
POLYLINE
  8
21
 66
1
 10
0.0000
 20
0.0000
 30
0.0000
 40
0.0381
 41
0.0381
 70
0
  0
VERTEX
  8
21
 10
23.3413
 20
57.3495
 30
0.0000
 42
1.0000
  0
VERTEX
  8
21
 10
23.3413
 20
57.3876
 30
0.0000
  0
SEQEND
  8
0
  0
POLYLINE
  8
21
 66
1
 10
0.0000
 20
0.0000
 30
0.0000
 40
0.0381
 41
0.0381
 70
0
  0
VERTEX
  8
21
 10
22.6041
 20
57.3876
 30
0.0000
 42
1.0000
  0
VERTEX
  8
21
 10
22.6041
 20
57.3495
 30
0.0000
  0
SEQEND
  8
0
  0
POLYLINE
  8
21
 66
1
 10
0.0000
 20
0.0000
 30
0.0000
 40
0.0762
 41
0.0762
 70
0
  0
VERTEX
  8
21
 10
23.3413
 20
57.3686
 30
0.0000
  0
VERTEX
  8
21
 10
23.3413
 20
57.0000
 30
0.0000
  0
SEQEND
  8
0
  0
POLYLINE
  8
21
 66
1
 10
0.0000
 20
0.0000
 30
0.0000
 40
0.0381
 41
0.0381
 70
0
  0
VERTEX
  8
21
 10
23.3223
 20
57.0000
 30
0.0000
 42
1.0000
  0
VERTEX
  8
21
 10
23.3604
 20
57.0000
 30
0.0000
  0
SEQEND
  8
0
  0
POLYLINE
  8
21
 66
1
 10
0.0000
 20
0.0000
 30
0.0000
 40
0.0381
 41
0.0381
 70
0
  0
VERTEX
  8
21
 10
23.3604
 20
57.3686
 30
0.0000
 42
1.0000
  0
VERTEX
  8
21
 10
23.3223
 20
57.3686
 30
0.0000
  0
SEQEND
  8
0
  0
POLYLINE
  8
21
 66
1
 10
0.0000
 20
0.0000
 30
0.0000
 40
0.0762
 41
0.0762
 70
0
  0
VERTEX
  8
21
 10
23.3413
 20
57.0000
 30
0.0000
  0
VERTEX
  8
21
 10
23.2185
 20
56.8771
 30
0.0000
  0
SEQEND
  8
0
  0
POLYLINE
  8
21
 66
1
 10
0.0000
 20
0.0000
 30
0.0000
 40
0.0381
 41
0.0381
 70
0
  0
VERTEX
  8
21
 10
23.2050
 20
56.8906
 30
0.0000
 42
1.0000
  0
VERTEX
  8
21
 10
23.2319
 20
56.8636
 30
0.0000
  0
SEQEND
  8
0
  0
POLYLINE
  8
21
 66
1
 10
0.0000
 20
0.0000
 30
0.0000
 40
0.0381
 41
0.0381
 70
0
  0
VERTEX
  8
21
 10
23.3548
 20
56.9865
 30
0.0000
 42
1.0000
  0
VERTEX
  8
21
 10
23.3279
 20
57.0134
 30
0.0000
  0
SEQEND
  8
0
  0
POLYLINE
  8
21
 66
1
 10
0.0000
 20
0.0000
 30
0.0000
 40
0.0762
 41
0.0762
 70
0
  0
VERTEX
  8
21
 10
23.2185
 20
56.8771
 30
0.0000
  0
VERTEX
  8
21
 10
22.9727
 20
56.8771
 30
0.0000
  0
SEQEND
  8
0
  0
POLYLINE
  8
21
 66
1
 10
0.0000
 20
0.0000
 30
0.0000
 40
0.0381
 41
0.0381
 70
0
  0
VERTEX
  8
21
 10
22.9727
 20
56.8961
 30
0.0000
 42
1.0000
  0
VERTEX
  8
21
 10
22.9727
 20
56.8580
 30
0.0000
  0
SEQEND
  8
0
  0
POLYLINE
  8
21
 66
1
 10
0.0000
 20
0.0000
 30
0.0000
 40
0.0381
 41
0.0381
 70
0
  0
VERTEX
  8
21
 10
23.2185
 20
56.8580
 30
0.0000
 42
1.0000
  0
VERTEX
  8
21
 10
23.2185
 20
56.8961
 30
0.0000
  0
SEQEND
  8
0
  0
POLYLINE
  8
21
 66
1
 10
0.0000
 20
0.0000
 30
0.0000
 40
0.0762
 41
0.0762
 70
0
  0
VERTEX
  8
21
 10
22.9727
 20
56.8771
 30
0.0000
  0
VERTEX
  8
21
 10
22.8498
 20
57.0000
 30
0.0000
  0
SEQEND
  8
0
  0
POLYLINE
  8
21
 66
1
 10
0.0000
 20
0.0000
 30
0.0000
 40
0.0381
 41
0.0381
 70
0
  0
VERTEX
  8
21
 10
22.8633
 20
57.0134
 30
0.0000
 42
1.0000
  0
VERTEX
  8
21
 10
22.8364
 20
56.9865
 30
0.0000
  0
SEQEND
  8
0
  0
POLYLINE
  8
21
 66
1
 10
0.0000
 20
0.0000
 30
0.0000
 40
0.0381
 41
0.0381
 70
0
  0
VERTEX
  8
21
 10
22.9592
 20
56.8636
 30
0.0000
 42
1.0000
  0
VERTEX
  8
21
 10
22.9862
 20
56.8906
 30
0.0000
  0
SEQEND
  8
0
  0
POLYLINE
  8
21
 66
1
 10
0.0000
 20
0.0000
 30
0.0000
 40
0.0762
 41
0.0762
 70
0
  0
VERTEX
  8
21
 10
22.8498
 20
57.0000
 30
0.0000
  0
VERTEX
  8
21
 10
22.8498
 20
57.3686
 30
0.0000
  0
SEQEND
  8
0
  0
POLYLINE
  8
21
 66
1
 10
0.0000
 20
0.0000
 30
0.0000
 40
0.0381
 41
0.0381
 70
0
  0
VERTEX
  8
21
 10
22.8689
 20
57.3686
 30
0.0000
 42
1.0000
  0
VERTEX
  8
21
 10
22.8308
 20
57.3686
 30
0.0000
  0
SEQEND
  8
0
  0
POLYLINE
  8
21
 66
1
 10
0.0000
 20
0.0000
 30
0.0000
 40
0.0381
 41
0.0381
 70
0
  0
VERTEX
  8
21
 10
22.8308
 20
57.0000
 30
0.0000
 42
1.0000
  0
VERTEX
  8
21
 10
22.8689
 20
57.0000
 30
0.0000
  0
SEQEND
  8
0
  0
POLYLINE
  8
21
 66
1
 10
0.0000
 20
0.0000
 30
0.0000
 40
0.0762
 41
0.0762
 70
0
  0
VERTEX
  8
21
 10
22.8498
 20
57.1228
 30
0.0000
  0
VERTEX
  8
21
 10
22.6041
 20
56.8771
 30
0.0000
  0
SEQEND
  8
0
  0
POLYLINE
  8
21
 66
1
 10
0.0000
 20
0.0000
 30
0.0000
 40
0.0381
 41
0.0381
 70
0
  0
VERTEX
  8
21
 10
22.5906
 20
56.8906
 30
0.0000
 42
1.0000
  0
VERTEX
  8
21
 10
22.6176
 20
56.8636
 30
0.0000
  0
SEQEND
  8
0
  0
POLYLINE
  8
21
 66
1
 10
0.0000
 20
0.0000
 30
0.0000
 40
0.0381
 41
0.0381
 70
0
  0
VERTEX
  8
21
 10
22.8633
 20
57.1094
 30
0.0000
 42
1.0000
  0
VERTEX
  8
21
 10
22.8364
 20
57.1363
 30
0.0000
  0
SEQEND
  8
0
  0
POLYLINE
  8
21
 66
1
 10
0.0000
 20
0.0000
 30
0.0000
 40
0.0762
 41
0.0762
 70
0
  0
VERTEX
  8
21
 10
22.6041
 20
56.6202
 30
0.0000
  0
VERTEX
  8
21
 10
22.6041
 20
56.3744
 30
0.0000
  0
SEQEND
  8
0
  0
POLYLINE
  8
21
 66
1
 10
0.0000
 20
0.0000
 30
0.0000
 40
0.0381
 41
0.0381
 70
0
  0
VERTEX
  8
21
 10
22.5851
 20
56.3744
 30
0.0000
 42
1.0000
  0
VERTEX
  8
21
 10
22.6232
 20
56.3744
 30
0.0000
  0
SEQEND
  8
0
  0
POLYLINE
  8
21
 66
1
 10
0.0000
 20
0.0000
 30
0.0000
 40
0.0381
 41
0.0381
 70
0
  0
VERTEX
  8
21
 10
22.6232
 20
56.6202
 30
0.0000
 42
1.0000
  0
VERTEX
  8
21
 10
22.5851
 20
56.6202
 30
0.0000
  0
SEQEND
  8
0
  0
POLYLINE
  8
21
 66
1
 10
0.0000
 20
0.0000
 30
0.0000
 40
0.0762
 41
0.0762
 70
0
  0
VERTEX
  8
21
 10
22.6041
 20
56.4973
 30
0.0000
  0
VERTEX
  8
21
 10
23.3413
 20
56.4973
 30
0.0000
  0
SEQEND
  8
0
  0
POLYLINE
  8
21
 66
1
 10
0.0000
 20
0.0000
 30
0.0000
 40
0.0381
 41
0.0381
 70
0
  0
VERTEX
  8
21
 10
23.3413
 20
56.4782
 30
0.0000
 42
1.0000
  0
VERTEX
  8
21
 10
23.3413
 20
56.5163
 30
0.0000
  0
SEQEND
  8
0
  0
POLYLINE
  8
21
 66
1
 10
0.0000
 20
0.0000
 30
0.0000
 40
0.0381
 41
0.0381
 70
0
  0
VERTEX
  8
21
 10
22.6041
 20
56.5163
 30
0.0000
 42
1.0000
  0
VERTEX
  8
21
 10
22.6041
 20
56.4782
 30
0.0000
  0
SEQEND
  8
0
  0
POLYLINE
  8
21
 66
1
 10
0.0000
 20
0.0000
 30
0.0000
 40
0.0762
 41
0.0762
 70
0
  0
VERTEX
  8
21
 10
23.3413
 20
56.6202
 30
0.0000
  0
VERTEX
  8
21
 10
23.3413
 20
56.3744
 30
0.0000
  0
SEQEND
  8
0
  0
POLYLINE
  8
21
 66
1
 10
0.0000
 20
0.0000
 30
0.0000
 40
0.0381
 41
0.0381
 70
0
  0
VERTEX
  8
21
 10
23.3223
 20
56.3744
 30
0.0000
 42
1.0000
  0
VERTEX
  8
21
 10
23.3604
 20
56.3744
 30
0.0000
  0
SEQEND
  8
0
  0
POLYLINE
  8
21
 66
1
 10
0.0000
 20
0.0000
 30
0.0000
 40
0.0381
 41
0.0381
 70
0
  0
VERTEX
  8
21
 10
23.3604
 20
56.6202
 30
0.0000
 42
1.0000
  0
VERTEX
  8
21
 10
23.3223
 20
56.6202
 30
0.0000
  0
SEQEND
  8
0
  0
POLYLINE
  8
21
 66
1
 10
0.0000
 20
0.0000
 30
0.0000
 40
0.0762
 41
0.0762
 70
0
  0
VERTEX
  8
21
 10
23.2185
 20
55.6297
 30
0.0000
  0
VERTEX
  8
21
 10
23.3413
 20
55.7526
 30
0.0000
  0
SEQEND
  8
0
  0
POLYLINE
  8
21
 66
1
 10
0.0000
 20
0.0000
 30
0.0000
 40
0.0381
 41
0.0381
 70
0
  0
VERTEX
  8
21
 10
23.3548
 20
55.7391
 30
0.0000
 42
1.0000
  0
VERTEX
  8
21
 10
23.3279
 20
55.7661
 30
0.0000
  0
SEQEND
  8
0
  0
POLYLINE
  8
21
 66
1
 10
0.0000
 20
0.0000
 30
0.0000
 40
0.0381
 41
0.0381
 70
0
  0
VERTEX
  8
21
 10
23.2050
 20
55.6432
 30
0.0000
 42
1.0000
  0
VERTEX
  8
21
 10
23.2319
 20
55.6163
 30
0.0000
  0
SEQEND
  8
0
  0
POLYLINE
  8
21
 66
1
 10
0.0000
 20
0.0000
 30
0.0000
 40
0.0762
 41
0.0762
 70
0
  0
VERTEX
  8
21
 10
23.3413
 20
55.7526
 30
0.0000
  0
VERTEX
  8
21
 10
23.3413
 20
55.9983
 30
0.0000
  0
SEQEND
  8
0
  0
POLYLINE
  8
21
 66
1
 10
0.0000
 20
0.0000
 30
0.0000
 40
0.0381
 41
0.0381
 70
0
  0
VERTEX
  8
21
 10
23.3604
 20
55.9983
 30
0.0000
 42
1.0000
  0
VERTEX
  8
21
 10
23.3223
 20
55.9983
 30
0.0000
  0
SEQEND
  8
0
  0
POLYLINE
  8
21
 66
1
 10
0.0000
 20
0.0000
 30
0.0000
 40
0.0381
 41
0.0381
 70
0
  0
VERTEX
  8
21
 10
23.3223
 20
55.7526
 30
0.0000
 42
1.0000
  0
VERTEX
  8
21
 10
23.3604
 20
55.7526
 30
0.0000
  0
SEQEND
  8
0
  0
POLYLINE
  8
21
 66
1
 10
0.0000
 20
0.0000
 30
0.0000
 40
0.0762
 41
0.0762
 70
0
  0
VERTEX
  8
21
 10
23.3413
 20
55.9983
 30
0.0000
  0
VERTEX
  8
21
 10
23.2185
 20
56.1212
 30
0.0000
  0
SEQEND
  8
0
  0
POLYLINE
  8
21
 66
1
 10
0.0000
 20
0.0000
 30
0.0000
 40
0.0381
 41
0.0381
 70
0
  0
VERTEX
  8
21
 10
23.2319
 20
56.1347
 30
0.0000
 42
1.0000
  0
VERTEX
  8
21
 10
23.2050
 20
56.1077
 30
0.0000
  0
SEQEND
  8
0
  0
POLYLINE
  8
21
 66
1
 10
0.0000
 20
0.0000
 30
0.0000
 40
0.0381
 41
0.0381
 70
0
  0
VERTEX
  8
21
 10
23.3279
 20
55.9849
 30
0.0000
 42
1.0000
  0
VERTEX
  8
21
 10
23.3548
 20
56.0118
 30
0.0000
  0
SEQEND
  8
0
  0
POLYLINE
  8
21
 66
1
 10
0.0000
 20
0.0000
 30
0.0000
 40
0.0762
 41
0.0762
 70
0
  0
VERTEX
  8
21
 10
23.2185
 20
56.1212
 30
0.0000
  0
VERTEX
  8
21
 10
22.7270
 20
56.1212
 30
0.0000
  0
SEQEND
  8
0
  0
POLYLINE
  8
21
 66
1
 10
0.0000
 20
0.0000
 30
0.0000
 40
0.0381
 41
0.0381
 70
0
  0
VERTEX
  8
21
 10
22.7270
 20
56.1403
 30
0.0000
 42
1.0000
  0
VERTEX
  8
21
 10
22.7270
 20
56.1022
 30
0.0000
  0
SEQEND
  8
0
  0
POLYLINE
  8
21
 66
1
 10
0.0000
 20
0.0000
 30
0.0000
 40
0.0381
 41
0.0381
 70
0
  0
VERTEX
  8
21
 10
23.2185
 20
56.1022
 30
0.0000
 42
1.0000
  0
VERTEX
  8
21
 10
23.2185
 20
56.1403
 30
0.0000
  0
SEQEND
  8
0
  0
POLYLINE
  8
21
 66
1
 10
0.0000
 20
0.0000
 30
0.0000
 40
0.0762
 41
0.0762
 70
0
  0
VERTEX
  8
21
 10
22.7270
 20
56.1212
 30
0.0000
  0
VERTEX
  8
21
 10
22.6041
 20
55.9983
 30
0.0000
  0
SEQEND
  8
0
  0
POLYLINE
  8
21
 66
1
 10
0.0000
 20
0.0000
 30
0.0000
 40
0.0381
 41
0.0381
 70
0
  0
VERTEX
  8
21
 10
22.5906
 20
56.0118
 30
0.0000
 42
1.0000
  0
VERTEX
  8
21
 10
22.6176
 20
55.9849
 30
0.0000
  0
SEQEND
  8
0
  0
POLYLINE
  8
21
 66
1
 10
0.0000
 20
0.0000
 30
0.0000
 40
0.0381
 41
0.0381
 70
0
  0
VERTEX
  8
21
 10
22.7404
 20
56.1077
 30
0.0000
 42
1.0000
  0
VERTEX
  8
21
 10
22.7135
 20
56.1347
 30
0.0000
  0
SEQEND
  8
0
  0
POLYLINE
  8
21
 66
1
 10
0.0000
 20
0.0000
 30
0.0000
 40
0.0762
 41
0.0762
 70
0
  0
VERTEX
  8
21
 10
22.6041
 20
55.9983
 30
0.0000
  0
VERTEX
  8
21
 10
22.6041
 20
55.7526
 30
0.0000
  0
SEQEND
  8
0
  0
POLYLINE
  8
21
 66
1
 10
0.0000
 20
0.0000
 30
0.0000
 40
0.0381
 41
0.0381
 70
0
  0
VERTEX
  8
21
 10
22.5851
 20
55.7526
 30
0.0000
 42
1.0000
  0
VERTEX
  8
21
 10
22.6232
 20
55.7526
 30
0.0000
  0
SEQEND
  8
0
  0
POLYLINE
  8
21
 66
1
 10
0.0000
 20
0.0000
 30
0.0000
 40
0.0381
 41
0.0381
 70
0
  0
VERTEX
  8
21
 10
22.6232
 20
55.9983
 30
0.0000
 42
1.0000
  0
VERTEX
  8
21
 10
22.5851
 20
55.9983
 30
0.0000
  0
SEQEND
  8
0
  0
POLYLINE
  8
21
 66
1
 10
0.0000
 20
0.0000
 30
0.0000
 40
0.0762
 41
0.0762
 70
0
  0
VERTEX
  8
21
 10
22.6041
 20
55.7526
 30
0.0000
  0
VERTEX
  8
21
 10
22.7270
 20
55.6297
 30
0.0000
  0
SEQEND
  8
0
  0
POLYLINE
  8
21
 66
1
 10
0.0000
 20
0.0000
 30
0.0000
 40
0.0381
 41
0.0381
 70
0
  0
VERTEX
  8
21
 10
22.7135
 20
55.6163
 30
0.0000
 42
1.0000
  0
VERTEX
  8
21
 10
22.7404
 20
55.6432
 30
0.0000
  0
SEQEND
  8
0
  0
POLYLINE
  8
21
 66
1
 10
0.0000
 20
0.0000
 30
0.0000
 40
0.0381
 41
0.0381
 70
0
  0
VERTEX
  8
21
 10
22.6176
 20
55.7661
 30
0.0000
 42
1.0000
  0
VERTEX
  8
21
 10
22.5906
 20
55.7391
 30
0.0000
  0
SEQEND
  8
0
  0
POLYLINE
  8
21
 66
1
 10
0.0000
 20
0.0000
 30
0.0000
 40
0.0762
 41
0.0762
 70
0
  0
VERTEX
  8
21
 10
22.7270
 20
55.6297
 30
0.0000
  0
VERTEX
  8
21
 10
22.9727
 20
55.6297
 30
0.0000
  0
SEQEND
  8
0
  0
POLYLINE
  8
21
 66
1
 10
0.0000
 20
0.0000
 30
0.0000
 40
0.0381
 41
0.0381
 70
0
  0
VERTEX
  8
21
 10
22.9727
 20
55.6107
 30
0.0000
 42
1.0000
  0
VERTEX
  8
21
 10
22.9727
 20
55.6488
 30
0.0000
  0
SEQEND
  8
0
  0
POLYLINE
  8
21
 66
1
 10
0.0000
 20
0.0000
 30
0.0000
 40
0.0381
 41
0.0381
 70
0
  0
VERTEX
  8
21
 10
22.7270
 20
55.6488
 30
0.0000
 42
1.0000
  0
VERTEX
  8
21
 10
22.7270
 20
55.6107
 30
0.0000
  0
SEQEND
  8
0
  0
POLYLINE
  8
21
 66
1
 10
0.0000
 20
0.0000
 30
0.0000
 40
0.0762
 41
0.0762
 70
0
  0
VERTEX
  8
21
 10
22.9727
 20
55.6297
 30
0.0000
  0
VERTEX
  8
21
 10
22.9727
 20
55.8755
 30
0.0000
  0
SEQEND
  8
0
  0
POLYLINE
  8
21
 66
1
 10
0.0000
 20
0.0000
 30
0.0000
 40
0.0381
 41
0.0381
 70
0
  0
VERTEX
  8
21
 10
22.9918
 20
55.8755
 30
0.0000
 42
1.0000
  0
VERTEX
  8
21
 10
22.9537
 20
55.8755
 30
0.0000
  0
SEQEND
  8
0
  0
POLYLINE
  8
21
 66
1
 10
0.0000
 20
0.0000
 30
0.0000
 40
0.0381
 41
0.0381
 70
0
  0
VERTEX
  8
21
 10
22.9537
 20
55.6297
 30
0.0000
 42
1.0000
  0
VERTEX
  8
21
 10
22.9918
 20
55.6297
 30
0.0000
  0
SEQEND
  8
0
  0
POLYLINE
  8
21
 66
1
 10
0.0000
 20
0.0000
 30
0.0000
 40
0.0762
 41
0.0762
 70
0
  0
VERTEX
  8
21
 10
22.6041
 20
55.3728
 30
0.0000
  0
VERTEX
  8
21
 10
23.3413
 20
55.3728
 30
0.0000
  0
SEQEND
  8
0
  0
POLYLINE
  8
21
 66
1
 10
0.0000
 20
0.0000
 30
0.0000
 40
0.0381
 41
0.0381
 70
0
  0
VERTEX
  8
21
 10
23.3413
 20
55.3537
 30
0.0000
 42
1.0000
  0
VERTEX
  8
21
 10
23.3413
 20
55.3918
 30
0.0000
  0
SEQEND
  8
0
  0
POLYLINE
  8
21
 66
1
 10
0.0000
 20
0.0000
 30
0.0000
 40
0.0381
 41
0.0381
 70
0
  0
VERTEX
  8
21
 10
22.6041
 20
55.3918
 30
0.0000
 42
1.0000
  0
VERTEX
  8
21
 10
22.6041
 20
55.3537
 30
0.0000
  0
SEQEND
  8
0
  0
POLYLINE
  8
21
 66
1
 10
0.0000
 20
0.0000
 30
0.0000
 40
0.0762
 41
0.0762
 70
0
  0
VERTEX
  8
21
 10
22.9727
 20
55.3728
 30
0.0000
  0
VERTEX
  8
21
 10
22.9727
 20
54.8813
 30
0.0000
  0
SEQEND
  8
0
  0
POLYLINE
  8
21
 66
1
 10
0.0000
 20
0.0000
 30
0.0000
 40
0.0381
 41
0.0381
 70
0
  0
VERTEX
  8
21
 10
22.9537
 20
54.8813
 30
0.0000
 42
1.0000
  0
VERTEX
  8
21
 10
22.9918
 20
54.8813
 30
0.0000
  0
SEQEND
  8
0
  0
POLYLINE
  8
21
 66
1
 10
0.0000
 20
0.0000
 30
0.0000
 40
0.0381
 41
0.0381
 70
0
  0
VERTEX
  8
21
 10
22.9918
 20
55.3728
 30
0.0000
 42
1.0000
  0
VERTEX
  8
21
 10
22.9537
 20
55.3728
 30
0.0000
  0
SEQEND
  8
0
  0
POLYLINE
  8
21
 66
1
 10
0.0000
 20
0.0000
 30
0.0000
 40
0.0762
 41
0.0762
 70
0
  0
VERTEX
  8
21
 10
23.3413
 20
54.8813
 30
0.0000
  0
VERTEX
  8
21
 10
22.6041
 20
54.8813
 30
0.0000
  0
SEQEND
  8
0
  0
POLYLINE
  8
21
 66
1
 10
0.0000
 20
0.0000
 30
0.0000
 40
0.0381
 41
0.0381
 70
0
  0
VERTEX
  8
21
 10
22.6041
 20
54.9004
 30
0.0000
 42
1.0000
  0
VERTEX
  8
21
 10
22.6041
 20
54.8623
 30
0.0000
  0
SEQEND
  8
0
  0
POLYLINE
  8
21
 66
1
 10
0.0000
 20
0.0000
 30
0.0000
 40
0.0381
 41
0.0381
 70
0
  0
VERTEX
  8
21
 10
23.3413
 20
54.8623
 30
0.0000
 42
1.0000
  0
VERTEX
  8
21
 10
23.3413
 20
54.9004
 30
0.0000
  0
SEQEND
  8
0
  0
POLYLINE
  8
21
 66
1
 10
0.0000
 20
0.0000
 30
0.0000
 40
0.0762
 41
0.0762
 70
0
  0
VERTEX
  8
21
 10
22.6041
 20
54.3786
 30
0.0000
  0
VERTEX
  8
21
 10
23.3413
 20
54.3786
 30
0.0000
  0
SEQEND
  8
0
  0
POLYLINE
  8
21
 66
1
 10
0.0000
 20
0.0000
 30
0.0000
 40
0.0381
 41
0.0381
 70
0
  0
VERTEX
  8
21
 10
23.3413
 20
54.3596
 30
0.0000
 42
1.0000
  0
VERTEX
  8
21
 10
23.3413
 20
54.3977
 30
0.0000
  0
SEQEND
  8
0
  0
POLYLINE
  8
21
 66
1
 10
0.0000
 20
0.0000
 30
0.0000
 40
0.0381
 41
0.0381
 70
0
  0
VERTEX
  8
21
 10
22.6041
 20
54.3977
 30
0.0000
 42
1.0000
  0
VERTEX
  8
21
 10
22.6041
 20
54.3596
 30
0.0000
  0
SEQEND
  8
0
  0
POLYLINE
  8
21
 66
1
 10
0.0000
 20
0.0000
 30
0.0000
 40
0.0762
 41
0.0762
 70
0
  0
VERTEX
  8
21
 10
23.3413
 20
54.6244
 30
0.0000
  0
VERTEX
  8
21
 10
23.3413
 20
54.1329
 30
0.0000
  0
SEQEND
  8
0
  0
POLYLINE
  8
21
 66
1
 10
0.0000
 20
0.0000
 30
0.0000
 40
0.0381
 41
0.0381
 70
0
  0
VERTEX
  8
21
 10
23.3223
 20
54.1329
 30
0.0000
 42
1.0000
  0
VERTEX
  8
21
 10
23.3604
 20
54.1329
 30
0.0000
  0
SEQEND
  8
0
  0
POLYLINE
  8
21
 66
1
 10
0.0000
 20
0.0000
 30
0.0000
 40
0.0381
 41
0.0381
 70
0
  0
VERTEX
  8
21
 10
23.3604
 20
54.6244
 30
0.0000
 42
1.0000
  0
VERTEX
  8
21
 10
23.3223
 20
54.6244
 30
0.0000
  0
SEQEND
  8
0
  0
POLYLINE
  8
21
 66
1
 10
0.0000
 20
0.0000
 30
0.0000
 40
0.1016
 41
0.1016
 70
0
  0
VERTEX
  8
21
 10
3.0404
 20
85.3682
 30
0.0000
  0
VERTEX
  8
21
 10
2.2608
 20
84.7835
 30
0.0000
  0
SEQEND
  8
0
  0
POLYLINE
  8
21
 66
1
 10
0.0000
 20
0.0000
 30
0.0000
 40
0.0508
 41
0.0508
 70
0
  0
VERTEX
  8
21
 10
2.2456
 20
84.8038
 30
0.0000
 42
1.0000
  0
VERTEX
  8
21
 10
2.2760
 20
84.7632
 30
0.0000
  0
SEQEND
  8
0
  0
POLYLINE
  8
21
 66
1
 10
0.0000
 20
0.0000
 30
0.0000
 40
0.0508
 41
0.0508
 70
0
  0
VERTEX
  8
21
 10
3.0556
 20
85.3479
 30
0.0000
 42
1.0000
  0
VERTEX
  8
21
 10
3.0252
 20
85.3885
 30
0.0000
  0
SEQEND
  8
0
  0
POLYLINE
  8
21
 66
1
 10
0.0000
 20
0.0000
 30
0.0000
 40
0.1016
 41
0.1016
 70
0
  0
VERTEX
  8
21
 10
2.2608
 20
84.7835
 30
0.0000
  0
VERTEX
  8
21
 10
3.0404
 20
84.1988
 30
0.0000
  0
SEQEND
  8
0
  0
POLYLINE
  8
21
 66
1
 10
0.0000
 20
0.0000
 30
0.0000
 40
0.0508
 41
0.0508
 70
0
  0
VERTEX
  8
21
 10
3.0252
 20
84.1785
 30
0.0000
 42
1.0000
  0
VERTEX
  8
21
 10
3.0556
 20
84.2191
 30
0.0000
  0
SEQEND
  8
0
  0
POLYLINE
  8
21
 66
1
 10
0.0000
 20
0.0000
 30
0.0000
 40
0.0508
 41
0.0508
 70
0
  0
VERTEX
  8
21
 10
2.2760
 20
84.8038
 30
0.0000
 42
1.0000
  0
VERTEX
  8
21
 10
2.2456
 20
84.7632
 30
0.0000
  0
SEQEND
  8
0
  0
POLYLINE
  8
21
 66
1
 10
0.0000
 20
0.0000
 30
0.0000
 40
0.1016
 41
0.1016
 70
0
  0
VERTEX
  8
21
 10
4.2098
 20
85.3682
 30
0.0000
  0
VERTEX
  8
21
 10
3.4302
 20
84.7835
 30
0.0000
  0
SEQEND
  8
0
  0
POLYLINE
  8
21
 66
1
 10
0.0000
 20
0.0000
 30
0.0000
 40
0.0508
 41
0.0508
 70
0
  0
VERTEX
  8
21
 10
3.4150
 20
84.8038
 30
0.0000
 42
1.0000
  0
VERTEX
  8
21
 10
3.4454
 20
84.7632
 30
0.0000
  0
SEQEND
  8
0
  0
POLYLINE
  8
21
 66
1
 10
0.0000
 20
0.0000
 30
0.0000
 40
0.0508
 41
0.0508
 70
0
  0
VERTEX
  8
21
 10
4.2250
 20
85.3479
 30
0.0000
 42
1.0000
  0
VERTEX
  8
21
 10
4.1946
 20
85.3885
 30
0.0000
  0
SEQEND
  8
0
  0
POLYLINE
  8
21
 66
1
 10
0.0000
 20
0.0000
 30
0.0000
 40
0.1016
 41
0.1016
 70
0
  0
VERTEX
  8
21
 10
3.4302
 20
84.7835
 30
0.0000
  0
VERTEX
  8
21
 10
4.2098
 20
84.1988
 30
0.0000
  0
SEQEND
  8
0
  0
POLYLINE
  8
21
 66
1
 10
0.0000
 20
0.0000
 30
0.0000
 40
0.0508
 41
0.0508
 70
0
  0
VERTEX
  8
21
 10
4.1946
 20
84.1785
 30
0.0000
 42
1.0000
  0
VERTEX
  8
21
 10
4.2250
 20
84.2191
 30
0.0000
  0
SEQEND
  8
0
  0
POLYLINE
  8
21
 66
1
 10
0.0000
 20
0.0000
 30
0.0000
 40
0.0508
 41
0.0508
 70
0
  0
VERTEX
  8
21
 10
3.4454
 20
84.8038
 30
0.0000
 42
1.0000
  0
VERTEX
  8
21
 10
3.4150
 20
84.7632
 30
0.0000
  0
SEQEND
  8
0
  0
POLYLINE
  8
21
 66
1
 10
0.0000
 20
0.0000
 30
0.0000
 40
0.1016
 41
0.1016
 70
0
  0
VERTEX
  8
21
 10
4.5996
 20
84.1988
 30
0.0000
  0
VERTEX
  8
21
 10
4.5996
 20
85.3682
 30
0.0000
  0
SEQEND
  8
0
  0
POLYLINE
  8
21
 66
1
 10
0.0000
 20
0.0000
 30
0.0000
 40
0.0508
 41
0.0508
 70
0
  0
VERTEX
  8
21
 10
4.6250
 20
85.3682
 30
0.0000
 42
1.0000
  0
VERTEX
  8
21
 10
4.5742
 20
85.3682
 30
0.0000
  0
SEQEND
  8
0
  0
POLYLINE
  8
21
 66
1
 10
0.0000
 20
0.0000
 30
0.0000
 40
0.0508
 41
0.0508
 70
0
  0
VERTEX
  8
21
 10
4.5742
 20
84.1988
 30
0.0000
 42
1.0000
  0
VERTEX
  8
21
 10
4.6250
 20
84.1988
 30
0.0000
  0
SEQEND
  8
0
  0
POLYLINE
  8
21
 66
1
 10
0.0000
 20
0.0000
 30
0.0000
 40
0.1016
 41
0.1016
 70
0
  0
VERTEX
  8
21
 10
4.5996
 20
85.3682
 30
0.0000
  0
VERTEX
  8
21
 10
5.1843
 20
85.3682
 30
0.0000
  0
SEQEND
  8
0
  0
POLYLINE
  8
21
 66
1
 10
0.0000
 20
0.0000
 30
0.0000
 40
0.0508
 41
0.0508
 70
0
  0
VERTEX
  8
21
 10
5.1843
 20
85.3428
 30
0.0000
 42
1.0000
  0
VERTEX
  8
21
 10
5.1843
 20
85.3936
 30
0.0000
  0
SEQEND
  8
0
  0
POLYLINE
  8
21
 66
1
 10
0.0000
 20
0.0000
 30
0.0000
 40
0.0508
 41
0.0508
 70
0
  0
VERTEX
  8
21
 10
4.5996
 20
85.3936
 30
0.0000
 42
1.0000
  0
VERTEX
  8
21
 10
4.5996
 20
85.3428
 30
0.0000
  0
SEQEND
  8
0
  0
POLYLINE
  8
21
 66
1
 10
0.0000
 20
0.0000
 30
0.0000
 40
0.1016
 41
0.1016
 70
0
  0
VERTEX
  8
21
 10
5.1843
 20
85.3682
 30
0.0000
  0
VERTEX
  8
21
 10
5.3792
 20
85.1733
 30
0.0000
  0
SEQEND
  8
0
  0
POLYLINE
  8
21
 66
1
 10
0.0000
 20
0.0000
 30
0.0000
 40
0.0508
 41
0.0508
 70
0
  0
VERTEX
  8
21
 10
5.3612
 20
85.1553
 30
0.0000
 42
1.0000
  0
VERTEX
  8
21
 10
5.3972
 20
85.1913
 30
0.0000
  0
SEQEND
  8
0
  0
POLYLINE
  8
21
 66
1
 10
0.0000
 20
0.0000
 30
0.0000
 40
0.0508
 41
0.0508
 70
0
  0
VERTEX
  8
21
 10
5.2023
 20
85.3862
 30
0.0000
 42
1.0000
  0
VERTEX
  8
21
 10
5.1663
 20
85.3502
 30
0.0000
  0
SEQEND
  8
0
  0
POLYLINE
  8
21
 66
1
 10
0.0000
 20
0.0000
 30
0.0000
 40
0.1016
 41
0.1016
 70
0
  0
VERTEX
  8
21
 10
5.3792
 20
85.1733
 30
0.0000
  0
VERTEX
  8
21
 10
5.3792
 20
84.7835
 30
0.0000
  0
SEQEND
  8
0
  0
POLYLINE
  8
21
 66
1
 10
0.0000
 20
0.0000
 30
0.0000
 40
0.0508
 41
0.0508
 70
0
  0
VERTEX
  8
21
 10
5.3538
 20
84.7835
 30
0.0000
 42
1.0000
  0
VERTEX
  8
21
 10
5.4046
 20
84.7835
 30
0.0000
  0
SEQEND
  8
0
  0
POLYLINE
  8
21
 66
1
 10
0.0000
 20
0.0000
 30
0.0000
 40
0.0508
 41
0.0508
 70
0
  0
VERTEX
  8
21
 10
5.4046
 20
85.1733
 30
0.0000
 42
1.0000
  0
VERTEX
  8
21
 10
5.3538
 20
85.1733
 30
0.0000
  0
SEQEND
  8
0
  0
POLYLINE
  8
21
 66
1
 10
0.0000
 20
0.0000
 30
0.0000
 40
0.1016
 41
0.1016
 70
0
  0
VERTEX
  8
21
 10
5.3792
 20
84.7835
 30
0.0000
  0
VERTEX
  8
21
 10
5.1843
 20
84.5886
 30
0.0000
  0
SEQEND
  8
0
  0
POLYLINE
  8
21
 66
1
 10
0.0000
 20
0.0000
 30
0.0000
 40
0.0508
 41
0.0508
 70
0
  0
VERTEX
  8
21
 10
5.1663
 20
84.6066
 30
0.0000
 42
1.0000
  0
VERTEX
  8
21
 10
5.2023
 20
84.5706
 30
0.0000
  0
SEQEND
  8
0
  0
POLYLINE
  8
21
 66
1
 10
0.0000
 20
0.0000
 30
0.0000
 40
0.0508
 41
0.0508
 70
0
  0
VERTEX
  8
21
 10
5.3972
 20
84.7655
 30
0.0000
 42
1.0000
  0
VERTEX
  8
21
 10
5.3612
 20
84.8015
 30
0.0000
  0
SEQEND
  8
0
  0
POLYLINE
  8
21
 66
1
 10
0.0000
 20
0.0000
 30
0.0000
 40
0.1016
 41
0.1016
 70
0
  0
VERTEX
  8
21
 10
5.1843
 20
84.5886
 30
0.0000
  0
VERTEX
  8
21
 10
4.5996
 20
84.5886
 30
0.0000
  0
SEQEND
  8
0
  0
POLYLINE
  8
21
 66
1
 10
0.0000
 20
0.0000
 30
0.0000
 40
0.0508
 41
0.0508
 70
0
  0
VERTEX
  8
21
 10
4.5996
 20
84.6140
 30
0.0000
 42
1.0000
  0
VERTEX
  8
21
 10
4.5996
 20
84.5632
 30
0.0000
  0
SEQEND
  8
0
  0
POLYLINE
  8
21
 66
1
 10
0.0000
 20
0.0000
 30
0.0000
 40
0.0508
 41
0.0508
 70
0
  0
VERTEX
  8
21
 10
5.1843
 20
84.5632
 30
0.0000
 42
1.0000
  0
VERTEX
  8
21
 10
5.1843
 20
84.6140
 30
0.0000
  0
SEQEND
  8
0
  0
POLYLINE
  8
21
 66
1
 10
0.0000
 20
0.0000
 30
0.0000
 40
0.1016
 41
0.1016
 70
0
  0
VERTEX
  8
21
 10
4.9894
 20
84.5886
 30
0.0000
  0
VERTEX
  8
21
 10
5.3792
 20
84.1988
 30
0.0000
  0
SEQEND
  8
0
  0
POLYLINE
  8
21
 66
1
 10
0.0000
 20
0.0000
 30
0.0000
 40
0.0508
 41
0.0508
 70
0
  0
VERTEX
  8
21
 10
5.3612
 20
84.1808
 30
0.0000
 42
1.0000
  0
VERTEX
  8
21
 10
5.3972
 20
84.2168
 30
0.0000
  0
SEQEND
  8
0
  0
POLYLINE
  8
21
 66
1
 10
0.0000
 20
0.0000
 30
0.0000
 40
0.0508
 41
0.0508
 70
0
  0
VERTEX
  8
21
 10
5.0074
 20
84.6066
 30
0.0000
 42
1.0000
  0
VERTEX
  8
21
 10
4.9714
 20
84.5706
 30
0.0000
  0
SEQEND
  8
0
  0
POLYLINE
  8
21
 66
1
 10
0.0000
 20
0.0000
 30
0.0000
 40
0.1016
 41
0.1016
 70
0
  0
VERTEX
  8
21
 10
5.7690
 20
84.1988
 30
0.0000
  0
VERTEX
  8
21
 10
5.7690
 20
85.3682
 30
0.0000
  0
SEQEND
  8
0
  0
POLYLINE
  8
21
 66
1
 10
0.0000
 20
0.0000
 30
0.0000
 40
0.0508
 41
0.0508
 70
0
  0
VERTEX
  8
21
 10
5.7944
 20
85.3682
 30
0.0000
 42
1.0000
  0
VERTEX
  8
21
 10
5.7436
 20
85.3682
 30
0.0000
  0
SEQEND
  8
0
  0
POLYLINE
  8
21
 66
1
 10
0.0000
 20
0.0000
 30
0.0000
 40
0.0508
 41
0.0508
 70
0
  0
VERTEX
  8
21
 10
5.7436
 20
84.1988
 30
0.0000
 42
1.0000
  0
VERTEX
  8
21
 10
5.7944
 20
84.1988
 30
0.0000
  0
SEQEND
  8
0
  0
POLYLINE
  8
21
 66
1
 10
0.0000
 20
0.0000
 30
0.0000
 40
0.1016
 41
0.1016
 70
0
  0
VERTEX
  8
21
 10
5.7690
 20
84.7835
 30
0.0000
  0
VERTEX
  8
21
 10
6.5486
 20
84.7835
 30
0.0000
  0
SEQEND
  8
0
  0
POLYLINE
  8
21
 66
1
 10
0.0000
 20
0.0000
 30
0.0000
 40
0.0508
 41
0.0508
 70
0
  0
VERTEX
  8
21
 10
6.5486
 20
84.7581
 30
0.0000
 42
1.0000
  0
VERTEX
  8
21
 10
6.5486
 20
84.8089
 30
0.0000
  0
SEQEND
  8
0
  0
POLYLINE
  8
21
 66
1
 10
0.0000
 20
0.0000
 30
0.0000
 40
0.0508
 41
0.0508
 70
0
  0
VERTEX
  8
21
 10
5.7690
 20
84.8089
 30
0.0000
 42
1.0000
  0
VERTEX
  8
21
 10
5.7690
 20
84.7581
 30
0.0000
  0
SEQEND
  8
0
  0
POLYLINE
  8
21
 66
1
 10
0.0000
 20
0.0000
 30
0.0000
 40
0.1016
 41
0.1016
 70
0
  0
VERTEX
  8
21
 10
6.5486
 20
85.3682
 30
0.0000
  0
VERTEX
  8
21
 10
6.5486
 20
84.1988
 30
0.0000
  0
SEQEND
  8
0
  0
POLYLINE
  8
21
 66
1
 10
0.0000
 20
0.0000
 30
0.0000
 40
0.0508
 41
0.0508
 70
0
  0
VERTEX
  8
21
 10
6.5232
 20
84.1988
 30
0.0000
 42
1.0000
  0
VERTEX
  8
21
 10
6.5740
 20
84.1988
 30
0.0000
  0
SEQEND
  8
0
  0
POLYLINE
  8
21
 66
1
 10
0.0000
 20
0.0000
 30
0.0000
 40
0.0508
 41
0.0508
 70
0
  0
VERTEX
  8
21
 10
6.5740
 20
85.3682
 30
0.0000
 42
1.0000
  0
VERTEX
  8
21
 10
6.5232
 20
85.3682
 30
0.0000
  0
SEQEND
  8
0
  0
INSERT
  8
17
  2
ROUNDP
 10
11.2000
 20
85.2200
 30
0.0000
 41
4.2160
 42
4.2160
 43
1.0000
 50
0.0000
  0
INSERT
  8
17
  2
ROUNDP
 10
11.2000
 20
85.2200
 30
0.0000
 41
4.2160
 42
4.2160
 43
1.0000
 50
0.0000
  0
INSERT
  8
29
  2
ROUNDP
 10
11.2000
 20
85.2200
 30
0.0000
 41
4.4192
 42
4.4192
 43
1.0000
 50
0.0000
  0
INSERT
  8
30
  2
ROUNDP
 10
11.2000
 20
85.2200
 30
0.0000
 41
4.4192
 42
4.4192
 43
1.0000
 50
0.0000
  0
CIRCLE
  8
44
 10
11.2000
 20
85.2200
 30
0.0000
 40
1.6000
  0
INSERT
  8
17
  2
ROUNDP
 10
85.0900
 20
90.5000
 30
0.0000
 41
7.0000
 42
7.0000
 43
1.0000
 50
0.0000
  0
INSERT
  8
17
  2
ROUNDP
 10
85.0900
 20
90.5000
 30
0.0000
 41
7.0000
 42
7.0000
 43
1.0000
 50
0.0000
  0
INSERT
  8
29
  2
ROUNDP
 10
85.0900
 20
90.5000
 30
0.0000
 41
7.2032
 42
7.2032
 43
1.0000
 50
0.0000
  0
INSERT
  8
30
  2
ROUNDP
 10
85.0900
 20
90.5000
 30
0.0000
 41
7.2032
 42
7.2032
 43
1.0000
 50
0.0000
  0
CIRCLE
  8
44
 10
85.0900
 20
90.5000
 30
0.0000
 40
1.6000
  0
INSERT
  8
17
  2
ROUNDP
 10
81.2800
 20
4.8000
 30
0.0000
 41
7.0000
 42
7.0000
 43
1.0000
 50
0.0000
  0
INSERT
  8
17
  2
ROUNDP
 10
81.2800
 20
4.8000
 30
0.0000
 41
7.0000
 42
7.0000
 43
1.0000
 50
0.0000
  0
INSERT
  8
29
  2
ROUNDP
 10
81.2800
 20
4.8000
 30
0.0000
 41
7.2032
 42
7.2032
 43
1.0000
 50
0.0000
  0
INSERT
  8
30
  2
ROUNDP
 10
81.2800
 20
4.8000
 30
0.0000
 41
7.2032
 42
7.2032
 43
1.0000
 50
0.0000
  0
CIRCLE
  8
44
 10
81.2800
 20
4.8000
 30
0.0000
 40
1.6000
  0
INSERT
  8
17
  2
ROUNDP
 10
5.0800
 20
90.5000
 30
0.0000
 41
7.0000
 42
7.0000
 43
1.0000
 50
0.0000
  0
INSERT
  8
17
  2
ROUNDP
 10
5.0800
 20
90.5000
 30
0.0000
 41
7.0000
 42
7.0000
 43
1.0000
 50
0.0000
  0
INSERT
  8
29
  2
ROUNDP
 10
5.0800
 20
90.5000
 30
0.0000
 41
7.2032
 42
7.2032
 43
1.0000
 50
0.0000
  0
INSERT
  8
30
  2
ROUNDP
 10
5.0800
 20
90.5000
 30
0.0000
 41
7.2032
 42
7.2032
 43
1.0000
 50
0.0000
  0
CIRCLE
  8
44
 10
5.0800
 20
90.5000
 30
0.0000
 40
1.6000
  0
INSERT
  8
17
  2
ROUNDP
 10
7.6200
 20
4.8000
 30
0.0000
 41
7.0000
 42
7.0000
 43
1.0000
 50
0.0000
  0
INSERT
  8
17
  2
ROUNDP
 10
7.6200
 20
4.8000
 30
0.0000
 41
7.0000
 42
7.0000
 43
1.0000
 50
0.0000
  0
INSERT
  8
29
  2
ROUNDP
 10
7.6200
 20
4.8000
 30
0.0000
 41
7.2032
 42
7.2032
 43
1.0000
 50
0.0000
  0
INSERT
  8
30
  2
ROUNDP
 10
7.6200
 20
4.8000
 30
0.0000
 41
7.2032
 42
7.2032
 43
1.0000
 50
0.0000
  0
CIRCLE
  8
44
 10
7.6200
 20
4.8000
 30
0.0000
 40
1.6000
  0
INSERT
  8
17
  2
ROUNDP
 10
79.6800
 20
85.2200
 30
0.0000
 41
4.2160
 42
4.2160
 43
1.0000
 50
0.0000
  0
INSERT
  8
17
  2
ROUNDP
 10
79.6800
 20
85.2200
 30
0.0000
 41
4.2160
 42
4.2160
 43
1.0000
 50
0.0000
  0
INSERT
  8
29
  2
ROUNDP
 10
79.6800
 20
85.2200
 30
0.0000
 41
4.4192
 42
4.4192
 43
1.0000
 50
0.0000
  0
INSERT
  8
30
  2
ROUNDP
 10
79.6800
 20
85.2200
 30
0.0000
 41
4.4192
 42
4.4192
 43
1.0000
 50
0.0000
  0
CIRCLE
  8
44
 10
79.6800
 20
85.2200
 30
0.0000
 40
1.6000
  0
ENDSEC
  0
EOF
