  0
SECTION
  2
HEADER
  9
$ACADVER
  1
AC1009
  9
$FILLMODE
 70
1
  9
$EXTMIN
 10
1.3600
 20
5.4860
 30
0.0000
  9
$EXTMAX
 10
91.3600
 20
25.1460
 30
0.0000
  0
ENDSEC
  0
SECTION
  2
TABLES
  0
TABLE
  2
LTYPE
 70
1
  0
LTYPE
  2
CONTINUOUS
 70
64
  3
Solid line
 72
65
 73
0
 40
0
  0
ENDTAB
  0
TABLE
  2
LAYER
 70
255
  0
LAYER
  2
1
 70
64
 62
22
  6
CONTINUOUS
  0
LAYER
  2
16
 70
64
 62
175
  6
CONTINUOUS
  0
LAYER
  2
17
 70
64
 62
82
  6
CONTINUOUS
  0
LAYER
  2
18
 70
64
 62
82
  6
CONTINUOUS
  0
LAYER
  2
19
 70
64
 62
53
  6
CONTINUOUS
  0
LAYER
  2
20
 70
64
 62
7
  6
CONTINUOUS
  0
LAYER
  2
21
 70
64
 62
253
  6
CONTINUOUS
  0
LAYER
  2
22
 70
64
 62
253
  6
CONTINUOUS
  0
LAYER
  2
23
 70
64
 62
7
  6
CONTINUOUS
  0
LAYER
  2
24
 70
64
 62
7
  6
CONTINUOUS
  0
LAYER
  2
25
 70
64
 62
253
  6
CONTINUOUS
  0
LAYER
  2
26
 70
64
 62
253
  6
CONTINUOUS
  0
LAYER
  2
27
 70
64
 62
253
  6
CONTINUOUS
  0
LAYER
  2
28
 70
64
 62
253
  6
CONTINUOUS
  0
LAYER
  2
29
 70
64
 62
253
  6
CONTINUOUS
  0
LAYER
  2
30
 70
64
 62
253
  6
CONTINUOUS
  0
LAYER
  2
31
 70
64
 62
253
  6
CONTINUOUS
  0
LAYER
  2
32
 70
64
 62
253
  6
CONTINUOUS
  0
LAYER
  2
33
 70
64
 62
53
  6
CONTINUOUS
  0
LAYER
  2
34
 70
64
 62
53
  6
CONTINUOUS
  0
LAYER
  2
35
 70
64
 62
253
  6
CONTINUOUS
  0
LAYER
  2
36
 70
64
 62
253
  6
CONTINUOUS
  0
LAYER
  2
37
 70
64
 62
253
  6
CONTINUOUS
  0
LAYER
  2
38
 70
64
 62
253
  6
CONTINUOUS
  0
LAYER
  2
39
 70
64
 62
22
  6
CONTINUOUS
  0
LAYER
  2
40
 70
64
 62
175
  6
CONTINUOUS
  0
LAYER
  2
41
 70
64
 62
22
  6
CONTINUOUS
  0
LAYER
  2
42
 70
64
 62
175
  6
CONTINUOUS
  0
LAYER
  2
43
 70
64
 62
82
  6
CONTINUOUS
  0
LAYER
  2
44
 70
64
 62
253
  6
CONTINUOUS
  0
LAYER
  2
45
 70
64
 62
253
  6
CONTINUOUS
  0
LAYER
  2
46
 70
64
 62
140
  6
CONTINUOUS
  0
LAYER
  2
47
 70
64
 62
253
  6
CONTINUOUS
  0
LAYER
  2
48
 70
64
 62
253
  6
CONTINUOUS
  0
LAYER
  2
49
 70
64
 62
253
  6
CONTINUOUS
  0
LAYER
  2
51
 70
64
 62
253
  6
CONTINUOUS
  0
LAYER
  2
52
 70
64
 62
253
  6
CONTINUOUS
  0
ENDTAB
  0
ENDSEC
  0
SECTION
  2
BLOCKS
  0
BLOCK
  8
0
  2
RECT
 70
64
 10
0.0000
 20
0.0000
 30
0.0000
  3
RECT
  0
SOLID
  8
0
 10
-0.5000
 20
-0.5000
 30
0.0000
 11
0.5000
 21
-0.5000
 31
0.0000
 12
-0.5000
 22
0.5000
 32
0.0000
 13
0.5000
 23
0.5000
 33
0.0000
  0
ENDBLK
  8
0
  0
BLOCK
  8
0
  2
PIE
 70
64
 10
0.0000
 20
0.0000
 30
0.0000
  3
PIE
  0
POLYLINE
  8
0
 66
1
 10
0.0000
 20
0.0000
 30
0.0000
 40
0.5000
 41
0.5000
 70
0
  0
VERTEX
  8
0
 10
0.0000
 20
-0.2500
 30
0.0000
 42
1.0000
  0
VERTEX
  8
0
 10
0.0000
 20
0.2500
 30
0.0000
 42
1.0000
  0
VERTEX
  8
0
 10
0.0000
 20
-0.2500
 30
0.0000
  0
SEQEND
  8
0
  0
ENDBLK
  8
0
  0
BLOCK
  8
0
  2
OCTAGONP
 70
64
 10
0.0000
 20
0.0000
 30
0.0000
  3
OCTAGONP
  0
POLYLINE
  8
0
 66
1
 10
0.0000
 20
0.0000
 30
0.0000
 40
0.5000
 41
0.5000
 70
0
  0
VERTEX
  8
0
 10
-0.2500
 20
-0.1036
 30
0.0000
  0
VERTEX
  8
0
 10
-0.2500
 20
0.1036
 30
0.0000
  0
VERTEX
  8
0
 10
-0.1036
 20
0.2500
 30
0.0000
  0
VERTEX
  8
0
 10
0.1036
 20
0.2500
 30
0.0000
  0
VERTEX
  8
0
 10
0.2500
 20
0.1036
 30
0.0000
  0
VERTEX
  8
0
 10
0.2500
 20
-0.1036
 30
0.0000
  0
VERTEX
  8
0
 10
0.1036
 20
-0.2500
 30
0.0000
  0
VERTEX
  8
0
 10
-0.1036
 20
-0.2500
 30
0.0000
  0
VERTEX
  8
0
 10
-0.2500
 20
-0.1036
 30
0.0000
  0
VERTEX
  8
0
 10
-0.2500
 20
0.1036
 30
0.0000
  0
SEQEND
  8
0
  0
ENDBLK
  8
0
  0
BLOCK
  8
0
  2
SQUAREP
 70
64
 10
0.0000
 20
0.0000
 30
0.0000
  3
SQUAREP
  0
SOLID
  8
0
 10
-0.5000
 20
-0.5000
 30
0.0000
 11
0.5000
 21
-0.5000
 31
0.0000
 12
-0.5000
 22
0.5000
 32
0.0000
 13
0.5000
 23
0.5000
 33
0.0000
  0
ENDBLK
  8
0
  0
BLOCK
  8
0
  2
ROUNDP
 70
64
 10
0.0000
 20
0.0000
 30
0.0000
  3
ROUNDP
  0
POLYLINE
  8
0
 66
1
 10
0.0000
 20
0.0000
 30
0.0000
 40
0.5000
 41
0.5000
 70
0
  0
VERTEX
  8
0
 10
0.0000
 20
-0.2500
 30
0.0000
 42
1.0000
  0
VERTEX
  8
0
 10
0.0000
 20
0.2500
 30
0.0000
 42
1.0000
  0
VERTEX
  8
0
 10
0.0000
 20
-0.2500
 30
0.0000
  0
SEQEND
  8
0
  0
ENDBLK
  8
0
  0
BLOCK
  8
0
  2
ANNULUSP
 70
64
 10
0.0000
 20
0.0000
 30
0.0000
  3
ANNULUSP
  0
POLYLINE
  8
0
 66
1
 10
0.0000
 20
0.0000
 30
0.0000
 40
0.5000
 41
0.5000
 70
0
  0
VERTEX
  8
0
 10
0.0000
 20
-0.2500
 30
0.0000
 42
1.0000
  0
VERTEX
  8
0
 10
0.0000
 20
0.2500
 30
0.0000
 42
1.0000
  0
VERTEX
  8
0
 10
0.0000
 20
-0.2500
 30
0.0000
  0
SEQEND
  8
0
  0
ENDBLK
  8
0
  0
BLOCK
  8
0
  2
THERMALP
 70
64
 10
0.0000
 20
0.0000
 30
0.0000
  3
THERMALP
  0
POLYLINE
  8
0
 66
1
 10
0.0000
 20
0.0000
 30
0.0000
 40
0.1000
 41
0.1000
 70
0
  0
VERTEX
  8
0
 10
-0.2379
 20
0.4500
 30
0.0000
  0
VERTEX
  8
0
 10
0.2379
 20
0.4500
 30
0.0000
  0
SEQEND
  8
0
  0
POLYLINE
  8
0
 66
1
 10
0.0000
 20
0.0000
 30
0.0000
 40
0.0500
 41
0.0500
 70
0
  0
VERTEX
  8
0
 10
0.2379
 20
0.4250
 30
0.0000
 42
1.0000
  0
VERTEX
  8
0
 10
0.2379
 20
0.4750
 30
0.0000
  0
SEQEND
  8
0
  0
POLYLINE
  8
0
 66
1
 10
0.0000
 20
0.0000
 30
0.0000
 40
0.0500
 41
0.0500
 70
0
  0
VERTEX
  8
0
 10
-0.2379
 20
0.4750
 30
0.0000
 42
1.0000
  0
VERTEX
  8
0
 10
-0.2379
 20
0.4250
 30
0.0000
  0
SEQEND
  8
0
  0
POLYLINE
  8
0
 66
1
 10
0.0000
 20
0.0000
 30
0.0000
 40
0.1000
 41
0.1000
 70
0
  0
VERTEX
  8
0
 10
0.4500
 20
0.2379
 30
0.0000
  0
VERTEX
  8
0
 10
0.4500
 20
-0.2379
 30
0.0000
  0
SEQEND
  8
0
  0
POLYLINE
  8
0
 66
1
 10
0.0000
 20
0.0000
 30
0.0000
 40
0.0500
 41
0.0500
 70
0
  0
VERTEX
  8
0
 10
0.4250
 20
-0.2379
 30
0.0000
 42
1.0000
  0
VERTEX
  8
0
 10
0.4750
 20
-0.2379
 30
0.0000
  0
SEQEND
  8
0
  0
POLYLINE
  8
0
 66
1
 10
0.0000
 20
0.0000
 30
0.0000
 40
0.0500
 41
0.0500
 70
0
  0
VERTEX
  8
0
 10
0.4750
 20
0.2379
 30
0.0000
 42
1.0000
  0
VERTEX
  8
0
 10
0.4250
 20
0.2379
 30
0.0000
  0
SEQEND
  8
0
  0
POLYLINE
  8
0
 66
1
 10
0.0000
 20
0.0000
 30
0.0000
 40
0.1000
 41
0.1000
 70
0
  0
VERTEX
  8
0
 10
0.2379
 20
-0.4500
 30
0.0000
  0
VERTEX
  8
0
 10
-0.2379
 20
-0.4500
 30
0.0000
  0
SEQEND
  8
0
  0
POLYLINE
  8
0
 66
1
 10
0.0000
 20
0.0000
 30
0.0000
 40
0.0500
 41
0.0500
 70
0
  0
VERTEX
  8
0
 10
-0.2379
 20
-0.4250
 30
0.0000
 42
1.0000
  0
VERTEX
  8
0
 10
-0.2379
 20
-0.4750
 30
0.0000
  0
SEQEND
  8
0
  0
POLYLINE
  8
0
 66
1
 10
0.0000
 20
0.0000
 30
0.0000
 40
0.0500
 41
0.0500
 70
0
  0
VERTEX
  8
0
 10
0.2379
 20
-0.4750
 30
0.0000
 42
1.0000
  0
VERTEX
  8
0
 10
0.2379
 20
-0.4250
 30
0.0000
  0
SEQEND
  8
0
  0
POLYLINE
  8
0
 66
1
 10
0.0000
 20
0.0000
 30
0.0000
 40
0.1000
 41
0.1000
 70
0
  0
VERTEX
  8
0
 10
-0.4500
 20
-0.2379
 30
0.0000
  0
VERTEX
  8
0
 10
-0.4500
 20
0.2379
 30
0.0000
  0
SEQEND
  8
0
  0
POLYLINE
  8
0
 66
1
 10
0.0000
 20
0.0000
 30
0.0000
 40
0.0500
 41
0.0500
 70
0
  0
VERTEX
  8
0
 10
-0.4250
 20
0.2379
 30
0.0000
 42
1.0000
  0
VERTEX
  8
0
 10
-0.4750
 20
0.2379
 30
0.0000
  0
SEQEND
  8
0
  0
POLYLINE
  8
0
 66
1
 10
0.0000
 20
0.0000
 30
0.0000
 40
0.0500
 41
0.0500
 70
0
  0
VERTEX
  8
0
 10
-0.4750
 20
-0.2379
 30
0.0000
 42
1.0000
  0
VERTEX
  8
0
 10
-0.4250
 20
-0.2379
 30
0.0000
  0
SEQEND
  8
0
  0
ENDBLK
  8
0
  0
BLOCK
  8
0
  2
OCTAGONV
 70
64
 10
0.0000
 20
0.0000
 30
0.0000
  3
OCTAGONV
  0
POLYLINE
  8
0
 66
1
 10
0.0000
 20
0.0000
 30
0.0000
 40
0.5000
 41
0.5000
 70
0
  0
VERTEX
  8
0
 10
-0.2500
 20
-0.1036
 30
0.0000
  0
VERTEX
  8
0
 10
-0.2500
 20
0.1036
 30
0.0000
  0
VERTEX
  8
0
 10
-0.1036
 20
0.2500
 30
0.0000
  0
VERTEX
  8
0
 10
0.1036
 20
0.2500
 30
0.0000
  0
VERTEX
  8
0
 10
0.2500
 20
0.1036
 30
0.0000
  0
VERTEX
  8
0
 10
0.2500
 20
-0.1036
 30
0.0000
  0
VERTEX
  8
0
 10
0.1036
 20
-0.2500
 30
0.0000
  0
VERTEX
  8
0
 10
-0.1036
 20
-0.2500
 30
0.0000
  0
VERTEX
  8
0
 10
-0.2500
 20
-0.1036
 30
0.0000
  0
VERTEX
  8
0
 10
-0.2500
 20
0.1036
 30
0.0000
  0
SEQEND
  8
0
  0
ENDBLK
  8
0
  0
BLOCK
  8
0
  2
SQUAREV
 70
64
 10
0.0000
 20
0.0000
 30
0.0000
  3
SQUAREV
  0
SOLID
  8
0
 10
-0.5000
 20
-0.5000
 30
0.0000
 11
0.5000
 21
-0.5000
 31
0.0000
 12
-0.5000
 22
0.5000
 32
0.0000
 13
0.5000
 23
0.5000
 33
0.0000
  0
ENDBLK
  8
0
  0
BLOCK
  8
0
  2
ROUNDV
 70
64
 10
0.0000
 20
0.0000
 30
0.0000
  3
ROUNDV
  0
POLYLINE
  8
0
 66
1
 10
0.0000
 20
0.0000
 30
0.0000
 40
0.5000
 41
0.5000
 70
0
  0
VERTEX
  8
0
 10
0.0000
 20
-0.2500
 30
0.0000
 42
1.0000
  0
VERTEX
  8
0
 10
0.0000
 20
0.2500
 30
0.0000
 42
1.0000
  0
VERTEX
  8
0
 10
0.0000
 20
-0.2500
 30
0.0000
  0
SEQEND
  8
0
  0
ENDBLK
  8
0
  0
BLOCK
  8
0
  2
ANNULUSV
 70
64
 10
0.0000
 20
0.0000
 30
0.0000
  3
ANNULUSV
  0
POLYLINE
  8
0
 66
1
 10
0.0000
 20
0.0000
 30
0.0000
 40
0.5000
 41
0.5000
 70
0
  0
VERTEX
  8
0
 10
0.0000
 20
-0.2500
 30
0.0000
 42
1.0000
  0
VERTEX
  8
0
 10
0.0000
 20
0.2500
 30
0.0000
 42
1.0000
  0
VERTEX
  8
0
 10
0.0000
 20
-0.2500
 30
0.0000
  0
SEQEND
  8
0
  0
ENDBLK
  8
0
  0
BLOCK
  8
0
  2
THERMALV
 70
64
 10
0.0000
 20
0.0000
 30
0.0000
  3
THERMALV
  0
POLYLINE
  8
0
 66
1
 10
0.0000
 20
0.0000
 30
0.0000
 40
0.1000
 41
0.1000
 70
0
  0
VERTEX
  8
0
 10
-0.2379
 20
0.4500
 30
0.0000
  0
VERTEX
  8
0
 10
0.2379
 20
0.4500
 30
0.0000
  0
SEQEND
  8
0
  0
POLYLINE
  8
0
 66
1
 10
0.0000
 20
0.0000
 30
0.0000
 40
0.0500
 41
0.0500
 70
0
  0
VERTEX
  8
0
 10
0.2379
 20
0.4250
 30
0.0000
 42
1.0000
  0
VERTEX
  8
0
 10
0.2379
 20
0.4750
 30
0.0000
  0
SEQEND
  8
0
  0
POLYLINE
  8
0
 66
1
 10
0.0000
 20
0.0000
 30
0.0000
 40
0.0500
 41
0.0500
 70
0
  0
VERTEX
  8
0
 10
-0.2379
 20
0.4750
 30
0.0000
 42
1.0000
  0
VERTEX
  8
0
 10
-0.2379
 20
0.4250
 30
0.0000
  0
SEQEND
  8
0
  0
POLYLINE
  8
0
 66
1
 10
0.0000
 20
0.0000
 30
0.0000
 40
0.1000
 41
0.1000
 70
0
  0
VERTEX
  8
0
 10
0.4500
 20
0.2379
 30
0.0000
  0
VERTEX
  8
0
 10
0.4500
 20
-0.2379
 30
0.0000
  0
SEQEND
  8
0
  0
POLYLINE
  8
0
 66
1
 10
0.0000
 20
0.0000
 30
0.0000
 40
0.0500
 41
0.0500
 70
0
  0
VERTEX
  8
0
 10
0.4250
 20
-0.2379
 30
0.0000
 42
1.0000
  0
VERTEX
  8
0
 10
0.4750
 20
-0.2379
 30
0.0000
  0
SEQEND
  8
0
  0
POLYLINE
  8
0
 66
1
 10
0.0000
 20
0.0000
 30
0.0000
 40
0.0500
 41
0.0500
 70
0
  0
VERTEX
  8
0
 10
0.4750
 20
0.2379
 30
0.0000
 42
1.0000
  0
VERTEX
  8
0
 10
0.4250
 20
0.2379
 30
0.0000
  0
SEQEND
  8
0
  0
POLYLINE
  8
0
 66
1
 10
0.0000
 20
0.0000
 30
0.0000
 40
0.1000
 41
0.1000
 70
0
  0
VERTEX
  8
0
 10
0.2379
 20
-0.4500
 30
0.0000
  0
VERTEX
  8
0
 10
-0.2379
 20
-0.4500
 30
0.0000
  0
SEQEND
  8
0
  0
POLYLINE
  8
0
 66
1
 10
0.0000
 20
0.0000
 30
0.0000
 40
0.0500
 41
0.0500
 70
0
  0
VERTEX
  8
0
 10
-0.2379
 20
-0.4250
 30
0.0000
 42
1.0000
  0
VERTEX
  8
0
 10
-0.2379
 20
-0.4750
 30
0.0000
  0
SEQEND
  8
0
  0
POLYLINE
  8
0
 66
1
 10
0.0000
 20
0.0000
 30
0.0000
 40
0.0500
 41
0.0500
 70
0
  0
VERTEX
  8
0
 10
0.2379
 20
-0.4750
 30
0.0000
 42
1.0000
  0
VERTEX
  8
0
 10
0.2379
 20
-0.4250
 30
0.0000
  0
SEQEND
  8
0
  0
POLYLINE
  8
0
 66
1
 10
0.0000
 20
0.0000
 30
0.0000
 40
0.1000
 41
0.1000
 70
0
  0
VERTEX
  8
0
 10
-0.4500
 20
-0.2379
 30
0.0000
  0
VERTEX
  8
0
 10
-0.4500
 20
0.2379
 30
0.0000
  0
SEQEND
  8
0
  0
POLYLINE
  8
0
 66
1
 10
0.0000
 20
0.0000
 30
0.0000
 40
0.0500
 41
0.0500
 70
0
  0
VERTEX
  8
0
 10
-0.4250
 20
0.2379
 30
0.0000
 42
1.0000
  0
VERTEX
  8
0
 10
-0.4750
 20
0.2379
 30
0.0000
  0
SEQEND
  8
0
  0
POLYLINE
  8
0
 66
1
 10
0.0000
 20
0.0000
 30
0.0000
 40
0.0500
 41
0.0500
 70
0
  0
VERTEX
  8
0
 10
-0.4750
 20
-0.2379
 30
0.0000
 42
1.0000
  0
VERTEX
  8
0
 10
-0.4250
 20
-0.2379
 30
0.0000
  0
SEQEND
  8
0
  0
ENDBLK
  8
0
  0
ENDSEC
  0
SECTION
  2
ENTITIES
  0
POINT
  8
23
 10
86.3600
 20
24.1300
 30
0.0000
  0
LINE
  8
20
 10
32.4510
 20
17.7315
 30
0.0000
 11
31.8532
 21
17.7315
 31
0.0000
  0
LINE
  8
20
 10
32.4510
 20
17.7315
 30
0.0000
 11
56.2690
 21
17.7315
 31
0.0000
  0
LINE
  8
20
 10
56.2690
 20
17.7315
 30
0.0000
 11
56.8668
 21
17.7315
 31
0.0000
  0
LINE
  8
20
 10
7.5201
 20
12.7350
 30
0.0000
 11
2.5041
 21
12.7350
 31
0.0000
  0
LINE
  8
20
 10
7.5201
 20
12.7350
 30
0.0000
 11
7.5201
 21
13.0350
 31
0.0000
  0
LINE
  8
20
 10
2.5041
 20
12.7350
 30
0.0000
 11
2.5041
 21
13.0350
 31
0.0000
  0
LINE
  8
20
 10
2.5041
 20
12.8300
 30
0.0000
 11
2.5041
 21
23.1300
 31
0.0000
  0
LINE
  8
20
 10
81.1450
 20
24.1300
 30
0.0000
 11
7.5750
 21
24.1300
 31
0.0000
  0
LINE
  8
20
 10
81.1450
 20
23.1300
 30
0.0000
 11
81.1450
 21
24.1300
 31
0.0000
  0
LINE
  8
20
 10
81.1450
 20
23.1300
 30
0.0000
 11
86.3600
 21
23.1300
 31
0.0000
  0
LINE
  8
20
 10
86.3600
 20
23.1300
 30
0.0000
 11
86.3600
 21
12.8300
 31
0.0000
  0
LINE
  8
20
 10
86.3600
 20
12.8300
 30
0.0000
 11
81.5501
 21
12.8300
 31
0.0000
  0
LINE
  8
20
 10
78.9751
 20
17.9886
 30
0.0000
 11
80.5501
 21
17.9886
 31
0.0000
  0
ARC
  8
20
 10
80.5501
 20
16.9886
 30
0.0000
 40
1.0000
 50
0.0000
 51
90.0000
  0
LINE
  8
20
 10
81.5501
 20
16.9886
 30
0.0000
 11
81.5501
 21
12.8300
 31
0.0000
  0
LINE
  8
20
 10
78.9751
 20
17.9886
 30
0.0000
 11
78.1840
 21
17.9886
 31
0.0000
  0
ARC
  8
20
 10
78.1840
 20
16.9886
 30
0.0000
 40
1.0000
 50
90.0000
 51
180.0000
  0
LINE
  8
20
 10
77.1840
 20
16.9886
 30
0.0000
 11
77.1840
 21
12.7635
 31
0.0000
  0
LINE
  8
20
 10
77.1840
 20
12.7635
 30
0.0000
 11
77.1840
 21
7.4860
 31
0.0000
  0
ARC
  8
20
 10
75.1840
 20
7.4860
 30
0.0000
 40
2.0000
 50
270.0000
 51
0.0000
  0
LINE
  8
20
 10
75.1840
 20
5.4860
 30
0.0000
 11
65.6504
 21
5.4860
 31
0.0000
  0
LINE
  8
20
 10
63.0698
 20
5.4860
 30
0.0000
 11
58.8668
 21
5.4860
 31
0.0000
  0
ARC
  8
20
 10
58.8668
 20
7.4860
 30
0.0000
 40
2.0000
 50
180.0000
 51
270.0000
  0
LINE
  8
20
 10
56.8668
 20
7.4860
 30
0.0000
 11
56.8668
 21
17.7315
 31
0.0000
  0
LINE
  8
20
 10
56.8668
 20
17.7315
 30
0.0000
 11
31.8532
 21
17.7315
 31
0.0000
  0
LINE
  8
20
 10
31.8532
 20
17.7315
 30
0.0000
 11
31.8532
 21
7.4860
 31
0.0000
  0
ARC
  8
20
 10
29.8532
 20
7.4860
 30
0.0000
 40
2.0000
 50
270.0000
 51
0.0000
  0
LINE
  8
20
 10
29.8532
 20
5.4860
 30
0.0000
 11
25.6504
 21
5.4860
 31
0.0000
  0
LINE
  8
20
 10
23.0699
 20
5.4860
 30
0.0000
 11
13.5360
 21
5.4860
 31
0.0000
  0
ARC
  8
20
 10
13.5360
 20
7.4860
 30
0.0000
 40
2.0000
 50
180.0000
 51
270.0000
  0
LINE
  8
20
 10
11.5360
 20
7.4860
 30
0.0000
 11
11.5360
 21
12.7635
 31
0.0000
  0
LINE
  8
20
 10
11.5360
 20
12.7635
 30
0.0000
 11
11.5360
 21
16.7506
 31
0.0000
  0
ARC
  8
20
 10
10.5360
 20
16.7506
 30
0.0000
 40
1.0000
 50
0.0000
 51
90.0000
  0
LINE
  8
20
 10
10.5360
 20
17.7506
 30
0.0000
 11
10.0951
 21
17.7506
 31
0.0000
  0
LINE
  8
20
 10
10.0951
 20
17.7506
 30
0.0000
 11
8.5201
 21
17.7506
 31
0.0000
  0
ARC
  8
20
 10
8.5201
 20
16.7506
 30
0.0000
 40
1.0000
 50
90.0000
 51
180.0000
  0
LINE
  8
20
 10
7.5201
 20
16.7506
 30
0.0000
 11
7.5201
 21
12.8300
 31
0.0000
  0
LINE
  8
20
 10
7.5750
 20
24.1300
 30
0.0000
 11
7.5750
 21
23.1300
 31
0.0000
  0
LINE
  8
20
 10
2.5041
 20
23.1300
 30
0.0000
 11
7.5750
 21
23.1300
 31
0.0000
  0
ARC
  8
20
 10
64.3601
 20
3.7550
 30
0.0000
 40
2.1590
 50
53.3006
 51
126.6994
  0
ARC
  8
20
 10
24.3602
 20
3.7550
 30
0.0000
 40
2.1590
 50
53.3006
 51
126.6994
  0
LINE
  8
48
 10
91.3600
 20
15.5540
 30
0.0000
 11
90.3378
 21
15.5540
 31
0.0000
  0
LINE
  8
48
 10
89.3378
 20
15.5540
 30
0.0000
 11
88.3156
 21
15.5540
 31
0.0000
  0
LINE
  8
48
 10
87.3156
 20
15.5540
 30
0.0000
 11
86.2933
 21
15.5540
 31
0.0000
  0
LINE
  8
48
 10
85.2933
 20
15.5540
 30
0.0000
 11
84.2711
 21
15.5540
 31
0.0000
  0
LINE
  8
48
 10
83.2711
 20
15.5540
 30
0.0000
 11
82.2489
 21
15.5540
 31
0.0000
  0
LINE
  8
48
 10
81.2489
 20
15.5540
 30
0.0000
 11
80.2267
 21
15.5540
 31
0.0000
  0
LINE
  8
48
 10
79.2267
 20
15.5540
 30
0.0000
 11
78.2044
 21
15.5540
 31
0.0000
  0
LINE
  8
48
 10
77.2044
 20
15.5540
 30
0.0000
 11
76.1822
 21
15.5540
 31
0.0000
  0
LINE
  8
48
 10
75.1822
 20
15.5540
 30
0.0000
 11
74.1600
 21
15.5540
 31
0.0000
  0
LINE
  8
48
 10
73.1600
 20
15.5540
 30
0.0000
 11
72.1378
 21
15.5540
 31
0.0000
  0
LINE
  8
48
 10
71.1378
 20
15.5540
 30
0.0000
 11
70.1156
 21
15.5540
 31
0.0000
  0
LINE
  8
48
 10
69.1156
 20
15.5540
 30
0.0000
 11
68.0933
 21
15.5540
 31
0.0000
  0
LINE
  8
48
 10
67.0933
 20
15.5540
 30
0.0000
 11
66.0711
 21
15.5540
 31
0.0000
  0
LINE
  8
48
 10
65.0711
 20
15.5540
 30
0.0000
 11
64.0489
 21
15.5540
 31
0.0000
  0
LINE
  8
48
 10
63.0489
 20
15.5540
 30
0.0000
 11
62.0267
 21
15.5540
 31
0.0000
  0
LINE
  8
48
 10
61.0267
 20
15.5540
 30
0.0000
 11
60.0044
 21
15.5540
 31
0.0000
  0
LINE
  8
48
 10
59.0044
 20
15.5540
 30
0.0000
 11
57.9822
 21
15.5540
 31
0.0000
  0
LINE
  8
48
 10
56.9822
 20
15.5540
 30
0.0000
 11
55.9600
 21
15.5540
 31
0.0000
  0
LINE
  8
48
 10
54.9600
 20
15.5540
 30
0.0000
 11
53.9378
 21
15.5540
 31
0.0000
  0
LINE
  8
48
 10
52.9378
 20
15.5540
 30
0.0000
 11
51.9156
 21
15.5540
 31
0.0000
  0
LINE
  8
48
 10
50.9156
 20
15.5540
 30
0.0000
 11
49.8933
 21
15.5540
 31
0.0000
  0
LINE
  8
48
 10
48.8933
 20
15.5540
 30
0.0000
 11
47.8711
 21
15.5540
 31
0.0000
  0
LINE
  8
48
 10
46.8711
 20
15.5540
 30
0.0000
 11
45.8489
 21
15.5540
 31
0.0000
  0
LINE
  8
48
 10
44.8489
 20
15.5540
 30
0.0000
 11
43.8267
 21
15.5540
 31
0.0000
  0
LINE
  8
48
 10
42.8267
 20
15.5540
 30
0.0000
 11
41.8044
 21
15.5540
 31
0.0000
  0
LINE
  8
48
 10
40.8044
 20
15.5540
 30
0.0000
 11
39.7822
 21
15.5540
 31
0.0000
  0
LINE
  8
48
 10
38.7822
 20
15.5540
 30
0.0000
 11
37.7600
 21
15.5540
 31
0.0000
  0
LINE
  8
48
 10
36.7600
 20
15.5540
 30
0.0000
 11
35.7378
 21
15.5540
 31
0.0000
  0
LINE
  8
48
 10
34.7378
 20
15.5540
 30
0.0000
 11
33.7156
 21
15.5540
 31
0.0000
  0
LINE
  8
48
 10
32.7156
 20
15.5540
 30
0.0000
 11
31.6933
 21
15.5540
 31
0.0000
  0
LINE
  8
48
 10
30.6933
 20
15.5540
 30
0.0000
 11
29.6711
 21
15.5540
 31
0.0000
  0
LINE
  8
48
 10
28.6711
 20
15.5540
 30
0.0000
 11
27.6489
 21
15.5540
 31
0.0000
  0
LINE
  8
48
 10
26.6489
 20
15.5540
 30
0.0000
 11
25.6267
 21
15.5540
 31
0.0000
  0
LINE
  8
48
 10
24.6267
 20
15.5540
 30
0.0000
 11
23.6044
 21
15.5540
 31
0.0000
  0
LINE
  8
48
 10
22.6044
 20
15.5540
 30
0.0000
 11
21.5822
 21
15.5540
 31
0.0000
  0
LINE
  8
48
 10
20.5822
 20
15.5540
 30
0.0000
 11
19.5600
 21
15.5540
 31
0.0000
  0
LINE
  8
48
 10
18.5600
 20
15.5540
 30
0.0000
 11
17.5378
 21
15.5540
 31
0.0000
  0
LINE
  8
48
 10
16.5378
 20
15.5540
 30
0.0000
 11
15.5156
 21
15.5540
 31
0.0000
  0
LINE
  8
48
 10
14.5156
 20
15.5540
 30
0.0000
 11
13.4933
 21
15.5540
 31
0.0000
  0
LINE
  8
48
 10
12.4933
 20
15.5540
 30
0.0000
 11
11.4711
 21
15.5540
 31
0.0000
  0
LINE
  8
48
 10
10.4711
 20
15.5540
 30
0.0000
 11
9.4489
 21
15.5540
 31
0.0000
  0
LINE
  8
48
 10
8.4489
 20
15.5540
 30
0.0000
 11
7.4267
 21
15.5540
 31
0.0000
  0
LINE
  8
48
 10
6.4267
 20
15.5540
 30
0.0000
 11
5.4044
 21
15.5540
 31
0.0000
  0
LINE
  8
48
 10
4.4044
 20
15.5540
 30
0.0000
 11
3.3822
 21
15.5540
 31
0.0000
  0
LINE
  8
48
 10
2.3822
 20
15.5540
 30
0.0000
 11
1.3600
 21
15.5540
 31
0.0000
  0
POLYLINE
  8
21
 66
1
 10
0.0000
 20
0.0000
 30
0.0000
 40
0.0762
 41
0.0762
 70
0
  0
VERTEX
  8
21
 10
6.1431
 20
19.3023
 30
0.0000
  0
VERTEX
  8
21
 10
5.6516
 20
18.9337
 30
0.0000
  0
SEQEND
  8
0
  0
POLYLINE
  8
21
 66
1
 10
0.0000
 20
0.0000
 30
0.0000
 40
0.0381
 41
0.0381
 70
0
  0
VERTEX
  8
21
 10
5.6402
 20
18.9489
 30
0.0000
 42
1.0000
  0
VERTEX
  8
21
 10
5.6630
 20
18.9185
 30
0.0000
  0
SEQEND
  8
0
  0
POLYLINE
  8
21
 66
1
 10
0.0000
 20
0.0000
 30
0.0000
 40
0.0381
 41
0.0381
 70
0
  0
VERTEX
  8
21
 10
6.1545
 20
19.2871
 30
0.0000
 42
1.0000
  0
VERTEX
  8
21
 10
6.1317
 20
19.3176
 30
0.0000
  0
SEQEND
  8
0
  0
POLYLINE
  8
21
 66
1
 10
0.0000
 20
0.0000
 30
0.0000
 40
0.0762
 41
0.0762
 70
0
  0
VERTEX
  8
21
 10
5.6516
 20
18.9337
 30
0.0000
  0
VERTEX
  8
21
 10
6.1431
 20
18.5651
 30
0.0000
  0
SEQEND
  8
0
  0
POLYLINE
  8
21
 66
1
 10
0.0000
 20
0.0000
 30
0.0000
 40
0.0381
 41
0.0381
 70
0
  0
VERTEX
  8
21
 10
6.1317
 20
18.5498
 30
0.0000
 42
1.0000
  0
VERTEX
  8
21
 10
6.1545
 20
18.5803
 30
0.0000
  0
SEQEND
  8
0
  0
POLYLINE
  8
21
 66
1
 10
0.0000
 20
0.0000
 30
0.0000
 40
0.0381
 41
0.0381
 70
0
  0
VERTEX
  8
21
 10
5.6630
 20
18.9489
 30
0.0000
 42
1.0000
  0
VERTEX
  8
21
 10
5.6402
 20
18.9185
 30
0.0000
  0
SEQEND
  8
0
  0
POLYLINE
  8
21
 66
1
 10
0.0000
 20
0.0000
 30
0.0000
 40
0.0762
 41
0.0762
 70
0
  0
VERTEX
  8
21
 10
6.8915
 20
19.3023
 30
0.0000
  0
VERTEX
  8
21
 10
6.4000
 20
18.9337
 30
0.0000
  0
SEQEND
  8
0
  0
POLYLINE
  8
21
 66
1
 10
0.0000
 20
0.0000
 30
0.0000
 40
0.0381
 41
0.0381
 70
0
  0
VERTEX
  8
21
 10
6.3886
 20
18.9489
 30
0.0000
 42
1.0000
  0
VERTEX
  8
21
 10
6.4114
 20
18.9185
 30
0.0000
  0
SEQEND
  8
0
  0
POLYLINE
  8
21
 66
1
 10
0.0000
 20
0.0000
 30
0.0000
 40
0.0381
 41
0.0381
 70
0
  0
VERTEX
  8
21
 10
6.9029
 20
19.2871
 30
0.0000
 42
1.0000
  0
VERTEX
  8
21
 10
6.8801
 20
19.3176
 30
0.0000
  0
SEQEND
  8
0
  0
POLYLINE
  8
21
 66
1
 10
0.0000
 20
0.0000
 30
0.0000
 40
0.0762
 41
0.0762
 70
0
  0
VERTEX
  8
21
 10
6.4000
 20
18.9337
 30
0.0000
  0
VERTEX
  8
21
 10
6.8915
 20
18.5651
 30
0.0000
  0
SEQEND
  8
0
  0
POLYLINE
  8
21
 66
1
 10
0.0000
 20
0.0000
 30
0.0000
 40
0.0381
 41
0.0381
 70
0
  0
VERTEX
  8
21
 10
6.8801
 20
18.5498
 30
0.0000
 42
1.0000
  0
VERTEX
  8
21
 10
6.9029
 20
18.5803
 30
0.0000
  0
SEQEND
  8
0
  0
POLYLINE
  8
21
 66
1
 10
0.0000
 20
0.0000
 30
0.0000
 40
0.0381
 41
0.0381
 70
0
  0
VERTEX
  8
21
 10
6.4114
 20
18.9489
 30
0.0000
 42
1.0000
  0
VERTEX
  8
21
 10
6.3886
 20
18.9185
 30
0.0000
  0
SEQEND
  8
0
  0
POLYLINE
  8
21
 66
1
 10
0.0000
 20
0.0000
 30
0.0000
 40
0.0762
 41
0.0762
 70
0
  0
VERTEX
  8
21
 10
7.1484
 20
18.5651
 30
0.0000
  0
VERTEX
  8
21
 10
7.1484
 20
19.3023
 30
0.0000
  0
SEQEND
  8
0
  0
POLYLINE
  8
21
 66
1
 10
0.0000
 20
0.0000
 30
0.0000
 40
0.0381
 41
0.0381
 70
0
  0
VERTEX
  8
21
 10
7.1675
 20
19.3023
 30
0.0000
 42
1.0000
  0
VERTEX
  8
21
 10
7.1294
 20
19.3023
 30
0.0000
  0
SEQEND
  8
0
  0
POLYLINE
  8
21
 66
1
 10
0.0000
 20
0.0000
 30
0.0000
 40
0.0381
 41
0.0381
 70
0
  0
VERTEX
  8
21
 10
7.1294
 20
18.5651
 30
0.0000
 42
1.0000
  0
VERTEX
  8
21
 10
7.1675
 20
18.5651
 30
0.0000
  0
SEQEND
  8
0
  0
POLYLINE
  8
21
 66
1
 10
0.0000
 20
0.0000
 30
0.0000
 40
0.0762
 41
0.0762
 70
0
  0
VERTEX
  8
21
 10
7.1484
 20
19.3023
 30
0.0000
  0
VERTEX
  8
21
 10
7.5170
 20
19.3023
 30
0.0000
  0
SEQEND
  8
0
  0
POLYLINE
  8
21
 66
1
 10
0.0000
 20
0.0000
 30
0.0000
 40
0.0381
 41
0.0381
 70
0
  0
VERTEX
  8
21
 10
7.5170
 20
19.2833
 30
0.0000
 42
1.0000
  0
VERTEX
  8
21
 10
7.5170
 20
19.3214
 30
0.0000
  0
SEQEND
  8
0
  0
POLYLINE
  8
21
 66
1
 10
0.0000
 20
0.0000
 30
0.0000
 40
0.0381
 41
0.0381
 70
0
  0
VERTEX
  8
21
 10
7.1484
 20
19.3214
 30
0.0000
 42
1.0000
  0
VERTEX
  8
21
 10
7.1484
 20
19.2833
 30
0.0000
  0
SEQEND
  8
0
  0
POLYLINE
  8
21
 66
1
 10
0.0000
 20
0.0000
 30
0.0000
 40
0.0762
 41
0.0762
 70
0
  0
VERTEX
  8
21
 10
7.5170
 20
19.3023
 30
0.0000
  0
VERTEX
  8
21
 10
7.6399
 20
19.1794
 30
0.0000
  0
SEQEND
  8
0
  0
POLYLINE
  8
21
 66
1
 10
0.0000
 20
0.0000
 30
0.0000
 40
0.0381
 41
0.0381
 70
0
  0
VERTEX
  8
21
 10
7.6264
 20
19.1660
 30
0.0000
 42
1.0000
  0
VERTEX
  8
21
 10
7.6534
 20
19.1929
 30
0.0000
  0
SEQEND
  8
0
  0
POLYLINE
  8
21
 66
1
 10
0.0000
 20
0.0000
 30
0.0000
 40
0.0381
 41
0.0381
 70
0
  0
VERTEX
  8
21
 10
7.5305
 20
19.3158
 30
0.0000
 42
1.0000
  0
VERTEX
  8
21
 10
7.5036
 20
19.2888
 30
0.0000
  0
SEQEND
  8
0
  0
POLYLINE
  8
21
 66
1
 10
0.0000
 20
0.0000
 30
0.0000
 40
0.0762
 41
0.0762
 70
0
  0
VERTEX
  8
21
 10
7.6399
 20
19.1794
 30
0.0000
  0
VERTEX
  8
21
 10
7.6399
 20
18.9337
 30
0.0000
  0
SEQEND
  8
0
  0
POLYLINE
  8
21
 66
1
 10
0.0000
 20
0.0000
 30
0.0000
 40
0.0381
 41
0.0381
 70
0
  0
VERTEX
  8
21
 10
7.6209
 20
18.9337
 30
0.0000
 42
1.0000
  0
VERTEX
  8
21
 10
7.6590
 20
18.9337
 30
0.0000
  0
SEQEND
  8
0
  0
POLYLINE
  8
21
 66
1
 10
0.0000
 20
0.0000
 30
0.0000
 40
0.0381
 41
0.0381
 70
0
  0
VERTEX
  8
21
 10
7.6590
 20
19.1794
 30
0.0000
 42
1.0000
  0
VERTEX
  8
21
 10
7.6209
 20
19.1794
 30
0.0000
  0
SEQEND
  8
0
  0
POLYLINE
  8
21
 66
1
 10
0.0000
 20
0.0000
 30
0.0000
 40
0.0762
 41
0.0762
 70
0
  0
VERTEX
  8
21
 10
7.6399
 20
18.9337
 30
0.0000
  0
VERTEX
  8
21
 10
7.5170
 20
18.8108
 30
0.0000
  0
SEQEND
  8
0
  0
POLYLINE
  8
21
 66
1
 10
0.0000
 20
0.0000
 30
0.0000
 40
0.0381
 41
0.0381
 70
0
  0
VERTEX
  8
21
 10
7.5036
 20
18.8243
 30
0.0000
 42
1.0000
  0
VERTEX
  8
21
 10
7.5305
 20
18.7974
 30
0.0000
  0
SEQEND
  8
0
  0
POLYLINE
  8
21
 66
1
 10
0.0000
 20
0.0000
 30
0.0000
 40
0.0381
 41
0.0381
 70
0
  0
VERTEX
  8
21
 10
7.6534
 20
18.9202
 30
0.0000
 42
1.0000
  0
VERTEX
  8
21
 10
7.6264
 20
18.9472
 30
0.0000
  0
SEQEND
  8
0
  0
POLYLINE
  8
21
 66
1
 10
0.0000
 20
0.0000
 30
0.0000
 40
0.0762
 41
0.0762
 70
0
  0
VERTEX
  8
21
 10
7.5170
 20
18.8108
 30
0.0000
  0
VERTEX
  8
21
 10
7.1484
 20
18.8108
 30
0.0000
  0
SEQEND
  8
0
  0
POLYLINE
  8
21
 66
1
 10
0.0000
 20
0.0000
 30
0.0000
 40
0.0381
 41
0.0381
 70
0
  0
VERTEX
  8
21
 10
7.1484
 20
18.8299
 30
0.0000
 42
1.0000
  0
VERTEX
  8
21
 10
7.1484
 20
18.7918
 30
0.0000
  0
SEQEND
  8
0
  0
POLYLINE
  8
21
 66
1
 10
0.0000
 20
0.0000
 30
0.0000
 40
0.0381
 41
0.0381
 70
0
  0
VERTEX
  8
21
 10
7.5170
 20
18.7918
 30
0.0000
 42
1.0000
  0
VERTEX
  8
21
 10
7.5170
 20
18.8299
 30
0.0000
  0
SEQEND
  8
0
  0
POLYLINE
  8
21
 66
1
 10
0.0000
 20
0.0000
 30
0.0000
 40
0.0762
 41
0.0762
 70
0
  0
VERTEX
  8
21
 10
7.3942
 20
18.8108
 30
0.0000
  0
VERTEX
  8
21
 10
7.6399
 20
18.5651
 30
0.0000
  0
SEQEND
  8
0
  0
POLYLINE
  8
21
 66
1
 10
0.0000
 20
0.0000
 30
0.0000
 40
0.0381
 41
0.0381
 70
0
  0
VERTEX
  8
21
 10
7.6264
 20
18.5516
 30
0.0000
 42
1.0000
  0
VERTEX
  8
21
 10
7.6534
 20
18.5786
 30
0.0000
  0
SEQEND
  8
0
  0
POLYLINE
  8
21
 66
1
 10
0.0000
 20
0.0000
 30
0.0000
 40
0.0381
 41
0.0381
 70
0
  0
VERTEX
  8
21
 10
7.4076
 20
18.8243
 30
0.0000
 42
1.0000
  0
VERTEX
  8
21
 10
7.3807
 20
18.7974
 30
0.0000
  0
SEQEND
  8
0
  0
POLYLINE
  8
21
 66
1
 10
0.0000
 20
0.0000
 30
0.0000
 40
0.0762
 41
0.0762
 70
0
  0
VERTEX
  8
21
 10
7.8968
 20
18.5651
 30
0.0000
  0
VERTEX
  8
21
 10
7.8968
 20
19.3023
 30
0.0000
  0
SEQEND
  8
0
  0
POLYLINE
  8
21
 66
1
 10
0.0000
 20
0.0000
 30
0.0000
 40
0.0381
 41
0.0381
 70
0
  0
VERTEX
  8
21
 10
7.9159
 20
19.3023
 30
0.0000
 42
1.0000
  0
VERTEX
  8
21
 10
7.8778
 20
19.3023
 30
0.0000
  0
SEQEND
  8
0
  0
POLYLINE
  8
21
 66
1
 10
0.0000
 20
0.0000
 30
0.0000
 40
0.0381
 41
0.0381
 70
0
  0
VERTEX
  8
21
 10
7.8778
 20
18.5651
 30
0.0000
 42
1.0000
  0
VERTEX
  8
21
 10
7.9159
 20
18.5651
 30
0.0000
  0
SEQEND
  8
0
  0
POLYLINE
  8
21
 66
1
 10
0.0000
 20
0.0000
 30
0.0000
 40
0.0762
 41
0.0762
 70
0
  0
VERTEX
  8
21
 10
7.8968
 20
18.9337
 30
0.0000
  0
VERTEX
  8
21
 10
8.3883
 20
18.9337
 30
0.0000
  0
SEQEND
  8
0
  0
POLYLINE
  8
21
 66
1
 10
0.0000
 20
0.0000
 30
0.0000
 40
0.0381
 41
0.0381
 70
0
  0
VERTEX
  8
21
 10
8.3883
 20
18.9146
 30
0.0000
 42
1.0000
  0
VERTEX
  8
21
 10
8.3883
 20
18.9527
 30
0.0000
  0
SEQEND
  8
0
  0
POLYLINE
  8
21
 66
1
 10
0.0000
 20
0.0000
 30
0.0000
 40
0.0381
 41
0.0381
 70
0
  0
VERTEX
  8
21
 10
7.8968
 20
18.9527
 30
0.0000
 42
1.0000
  0
VERTEX
  8
21
 10
7.8968
 20
18.9146
 30
0.0000
  0
SEQEND
  8
0
  0
POLYLINE
  8
21
 66
1
 10
0.0000
 20
0.0000
 30
0.0000
 40
0.0762
 41
0.0762
 70
0
  0
VERTEX
  8
21
 10
8.3883
 20
19.3023
 30
0.0000
  0
VERTEX
  8
21
 10
8.3883
 20
18.5651
 30
0.0000
  0
SEQEND
  8
0
  0
POLYLINE
  8
21
 66
1
 10
0.0000
 20
0.0000
 30
0.0000
 40
0.0381
 41
0.0381
 70
0
  0
VERTEX
  8
21
 10
8.3693
 20
18.5651
 30
0.0000
 42
1.0000
  0
VERTEX
  8
21
 10
8.4074
 20
18.5651
 30
0.0000
  0
SEQEND
  8
0
  0
POLYLINE
  8
21
 66
1
 10
0.0000
 20
0.0000
 30
0.0000
 40
0.0381
 41
0.0381
 70
0
  0
VERTEX
  8
21
 10
8.4074
 20
19.3023
 30
0.0000
 42
1.0000
  0
VERTEX
  8
21
 10
8.3693
 20
19.3023
 30
0.0000
  0
SEQEND
  8
0
  0
POLYLINE
  8
21
 66
1
 10
0.0000
 20
0.0000
 30
0.0000
 40
0.0762
 41
0.0762
 70
0
  0
VERTEX
  8
21
 10
4.1762
 20
22.7669
 30
0.0000
  0
VERTEX
  8
21
 10
3.3924
 20
22.7669
 30
0.0000
  0
SEQEND
  8
0
  0
POLYLINE
  8
21
 66
1
 10
0.0000
 20
0.0000
 30
0.0000
 40
0.0381
 41
0.0381
 70
0
  0
VERTEX
  8
21
 10
3.3924
 20
22.7859
 30
0.0000
 42
1.0000
  0
VERTEX
  8
21
 10
3.3924
 20
22.7478
 30
0.0000
  0
SEQEND
  8
0
  0
POLYLINE
  8
21
 66
1
 10
0.0000
 20
0.0000
 30
0.0000
 40
0.0381
 41
0.0381
 70
0
  0
VERTEX
  8
21
 10
4.1762
 20
22.7478
 30
0.0000
 42
1.0000
  0
VERTEX
  8
21
 10
4.1762
 20
22.7859
 30
0.0000
  0
SEQEND
  8
0
  0
POLYLINE
  8
21
 66
1
 10
0.0000
 20
0.0000
 30
0.0000
 40
0.0762
 41
0.0762
 70
0
  0
VERTEX
  8
21
 10
3.3924
 20
22.7669
 30
0.0000
  0
VERTEX
  8
21
 10
3.2356
 20
22.6101
 30
0.0000
  0
SEQEND
  8
0
  0
POLYLINE
  8
21
 66
1
 10
0.0000
 20
0.0000
 30
0.0000
 40
0.0381
 41
0.0381
 70
0
  0
VERTEX
  8
21
 10
3.2221
 20
22.6236
 30
0.0000
 42
1.0000
  0
VERTEX
  8
21
 10
3.2491
 20
22.5967
 30
0.0000
  0
SEQEND
  8
0
  0
POLYLINE
  8
21
 66
1
 10
0.0000
 20
0.0000
 30
0.0000
 40
0.0381
 41
0.0381
 70
0
  0
VERTEX
  8
21
 10
3.4058
 20
22.7534
 30
0.0000
 42
1.0000
  0
VERTEX
  8
21
 10
3.3789
 20
22.7804
 30
0.0000
  0
SEQEND
  8
0
  0
POLYLINE
  8
21
 66
1
 10
0.0000
 20
0.0000
 30
0.0000
 40
0.0762
 41
0.0762
 70
0
  0
VERTEX
  8
21
 10
3.2356
 20
22.6101
 30
0.0000
  0
VERTEX
  8
21
 10
3.2356
 20
22.2966
 30
0.0000
  0
SEQEND
  8
0
  0
POLYLINE
  8
21
 66
1
 10
0.0000
 20
0.0000
 30
0.0000
 40
0.0381
 41
0.0381
 70
0
  0
VERTEX
  8
21
 10
3.2166
 20
22.2966
 30
0.0000
 42
1.0000
  0
VERTEX
  8
21
 10
3.2547
 20
22.2966
 30
0.0000
  0
SEQEND
  8
0
  0
POLYLINE
  8
21
 66
1
 10
0.0000
 20
0.0000
 30
0.0000
 40
0.0381
 41
0.0381
 70
0
  0
VERTEX
  8
21
 10
3.2547
 20
22.6101
 30
0.0000
 42
1.0000
  0
VERTEX
  8
21
 10
3.2166
 20
22.6101
 30
0.0000
  0
SEQEND
  8
0
  0
POLYLINE
  8
21
 66
1
 10
0.0000
 20
0.0000
 30
0.0000
 40
0.0762
 41
0.0762
 70
0
  0
VERTEX
  8
21
 10
3.2356
 20
22.2966
 30
0.0000
  0
VERTEX
  8
21
 10
3.3924
 20
22.1398
 30
0.0000
  0
SEQEND
  8
0
  0
POLYLINE
  8
21
 66
1
 10
0.0000
 20
0.0000
 30
0.0000
 40
0.0381
 41
0.0381
 70
0
  0
VERTEX
  8
21
 10
3.3789
 20
22.1264
 30
0.0000
 42
1.0000
  0
VERTEX
  8
21
 10
3.4058
 20
22.1533
 30
0.0000
  0
SEQEND
  8
0
  0
POLYLINE
  8
21
 66
1
 10
0.0000
 20
0.0000
 30
0.0000
 40
0.0381
 41
0.0381
 70
0
  0
VERTEX
  8
21
 10
3.2491
 20
22.3101
 30
0.0000
 42
1.0000
  0
VERTEX
  8
21
 10
3.2221
 20
22.2831
 30
0.0000
  0
SEQEND
  8
0
  0
POLYLINE
  8
21
 66
1
 10
0.0000
 20
0.0000
 30
0.0000
 40
0.0762
 41
0.0762
 70
0
  0
VERTEX
  8
21
 10
3.3924
 20
22.1398
 30
0.0000
  0
VERTEX
  8
21
 10
4.1762
 20
22.1398
 30
0.0000
  0
SEQEND
  8
0
  0
POLYLINE
  8
21
 66
1
 10
0.0000
 20
0.0000
 30
0.0000
 40
0.0381
 41
0.0381
 70
0
  0
VERTEX
  8
21
 10
4.1762
 20
22.1208
 30
0.0000
 42
1.0000
  0
VERTEX
  8
21
 10
4.1762
 20
22.1589
 30
0.0000
  0
SEQEND
  8
0
  0
POLYLINE
  8
21
 66
1
 10
0.0000
 20
0.0000
 30
0.0000
 40
0.0381
 41
0.0381
 70
0
  0
VERTEX
  8
21
 10
3.3924
 20
22.1589
 30
0.0000
 42
1.0000
  0
VERTEX
  8
21
 10
3.3924
 20
22.1208
 30
0.0000
  0
SEQEND
  8
0
  0
POLYLINE
  8
21
 66
1
 10
0.0000
 20
0.0000
 30
0.0000
 40
0.0762
 41
0.0762
 70
0
  0
VERTEX
  8
21
 10
3.2356
 20
21.8314
 30
0.0000
  0
VERTEX
  8
21
 10
4.1762
 20
21.2043
 30
0.0000
  0
SEQEND
  8
0
  0
POLYLINE
  8
21
 66
1
 10
0.0000
 20
0.0000
 30
0.0000
 40
0.0381
 41
0.0381
 70
0
  0
VERTEX
  8
21
 10
4.1656
 20
21.1885
 30
0.0000
 42
1.0000
  0
VERTEX
  8
21
 10
4.1868
 20
21.2202
 30
0.0000
  0
SEQEND
  8
0
  0
POLYLINE
  8
21
 66
1
 10
0.0000
 20
0.0000
 30
0.0000
 40
0.0381
 41
0.0381
 70
0
  0
VERTEX
  8
21
 10
3.2462
 20
21.8472
 30
0.0000
 42
1.0000
  0
VERTEX
  8
21
 10
3.2250
 20
21.8155
 30
0.0000
  0
SEQEND
  8
0
  0
POLYLINE
  8
22
 66
1
 10
0.0000
 20
0.0000
 30
0.0000
 40
0.0762
 41
0.0762
 70
0
  0
VERTEX
  8
22
 10
4.3000
 20
22.8107
 30
0.0000
  0
VERTEX
  8
22
 10
5.2407
 20
22.8107
 30
0.0000
  0
SEQEND
  8
0
  0
POLYLINE
  8
22
 66
1
 10
0.0000
 20
0.0000
 30
0.0000
 40
0.0381
 41
0.0381
 70
0
  0
VERTEX
  8
22
 10
5.2407
 20
22.7916
 30
0.0000
 42
1.0000
  0
VERTEX
  8
22
 10
5.2407
 20
22.8297
 30
0.0000
  0
SEQEND
  8
0
  0
POLYLINE
  8
22
 66
1
 10
0.0000
 20
0.0000
 30
0.0000
 40
0.0381
 41
0.0381
 70
0
  0
VERTEX
  8
22
 10
4.3000
 20
22.8297
 30
0.0000
 42
1.0000
  0
VERTEX
  8
22
 10
4.3000
 20
22.7916
 30
0.0000
  0
SEQEND
  8
0
  0
POLYLINE
  8
22
 66
1
 10
0.0000
 20
0.0000
 30
0.0000
 40
0.0762
 41
0.0762
 70
0
  0
VERTEX
  8
22
 10
5.2407
 20
22.8107
 30
0.0000
  0
VERTEX
  8
22
 10
5.2407
 20
22.1836
 30
0.0000
  0
SEQEND
  8
0
  0
POLYLINE
  8
22
 66
1
 10
0.0000
 20
0.0000
 30
0.0000
 40
0.0381
 41
0.0381
 70
0
  0
VERTEX
  8
22
 10
5.2216
 20
22.1836
 30
0.0000
 42
1.0000
  0
VERTEX
  8
22
 10
5.2597
 20
22.1836
 30
0.0000
  0
SEQEND
  8
0
  0
POLYLINE
  8
22
 66
1
 10
0.0000
 20
0.0000
 30
0.0000
 40
0.0381
 41
0.0381
 70
0
  0
VERTEX
  8
22
 10
5.2597
 20
22.8107
 30
0.0000
 42
1.0000
  0
VERTEX
  8
22
 10
5.2216
 20
22.8107
 30
0.0000
  0
SEQEND
  8
0
  0
POLYLINE
  8
22
 66
1
 10
0.0000
 20
0.0000
 30
0.0000
 40
0.0762
 41
0.0762
 70
0
  0
VERTEX
  8
22
 10
5.2407
 20
21.8751
 30
0.0000
  0
VERTEX
  8
22
 10
4.3000
 20
21.2481
 30
0.0000
  0
SEQEND
  8
0
  0
POLYLINE
  8
22
 66
1
 10
0.0000
 20
0.0000
 30
0.0000
 40
0.0381
 41
0.0381
 70
0
  0
VERTEX
  8
22
 10
4.2895
 20
21.2639
 30
0.0000
 42
1.0000
  0
VERTEX
  8
22
 10
4.3106
 20
21.2322
 30
0.0000
  0
SEQEND
  8
0
  0
POLYLINE
  8
22
 66
1
 10
0.0000
 20
0.0000
 30
0.0000
 40
0.0381
 41
0.0381
 70
0
  0
VERTEX
  8
22
 10
5.2512
 20
21.8593
 30
0.0000
 42
1.0000
  0
VERTEX
  8
22
 10
5.2301
 20
21.8910
 30
0.0000
  0
SEQEND
  8
0
  0
POLYLINE
  8
21
 66
1
 10
0.0000
 20
0.0000
 30
0.0000
 40
0.0762
 41
0.0762
 70
0
  0
VERTEX
  8
21
 10
4.1137
 20
21.1507
 30
0.0000
  0
VERTEX
  8
21
 10
3.6434
 20
20.5236
 30
0.0000
  0
SEQEND
  8
0
  0
POLYLINE
  8
21
 66
1
 10
0.0000
 20
0.0000
 30
0.0000
 40
0.0381
 41
0.0381
 70
0
  0
VERTEX
  8
21
 10
3.6282
 20
20.5350
 30
0.0000
 42
1.0000
  0
VERTEX
  8
21
 10
3.6586
 20
20.5122
 30
0.0000
  0
SEQEND
  8
0
  0
POLYLINE
  8
21
 66
1
 10
0.0000
 20
0.0000
 30
0.0000
 40
0.0381
 41
0.0381
 70
0
  0
VERTEX
  8
21
 10
4.1289
 20
21.1392
 30
0.0000
 42
1.0000
  0
VERTEX
  8
21
 10
4.0985
 20
21.1621
 30
0.0000
  0
SEQEND
  8
0
  0
POLYLINE
  8
21
 66
1
 10
0.0000
 20
0.0000
 30
0.0000
 40
0.0762
 41
0.0762
 70
0
  0
VERTEX
  8
21
 10
3.6434
 20
20.5236
 30
0.0000
  0
VERTEX
  8
21
 10
3.1731
 20
21.1507
 30
0.0000
  0
SEQEND
  8
0
  0
POLYLINE
  8
21
 66
1
 10
0.0000
 20
0.0000
 30
0.0000
 40
0.0381
 41
0.0381
 70
0
  0
VERTEX
  8
21
 10
3.1883
 20
21.1621
 30
0.0000
 42
1.0000
  0
VERTEX
  8
21
 10
3.1579
 20
21.1392
 30
0.0000
  0
SEQEND
  8
0
  0
POLYLINE
  8
21
 66
1
 10
0.0000
 20
0.0000
 30
0.0000
 40
0.0381
 41
0.0381
 70
0
  0
VERTEX
  8
21
 10
3.6282
 20
20.5122
 30
0.0000
 42
1.0000
  0
VERTEX
  8
21
 10
3.6586
 20
20.5350
 30
0.0000
  0
SEQEND
  8
0
  0
POLYLINE
  8
21
 66
1
 10
0.0000
 20
0.0000
 30
0.0000
 40
0.0762
 41
0.0762
 70
0
  0
VERTEX
  8
21
 10
3.1731
 20
20.2151
 30
0.0000
  0
VERTEX
  8
21
 10
4.1137
 20
20.2151
 30
0.0000
  0
SEQEND
  8
0
  0
POLYLINE
  8
21
 66
1
 10
0.0000
 20
0.0000
 30
0.0000
 40
0.0381
 41
0.0381
 70
0
  0
VERTEX
  8
21
 10
4.1137
 20
20.1961
 30
0.0000
 42
1.0000
  0
VERTEX
  8
21
 10
4.1137
 20
20.2342
 30
0.0000
  0
SEQEND
  8
0
  0
POLYLINE
  8
21
 66
1
 10
0.0000
 20
0.0000
 30
0.0000
 40
0.0381
 41
0.0381
 70
0
  0
VERTEX
  8
21
 10
3.1731
 20
20.2342
 30
0.0000
 42
1.0000
  0
VERTEX
  8
21
 10
3.1731
 20
20.1961
 30
0.0000
  0
SEQEND
  8
0
  0
POLYLINE
  8
21
 66
1
 10
0.0000
 20
0.0000
 30
0.0000
 40
0.0762
 41
0.0762
 70
0
  0
VERTEX
  8
21
 10
4.1137
 20
20.2151
 30
0.0000
  0
VERTEX
  8
21
 10
4.1137
 20
19.7448
 30
0.0000
  0
SEQEND
  8
0
  0
POLYLINE
  8
21
 66
1
 10
0.0000
 20
0.0000
 30
0.0000
 40
0.0381
 41
0.0381
 70
0
  0
VERTEX
  8
21
 10
4.0947
 20
19.7448
 30
0.0000
 42
1.0000
  0
VERTEX
  8
21
 10
4.1328
 20
19.7448
 30
0.0000
  0
SEQEND
  8
0
  0
POLYLINE
  8
21
 66
1
 10
0.0000
 20
0.0000
 30
0.0000
 40
0.0381
 41
0.0381
 70
0
  0
VERTEX
  8
21
 10
4.1328
 20
20.2151
 30
0.0000
 42
1.0000
  0
VERTEX
  8
21
 10
4.0947
 20
20.2151
 30
0.0000
  0
SEQEND
  8
0
  0
POLYLINE
  8
21
 66
1
 10
0.0000
 20
0.0000
 30
0.0000
 40
0.0762
 41
0.0762
 70
0
  0
VERTEX
  8
21
 10
4.1137
 20
19.7448
 30
0.0000
  0
VERTEX
  8
21
 10
3.9569
 20
19.5881
 30
0.0000
  0
SEQEND
  8
0
  0
POLYLINE
  8
21
 66
1
 10
0.0000
 20
0.0000
 30
0.0000
 40
0.0381
 41
0.0381
 70
0
  0
VERTEX
  8
21
 10
3.9435
 20
19.6015
 30
0.0000
 42
1.0000
  0
VERTEX
  8
21
 10
3.9704
 20
19.5746
 30
0.0000
  0
SEQEND
  8
0
  0
POLYLINE
  8
21
 66
1
 10
0.0000
 20
0.0000
 30
0.0000
 40
0.0381
 41
0.0381
 70
0
  0
VERTEX
  8
21
 10
4.1272
 20
19.7314
 30
0.0000
 42
1.0000
  0
VERTEX
  8
21
 10
4.1002
 20
19.7583
 30
0.0000
  0
SEQEND
  8
0
  0
POLYLINE
  8
21
 66
1
 10
0.0000
 20
0.0000
 30
0.0000
 40
0.0762
 41
0.0762
 70
0
  0
VERTEX
  8
21
 10
3.9569
 20
19.5881
 30
0.0000
  0
VERTEX
  8
21
 10
3.6434
 20
19.5881
 30
0.0000
  0
SEQEND
  8
0
  0
POLYLINE
  8
21
 66
1
 10
0.0000
 20
0.0000
 30
0.0000
 40
0.0381
 41
0.0381
 70
0
  0
VERTEX
  8
21
 10
3.6434
 20
19.6071
 30
0.0000
 42
1.0000
  0
VERTEX
  8
21
 10
3.6434
 20
19.5690
 30
0.0000
  0
SEQEND
  8
0
  0
POLYLINE
  8
21
 66
1
 10
0.0000
 20
0.0000
 30
0.0000
 40
0.0381
 41
0.0381
 70
0
  0
VERTEX
  8
21
 10
3.9569
 20
19.5690
 30
0.0000
 42
1.0000
  0
VERTEX
  8
21
 10
3.9569
 20
19.6071
 30
0.0000
  0
SEQEND
  8
0
  0
POLYLINE
  8
21
 66
1
 10
0.0000
 20
0.0000
 30
0.0000
 40
0.0762
 41
0.0762
 70
0
  0
VERTEX
  8
21
 10
3.6434
 20
19.5881
 30
0.0000
  0
VERTEX
  8
21
 10
3.4866
 20
19.7448
 30
0.0000
  0
SEQEND
  8
0
  0
POLYLINE
  8
21
 66
1
 10
0.0000
 20
0.0000
 30
0.0000
 40
0.0381
 41
0.0381
 70
0
  0
VERTEX
  8
21
 10
3.5001
 20
19.7583
 30
0.0000
 42
1.0000
  0
VERTEX
  8
21
 10
3.4732
 20
19.7314
 30
0.0000
  0
SEQEND
  8
0
  0
POLYLINE
  8
21
 66
1
 10
0.0000
 20
0.0000
 30
0.0000
 40
0.0381
 41
0.0381
 70
0
  0
VERTEX
  8
21
 10
3.6299
 20
19.5746
 30
0.0000
 42
1.0000
  0
VERTEX
  8
21
 10
3.6569
 20
19.6015
 30
0.0000
  0
SEQEND
  8
0
  0
POLYLINE
  8
21
 66
1
 10
0.0000
 20
0.0000
 30
0.0000
 40
0.0762
 41
0.0762
 70
0
  0
VERTEX
  8
21
 10
3.4866
 20
19.7448
 30
0.0000
  0
VERTEX
  8
21
 10
3.4866
 20
20.2151
 30
0.0000
  0
SEQEND
  8
0
  0
POLYLINE
  8
21
 66
1
 10
0.0000
 20
0.0000
 30
0.0000
 40
0.0381
 41
0.0381
 70
0
  0
VERTEX
  8
21
 10
3.5057
 20
20.2151
 30
0.0000
 42
1.0000
  0
VERTEX
  8
21
 10
3.4676
 20
20.2151
 30
0.0000
  0
SEQEND
  8
0
  0
POLYLINE
  8
21
 66
1
 10
0.0000
 20
0.0000
 30
0.0000
 40
0.0381
 41
0.0381
 70
0
  0
VERTEX
  8
21
 10
3.4676
 20
19.7448
 30
0.0000
 42
1.0000
  0
VERTEX
  8
21
 10
3.5057
 20
19.7448
 30
0.0000
  0
SEQEND
  8
0
  0
POLYLINE
  8
21
 66
1
 10
0.0000
 20
0.0000
 30
0.0000
 40
0.0762
 41
0.0762
 70
0
  0
VERTEX
  8
21
 10
3.9569
 20
18.6525
 30
0.0000
  0
VERTEX
  8
21
 10
4.1137
 20
18.8093
 30
0.0000
  0
SEQEND
  8
0
  0
POLYLINE
  8
21
 66
1
 10
0.0000
 20
0.0000
 30
0.0000
 40
0.0381
 41
0.0381
 70
0
  0
VERTEX
  8
21
 10
4.1272
 20
18.7958
 30
0.0000
 42
1.0000
  0
VERTEX
  8
21
 10
4.1002
 20
18.8228
 30
0.0000
  0
SEQEND
  8
0
  0
POLYLINE
  8
21
 66
1
 10
0.0000
 20
0.0000
 30
0.0000
 40
0.0381
 41
0.0381
 70
0
  0
VERTEX
  8
21
 10
3.9435
 20
18.6660
 30
0.0000
 42
1.0000
  0
VERTEX
  8
21
 10
3.9704
 20
18.6391
 30
0.0000
  0
SEQEND
  8
0
  0
POLYLINE
  8
21
 66
1
 10
0.0000
 20
0.0000
 30
0.0000
 40
0.0762
 41
0.0762
 70
0
  0
VERTEX
  8
21
 10
4.1137
 20
18.8093
 30
0.0000
  0
VERTEX
  8
21
 10
4.1137
 20
19.1228
 30
0.0000
  0
SEQEND
  8
0
  0
POLYLINE
  8
21
 66
1
 10
0.0000
 20
0.0000
 30
0.0000
 40
0.0381
 41
0.0381
 70
0
  0
VERTEX
  8
21
 10
4.1328
 20
19.1228
 30
0.0000
 42
1.0000
  0
VERTEX
  8
21
 10
4.0947
 20
19.1228
 30
0.0000
  0
SEQEND
  8
0
  0
POLYLINE
  8
21
 66
1
 10
0.0000
 20
0.0000
 30
0.0000
 40
0.0381
 41
0.0381
 70
0
  0
VERTEX
  8
21
 10
4.0947
 20
18.8093
 30
0.0000
 42
1.0000
  0
VERTEX
  8
21
 10
4.1328
 20
18.8093
 30
0.0000
  0
SEQEND
  8
0
  0
POLYLINE
  8
21
 66
1
 10
0.0000
 20
0.0000
 30
0.0000
 40
0.0762
 41
0.0762
 70
0
  0
VERTEX
  8
21
 10
4.1137
 20
19.1228
 30
0.0000
  0
VERTEX
  8
21
 10
3.9569
 20
19.2796
 30
0.0000
  0
SEQEND
  8
0
  0
POLYLINE
  8
21
 66
1
 10
0.0000
 20
0.0000
 30
0.0000
 40
0.0381
 41
0.0381
 70
0
  0
VERTEX
  8
21
 10
3.9704
 20
19.2931
 30
0.0000
 42
1.0000
  0
VERTEX
  8
21
 10
3.9435
 20
19.2661
 30
0.0000
  0
SEQEND
  8
0
  0
POLYLINE
  8
21
 66
1
 10
0.0000
 20
0.0000
 30
0.0000
 40
0.0381
 41
0.0381
 70
0
  0
VERTEX
  8
21
 10
4.1002
 20
19.1094
 30
0.0000
 42
1.0000
  0
VERTEX
  8
21
 10
4.1272
 20
19.1363
 30
0.0000
  0
SEQEND
  8
0
  0
POLYLINE
  8
21
 66
1
 10
0.0000
 20
0.0000
 30
0.0000
 40
0.0762
 41
0.0762
 70
0
  0
VERTEX
  8
21
 10
3.9569
 20
19.2796
 30
0.0000
  0
VERTEX
  8
21
 10
3.3299
 20
19.2796
 30
0.0000
  0
SEQEND
  8
0
  0
POLYLINE
  8
21
 66
1
 10
0.0000
 20
0.0000
 30
0.0000
 40
0.0381
 41
0.0381
 70
0
  0
VERTEX
  8
21
 10
3.3299
 20
19.2987
 30
0.0000
 42
1.0000
  0
VERTEX
  8
21
 10
3.3299
 20
19.2606
 30
0.0000
  0
SEQEND
  8
0
  0
POLYLINE
  8
21
 66
1
 10
0.0000
 20
0.0000
 30
0.0000
 40
0.0381
 41
0.0381
 70
0
  0
VERTEX
  8
21
 10
3.9569
 20
19.2606
 30
0.0000
 42
1.0000
  0
VERTEX
  8
21
 10
3.9569
 20
19.2987
 30
0.0000
  0
SEQEND
  8
0
  0
POLYLINE
  8
21
 66
1
 10
0.0000
 20
0.0000
 30
0.0000
 40
0.0762
 41
0.0762
 70
0
  0
VERTEX
  8
21
 10
3.3299
 20
19.2796
 30
0.0000
  0
VERTEX
  8
21
 10
3.1731
 20
19.1228
 30
0.0000
  0
SEQEND
  8
0
  0
POLYLINE
  8
21
 66
1
 10
0.0000
 20
0.0000
 30
0.0000
 40
0.0381
 41
0.0381
 70
0
  0
VERTEX
  8
21
 10
3.1596
 20
19.1363
 30
0.0000
 42
1.0000
  0
VERTEX
  8
21
 10
3.1866
 20
19.1094
 30
0.0000
  0
SEQEND
  8
0
  0
POLYLINE
  8
21
 66
1
 10
0.0000
 20
0.0000
 30
0.0000
 40
0.0381
 41
0.0381
 70
0
  0
VERTEX
  8
21
 10
3.3433
 20
19.2661
 30
0.0000
 42
1.0000
  0
VERTEX
  8
21
 10
3.3164
 20
19.2931
 30
0.0000
  0
SEQEND
  8
0
  0
POLYLINE
  8
21
 66
1
 10
0.0000
 20
0.0000
 30
0.0000
 40
0.0762
 41
0.0762
 70
0
  0
VERTEX
  8
21
 10
3.1731
 20
19.1228
 30
0.0000
  0
VERTEX
  8
21
 10
3.1731
 20
18.8093
 30
0.0000
  0
SEQEND
  8
0
  0
POLYLINE
  8
21
 66
1
 10
0.0000
 20
0.0000
 30
0.0000
 40
0.0381
 41
0.0381
 70
0
  0
VERTEX
  8
21
 10
3.1541
 20
18.8093
 30
0.0000
 42
1.0000
  0
VERTEX
  8
21
 10
3.1922
 20
18.8093
 30
0.0000
  0
SEQEND
  8
0
  0
POLYLINE
  8
21
 66
1
 10
0.0000
 20
0.0000
 30
0.0000
 40
0.0381
 41
0.0381
 70
0
  0
VERTEX
  8
21
 10
3.1922
 20
19.1228
 30
0.0000
 42
1.0000
  0
VERTEX
  8
21
 10
3.1541
 20
19.1228
 30
0.0000
  0
SEQEND
  8
0
  0
POLYLINE
  8
21
 66
1
 10
0.0000
 20
0.0000
 30
0.0000
 40
0.0762
 41
0.0762
 70
0
  0
VERTEX
  8
21
 10
3.1731
 20
18.8093
 30
0.0000
  0
VERTEX
  8
21
 10
3.3299
 20
18.6525
 30
0.0000
  0
SEQEND
  8
0
  0
POLYLINE
  8
21
 66
1
 10
0.0000
 20
0.0000
 30
0.0000
 40
0.0381
 41
0.0381
 70
0
  0
VERTEX
  8
21
 10
3.3164
 20
18.6391
 30
0.0000
 42
1.0000
  0
VERTEX
  8
21
 10
3.3433
 20
18.6660
 30
0.0000
  0
SEQEND
  8
0
  0
POLYLINE
  8
21
 66
1
 10
0.0000
 20
0.0000
 30
0.0000
 40
0.0381
 41
0.0381
 70
0
  0
VERTEX
  8
21
 10
3.1866
 20
18.8228
 30
0.0000
 42
1.0000
  0
VERTEX
  8
21
 10
3.1596
 20
18.7958
 30
0.0000
  0
SEQEND
  8
0
  0
POLYLINE
  8
21
 66
1
 10
0.0000
 20
0.0000
 30
0.0000
 40
0.0762
 41
0.0762
 70
0
  0
VERTEX
  8
21
 10
3.1731
 20
18.3441
 30
0.0000
  0
VERTEX
  8
21
 10
4.1137
 20
18.3441
 30
0.0000
  0
SEQEND
  8
0
  0
POLYLINE
  8
21
 66
1
 10
0.0000
 20
0.0000
 30
0.0000
 40
0.0381
 41
0.0381
 70
0
  0
VERTEX
  8
21
 10
4.1137
 20
18.3250
 30
0.0000
 42
1.0000
  0
VERTEX
  8
21
 10
4.1137
 20
18.3631
 30
0.0000
  0
SEQEND
  8
0
  0
POLYLINE
  8
21
 66
1
 10
0.0000
 20
0.0000
 30
0.0000
 40
0.0381
 41
0.0381
 70
0
  0
VERTEX
  8
21
 10
3.1731
 20
18.3631
 30
0.0000
 42
1.0000
  0
VERTEX
  8
21
 10
3.1731
 20
18.3250
 30
0.0000
  0
SEQEND
  8
0
  0
POLYLINE
  8
21
 66
1
 10
0.0000
 20
0.0000
 30
0.0000
 40
0.0762
 41
0.0762
 70
0
  0
VERTEX
  8
21
 10
4.1137
 20
18.3441
 30
0.0000
  0
VERTEX
  8
21
 10
4.1137
 20
17.8738
 30
0.0000
  0
SEQEND
  8
0
  0
POLYLINE
  8
21
 66
1
 10
0.0000
 20
0.0000
 30
0.0000
 40
0.0381
 41
0.0381
 70
0
  0
VERTEX
  8
21
 10
4.0947
 20
17.8738
 30
0.0000
 42
1.0000
  0
VERTEX
  8
21
 10
4.1328
 20
17.8738
 30
0.0000
  0
SEQEND
  8
0
  0
POLYLINE
  8
21
 66
1
 10
0.0000
 20
0.0000
 30
0.0000
 40
0.0381
 41
0.0381
 70
0
  0
VERTEX
  8
21
 10
4.1328
 20
18.3441
 30
0.0000
 42
1.0000
  0
VERTEX
  8
21
 10
4.0947
 20
18.3441
 30
0.0000
  0
SEQEND
  8
0
  0
POLYLINE
  8
21
 66
1
 10
0.0000
 20
0.0000
 30
0.0000
 40
0.0762
 41
0.0762
 70
0
  0
VERTEX
  8
21
 10
4.1137
 20
17.8738
 30
0.0000
  0
VERTEX
  8
21
 10
3.9569
 20
17.7170
 30
0.0000
  0
SEQEND
  8
0
  0
POLYLINE
  8
21
 66
1
 10
0.0000
 20
0.0000
 30
0.0000
 40
0.0381
 41
0.0381
 70
0
  0
VERTEX
  8
21
 10
3.9435
 20
17.7305
 30
0.0000
 42
1.0000
  0
VERTEX
  8
21
 10
3.9704
 20
17.7036
 30
0.0000
  0
SEQEND
  8
0
  0
POLYLINE
  8
21
 66
1
 10
0.0000
 20
0.0000
 30
0.0000
 40
0.0381
 41
0.0381
 70
0
  0
VERTEX
  8
21
 10
4.1272
 20
17.8603
 30
0.0000
 42
1.0000
  0
VERTEX
  8
21
 10
4.1002
 20
17.8873
 30
0.0000
  0
SEQEND
  8
0
  0
POLYLINE
  8
21
 66
1
 10
0.0000
 20
0.0000
 30
0.0000
 40
0.0762
 41
0.0762
 70
0
  0
VERTEX
  8
21
 10
3.9569
 20
17.7170
 30
0.0000
  0
VERTEX
  8
21
 10
3.8002
 20
17.7170
 30
0.0000
  0
SEQEND
  8
0
  0
POLYLINE
  8
21
 66
1
 10
0.0000
 20
0.0000
 30
0.0000
 40
0.0381
 41
0.0381
 70
0
  0
VERTEX
  8
21
 10
3.8002
 20
17.7361
 30
0.0000
 42
1.0000
  0
VERTEX
  8
21
 10
3.8002
 20
17.6980
 30
0.0000
  0
SEQEND
  8
0
  0
POLYLINE
  8
21
 66
1
 10
0.0000
 20
0.0000
 30
0.0000
 40
0.0381
 41
0.0381
 70
0
  0
VERTEX
  8
21
 10
3.9569
 20
17.6980
 30
0.0000
 42
1.0000
  0
VERTEX
  8
21
 10
3.9569
 20
17.7361
 30
0.0000
  0
SEQEND
  8
0
  0
POLYLINE
  8
21
 66
1
 10
0.0000
 20
0.0000
 30
0.0000
 40
0.0762
 41
0.0762
 70
0
  0
VERTEX
  8
21
 10
3.8002
 20
17.7170
 30
0.0000
  0
VERTEX
  8
21
 10
3.6434
 20
17.8738
 30
0.0000
  0
SEQEND
  8
0
  0
POLYLINE
  8
21
 66
1
 10
0.0000
 20
0.0000
 30
0.0000
 40
0.0381
 41
0.0381
 70
0
  0
VERTEX
  8
21
 10
3.6569
 20
17.8873
 30
0.0000
 42
1.0000
  0
VERTEX
  8
21
 10
3.6299
 20
17.8603
 30
0.0000
  0
SEQEND
  8
0
  0
POLYLINE
  8
21
 66
1
 10
0.0000
 20
0.0000
 30
0.0000
 40
0.0381
 41
0.0381
 70
0
  0
VERTEX
  8
21
 10
3.7867
 20
17.7036
 30
0.0000
 42
1.0000
  0
VERTEX
  8
21
 10
3.8136
 20
17.7305
 30
0.0000
  0
SEQEND
  8
0
  0
POLYLINE
  8
21
 66
1
 10
0.0000
 20
0.0000
 30
0.0000
 40
0.0762
 41
0.0762
 70
0
  0
VERTEX
  8
21
 10
3.6434
 20
17.8738
 30
0.0000
  0
VERTEX
  8
21
 10
3.4866
 20
17.7170
 30
0.0000
  0
SEQEND
  8
0
  0
POLYLINE
  8
21
 66
1
 10
0.0000
 20
0.0000
 30
0.0000
 40
0.0381
 41
0.0381
 70
0
  0
VERTEX
  8
21
 10
3.4732
 20
17.7305
 30
0.0000
 42
1.0000
  0
VERTEX
  8
21
 10
3.5001
 20
17.7036
 30
0.0000
  0
SEQEND
  8
0
  0
POLYLINE
  8
21
 66
1
 10
0.0000
 20
0.0000
 30
0.0000
 40
0.0381
 41
0.0381
 70
0
  0
VERTEX
  8
21
 10
3.6569
 20
17.8603
 30
0.0000
 42
1.0000
  0
VERTEX
  8
21
 10
3.6299
 20
17.8873
 30
0.0000
  0
SEQEND
  8
0
  0
POLYLINE
  8
21
 66
1
 10
0.0000
 20
0.0000
 30
0.0000
 40
0.0762
 41
0.0762
 70
0
  0
VERTEX
  8
21
 10
3.4866
 20
17.7170
 30
0.0000
  0
VERTEX
  8
21
 10
3.3299
 20
17.7170
 30
0.0000
  0
SEQEND
  8
0
  0
POLYLINE
  8
21
 66
1
 10
0.0000
 20
0.0000
 30
0.0000
 40
0.0381
 41
0.0381
 70
0
  0
VERTEX
  8
21
 10
3.3299
 20
17.7361
 30
0.0000
 42
1.0000
  0
VERTEX
  8
21
 10
3.3299
 20
17.6980
 30
0.0000
  0
SEQEND
  8
0
  0
POLYLINE
  8
21
 66
1
 10
0.0000
 20
0.0000
 30
0.0000
 40
0.0381
 41
0.0381
 70
0
  0
VERTEX
  8
21
 10
3.4866
 20
17.6980
 30
0.0000
 42
1.0000
  0
VERTEX
  8
21
 10
3.4866
 20
17.7361
 30
0.0000
  0
SEQEND
  8
0
  0
POLYLINE
  8
21
 66
1
 10
0.0000
 20
0.0000
 30
0.0000
 40
0.0762
 41
0.0762
 70
0
  0
VERTEX
  8
21
 10
3.3299
 20
17.7170
 30
0.0000
  0
VERTEX
  8
21
 10
3.1731
 20
17.8738
 30
0.0000
  0
SEQEND
  8
0
  0
POLYLINE
  8
21
 66
1
 10
0.0000
 20
0.0000
 30
0.0000
 40
0.0381
 41
0.0381
 70
0
  0
VERTEX
  8
21
 10
3.1866
 20
17.8873
 30
0.0000
 42
1.0000
  0
VERTEX
  8
21
 10
3.1596
 20
17.8603
 30
0.0000
  0
SEQEND
  8
0
  0
POLYLINE
  8
21
 66
1
 10
0.0000
 20
0.0000
 30
0.0000
 40
0.0381
 41
0.0381
 70
0
  0
VERTEX
  8
21
 10
3.3164
 20
17.7036
 30
0.0000
 42
1.0000
  0
VERTEX
  8
21
 10
3.3433
 20
17.7305
 30
0.0000
  0
SEQEND
  8
0
  0
POLYLINE
  8
21
 66
1
 10
0.0000
 20
0.0000
 30
0.0000
 40
0.0762
 41
0.0762
 70
0
  0
VERTEX
  8
21
 10
3.1731
 20
17.8738
 30
0.0000
  0
VERTEX
  8
21
 10
3.1731
 20
18.3441
 30
0.0000
  0
SEQEND
  8
0
  0
POLYLINE
  8
21
 66
1
 10
0.0000
 20
0.0000
 30
0.0000
 40
0.0381
 41
0.0381
 70
0
  0
VERTEX
  8
21
 10
3.1922
 20
18.3441
 30
0.0000
 42
1.0000
  0
VERTEX
  8
21
 10
3.1541
 20
18.3441
 30
0.0000
  0
SEQEND
  8
0
  0
POLYLINE
  8
21
 66
1
 10
0.0000
 20
0.0000
 30
0.0000
 40
0.0381
 41
0.0381
 70
0
  0
VERTEX
  8
21
 10
3.1541
 20
17.8738
 30
0.0000
 42
1.0000
  0
VERTEX
  8
21
 10
3.1922
 20
17.8738
 30
0.0000
  0
SEQEND
  8
0
  0
POLYLINE
  8
21
 66
1
 10
0.0000
 20
0.0000
 30
0.0000
 40
0.0762
 41
0.0762
 70
0
  0
VERTEX
  8
21
 10
3.6434
 20
18.3441
 30
0.0000
  0
VERTEX
  8
21
 10
3.6434
 20
17.8738
 30
0.0000
  0
SEQEND
  8
0
  0
POLYLINE
  8
21
 66
1
 10
0.0000
 20
0.0000
 30
0.0000
 40
0.0381
 41
0.0381
 70
0
  0
VERTEX
  8
21
 10
3.6244
 20
17.8738
 30
0.0000
 42
1.0000
  0
VERTEX
  8
21
 10
3.6625
 20
17.8738
 30
0.0000
  0
SEQEND
  8
0
  0
POLYLINE
  8
21
 66
1
 10
0.0000
 20
0.0000
 30
0.0000
 40
0.0381
 41
0.0381
 70
0
  0
VERTEX
  8
21
 10
3.6625
 20
18.3441
 30
0.0000
 42
1.0000
  0
VERTEX
  8
21
 10
3.6244
 20
18.3441
 30
0.0000
  0
SEQEND
  8
0
  0
POLYLINE
  8
21
 66
1
 10
0.0000
 20
0.0000
 30
0.0000
 40
0.0762
 41
0.0762
 70
0
  0
VERTEX
  8
21
 10
4.1137
 20
17.4086
 30
0.0000
  0
VERTEX
  8
21
 10
3.1731
 20
17.4086
 30
0.0000
  0
SEQEND
  8
0
  0
POLYLINE
  8
21
 66
1
 10
0.0000
 20
0.0000
 30
0.0000
 40
0.0381
 41
0.0381
 70
0
  0
VERTEX
  8
21
 10
3.1731
 20
17.4276
 30
0.0000
 42
1.0000
  0
VERTEX
  8
21
 10
3.1731
 20
17.3895
 30
0.0000
  0
SEQEND
  8
0
  0
POLYLINE
  8
21
 66
1
 10
0.0000
 20
0.0000
 30
0.0000
 40
0.0381
 41
0.0381
 70
0
  0
VERTEX
  8
21
 10
4.1137
 20
17.3895
 30
0.0000
 42
1.0000
  0
VERTEX
  8
21
 10
4.1137
 20
17.4276
 30
0.0000
  0
SEQEND
  8
0
  0
POLYLINE
  8
21
 66
1
 10
0.0000
 20
0.0000
 30
0.0000
 40
0.0762
 41
0.0762
 70
0
  0
VERTEX
  8
21
 10
3.1731
 20
17.4086
 30
0.0000
  0
VERTEX
  8
21
 10
3.1731
 20
16.7815
 30
0.0000
  0
SEQEND
  8
0
  0
POLYLINE
  8
21
 66
1
 10
0.0000
 20
0.0000
 30
0.0000
 40
0.0381
 41
0.0381
 70
0
  0
VERTEX
  8
21
 10
3.1541
 20
16.7815
 30
0.0000
 42
1.0000
  0
VERTEX
  8
21
 10
3.1922
 20
16.7815
 30
0.0000
  0
SEQEND
  8
0
  0
POLYLINE
  8
21
 66
1
 10
0.0000
 20
0.0000
 30
0.0000
 40
0.0381
 41
0.0381
 70
0
  0
VERTEX
  8
21
 10
3.1922
 20
17.4086
 30
0.0000
 42
1.0000
  0
VERTEX
  8
21
 10
3.1541
 20
17.4086
 30
0.0000
  0
SEQEND
  8
0
  0
POLYLINE
  8
21
 66
1
 10
0.0000
 20
0.0000
 30
0.0000
 40
0.0762
 41
0.0762
 70
0
  0
VERTEX
  8
21
 10
3.1731
 20
16.4731
 30
0.0000
  0
VERTEX
  8
21
 10
3.8002
 20
16.4731
 30
0.0000
  0
SEQEND
  8
0
  0
POLYLINE
  8
21
 66
1
 10
0.0000
 20
0.0000
 30
0.0000
 40
0.0381
 41
0.0381
 70
0
  0
VERTEX
  8
21
 10
3.8002
 20
16.4540
 30
0.0000
 42
1.0000
  0
VERTEX
  8
21
 10
3.8002
 20
16.4921
 30
0.0000
  0
SEQEND
  8
0
  0
POLYLINE
  8
21
 66
1
 10
0.0000
 20
0.0000
 30
0.0000
 40
0.0381
 41
0.0381
 70
0
  0
VERTEX
  8
21
 10
3.1731
 20
16.4921
 30
0.0000
 42
1.0000
  0
VERTEX
  8
21
 10
3.1731
 20
16.4540
 30
0.0000
  0
SEQEND
  8
0
  0
POLYLINE
  8
21
 66
1
 10
0.0000
 20
0.0000
 30
0.0000
 40
0.0762
 41
0.0762
 70
0
  0
VERTEX
  8
21
 10
3.8002
 20
16.4731
 30
0.0000
  0
VERTEX
  8
21
 10
4.1137
 20
16.1595
 30
0.0000
  0
SEQEND
  8
0
  0
POLYLINE
  8
21
 66
1
 10
0.0000
 20
0.0000
 30
0.0000
 40
0.0381
 41
0.0381
 70
0
  0
VERTEX
  8
21
 10
4.1002
 20
16.1461
 30
0.0000
 42
1.0000
  0
VERTEX
  8
21
 10
4.1272
 20
16.1730
 30
0.0000
  0
SEQEND
  8
0
  0
POLYLINE
  8
21
 66
1
 10
0.0000
 20
0.0000
 30
0.0000
 40
0.0381
 41
0.0381
 70
0
  0
VERTEX
  8
21
 10
3.8136
 20
16.4865
 30
0.0000
 42
1.0000
  0
VERTEX
  8
21
 10
3.7867
 20
16.4596
 30
0.0000
  0
SEQEND
  8
0
  0
POLYLINE
  8
21
 66
1
 10
0.0000
 20
0.0000
 30
0.0000
 40
0.0762
 41
0.0762
 70
0
  0
VERTEX
  8
21
 10
4.1137
 20
16.1595
 30
0.0000
  0
VERTEX
  8
21
 10
3.8002
 20
15.8460
 30
0.0000
  0
SEQEND
  8
0
  0
POLYLINE
  8
21
 66
1
 10
0.0000
 20
0.0000
 30
0.0000
 40
0.0381
 41
0.0381
 70
0
  0
VERTEX
  8
21
 10
3.7867
 20
15.8595
 30
0.0000
 42
1.0000
  0
VERTEX
  8
21
 10
3.8136
 20
15.8325
 30
0.0000
  0
SEQEND
  8
0
  0
POLYLINE
  8
21
 66
1
 10
0.0000
 20
0.0000
 30
0.0000
 40
0.0381
 41
0.0381
 70
0
  0
VERTEX
  8
21
 10
4.1272
 20
16.1461
 30
0.0000
 42
1.0000
  0
VERTEX
  8
21
 10
4.1002
 20
16.1730
 30
0.0000
  0
SEQEND
  8
0
  0
POLYLINE
  8
21
 66
1
 10
0.0000
 20
0.0000
 30
0.0000
 40
0.0762
 41
0.0762
 70
0
  0
VERTEX
  8
21
 10
3.8002
 20
15.8460
 30
0.0000
  0
VERTEX
  8
21
 10
3.1731
 20
15.8460
 30
0.0000
  0
SEQEND
  8
0
  0
POLYLINE
  8
21
 66
1
 10
0.0000
 20
0.0000
 30
0.0000
 40
0.0381
 41
0.0381
 70
0
  0
VERTEX
  8
21
 10
3.1731
 20
15.8650
 30
0.0000
 42
1.0000
  0
VERTEX
  8
21
 10
3.1731
 20
15.8269
 30
0.0000
  0
SEQEND
  8
0
  0
POLYLINE
  8
21
 66
1
 10
0.0000
 20
0.0000
 30
0.0000
 40
0.0381
 41
0.0381
 70
0
  0
VERTEX
  8
21
 10
3.8002
 20
15.8269
 30
0.0000
 42
1.0000
  0
VERTEX
  8
21
 10
3.8002
 20
15.8650
 30
0.0000
  0
SEQEND
  8
0
  0
POLYLINE
  8
21
 66
1
 10
0.0000
 20
0.0000
 30
0.0000
 40
0.0762
 41
0.0762
 70
0
  0
VERTEX
  8
21
 10
3.6434
 20
16.4731
 30
0.0000
  0
VERTEX
  8
21
 10
3.6434
 20
15.8460
 30
0.0000
  0
SEQEND
  8
0
  0
POLYLINE
  8
21
 66
1
 10
0.0000
 20
0.0000
 30
0.0000
 40
0.0381
 41
0.0381
 70
0
  0
VERTEX
  8
21
 10
3.6244
 20
15.8460
 30
0.0000
 42
1.0000
  0
VERTEX
  8
21
 10
3.6625
 20
15.8460
 30
0.0000
  0
SEQEND
  8
0
  0
POLYLINE
  8
21
 66
1
 10
0.0000
 20
0.0000
 30
0.0000
 40
0.0381
 41
0.0381
 70
0
  0
VERTEX
  8
21
 10
3.6625
 20
16.4731
 30
0.0000
 42
1.0000
  0
VERTEX
  8
21
 10
3.6244
 20
16.4731
 30
0.0000
  0
SEQEND
  8
0
  0
POLYLINE
  8
21
 66
1
 10
0.0000
 20
0.0000
 30
0.0000
 40
0.0762
 41
0.0762
 70
0
  0
VERTEX
  8
21
 10
3.1731
 20
15.5375
 30
0.0000
  0
VERTEX
  8
21
 10
4.1137
 20
15.5375
 30
0.0000
  0
SEQEND
  8
0
  0
POLYLINE
  8
21
 66
1
 10
0.0000
 20
0.0000
 30
0.0000
 40
0.0381
 41
0.0381
 70
0
  0
VERTEX
  8
21
 10
4.1137
 20
15.5185
 30
0.0000
 42
1.0000
  0
VERTEX
  8
21
 10
4.1137
 20
15.5566
 30
0.0000
  0
SEQEND
  8
0
  0
POLYLINE
  8
21
 66
1
 10
0.0000
 20
0.0000
 30
0.0000
 40
0.0381
 41
0.0381
 70
0
  0
VERTEX
  8
21
 10
3.1731
 20
15.5566
 30
0.0000
 42
1.0000
  0
VERTEX
  8
21
 10
3.1731
 20
15.5185
 30
0.0000
  0
SEQEND
  8
0
  0
POLYLINE
  8
21
 66
1
 10
0.0000
 20
0.0000
 30
0.0000
 40
0.0762
 41
0.0762
 70
0
  0
VERTEX
  8
21
 10
4.1137
 20
15.5375
 30
0.0000
  0
VERTEX
  8
21
 10
4.1137
 20
15.0672
 30
0.0000
  0
SEQEND
  8
0
  0
POLYLINE
  8
21
 66
1
 10
0.0000
 20
0.0000
 30
0.0000
 40
0.0381
 41
0.0381
 70
0
  0
VERTEX
  8
21
 10
4.0947
 20
15.0672
 30
0.0000
 42
1.0000
  0
VERTEX
  8
21
 10
4.1328
 20
15.0672
 30
0.0000
  0
SEQEND
  8
0
  0
POLYLINE
  8
21
 66
1
 10
0.0000
 20
0.0000
 30
0.0000
 40
0.0381
 41
0.0381
 70
0
  0
VERTEX
  8
21
 10
4.1328
 20
15.5375
 30
0.0000
 42
1.0000
  0
VERTEX
  8
21
 10
4.0947
 20
15.5375
 30
0.0000
  0
SEQEND
  8
0
  0
POLYLINE
  8
21
 66
1
 10
0.0000
 20
0.0000
 30
0.0000
 40
0.0762
 41
0.0762
 70
0
  0
VERTEX
  8
21
 10
4.1137
 20
15.0672
 30
0.0000
  0
VERTEX
  8
21
 10
3.9569
 20
14.9105
 30
0.0000
  0
SEQEND
  8
0
  0
POLYLINE
  8
21
 66
1
 10
0.0000
 20
0.0000
 30
0.0000
 40
0.0381
 41
0.0381
 70
0
  0
VERTEX
  8
21
 10
3.9435
 20
14.9239
 30
0.0000
 42
1.0000
  0
VERTEX
  8
21
 10
3.9704
 20
14.8970
 30
0.0000
  0
SEQEND
  8
0
  0
POLYLINE
  8
21
 66
1
 10
0.0000
 20
0.0000
 30
0.0000
 40
0.0381
 41
0.0381
 70
0
  0
VERTEX
  8
21
 10
4.1272
 20
15.0538
 30
0.0000
 42
1.0000
  0
VERTEX
  8
21
 10
4.1002
 20
15.0807
 30
0.0000
  0
SEQEND
  8
0
  0
POLYLINE
  8
21
 66
1
 10
0.0000
 20
0.0000
 30
0.0000
 40
0.0762
 41
0.0762
 70
0
  0
VERTEX
  8
21
 10
3.9569
 20
14.9105
 30
0.0000
  0
VERTEX
  8
21
 10
3.8002
 20
14.9105
 30
0.0000
  0
SEQEND
  8
0
  0
POLYLINE
  8
21
 66
1
 10
0.0000
 20
0.0000
 30
0.0000
 40
0.0381
 41
0.0381
 70
0
  0
VERTEX
  8
21
 10
3.8002
 20
14.9295
 30
0.0000
 42
1.0000
  0
VERTEX
  8
21
 10
3.8002
 20
14.8914
 30
0.0000
  0
SEQEND
  8
0
  0
POLYLINE
  8
21
 66
1
 10
0.0000
 20
0.0000
 30
0.0000
 40
0.0381
 41
0.0381
 70
0
  0
VERTEX
  8
21
 10
3.9569
 20
14.8914
 30
0.0000
 42
1.0000
  0
VERTEX
  8
21
 10
3.9569
 20
14.9295
 30
0.0000
  0
SEQEND
  8
0
  0
POLYLINE
  8
21
 66
1
 10
0.0000
 20
0.0000
 30
0.0000
 40
0.0762
 41
0.0762
 70
0
  0
VERTEX
  8
21
 10
3.8002
 20
14.9105
 30
0.0000
  0
VERTEX
  8
21
 10
3.6434
 20
15.0672
 30
0.0000
  0
SEQEND
  8
0
  0
POLYLINE
  8
21
 66
1
 10
0.0000
 20
0.0000
 30
0.0000
 40
0.0381
 41
0.0381
 70
0
  0
VERTEX
  8
21
 10
3.6569
 20
15.0807
 30
0.0000
 42
1.0000
  0
VERTEX
  8
21
 10
3.6299
 20
15.0538
 30
0.0000
  0
SEQEND
  8
0
  0
POLYLINE
  8
21
 66
1
 10
0.0000
 20
0.0000
 30
0.0000
 40
0.0381
 41
0.0381
 70
0
  0
VERTEX
  8
21
 10
3.7867
 20
14.8970
 30
0.0000
 42
1.0000
  0
VERTEX
  8
21
 10
3.8136
 20
14.9239
 30
0.0000
  0
SEQEND
  8
0
  0
POLYLINE
  8
21
 66
1
 10
0.0000
 20
0.0000
 30
0.0000
 40
0.0762
 41
0.0762
 70
0
  0
VERTEX
  8
21
 10
3.6434
 20
15.0672
 30
0.0000
  0
VERTEX
  8
21
 10
3.4866
 20
14.9105
 30
0.0000
  0
SEQEND
  8
0
  0
POLYLINE
  8
21
 66
1
 10
0.0000
 20
0.0000
 30
0.0000
 40
0.0381
 41
0.0381
 70
0
  0
VERTEX
  8
21
 10
3.4732
 20
14.9239
 30
0.0000
 42
1.0000
  0
VERTEX
  8
21
 10
3.5001
 20
14.8970
 30
0.0000
  0
SEQEND
  8
0
  0
POLYLINE
  8
21
 66
1
 10
0.0000
 20
0.0000
 30
0.0000
 40
0.0381
 41
0.0381
 70
0
  0
VERTEX
  8
21
 10
3.6569
 20
15.0538
 30
0.0000
 42
1.0000
  0
VERTEX
  8
21
 10
3.6299
 20
15.0807
 30
0.0000
  0
SEQEND
  8
0
  0
POLYLINE
  8
21
 66
1
 10
0.0000
 20
0.0000
 30
0.0000
 40
0.0762
 41
0.0762
 70
0
  0
VERTEX
  8
21
 10
3.4866
 20
14.9105
 30
0.0000
  0
VERTEX
  8
21
 10
3.3299
 20
14.9105
 30
0.0000
  0
SEQEND
  8
0
  0
POLYLINE
  8
21
 66
1
 10
0.0000
 20
0.0000
 30
0.0000
 40
0.0381
 41
0.0381
 70
0
  0
VERTEX
  8
21
 10
3.3299
 20
14.9295
 30
0.0000
 42
1.0000
  0
VERTEX
  8
21
 10
3.3299
 20
14.8914
 30
0.0000
  0
SEQEND
  8
0
  0
POLYLINE
  8
21
 66
1
 10
0.0000
 20
0.0000
 30
0.0000
 40
0.0381
 41
0.0381
 70
0
  0
VERTEX
  8
21
 10
3.4866
 20
14.8914
 30
0.0000
 42
1.0000
  0
VERTEX
  8
21
 10
3.4866
 20
14.9295
 30
0.0000
  0
SEQEND
  8
0
  0
POLYLINE
  8
21
 66
1
 10
0.0000
 20
0.0000
 30
0.0000
 40
0.0762
 41
0.0762
 70
0
  0
VERTEX
  8
21
 10
3.3299
 20
14.9105
 30
0.0000
  0
VERTEX
  8
21
 10
3.1731
 20
15.0672
 30
0.0000
  0
SEQEND
  8
0
  0
POLYLINE
  8
21
 66
1
 10
0.0000
 20
0.0000
 30
0.0000
 40
0.0381
 41
0.0381
 70
0
  0
VERTEX
  8
21
 10
3.1866
 20
15.0807
 30
0.0000
 42
1.0000
  0
VERTEX
  8
21
 10
3.1596
 20
15.0538
 30
0.0000
  0
SEQEND
  8
0
  0
POLYLINE
  8
21
 66
1
 10
0.0000
 20
0.0000
 30
0.0000
 40
0.0381
 41
0.0381
 70
0
  0
VERTEX
  8
21
 10
3.3164
 20
14.8970
 30
0.0000
 42
1.0000
  0
VERTEX
  8
21
 10
3.3433
 20
14.9239
 30
0.0000
  0
SEQEND
  8
0
  0
POLYLINE
  8
21
 66
1
 10
0.0000
 20
0.0000
 30
0.0000
 40
0.0762
 41
0.0762
 70
0
  0
VERTEX
  8
21
 10
3.1731
 20
15.0672
 30
0.0000
  0
VERTEX
  8
21
 10
3.1731
 20
15.5375
 30
0.0000
  0
SEQEND
  8
0
  0
POLYLINE
  8
21
 66
1
 10
0.0000
 20
0.0000
 30
0.0000
 40
0.0381
 41
0.0381
 70
0
  0
VERTEX
  8
21
 10
3.1922
 20
15.5375
 30
0.0000
 42
1.0000
  0
VERTEX
  8
21
 10
3.1541
 20
15.5375
 30
0.0000
  0
SEQEND
  8
0
  0
POLYLINE
  8
21
 66
1
 10
0.0000
 20
0.0000
 30
0.0000
 40
0.0381
 41
0.0381
 70
0
  0
VERTEX
  8
21
 10
3.1541
 20
15.0672
 30
0.0000
 42
1.0000
  0
VERTEX
  8
21
 10
3.1922
 20
15.0672
 30
0.0000
  0
SEQEND
  8
0
  0
POLYLINE
  8
21
 66
1
 10
0.0000
 20
0.0000
 30
0.0000
 40
0.0762
 41
0.0762
 70
0
  0
VERTEX
  8
21
 10
3.6434
 20
15.5375
 30
0.0000
  0
VERTEX
  8
21
 10
3.6434
 20
15.0672
 30
0.0000
  0
SEQEND
  8
0
  0
POLYLINE
  8
21
 66
1
 10
0.0000
 20
0.0000
 30
0.0000
 40
0.0381
 41
0.0381
 70
0
  0
VERTEX
  8
21
 10
3.6244
 20
15.0672
 30
0.0000
 42
1.0000
  0
VERTEX
  8
21
 10
3.6625
 20
15.0672
 30
0.0000
  0
SEQEND
  8
0
  0
POLYLINE
  8
21
 66
1
 10
0.0000
 20
0.0000
 30
0.0000
 40
0.0381
 41
0.0381
 70
0
  0
VERTEX
  8
21
 10
3.6625
 20
15.5375
 30
0.0000
 42
1.0000
  0
VERTEX
  8
21
 10
3.6244
 20
15.5375
 30
0.0000
  0
SEQEND
  8
0
  0
POLYLINE
  8
21
 66
1
 10
0.0000
 20
0.0000
 30
0.0000
 40
0.0762
 41
0.0762
 70
0
  0
VERTEX
  8
21
 10
4.1137
 20
13.9750
 30
0.0000
  0
VERTEX
  8
21
 10
4.1137
 20
14.6020
 30
0.0000
  0
SEQEND
  8
0
  0
POLYLINE
  8
21
 66
1
 10
0.0000
 20
0.0000
 30
0.0000
 40
0.0381
 41
0.0381
 70
0
  0
VERTEX
  8
21
 10
4.1328
 20
14.6020
 30
0.0000
 42
1.0000
  0
VERTEX
  8
21
 10
4.0947
 20
14.6020
 30
0.0000
  0
SEQEND
  8
0
  0
POLYLINE
  8
21
 66
1
 10
0.0000
 20
0.0000
 30
0.0000
 40
0.0381
 41
0.0381
 70
0
  0
VERTEX
  8
21
 10
4.0947
 20
13.9750
 30
0.0000
 42
1.0000
  0
VERTEX
  8
21
 10
4.1328
 20
13.9750
 30
0.0000
  0
SEQEND
  8
0
  0
POLYLINE
  8
21
 66
1
 10
0.0000
 20
0.0000
 30
0.0000
 40
0.0762
 41
0.0762
 70
0
  0
VERTEX
  8
21
 10
4.1137
 20
14.6020
 30
0.0000
  0
VERTEX
  8
21
 10
3.1731
 20
14.6020
 30
0.0000
  0
SEQEND
  8
0
  0
POLYLINE
  8
21
 66
1
 10
0.0000
 20
0.0000
 30
0.0000
 40
0.0381
 41
0.0381
 70
0
  0
VERTEX
  8
21
 10
3.1731
 20
14.6211
 30
0.0000
 42
1.0000
  0
VERTEX
  8
21
 10
3.1731
 20
14.5830
 30
0.0000
  0
SEQEND
  8
0
  0
POLYLINE
  8
21
 66
1
 10
0.0000
 20
0.0000
 30
0.0000
 40
0.0381
 41
0.0381
 70
0
  0
VERTEX
  8
21
 10
4.1137
 20
14.5830
 30
0.0000
 42
1.0000
  0
VERTEX
  8
21
 10
4.1137
 20
14.6211
 30
0.0000
  0
SEQEND
  8
0
  0
POLYLINE
  8
21
 66
1
 10
0.0000
 20
0.0000
 30
0.0000
 40
0.0762
 41
0.0762
 70
0
  0
VERTEX
  8
21
 10
3.1731
 20
14.6020
 30
0.0000
  0
VERTEX
  8
21
 10
3.1731
 20
13.9750
 30
0.0000
  0
SEQEND
  8
0
  0
POLYLINE
  8
21
 66
1
 10
0.0000
 20
0.0000
 30
0.0000
 40
0.0381
 41
0.0381
 70
0
  0
VERTEX
  8
21
 10
3.1541
 20
13.9750
 30
0.0000
 42
1.0000
  0
VERTEX
  8
21
 10
3.1922
 20
13.9750
 30
0.0000
  0
SEQEND
  8
0
  0
POLYLINE
  8
21
 66
1
 10
0.0000
 20
0.0000
 30
0.0000
 40
0.0381
 41
0.0381
 70
0
  0
VERTEX
  8
21
 10
3.1922
 20
14.6020
 30
0.0000
 42
1.0000
  0
VERTEX
  8
21
 10
3.1541
 20
14.6020
 30
0.0000
  0
SEQEND
  8
0
  0
POLYLINE
  8
21
 66
1
 10
0.0000
 20
0.0000
 30
0.0000
 40
0.0762
 41
0.0762
 70
0
  0
VERTEX
  8
21
 10
3.6434
 20
14.6020
 30
0.0000
  0
VERTEX
  8
21
 10
3.6434
 20
14.2885
 30
0.0000
  0
SEQEND
  8
0
  0
POLYLINE
  8
21
 66
1
 10
0.0000
 20
0.0000
 30
0.0000
 40
0.0381
 41
0.0381
 70
0
  0
VERTEX
  8
21
 10
3.6244
 20
14.2885
 30
0.0000
 42
1.0000
  0
VERTEX
  8
21
 10
3.6625
 20
14.2885
 30
0.0000
  0
SEQEND
  8
0
  0
POLYLINE
  8
21
 66
1
 10
0.0000
 20
0.0000
 30
0.0000
 40
0.0381
 41
0.0381
 70
0
  0
VERTEX
  8
21
 10
3.6625
 20
14.6020
 30
0.0000
 42
1.0000
  0
VERTEX
  8
21
 10
3.6244
 20
14.6020
 30
0.0000
  0
SEQEND
  8
0
  0
POLYLINE
  8
21
 66
1
 10
0.0000
 20
0.0000
 30
0.0000
 40
0.0762
 41
0.0762
 70
0
  0
VERTEX
  8
21
 10
4.1137
 20
13.6665
 30
0.0000
  0
VERTEX
  8
21
 10
3.1731
 20
13.6665
 30
0.0000
  0
SEQEND
  8
0
  0
POLYLINE
  8
21
 66
1
 10
0.0000
 20
0.0000
 30
0.0000
 40
0.0381
 41
0.0381
 70
0
  0
VERTEX
  8
21
 10
3.1731
 20
13.6856
 30
0.0000
 42
1.0000
  0
VERTEX
  8
21
 10
3.1731
 20
13.6475
 30
0.0000
  0
SEQEND
  8
0
  0
POLYLINE
  8
21
 66
1
 10
0.0000
 20
0.0000
 30
0.0000
 40
0.0381
 41
0.0381
 70
0
  0
VERTEX
  8
21
 10
4.1137
 20
13.6475
 30
0.0000
 42
1.0000
  0
VERTEX
  8
21
 10
4.1137
 20
13.6856
 30
0.0000
  0
SEQEND
  8
0
  0
POLYLINE
  8
21
 66
1
 10
0.0000
 20
0.0000
 30
0.0000
 40
0.0762
 41
0.0762
 70
0
  0
VERTEX
  8
21
 10
3.1731
 20
13.6665
 30
0.0000
  0
VERTEX
  8
21
 10
3.1731
 20
13.0394
 30
0.0000
  0
SEQEND
  8
0
  0
POLYLINE
  8
21
 66
1
 10
0.0000
 20
0.0000
 30
0.0000
 40
0.0381
 41
0.0381
 70
0
  0
VERTEX
  8
21
 10
3.1541
 20
13.0394
 30
0.0000
 42
1.0000
  0
VERTEX
  8
21
 10
3.1922
 20
13.0394
 30
0.0000
  0
SEQEND
  8
0
  0
POLYLINE
  8
21
 66
1
 10
0.0000
 20
0.0000
 30
0.0000
 40
0.0381
 41
0.0381
 70
0
  0
VERTEX
  8
21
 10
3.1922
 20
13.6665
 30
0.0000
 42
1.0000
  0
VERTEX
  8
21
 10
3.1541
 20
13.6665
 30
0.0000
  0
SEQEND
  8
0
  0
POLYLINE
  8
22
 66
1
 10
0.0000
 20
0.0000
 30
0.0000
 40
0.0762
 41
0.0762
 70
0
  0
VERTEX
  8
22
 10
4.2688
 20
21.1357
 30
0.0000
  0
VERTEX
  8
22
 10
4.7391
 20
20.5086
 30
0.0000
  0
SEQEND
  8
0
  0
POLYLINE
  8
22
 66
1
 10
0.0000
 20
0.0000
 30
0.0000
 40
0.0381
 41
0.0381
 70
0
  0
VERTEX
  8
22
 10
4.7239
 20
20.4972
 30
0.0000
 42
1.0000
  0
VERTEX
  8
22
 10
4.7543
 20
20.5200
 30
0.0000
  0
SEQEND
  8
0
  0
POLYLINE
  8
22
 66
1
 10
0.0000
 20
0.0000
 30
0.0000
 40
0.0381
 41
0.0381
 70
0
  0
VERTEX
  8
22
 10
4.2840
 20
21.1471
 30
0.0000
 42
1.0000
  0
VERTEX
  8
22
 10
4.2536
 20
21.1242
 30
0.0000
  0
SEQEND
  8
0
  0
POLYLINE
  8
22
 66
1
 10
0.0000
 20
0.0000
 30
0.0000
 40
0.0762
 41
0.0762
 70
0
  0
VERTEX
  8
22
 10
4.7391
 20
20.5086
 30
0.0000
  0
VERTEX
  8
22
 10
5.2094
 20
21.1357
 30
0.0000
  0
SEQEND
  8
0
  0
POLYLINE
  8
22
 66
1
 10
0.0000
 20
0.0000
 30
0.0000
 40
0.0381
 41
0.0381
 70
0
  0
VERTEX
  8
22
 10
5.2246
 20
21.1242
 30
0.0000
 42
1.0000
  0
VERTEX
  8
22
 10
5.1942
 20
21.1471
 30
0.0000
  0
SEQEND
  8
0
  0
POLYLINE
  8
22
 66
1
 10
0.0000
 20
0.0000
 30
0.0000
 40
0.0381
 41
0.0381
 70
0
  0
VERTEX
  8
22
 10
4.7239
 20
20.5200
 30
0.0000
 42
1.0000
  0
VERTEX
  8
22
 10
4.7543
 20
20.4972
 30
0.0000
  0
SEQEND
  8
0
  0
POLYLINE
  8
22
 66
1
 10
0.0000
 20
0.0000
 30
0.0000
 40
0.0762
 41
0.0762
 70
0
  0
VERTEX
  8
22
 10
5.2094
 20
20.2001
 30
0.0000
  0
VERTEX
  8
22
 10
4.2688
 20
20.2001
 30
0.0000
  0
SEQEND
  8
0
  0
POLYLINE
  8
22
 66
1
 10
0.0000
 20
0.0000
 30
0.0000
 40
0.0381
 41
0.0381
 70
0
  0
VERTEX
  8
22
 10
4.2688
 20
20.2192
 30
0.0000
 42
1.0000
  0
VERTEX
  8
22
 10
4.2688
 20
20.1811
 30
0.0000
  0
SEQEND
  8
0
  0
POLYLINE
  8
22
 66
1
 10
0.0000
 20
0.0000
 30
0.0000
 40
0.0381
 41
0.0381
 70
0
  0
VERTEX
  8
22
 10
5.2094
 20
20.1811
 30
0.0000
 42
1.0000
  0
VERTEX
  8
22
 10
5.2094
 20
20.2192
 30
0.0000
  0
SEQEND
  8
0
  0
POLYLINE
  8
22
 66
1
 10
0.0000
 20
0.0000
 30
0.0000
 40
0.0762
 41
0.0762
 70
0
  0
VERTEX
  8
22
 10
4.2688
 20
20.2001
 30
0.0000
  0
VERTEX
  8
22
 10
4.2688
 20
19.7298
 30
0.0000
  0
SEQEND
  8
0
  0
POLYLINE
  8
22
 66
1
 10
0.0000
 20
0.0000
 30
0.0000
 40
0.0381
 41
0.0381
 70
0
  0
VERTEX
  8
22
 10
4.2497
 20
19.7298
 30
0.0000
 42
1.0000
  0
VERTEX
  8
22
 10
4.2878
 20
19.7298
 30
0.0000
  0
SEQEND
  8
0
  0
POLYLINE
  8
22
 66
1
 10
0.0000
 20
0.0000
 30
0.0000
 40
0.0381
 41
0.0381
 70
0
  0
VERTEX
  8
22
 10
4.2878
 20
20.2001
 30
0.0000
 42
1.0000
  0
VERTEX
  8
22
 10
4.2497
 20
20.2001
 30
0.0000
  0
SEQEND
  8
0
  0
POLYLINE
  8
22
 66
1
 10
0.0000
 20
0.0000
 30
0.0000
 40
0.0762
 41
0.0762
 70
0
  0
VERTEX
  8
22
 10
4.2688
 20
19.7298
 30
0.0000
  0
VERTEX
  8
22
 10
4.4256
 20
19.5731
 30
0.0000
  0
SEQEND
  8
0
  0
POLYLINE
  8
22
 66
1
 10
0.0000
 20
0.0000
 30
0.0000
 40
0.0381
 41
0.0381
 70
0
  0
VERTEX
  8
22
 10
4.4121
 20
19.5596
 30
0.0000
 42
1.0000
  0
VERTEX
  8
22
 10
4.4390
 20
19.5865
 30
0.0000
  0
SEQEND
  8
0
  0
POLYLINE
  8
22
 66
1
 10
0.0000
 20
0.0000
 30
0.0000
 40
0.0381
 41
0.0381
 70
0
  0
VERTEX
  8
22
 10
4.2823
 20
19.7433
 30
0.0000
 42
1.0000
  0
VERTEX
  8
22
 10
4.2553
 20
19.7164
 30
0.0000
  0
SEQEND
  8
0
  0
POLYLINE
  8
22
 66
1
 10
0.0000
 20
0.0000
 30
0.0000
 40
0.0762
 41
0.0762
 70
0
  0
VERTEX
  8
22
 10
4.4256
 20
19.5731
 30
0.0000
  0
VERTEX
  8
22
 10
4.7391
 20
19.5731
 30
0.0000
  0
SEQEND
  8
0
  0
POLYLINE
  8
22
 66
1
 10
0.0000
 20
0.0000
 30
0.0000
 40
0.0381
 41
0.0381
 70
0
  0
VERTEX
  8
22
 10
4.7391
 20
19.5540
 30
0.0000
 42
1.0000
  0
VERTEX
  8
22
 10
4.7391
 20
19.5921
 30
0.0000
  0
SEQEND
  8
0
  0
POLYLINE
  8
22
 66
1
 10
0.0000
 20
0.0000
 30
0.0000
 40
0.0381
 41
0.0381
 70
0
  0
VERTEX
  8
22
 10
4.4256
 20
19.5921
 30
0.0000
 42
1.0000
  0
VERTEX
  8
22
 10
4.4256
 20
19.5540
 30
0.0000
  0
SEQEND
  8
0
  0
POLYLINE
  8
22
 66
1
 10
0.0000
 20
0.0000
 30
0.0000
 40
0.0762
 41
0.0762
 70
0
  0
VERTEX
  8
22
 10
4.7391
 20
19.5731
 30
0.0000
  0
VERTEX
  8
22
 10
4.8959
 20
19.7298
 30
0.0000
  0
SEQEND
  8
0
  0
POLYLINE
  8
22
 66
1
 10
0.0000
 20
0.0000
 30
0.0000
 40
0.0381
 41
0.0381
 70
0
  0
VERTEX
  8
22
 10
4.9093
 20
19.7164
 30
0.0000
 42
1.0000
  0
VERTEX
  8
22
 10
4.8824
 20
19.7433
 30
0.0000
  0
SEQEND
  8
0
  0
POLYLINE
  8
22
 66
1
 10
0.0000
 20
0.0000
 30
0.0000
 40
0.0381
 41
0.0381
 70
0
  0
VERTEX
  8
22
 10
4.7256
 20
19.5865
 30
0.0000
 42
1.0000
  0
VERTEX
  8
22
 10
4.7526
 20
19.5596
 30
0.0000
  0
SEQEND
  8
0
  0
POLYLINE
  8
22
 66
1
 10
0.0000
 20
0.0000
 30
0.0000
 40
0.0762
 41
0.0762
 70
0
  0
VERTEX
  8
22
 10
4.8959
 20
19.7298
 30
0.0000
  0
VERTEX
  8
22
 10
4.8959
 20
20.2001
 30
0.0000
  0
SEQEND
  8
0
  0
POLYLINE
  8
22
 66
1
 10
0.0000
 20
0.0000
 30
0.0000
 40
0.0381
 41
0.0381
 70
0
  0
VERTEX
  8
22
 10
4.9149
 20
20.2001
 30
0.0000
 42
1.0000
  0
VERTEX
  8
22
 10
4.8768
 20
20.2001
 30
0.0000
  0
SEQEND
  8
0
  0
POLYLINE
  8
22
 66
1
 10
0.0000
 20
0.0000
 30
0.0000
 40
0.0381
 41
0.0381
 70
0
  0
VERTEX
  8
22
 10
4.8768
 20
19.7298
 30
0.0000
 42
1.0000
  0
VERTEX
  8
22
 10
4.9149
 20
19.7298
 30
0.0000
  0
SEQEND
  8
0
  0
POLYLINE
  8
22
 66
1
 10
0.0000
 20
0.0000
 30
0.0000
 40
0.0762
 41
0.0762
 70
0
  0
VERTEX
  8
22
 10
4.4256
 20
18.6375
 30
0.0000
  0
VERTEX
  8
22
 10
4.2688
 20
18.7943
 30
0.0000
  0
SEQEND
  8
0
  0
POLYLINE
  8
22
 66
1
 10
0.0000
 20
0.0000
 30
0.0000
 40
0.0381
 41
0.0381
 70
0
  0
VERTEX
  8
22
 10
4.2823
 20
18.8078
 30
0.0000
 42
1.0000
  0
VERTEX
  8
22
 10
4.2553
 20
18.7808
 30
0.0000
  0
SEQEND
  8
0
  0
POLYLINE
  8
22
 66
1
 10
0.0000
 20
0.0000
 30
0.0000
 40
0.0381
 41
0.0381
 70
0
  0
VERTEX
  8
22
 10
4.4121
 20
18.6241
 30
0.0000
 42
1.0000
  0
VERTEX
  8
22
 10
4.4390
 20
18.6510
 30
0.0000
  0
SEQEND
  8
0
  0
POLYLINE
  8
22
 66
1
 10
0.0000
 20
0.0000
 30
0.0000
 40
0.0762
 41
0.0762
 70
0
  0
VERTEX
  8
22
 10
4.2688
 20
18.7943
 30
0.0000
  0
VERTEX
  8
22
 10
4.2688
 20
19.1078
 30
0.0000
  0
SEQEND
  8
0
  0
POLYLINE
  8
22
 66
1
 10
0.0000
 20
0.0000
 30
0.0000
 40
0.0381
 41
0.0381
 70
0
  0
VERTEX
  8
22
 10
4.2878
 20
19.1078
 30
0.0000
 42
1.0000
  0
VERTEX
  8
22
 10
4.2497
 20
19.1078
 30
0.0000
  0
SEQEND
  8
0
  0
POLYLINE
  8
22
 66
1
 10
0.0000
 20
0.0000
 30
0.0000
 40
0.0381
 41
0.0381
 70
0
  0
VERTEX
  8
22
 10
4.2497
 20
18.7943
 30
0.0000
 42
1.0000
  0
VERTEX
  8
22
 10
4.2878
 20
18.7943
 30
0.0000
  0
SEQEND
  8
0
  0
POLYLINE
  8
22
 66
1
 10
0.0000
 20
0.0000
 30
0.0000
 40
0.0762
 41
0.0762
 70
0
  0
VERTEX
  8
22
 10
4.2688
 20
19.1078
 30
0.0000
  0
VERTEX
  8
22
 10
4.4256
 20
19.2646
 30
0.0000
  0
SEQEND
  8
0
  0
POLYLINE
  8
22
 66
1
 10
0.0000
 20
0.0000
 30
0.0000
 40
0.0381
 41
0.0381
 70
0
  0
VERTEX
  8
22
 10
4.4390
 20
19.2511
 30
0.0000
 42
1.0000
  0
VERTEX
  8
22
 10
4.4121
 20
19.2781
 30
0.0000
  0
SEQEND
  8
0
  0
POLYLINE
  8
22
 66
1
 10
0.0000
 20
0.0000
 30
0.0000
 40
0.0381
 41
0.0381
 70
0
  0
VERTEX
  8
22
 10
4.2553
 20
19.1213
 30
0.0000
 42
1.0000
  0
VERTEX
  8
22
 10
4.2823
 20
19.0944
 30
0.0000
  0
SEQEND
  8
0
  0
POLYLINE
  8
22
 66
1
 10
0.0000
 20
0.0000
 30
0.0000
 40
0.0762
 41
0.0762
 70
0
  0
VERTEX
  8
22
 10
4.4256
 20
19.2646
 30
0.0000
  0
VERTEX
  8
22
 10
5.0526
 20
19.2646
 30
0.0000
  0
SEQEND
  8
0
  0
POLYLINE
  8
22
 66
1
 10
0.0000
 20
0.0000
 30
0.0000
 40
0.0381
 41
0.0381
 70
0
  0
VERTEX
  8
22
 10
5.0526
 20
19.2456
 30
0.0000
 42
1.0000
  0
VERTEX
  8
22
 10
5.0526
 20
19.2837
 30
0.0000
  0
SEQEND
  8
0
  0
POLYLINE
  8
22
 66
1
 10
0.0000
 20
0.0000
 30
0.0000
 40
0.0381
 41
0.0381
 70
0
  0
VERTEX
  8
22
 10
4.4256
 20
19.2837
 30
0.0000
 42
1.0000
  0
VERTEX
  8
22
 10
4.4256
 20
19.2456
 30
0.0000
  0
SEQEND
  8
0
  0
POLYLINE
  8
22
 66
1
 10
0.0000
 20
0.0000
 30
0.0000
 40
0.0762
 41
0.0762
 70
0
  0
VERTEX
  8
22
 10
5.0526
 20
19.2646
 30
0.0000
  0
VERTEX
  8
22
 10
5.2094
 20
19.1078
 30
0.0000
  0
SEQEND
  8
0
  0
POLYLINE
  8
22
 66
1
 10
0.0000
 20
0.0000
 30
0.0000
 40
0.0381
 41
0.0381
 70
0
  0
VERTEX
  8
22
 10
5.1959
 20
19.0944
 30
0.0000
 42
1.0000
  0
VERTEX
  8
22
 10
5.2229
 20
19.1213
 30
0.0000
  0
SEQEND
  8
0
  0
POLYLINE
  8
22
 66
1
 10
0.0000
 20
0.0000
 30
0.0000
 40
0.0381
 41
0.0381
 70
0
  0
VERTEX
  8
22
 10
5.0661
 20
19.2781
 30
0.0000
 42
1.0000
  0
VERTEX
  8
22
 10
5.0392
 20
19.2511
 30
0.0000
  0
SEQEND
  8
0
  0
POLYLINE
  8
22
 66
1
 10
0.0000
 20
0.0000
 30
0.0000
 40
0.0762
 41
0.0762
 70
0
  0
VERTEX
  8
22
 10
5.2094
 20
19.1078
 30
0.0000
  0
VERTEX
  8
22
 10
5.2094
 20
18.7943
 30
0.0000
  0
SEQEND
  8
0
  0
POLYLINE
  8
22
 66
1
 10
0.0000
 20
0.0000
 30
0.0000
 40
0.0381
 41
0.0381
 70
0
  0
VERTEX
  8
22
 10
5.1904
 20
18.7943
 30
0.0000
 42
1.0000
  0
VERTEX
  8
22
 10
5.2285
 20
18.7943
 30
0.0000
  0
SEQEND
  8
0
  0
POLYLINE
  8
22
 66
1
 10
0.0000
 20
0.0000
 30
0.0000
 40
0.0381
 41
0.0381
 70
0
  0
VERTEX
  8
22
 10
5.2285
 20
19.1078
 30
0.0000
 42
1.0000
  0
VERTEX
  8
22
 10
5.1904
 20
19.1078
 30
0.0000
  0
SEQEND
  8
0
  0
POLYLINE
  8
22
 66
1
 10
0.0000
 20
0.0000
 30
0.0000
 40
0.0762
 41
0.0762
 70
0
  0
VERTEX
  8
22
 10
5.2094
 20
18.7943
 30
0.0000
  0
VERTEX
  8
22
 10
5.0526
 20
18.6375
 30
0.0000
  0
SEQEND
  8
0
  0
POLYLINE
  8
22
 66
1
 10
0.0000
 20
0.0000
 30
0.0000
 40
0.0381
 41
0.0381
 70
0
  0
VERTEX
  8
22
 10
5.0392
 20
18.6510
 30
0.0000
 42
1.0000
  0
VERTEX
  8
22
 10
5.0661
 20
18.6241
 30
0.0000
  0
SEQEND
  8
0
  0
POLYLINE
  8
22
 66
1
 10
0.0000
 20
0.0000
 30
0.0000
 40
0.0381
 41
0.0381
 70
0
  0
VERTEX
  8
22
 10
5.2229
 20
18.7808
 30
0.0000
 42
1.0000
  0
VERTEX
  8
22
 10
5.1959
 20
18.8078
 30
0.0000
  0
SEQEND
  8
0
  0
POLYLINE
  8
22
 66
1
 10
0.0000
 20
0.0000
 30
0.0000
 40
0.0762
 41
0.0762
 70
0
  0
VERTEX
  8
22
 10
5.2094
 20
18.3291
 30
0.0000
  0
VERTEX
  8
22
 10
4.2688
 20
18.3291
 30
0.0000
  0
SEQEND
  8
0
  0
POLYLINE
  8
22
 66
1
 10
0.0000
 20
0.0000
 30
0.0000
 40
0.0381
 41
0.0381
 70
0
  0
VERTEX
  8
22
 10
4.2688
 20
18.3481
 30
0.0000
 42
1.0000
  0
VERTEX
  8
22
 10
4.2688
 20
18.3100
 30
0.0000
  0
SEQEND
  8
0
  0
POLYLINE
  8
22
 66
1
 10
0.0000
 20
0.0000
 30
0.0000
 40
0.0381
 41
0.0381
 70
0
  0
VERTEX
  8
22
 10
5.2094
 20
18.3100
 30
0.0000
 42
1.0000
  0
VERTEX
  8
22
 10
5.2094
 20
18.3481
 30
0.0000
  0
SEQEND
  8
0
  0
POLYLINE
  8
22
 66
1
 10
0.0000
 20
0.0000
 30
0.0000
 40
0.0762
 41
0.0762
 70
0
  0
VERTEX
  8
22
 10
4.2688
 20
18.3291
 30
0.0000
  0
VERTEX
  8
22
 10
4.2688
 20
17.8588
 30
0.0000
  0
SEQEND
  8
0
  0
POLYLINE
  8
22
 66
1
 10
0.0000
 20
0.0000
 30
0.0000
 40
0.0381
 41
0.0381
 70
0
  0
VERTEX
  8
22
 10
4.2497
 20
17.8588
 30
0.0000
 42
1.0000
  0
VERTEX
  8
22
 10
4.2878
 20
17.8588
 30
0.0000
  0
SEQEND
  8
0
  0
POLYLINE
  8
22
 66
1
 10
0.0000
 20
0.0000
 30
0.0000
 40
0.0381
 41
0.0381
 70
0
  0
VERTEX
  8
22
 10
4.2878
 20
18.3291
 30
0.0000
 42
1.0000
  0
VERTEX
  8
22
 10
4.2497
 20
18.3291
 30
0.0000
  0
SEQEND
  8
0
  0
POLYLINE
  8
22
 66
1
 10
0.0000
 20
0.0000
 30
0.0000
 40
0.0762
 41
0.0762
 70
0
  0
VERTEX
  8
22
 10
4.2688
 20
17.8588
 30
0.0000
  0
VERTEX
  8
22
 10
4.4256
 20
17.7020
 30
0.0000
  0
SEQEND
  8
0
  0
POLYLINE
  8
22
 66
1
 10
0.0000
 20
0.0000
 30
0.0000
 40
0.0381
 41
0.0381
 70
0
  0
VERTEX
  8
22
 10
4.4121
 20
17.6886
 30
0.0000
 42
1.0000
  0
VERTEX
  8
22
 10
4.4390
 20
17.7155
 30
0.0000
  0
SEQEND
  8
0
  0
POLYLINE
  8
22
 66
1
 10
0.0000
 20
0.0000
 30
0.0000
 40
0.0381
 41
0.0381
 70
0
  0
VERTEX
  8
22
 10
4.2823
 20
17.8723
 30
0.0000
 42
1.0000
  0
VERTEX
  8
22
 10
4.2553
 20
17.8453
 30
0.0000
  0
SEQEND
  8
0
  0
POLYLINE
  8
22
 66
1
 10
0.0000
 20
0.0000
 30
0.0000
 40
0.0762
 41
0.0762
 70
0
  0
VERTEX
  8
22
 10
4.4256
 20
17.7020
 30
0.0000
  0
VERTEX
  8
22
 10
4.5823
 20
17.7020
 30
0.0000
  0
SEQEND
  8
0
  0
POLYLINE
  8
22
 66
1
 10
0.0000
 20
0.0000
 30
0.0000
 40
0.0381
 41
0.0381
 70
0
  0
VERTEX
  8
22
 10
4.5823
 20
17.6830
 30
0.0000
 42
1.0000
  0
VERTEX
  8
22
 10
4.5823
 20
17.7211
 30
0.0000
  0
SEQEND
  8
0
  0
POLYLINE
  8
22
 66
1
 10
0.0000
 20
0.0000
 30
0.0000
 40
0.0381
 41
0.0381
 70
0
  0
VERTEX
  8
22
 10
4.4256
 20
17.7211
 30
0.0000
 42
1.0000
  0
VERTEX
  8
22
 10
4.4256
 20
17.6830
 30
0.0000
  0
SEQEND
  8
0
  0
POLYLINE
  8
22
 66
1
 10
0.0000
 20
0.0000
 30
0.0000
 40
0.0762
 41
0.0762
 70
0
  0
VERTEX
  8
22
 10
4.5823
 20
17.7020
 30
0.0000
  0
VERTEX
  8
22
 10
4.7391
 20
17.8588
 30
0.0000
  0
SEQEND
  8
0
  0
POLYLINE
  8
22
 66
1
 10
0.0000
 20
0.0000
 30
0.0000
 40
0.0381
 41
0.0381
 70
0
  0
VERTEX
  8
22
 10
4.7526
 20
17.8453
 30
0.0000
 42
1.0000
  0
VERTEX
  8
22
 10
4.7256
 20
17.8723
 30
0.0000
  0
SEQEND
  8
0
  0
POLYLINE
  8
22
 66
1
 10
0.0000
 20
0.0000
 30
0.0000
 40
0.0381
 41
0.0381
 70
0
  0
VERTEX
  8
22
 10
4.5689
 20
17.7155
 30
0.0000
 42
1.0000
  0
VERTEX
  8
22
 10
4.5958
 20
17.6886
 30
0.0000
  0
SEQEND
  8
0
  0
POLYLINE
  8
22
 66
1
 10
0.0000
 20
0.0000
 30
0.0000
 40
0.0762
 41
0.0762
 70
0
  0
VERTEX
  8
22
 10
4.7391
 20
17.8588
 30
0.0000
  0
VERTEX
  8
22
 10
4.8959
 20
17.7020
 30
0.0000
  0
SEQEND
  8
0
  0
POLYLINE
  8
22
 66
1
 10
0.0000
 20
0.0000
 30
0.0000
 40
0.0381
 41
0.0381
 70
0
  0
VERTEX
  8
22
 10
4.8824
 20
17.6886
 30
0.0000
 42
1.0000
  0
VERTEX
  8
22
 10
4.9093
 20
17.7155
 30
0.0000
  0
SEQEND
  8
0
  0
POLYLINE
  8
22
 66
1
 10
0.0000
 20
0.0000
 30
0.0000
 40
0.0381
 41
0.0381
 70
0
  0
VERTEX
  8
22
 10
4.7526
 20
17.8723
 30
0.0000
 42
1.0000
  0
VERTEX
  8
22
 10
4.7256
 20
17.8453
 30
0.0000
  0
SEQEND
  8
0
  0
POLYLINE
  8
22
 66
1
 10
0.0000
 20
0.0000
 30
0.0000
 40
0.0762
 41
0.0762
 70
0
  0
VERTEX
  8
22
 10
4.8959
 20
17.7020
 30
0.0000
  0
VERTEX
  8
22
 10
5.0526
 20
17.7020
 30
0.0000
  0
SEQEND
  8
0
  0
POLYLINE
  8
22
 66
1
 10
0.0000
 20
0.0000
 30
0.0000
 40
0.0381
 41
0.0381
 70
0
  0
VERTEX
  8
22
 10
5.0526
 20
17.6830
 30
0.0000
 42
1.0000
  0
VERTEX
  8
22
 10
5.0526
 20
17.7211
 30
0.0000
  0
SEQEND
  8
0
  0
POLYLINE
  8
22
 66
1
 10
0.0000
 20
0.0000
 30
0.0000
 40
0.0381
 41
0.0381
 70
0
  0
VERTEX
  8
22
 10
4.8959
 20
17.7211
 30
0.0000
 42
1.0000
  0
VERTEX
  8
22
 10
4.8959
 20
17.6830
 30
0.0000
  0
SEQEND
  8
0
  0
POLYLINE
  8
22
 66
1
 10
0.0000
 20
0.0000
 30
0.0000
 40
0.0762
 41
0.0762
 70
0
  0
VERTEX
  8
22
 10
5.0526
 20
17.7020
 30
0.0000
  0
VERTEX
  8
22
 10
5.2094
 20
17.8588
 30
0.0000
  0
SEQEND
  8
0
  0
POLYLINE
  8
22
 66
1
 10
0.0000
 20
0.0000
 30
0.0000
 40
0.0381
 41
0.0381
 70
0
  0
VERTEX
  8
22
 10
5.2229
 20
17.8453
 30
0.0000
 42
1.0000
  0
VERTEX
  8
22
 10
5.1959
 20
17.8723
 30
0.0000
  0
SEQEND
  8
0
  0
POLYLINE
  8
22
 66
1
 10
0.0000
 20
0.0000
 30
0.0000
 40
0.0381
 41
0.0381
 70
0
  0
VERTEX
  8
22
 10
5.0392
 20
17.7155
 30
0.0000
 42
1.0000
  0
VERTEX
  8
22
 10
5.0661
 20
17.6886
 30
0.0000
  0
SEQEND
  8
0
  0
POLYLINE
  8
22
 66
1
 10
0.0000
 20
0.0000
 30
0.0000
 40
0.0762
 41
0.0762
 70
0
  0
VERTEX
  8
22
 10
5.2094
 20
17.8588
 30
0.0000
  0
VERTEX
  8
22
 10
5.2094
 20
18.3291
 30
0.0000
  0
SEQEND
  8
0
  0
POLYLINE
  8
22
 66
1
 10
0.0000
 20
0.0000
 30
0.0000
 40
0.0381
 41
0.0381
 70
0
  0
VERTEX
  8
22
 10
5.2285
 20
18.3291
 30
0.0000
 42
1.0000
  0
VERTEX
  8
22
 10
5.1904
 20
18.3291
 30
0.0000
  0
SEQEND
  8
0
  0
POLYLINE
  8
22
 66
1
 10
0.0000
 20
0.0000
 30
0.0000
 40
0.0381
 41
0.0381
 70
0
  0
VERTEX
  8
22
 10
5.1904
 20
17.8588
 30
0.0000
 42
1.0000
  0
VERTEX
  8
22
 10
5.2285
 20
17.8588
 30
0.0000
  0
SEQEND
  8
0
  0
POLYLINE
  8
22
 66
1
 10
0.0000
 20
0.0000
 30
0.0000
 40
0.0762
 41
0.0762
 70
0
  0
VERTEX
  8
22
 10
4.7391
 20
18.3291
 30
0.0000
  0
VERTEX
  8
22
 10
4.7391
 20
17.8588
 30
0.0000
  0
SEQEND
  8
0
  0
POLYLINE
  8
22
 66
1
 10
0.0000
 20
0.0000
 30
0.0000
 40
0.0381
 41
0.0381
 70
0
  0
VERTEX
  8
22
 10
4.7201
 20
17.8588
 30
0.0000
 42
1.0000
  0
VERTEX
  8
22
 10
4.7582
 20
17.8588
 30
0.0000
  0
SEQEND
  8
0
  0
POLYLINE
  8
22
 66
1
 10
0.0000
 20
0.0000
 30
0.0000
 40
0.0381
 41
0.0381
 70
0
  0
VERTEX
  8
22
 10
4.7582
 20
18.3291
 30
0.0000
 42
1.0000
  0
VERTEX
  8
22
 10
4.7201
 20
18.3291
 30
0.0000
  0
SEQEND
  8
0
  0
POLYLINE
  8
22
 66
1
 10
0.0000
 20
0.0000
 30
0.0000
 40
0.0762
 41
0.0762
 70
0
  0
VERTEX
  8
22
 10
4.2688
 20
17.3936
 30
0.0000
  0
VERTEX
  8
22
 10
5.2094
 20
17.3936
 30
0.0000
  0
SEQEND
  8
0
  0
POLYLINE
  8
22
 66
1
 10
0.0000
 20
0.0000
 30
0.0000
 40
0.0381
 41
0.0381
 70
0
  0
VERTEX
  8
22
 10
5.2094
 20
17.3745
 30
0.0000
 42
1.0000
  0
VERTEX
  8
22
 10
5.2094
 20
17.4126
 30
0.0000
  0
SEQEND
  8
0
  0
POLYLINE
  8
22
 66
1
 10
0.0000
 20
0.0000
 30
0.0000
 40
0.0381
 41
0.0381
 70
0
  0
VERTEX
  8
22
 10
4.2688
 20
17.4126
 30
0.0000
 42
1.0000
  0
VERTEX
  8
22
 10
4.2688
 20
17.3745
 30
0.0000
  0
SEQEND
  8
0
  0
POLYLINE
  8
22
 66
1
 10
0.0000
 20
0.0000
 30
0.0000
 40
0.0762
 41
0.0762
 70
0
  0
VERTEX
  8
22
 10
5.2094
 20
17.3936
 30
0.0000
  0
VERTEX
  8
22
 10
5.2094
 20
16.7665
 30
0.0000
  0
SEQEND
  8
0
  0
POLYLINE
  8
22
 66
1
 10
0.0000
 20
0.0000
 30
0.0000
 40
0.0381
 41
0.0381
 70
0
  0
VERTEX
  8
22
 10
5.1904
 20
16.7665
 30
0.0000
 42
1.0000
  0
VERTEX
  8
22
 10
5.2285
 20
16.7665
 30
0.0000
  0
SEQEND
  8
0
  0
POLYLINE
  8
22
 66
1
 10
0.0000
 20
0.0000
 30
0.0000
 40
0.0381
 41
0.0381
 70
0
  0
VERTEX
  8
22
 10
5.2285
 20
17.3936
 30
0.0000
 42
1.0000
  0
VERTEX
  8
22
 10
5.1904
 20
17.3936
 30
0.0000
  0
SEQEND
  8
0
  0
POLYLINE
  8
22
 66
1
 10
0.0000
 20
0.0000
 30
0.0000
 40
0.0762
 41
0.0762
 70
0
  0
VERTEX
  8
22
 10
5.2094
 20
16.4581
 30
0.0000
  0
VERTEX
  8
22
 10
4.5823
 20
16.4581
 30
0.0000
  0
SEQEND
  8
0
  0
POLYLINE
  8
22
 66
1
 10
0.0000
 20
0.0000
 30
0.0000
 40
0.0381
 41
0.0381
 70
0
  0
VERTEX
  8
22
 10
4.5823
 20
16.4771
 30
0.0000
 42
1.0000
  0
VERTEX
  8
22
 10
4.5823
 20
16.4390
 30
0.0000
  0
SEQEND
  8
0
  0
POLYLINE
  8
22
 66
1
 10
0.0000
 20
0.0000
 30
0.0000
 40
0.0381
 41
0.0381
 70
0
  0
VERTEX
  8
22
 10
5.2094
 20
16.4390
 30
0.0000
 42
1.0000
  0
VERTEX
  8
22
 10
5.2094
 20
16.4771
 30
0.0000
  0
SEQEND
  8
0
  0
POLYLINE
  8
22
 66
1
 10
0.0000
 20
0.0000
 30
0.0000
 40
0.0762
 41
0.0762
 70
0
  0
VERTEX
  8
22
 10
4.5823
 20
16.4581
 30
0.0000
  0
VERTEX
  8
22
 10
4.2688
 20
16.1445
 30
0.0000
  0
SEQEND
  8
0
  0
POLYLINE
  8
22
 66
1
 10
0.0000
 20
0.0000
 30
0.0000
 40
0.0381
 41
0.0381
 70
0
  0
VERTEX
  8
22
 10
4.2553
 20
16.1580
 30
0.0000
 42
1.0000
  0
VERTEX
  8
22
 10
4.2823
 20
16.1311
 30
0.0000
  0
SEQEND
  8
0
  0
POLYLINE
  8
22
 66
1
 10
0.0000
 20
0.0000
 30
0.0000
 40
0.0381
 41
0.0381
 70
0
  0
VERTEX
  8
22
 10
4.5958
 20
16.4446
 30
0.0000
 42
1.0000
  0
VERTEX
  8
22
 10
4.5689
 20
16.4715
 30
0.0000
  0
SEQEND
  8
0
  0
POLYLINE
  8
22
 66
1
 10
0.0000
 20
0.0000
 30
0.0000
 40
0.0762
 41
0.0762
 70
0
  0
VERTEX
  8
22
 10
4.2688
 20
16.1445
 30
0.0000
  0
VERTEX
  8
22
 10
4.5823
 20
15.8310
 30
0.0000
  0
SEQEND
  8
0
  0
POLYLINE
  8
22
 66
1
 10
0.0000
 20
0.0000
 30
0.0000
 40
0.0381
 41
0.0381
 70
0
  0
VERTEX
  8
22
 10
4.5689
 20
15.8175
 30
0.0000
 42
1.0000
  0
VERTEX
  8
22
 10
4.5958
 20
15.8445
 30
0.0000
  0
SEQEND
  8
0
  0
POLYLINE
  8
22
 66
1
 10
0.0000
 20
0.0000
 30
0.0000
 40
0.0381
 41
0.0381
 70
0
  0
VERTEX
  8
22
 10
4.2823
 20
16.1580
 30
0.0000
 42
1.0000
  0
VERTEX
  8
22
 10
4.2553
 20
16.1311
 30
0.0000
  0
SEQEND
  8
0
  0
POLYLINE
  8
22
 66
1
 10
0.0000
 20
0.0000
 30
0.0000
 40
0.0762
 41
0.0762
 70
0
  0
VERTEX
  8
22
 10
4.5823
 20
15.8310
 30
0.0000
  0
VERTEX
  8
22
 10
5.2094
 20
15.8310
 30
0.0000
  0
SEQEND
  8
0
  0
POLYLINE
  8
22
 66
1
 10
0.0000
 20
0.0000
 30
0.0000
 40
0.0381
 41
0.0381
 70
0
  0
VERTEX
  8
22
 10
5.2094
 20
15.8119
 30
0.0000
 42
1.0000
  0
VERTEX
  8
22
 10
5.2094
 20
15.8500
 30
0.0000
  0
SEQEND
  8
0
  0
POLYLINE
  8
22
 66
1
 10
0.0000
 20
0.0000
 30
0.0000
 40
0.0381
 41
0.0381
 70
0
  0
VERTEX
  8
22
 10
4.5823
 20
15.8500
 30
0.0000
 42
1.0000
  0
VERTEX
  8
22
 10
4.5823
 20
15.8119
 30
0.0000
  0
SEQEND
  8
0
  0
POLYLINE
  8
22
 66
1
 10
0.0000
 20
0.0000
 30
0.0000
 40
0.0762
 41
0.0762
 70
0
  0
VERTEX
  8
22
 10
4.7391
 20
16.4581
 30
0.0000
  0
VERTEX
  8
22
 10
4.7391
 20
15.8310
 30
0.0000
  0
SEQEND
  8
0
  0
POLYLINE
  8
22
 66
1
 10
0.0000
 20
0.0000
 30
0.0000
 40
0.0381
 41
0.0381
 70
0
  0
VERTEX
  8
22
 10
4.7201
 20
15.8310
 30
0.0000
 42
1.0000
  0
VERTEX
  8
22
 10
4.7582
 20
15.8310
 30
0.0000
  0
SEQEND
  8
0
  0
POLYLINE
  8
22
 66
1
 10
0.0000
 20
0.0000
 30
0.0000
 40
0.0381
 41
0.0381
 70
0
  0
VERTEX
  8
22
 10
4.7582
 20
16.4581
 30
0.0000
 42
1.0000
  0
VERTEX
  8
22
 10
4.7201
 20
16.4581
 30
0.0000
  0
SEQEND
  8
0
  0
POLYLINE
  8
22
 66
1
 10
0.0000
 20
0.0000
 30
0.0000
 40
0.0762
 41
0.0762
 70
0
  0
VERTEX
  8
22
 10
5.2094
 20
15.5225
 30
0.0000
  0
VERTEX
  8
22
 10
4.2688
 20
15.5225
 30
0.0000
  0
SEQEND
  8
0
  0
POLYLINE
  8
22
 66
1
 10
0.0000
 20
0.0000
 30
0.0000
 40
0.0381
 41
0.0381
 70
0
  0
VERTEX
  8
22
 10
4.2688
 20
15.5416
 30
0.0000
 42
1.0000
  0
VERTEX
  8
22
 10
4.2688
 20
15.5035
 30
0.0000
  0
SEQEND
  8
0
  0
POLYLINE
  8
22
 66
1
 10
0.0000
 20
0.0000
 30
0.0000
 40
0.0381
 41
0.0381
 70
0
  0
VERTEX
  8
22
 10
5.2094
 20
15.5035
 30
0.0000
 42
1.0000
  0
VERTEX
  8
22
 10
5.2094
 20
15.5416
 30
0.0000
  0
SEQEND
  8
0
  0
POLYLINE
  8
22
 66
1
 10
0.0000
 20
0.0000
 30
0.0000
 40
0.0762
 41
0.0762
 70
0
  0
VERTEX
  8
22
 10
4.2688
 20
15.5225
 30
0.0000
  0
VERTEX
  8
22
 10
4.2688
 20
15.0522
 30
0.0000
  0
SEQEND
  8
0
  0
POLYLINE
  8
22
 66
1
 10
0.0000
 20
0.0000
 30
0.0000
 40
0.0381
 41
0.0381
 70
0
  0
VERTEX
  8
22
 10
4.2497
 20
15.0522
 30
0.0000
 42
1.0000
  0
VERTEX
  8
22
 10
4.2878
 20
15.0522
 30
0.0000
  0
SEQEND
  8
0
  0
POLYLINE
  8
22
 66
1
 10
0.0000
 20
0.0000
 30
0.0000
 40
0.0381
 41
0.0381
 70
0
  0
VERTEX
  8
22
 10
4.2878
 20
15.5225
 30
0.0000
 42
1.0000
  0
VERTEX
  8
22
 10
4.2497
 20
15.5225
 30
0.0000
  0
SEQEND
  8
0
  0
POLYLINE
  8
22
 66
1
 10
0.0000
 20
0.0000
 30
0.0000
 40
0.0762
 41
0.0762
 70
0
  0
VERTEX
  8
22
 10
4.2688
 20
15.0522
 30
0.0000
  0
VERTEX
  8
22
 10
4.4256
 20
14.8955
 30
0.0000
  0
SEQEND
  8
0
  0
POLYLINE
  8
22
 66
1
 10
0.0000
 20
0.0000
 30
0.0000
 40
0.0381
 41
0.0381
 70
0
  0
VERTEX
  8
22
 10
4.4121
 20
14.8820
 30
0.0000
 42
1.0000
  0
VERTEX
  8
22
 10
4.4390
 20
14.9089
 30
0.0000
  0
SEQEND
  8
0
  0
POLYLINE
  8
22
 66
1
 10
0.0000
 20
0.0000
 30
0.0000
 40
0.0381
 41
0.0381
 70
0
  0
VERTEX
  8
22
 10
4.2823
 20
15.0657
 30
0.0000
 42
1.0000
  0
VERTEX
  8
22
 10
4.2553
 20
15.0388
 30
0.0000
  0
SEQEND
  8
0
  0
POLYLINE
  8
22
 66
1
 10
0.0000
 20
0.0000
 30
0.0000
 40
0.0762
 41
0.0762
 70
0
  0
VERTEX
  8
22
 10
4.4256
 20
14.8955
 30
0.0000
  0
VERTEX
  8
22
 10
4.5823
 20
14.8955
 30
0.0000
  0
SEQEND
  8
0
  0
POLYLINE
  8
22
 66
1
 10
0.0000
 20
0.0000
 30
0.0000
 40
0.0381
 41
0.0381
 70
0
  0
VERTEX
  8
22
 10
4.5823
 20
14.8764
 30
0.0000
 42
1.0000
  0
VERTEX
  8
22
 10
4.5823
 20
14.9145
 30
0.0000
  0
SEQEND
  8
0
  0
POLYLINE
  8
22
 66
1
 10
0.0000
 20
0.0000
 30
0.0000
 40
0.0381
 41
0.0381
 70
0
  0
VERTEX
  8
22
 10
4.4256
 20
14.9145
 30
0.0000
 42
1.0000
  0
VERTEX
  8
22
 10
4.4256
 20
14.8764
 30
0.0000
  0
SEQEND
  8
0
  0
POLYLINE
  8
22
 66
1
 10
0.0000
 20
0.0000
 30
0.0000
 40
0.0762
 41
0.0762
 70
0
  0
VERTEX
  8
22
 10
4.5823
 20
14.8955
 30
0.0000
  0
VERTEX
  8
22
 10
4.7391
 20
15.0522
 30
0.0000
  0
SEQEND
  8
0
  0
POLYLINE
  8
22
 66
1
 10
0.0000
 20
0.0000
 30
0.0000
 40
0.0381
 41
0.0381
 70
0
  0
VERTEX
  8
22
 10
4.7526
 20
15.0388
 30
0.0000
 42
1.0000
  0
VERTEX
  8
22
 10
4.7256
 20
15.0657
 30
0.0000
  0
SEQEND
  8
0
  0
POLYLINE
  8
22
 66
1
 10
0.0000
 20
0.0000
 30
0.0000
 40
0.0381
 41
0.0381
 70
0
  0
VERTEX
  8
22
 10
4.5689
 20
14.9089
 30
0.0000
 42
1.0000
  0
VERTEX
  8
22
 10
4.5958
 20
14.8820
 30
0.0000
  0
SEQEND
  8
0
  0
POLYLINE
  8
22
 66
1
 10
0.0000
 20
0.0000
 30
0.0000
 40
0.0762
 41
0.0762
 70
0
  0
VERTEX
  8
22
 10
4.7391
 20
15.0522
 30
0.0000
  0
VERTEX
  8
22
 10
4.8959
 20
14.8955
 30
0.0000
  0
SEQEND
  8
0
  0
POLYLINE
  8
22
 66
1
 10
0.0000
 20
0.0000
 30
0.0000
 40
0.0381
 41
0.0381
 70
0
  0
VERTEX
  8
22
 10
4.8824
 20
14.8820
 30
0.0000
 42
1.0000
  0
VERTEX
  8
22
 10
4.9093
 20
14.9089
 30
0.0000
  0
SEQEND
  8
0
  0
POLYLINE
  8
22
 66
1
 10
0.0000
 20
0.0000
 30
0.0000
 40
0.0381
 41
0.0381
 70
0
  0
VERTEX
  8
22
 10
4.7526
 20
15.0657
 30
0.0000
 42
1.0000
  0
VERTEX
  8
22
 10
4.7256
 20
15.0388
 30
0.0000
  0
SEQEND
  8
0
  0
POLYLINE
  8
22
 66
1
 10
0.0000
 20
0.0000
 30
0.0000
 40
0.0762
 41
0.0762
 70
0
  0
VERTEX
  8
22
 10
4.8959
 20
14.8955
 30
0.0000
  0
VERTEX
  8
22
 10
5.0526
 20
14.8955
 30
0.0000
  0
SEQEND
  8
0
  0
POLYLINE
  8
22
 66
1
 10
0.0000
 20
0.0000
 30
0.0000
 40
0.0381
 41
0.0381
 70
0
  0
VERTEX
  8
22
 10
5.0526
 20
14.8764
 30
0.0000
 42
1.0000
  0
VERTEX
  8
22
 10
5.0526
 20
14.9145
 30
0.0000
  0
SEQEND
  8
0
  0
POLYLINE
  8
22
 66
1
 10
0.0000
 20
0.0000
 30
0.0000
 40
0.0381
 41
0.0381
 70
0
  0
VERTEX
  8
22
 10
4.8959
 20
14.9145
 30
0.0000
 42
1.0000
  0
VERTEX
  8
22
 10
4.8959
 20
14.8764
 30
0.0000
  0
SEQEND
  8
0
  0
POLYLINE
  8
22
 66
1
 10
0.0000
 20
0.0000
 30
0.0000
 40
0.0762
 41
0.0762
 70
0
  0
VERTEX
  8
22
 10
5.0526
 20
14.8955
 30
0.0000
  0
VERTEX
  8
22
 10
5.2094
 20
15.0522
 30
0.0000
  0
SEQEND
  8
0
  0
POLYLINE
  8
22
 66
1
 10
0.0000
 20
0.0000
 30
0.0000
 40
0.0381
 41
0.0381
 70
0
  0
VERTEX
  8
22
 10
5.2229
 20
15.0388
 30
0.0000
 42
1.0000
  0
VERTEX
  8
22
 10
5.1959
 20
15.0657
 30
0.0000
  0
SEQEND
  8
0
  0
POLYLINE
  8
22
 66
1
 10
0.0000
 20
0.0000
 30
0.0000
 40
0.0381
 41
0.0381
 70
0
  0
VERTEX
  8
22
 10
5.0392
 20
14.9089
 30
0.0000
 42
1.0000
  0
VERTEX
  8
22
 10
5.0661
 20
14.8820
 30
0.0000
  0
SEQEND
  8
0
  0
POLYLINE
  8
22
 66
1
 10
0.0000
 20
0.0000
 30
0.0000
 40
0.0762
 41
0.0762
 70
0
  0
VERTEX
  8
22
 10
5.2094
 20
15.0522
 30
0.0000
  0
VERTEX
  8
22
 10
5.2094
 20
15.5225
 30
0.0000
  0
SEQEND
  8
0
  0
POLYLINE
  8
22
 66
1
 10
0.0000
 20
0.0000
 30
0.0000
 40
0.0381
 41
0.0381
 70
0
  0
VERTEX
  8
22
 10
5.2285
 20
15.5225
 30
0.0000
 42
1.0000
  0
VERTEX
  8
22
 10
5.1904
 20
15.5225
 30
0.0000
  0
SEQEND
  8
0
  0
POLYLINE
  8
22
 66
1
 10
0.0000
 20
0.0000
 30
0.0000
 40
0.0381
 41
0.0381
 70
0
  0
VERTEX
  8
22
 10
5.1904
 20
15.0522
 30
0.0000
 42
1.0000
  0
VERTEX
  8
22
 10
5.2285
 20
15.0522
 30
0.0000
  0
SEQEND
  8
0
  0
POLYLINE
  8
22
 66
1
 10
0.0000
 20
0.0000
 30
0.0000
 40
0.0762
 41
0.0762
 70
0
  0
VERTEX
  8
22
 10
4.7391
 20
15.5225
 30
0.0000
  0
VERTEX
  8
22
 10
4.7391
 20
15.0522
 30
0.0000
  0
SEQEND
  8
0
  0
POLYLINE
  8
22
 66
1
 10
0.0000
 20
0.0000
 30
0.0000
 40
0.0381
 41
0.0381
 70
0
  0
VERTEX
  8
22
 10
4.7201
 20
15.0522
 30
0.0000
 42
1.0000
  0
VERTEX
  8
22
 10
4.7582
 20
15.0522
 30
0.0000
  0
SEQEND
  8
0
  0
POLYLINE
  8
22
 66
1
 10
0.0000
 20
0.0000
 30
0.0000
 40
0.0381
 41
0.0381
 70
0
  0
VERTEX
  8
22
 10
4.7582
 20
15.5225
 30
0.0000
 42
1.0000
  0
VERTEX
  8
22
 10
4.7201
 20
15.5225
 30
0.0000
  0
SEQEND
  8
0
  0
POLYLINE
  8
22
 66
1
 10
0.0000
 20
0.0000
 30
0.0000
 40
0.0762
 41
0.0762
 70
0
  0
VERTEX
  8
22
 10
4.2688
 20
13.9600
 30
0.0000
  0
VERTEX
  8
22
 10
4.2688
 20
14.5870
 30
0.0000
  0
SEQEND
  8
0
  0
POLYLINE
  8
22
 66
1
 10
0.0000
 20
0.0000
 30
0.0000
 40
0.0381
 41
0.0381
 70
0
  0
VERTEX
  8
22
 10
4.2878
 20
14.5870
 30
0.0000
 42
1.0000
  0
VERTEX
  8
22
 10
4.2497
 20
14.5870
 30
0.0000
  0
SEQEND
  8
0
  0
POLYLINE
  8
22
 66
1
 10
0.0000
 20
0.0000
 30
0.0000
 40
0.0381
 41
0.0381
 70
0
  0
VERTEX
  8
22
 10
4.2497
 20
13.9600
 30
0.0000
 42
1.0000
  0
VERTEX
  8
22
 10
4.2878
 20
13.9600
 30
0.0000
  0
SEQEND
  8
0
  0
POLYLINE
  8
22
 66
1
 10
0.0000
 20
0.0000
 30
0.0000
 40
0.0762
 41
0.0762
 70
0
  0
VERTEX
  8
22
 10
4.2688
 20
14.5870
 30
0.0000
  0
VERTEX
  8
22
 10
5.2094
 20
14.5870
 30
0.0000
  0
SEQEND
  8
0
  0
POLYLINE
  8
22
 66
1
 10
0.0000
 20
0.0000
 30
0.0000
 40
0.0381
 41
0.0381
 70
0
  0
VERTEX
  8
22
 10
5.2094
 20
14.5680
 30
0.0000
 42
1.0000
  0
VERTEX
  8
22
 10
5.2094
 20
14.6061
 30
0.0000
  0
SEQEND
  8
0
  0
POLYLINE
  8
22
 66
1
 10
0.0000
 20
0.0000
 30
0.0000
 40
0.0381
 41
0.0381
 70
0
  0
VERTEX
  8
22
 10
4.2688
 20
14.6061
 30
0.0000
 42
1.0000
  0
VERTEX
  8
22
 10
4.2688
 20
14.5680
 30
0.0000
  0
SEQEND
  8
0
  0
POLYLINE
  8
22
 66
1
 10
0.0000
 20
0.0000
 30
0.0000
 40
0.0762
 41
0.0762
 70
0
  0
VERTEX
  8
22
 10
5.2094
 20
14.5870
 30
0.0000
  0
VERTEX
  8
22
 10
5.2094
 20
13.9600
 30
0.0000
  0
SEQEND
  8
0
  0
POLYLINE
  8
22
 66
1
 10
0.0000
 20
0.0000
 30
0.0000
 40
0.0381
 41
0.0381
 70
0
  0
VERTEX
  8
22
 10
5.1904
 20
13.9600
 30
0.0000
 42
1.0000
  0
VERTEX
  8
22
 10
5.2285
 20
13.9600
 30
0.0000
  0
SEQEND
  8
0
  0
POLYLINE
  8
22
 66
1
 10
0.0000
 20
0.0000
 30
0.0000
 40
0.0381
 41
0.0381
 70
0
  0
VERTEX
  8
22
 10
5.2285
 20
14.5870
 30
0.0000
 42
1.0000
  0
VERTEX
  8
22
 10
5.1904
 20
14.5870
 30
0.0000
  0
SEQEND
  8
0
  0
POLYLINE
  8
22
 66
1
 10
0.0000
 20
0.0000
 30
0.0000
 40
0.0762
 41
0.0762
 70
0
  0
VERTEX
  8
22
 10
4.7391
 20
14.5870
 30
0.0000
  0
VERTEX
  8
22
 10
4.7391
 20
14.2735
 30
0.0000
  0
SEQEND
  8
0
  0
POLYLINE
  8
22
 66
1
 10
0.0000
 20
0.0000
 30
0.0000
 40
0.0381
 41
0.0381
 70
0
  0
VERTEX
  8
22
 10
4.7201
 20
14.2735
 30
0.0000
 42
1.0000
  0
VERTEX
  8
22
 10
4.7582
 20
14.2735
 30
0.0000
  0
SEQEND
  8
0
  0
POLYLINE
  8
22
 66
1
 10
0.0000
 20
0.0000
 30
0.0000
 40
0.0381
 41
0.0381
 70
0
  0
VERTEX
  8
22
 10
4.7582
 20
14.5870
 30
0.0000
 42
1.0000
  0
VERTEX
  8
22
 10
4.7201
 20
14.5870
 30
0.0000
  0
SEQEND
  8
0
  0
POLYLINE
  8
22
 66
1
 10
0.0000
 20
0.0000
 30
0.0000
 40
0.0762
 41
0.0762
 70
0
  0
VERTEX
  8
22
 10
4.2688
 20
13.6515
 30
0.0000
  0
VERTEX
  8
22
 10
5.2094
 20
13.6515
 30
0.0000
  0
SEQEND
  8
0
  0
POLYLINE
  8
22
 66
1
 10
0.0000
 20
0.0000
 30
0.0000
 40
0.0381
 41
0.0381
 70
0
  0
VERTEX
  8
22
 10
5.2094
 20
13.6325
 30
0.0000
 42
1.0000
  0
VERTEX
  8
22
 10
5.2094
 20
13.6706
 30
0.0000
  0
SEQEND
  8
0
  0
POLYLINE
  8
22
 66
1
 10
0.0000
 20
0.0000
 30
0.0000
 40
0.0381
 41
0.0381
 70
0
  0
VERTEX
  8
22
 10
4.2688
 20
13.6706
 30
0.0000
 42
1.0000
  0
VERTEX
  8
22
 10
4.2688
 20
13.6325
 30
0.0000
  0
SEQEND
  8
0
  0
POLYLINE
  8
22
 66
1
 10
0.0000
 20
0.0000
 30
0.0000
 40
0.0762
 41
0.0762
 70
0
  0
VERTEX
  8
22
 10
5.2094
 20
13.6515
 30
0.0000
  0
VERTEX
  8
22
 10
5.2094
 20
13.0244
 30
0.0000
  0
SEQEND
  8
0
  0
POLYLINE
  8
22
 66
1
 10
0.0000
 20
0.0000
 30
0.0000
 40
0.0381
 41
0.0381
 70
0
  0
VERTEX
  8
22
 10
5.1904
 20
13.0244
 30
0.0000
 42
1.0000
  0
VERTEX
  8
22
 10
5.2285
 20
13.0244
 30
0.0000
  0
SEQEND
  8
0
  0
POLYLINE
  8
22
 66
1
 10
0.0000
 20
0.0000
 30
0.0000
 40
0.0381
 41
0.0381
 70
0
  0
VERTEX
  8
22
 10
5.2285
 20
13.6515
 30
0.0000
 42
1.0000
  0
VERTEX
  8
22
 10
5.1904
 20
13.6515
 30
0.0000
  0
SEQEND
  8
0
  0
POLYLINE
  8
25
 66
1
 10
0.0000
 20
0.0000
 30
0.0000
 40
0.0762
 41
0.0762
 70
0
  0
VERTEX
  8
25
 10
19.2094
 20
23.5513
 30
0.0000
  0
VERTEX
  8
25
 10
19.7008
 20
23.1827
 30
0.0000
  0
SEQEND
  8
0
  0
POLYLINE
  8
25
 66
1
 10
0.0000
 20
0.0000
 30
0.0000
 40
0.0381
 41
0.0381
 70
0
  0
VERTEX
  8
25
 10
19.6894
 20
23.1675
 30
0.0000
 42
1.0000
  0
VERTEX
  8
25
 10
19.7123
 20
23.1980
 30
0.0000
  0
SEQEND
  8
0
  0
POLYLINE
  8
25
 66
1
 10
0.0000
 20
0.0000
 30
0.0000
 40
0.0381
 41
0.0381
 70
0
  0
VERTEX
  8
25
 10
19.2208
 20
23.5666
 30
0.0000
 42
1.0000
  0
VERTEX
  8
25
 10
19.1979
 20
23.5361
 30
0.0000
  0
SEQEND
  8
0
  0
POLYLINE
  8
25
 66
1
 10
0.0000
 20
0.0000
 30
0.0000
 40
0.0762
 41
0.0762
 70
0
  0
VERTEX
  8
25
 10
19.7008
 20
23.1827
 30
0.0000
  0
VERTEX
  8
25
 10
19.2094
 20
22.8141
 30
0.0000
  0
SEQEND
  8
0
  0
POLYLINE
  8
25
 66
1
 10
0.0000
 20
0.0000
 30
0.0000
 40
0.0381
 41
0.0381
 70
0
  0
VERTEX
  8
25
 10
19.1979
 20
22.8293
 30
0.0000
 42
1.0000
  0
VERTEX
  8
25
 10
19.2208
 20
22.7989
 30
0.0000
  0
SEQEND
  8
0
  0
POLYLINE
  8
25
 66
1
 10
0.0000
 20
0.0000
 30
0.0000
 40
0.0381
 41
0.0381
 70
0
  0
VERTEX
  8
25
 10
19.7123
 20
23.1675
 30
0.0000
 42
1.0000
  0
VERTEX
  8
25
 10
19.6894
 20
23.1980
 30
0.0000
  0
SEQEND
  8
0
  0
POLYLINE
  8
25
 66
1
 10
0.0000
 20
0.0000
 30
0.0000
 40
0.0762
 41
0.0762
 70
0
  0
VERTEX
  8
25
 10
20.4492
 20
23.4285
 30
0.0000
  0
VERTEX
  8
25
 10
20.3264
 20
23.5513
 30
0.0000
  0
SEQEND
  8
0
  0
POLYLINE
  8
25
 66
1
 10
0.0000
 20
0.0000
 30
0.0000
 40
0.0381
 41
0.0381
 70
0
  0
VERTEX
  8
25
 10
20.3398
 20
23.5648
 30
0.0000
 42
1.0000
  0
VERTEX
  8
25
 10
20.3129
 20
23.5379
 30
0.0000
  0
SEQEND
  8
0
  0
POLYLINE
  8
25
 66
1
 10
0.0000
 20
0.0000
 30
0.0000
 40
0.0381
 41
0.0381
 70
0
  0
VERTEX
  8
25
 10
20.4358
 20
23.4150
 30
0.0000
 42
1.0000
  0
VERTEX
  8
25
 10
20.4627
 20
23.4419
 30
0.0000
  0
SEQEND
  8
0
  0
POLYLINE
  8
25
 66
1
 10
0.0000
 20
0.0000
 30
0.0000
 40
0.0762
 41
0.0762
 70
0
  0
VERTEX
  8
25
 10
20.3264
 20
23.5513
 30
0.0000
  0
VERTEX
  8
25
 10
20.0806
 20
23.5513
 30
0.0000
  0
SEQEND
  8
0
  0
POLYLINE
  8
25
 66
1
 10
0.0000
 20
0.0000
 30
0.0000
 40
0.0381
 41
0.0381
 70
0
  0
VERTEX
  8
25
 10
20.0806
 20
23.5704
 30
0.0000
 42
1.0000
  0
VERTEX
  8
25
 10
20.0806
 20
23.5323
 30
0.0000
  0
SEQEND
  8
0
  0
POLYLINE
  8
25
 66
1
 10
0.0000
 20
0.0000
 30
0.0000
 40
0.0381
 41
0.0381
 70
0
  0
VERTEX
  8
25
 10
20.3264
 20
23.5323
 30
0.0000
 42
1.0000
  0
VERTEX
  8
25
 10
20.3264
 20
23.5704
 30
0.0000
  0
SEQEND
  8
0
  0
POLYLINE
  8
25
 66
1
 10
0.0000
 20
0.0000
 30
0.0000
 40
0.0762
 41
0.0762
 70
0
  0
VERTEX
  8
25
 10
20.0806
 20
23.5513
 30
0.0000
  0
VERTEX
  8
25
 10
19.9578
 20
23.4285
 30
0.0000
  0
SEQEND
  8
0
  0
POLYLINE
  8
25
 66
1
 10
0.0000
 20
0.0000
 30
0.0000
 40
0.0381
 41
0.0381
 70
0
  0
VERTEX
  8
25
 10
19.9443
 20
23.4419
 30
0.0000
 42
1.0000
  0
VERTEX
  8
25
 10
19.9712
 20
23.4150
 30
0.0000
  0
SEQEND
  8
0
  0
POLYLINE
  8
25
 66
1
 10
0.0000
 20
0.0000
 30
0.0000
 40
0.0381
 41
0.0381
 70
0
  0
VERTEX
  8
25
 10
20.0941
 20
23.5379
 30
0.0000
 42
1.0000
  0
VERTEX
  8
25
 10
20.0672
 20
23.5648
 30
0.0000
  0
SEQEND
  8
0
  0
POLYLINE
  8
25
 66
1
 10
0.0000
 20
0.0000
 30
0.0000
 40
0.0762
 41
0.0762
 70
0
  0
VERTEX
  8
25
 10
19.9578
 20
23.4285
 30
0.0000
  0
VERTEX
  8
25
 10
19.9578
 20
22.9370
 30
0.0000
  0
SEQEND
  8
0
  0
POLYLINE
  8
25
 66
1
 10
0.0000
 20
0.0000
 30
0.0000
 40
0.0381
 41
0.0381
 70
0
  0
VERTEX
  8
25
 10
19.9387
 20
22.9370
 30
0.0000
 42
1.0000
  0
VERTEX
  8
25
 10
19.9768
 20
22.9370
 30
0.0000
  0
SEQEND
  8
0
  0
POLYLINE
  8
25
 66
1
 10
0.0000
 20
0.0000
 30
0.0000
 40
0.0381
 41
0.0381
 70
0
  0
VERTEX
  8
25
 10
19.9768
 20
23.4285
 30
0.0000
 42
1.0000
  0
VERTEX
  8
25
 10
19.9387
 20
23.4285
 30
0.0000
  0
SEQEND
  8
0
  0
POLYLINE
  8
25
 66
1
 10
0.0000
 20
0.0000
 30
0.0000
 40
0.0762
 41
0.0762
 70
0
  0
VERTEX
  8
25
 10
19.9578
 20
22.9370
 30
0.0000
  0
VERTEX
  8
25
 10
20.0806
 20
22.8141
 30
0.0000
  0
SEQEND
  8
0
  0
POLYLINE
  8
25
 66
1
 10
0.0000
 20
0.0000
 30
0.0000
 40
0.0381
 41
0.0381
 70
0
  0
VERTEX
  8
25
 10
20.0672
 20
22.8006
 30
0.0000
 42
1.0000
  0
VERTEX
  8
25
 10
20.0941
 20
22.8276
 30
0.0000
  0
SEQEND
  8
0
  0
POLYLINE
  8
25
 66
1
 10
0.0000
 20
0.0000
 30
0.0000
 40
0.0381
 41
0.0381
 70
0
  0
VERTEX
  8
25
 10
19.9712
 20
22.9504
 30
0.0000
 42
1.0000
  0
VERTEX
  8
25
 10
19.9443
 20
22.9235
 30
0.0000
  0
SEQEND
  8
0
  0
POLYLINE
  8
25
 66
1
 10
0.0000
 20
0.0000
 30
0.0000
 40
0.0762
 41
0.0762
 70
0
  0
VERTEX
  8
25
 10
20.0806
 20
22.8141
 30
0.0000
  0
VERTEX
  8
25
 10
20.3264
 20
22.8141
 30
0.0000
  0
SEQEND
  8
0
  0
POLYLINE
  8
25
 66
1
 10
0.0000
 20
0.0000
 30
0.0000
 40
0.0381
 41
0.0381
 70
0
  0
VERTEX
  8
25
 10
20.3264
 20
22.7950
 30
0.0000
 42
1.0000
  0
VERTEX
  8
25
 10
20.3264
 20
22.8331
 30
0.0000
  0
SEQEND
  8
0
  0
POLYLINE
  8
25
 66
1
 10
0.0000
 20
0.0000
 30
0.0000
 40
0.0381
 41
0.0381
 70
0
  0
VERTEX
  8
25
 10
20.0806
 20
22.8331
 30
0.0000
 42
1.0000
  0
VERTEX
  8
25
 10
20.0806
 20
22.7950
 30
0.0000
  0
SEQEND
  8
0
  0
POLYLINE
  8
25
 66
1
 10
0.0000
 20
0.0000
 30
0.0000
 40
0.0762
 41
0.0762
 70
0
  0
VERTEX
  8
25
 10
20.3264
 20
22.8141
 30
0.0000
  0
VERTEX
  8
25
 10
20.4492
 20
22.9370
 30
0.0000
  0
SEQEND
  8
0
  0
POLYLINE
  8
25
 66
1
 10
0.0000
 20
0.0000
 30
0.0000
 40
0.0381
 41
0.0381
 70
0
  0
VERTEX
  8
25
 10
20.4627
 20
22.9235
 30
0.0000
 42
1.0000
  0
VERTEX
  8
25
 10
20.4358
 20
22.9504
 30
0.0000
  0
SEQEND
  8
0
  0
POLYLINE
  8
25
 66
1
 10
0.0000
 20
0.0000
 30
0.0000
 40
0.0381
 41
0.0381
 70
0
  0
VERTEX
  8
25
 10
20.3129
 20
22.8276
 30
0.0000
 42
1.0000
  0
VERTEX
  8
25
 10
20.3398
 20
22.8006
 30
0.0000
  0
SEQEND
  8
0
  0
POLYLINE
  8
25
 66
1
 10
0.0000
 20
0.0000
 30
0.0000
 40
0.0762
 41
0.0762
 70
0
  0
VERTEX
  8
25
 10
21.0748
 20
23.5513
 30
0.0000
  0
VERTEX
  8
25
 10
20.8291
 20
23.5513
 30
0.0000
  0
SEQEND
  8
0
  0
POLYLINE
  8
25
 66
1
 10
0.0000
 20
0.0000
 30
0.0000
 40
0.0381
 41
0.0381
 70
0
  0
VERTEX
  8
25
 10
20.8291
 20
23.5704
 30
0.0000
 42
1.0000
  0
VERTEX
  8
25
 10
20.8291
 20
23.5323
 30
0.0000
  0
SEQEND
  8
0
  0
POLYLINE
  8
25
 66
1
 10
0.0000
 20
0.0000
 30
0.0000
 40
0.0381
 41
0.0381
 70
0
  0
VERTEX
  8
25
 10
21.0748
 20
23.5323
 30
0.0000
 42
1.0000
  0
VERTEX
  8
25
 10
21.0748
 20
23.5704
 30
0.0000
  0
SEQEND
  8
0
  0
POLYLINE
  8
25
 66
1
 10
0.0000
 20
0.0000
 30
0.0000
 40
0.0762
 41
0.0762
 70
0
  0
VERTEX
  8
25
 10
20.8291
 20
23.5513
 30
0.0000
  0
VERTEX
  8
25
 10
20.7062
 20
23.4285
 30
0.0000
  0
SEQEND
  8
0
  0
POLYLINE
  8
25
 66
1
 10
0.0000
 20
0.0000
 30
0.0000
 40
0.0381
 41
0.0381
 70
0
  0
VERTEX
  8
25
 10
20.6927
 20
23.4419
 30
0.0000
 42
1.0000
  0
VERTEX
  8
25
 10
20.7197
 20
23.4150
 30
0.0000
  0
SEQEND
  8
0
  0
POLYLINE
  8
25
 66
1
 10
0.0000
 20
0.0000
 30
0.0000
 40
0.0381
 41
0.0381
 70
0
  0
VERTEX
  8
25
 10
20.8425
 20
23.5379
 30
0.0000
 42
1.0000
  0
VERTEX
  8
25
 10
20.8156
 20
23.5648
 30
0.0000
  0
SEQEND
  8
0
  0
POLYLINE
  8
25
 66
1
 10
0.0000
 20
0.0000
 30
0.0000
 40
0.0762
 41
0.0762
 70
0
  0
VERTEX
  8
25
 10
20.7062
 20
23.4285
 30
0.0000
  0
VERTEX
  8
25
 10
20.7062
 20
22.9370
 30
0.0000
  0
SEQEND
  8
0
  0
POLYLINE
  8
25
 66
1
 10
0.0000
 20
0.0000
 30
0.0000
 40
0.0381
 41
0.0381
 70
0
  0
VERTEX
  8
25
 10
20.6871
 20
22.9370
 30
0.0000
 42
1.0000
  0
VERTEX
  8
25
 10
20.7252
 20
22.9370
 30
0.0000
  0
SEQEND
  8
0
  0
POLYLINE
  8
25
 66
1
 10
0.0000
 20
0.0000
 30
0.0000
 40
0.0381
 41
0.0381
 70
0
  0
VERTEX
  8
25
 10
20.7252
 20
23.4285
 30
0.0000
 42
1.0000
  0
VERTEX
  8
25
 10
20.6871
 20
23.4285
 30
0.0000
  0
SEQEND
  8
0
  0
POLYLINE
  8
25
 66
1
 10
0.0000
 20
0.0000
 30
0.0000
 40
0.0762
 41
0.0762
 70
0
  0
VERTEX
  8
25
 10
20.7062
 20
22.9370
 30
0.0000
  0
VERTEX
  8
25
 10
20.8291
 20
22.8141
 30
0.0000
  0
SEQEND
  8
0
  0
POLYLINE
  8
25
 66
1
 10
0.0000
 20
0.0000
 30
0.0000
 40
0.0381
 41
0.0381
 70
0
  0
VERTEX
  8
25
 10
20.8156
 20
22.8006
 30
0.0000
 42
1.0000
  0
VERTEX
  8
25
 10
20.8425
 20
22.8276
 30
0.0000
  0
SEQEND
  8
0
  0
POLYLINE
  8
25
 66
1
 10
0.0000
 20
0.0000
 30
0.0000
 40
0.0381
 41
0.0381
 70
0
  0
VERTEX
  8
25
 10
20.7197
 20
22.9504
 30
0.0000
 42
1.0000
  0
VERTEX
  8
25
 10
20.6927
 20
22.9235
 30
0.0000
  0
SEQEND
  8
0
  0
POLYLINE
  8
25
 66
1
 10
0.0000
 20
0.0000
 30
0.0000
 40
0.0762
 41
0.0762
 70
0
  0
VERTEX
  8
25
 10
20.8291
 20
22.8141
 30
0.0000
  0
VERTEX
  8
25
 10
21.0748
 20
22.8141
 30
0.0000
  0
SEQEND
  8
0
  0
POLYLINE
  8
25
 66
1
 10
0.0000
 20
0.0000
 30
0.0000
 40
0.0381
 41
0.0381
 70
0
  0
VERTEX
  8
25
 10
21.0748
 20
22.7950
 30
0.0000
 42
1.0000
  0
VERTEX
  8
25
 10
21.0748
 20
22.8331
 30
0.0000
  0
SEQEND
  8
0
  0
POLYLINE
  8
25
 66
1
 10
0.0000
 20
0.0000
 30
0.0000
 40
0.0381
 41
0.0381
 70
0
  0
VERTEX
  8
25
 10
20.8291
 20
22.8331
 30
0.0000
 42
1.0000
  0
VERTEX
  8
25
 10
20.8291
 20
22.7950
 30
0.0000
  0
SEQEND
  8
0
  0
POLYLINE
  8
25
 66
1
 10
0.0000
 20
0.0000
 30
0.0000
 40
0.0762
 41
0.0762
 70
0
  0
VERTEX
  8
25
 10
21.0748
 20
22.8141
 30
0.0000
  0
VERTEX
  8
25
 10
21.1977
 20
22.9370
 30
0.0000
  0
SEQEND
  8
0
  0
POLYLINE
  8
25
 66
1
 10
0.0000
 20
0.0000
 30
0.0000
 40
0.0381
 41
0.0381
 70
0
  0
VERTEX
  8
25
 10
21.2111
 20
22.9235
 30
0.0000
 42
1.0000
  0
VERTEX
  8
25
 10
21.1842
 20
22.9504
 30
0.0000
  0
SEQEND
  8
0
  0
POLYLINE
  8
25
 66
1
 10
0.0000
 20
0.0000
 30
0.0000
 40
0.0381
 41
0.0381
 70
0
  0
VERTEX
  8
25
 10
21.0613
 20
22.8276
 30
0.0000
 42
1.0000
  0
VERTEX
  8
25
 10
21.0883
 20
22.8006
 30
0.0000
  0
SEQEND
  8
0
  0
POLYLINE
  8
25
 66
1
 10
0.0000
 20
0.0000
 30
0.0000
 40
0.0762
 41
0.0762
 70
0
  0
VERTEX
  8
25
 10
21.1977
 20
22.9370
 30
0.0000
  0
VERTEX
  8
25
 10
21.1977
 20
23.4285
 30
0.0000
  0
SEQEND
  8
0
  0
POLYLINE
  8
25
 66
1
 10
0.0000
 20
0.0000
 30
0.0000
 40
0.0381
 41
0.0381
 70
0
  0
VERTEX
  8
25
 10
21.2167
 20
23.4285
 30
0.0000
 42
1.0000
  0
VERTEX
  8
25
 10
21.1786
 20
23.4285
 30
0.0000
  0
SEQEND
  8
0
  0
POLYLINE
  8
25
 66
1
 10
0.0000
 20
0.0000
 30
0.0000
 40
0.0381
 41
0.0381
 70
0
  0
VERTEX
  8
25
 10
21.1786
 20
22.9370
 30
0.0000
 42
1.0000
  0
VERTEX
  8
25
 10
21.2167
 20
22.9370
 30
0.0000
  0
SEQEND
  8
0
  0
POLYLINE
  8
25
 66
1
 10
0.0000
 20
0.0000
 30
0.0000
 40
0.0762
 41
0.0762
 70
0
  0
VERTEX
  8
25
 10
21.1977
 20
23.4285
 30
0.0000
  0
VERTEX
  8
25
 10
21.0748
 20
23.5513
 30
0.0000
  0
SEQEND
  8
0
  0
POLYLINE
  8
25
 66
1
 10
0.0000
 20
0.0000
 30
0.0000
 40
0.0381
 41
0.0381
 70
0
  0
VERTEX
  8
25
 10
21.0883
 20
23.5648
 30
0.0000
 42
1.0000
  0
VERTEX
  8
25
 10
21.0613
 20
23.5379
 30
0.0000
  0
SEQEND
  8
0
  0
POLYLINE
  8
25
 66
1
 10
0.0000
 20
0.0000
 30
0.0000
 40
0.0381
 41
0.0381
 70
0
  0
VERTEX
  8
25
 10
21.1842
 20
23.4150
 30
0.0000
 42
1.0000
  0
VERTEX
  8
25
 10
21.2111
 20
23.4419
 30
0.0000
  0
SEQEND
  8
0
  0
POLYLINE
  8
25
 66
1
 10
0.0000
 20
0.0000
 30
0.0000
 40
0.0762
 41
0.0762
 70
0
  0
VERTEX
  8
25
 10
21.4546
 20
22.8141
 30
0.0000
  0
VERTEX
  8
25
 10
21.4546
 20
23.5513
 30
0.0000
  0
SEQEND
  8
0
  0
POLYLINE
  8
25
 66
1
 10
0.0000
 20
0.0000
 30
0.0000
 40
0.0381
 41
0.0381
 70
0
  0
VERTEX
  8
25
 10
21.4736
 20
23.5513
 30
0.0000
 42
1.0000
  0
VERTEX
  8
25
 10
21.4355
 20
23.5513
 30
0.0000
  0
SEQEND
  8
0
  0
POLYLINE
  8
25
 66
1
 10
0.0000
 20
0.0000
 30
0.0000
 40
0.0381
 41
0.0381
 70
0
  0
VERTEX
  8
25
 10
21.4355
 20
22.8141
 30
0.0000
 42
1.0000
  0
VERTEX
  8
25
 10
21.4736
 20
22.8141
 30
0.0000
  0
SEQEND
  8
0
  0
POLYLINE
  8
25
 66
1
 10
0.0000
 20
0.0000
 30
0.0000
 40
0.0762
 41
0.0762
 70
0
  0
VERTEX
  8
25
 10
21.4546
 20
23.5513
 30
0.0000
  0
VERTEX
  8
25
 10
21.8232
 20
23.5513
 30
0.0000
  0
SEQEND
  8
0
  0
POLYLINE
  8
25
 66
1
 10
0.0000
 20
0.0000
 30
0.0000
 40
0.0381
 41
0.0381
 70
0
  0
VERTEX
  8
25
 10
21.8232
 20
23.5323
 30
0.0000
 42
1.0000
  0
VERTEX
  8
25
 10
21.8232
 20
23.5704
 30
0.0000
  0
SEQEND
  8
0
  0
POLYLINE
  8
25
 66
1
 10
0.0000
 20
0.0000
 30
0.0000
 40
0.0381
 41
0.0381
 70
0
  0
VERTEX
  8
25
 10
21.4546
 20
23.5704
 30
0.0000
 42
1.0000
  0
VERTEX
  8
25
 10
21.4546
 20
23.5323
 30
0.0000
  0
SEQEND
  8
0
  0
POLYLINE
  8
25
 66
1
 10
0.0000
 20
0.0000
 30
0.0000
 40
0.0762
 41
0.0762
 70
0
  0
VERTEX
  8
25
 10
21.8232
 20
23.5513
 30
0.0000
  0
VERTEX
  8
25
 10
21.9461
 20
23.4285
 30
0.0000
  0
SEQEND
  8
0
  0
POLYLINE
  8
25
 66
1
 10
0.0000
 20
0.0000
 30
0.0000
 40
0.0381
 41
0.0381
 70
0
  0
VERTEX
  8
25
 10
21.9326
 20
23.4150
 30
0.0000
 42
1.0000
  0
VERTEX
  8
25
 10
21.9596
 20
23.4419
 30
0.0000
  0
SEQEND
  8
0
  0
POLYLINE
  8
25
 66
1
 10
0.0000
 20
0.0000
 30
0.0000
 40
0.0381
 41
0.0381
 70
0
  0
VERTEX
  8
25
 10
21.8367
 20
23.5648
 30
0.0000
 42
1.0000
  0
VERTEX
  8
25
 10
21.8097
 20
23.5379
 30
0.0000
  0
SEQEND
  8
0
  0
POLYLINE
  8
25
 66
1
 10
0.0000
 20
0.0000
 30
0.0000
 40
0.0762
 41
0.0762
 70
0
  0
VERTEX
  8
25
 10
21.9461
 20
23.4285
 30
0.0000
  0
VERTEX
  8
25
 10
21.9461
 20
23.1827
 30
0.0000
  0
SEQEND
  8
0
  0
POLYLINE
  8
25
 66
1
 10
0.0000
 20
0.0000
 30
0.0000
 40
0.0381
 41
0.0381
 70
0
  0
VERTEX
  8
25
 10
21.9270
 20
23.1827
 30
0.0000
 42
1.0000
  0
VERTEX
  8
25
 10
21.9651
 20
23.1827
 30
0.0000
  0
SEQEND
  8
0
  0
POLYLINE
  8
25
 66
1
 10
0.0000
 20
0.0000
 30
0.0000
 40
0.0381
 41
0.0381
 70
0
  0
VERTEX
  8
25
 10
21.9651
 20
23.4285
 30
0.0000
 42
1.0000
  0
VERTEX
  8
25
 10
21.9270
 20
23.4285
 30
0.0000
  0
SEQEND
  8
0
  0
POLYLINE
  8
25
 66
1
 10
0.0000
 20
0.0000
 30
0.0000
 40
0.0762
 41
0.0762
 70
0
  0
VERTEX
  8
25
 10
21.9461
 20
23.1827
 30
0.0000
  0
VERTEX
  8
25
 10
21.8232
 20
23.0598
 30
0.0000
  0
SEQEND
  8
0
  0
POLYLINE
  8
25
 66
1
 10
0.0000
 20
0.0000
 30
0.0000
 40
0.0381
 41
0.0381
 70
0
  0
VERTEX
  8
25
 10
21.8097
 20
23.0733
 30
0.0000
 42
1.0000
  0
VERTEX
  8
25
 10
21.8367
 20
23.0464
 30
0.0000
  0
SEQEND
  8
0
  0
POLYLINE
  8
25
 66
1
 10
0.0000
 20
0.0000
 30
0.0000
 40
0.0381
 41
0.0381
 70
0
  0
VERTEX
  8
25
 10
21.9596
 20
23.1692
 30
0.0000
 42
1.0000
  0
VERTEX
  8
25
 10
21.9326
 20
23.1962
 30
0.0000
  0
SEQEND
  8
0
  0
POLYLINE
  8
25
 66
1
 10
0.0000
 20
0.0000
 30
0.0000
 40
0.0762
 41
0.0762
 70
0
  0
VERTEX
  8
25
 10
21.8232
 20
23.0598
 30
0.0000
  0
VERTEX
  8
25
 10
21.4546
 20
23.0598
 30
0.0000
  0
SEQEND
  8
0
  0
POLYLINE
  8
25
 66
1
 10
0.0000
 20
0.0000
 30
0.0000
 40
0.0381
 41
0.0381
 70
0
  0
VERTEX
  8
25
 10
21.4546
 20
23.0789
 30
0.0000
 42
1.0000
  0
VERTEX
  8
25
 10
21.4546
 20
23.0408
 30
0.0000
  0
SEQEND
  8
0
  0
POLYLINE
  8
25
 66
1
 10
0.0000
 20
0.0000
 30
0.0000
 40
0.0381
 41
0.0381
 70
0
  0
VERTEX
  8
25
 10
21.8232
 20
23.0408
 30
0.0000
 42
1.0000
  0
VERTEX
  8
25
 10
21.8232
 20
23.0789
 30
0.0000
  0
SEQEND
  8
0
  0
POLYLINE
  8
25
 66
1
 10
0.0000
 20
0.0000
 30
0.0000
 40
0.0762
 41
0.0762
 70
0
  0
VERTEX
  8
25
 10
22.2030
 20
23.5513
 30
0.0000
  0
VERTEX
  8
25
 10
22.2030
 20
23.4285
 30
0.0000
  0
SEQEND
  8
0
  0
POLYLINE
  8
25
 66
1
 10
0.0000
 20
0.0000
 30
0.0000
 40
0.0381
 41
0.0381
 70
0
  0
VERTEX
  8
25
 10
22.1840
 20
23.4285
 30
0.0000
 42
1.0000
  0
VERTEX
  8
25
 10
22.2221
 20
23.4285
 30
0.0000
  0
SEQEND
  8
0
  0
POLYLINE
  8
25
 66
1
 10
0.0000
 20
0.0000
 30
0.0000
 40
0.0381
 41
0.0381
 70
0
  0
VERTEX
  8
25
 10
22.2221
 20
23.5513
 30
0.0000
 42
1.0000
  0
VERTEX
  8
25
 10
22.1840
 20
23.5513
 30
0.0000
  0
SEQEND
  8
0
  0
POLYLINE
  8
25
 66
1
 10
0.0000
 20
0.0000
 30
0.0000
 40
0.0762
 41
0.0762
 70
0
  0
VERTEX
  8
25
 10
22.2030
 20
23.4285
 30
0.0000
  0
VERTEX
  8
25
 10
22.4488
 20
23.1827
 30
0.0000
  0
SEQEND
  8
0
  0
POLYLINE
  8
25
 66
1
 10
0.0000
 20
0.0000
 30
0.0000
 40
0.0381
 41
0.0381
 70
0
  0
VERTEX
  8
25
 10
22.4353
 20
23.1692
 30
0.0000
 42
1.0000
  0
VERTEX
  8
25
 10
22.4622
 20
23.1962
 30
0.0000
  0
SEQEND
  8
0
  0
POLYLINE
  8
25
 66
1
 10
0.0000
 20
0.0000
 30
0.0000
 40
0.0381
 41
0.0381
 70
0
  0
VERTEX
  8
25
 10
22.2165
 20
23.4419
 30
0.0000
 42
1.0000
  0
VERTEX
  8
25
 10
22.1895
 20
23.4150
 30
0.0000
  0
SEQEND
  8
0
  0
POLYLINE
  8
25
 66
1
 10
0.0000
 20
0.0000
 30
0.0000
 40
0.0762
 41
0.0762
 70
0
  0
VERTEX
  8
25
 10
22.4488
 20
23.1827
 30
0.0000
  0
VERTEX
  8
25
 10
22.6945
 20
23.4285
 30
0.0000
  0
SEQEND
  8
0
  0
POLYLINE
  8
25
 66
1
 10
0.0000
 20
0.0000
 30
0.0000
 40
0.0381
 41
0.0381
 70
0
  0
VERTEX
  8
25
 10
22.7080
 20
23.4150
 30
0.0000
 42
1.0000
  0
VERTEX
  8
25
 10
22.6810
 20
23.4419
 30
0.0000
  0
SEQEND
  8
0
  0
POLYLINE
  8
25
 66
1
 10
0.0000
 20
0.0000
 30
0.0000
 40
0.0381
 41
0.0381
 70
0
  0
VERTEX
  8
25
 10
22.4353
 20
23.1962
 30
0.0000
 42
1.0000
  0
VERTEX
  8
25
 10
22.4622
 20
23.1692
 30
0.0000
  0
SEQEND
  8
0
  0
POLYLINE
  8
25
 66
1
 10
0.0000
 20
0.0000
 30
0.0000
 40
0.0762
 41
0.0762
 70
0
  0
VERTEX
  8
25
 10
22.6945
 20
23.4285
 30
0.0000
  0
VERTEX
  8
25
 10
22.6945
 20
23.5513
 30
0.0000
  0
SEQEND
  8
0
  0
POLYLINE
  8
25
 66
1
 10
0.0000
 20
0.0000
 30
0.0000
 40
0.0381
 41
0.0381
 70
0
  0
VERTEX
  8
25
 10
22.7135
 20
23.5513
 30
0.0000
 42
1.0000
  0
VERTEX
  8
25
 10
22.6754
 20
23.5513
 30
0.0000
  0
SEQEND
  8
0
  0
POLYLINE
  8
25
 66
1
 10
0.0000
 20
0.0000
 30
0.0000
 40
0.0381
 41
0.0381
 70
0
  0
VERTEX
  8
25
 10
22.6754
 20
23.4285
 30
0.0000
 42
1.0000
  0
VERTEX
  8
25
 10
22.7135
 20
23.4285
 30
0.0000
  0
SEQEND
  8
0
  0
POLYLINE
  8
25
 66
1
 10
0.0000
 20
0.0000
 30
0.0000
 40
0.0762
 41
0.0762
 70
0
  0
VERTEX
  8
25
 10
22.4488
 20
23.1827
 30
0.0000
  0
VERTEX
  8
25
 10
22.4488
 20
22.8141
 30
0.0000
  0
SEQEND
  8
0
  0
POLYLINE
  8
25
 66
1
 10
0.0000
 20
0.0000
 30
0.0000
 40
0.0381
 41
0.0381
 70
0
  0
VERTEX
  8
25
 10
22.4297
 20
22.8141
 30
0.0000
 42
1.0000
  0
VERTEX
  8
25
 10
22.4678
 20
22.8141
 30
0.0000
  0
SEQEND
  8
0
  0
POLYLINE
  8
25
 66
1
 10
0.0000
 20
0.0000
 30
0.0000
 40
0.0381
 41
0.0381
 70
0
  0
VERTEX
  8
25
 10
22.4678
 20
23.1827
 30
0.0000
 42
1.0000
  0
VERTEX
  8
25
 10
22.4297
 20
23.1827
 30
0.0000
  0
SEQEND
  8
0
  0
POLYLINE
  8
25
 66
1
 10
0.0000
 20
0.0000
 30
0.0000
 40
0.0762
 41
0.0762
 70
0
  0
VERTEX
  8
25
 10
22.9514
 20
22.8141
 30
0.0000
  0
VERTEX
  8
25
 10
22.9514
 20
23.5513
 30
0.0000
  0
SEQEND
  8
0
  0
POLYLINE
  8
25
 66
1
 10
0.0000
 20
0.0000
 30
0.0000
 40
0.0381
 41
0.0381
 70
0
  0
VERTEX
  8
25
 10
22.9705
 20
23.5513
 30
0.0000
 42
1.0000
  0
VERTEX
  8
25
 10
22.9324
 20
23.5513
 30
0.0000
  0
SEQEND
  8
0
  0
POLYLINE
  8
25
 66
1
 10
0.0000
 20
0.0000
 30
0.0000
 40
0.0381
 41
0.0381
 70
0
  0
VERTEX
  8
25
 10
22.9324
 20
22.8141
 30
0.0000
 42
1.0000
  0
VERTEX
  8
25
 10
22.9705
 20
22.8141
 30
0.0000
  0
SEQEND
  8
0
  0
POLYLINE
  8
25
 66
1
 10
0.0000
 20
0.0000
 30
0.0000
 40
0.0762
 41
0.0762
 70
0
  0
VERTEX
  8
25
 10
22.9514
 20
23.5513
 30
0.0000
  0
VERTEX
  8
25
 10
23.3200
 20
23.5513
 30
0.0000
  0
SEQEND
  8
0
  0
POLYLINE
  8
25
 66
1
 10
0.0000
 20
0.0000
 30
0.0000
 40
0.0381
 41
0.0381
 70
0
  0
VERTEX
  8
25
 10
23.3200
 20
23.5323
 30
0.0000
 42
1.0000
  0
VERTEX
  8
25
 10
23.3200
 20
23.5704
 30
0.0000
  0
SEQEND
  8
0
  0
POLYLINE
  8
25
 66
1
 10
0.0000
 20
0.0000
 30
0.0000
 40
0.0381
 41
0.0381
 70
0
  0
VERTEX
  8
25
 10
22.9514
 20
23.5704
 30
0.0000
 42
1.0000
  0
VERTEX
  8
25
 10
22.9514
 20
23.5323
 30
0.0000
  0
SEQEND
  8
0
  0
POLYLINE
  8
25
 66
1
 10
0.0000
 20
0.0000
 30
0.0000
 40
0.0762
 41
0.0762
 70
0
  0
VERTEX
  8
25
 10
23.3200
 20
23.5513
 30
0.0000
  0
VERTEX
  8
25
 10
23.4429
 20
23.4285
 30
0.0000
  0
SEQEND
  8
0
  0
POLYLINE
  8
25
 66
1
 10
0.0000
 20
0.0000
 30
0.0000
 40
0.0381
 41
0.0381
 70
0
  0
VERTEX
  8
25
 10
23.4294
 20
23.4150
 30
0.0000
 42
1.0000
  0
VERTEX
  8
25
 10
23.4564
 20
23.4419
 30
0.0000
  0
SEQEND
  8
0
  0
POLYLINE
  8
25
 66
1
 10
0.0000
 20
0.0000
 30
0.0000
 40
0.0381
 41
0.0381
 70
0
  0
VERTEX
  8
25
 10
23.3335
 20
23.5648
 30
0.0000
 42
1.0000
  0
VERTEX
  8
25
 10
23.3066
 20
23.5379
 30
0.0000
  0
SEQEND
  8
0
  0
POLYLINE
  8
25
 66
1
 10
0.0000
 20
0.0000
 30
0.0000
 40
0.0762
 41
0.0762
 70
0
  0
VERTEX
  8
25
 10
23.4429
 20
23.4285
 30
0.0000
  0
VERTEX
  8
25
 10
23.4429
 20
23.1827
 30
0.0000
  0
SEQEND
  8
0
  0
POLYLINE
  8
25
 66
1
 10
0.0000
 20
0.0000
 30
0.0000
 40
0.0381
 41
0.0381
 70
0
  0
VERTEX
  8
25
 10
23.4239
 20
23.1827
 30
0.0000
 42
1.0000
  0
VERTEX
  8
25
 10
23.4620
 20
23.1827
 30
0.0000
  0
SEQEND
  8
0
  0
POLYLINE
  8
25
 66
1
 10
0.0000
 20
0.0000
 30
0.0000
 40
0.0381
 41
0.0381
 70
0
  0
VERTEX
  8
25
 10
23.4620
 20
23.4285
 30
0.0000
 42
1.0000
  0
VERTEX
  8
25
 10
23.4239
 20
23.4285
 30
0.0000
  0
SEQEND
  8
0
  0
POLYLINE
  8
25
 66
1
 10
0.0000
 20
0.0000
 30
0.0000
 40
0.0762
 41
0.0762
 70
0
  0
VERTEX
  8
25
 10
23.4429
 20
23.1827
 30
0.0000
  0
VERTEX
  8
25
 10
23.3200
 20
23.0598
 30
0.0000
  0
SEQEND
  8
0
  0
POLYLINE
  8
25
 66
1
 10
0.0000
 20
0.0000
 30
0.0000
 40
0.0381
 41
0.0381
 70
0
  0
VERTEX
  8
25
 10
23.3066
 20
23.0733
 30
0.0000
 42
1.0000
  0
VERTEX
  8
25
 10
23.3335
 20
23.0464
 30
0.0000
  0
SEQEND
  8
0
  0
POLYLINE
  8
25
 66
1
 10
0.0000
 20
0.0000
 30
0.0000
 40
0.0381
 41
0.0381
 70
0
  0
VERTEX
  8
25
 10
23.4564
 20
23.1692
 30
0.0000
 42
1.0000
  0
VERTEX
  8
25
 10
23.4294
 20
23.1962
 30
0.0000
  0
SEQEND
  8
0
  0
POLYLINE
  8
25
 66
1
 10
0.0000
 20
0.0000
 30
0.0000
 40
0.0762
 41
0.0762
 70
0
  0
VERTEX
  8
25
 10
23.3200
 20
23.0598
 30
0.0000
  0
VERTEX
  8
25
 10
22.9514
 20
23.0598
 30
0.0000
  0
SEQEND
  8
0
  0
POLYLINE
  8
25
 66
1
 10
0.0000
 20
0.0000
 30
0.0000
 40
0.0381
 41
0.0381
 70
0
  0
VERTEX
  8
25
 10
22.9514
 20
23.0789
 30
0.0000
 42
1.0000
  0
VERTEX
  8
25
 10
22.9514
 20
23.0408
 30
0.0000
  0
SEQEND
  8
0
  0
POLYLINE
  8
25
 66
1
 10
0.0000
 20
0.0000
 30
0.0000
 40
0.0381
 41
0.0381
 70
0
  0
VERTEX
  8
25
 10
23.3200
 20
23.0408
 30
0.0000
 42
1.0000
  0
VERTEX
  8
25
 10
23.3200
 20
23.0789
 30
0.0000
  0
SEQEND
  8
0
  0
POLYLINE
  8
25
 66
1
 10
0.0000
 20
0.0000
 30
0.0000
 40
0.0762
 41
0.0762
 70
0
  0
VERTEX
  8
25
 10
23.1972
 20
23.0598
 30
0.0000
  0
VERTEX
  8
25
 10
23.4429
 20
22.8141
 30
0.0000
  0
SEQEND
  8
0
  0
POLYLINE
  8
25
 66
1
 10
0.0000
 20
0.0000
 30
0.0000
 40
0.0381
 41
0.0381
 70
0
  0
VERTEX
  8
25
 10
23.4294
 20
22.8006
 30
0.0000
 42
1.0000
  0
VERTEX
  8
25
 10
23.4564
 20
22.8276
 30
0.0000
  0
SEQEND
  8
0
  0
POLYLINE
  8
25
 66
1
 10
0.0000
 20
0.0000
 30
0.0000
 40
0.0381
 41
0.0381
 70
0
  0
VERTEX
  8
25
 10
23.2106
 20
23.0733
 30
0.0000
 42
1.0000
  0
VERTEX
  8
25
 10
23.1837
 20
23.0464
 30
0.0000
  0
SEQEND
  8
0
  0
POLYLINE
  8
25
 66
1
 10
0.0000
 20
0.0000
 30
0.0000
 40
0.0762
 41
0.0762
 70
0
  0
VERTEX
  8
25
 10
23.6998
 20
22.8141
 30
0.0000
  0
VERTEX
  8
25
 10
23.9456
 20
22.8141
 30
0.0000
  0
SEQEND
  8
0
  0
POLYLINE
  8
25
 66
1
 10
0.0000
 20
0.0000
 30
0.0000
 40
0.0381
 41
0.0381
 70
0
  0
VERTEX
  8
25
 10
23.9456
 20
22.7950
 30
0.0000
 42
1.0000
  0
VERTEX
  8
25
 10
23.9456
 20
22.8331
 30
0.0000
  0
SEQEND
  8
0
  0
POLYLINE
  8
25
 66
1
 10
0.0000
 20
0.0000
 30
0.0000
 40
0.0381
 41
0.0381
 70
0
  0
VERTEX
  8
25
 10
23.6998
 20
22.8331
 30
0.0000
 42
1.0000
  0
VERTEX
  8
25
 10
23.6998
 20
22.7950
 30
0.0000
  0
SEQEND
  8
0
  0
POLYLINE
  8
25
 66
1
 10
0.0000
 20
0.0000
 30
0.0000
 40
0.0762
 41
0.0762
 70
0
  0
VERTEX
  8
25
 10
23.8227
 20
22.8141
 30
0.0000
  0
VERTEX
  8
25
 10
23.8227
 20
23.5513
 30
0.0000
  0
SEQEND
  8
0
  0
POLYLINE
  8
25
 66
1
 10
0.0000
 20
0.0000
 30
0.0000
 40
0.0381
 41
0.0381
 70
0
  0
VERTEX
  8
25
 10
23.8418
 20
23.5513
 30
0.0000
 42
1.0000
  0
VERTEX
  8
25
 10
23.8037
 20
23.5513
 30
0.0000
  0
SEQEND
  8
0
  0
POLYLINE
  8
25
 66
1
 10
0.0000
 20
0.0000
 30
0.0000
 40
0.0381
 41
0.0381
 70
0
  0
VERTEX
  8
25
 10
23.8037
 20
22.8141
 30
0.0000
 42
1.0000
  0
VERTEX
  8
25
 10
23.8418
 20
22.8141
 30
0.0000
  0
SEQEND
  8
0
  0
POLYLINE
  8
25
 66
1
 10
0.0000
 20
0.0000
 30
0.0000
 40
0.0762
 41
0.0762
 70
0
  0
VERTEX
  8
25
 10
23.6998
 20
23.5513
 30
0.0000
  0
VERTEX
  8
25
 10
23.9456
 20
23.5513
 30
0.0000
  0
SEQEND
  8
0
  0
POLYLINE
  8
25
 66
1
 10
0.0000
 20
0.0000
 30
0.0000
 40
0.0381
 41
0.0381
 70
0
  0
VERTEX
  8
25
 10
23.9456
 20
23.5323
 30
0.0000
 42
1.0000
  0
VERTEX
  8
25
 10
23.9456
 20
23.5704
 30
0.0000
  0
SEQEND
  8
0
  0
POLYLINE
  8
25
 66
1
 10
0.0000
 20
0.0000
 30
0.0000
 40
0.0381
 41
0.0381
 70
0
  0
VERTEX
  8
25
 10
23.6998
 20
23.5704
 30
0.0000
 42
1.0000
  0
VERTEX
  8
25
 10
23.6998
 20
23.5323
 30
0.0000
  0
SEQEND
  8
0
  0
POLYLINE
  8
25
 66
1
 10
0.0000
 20
0.0000
 30
0.0000
 40
0.0762
 41
0.0762
 70
0
  0
VERTEX
  8
25
 10
24.6903
 20
23.4285
 30
0.0000
  0
VERTEX
  8
25
 10
24.5674
 20
23.5513
 30
0.0000
  0
SEQEND
  8
0
  0
POLYLINE
  8
25
 66
1
 10
0.0000
 20
0.0000
 30
0.0000
 40
0.0381
 41
0.0381
 70
0
  0
VERTEX
  8
25
 10
24.5809
 20
23.5648
 30
0.0000
 42
1.0000
  0
VERTEX
  8
25
 10
24.5539
 20
23.5379
 30
0.0000
  0
SEQEND
  8
0
  0
POLYLINE
  8
25
 66
1
 10
0.0000
 20
0.0000
 30
0.0000
 40
0.0381
 41
0.0381
 70
0
  0
VERTEX
  8
25
 10
24.6768
 20
23.4150
 30
0.0000
 42
1.0000
  0
VERTEX
  8
25
 10
24.7037
 20
23.4419
 30
0.0000
  0
SEQEND
  8
0
  0
POLYLINE
  8
25
 66
1
 10
0.0000
 20
0.0000
 30
0.0000
 40
0.0762
 41
0.0762
 70
0
  0
VERTEX
  8
25
 10
24.5674
 20
23.5513
 30
0.0000
  0
VERTEX
  8
25
 10
24.3217
 20
23.5513
 30
0.0000
  0
SEQEND
  8
0
  0
POLYLINE
  8
25
 66
1
 10
0.0000
 20
0.0000
 30
0.0000
 40
0.0381
 41
0.0381
 70
0
  0
VERTEX
  8
25
 10
24.3217
 20
23.5704
 30
0.0000
 42
1.0000
  0
VERTEX
  8
25
 10
24.3217
 20
23.5323
 30
0.0000
  0
SEQEND
  8
0
  0
POLYLINE
  8
25
 66
1
 10
0.0000
 20
0.0000
 30
0.0000
 40
0.0381
 41
0.0381
 70
0
  0
VERTEX
  8
25
 10
24.5674
 20
23.5323
 30
0.0000
 42
1.0000
  0
VERTEX
  8
25
 10
24.5674
 20
23.5704
 30
0.0000
  0
SEQEND
  8
0
  0
POLYLINE
  8
25
 66
1
 10
0.0000
 20
0.0000
 30
0.0000
 40
0.0762
 41
0.0762
 70
0
  0
VERTEX
  8
25
 10
24.3217
 20
23.5513
 30
0.0000
  0
VERTEX
  8
25
 10
24.1988
 20
23.4285
 30
0.0000
  0
SEQEND
  8
0
  0
POLYLINE
  8
25
 66
1
 10
0.0000
 20
0.0000
 30
0.0000
 40
0.0381
 41
0.0381
 70
0
  0
VERTEX
  8
25
 10
24.1853
 20
23.4419
 30
0.0000
 42
1.0000
  0
VERTEX
  8
25
 10
24.2123
 20
23.4150
 30
0.0000
  0
SEQEND
  8
0
  0
POLYLINE
  8
25
 66
1
 10
0.0000
 20
0.0000
 30
0.0000
 40
0.0381
 41
0.0381
 70
0
  0
VERTEX
  8
25
 10
24.3351
 20
23.5379
 30
0.0000
 42
1.0000
  0
VERTEX
  8
25
 10
24.3082
 20
23.5648
 30
0.0000
  0
SEQEND
  8
0
  0
POLYLINE
  8
25
 66
1
 10
0.0000
 20
0.0000
 30
0.0000
 40
0.0762
 41
0.0762
 70
0
  0
VERTEX
  8
25
 10
24.1988
 20
23.4285
 30
0.0000
  0
VERTEX
  8
25
 10
24.1988
 20
22.9370
 30
0.0000
  0
SEQEND
  8
0
  0
POLYLINE
  8
25
 66
1
 10
0.0000
 20
0.0000
 30
0.0000
 40
0.0381
 41
0.0381
 70
0
  0
VERTEX
  8
25
 10
24.1797
 20
22.9370
 30
0.0000
 42
1.0000
  0
VERTEX
  8
25
 10
24.2178
 20
22.9370
 30
0.0000
  0
SEQEND
  8
0
  0
POLYLINE
  8
25
 66
1
 10
0.0000
 20
0.0000
 30
0.0000
 40
0.0381
 41
0.0381
 70
0
  0
VERTEX
  8
25
 10
24.2178
 20
23.4285
 30
0.0000
 42
1.0000
  0
VERTEX
  8
25
 10
24.1797
 20
23.4285
 30
0.0000
  0
SEQEND
  8
0
  0
POLYLINE
  8
25
 66
1
 10
0.0000
 20
0.0000
 30
0.0000
 40
0.0762
 41
0.0762
 70
0
  0
VERTEX
  8
25
 10
24.1988
 20
22.9370
 30
0.0000
  0
VERTEX
  8
25
 10
24.3217
 20
22.8141
 30
0.0000
  0
SEQEND
  8
0
  0
POLYLINE
  8
25
 66
1
 10
0.0000
 20
0.0000
 30
0.0000
 40
0.0381
 41
0.0381
 70
0
  0
VERTEX
  8
25
 10
24.3082
 20
22.8006
 30
0.0000
 42
1.0000
  0
VERTEX
  8
25
 10
24.3351
 20
22.8276
 30
0.0000
  0
SEQEND
  8
0
  0
POLYLINE
  8
25
 66
1
 10
0.0000
 20
0.0000
 30
0.0000
 40
0.0381
 41
0.0381
 70
0
  0
VERTEX
  8
25
 10
24.2123
 20
22.9504
 30
0.0000
 42
1.0000
  0
VERTEX
  8
25
 10
24.1853
 20
22.9235
 30
0.0000
  0
SEQEND
  8
0
  0
POLYLINE
  8
25
 66
1
 10
0.0000
 20
0.0000
 30
0.0000
 40
0.0762
 41
0.0762
 70
0
  0
VERTEX
  8
25
 10
24.3217
 20
22.8141
 30
0.0000
  0
VERTEX
  8
25
 10
24.5674
 20
22.8141
 30
0.0000
  0
SEQEND
  8
0
  0
POLYLINE
  8
25
 66
1
 10
0.0000
 20
0.0000
 30
0.0000
 40
0.0381
 41
0.0381
 70
0
  0
VERTEX
  8
25
 10
24.5674
 20
22.7950
 30
0.0000
 42
1.0000
  0
VERTEX
  8
25
 10
24.5674
 20
22.8331
 30
0.0000
  0
SEQEND
  8
0
  0
POLYLINE
  8
25
 66
1
 10
0.0000
 20
0.0000
 30
0.0000
 40
0.0381
 41
0.0381
 70
0
  0
VERTEX
  8
25
 10
24.3217
 20
22.8331
 30
0.0000
 42
1.0000
  0
VERTEX
  8
25
 10
24.3217
 20
22.7950
 30
0.0000
  0
SEQEND
  8
0
  0
POLYLINE
  8
25
 66
1
 10
0.0000
 20
0.0000
 30
0.0000
 40
0.0762
 41
0.0762
 70
0
  0
VERTEX
  8
25
 10
24.5674
 20
22.8141
 30
0.0000
  0
VERTEX
  8
25
 10
24.6903
 20
22.9370
 30
0.0000
  0
SEQEND
  8
0
  0
POLYLINE
  8
25
 66
1
 10
0.0000
 20
0.0000
 30
0.0000
 40
0.0381
 41
0.0381
 70
0
  0
VERTEX
  8
25
 10
24.7037
 20
22.9235
 30
0.0000
 42
1.0000
  0
VERTEX
  8
25
 10
24.6768
 20
22.9504
 30
0.0000
  0
SEQEND
  8
0
  0
POLYLINE
  8
25
 66
1
 10
0.0000
 20
0.0000
 30
0.0000
 40
0.0381
 41
0.0381
 70
0
  0
VERTEX
  8
25
 10
24.5539
 20
22.8276
 30
0.0000
 42
1.0000
  0
VERTEX
  8
25
 10
24.5809
 20
22.8006
 30
0.0000
  0
SEQEND
  8
0
  0
POLYLINE
  8
25
 66
1
 10
0.0000
 20
0.0000
 30
0.0000
 40
0.0762
 41
0.0762
 70
0
  0
VERTEX
  8
25
 10
24.6903
 20
22.9370
 30
0.0000
  0
VERTEX
  8
25
 10
24.6903
 20
23.1827
 30
0.0000
  0
SEQEND
  8
0
  0
POLYLINE
  8
25
 66
1
 10
0.0000
 20
0.0000
 30
0.0000
 40
0.0381
 41
0.0381
 70
0
  0
VERTEX
  8
25
 10
24.7093
 20
23.1827
 30
0.0000
 42
1.0000
  0
VERTEX
  8
25
 10
24.6712
 20
23.1827
 30
0.0000
  0
SEQEND
  8
0
  0
POLYLINE
  8
25
 66
1
 10
0.0000
 20
0.0000
 30
0.0000
 40
0.0381
 41
0.0381
 70
0
  0
VERTEX
  8
25
 10
24.6712
 20
22.9370
 30
0.0000
 42
1.0000
  0
VERTEX
  8
25
 10
24.7093
 20
22.9370
 30
0.0000
  0
SEQEND
  8
0
  0
POLYLINE
  8
25
 66
1
 10
0.0000
 20
0.0000
 30
0.0000
 40
0.0762
 41
0.0762
 70
0
  0
VERTEX
  8
25
 10
24.6903
 20
23.1827
 30
0.0000
  0
VERTEX
  8
25
 10
24.4445
 20
23.1827
 30
0.0000
  0
SEQEND
  8
0
  0
POLYLINE
  8
25
 66
1
 10
0.0000
 20
0.0000
 30
0.0000
 40
0.0381
 41
0.0381
 70
0
  0
VERTEX
  8
25
 10
24.4445
 20
23.2018
 30
0.0000
 42
1.0000
  0
VERTEX
  8
25
 10
24.4445
 20
23.1637
 30
0.0000
  0
SEQEND
  8
0
  0
POLYLINE
  8
25
 66
1
 10
0.0000
 20
0.0000
 30
0.0000
 40
0.0381
 41
0.0381
 70
0
  0
VERTEX
  8
25
 10
24.6903
 20
23.1637
 30
0.0000
 42
1.0000
  0
VERTEX
  8
25
 10
24.6903
 20
23.2018
 30
0.0000
  0
SEQEND
  8
0
  0
POLYLINE
  8
25
 66
1
 10
0.0000
 20
0.0000
 30
0.0000
 40
0.0762
 41
0.0762
 70
0
  0
VERTEX
  8
25
 10
24.9472
 20
22.8141
 30
0.0000
  0
VERTEX
  8
25
 10
24.9472
 20
23.5513
 30
0.0000
  0
SEQEND
  8
0
  0
POLYLINE
  8
25
 66
1
 10
0.0000
 20
0.0000
 30
0.0000
 40
0.0381
 41
0.0381
 70
0
  0
VERTEX
  8
25
 10
24.9663
 20
23.5513
 30
0.0000
 42
1.0000
  0
VERTEX
  8
25
 10
24.9282
 20
23.5513
 30
0.0000
  0
SEQEND
  8
0
  0
POLYLINE
  8
25
 66
1
 10
0.0000
 20
0.0000
 30
0.0000
 40
0.0381
 41
0.0381
 70
0
  0
VERTEX
  8
25
 10
24.9282
 20
22.8141
 30
0.0000
 42
1.0000
  0
VERTEX
  8
25
 10
24.9663
 20
22.8141
 30
0.0000
  0
SEQEND
  8
0
  0
POLYLINE
  8
25
 66
1
 10
0.0000
 20
0.0000
 30
0.0000
 40
0.0762
 41
0.0762
 70
0
  0
VERTEX
  8
25
 10
24.9472
 20
23.1827
 30
0.0000
  0
VERTEX
  8
25
 10
25.4387
 20
23.1827
 30
0.0000
  0
SEQEND
  8
0
  0
POLYLINE
  8
25
 66
1
 10
0.0000
 20
0.0000
 30
0.0000
 40
0.0381
 41
0.0381
 70
0
  0
VERTEX
  8
25
 10
25.4387
 20
23.1637
 30
0.0000
 42
1.0000
  0
VERTEX
  8
25
 10
25.4387
 20
23.2018
 30
0.0000
  0
SEQEND
  8
0
  0
POLYLINE
  8
25
 66
1
 10
0.0000
 20
0.0000
 30
0.0000
 40
0.0381
 41
0.0381
 70
0
  0
VERTEX
  8
25
 10
24.9472
 20
23.2018
 30
0.0000
 42
1.0000
  0
VERTEX
  8
25
 10
24.9472
 20
23.1637
 30
0.0000
  0
SEQEND
  8
0
  0
POLYLINE
  8
25
 66
1
 10
0.0000
 20
0.0000
 30
0.0000
 40
0.0762
 41
0.0762
 70
0
  0
VERTEX
  8
25
 10
25.4387
 20
23.5513
 30
0.0000
  0
VERTEX
  8
25
 10
25.4387
 20
22.8141
 30
0.0000
  0
SEQEND
  8
0
  0
POLYLINE
  8
25
 66
1
 10
0.0000
 20
0.0000
 30
0.0000
 40
0.0381
 41
0.0381
 70
0
  0
VERTEX
  8
25
 10
25.4196
 20
22.8141
 30
0.0000
 42
1.0000
  0
VERTEX
  8
25
 10
25.4577
 20
22.8141
 30
0.0000
  0
SEQEND
  8
0
  0
POLYLINE
  8
25
 66
1
 10
0.0000
 20
0.0000
 30
0.0000
 40
0.0381
 41
0.0381
 70
0
  0
VERTEX
  8
25
 10
25.4577
 20
23.5513
 30
0.0000
 42
1.0000
  0
VERTEX
  8
25
 10
25.4196
 20
23.5513
 30
0.0000
  0
SEQEND
  8
0
  0
POLYLINE
  8
25
 66
1
 10
0.0000
 20
0.0000
 30
0.0000
 40
0.0762
 41
0.0762
 70
0
  0
VERTEX
  8
25
 10
25.9414
 20
22.8141
 30
0.0000
  0
VERTEX
  8
25
 10
25.9414
 20
23.5513
 30
0.0000
  0
SEQEND
  8
0
  0
POLYLINE
  8
25
 66
1
 10
0.0000
 20
0.0000
 30
0.0000
 40
0.0381
 41
0.0381
 70
0
  0
VERTEX
  8
25
 10
25.9604
 20
23.5513
 30
0.0000
 42
1.0000
  0
VERTEX
  8
25
 10
25.9223
 20
23.5513
 30
0.0000
  0
SEQEND
  8
0
  0
POLYLINE
  8
25
 66
1
 10
0.0000
 20
0.0000
 30
0.0000
 40
0.0381
 41
0.0381
 70
0
  0
VERTEX
  8
25
 10
25.9223
 20
22.8141
 30
0.0000
 42
1.0000
  0
VERTEX
  8
25
 10
25.9604
 20
22.8141
 30
0.0000
  0
SEQEND
  8
0
  0
POLYLINE
  8
25
 66
1
 10
0.0000
 20
0.0000
 30
0.0000
 40
0.0762
 41
0.0762
 70
0
  0
VERTEX
  8
25
 10
25.6956
 20
23.5513
 30
0.0000
  0
VERTEX
  8
25
 10
26.1871
 20
23.5513
 30
0.0000
  0
SEQEND
  8
0
  0
POLYLINE
  8
25
 66
1
 10
0.0000
 20
0.0000
 30
0.0000
 40
0.0381
 41
0.0381
 70
0
  0
VERTEX
  8
25
 10
26.1871
 20
23.5323
 30
0.0000
 42
1.0000
  0
VERTEX
  8
25
 10
26.1871
 20
23.5704
 30
0.0000
  0
SEQEND
  8
0
  0
POLYLINE
  8
25
 66
1
 10
0.0000
 20
0.0000
 30
0.0000
 40
0.0381
 41
0.0381
 70
0
  0
VERTEX
  8
25
 10
25.6956
 20
23.5704
 30
0.0000
 42
1.0000
  0
VERTEX
  8
25
 10
25.6956
 20
23.5323
 30
0.0000
  0
SEQEND
  8
0
  0
INSERT
  8
17
  2
ROUNDP
 10
10.3800
 20
20.9500
 30
0.0000
 41
4.2160
 42
4.2160
 43
1.0000
 50
0.0000
  0
INSERT
  8
17
  2
ROUNDP
 10
10.3800
 20
20.9500
 30
0.0000
 41
4.2160
 42
4.2160
 43
1.0000
 50
0.0000
  0
INSERT
  8
29
  2
ROUNDP
 10
10.3800
 20
20.9500
 30
0.0000
 41
4.4192
 42
4.4192
 43
1.0000
 50
0.0000
  0
INSERT
  8
30
  2
ROUNDP
 10
10.3800
 20
20.9500
 30
0.0000
 41
4.4192
 42
4.4192
 43
1.0000
 50
0.0000
  0
CIRCLE
  8
44
 10
10.3800
 20
20.9500
 30
0.0000
 40
1.6000
  0
INSERT
  8
17
  2
ROUNDP
 10
44.0000
 20
20.9500
 30
0.0000
 41
4.2160
 42
4.2160
 43
1.0000
 50
0.0000
  0
INSERT
  8
17
  2
ROUNDP
 10
44.0000
 20
20.9500
 30
0.0000
 41
4.2160
 42
4.2160
 43
1.0000
 50
0.0000
  0
INSERT
  8
29
  2
ROUNDP
 10
44.0000
 20
20.9500
 30
0.0000
 41
4.4192
 42
4.4192
 43
1.0000
 50
0.0000
  0
INSERT
  8
30
  2
ROUNDP
 10
44.0000
 20
20.9500
 30
0.0000
 41
4.4192
 42
4.4192
 43
1.0000
 50
0.0000
  0
CIRCLE
  8
44
 10
44.0000
 20
20.9500
 30
0.0000
 40
1.6000
  0
INSERT
  8
17
  2
ROUNDP
 10
78.8600
 20
20.9500
 30
0.0000
 41
4.2160
 42
4.2160
 43
1.0000
 50
0.0000
  0
INSERT
  8
17
  2
ROUNDP
 10
78.8600
 20
20.9500
 30
0.0000
 41
4.2160
 42
4.2160
 43
1.0000
 50
0.0000
  0
INSERT
  8
29
  2
ROUNDP
 10
78.8600
 20
20.9500
 30
0.0000
 41
4.4192
 42
4.4192
 43
1.0000
 50
0.0000
  0
INSERT
  8
30
  2
ROUNDP
 10
78.8600
 20
20.9500
 30
0.0000
 41
4.4192
 42
4.4192
 43
1.0000
 50
0.0000
  0
CIRCLE
  8
44
 10
78.8600
 20
20.9500
 30
0.0000
 40
1.6000
  0
ENDSEC
  0
EOF
