G75*
%MOIN*%
%OFA0B0*%
%FSLAX25Y25*%
%IPPOS*%
%LPD*%
%AMOC8*
5,1,8,0,0,1.08239X$1,22.5*
%
%ADD10C,0.27559*%
%ADD11C,0.16598*%
%ADD12C,0.06000*%
%ADD13C,0.02200*%
%ADD14C,0.02000*%
%ADD15C,0.02100*%
%ADD16C,0.01000*%
%ADD17C,0.04950*%
%ADD18C,0.02000*%
%ADD19C,0.02400*%
%ADD20C,0.03200*%
D10*
X0031000Y0023898D03*
X0321000Y0023898D03*
X0336000Y0361299D03*
X0021000Y0361299D03*
D11*
X0045094Y0340512D03*
X0314701Y0340512D03*
D12*
X0301000Y0055000D03*
X0301000Y0045000D03*
X0301000Y0035000D03*
X0301000Y0025000D03*
X0291000Y0025000D03*
X0291000Y0035000D03*
X0291000Y0045000D03*
X0291000Y0055000D03*
X0281000Y0055000D03*
X0271000Y0055000D03*
X0271000Y0045000D03*
X0271000Y0035000D03*
X0281000Y0035000D03*
X0281000Y0045000D03*
X0281000Y0025000D03*
X0271000Y0025000D03*
X0261000Y0025000D03*
X0261000Y0035000D03*
X0261000Y0045000D03*
X0261000Y0055000D03*
X0251000Y0055000D03*
X0251000Y0045000D03*
X0251000Y0035000D03*
X0251000Y0025000D03*
X0241000Y0025000D03*
X0241000Y0035000D03*
X0241000Y0045000D03*
X0241000Y0055000D03*
X0231000Y0055000D03*
X0221000Y0055000D03*
X0221000Y0045000D03*
X0221000Y0035000D03*
X0231000Y0035000D03*
X0231000Y0045000D03*
X0231000Y0025000D03*
X0221000Y0025000D03*
X0211000Y0025000D03*
X0211000Y0035000D03*
X0211000Y0045000D03*
X0211000Y0055000D03*
X0201000Y0055000D03*
X0201000Y0045000D03*
X0201000Y0035000D03*
X0201000Y0025000D03*
X0191000Y0025000D03*
X0181000Y0025000D03*
X0181000Y0035000D03*
X0181000Y0045000D03*
X0191000Y0045000D03*
X0191000Y0035000D03*
X0191000Y0055000D03*
X0181000Y0055000D03*
X0171000Y0055000D03*
X0171000Y0045000D03*
X0171000Y0035000D03*
X0171000Y0025000D03*
X0161000Y0025000D03*
X0161000Y0035000D03*
X0161000Y0045000D03*
X0161000Y0055000D03*
X0151000Y0055000D03*
X0141000Y0055000D03*
X0141000Y0045000D03*
X0141000Y0035000D03*
X0151000Y0035000D03*
X0151000Y0045000D03*
X0151000Y0025000D03*
X0141000Y0025000D03*
X0131000Y0025000D03*
X0131000Y0035000D03*
X0131000Y0045000D03*
X0131000Y0055000D03*
X0121000Y0055000D03*
X0121000Y0045000D03*
X0121000Y0035000D03*
X0121000Y0025000D03*
X0111000Y0025000D03*
X0111000Y0035000D03*
X0111000Y0045000D03*
X0111000Y0055000D03*
X0101000Y0055000D03*
X0091000Y0055000D03*
X0091000Y0045000D03*
X0091000Y0035000D03*
X0101000Y0035000D03*
X0101000Y0045000D03*
X0101000Y0025000D03*
X0091000Y0025000D03*
X0081000Y0025000D03*
X0081000Y0035000D03*
X0081000Y0045000D03*
X0081000Y0055000D03*
X0071000Y0055000D03*
X0071000Y0045000D03*
X0071000Y0035000D03*
X0071000Y0025000D03*
X0061000Y0025000D03*
X0051000Y0025000D03*
X0051000Y0035000D03*
X0051000Y0045000D03*
X0061000Y0045000D03*
X0061000Y0035000D03*
X0061000Y0055000D03*
X0051000Y0055000D03*
D13*
X0069179Y0070900D03*
X0084079Y0076500D03*
X0069279Y0091100D03*
X0067379Y0101300D03*
X0080079Y0098600D03*
X0106679Y0066100D03*
X0085479Y0023100D03*
X0082979Y0012900D03*
X0056179Y0012300D03*
X0064779Y0141900D03*
X0069079Y0149300D03*
X0069079Y0158300D03*
X0051679Y0162200D03*
X0052679Y0193000D03*
X0091379Y0168300D03*
X0192879Y0261800D03*
X0197579Y0271000D03*
X0220179Y0289700D03*
X0216779Y0296400D03*
X0217179Y0301800D03*
X0217279Y0306800D03*
X0211679Y0306700D03*
X0206679Y0306700D03*
X0206479Y0301500D03*
X0211679Y0301500D03*
X0211479Y0296700D03*
X0201679Y0301500D03*
X0201579Y0306800D03*
X0201700Y0316600D03*
X0201700Y0321600D03*
X0201950Y0326600D03*
X0201700Y0331600D03*
X0206950Y0331600D03*
X0206950Y0336100D03*
X0211700Y0331850D03*
X0211700Y0326600D03*
X0206700Y0326600D03*
X0206700Y0321850D03*
X0211700Y0321850D03*
X0211950Y0316600D03*
X0206700Y0316600D03*
X0216900Y0316650D03*
X0216700Y0321850D03*
X0216800Y0326550D03*
X0216950Y0343850D03*
X0219700Y0343850D03*
X0214200Y0344100D03*
X0214200Y0346600D03*
X0213950Y0349100D03*
X0213950Y0351600D03*
X0213950Y0354100D03*
X0213700Y0356600D03*
X0213700Y0359100D03*
X0214450Y0361600D03*
X0216950Y0361600D03*
X0219450Y0361850D03*
X0187179Y0360000D03*
X0187279Y0357300D03*
X0187279Y0354600D03*
X0187379Y0351700D03*
X0187479Y0349000D03*
X0187579Y0346300D03*
X0185779Y0344000D03*
X0182979Y0344100D03*
X0181879Y0331900D03*
X0181779Y0326800D03*
X0181579Y0321700D03*
X0176579Y0321700D03*
X0176579Y0316700D03*
X0166879Y0316600D03*
X0166879Y0321700D03*
X0166779Y0326700D03*
X0166779Y0331500D03*
X0161779Y0331400D03*
X0161879Y0326700D03*
X0157079Y0326700D03*
X0157079Y0321500D03*
X0161779Y0321600D03*
X0161579Y0316500D03*
X0156879Y0316400D03*
X0176579Y0326700D03*
X0176579Y0331900D03*
X0182179Y0361200D03*
X0184679Y0361200D03*
X0294479Y0258300D03*
X0269629Y0237400D03*
X0279879Y0199300D03*
X0269379Y0167700D03*
X0289479Y0143900D03*
X0288979Y0136300D03*
X0279379Y0115100D03*
X0269379Y0101100D03*
X0307079Y0169700D03*
D14*
X0296579Y0204800D03*
X0286479Y0228100D03*
X0296579Y0269100D03*
X0256379Y0269500D03*
X0211879Y0270600D03*
X0153579Y0318700D03*
X0150379Y0320100D03*
X0082379Y0183800D03*
X0060479Y0164300D03*
X0095579Y0058300D03*
X0096379Y0052300D03*
X0076679Y0052000D03*
X0048379Y0017800D03*
X0046979Y0009900D03*
X0063379Y0011800D03*
X0091579Y0011800D03*
X0099179Y0012800D03*
X0125879Y0022100D03*
X0136279Y0049600D03*
X0163579Y0050100D03*
X0177679Y0029800D03*
X0187179Y0029900D03*
X0189479Y0012000D03*
X0194879Y0011900D03*
X0200879Y0012000D03*
X0204079Y0012500D03*
X0179279Y0012500D03*
X0179279Y0009100D03*
X0204379Y0041600D03*
X0204679Y0051700D03*
X0206579Y0058600D03*
X0225479Y0042500D03*
X0237079Y0057700D03*
X0246079Y0042700D03*
X0255979Y0042700D03*
X0265279Y0042200D03*
X0265879Y0052100D03*
X0264879Y0059200D03*
X0294179Y0051600D03*
X0283779Y0030100D03*
X0286179Y0022100D03*
X0288779Y0020600D03*
X0283379Y0020600D03*
X0285479Y0013000D03*
X0288079Y0012000D03*
X0291479Y0012100D03*
X0296079Y0012100D03*
X0299279Y0013200D03*
X0302079Y0008600D03*
X0294979Y0020600D03*
X0282779Y0011900D03*
X0279079Y0011900D03*
X0274879Y0011900D03*
X0270779Y0011900D03*
X0266879Y0011900D03*
X0262779Y0012100D03*
X0259879Y0012300D03*
X0255779Y0012000D03*
X0251979Y0012000D03*
X0248679Y0012000D03*
X0244379Y0012000D03*
X0273779Y0020600D03*
D15*
X0236479Y0020700D03*
X0197079Y0020500D03*
X0078179Y0066400D03*
X0065979Y0022900D03*
X0283779Y0187700D03*
X0287179Y0178450D03*
X0298279Y0208700D03*
X0191979Y0281400D03*
X0186479Y0276400D03*
X0181579Y0276800D03*
X0176679Y0276600D03*
X0176579Y0270400D03*
X0181579Y0271200D03*
X0191729Y0296650D03*
X0191779Y0306500D03*
X0186779Y0306700D03*
X0181879Y0306700D03*
X0181579Y0301600D03*
X0176679Y0301700D03*
X0171679Y0301700D03*
X0166679Y0301800D03*
X0166679Y0306800D03*
X0171679Y0306800D03*
X0176779Y0306700D03*
X0186679Y0311700D03*
X0187579Y0316700D03*
X0187829Y0321700D03*
X0191679Y0321900D03*
X0191779Y0316900D03*
X0191479Y0311800D03*
X0191679Y0327000D03*
X0161679Y0306800D03*
X0161779Y0301600D03*
X0151779Y0306350D03*
X0147979Y0306350D03*
D16*
X0009779Y0031000D02*
X0009779Y0013400D01*
X0016279Y0006900D01*
X0040479Y0006900D01*
X0043479Y0009900D01*
X0046979Y0009900D01*
X0065979Y0008500D02*
X0067679Y0006800D01*
X0296279Y0006800D01*
X0296379Y0006900D01*
X0298079Y0008600D01*
X0302079Y0008600D01*
X0303779Y0016300D02*
X0295379Y0016300D01*
X0293979Y0014100D01*
X0293979Y0009600D01*
X0289479Y0009500D01*
X0285179Y0009500D01*
X0282779Y0011900D01*
X0285479Y0013000D02*
X0285479Y0017500D01*
X0286179Y0022100D02*
X0286079Y0038800D01*
X0284779Y0040100D01*
X0277979Y0040100D01*
X0276079Y0042000D01*
X0276079Y0047600D01*
X0273679Y0050000D01*
X0213979Y0050000D01*
X0206379Y0050000D01*
X0204679Y0051700D01*
X0195879Y0061100D02*
X0193879Y0063100D01*
X0113379Y0063100D01*
X0110979Y0060700D01*
X0109979Y0060700D01*
X0109479Y0060200D01*
X0097479Y0060200D01*
X0095579Y0058300D01*
X0096479Y0062400D02*
X0105379Y0062400D01*
X0106579Y0062400D01*
X0112079Y0067600D01*
X0256579Y0067400D01*
X0259579Y0064400D01*
X0263979Y0064400D01*
X0272879Y0073000D01*
X0272879Y0078500D01*
X0294779Y0100400D01*
X0294779Y0133900D01*
X0292379Y0136300D01*
X0288979Y0136300D01*
X0290279Y0062400D02*
X0268179Y0062400D01*
X0264979Y0059200D01*
X0264879Y0059200D01*
X0265279Y0042200D02*
X0266979Y0039900D01*
X0274779Y0039900D01*
X0275979Y0038700D01*
X0275979Y0014400D01*
X0278479Y0011900D01*
X0279079Y0011900D01*
X0274879Y0011900D02*
X0274479Y0011900D01*
X0267479Y0018900D01*
X0258879Y0018900D01*
X0256279Y0021500D01*
X0256279Y0042400D01*
X0255979Y0042700D01*
X0246079Y0042700D02*
X0246079Y0019700D01*
X0248879Y0016900D01*
X0266179Y0016900D01*
X0270779Y0012300D01*
X0270779Y0011900D01*
X0262779Y0012100D02*
X0259579Y0008900D01*
X0188579Y0008900D01*
X0185879Y0011600D01*
X0185879Y0028000D01*
X0187179Y0029300D01*
X0187179Y0029900D01*
X0195879Y0032200D02*
X0198079Y0030000D01*
X0204279Y0030000D01*
X0206279Y0028000D01*
X0206279Y0018700D01*
X0204079Y0016500D01*
X0204079Y0012500D01*
X0195879Y0032200D02*
X0195879Y0061100D01*
X0156079Y0040000D02*
X0078879Y0040000D01*
X0078779Y0039900D01*
X0077479Y0039900D01*
X0076079Y0038500D01*
X0074479Y0049800D02*
X0076679Y0052000D01*
X0074479Y0049800D02*
X0043779Y0049800D01*
X0033879Y0039900D01*
X0018679Y0039900D01*
X0009779Y0031000D01*
X0065979Y0022900D02*
X0065979Y0008500D01*
X0082979Y0012900D02*
X0085379Y0012900D01*
X0086079Y0014300D01*
X0086079Y0022500D01*
X0085479Y0023100D01*
X0096479Y0062400D02*
X0092179Y0066400D01*
X0086879Y0066400D01*
X0083479Y0066400D01*
X0088779Y0069600D02*
X0092179Y0066400D01*
X0088779Y0069600D02*
X0088779Y0132500D01*
X0082879Y0138400D01*
X0066879Y0138400D01*
X0064779Y0140500D01*
X0064779Y0141900D01*
X0105079Y0062400D02*
X0105379Y0062400D01*
X0105079Y0062400D01*
X0125879Y0022100D02*
X0125879Y0021800D01*
X0129679Y0018000D01*
X0177479Y0018000D01*
X0179279Y0016200D01*
X0179279Y0012500D01*
X0290279Y0062400D02*
X0291979Y0060700D01*
X0309379Y0060700D01*
X0311679Y0058400D01*
X0315879Y0058400D01*
X0337079Y0037200D01*
X0337079Y0014000D01*
X0337079Y0013300D01*
X0332579Y0008800D01*
X0311279Y0008800D01*
X0303779Y0016300D01*
X0176679Y0276600D02*
X0176579Y0277100D01*
X0176779Y0277300D01*
X0176779Y0281000D01*
X0178979Y0283200D01*
X0184679Y0283200D01*
X0187679Y0286200D01*
X0187679Y0289100D01*
X0187779Y0289200D01*
X0191679Y0292250D01*
X0191729Y0296650D01*
D17*
X0225079Y0254700D03*
X0269479Y0255400D03*
X0136479Y0265800D03*
X0075979Y0239400D03*
X0060879Y0218400D03*
X0038679Y0052200D03*
D18*
X0150279Y0252000D02*
X0136479Y0265800D01*
X0150279Y0252000D02*
X0200879Y0252000D01*
X0211579Y0262700D01*
X0271479Y0262700D01*
X0276539Y0257640D01*
X0276539Y0253860D01*
X0272029Y0249350D01*
X0272029Y0242850D01*
X0275279Y0239600D01*
X0275279Y0234450D01*
X0271979Y0231150D01*
X0272029Y0194950D01*
X0279279Y0187700D01*
X0283779Y0187700D01*
X0269479Y0255400D02*
X0269379Y0255400D01*
X0266879Y0257900D01*
X0228279Y0257900D01*
X0225079Y0254700D01*
D19*
X0083479Y0066400D03*
X0076079Y0038500D03*
X0057079Y0039800D03*
X0059679Y0012050D03*
X0156079Y0040000D03*
D20*
X0280379Y0192800D03*
M02*
