G75*
%MOIN*%
%OFA0B0*%
%FSLAX25Y25*%
%IPPOS*%
%LPD*%
%AMOC8*
5,1,8,0,0,1.08239X$1,22.5*
%
%ADD10C,0.27559*%
%ADD11C,0.16598*%
%ADD12C,0.00800*%
%ADD13R,0.02638X0.01181*%
%ADD14R,0.01969X0.01181*%
%ADD15R,0.03937X0.01378*%
%ADD16C,0.00000*%
%ADD17R,0.06400X0.06400*%
%ADD18C,0.06400*%
%ADD19R,0.03150X0.02756*%
%ADD20C,0.00709*%
%ADD21R,0.03346X0.02362*%
%ADD22C,0.02200*%
%ADD23C,0.01000*%
%ADD24C,0.02000*%
%ADD25C,0.02100*%
%ADD26C,0.04950*%
%ADD27C,0.02000*%
%ADD28C,0.01600*%
%ADD29C,0.02400*%
%ADD30C,0.03200*%
%ADD31C,0.01400*%
D10*
X0031000Y0023898D03*
X0321000Y0023898D03*
X0336000Y0361299D03*
X0021000Y0361299D03*
D11*
X0045094Y0340512D03*
X0314701Y0340512D03*
D12*
X0327538Y0328550D02*
X0328038Y0329050D01*
X0328538Y0329050D01*
X0328538Y0324850D01*
X0330938Y0322450D01*
X0334338Y0322450D01*
X0336638Y0324750D01*
X0336638Y0328650D01*
X0337138Y0329150D01*
X0341338Y0329150D01*
X0342338Y0328150D01*
X0342338Y0309850D01*
X0341738Y0309250D01*
X0337538Y0309250D01*
X0336738Y0310050D01*
X0336738Y0313650D01*
X0334338Y0316050D01*
X0331138Y0316050D01*
X0328638Y0313550D01*
X0328638Y0309650D01*
X0328438Y0309450D01*
X0327638Y0309450D01*
X0327538Y0309450D01*
X0327538Y0328550D01*
X0327538Y0328397D02*
X0328538Y0328397D01*
X0328538Y0327599D02*
X0327538Y0327599D01*
X0327538Y0326800D02*
X0328538Y0326800D01*
X0328538Y0326002D02*
X0327538Y0326002D01*
X0327538Y0325203D02*
X0328538Y0325203D01*
X0328983Y0324405D02*
X0327538Y0324405D01*
X0327538Y0323606D02*
X0329781Y0323606D01*
X0330580Y0322808D02*
X0327538Y0322808D01*
X0327538Y0322009D02*
X0342338Y0322009D01*
X0342338Y0322808D02*
X0334696Y0322808D01*
X0335494Y0323606D02*
X0342338Y0323606D01*
X0342338Y0324405D02*
X0336293Y0324405D01*
X0336638Y0325203D02*
X0342338Y0325203D01*
X0342338Y0326002D02*
X0336638Y0326002D01*
X0336638Y0326800D02*
X0342338Y0326800D01*
X0342338Y0327599D02*
X0336638Y0327599D01*
X0336638Y0328397D02*
X0342090Y0328397D01*
X0342338Y0321210D02*
X0327538Y0321210D01*
X0327538Y0320412D02*
X0342338Y0320412D01*
X0342338Y0319613D02*
X0327538Y0319613D01*
X0327538Y0318815D02*
X0342338Y0318815D01*
X0342338Y0318016D02*
X0327538Y0318016D01*
X0327538Y0317218D02*
X0342338Y0317218D01*
X0342338Y0316419D02*
X0327538Y0316419D01*
X0327538Y0315621D02*
X0330709Y0315621D01*
X0329911Y0314822D02*
X0327538Y0314822D01*
X0327538Y0314024D02*
X0329112Y0314024D01*
X0328638Y0313225D02*
X0327538Y0313225D01*
X0327538Y0312427D02*
X0328638Y0312427D01*
X0328638Y0311628D02*
X0327538Y0311628D01*
X0327538Y0310830D02*
X0328638Y0310830D01*
X0328638Y0310031D02*
X0327538Y0310031D01*
X0334766Y0315621D02*
X0342338Y0315621D01*
X0342338Y0314822D02*
X0335565Y0314822D01*
X0336364Y0314024D02*
X0342338Y0314024D01*
X0342338Y0313225D02*
X0336738Y0313225D01*
X0336738Y0312427D02*
X0342338Y0312427D01*
X0342338Y0311628D02*
X0336738Y0311628D01*
X0336738Y0310830D02*
X0342338Y0310830D01*
X0342338Y0310031D02*
X0336756Y0310031D01*
X0280079Y0247100D02*
X0280079Y0241400D01*
X0279979Y0227100D01*
X0279979Y0220700D01*
X0279879Y0199300D01*
X0282053Y0197126D01*
X0293008Y0197126D01*
X0298279Y0208700D02*
X0298279Y0209900D01*
X0296929Y0211250D01*
X0293057Y0211250D01*
X0293008Y0211299D01*
X0287179Y0178450D02*
X0286679Y0178450D01*
X0276779Y0178450D01*
X0275129Y0175850D01*
X0275129Y0167850D01*
X0274381Y0167102D01*
X0272535Y0167102D01*
X0271479Y0139400D02*
X0271479Y0112625D01*
X0273979Y0112625D01*
X0273979Y0139400D01*
X0271479Y0139400D01*
X0271479Y0139150D02*
X0273979Y0139150D01*
X0273979Y0138351D02*
X0271479Y0138351D01*
X0271479Y0137553D02*
X0273979Y0137553D01*
X0273979Y0136754D02*
X0271479Y0136754D01*
X0271479Y0135956D02*
X0273979Y0135956D01*
X0273979Y0135157D02*
X0271479Y0135157D01*
X0271479Y0134359D02*
X0273979Y0134359D01*
X0273979Y0133560D02*
X0271479Y0133560D01*
X0271479Y0132762D02*
X0273979Y0132762D01*
X0273979Y0131963D02*
X0271479Y0131963D01*
X0271479Y0131165D02*
X0273979Y0131165D01*
X0273979Y0130366D02*
X0271479Y0130366D01*
X0271479Y0129568D02*
X0273979Y0129568D01*
X0273979Y0128769D02*
X0271479Y0128769D01*
X0271479Y0127971D02*
X0273979Y0127971D01*
X0273979Y0127172D02*
X0271479Y0127172D01*
X0271479Y0126374D02*
X0273979Y0126374D01*
X0273979Y0125575D02*
X0271479Y0125575D01*
X0271479Y0124777D02*
X0273979Y0124777D01*
X0273979Y0123978D02*
X0271479Y0123978D01*
X0271479Y0123180D02*
X0273979Y0123180D01*
X0273979Y0122381D02*
X0271479Y0122381D01*
X0271479Y0121583D02*
X0273979Y0121583D01*
X0273979Y0120784D02*
X0271479Y0120784D01*
X0271479Y0119986D02*
X0273979Y0119986D01*
X0273979Y0119187D02*
X0271479Y0119187D01*
X0271479Y0118389D02*
X0273979Y0118389D01*
X0273979Y0117590D02*
X0271479Y0117590D01*
X0271479Y0116792D02*
X0273979Y0116792D01*
X0273979Y0115993D02*
X0271479Y0115993D01*
X0271479Y0115195D02*
X0273979Y0115195D01*
X0273979Y0114396D02*
X0271479Y0114396D01*
X0271479Y0113598D02*
X0273979Y0113598D01*
X0273979Y0112799D02*
X0271479Y0112799D01*
X0280079Y0247100D02*
X0274579Y0251300D01*
X0274779Y0264600D01*
X0270979Y0266600D01*
X0194179Y0266500D01*
X0191979Y0268700D01*
X0191979Y0281400D01*
X0186479Y0298100D02*
X0146879Y0297600D01*
X0146679Y0311000D01*
X0183079Y0310900D01*
X0182979Y0316300D01*
X0187479Y0316400D01*
X0187379Y0331200D01*
X0195179Y0331500D01*
X0194979Y0302100D01*
X0186279Y0302100D01*
X0186479Y0298100D01*
X0186441Y0298852D02*
X0146860Y0298852D01*
X0146872Y0298054D02*
X0182808Y0298054D01*
X0186401Y0299651D02*
X0146848Y0299651D01*
X0146836Y0300449D02*
X0186361Y0300449D01*
X0186321Y0301248D02*
X0146824Y0301248D01*
X0146812Y0302046D02*
X0186281Y0302046D01*
X0194984Y0302845D02*
X0146800Y0302845D01*
X0146789Y0303643D02*
X0194989Y0303643D01*
X0194995Y0304442D02*
X0146777Y0304442D01*
X0146765Y0305240D02*
X0195000Y0305240D01*
X0195006Y0306039D02*
X0146753Y0306039D01*
X0146741Y0306837D02*
X0195011Y0306837D01*
X0195016Y0307636D02*
X0146729Y0307636D01*
X0146717Y0308434D02*
X0195022Y0308434D01*
X0195027Y0309233D02*
X0146705Y0309233D01*
X0146693Y0310031D02*
X0195033Y0310031D01*
X0195038Y0310830D02*
X0146681Y0310830D01*
X0183065Y0311628D02*
X0195044Y0311628D01*
X0195049Y0312427D02*
X0183050Y0312427D01*
X0183036Y0313225D02*
X0195054Y0313225D01*
X0195060Y0314024D02*
X0183021Y0314024D01*
X0183006Y0314822D02*
X0195065Y0314822D01*
X0195071Y0315621D02*
X0182991Y0315621D01*
X0187479Y0316419D02*
X0195076Y0316419D01*
X0195082Y0317218D02*
X0187473Y0317218D01*
X0187468Y0318016D02*
X0195087Y0318016D01*
X0195092Y0318815D02*
X0187462Y0318815D01*
X0187457Y0319613D02*
X0195098Y0319613D01*
X0195103Y0320412D02*
X0187452Y0320412D01*
X0187446Y0321210D02*
X0195109Y0321210D01*
X0195114Y0322009D02*
X0187441Y0322009D01*
X0187435Y0322808D02*
X0195120Y0322808D01*
X0195125Y0323606D02*
X0187430Y0323606D01*
X0187425Y0324405D02*
X0195130Y0324405D01*
X0195136Y0325203D02*
X0187419Y0325203D01*
X0187414Y0326002D02*
X0195141Y0326002D01*
X0195147Y0326800D02*
X0187408Y0326800D01*
X0187403Y0327599D02*
X0195152Y0327599D01*
X0195158Y0328397D02*
X0187398Y0328397D01*
X0187392Y0329196D02*
X0195163Y0329196D01*
X0195169Y0329994D02*
X0187387Y0329994D01*
X0187381Y0330793D02*
X0195174Y0330793D01*
X0198339Y0330793D02*
X0224179Y0330793D01*
X0224181Y0331591D02*
X0198341Y0331591D01*
X0198344Y0332390D02*
X0224183Y0332390D01*
X0224185Y0333188D02*
X0198347Y0333188D01*
X0198350Y0333987D02*
X0224188Y0333987D01*
X0224190Y0334785D02*
X0198352Y0334785D01*
X0198355Y0335584D02*
X0224192Y0335584D01*
X0224194Y0336382D02*
X0198358Y0336382D01*
X0198361Y0337181D02*
X0224197Y0337181D01*
X0224199Y0337979D02*
X0198363Y0337979D01*
X0198366Y0338778D02*
X0224201Y0338778D01*
X0224203Y0339576D02*
X0198369Y0339576D01*
X0198372Y0340375D02*
X0224206Y0340375D01*
X0224208Y0341173D02*
X0198374Y0341173D01*
X0198377Y0341972D02*
X0224210Y0341972D01*
X0224212Y0342770D02*
X0198380Y0342770D01*
X0198382Y0343569D02*
X0224215Y0343569D01*
X0224217Y0344367D02*
X0198385Y0344367D01*
X0198388Y0345166D02*
X0224219Y0345166D01*
X0224221Y0345964D02*
X0198391Y0345964D01*
X0198393Y0346763D02*
X0224224Y0346763D01*
X0224226Y0347561D02*
X0198396Y0347561D01*
X0198399Y0348360D02*
X0224228Y0348360D01*
X0224230Y0349158D02*
X0198402Y0349158D01*
X0198404Y0349957D02*
X0224233Y0349957D01*
X0224235Y0350755D02*
X0198407Y0350755D01*
X0198410Y0351554D02*
X0224237Y0351554D01*
X0224239Y0352352D02*
X0198413Y0352352D01*
X0198415Y0353151D02*
X0224242Y0353151D01*
X0224244Y0353949D02*
X0198418Y0353949D01*
X0198421Y0354748D02*
X0224246Y0354748D01*
X0224248Y0355546D02*
X0198423Y0355546D01*
X0198426Y0356345D02*
X0224251Y0356345D01*
X0224253Y0357143D02*
X0198429Y0357143D01*
X0198432Y0357942D02*
X0224255Y0357942D01*
X0224257Y0358741D02*
X0198434Y0358741D01*
X0198437Y0359539D02*
X0224260Y0359539D01*
X0224262Y0360338D02*
X0198440Y0360338D01*
X0198443Y0361136D02*
X0224264Y0361136D01*
X0224266Y0361935D02*
X0198445Y0361935D01*
X0198448Y0362733D02*
X0224269Y0362733D01*
X0224271Y0363532D02*
X0198451Y0363532D01*
X0198454Y0364330D02*
X0224273Y0364330D01*
X0224275Y0365129D02*
X0198456Y0365129D01*
X0198459Y0365927D02*
X0224278Y0365927D01*
X0224279Y0366300D02*
X0224129Y0313150D01*
X0198279Y0313250D01*
X0198479Y0371700D01*
X0218579Y0372000D01*
X0224279Y0366300D01*
X0223853Y0366726D02*
X0198462Y0366726D01*
X0198464Y0367524D02*
X0223055Y0367524D01*
X0222256Y0368323D02*
X0198467Y0368323D01*
X0198470Y0369121D02*
X0221458Y0369121D01*
X0220659Y0369920D02*
X0198473Y0369920D01*
X0198475Y0370718D02*
X0219861Y0370718D01*
X0219062Y0371517D02*
X0198478Y0371517D01*
X0198336Y0329994D02*
X0224176Y0329994D01*
X0224174Y0329196D02*
X0198333Y0329196D01*
X0198331Y0328397D02*
X0224172Y0328397D01*
X0224170Y0327599D02*
X0198328Y0327599D01*
X0198325Y0326800D02*
X0224167Y0326800D01*
X0224165Y0326002D02*
X0198322Y0326002D01*
X0198320Y0325203D02*
X0224163Y0325203D01*
X0224161Y0324405D02*
X0198317Y0324405D01*
X0198314Y0323606D02*
X0224158Y0323606D01*
X0224156Y0322808D02*
X0198311Y0322808D01*
X0198309Y0322009D02*
X0224154Y0322009D01*
X0224151Y0321210D02*
X0198306Y0321210D01*
X0198303Y0320412D02*
X0224149Y0320412D01*
X0224147Y0319613D02*
X0198301Y0319613D01*
X0198298Y0318815D02*
X0224145Y0318815D01*
X0224142Y0318016D02*
X0198295Y0318016D01*
X0198292Y0317218D02*
X0224140Y0317218D01*
X0224138Y0316419D02*
X0198290Y0316419D01*
X0198287Y0315621D02*
X0224136Y0315621D01*
X0224133Y0314822D02*
X0198284Y0314822D01*
X0198281Y0314024D02*
X0224131Y0314024D01*
X0224129Y0313225D02*
X0204646Y0313225D01*
X0030454Y0313225D02*
X0029454Y0313225D01*
X0029454Y0313450D02*
X0027054Y0315850D01*
X0023654Y0315850D01*
X0021354Y0313550D01*
X0021354Y0309650D01*
X0020854Y0309150D01*
X0016654Y0309150D01*
X0015654Y0310150D01*
X0015654Y0328450D01*
X0016254Y0329050D01*
X0020454Y0329050D01*
X0021254Y0328250D01*
X0021254Y0324650D01*
X0023654Y0322250D01*
X0026854Y0322250D01*
X0029354Y0324750D01*
X0029354Y0328650D01*
X0029554Y0328850D01*
X0030354Y0328850D01*
X0030454Y0328850D01*
X0030454Y0309750D01*
X0029954Y0309250D01*
X0029454Y0309250D01*
X0029454Y0313450D01*
X0028880Y0314024D02*
X0030454Y0314024D01*
X0030454Y0314822D02*
X0028082Y0314822D01*
X0027283Y0315621D02*
X0030454Y0315621D01*
X0030454Y0316419D02*
X0015654Y0316419D01*
X0015654Y0315621D02*
X0023426Y0315621D01*
X0022627Y0314822D02*
X0015654Y0314822D01*
X0015654Y0314024D02*
X0021829Y0314024D01*
X0021354Y0313225D02*
X0015654Y0313225D01*
X0015654Y0312427D02*
X0021354Y0312427D01*
X0021354Y0311628D02*
X0015654Y0311628D01*
X0015654Y0310830D02*
X0021354Y0310830D01*
X0021354Y0310031D02*
X0015773Y0310031D01*
X0016571Y0309233D02*
X0020938Y0309233D01*
X0015654Y0317218D02*
X0030454Y0317218D01*
X0030454Y0318016D02*
X0015654Y0318016D01*
X0015654Y0318815D02*
X0030454Y0318815D01*
X0030454Y0319613D02*
X0015654Y0319613D01*
X0015654Y0320412D02*
X0030454Y0320412D01*
X0030454Y0321210D02*
X0015654Y0321210D01*
X0015654Y0322009D02*
X0030454Y0322009D01*
X0030454Y0322808D02*
X0027412Y0322808D01*
X0028211Y0323606D02*
X0030454Y0323606D01*
X0030454Y0324405D02*
X0029009Y0324405D01*
X0029354Y0325203D02*
X0030454Y0325203D01*
X0030454Y0326002D02*
X0029354Y0326002D01*
X0029354Y0326800D02*
X0030454Y0326800D01*
X0030454Y0327599D02*
X0029354Y0327599D01*
X0029354Y0328397D02*
X0030454Y0328397D01*
X0023096Y0322808D02*
X0015654Y0322808D01*
X0015654Y0323606D02*
X0022298Y0323606D01*
X0021499Y0324405D02*
X0015654Y0324405D01*
X0015654Y0325203D02*
X0021254Y0325203D01*
X0021254Y0326002D02*
X0015654Y0326002D01*
X0015654Y0326800D02*
X0021254Y0326800D01*
X0021254Y0327599D02*
X0015654Y0327599D01*
X0015654Y0328397D02*
X0021107Y0328397D01*
X0029454Y0312427D02*
X0030454Y0312427D01*
X0030454Y0311628D02*
X0029454Y0311628D01*
X0029454Y0310830D02*
X0030454Y0310830D01*
X0030454Y0310031D02*
X0029454Y0310031D01*
D13*
X0284602Y0170646D03*
X0284602Y0168283D03*
X0284602Y0165921D03*
X0284602Y0163559D03*
X0284602Y0161197D03*
X0284602Y0158835D03*
X0284602Y0156472D03*
X0284602Y0154110D03*
X0284602Y0151748D03*
X0284602Y0149386D03*
X0284602Y0147024D03*
X0284602Y0144661D03*
X0284602Y0142299D03*
X0284602Y0139937D03*
X0284602Y0137575D03*
X0284602Y0135213D03*
X0284602Y0132850D03*
X0284602Y0130488D03*
X0284602Y0128126D03*
X0284602Y0125764D03*
X0284602Y0123402D03*
X0284602Y0121039D03*
X0284602Y0118677D03*
X0284602Y0116315D03*
X0284602Y0113953D03*
X0284602Y0111591D03*
D14*
X0272535Y0112772D03*
X0272535Y0115134D03*
X0272535Y0117496D03*
X0272535Y0119858D03*
X0272535Y0122220D03*
X0272535Y0124583D03*
X0272535Y0126945D03*
X0272535Y0129307D03*
X0272535Y0131669D03*
X0272535Y0134031D03*
X0272535Y0136394D03*
X0272535Y0138756D03*
X0272535Y0141118D03*
X0272535Y0143480D03*
X0272535Y0145843D03*
X0272535Y0148205D03*
X0272535Y0150567D03*
X0272535Y0152929D03*
X0272535Y0155291D03*
X0272535Y0157654D03*
X0272535Y0160016D03*
X0272535Y0162378D03*
X0272535Y0164740D03*
X0272535Y0167102D03*
X0272535Y0169465D03*
D15*
X0283559Y0174484D03*
X0283559Y0107752D03*
D16*
X0285154Y0176551D02*
X0285189Y0176551D01*
D17*
X0301000Y0055000D03*
X0301000Y0035000D03*
D18*
X0301000Y0045000D03*
X0291000Y0045000D03*
X0291000Y0035000D03*
X0291000Y0025000D03*
X0281000Y0025000D03*
X0271000Y0025000D03*
X0271000Y0035000D03*
X0271000Y0045000D03*
X0281000Y0045000D03*
X0281000Y0035000D03*
X0281000Y0055000D03*
X0271000Y0055000D03*
X0261000Y0055000D03*
X0261000Y0045000D03*
X0261000Y0035000D03*
X0261000Y0025000D03*
X0251000Y0025000D03*
X0251000Y0035000D03*
X0251000Y0045000D03*
X0251000Y0055000D03*
X0241000Y0055000D03*
X0241000Y0045000D03*
X0241000Y0035000D03*
X0241000Y0025000D03*
X0231000Y0025000D03*
X0221000Y0025000D03*
X0221000Y0035000D03*
X0221000Y0045000D03*
X0231000Y0045000D03*
X0231000Y0035000D03*
X0231000Y0055000D03*
X0221000Y0055000D03*
X0211000Y0055000D03*
X0211000Y0045000D03*
X0211000Y0035000D03*
X0211000Y0025000D03*
X0201000Y0025000D03*
X0201000Y0035000D03*
X0201000Y0045000D03*
X0201000Y0055000D03*
X0191000Y0055000D03*
X0181000Y0055000D03*
X0181000Y0045000D03*
X0181000Y0035000D03*
X0191000Y0035000D03*
X0191000Y0045000D03*
X0191000Y0025000D03*
X0181000Y0025000D03*
X0171000Y0025000D03*
X0171000Y0035000D03*
X0171000Y0045000D03*
X0171000Y0055000D03*
X0161000Y0055000D03*
X0161000Y0045000D03*
X0161000Y0035000D03*
X0161000Y0025000D03*
X0151000Y0025000D03*
X0141000Y0025000D03*
X0141000Y0035000D03*
X0141000Y0045000D03*
X0151000Y0045000D03*
X0151000Y0035000D03*
X0151000Y0055000D03*
X0141000Y0055000D03*
X0131000Y0055000D03*
X0131000Y0045000D03*
X0131000Y0035000D03*
X0131000Y0025000D03*
X0121000Y0025000D03*
X0121000Y0035000D03*
X0121000Y0045000D03*
X0121000Y0055000D03*
X0111000Y0055000D03*
X0111000Y0045000D03*
X0111000Y0035000D03*
X0111000Y0025000D03*
X0101000Y0025000D03*
X0091000Y0025000D03*
X0091000Y0035000D03*
X0091000Y0045000D03*
X0101000Y0045000D03*
X0101000Y0035000D03*
X0101000Y0055000D03*
X0091000Y0055000D03*
X0081000Y0055000D03*
X0081000Y0045000D03*
X0081000Y0035000D03*
X0081000Y0025000D03*
X0071000Y0025000D03*
X0071000Y0035000D03*
X0071000Y0045000D03*
X0071000Y0055000D03*
X0061000Y0055000D03*
X0051000Y0055000D03*
X0051000Y0045000D03*
X0051000Y0035000D03*
X0061000Y0035000D03*
X0061000Y0045000D03*
X0061000Y0025000D03*
X0051000Y0025000D03*
X0291000Y0055000D03*
X0301000Y0025000D03*
D19*
X0307870Y0183150D03*
X0307870Y0220551D03*
D20*
X0294327Y0188504D02*
X0291689Y0188504D01*
X0294327Y0188504D02*
X0294327Y0186850D01*
X0291689Y0186850D01*
X0291689Y0188504D01*
X0291689Y0187558D02*
X0294327Y0187558D01*
X0294327Y0188266D02*
X0291689Y0188266D01*
D21*
X0293008Y0192402D03*
X0293008Y0197126D03*
X0293008Y0201850D03*
X0293008Y0206575D03*
X0293008Y0211299D03*
X0293008Y0216024D03*
D22*
X0279879Y0199300D03*
X0269379Y0167700D03*
X0289479Y0143900D03*
X0288979Y0136300D03*
X0279379Y0115100D03*
X0269379Y0101100D03*
X0307079Y0169700D03*
X0269629Y0237400D03*
X0294479Y0258300D03*
X0220179Y0289700D03*
X0216779Y0296400D03*
X0217179Y0301800D03*
X0217279Y0306800D03*
X0211679Y0306700D03*
X0206679Y0306700D03*
X0206479Y0301500D03*
X0211679Y0301500D03*
X0211479Y0296700D03*
X0201679Y0301500D03*
X0201579Y0306800D03*
X0201700Y0316600D03*
X0201700Y0321600D03*
X0201950Y0326600D03*
X0201700Y0331600D03*
X0206950Y0331600D03*
X0206950Y0336100D03*
X0211700Y0331850D03*
X0211700Y0326600D03*
X0206700Y0326600D03*
X0206700Y0321850D03*
X0211700Y0321850D03*
X0211950Y0316600D03*
X0206700Y0316600D03*
X0216900Y0316650D03*
X0216700Y0321850D03*
X0216800Y0326550D03*
X0216950Y0343850D03*
X0219700Y0343850D03*
X0214200Y0344100D03*
X0214200Y0346600D03*
X0213950Y0349100D03*
X0213950Y0351600D03*
X0213950Y0354100D03*
X0213700Y0356600D03*
X0213700Y0359100D03*
X0214450Y0361600D03*
X0216950Y0361600D03*
X0219450Y0361850D03*
X0187179Y0360000D03*
X0187279Y0357300D03*
X0187279Y0354600D03*
X0187379Y0351700D03*
X0187479Y0349000D03*
X0187579Y0346300D03*
X0185779Y0344000D03*
X0182979Y0344100D03*
X0181879Y0331900D03*
X0181779Y0326800D03*
X0181579Y0321700D03*
X0176579Y0321700D03*
X0176579Y0316700D03*
X0166879Y0316600D03*
X0166879Y0321700D03*
X0166779Y0326700D03*
X0166779Y0331500D03*
X0161779Y0331400D03*
X0161879Y0326700D03*
X0157079Y0326700D03*
X0157079Y0321500D03*
X0161779Y0321600D03*
X0161579Y0316500D03*
X0156879Y0316400D03*
X0176579Y0326700D03*
X0176579Y0331900D03*
X0182179Y0361200D03*
X0184679Y0361200D03*
X0197579Y0271000D03*
X0192879Y0261800D03*
X0091379Y0168300D03*
X0069079Y0158300D03*
X0069079Y0149300D03*
X0064779Y0141900D03*
X0051679Y0162200D03*
X0052679Y0193000D03*
X0067379Y0101300D03*
X0069279Y0091100D03*
X0080079Y0098600D03*
X0084079Y0076500D03*
X0069179Y0070900D03*
X0106679Y0066100D03*
X0085479Y0023100D03*
X0082979Y0012900D03*
X0056179Y0012300D03*
D23*
X0007979Y0012500D02*
X0007979Y0031600D01*
X0014979Y0038600D01*
X0022479Y0038600D01*
X0023379Y0039500D01*
X0023379Y0040700D01*
X0025279Y0042600D01*
X0025279Y0046400D01*
X0036779Y0057900D01*
X0045779Y0057900D01*
X0048679Y0060800D01*
X0055200Y0060800D01*
X0061000Y0055000D01*
X0064019Y0057921D02*
X0067981Y0057921D01*
X0067439Y0057379D02*
X0066800Y0055835D01*
X0066800Y0054165D01*
X0067439Y0052621D01*
X0068621Y0051439D01*
X0070165Y0050800D01*
X0071835Y0050800D01*
X0073379Y0051439D01*
X0074561Y0052621D01*
X0074579Y0052665D01*
X0074579Y0051130D01*
X0075809Y0049900D01*
X0077549Y0049900D01*
X0078779Y0051130D01*
X0078779Y0051374D01*
X0080165Y0050800D01*
X0081835Y0050800D01*
X0083379Y0051439D01*
X0084561Y0052621D01*
X0085200Y0054165D01*
X0085200Y0055835D01*
X0084561Y0057379D01*
X0083440Y0058500D01*
X0088560Y0058500D01*
X0087439Y0057379D01*
X0086800Y0055835D01*
X0086800Y0054165D01*
X0087439Y0052621D01*
X0088621Y0051439D01*
X0090165Y0050800D01*
X0091835Y0050800D01*
X0093379Y0051439D01*
X0094279Y0052339D01*
X0094279Y0051430D01*
X0095509Y0050200D01*
X0097249Y0050200D01*
X0098479Y0051430D01*
X0098479Y0051582D01*
X0098621Y0051439D01*
X0100165Y0050800D01*
X0101835Y0050800D01*
X0103379Y0051439D01*
X0104561Y0052621D01*
X0105200Y0054165D01*
X0105200Y0055835D01*
X0104561Y0057379D01*
X0103440Y0058500D01*
X0108560Y0058500D01*
X0107439Y0057379D01*
X0106800Y0055835D01*
X0106800Y0054165D01*
X0107439Y0052621D01*
X0108621Y0051439D01*
X0110165Y0050800D01*
X0111835Y0050800D01*
X0113379Y0051439D01*
X0114561Y0052621D01*
X0115200Y0054165D01*
X0115200Y0055835D01*
X0114561Y0057379D01*
X0113440Y0058500D01*
X0118560Y0058500D01*
X0117439Y0057379D01*
X0116800Y0055835D01*
X0116800Y0054165D01*
X0117439Y0052621D01*
X0118621Y0051439D01*
X0120165Y0050800D01*
X0121835Y0050800D01*
X0123379Y0051439D01*
X0123879Y0051939D01*
X0123879Y0048061D01*
X0123379Y0048561D01*
X0121835Y0049200D01*
X0120165Y0049200D01*
X0118621Y0048561D01*
X0117439Y0047379D01*
X0116800Y0045835D01*
X0116800Y0044165D01*
X0117439Y0042621D01*
X0118621Y0041439D01*
X0120165Y0040800D01*
X0121835Y0040800D01*
X0123379Y0041439D01*
X0123879Y0041939D01*
X0123879Y0038061D01*
X0123379Y0038561D01*
X0121835Y0039200D01*
X0120165Y0039200D01*
X0118621Y0038561D01*
X0117439Y0037379D01*
X0116800Y0035835D01*
X0116800Y0034165D01*
X0117439Y0032621D01*
X0118621Y0031439D01*
X0120165Y0030800D01*
X0121835Y0030800D01*
X0123379Y0031439D01*
X0123879Y0031939D01*
X0123879Y0028061D01*
X0123379Y0028561D01*
X0121835Y0029200D01*
X0120165Y0029200D01*
X0118621Y0028561D01*
X0117439Y0027379D01*
X0116800Y0025835D01*
X0116800Y0024165D01*
X0117439Y0022621D01*
X0118621Y0021439D01*
X0119000Y0021282D01*
X0119000Y0020250D01*
X0118550Y0019800D01*
X0049349Y0019800D01*
X0049249Y0019900D01*
X0047509Y0019900D01*
X0046279Y0018670D01*
X0046279Y0016930D01*
X0047509Y0015700D01*
X0049249Y0015700D01*
X0049349Y0015800D01*
X0120207Y0015800D01*
X0121379Y0016972D01*
X0123000Y0018593D01*
X0123000Y0021282D01*
X0123379Y0021439D01*
X0123779Y0021839D01*
X0123779Y0021230D01*
X0125009Y0020000D01*
X0126749Y0020000D01*
X0127979Y0021230D01*
X0127979Y0022082D01*
X0128621Y0021439D01*
X0130165Y0020800D01*
X0131835Y0020800D01*
X0133379Y0021439D01*
X0134561Y0022621D01*
X0135200Y0024165D01*
X0135200Y0025835D01*
X0134561Y0027379D01*
X0133379Y0028561D01*
X0131835Y0029200D01*
X0130165Y0029200D01*
X0128621Y0028561D01*
X0127879Y0027818D01*
X0127879Y0032182D01*
X0128621Y0031439D01*
X0130165Y0030800D01*
X0131835Y0030800D01*
X0133379Y0031439D01*
X0134561Y0032621D01*
X0135200Y0034165D01*
X0135200Y0035835D01*
X0134561Y0037379D01*
X0133379Y0038561D01*
X0131835Y0039200D01*
X0130165Y0039200D01*
X0128621Y0038561D01*
X0127879Y0037818D01*
X0127879Y0042182D01*
X0128621Y0041439D01*
X0130165Y0040800D01*
X0131835Y0040800D01*
X0133379Y0041439D01*
X0134561Y0042621D01*
X0135200Y0044165D01*
X0135200Y0045835D01*
X0134561Y0047379D01*
X0133379Y0048561D01*
X0131835Y0049200D01*
X0130165Y0049200D01*
X0128621Y0048561D01*
X0127879Y0047818D01*
X0127879Y0052182D01*
X0128621Y0051439D01*
X0130165Y0050800D01*
X0131835Y0050800D01*
X0133379Y0051439D01*
X0134561Y0052621D01*
X0135200Y0054165D01*
X0135200Y0055835D01*
X0135043Y0056215D01*
X0136728Y0057900D01*
X0137960Y0057900D01*
X0137439Y0057379D01*
X0136800Y0055835D01*
X0136800Y0054165D01*
X0137439Y0052621D01*
X0138621Y0051439D01*
X0140165Y0050800D01*
X0141835Y0050800D01*
X0142215Y0050957D01*
X0143979Y0049193D01*
X0143979Y0047961D01*
X0143379Y0048561D01*
X0141835Y0049200D01*
X0140165Y0049200D01*
X0138621Y0048561D01*
X0137439Y0047379D01*
X0136800Y0045835D01*
X0136800Y0044165D01*
X0137439Y0042621D01*
X0138621Y0041439D01*
X0140165Y0040800D01*
X0141835Y0040800D01*
X0143379Y0041439D01*
X0143979Y0042039D01*
X0143979Y0037961D01*
X0143379Y0038561D01*
X0141835Y0039200D01*
X0140165Y0039200D01*
X0138621Y0038561D01*
X0137439Y0037379D01*
X0136800Y0035835D01*
X0136800Y0034165D01*
X0137439Y0032621D01*
X0138621Y0031439D01*
X0140165Y0030800D01*
X0141835Y0030800D01*
X0143379Y0031439D01*
X0143979Y0032039D01*
X0143979Y0027961D01*
X0143379Y0028561D01*
X0141835Y0029200D01*
X0140165Y0029200D01*
X0138621Y0028561D01*
X0137439Y0027379D01*
X0136800Y0025835D01*
X0136800Y0024165D01*
X0137439Y0022621D01*
X0138621Y0021439D01*
X0140165Y0020800D01*
X0141835Y0020800D01*
X0143379Y0021439D01*
X0143979Y0022039D01*
X0143979Y0015872D01*
X0145150Y0014700D01*
X0146850Y0013000D01*
X0177039Y0013000D01*
X0177179Y0012936D01*
X0177179Y0011630D01*
X0178009Y0010800D01*
X0177179Y0009970D01*
X0177179Y0008800D01*
X0048849Y0008800D01*
X0049079Y0009030D01*
X0049079Y0010770D01*
X0047849Y0012000D01*
X0046109Y0012000D01*
X0044879Y0010770D01*
X0044879Y0009030D01*
X0045109Y0008800D01*
X0033419Y0008800D01*
X0034717Y0009058D01*
X0036154Y0009494D01*
X0037541Y0010068D01*
X0038865Y0010776D01*
X0040113Y0011610D01*
X0041273Y0012563D01*
X0042335Y0013624D01*
X0043287Y0014785D01*
X0044121Y0016033D01*
X0044829Y0017357D01*
X0045404Y0018744D01*
X0045839Y0020181D01*
X0046132Y0021653D01*
X0046280Y0023147D01*
X0046280Y0023398D01*
X0031500Y0023398D01*
X0031500Y0024398D01*
X0030500Y0024398D01*
X0030500Y0039177D01*
X0030249Y0039177D01*
X0028755Y0039030D01*
X0027283Y0038737D01*
X0025846Y0038301D01*
X0024459Y0037727D01*
X0024405Y0037698D01*
X0024479Y0037772D01*
X0025379Y0038672D01*
X0025379Y0039872D01*
X0026107Y0040600D01*
X0027279Y0041772D01*
X0027279Y0045572D01*
X0035447Y0053740D01*
X0035104Y0052911D01*
X0035104Y0051489D01*
X0035648Y0050175D01*
X0036654Y0049169D01*
X0037968Y0048625D01*
X0039390Y0048625D01*
X0039415Y0048635D01*
X0041979Y0046072D01*
X0041979Y0034527D01*
X0041273Y0035233D01*
X0040113Y0036185D01*
X0038865Y0037019D01*
X0037541Y0037727D01*
X0036154Y0038301D01*
X0034717Y0038737D01*
X0033245Y0039030D01*
X0031751Y0039177D01*
X0031500Y0039177D01*
X0031500Y0024398D01*
X0046280Y0024398D01*
X0046280Y0024648D01*
X0046132Y0026142D01*
X0045839Y0027615D01*
X0045404Y0029051D01*
X0045053Y0029897D01*
X0047050Y0027900D01*
X0047960Y0027900D01*
X0047439Y0027379D01*
X0046800Y0025835D01*
X0046800Y0024165D01*
X0047439Y0022621D01*
X0048621Y0021439D01*
X0050165Y0020800D01*
X0051835Y0020800D01*
X0053379Y0021439D01*
X0054561Y0022621D01*
X0055200Y0024165D01*
X0055200Y0025835D01*
X0054561Y0027379D01*
X0054040Y0027900D01*
X0057960Y0027900D01*
X0057439Y0027379D01*
X0056800Y0025835D01*
X0056800Y0024165D01*
X0057439Y0022621D01*
X0058621Y0021439D01*
X0060165Y0020800D01*
X0061835Y0020800D01*
X0063379Y0021439D01*
X0063889Y0021949D01*
X0065088Y0020750D01*
X0066869Y0020750D01*
X0067736Y0021617D01*
X0067938Y0021415D01*
X0068537Y0020980D01*
X0069196Y0020644D01*
X0069899Y0020416D01*
X0070500Y0020321D01*
X0070500Y0024500D01*
X0071500Y0024500D01*
X0071500Y0025500D01*
X0075679Y0025500D01*
X0075584Y0026101D01*
X0075356Y0026804D01*
X0075020Y0027463D01*
X0074703Y0027900D01*
X0077807Y0027900D01*
X0078979Y0029072D01*
X0080707Y0030800D01*
X0081835Y0030800D01*
X0083379Y0031439D01*
X0084561Y0032621D01*
X0085200Y0034165D01*
X0085200Y0035835D01*
X0084561Y0037379D01*
X0083379Y0038561D01*
X0081835Y0039200D01*
X0080165Y0039200D01*
X0078621Y0038561D01*
X0078379Y0038318D01*
X0078379Y0039453D01*
X0077031Y0040800D01*
X0075126Y0040800D01*
X0073779Y0039453D01*
X0073779Y0038791D01*
X0073463Y0039020D01*
X0072804Y0039356D01*
X0072101Y0039584D01*
X0071500Y0039679D01*
X0071500Y0035500D01*
X0070500Y0035500D01*
X0070500Y0039679D01*
X0069899Y0039584D01*
X0069196Y0039356D01*
X0068537Y0039020D01*
X0067938Y0038585D01*
X0067415Y0038062D01*
X0066980Y0037463D01*
X0066644Y0036804D01*
X0066416Y0036101D01*
X0066321Y0035500D01*
X0070500Y0035500D01*
X0070500Y0034500D01*
X0066321Y0034500D01*
X0066416Y0033899D01*
X0066644Y0033196D01*
X0066980Y0032537D01*
X0067415Y0031938D01*
X0067453Y0031900D01*
X0063840Y0031900D01*
X0064561Y0032621D01*
X0065200Y0034165D01*
X0065200Y0035835D01*
X0064561Y0037379D01*
X0063379Y0038561D01*
X0061835Y0039200D01*
X0060165Y0039200D01*
X0059379Y0038874D01*
X0059379Y0040753D01*
X0058742Y0041389D01*
X0060165Y0040800D01*
X0061835Y0040800D01*
X0063379Y0041439D01*
X0064561Y0042621D01*
X0065200Y0044165D01*
X0065200Y0045835D01*
X0064561Y0047379D01*
X0063379Y0048561D01*
X0061835Y0049200D01*
X0060165Y0049200D01*
X0058621Y0048561D01*
X0057439Y0047379D01*
X0056800Y0045835D01*
X0056800Y0044165D01*
X0057439Y0042621D01*
X0057960Y0042100D01*
X0056126Y0042100D01*
X0054779Y0040753D01*
X0054779Y0038847D01*
X0056126Y0037500D01*
X0057560Y0037500D01*
X0057439Y0037379D01*
X0056800Y0035835D01*
X0056800Y0034165D01*
X0057439Y0032621D01*
X0058160Y0031900D01*
X0053840Y0031900D01*
X0054561Y0032621D01*
X0055200Y0034165D01*
X0055200Y0035835D01*
X0054561Y0037379D01*
X0053379Y0038561D01*
X0051835Y0039200D01*
X0050165Y0039200D01*
X0048621Y0038561D01*
X0047439Y0037379D01*
X0046800Y0035835D01*
X0046800Y0034165D01*
X0047053Y0033554D01*
X0045979Y0034628D01*
X0045979Y0047728D01*
X0042243Y0051464D01*
X0042254Y0051489D01*
X0042254Y0052911D01*
X0041709Y0054225D01*
X0040704Y0055231D01*
X0039390Y0055775D01*
X0037968Y0055775D01*
X0037139Y0055432D01*
X0037607Y0055900D01*
X0046607Y0055900D01*
X0046982Y0056275D01*
X0046800Y0055835D01*
X0046800Y0054165D01*
X0047439Y0052621D01*
X0048621Y0051439D01*
X0050165Y0050800D01*
X0051835Y0050800D01*
X0053379Y0051439D01*
X0054561Y0052621D01*
X0055200Y0054165D01*
X0055200Y0055835D01*
X0054561Y0057379D01*
X0053379Y0058561D01*
X0052801Y0058800D01*
X0054372Y0058800D01*
X0056957Y0056215D01*
X0056800Y0055835D01*
X0056800Y0054165D01*
X0057439Y0052621D01*
X0058621Y0051439D01*
X0060165Y0050800D01*
X0061835Y0050800D01*
X0063379Y0051439D01*
X0064561Y0052621D01*
X0065200Y0054165D01*
X0065200Y0055835D01*
X0064561Y0057379D01*
X0063379Y0058561D01*
X0061835Y0059200D01*
X0060165Y0059200D01*
X0059785Y0059043D01*
X0058078Y0060751D01*
X0062579Y0060800D01*
X0062579Y0069100D01*
X0067867Y0069100D01*
X0068267Y0068700D01*
X0070090Y0068700D01*
X0070290Y0068900D01*
X0072107Y0068900D01*
X0072307Y0069100D01*
X0090350Y0069100D01*
X0090750Y0068700D01*
X0093850Y0065600D01*
X0086207Y0065600D01*
X0085907Y0065900D01*
X0085779Y0065900D01*
X0085779Y0067353D01*
X0084431Y0068700D01*
X0082526Y0068700D01*
X0081179Y0067353D01*
X0081179Y0066359D01*
X0080329Y0067141D01*
X0080329Y0067291D01*
X0079069Y0068550D01*
X0077288Y0068550D01*
X0076029Y0067291D01*
X0076029Y0065509D01*
X0077288Y0064250D01*
X0077563Y0064250D01*
X0079467Y0062500D01*
X0075950Y0062500D01*
X0074779Y0061328D01*
X0072412Y0058961D01*
X0071835Y0059200D01*
X0070165Y0059200D01*
X0068621Y0058561D01*
X0067439Y0057379D01*
X0067250Y0056923D02*
X0064750Y0056923D01*
X0065163Y0055924D02*
X0066837Y0055924D01*
X0066800Y0054926D02*
X0065200Y0054926D01*
X0065102Y0053927D02*
X0066898Y0053927D01*
X0067312Y0052929D02*
X0064688Y0052929D01*
X0063870Y0051930D02*
X0068130Y0051930D01*
X0069847Y0050932D02*
X0062153Y0050932D01*
X0062476Y0048934D02*
X0069524Y0048934D01*
X0070165Y0049200D02*
X0068621Y0048561D01*
X0067439Y0047379D01*
X0066800Y0045835D01*
X0066800Y0044165D01*
X0067439Y0042621D01*
X0068621Y0041439D01*
X0070165Y0040800D01*
X0071835Y0040800D01*
X0073379Y0041439D01*
X0074561Y0042621D01*
X0075200Y0044165D01*
X0075200Y0045835D01*
X0074561Y0047379D01*
X0073379Y0048561D01*
X0071835Y0049200D01*
X0070165Y0049200D01*
X0072476Y0048934D02*
X0079524Y0048934D01*
X0080165Y0049200D02*
X0078621Y0048561D01*
X0077439Y0047379D01*
X0076800Y0045835D01*
X0076800Y0044165D01*
X0077439Y0042621D01*
X0078621Y0041439D01*
X0080165Y0040800D01*
X0081835Y0040800D01*
X0083379Y0041439D01*
X0084561Y0042621D01*
X0085200Y0044165D01*
X0085200Y0045835D01*
X0084561Y0047379D01*
X0083379Y0048561D01*
X0081835Y0049200D01*
X0080165Y0049200D01*
X0079847Y0050932D02*
X0078580Y0050932D01*
X0077582Y0049933D02*
X0123879Y0049933D01*
X0123879Y0048934D02*
X0122476Y0048934D01*
X0122153Y0050932D02*
X0123879Y0050932D01*
X0123870Y0051930D02*
X0123879Y0051930D01*
X0127879Y0051930D02*
X0128130Y0051930D01*
X0127879Y0050932D02*
X0129847Y0050932D01*
X0129524Y0048934D02*
X0127879Y0048934D01*
X0127879Y0047936D02*
X0127996Y0047936D01*
X0127879Y0049933D02*
X0134179Y0049933D01*
X0134179Y0050470D02*
X0134179Y0048730D01*
X0135409Y0047500D01*
X0137149Y0047500D01*
X0138379Y0048730D01*
X0138379Y0050470D01*
X0137149Y0051700D01*
X0135409Y0051700D01*
X0134179Y0050470D01*
X0134640Y0050932D02*
X0132153Y0050932D01*
X0133870Y0051930D02*
X0138130Y0051930D01*
X0137917Y0050932D02*
X0139847Y0050932D01*
X0138379Y0049933D02*
X0143239Y0049933D01*
X0143979Y0048934D02*
X0142476Y0048934D01*
X0142240Y0050932D02*
X0142153Y0050932D01*
X0139524Y0048934D02*
X0138379Y0048934D01*
X0137996Y0047936D02*
X0137585Y0047936D01*
X0137256Y0046937D02*
X0134744Y0046937D01*
X0134973Y0047936D02*
X0134004Y0047936D01*
X0134179Y0048934D02*
X0132476Y0048934D01*
X0135157Y0045939D02*
X0136843Y0045939D01*
X0136800Y0044940D02*
X0135200Y0044940D01*
X0135108Y0043942D02*
X0136892Y0043942D01*
X0137306Y0042943D02*
X0134694Y0042943D01*
X0133885Y0041945D02*
X0138115Y0041945D01*
X0139811Y0040946D02*
X0132189Y0040946D01*
X0132440Y0038949D02*
X0139560Y0038949D01*
X0138011Y0037951D02*
X0133989Y0037951D01*
X0134737Y0036952D02*
X0137263Y0036952D01*
X0136849Y0035954D02*
X0135151Y0035954D01*
X0135200Y0034955D02*
X0136800Y0034955D01*
X0136886Y0033957D02*
X0135114Y0033957D01*
X0134700Y0032958D02*
X0137300Y0032958D01*
X0138100Y0031960D02*
X0133899Y0031960D01*
X0132225Y0030961D02*
X0139775Y0030961D01*
X0139595Y0028964D02*
X0132405Y0028964D01*
X0133974Y0027966D02*
X0138026Y0027966D01*
X0137269Y0026967D02*
X0134731Y0026967D01*
X0135145Y0025969D02*
X0136855Y0025969D01*
X0136800Y0024970D02*
X0135200Y0024970D01*
X0135120Y0023972D02*
X0136880Y0023972D01*
X0137293Y0022973D02*
X0134707Y0022973D01*
X0133914Y0021975D02*
X0138086Y0021975D01*
X0139739Y0020976D02*
X0132261Y0020976D01*
X0129739Y0020976D02*
X0127725Y0020976D01*
X0127979Y0021975D02*
X0128086Y0021975D01*
X0125879Y0022100D02*
X0125879Y0058000D01*
X0123379Y0060500D01*
X0076779Y0060500D01*
X0071279Y0055000D01*
X0071000Y0055000D01*
X0069488Y0058920D02*
X0062512Y0058920D01*
X0062579Y0060917D02*
X0074367Y0060917D01*
X0075365Y0061915D02*
X0062579Y0061915D01*
X0062579Y0062914D02*
X0079017Y0062914D01*
X0077930Y0063912D02*
X0062579Y0063912D01*
X0062579Y0064911D02*
X0076627Y0064911D01*
X0076029Y0065909D02*
X0062579Y0065909D01*
X0062579Y0066908D02*
X0076029Y0066908D01*
X0076644Y0067906D02*
X0062579Y0067906D01*
X0062579Y0068905D02*
X0068063Y0068905D01*
X0069179Y0070900D02*
X0071279Y0070900D01*
X0072079Y0071700D01*
X0072079Y0072500D01*
X0073579Y0074000D01*
X0083079Y0074000D01*
X0084079Y0075000D01*
X0084079Y0076500D01*
X0085225Y0067906D02*
X0091544Y0067906D01*
X0092543Y0066908D02*
X0085779Y0066908D01*
X0085779Y0065909D02*
X0093541Y0065909D01*
X0096179Y0066100D02*
X0091579Y0070700D01*
X0091579Y0095700D01*
X0088679Y0098600D01*
X0080079Y0098600D01*
X0069279Y0099400D02*
X0069279Y0091100D01*
X0069279Y0099400D02*
X0067379Y0101300D01*
X0072112Y0068905D02*
X0090546Y0068905D01*
X0096147Y0068961D02*
X0261607Y0068961D01*
X0261746Y0069100D01*
X0262379Y0069100D01*
X0262379Y0254000D01*
X0272193Y0263814D01*
X0272861Y0263462D01*
X0272761Y0256817D01*
X0272509Y0257425D01*
X0271504Y0258431D01*
X0270190Y0258975D01*
X0268768Y0258975D01*
X0267454Y0258431D01*
X0266448Y0257425D01*
X0265904Y0256111D01*
X0265904Y0254689D01*
X0266448Y0253375D01*
X0267454Y0252369D01*
X0268768Y0251825D01*
X0270190Y0251825D01*
X0271504Y0252369D01*
X0272509Y0253375D01*
X0272717Y0253877D01*
X0272688Y0251955D01*
X0272591Y0251828D01*
X0272677Y0251187D01*
X0272667Y0250542D01*
X0272779Y0250427D01*
X0272800Y0250268D01*
X0273313Y0249876D01*
X0273763Y0249412D01*
X0273924Y0249410D01*
X0278179Y0246160D01*
X0278179Y0241407D01*
X0278084Y0227892D01*
X0278079Y0227887D01*
X0278079Y0227108D01*
X0278073Y0226326D01*
X0278079Y0226321D01*
X0278079Y0220703D01*
X0277984Y0200517D01*
X0277679Y0200211D01*
X0277679Y0198389D01*
X0278967Y0197100D01*
X0279392Y0197100D01*
X0280153Y0196339D01*
X0281045Y0195446D01*
X0280916Y0195500D01*
X0279842Y0195500D01*
X0278849Y0195089D01*
X0278090Y0194329D01*
X0277679Y0193337D01*
X0277679Y0192263D01*
X0278090Y0191271D01*
X0278849Y0190511D01*
X0279842Y0190100D01*
X0280916Y0190100D01*
X0281881Y0190500D01*
X0286531Y0190500D01*
X0287331Y0191300D01*
X0290335Y0191300D01*
X0290335Y0190806D01*
X0290920Y0190220D01*
X0291833Y0190220D01*
X0291876Y0190177D01*
X0283304Y0190177D01*
X0282877Y0190000D01*
X0282826Y0190000D01*
X0282790Y0189964D01*
X0282385Y0189797D01*
X0281682Y0189093D01*
X0281514Y0188688D01*
X0281479Y0188653D01*
X0281479Y0188602D01*
X0281302Y0188174D01*
X0281302Y0187180D01*
X0281479Y0186752D01*
X0281479Y0186747D01*
X0281482Y0186744D01*
X0281682Y0186261D01*
X0282385Y0185558D01*
X0283304Y0185177D01*
X0293505Y0185177D01*
X0294275Y0185496D01*
X0294888Y0185496D01*
X0295681Y0186289D01*
X0295681Y0189065D01*
X0294888Y0189858D01*
X0294275Y0189858D01*
X0293812Y0190050D01*
X0293909Y0190050D01*
X0293961Y0190102D01*
X0294079Y0190220D01*
X0295095Y0190220D01*
X0295681Y0190806D01*
X0295681Y0193997D01*
X0295095Y0194583D01*
X0294079Y0194583D01*
X0293717Y0194945D01*
X0295095Y0194945D01*
X0295681Y0195531D01*
X0295681Y0198721D01*
X0295095Y0199307D01*
X0290920Y0199307D01*
X0290639Y0199026D01*
X0282840Y0199026D01*
X0282079Y0199787D01*
X0282079Y0200211D01*
X0281784Y0200506D01*
X0281875Y0219909D01*
X0281879Y0219913D01*
X0281879Y0220696D01*
X0281882Y0221478D01*
X0281879Y0221482D01*
X0281879Y0227093D01*
X0281973Y0240608D01*
X0281979Y0240613D01*
X0281979Y0241392D01*
X0281984Y0242174D01*
X0281979Y0242179D01*
X0281979Y0246458D01*
X0282066Y0246572D01*
X0281979Y0247227D01*
X0281979Y0247887D01*
X0281877Y0247989D01*
X0281857Y0248132D01*
X0281333Y0248533D01*
X0280866Y0249000D01*
X0280721Y0249000D01*
X0276493Y0252229D01*
X0276672Y0264117D01*
X0276827Y0264412D01*
X0276683Y0264874D01*
X0276690Y0265358D01*
X0276459Y0265597D01*
X0276360Y0265915D01*
X0275931Y0266140D01*
X0275594Y0266488D01*
X0275262Y0266493D01*
X0275006Y0266627D01*
X0279179Y0270800D01*
X0297579Y0270800D01*
X0298495Y0271717D01*
X0299111Y0271717D01*
X0299697Y0272302D01*
X0299697Y0376518D01*
X0301179Y0378000D01*
X0346179Y0378000D01*
X0350379Y0373800D01*
X0350379Y0366513D01*
X0349829Y0367840D01*
X0349121Y0369164D01*
X0348287Y0370412D01*
X0347335Y0371573D01*
X0346273Y0372634D01*
X0345113Y0373587D01*
X0343865Y0374421D01*
X0342541Y0375128D01*
X0341154Y0375703D01*
X0339717Y0376139D01*
X0338245Y0376432D01*
X0336751Y0376579D01*
X0336500Y0376579D01*
X0336500Y0361799D01*
X0335500Y0361799D01*
X0335500Y0360799D01*
X0336500Y0360799D01*
X0336500Y0346020D01*
X0336751Y0346020D01*
X0338245Y0346167D01*
X0339717Y0346460D01*
X0341154Y0346896D01*
X0342541Y0347470D01*
X0343865Y0348178D01*
X0345113Y0349012D01*
X0346273Y0349964D01*
X0347335Y0351026D01*
X0348287Y0352186D01*
X0349121Y0353434D01*
X0349829Y0354758D01*
X0350379Y0356085D01*
X0350379Y0311300D01*
X0348403Y0309325D01*
X0345054Y0309325D01*
X0344238Y0310141D01*
X0344238Y0328937D01*
X0344079Y0329096D01*
X0344079Y0329900D01*
X0343279Y0330700D01*
X0342474Y0330700D01*
X0342125Y0331050D01*
X0336351Y0331050D01*
X0336001Y0330700D01*
X0329574Y0330700D01*
X0329325Y0330950D01*
X0327251Y0330950D01*
X0327001Y0330700D01*
X0315779Y0330700D01*
X0314089Y0329010D01*
X0313594Y0329010D01*
X0313009Y0328424D01*
X0313009Y0327930D01*
X0312879Y0327800D01*
X0312879Y0086600D01*
X0310779Y0084500D01*
X0296979Y0084500D01*
X0295179Y0082700D01*
X0295179Y0062600D01*
X0297579Y0060200D01*
X0347479Y0060200D01*
X0350179Y0057500D01*
X0350179Y0053528D01*
X0347879Y0055828D01*
X0346707Y0057000D01*
X0305200Y0057000D01*
X0305200Y0058614D01*
X0304614Y0059200D01*
X0297386Y0059200D01*
X0296800Y0058614D01*
X0296800Y0051386D01*
X0297386Y0050800D01*
X0304614Y0050800D01*
X0305200Y0051386D01*
X0305200Y0053000D01*
X0345050Y0053000D01*
X0346579Y0051472D01*
X0346579Y0011128D01*
X0344350Y0008900D01*
X0335507Y0008900D01*
X0337807Y0011200D01*
X0338979Y0012372D01*
X0338979Y0038128D01*
X0331279Y0045828D01*
X0330107Y0047000D01*
X0304718Y0047000D01*
X0304561Y0047379D01*
X0303379Y0048561D01*
X0301835Y0049200D01*
X0300165Y0049200D01*
X0298621Y0048561D01*
X0297439Y0047379D01*
X0296800Y0045835D01*
X0296800Y0044165D01*
X0297439Y0042621D01*
X0298621Y0041439D01*
X0300165Y0040800D01*
X0301835Y0040800D01*
X0303379Y0041439D01*
X0304561Y0042621D01*
X0304718Y0043000D01*
X0328450Y0043000D01*
X0334979Y0036472D01*
X0334979Y0030077D01*
X0334829Y0030438D01*
X0334121Y0031762D01*
X0333287Y0033011D01*
X0332335Y0034171D01*
X0331273Y0035233D01*
X0330113Y0036185D01*
X0328865Y0037019D01*
X0327541Y0037727D01*
X0326154Y0038301D01*
X0324717Y0038737D01*
X0323245Y0039030D01*
X0321751Y0039177D01*
X0321500Y0039177D01*
X0321500Y0024398D01*
X0320500Y0024398D01*
X0320500Y0039177D01*
X0320249Y0039177D01*
X0318755Y0039030D01*
X0317283Y0038737D01*
X0315846Y0038301D01*
X0314459Y0037727D01*
X0313135Y0037019D01*
X0311887Y0036185D01*
X0310727Y0035233D01*
X0309665Y0034171D01*
X0308713Y0033011D01*
X0307879Y0031762D01*
X0307171Y0030438D01*
X0306596Y0029051D01*
X0306161Y0027615D01*
X0305868Y0026142D01*
X0305720Y0024648D01*
X0305720Y0024398D01*
X0320500Y0024398D01*
X0320500Y0023398D01*
X0305720Y0023398D01*
X0305720Y0023147D01*
X0305868Y0021653D01*
X0306161Y0020181D01*
X0306596Y0018744D01*
X0307171Y0017357D01*
X0307879Y0016033D01*
X0308713Y0014785D01*
X0309665Y0013624D01*
X0310727Y0012563D01*
X0311887Y0011610D01*
X0312950Y0010900D01*
X0312007Y0010900D01*
X0309307Y0013600D01*
X0303207Y0019700D01*
X0297049Y0019700D01*
X0297079Y0019730D01*
X0297079Y0021470D01*
X0295849Y0022700D01*
X0294593Y0022700D01*
X0295200Y0024165D01*
X0295200Y0025835D01*
X0294561Y0027379D01*
X0293379Y0028561D01*
X0291835Y0029200D01*
X0290165Y0029200D01*
X0288621Y0028561D01*
X0287439Y0027379D01*
X0286800Y0025835D01*
X0286800Y0024200D01*
X0285309Y0024200D01*
X0285148Y0024039D01*
X0285200Y0024165D01*
X0285200Y0025835D01*
X0284561Y0027379D01*
X0283940Y0028000D01*
X0284649Y0028000D01*
X0285879Y0029230D01*
X0285879Y0030970D01*
X0284649Y0032200D01*
X0284140Y0032200D01*
X0284561Y0032621D01*
X0285200Y0034165D01*
X0285200Y0035835D01*
X0284561Y0037379D01*
X0283379Y0038561D01*
X0281835Y0039200D01*
X0280165Y0039200D01*
X0278621Y0038561D01*
X0278279Y0038218D01*
X0278279Y0041782D01*
X0278621Y0041439D01*
X0280165Y0040800D01*
X0281835Y0040800D01*
X0283379Y0041439D01*
X0284561Y0042621D01*
X0285200Y0044165D01*
X0285200Y0045835D01*
X0284561Y0047379D01*
X0283379Y0048561D01*
X0281835Y0049200D01*
X0280165Y0049200D01*
X0278621Y0048561D01*
X0278279Y0048218D01*
X0278279Y0051782D01*
X0278621Y0051439D01*
X0280165Y0050800D01*
X0281835Y0050800D01*
X0283379Y0051439D01*
X0284561Y0052621D01*
X0285200Y0054165D01*
X0285200Y0055835D01*
X0284561Y0057379D01*
X0283379Y0058561D01*
X0281835Y0059200D01*
X0280165Y0059200D01*
X0278621Y0058561D01*
X0278279Y0058218D01*
X0278279Y0068547D01*
X0291931Y0082200D01*
X0293279Y0083547D01*
X0293279Y0103462D01*
X0307948Y0116400D01*
X0308031Y0116400D01*
X0308654Y0117023D01*
X0309315Y0117605D01*
X0309320Y0117688D01*
X0309379Y0117747D01*
X0309379Y0118628D01*
X0309434Y0119507D01*
X0309379Y0119569D01*
X0309379Y0170653D01*
X0308031Y0172000D01*
X0306126Y0172000D01*
X0304779Y0170653D01*
X0304779Y0119738D01*
X0290109Y0106800D01*
X0290026Y0106800D01*
X0289403Y0106177D01*
X0288743Y0105595D01*
X0288738Y0105512D01*
X0288679Y0105453D01*
X0288679Y0104572D01*
X0288624Y0103693D01*
X0288679Y0103631D01*
X0288679Y0085453D01*
X0275026Y0071800D01*
X0273679Y0070453D01*
X0273679Y0058261D01*
X0273379Y0058561D01*
X0271835Y0059200D01*
X0270165Y0059200D01*
X0268621Y0058561D01*
X0267439Y0057379D01*
X0266800Y0055835D01*
X0266800Y0054165D01*
X0266811Y0054137D01*
X0266749Y0054200D01*
X0265200Y0054200D01*
X0265200Y0055835D01*
X0264676Y0057100D01*
X0265749Y0057100D01*
X0266979Y0058330D01*
X0266979Y0060070D01*
X0265749Y0061300D01*
X0264009Y0061300D01*
X0262779Y0060070D01*
X0262779Y0058809D01*
X0261835Y0059200D01*
X0260165Y0059200D01*
X0258621Y0058561D01*
X0257439Y0057379D01*
X0256800Y0055835D01*
X0256800Y0054165D01*
X0257439Y0052621D01*
X0258060Y0052000D01*
X0253940Y0052000D01*
X0254561Y0052621D01*
X0255200Y0054165D01*
X0255200Y0055835D01*
X0254561Y0057379D01*
X0253379Y0058561D01*
X0251835Y0059200D01*
X0250165Y0059200D01*
X0248621Y0058561D01*
X0247439Y0057379D01*
X0246800Y0055835D01*
X0246800Y0054165D01*
X0247439Y0052621D01*
X0248060Y0052000D01*
X0243940Y0052000D01*
X0244561Y0052621D01*
X0245200Y0054165D01*
X0245200Y0055835D01*
X0244561Y0057379D01*
X0243379Y0058561D01*
X0241835Y0059200D01*
X0240165Y0059200D01*
X0239022Y0058727D01*
X0237949Y0059800D01*
X0236209Y0059800D01*
X0234979Y0058570D01*
X0234979Y0056830D01*
X0236209Y0055600D01*
X0236800Y0055600D01*
X0236800Y0054165D01*
X0237439Y0052621D01*
X0238060Y0052000D01*
X0233940Y0052000D01*
X0234561Y0052621D01*
X0235200Y0054165D01*
X0235200Y0055835D01*
X0234561Y0057379D01*
X0233379Y0058561D01*
X0231835Y0059200D01*
X0230165Y0059200D01*
X0228621Y0058561D01*
X0227439Y0057379D01*
X0226800Y0055835D01*
X0226800Y0054165D01*
X0227439Y0052621D01*
X0228060Y0052000D01*
X0223940Y0052000D01*
X0224561Y0052621D01*
X0225200Y0054165D01*
X0225200Y0055835D01*
X0224561Y0057379D01*
X0223379Y0058561D01*
X0221835Y0059200D01*
X0220165Y0059200D01*
X0218621Y0058561D01*
X0217439Y0057379D01*
X0216800Y0055835D01*
X0216800Y0054165D01*
X0217439Y0052621D01*
X0218060Y0052000D01*
X0213940Y0052000D01*
X0214561Y0052621D01*
X0215200Y0054165D01*
X0215200Y0055835D01*
X0214561Y0057379D01*
X0213379Y0058561D01*
X0211835Y0059200D01*
X0210165Y0059200D01*
X0208679Y0058585D01*
X0208679Y0059470D01*
X0207449Y0060700D01*
X0205709Y0060700D01*
X0204479Y0059470D01*
X0204479Y0057730D01*
X0205709Y0056500D01*
X0207075Y0056500D01*
X0206800Y0055835D01*
X0206800Y0054165D01*
X0207439Y0052621D01*
X0208060Y0052000D01*
X0206779Y0052000D01*
X0206779Y0052570D01*
X0205549Y0053800D01*
X0205049Y0053800D01*
X0205200Y0054165D01*
X0205200Y0055835D01*
X0204561Y0057379D01*
X0203379Y0058561D01*
X0201835Y0059200D01*
X0200165Y0059200D01*
X0198621Y0058561D01*
X0197439Y0057379D01*
X0196800Y0055835D01*
X0196800Y0054165D01*
X0197439Y0052621D01*
X0198060Y0052000D01*
X0195106Y0052000D01*
X0194941Y0052115D01*
X0194301Y0052000D01*
X0193940Y0052000D01*
X0194561Y0052621D01*
X0195200Y0054165D01*
X0195200Y0055835D01*
X0194561Y0057379D01*
X0193379Y0058561D01*
X0191835Y0059200D01*
X0190165Y0059200D01*
X0188621Y0058561D01*
X0187439Y0057379D01*
X0186800Y0055835D01*
X0186800Y0054165D01*
X0187439Y0052621D01*
X0188621Y0051439D01*
X0190165Y0050800D01*
X0191835Y0050800D01*
X0192885Y0051235D01*
X0192479Y0050828D01*
X0192479Y0050627D01*
X0191486Y0049200D01*
X0190165Y0049200D01*
X0188621Y0048561D01*
X0187439Y0047379D01*
X0186800Y0045835D01*
X0186800Y0044165D01*
X0187439Y0042621D01*
X0188621Y0041439D01*
X0190165Y0040800D01*
X0191835Y0040800D01*
X0193379Y0041439D01*
X0194561Y0042621D01*
X0195200Y0044165D01*
X0195200Y0045835D01*
X0194759Y0046901D01*
X0195524Y0048000D01*
X0198060Y0048000D01*
X0197439Y0047379D01*
X0196800Y0045835D01*
X0196800Y0044165D01*
X0197439Y0042621D01*
X0198621Y0041439D01*
X0200165Y0040800D01*
X0201835Y0040800D01*
X0202279Y0040984D01*
X0202279Y0040730D01*
X0203509Y0039500D01*
X0204950Y0039500D01*
X0204179Y0038728D01*
X0204179Y0038468D01*
X0204062Y0038585D01*
X0203463Y0039020D01*
X0202804Y0039356D01*
X0202101Y0039584D01*
X0201500Y0039679D01*
X0201500Y0035500D01*
X0200500Y0035500D01*
X0200500Y0039679D01*
X0199899Y0039584D01*
X0199196Y0039356D01*
X0198537Y0039020D01*
X0197938Y0038585D01*
X0197415Y0038062D01*
X0196980Y0037463D01*
X0196644Y0036804D01*
X0196416Y0036101D01*
X0196321Y0035500D01*
X0200500Y0035500D01*
X0200500Y0034500D01*
X0196321Y0034500D01*
X0196416Y0033899D01*
X0196644Y0033196D01*
X0196980Y0032537D01*
X0197415Y0031938D01*
X0197453Y0031900D01*
X0193840Y0031900D01*
X0194561Y0032621D01*
X0195200Y0034165D01*
X0195200Y0035835D01*
X0194561Y0037379D01*
X0193379Y0038561D01*
X0191835Y0039200D01*
X0190165Y0039200D01*
X0188621Y0038561D01*
X0187439Y0037379D01*
X0186800Y0035835D01*
X0186800Y0034165D01*
X0187439Y0032621D01*
X0188160Y0031900D01*
X0188149Y0031900D01*
X0188049Y0032000D01*
X0186309Y0032000D01*
X0185079Y0030770D01*
X0185079Y0029030D01*
X0186309Y0027800D01*
X0187860Y0027800D01*
X0187439Y0027379D01*
X0186800Y0025835D01*
X0186800Y0024165D01*
X0187439Y0022621D01*
X0188621Y0021439D01*
X0190165Y0020800D01*
X0191835Y0020800D01*
X0193379Y0021439D01*
X0194561Y0022621D01*
X0195200Y0024165D01*
X0195200Y0025835D01*
X0194561Y0027379D01*
X0194040Y0027900D01*
X0197297Y0027900D01*
X0196980Y0027463D01*
X0196644Y0026804D01*
X0196416Y0026101D01*
X0196321Y0025500D01*
X0200500Y0025500D01*
X0200500Y0024500D01*
X0196321Y0024500D01*
X0196416Y0023899D01*
X0196644Y0023196D01*
X0196922Y0022650D01*
X0196188Y0022650D01*
X0195680Y0022142D01*
X0195660Y0022135D01*
X0195647Y0022109D01*
X0194929Y0021391D01*
X0194929Y0020672D01*
X0194919Y0020653D01*
X0194929Y0020625D01*
X0194929Y0020100D01*
X0177247Y0020100D01*
X0176706Y0020247D01*
X0176448Y0020100D01*
X0176150Y0020100D01*
X0175754Y0019704D01*
X0175048Y0019300D01*
X0168245Y0019300D01*
X0167979Y0019500D01*
X0167979Y0022082D01*
X0168621Y0021439D01*
X0170165Y0020800D01*
X0171835Y0020800D01*
X0173379Y0021439D01*
X0174561Y0022621D01*
X0175200Y0024165D01*
X0175200Y0025835D01*
X0174561Y0027379D01*
X0173379Y0028561D01*
X0171835Y0029200D01*
X0170165Y0029200D01*
X0168621Y0028561D01*
X0167979Y0027918D01*
X0167979Y0032082D01*
X0168621Y0031439D01*
X0170165Y0030800D01*
X0171835Y0030800D01*
X0173379Y0031439D01*
X0174079Y0032139D01*
X0174079Y0031472D01*
X0175250Y0030300D01*
X0175579Y0029972D01*
X0175579Y0028930D01*
X0176809Y0027700D01*
X0177760Y0027700D01*
X0177439Y0027379D01*
X0176800Y0025835D01*
X0176800Y0024165D01*
X0177439Y0022621D01*
X0178621Y0021439D01*
X0180165Y0020800D01*
X0181835Y0020800D01*
X0183379Y0021439D01*
X0184561Y0022621D01*
X0185200Y0024165D01*
X0185200Y0025835D01*
X0184561Y0027379D01*
X0183379Y0028561D01*
X0181835Y0029200D01*
X0180165Y0029200D01*
X0179779Y0029040D01*
X0179779Y0030670D01*
X0179679Y0030770D01*
X0179679Y0031001D01*
X0180165Y0030800D01*
X0181835Y0030800D01*
X0183379Y0031439D01*
X0184561Y0032621D01*
X0185200Y0034165D01*
X0185200Y0035835D01*
X0184561Y0037379D01*
X0183379Y0038561D01*
X0181835Y0039200D01*
X0180165Y0039200D01*
X0178621Y0038561D01*
X0178079Y0038018D01*
X0178079Y0039250D01*
X0179785Y0040957D01*
X0180165Y0040800D01*
X0181835Y0040800D01*
X0183379Y0041439D01*
X0184561Y0042621D01*
X0185200Y0044165D01*
X0185200Y0045835D01*
X0184561Y0047379D01*
X0183379Y0048561D01*
X0181835Y0049200D01*
X0180165Y0049200D01*
X0178621Y0048561D01*
X0177439Y0047379D01*
X0176800Y0045835D01*
X0176800Y0044165D01*
X0176957Y0043785D01*
X0175250Y0042079D01*
X0174079Y0040907D01*
X0174079Y0037861D01*
X0173379Y0038561D01*
X0171835Y0039200D01*
X0170165Y0039200D01*
X0168621Y0038561D01*
X0167979Y0037918D01*
X0167979Y0042082D01*
X0168621Y0041439D01*
X0170165Y0040800D01*
X0171835Y0040800D01*
X0173379Y0041439D01*
X0174561Y0042621D01*
X0175200Y0044165D01*
X0175200Y0045835D01*
X0174561Y0047379D01*
X0173379Y0048561D01*
X0171835Y0049200D01*
X0170165Y0049200D01*
X0168621Y0048561D01*
X0167979Y0047918D01*
X0167979Y0052082D01*
X0168621Y0051439D01*
X0170165Y0050800D01*
X0171835Y0050800D01*
X0173379Y0051439D01*
X0174561Y0052621D01*
X0175200Y0054165D01*
X0175200Y0055835D01*
X0174561Y0057379D01*
X0173379Y0058561D01*
X0171835Y0059200D01*
X0170165Y0059200D01*
X0168621Y0058561D01*
X0167979Y0057918D01*
X0167979Y0058728D01*
X0165979Y0060728D01*
X0165107Y0061600D01*
X0264527Y0061600D01*
X0264764Y0061458D01*
X0265327Y0061600D01*
X0265907Y0061600D01*
X0266103Y0061796D01*
X0266371Y0061863D01*
X0266669Y0062361D01*
X0267079Y0062772D01*
X0267079Y0063048D01*
X0270969Y0069561D01*
X0271379Y0069972D01*
X0271379Y0070248D01*
X0271521Y0070486D01*
X0271379Y0071048D01*
X0271379Y0099989D01*
X0271579Y0100189D01*
X0271579Y0102011D01*
X0270290Y0103300D01*
X0268467Y0103300D01*
X0267179Y0102011D01*
X0267179Y0100189D01*
X0267379Y0099989D01*
X0267379Y0071352D01*
X0263944Y0065600D01*
X0108879Y0065600D01*
X0108879Y0067011D01*
X0107590Y0068300D01*
X0105767Y0068300D01*
X0105567Y0068100D01*
X0097007Y0068100D01*
X0096147Y0068961D01*
X0096202Y0068905D02*
X0265917Y0068905D01*
X0266514Y0069903D02*
X0262379Y0069903D01*
X0262379Y0070902D02*
X0267110Y0070902D01*
X0267379Y0071900D02*
X0262379Y0071900D01*
X0262379Y0072899D02*
X0267379Y0072899D01*
X0267379Y0073897D02*
X0262379Y0073897D01*
X0262379Y0074896D02*
X0267379Y0074896D01*
X0267379Y0075894D02*
X0262379Y0075894D01*
X0262379Y0076893D02*
X0267379Y0076893D01*
X0267379Y0077891D02*
X0262379Y0077891D01*
X0262379Y0078890D02*
X0267379Y0078890D01*
X0267379Y0079888D02*
X0262379Y0079888D01*
X0262379Y0080887D02*
X0267379Y0080887D01*
X0267379Y0081885D02*
X0262379Y0081885D01*
X0262379Y0082884D02*
X0267379Y0082884D01*
X0267379Y0083882D02*
X0262379Y0083882D01*
X0262379Y0084881D02*
X0267379Y0084881D01*
X0267379Y0085879D02*
X0262379Y0085879D01*
X0262379Y0086878D02*
X0267379Y0086878D01*
X0267379Y0087876D02*
X0262379Y0087876D01*
X0262379Y0088875D02*
X0267379Y0088875D01*
X0267379Y0089873D02*
X0262379Y0089873D01*
X0262379Y0090872D02*
X0267379Y0090872D01*
X0267379Y0091870D02*
X0262379Y0091870D01*
X0262379Y0092869D02*
X0267379Y0092869D01*
X0267379Y0093868D02*
X0262379Y0093868D01*
X0262379Y0094866D02*
X0267379Y0094866D01*
X0267379Y0095865D02*
X0262379Y0095865D01*
X0262379Y0096863D02*
X0267379Y0096863D01*
X0267379Y0097862D02*
X0262379Y0097862D01*
X0262379Y0098860D02*
X0267379Y0098860D01*
X0267379Y0099859D02*
X0262379Y0099859D01*
X0262379Y0100857D02*
X0267179Y0100857D01*
X0267179Y0101856D02*
X0262379Y0101856D01*
X0262379Y0102854D02*
X0268022Y0102854D01*
X0269379Y0101100D02*
X0269379Y0070800D01*
X0265079Y0063600D01*
X0110679Y0063600D01*
X0085379Y0063600D01*
X0085079Y0063900D01*
X0082779Y0063900D01*
X0081879Y0063000D01*
X0078179Y0066400D01*
X0079713Y0067906D02*
X0081732Y0067906D01*
X0081179Y0066908D02*
X0080582Y0066908D01*
X0084019Y0057921D02*
X0087981Y0057921D01*
X0087250Y0056923D02*
X0084750Y0056923D01*
X0085163Y0055924D02*
X0086837Y0055924D01*
X0086800Y0054926D02*
X0085200Y0054926D01*
X0085102Y0053927D02*
X0086898Y0053927D01*
X0087312Y0052929D02*
X0084688Y0052929D01*
X0083870Y0051930D02*
X0088130Y0051930D01*
X0089847Y0050932D02*
X0082153Y0050932D01*
X0082476Y0048934D02*
X0089524Y0048934D01*
X0090165Y0049200D02*
X0088621Y0048561D01*
X0087439Y0047379D01*
X0086800Y0045835D01*
X0086800Y0044165D01*
X0087439Y0042621D01*
X0088621Y0041439D01*
X0090165Y0040800D01*
X0091835Y0040800D01*
X0093379Y0041439D01*
X0094561Y0042621D01*
X0095200Y0044165D01*
X0095200Y0045835D01*
X0094561Y0047379D01*
X0093379Y0048561D01*
X0091835Y0049200D01*
X0090165Y0049200D01*
X0092476Y0048934D02*
X0099524Y0048934D01*
X0100165Y0049200D02*
X0098621Y0048561D01*
X0097439Y0047379D01*
X0096800Y0045835D01*
X0096800Y0044165D01*
X0097439Y0042621D01*
X0098621Y0041439D01*
X0100165Y0040800D01*
X0101835Y0040800D01*
X0103379Y0041439D01*
X0104561Y0042621D01*
X0105200Y0044165D01*
X0105200Y0045835D01*
X0104561Y0047379D01*
X0103379Y0048561D01*
X0101835Y0049200D01*
X0100165Y0049200D01*
X0099847Y0050932D02*
X0097980Y0050932D01*
X0097996Y0047936D02*
X0094004Y0047936D01*
X0094744Y0046937D02*
X0097256Y0046937D01*
X0096843Y0045939D02*
X0095157Y0045939D01*
X0095200Y0044940D02*
X0096800Y0044940D01*
X0096892Y0043942D02*
X0095108Y0043942D01*
X0094694Y0042943D02*
X0097306Y0042943D01*
X0098115Y0041945D02*
X0093885Y0041945D01*
X0092189Y0040946D02*
X0099811Y0040946D01*
X0100165Y0039200D02*
X0098621Y0038561D01*
X0097439Y0037379D01*
X0096800Y0035835D01*
X0096800Y0034165D01*
X0097439Y0032621D01*
X0098621Y0031439D01*
X0100165Y0030800D01*
X0101835Y0030800D01*
X0103379Y0031439D01*
X0104561Y0032621D01*
X0105200Y0034165D01*
X0105200Y0035835D01*
X0104561Y0037379D01*
X0103379Y0038561D01*
X0101835Y0039200D01*
X0100165Y0039200D01*
X0099560Y0038949D02*
X0092440Y0038949D01*
X0091835Y0039200D02*
X0090165Y0039200D01*
X0088621Y0038561D01*
X0087439Y0037379D01*
X0086800Y0035835D01*
X0086800Y0034165D01*
X0087439Y0032621D01*
X0088621Y0031439D01*
X0090165Y0030800D01*
X0091835Y0030800D01*
X0093379Y0031439D01*
X0094561Y0032621D01*
X0095200Y0034165D01*
X0095200Y0035835D01*
X0094561Y0037379D01*
X0093379Y0038561D01*
X0091835Y0039200D01*
X0089560Y0038949D02*
X0082440Y0038949D01*
X0083989Y0037951D02*
X0088011Y0037951D01*
X0087263Y0036952D02*
X0084737Y0036952D01*
X0085151Y0035954D02*
X0086849Y0035954D01*
X0086800Y0034955D02*
X0085200Y0034955D01*
X0085114Y0033957D02*
X0086886Y0033957D01*
X0087300Y0032958D02*
X0084700Y0032958D01*
X0083899Y0031960D02*
X0088100Y0031960D01*
X0089775Y0030961D02*
X0082225Y0030961D01*
X0081835Y0029200D02*
X0080165Y0029200D01*
X0078621Y0028561D01*
X0077439Y0027379D01*
X0076800Y0025835D01*
X0076800Y0024165D01*
X0077439Y0022621D01*
X0078621Y0021439D01*
X0080165Y0020800D01*
X0081835Y0020800D01*
X0083379Y0021439D01*
X0083704Y0021764D01*
X0084567Y0020900D01*
X0086390Y0020900D01*
X0087679Y0022189D01*
X0087679Y0022382D01*
X0088621Y0021439D01*
X0090165Y0020800D01*
X0091835Y0020800D01*
X0093379Y0021439D01*
X0094561Y0022621D01*
X0095200Y0024165D01*
X0095200Y0025835D01*
X0094561Y0027379D01*
X0093379Y0028561D01*
X0091835Y0029200D01*
X0090165Y0029200D01*
X0088621Y0028561D01*
X0087439Y0027379D01*
X0086800Y0025835D01*
X0086800Y0024890D01*
X0086390Y0025300D01*
X0085200Y0025300D01*
X0085200Y0025835D01*
X0084561Y0027379D01*
X0083379Y0028561D01*
X0081835Y0029200D01*
X0082405Y0028964D02*
X0089595Y0028964D01*
X0088026Y0027966D02*
X0083974Y0027966D01*
X0084731Y0026967D02*
X0087269Y0026967D01*
X0086855Y0025969D02*
X0085145Y0025969D01*
X0086720Y0024970D02*
X0086800Y0024970D01*
X0087465Y0021975D02*
X0088086Y0021975D01*
X0086466Y0020976D02*
X0089739Y0020976D01*
X0092261Y0020976D02*
X0099739Y0020976D01*
X0100165Y0020800D02*
X0101835Y0020800D01*
X0103379Y0021439D01*
X0104561Y0022621D01*
X0105200Y0024165D01*
X0105200Y0025835D01*
X0104561Y0027379D01*
X0103379Y0028561D01*
X0101835Y0029200D01*
X0100165Y0029200D01*
X0098621Y0028561D01*
X0097439Y0027379D01*
X0096800Y0025835D01*
X0096800Y0024165D01*
X0097439Y0022621D01*
X0098621Y0021439D01*
X0100165Y0020800D01*
X0102261Y0020976D02*
X0109739Y0020976D01*
X0110165Y0020800D02*
X0111835Y0020800D01*
X0113379Y0021439D01*
X0114561Y0022621D01*
X0115200Y0024165D01*
X0115200Y0025835D01*
X0114561Y0027379D01*
X0113379Y0028561D01*
X0111835Y0029200D01*
X0110165Y0029200D01*
X0108621Y0028561D01*
X0107439Y0027379D01*
X0106800Y0025835D01*
X0106800Y0024165D01*
X0107439Y0022621D01*
X0108621Y0021439D01*
X0110165Y0020800D01*
X0112261Y0020976D02*
X0119000Y0020976D01*
X0118728Y0019978D02*
X0045778Y0019978D01*
X0045998Y0020976D02*
X0049739Y0020976D01*
X0048086Y0021975D02*
X0046164Y0021975D01*
X0046262Y0022973D02*
X0047293Y0022973D01*
X0046880Y0023972D02*
X0031500Y0023972D01*
X0031500Y0024970D02*
X0030500Y0024970D01*
X0030500Y0024398D02*
X0030500Y0023398D01*
X0015720Y0023398D01*
X0015720Y0023147D01*
X0015868Y0021653D01*
X0016161Y0020181D01*
X0016596Y0018744D01*
X0017171Y0017357D01*
X0017879Y0016033D01*
X0018713Y0014785D01*
X0019665Y0013624D01*
X0020727Y0012563D01*
X0021887Y0011610D01*
X0023135Y0010776D01*
X0024459Y0010068D01*
X0025846Y0009494D01*
X0027283Y0009058D01*
X0028581Y0008800D01*
X0014507Y0008800D01*
X0009979Y0013328D01*
X0009979Y0030772D01*
X0015807Y0036600D01*
X0022508Y0036600D01*
X0021887Y0036185D01*
X0020727Y0035233D01*
X0019665Y0034171D01*
X0018713Y0033011D01*
X0017879Y0031762D01*
X0017171Y0030438D01*
X0016596Y0029051D01*
X0016161Y0027615D01*
X0015868Y0026142D01*
X0015720Y0024648D01*
X0015720Y0024398D01*
X0030500Y0024398D01*
X0030500Y0023972D02*
X0009979Y0023972D01*
X0009979Y0024970D02*
X0015752Y0024970D01*
X0015851Y0025969D02*
X0009979Y0025969D01*
X0009979Y0026967D02*
X0016032Y0026967D01*
X0016267Y0027966D02*
X0009979Y0027966D01*
X0009979Y0028964D02*
X0016570Y0028964D01*
X0016974Y0029963D02*
X0009979Y0029963D01*
X0010168Y0030961D02*
X0017450Y0030961D01*
X0018010Y0031960D02*
X0011167Y0031960D01*
X0012165Y0032958D02*
X0018678Y0032958D01*
X0019489Y0033957D02*
X0013164Y0033957D01*
X0014162Y0034955D02*
X0020449Y0034955D01*
X0021605Y0035954D02*
X0015161Y0035954D01*
X0024479Y0037772D02*
X0024479Y0037772D01*
X0024658Y0037951D02*
X0025000Y0037951D01*
X0025379Y0038949D02*
X0028350Y0038949D01*
X0030500Y0038949D02*
X0031500Y0038949D01*
X0031500Y0037951D02*
X0030500Y0037951D01*
X0030500Y0036952D02*
X0031500Y0036952D01*
X0031500Y0035954D02*
X0030500Y0035954D01*
X0030500Y0034955D02*
X0031500Y0034955D01*
X0031500Y0033957D02*
X0030500Y0033957D01*
X0030500Y0032958D02*
X0031500Y0032958D01*
X0031500Y0031960D02*
X0030500Y0031960D01*
X0030500Y0030961D02*
X0031500Y0030961D01*
X0031500Y0029963D02*
X0030500Y0029963D01*
X0030500Y0028964D02*
X0031500Y0028964D01*
X0031500Y0027966D02*
X0030500Y0027966D01*
X0030500Y0026967D02*
X0031500Y0026967D01*
X0031500Y0025969D02*
X0030500Y0025969D01*
X0037000Y0037951D02*
X0041979Y0037951D01*
X0041979Y0038949D02*
X0033650Y0038949D01*
X0038965Y0036952D02*
X0041979Y0036952D01*
X0041979Y0035954D02*
X0040395Y0035954D01*
X0041551Y0034955D02*
X0041979Y0034955D01*
X0043979Y0033800D02*
X0043979Y0046500D01*
X0043979Y0046900D01*
X0038679Y0052200D01*
X0037220Y0048934D02*
X0030642Y0048934D01*
X0029643Y0047936D02*
X0040114Y0047936D01*
X0041113Y0046937D02*
X0028645Y0046937D01*
X0027646Y0045939D02*
X0041979Y0045939D01*
X0041979Y0044940D02*
X0027279Y0044940D01*
X0027279Y0043942D02*
X0041979Y0043942D01*
X0041979Y0042943D02*
X0027279Y0042943D01*
X0027279Y0041945D02*
X0041979Y0041945D01*
X0041979Y0040946D02*
X0026454Y0040946D01*
X0025455Y0039948D02*
X0041979Y0039948D01*
X0045979Y0039948D02*
X0054779Y0039948D01*
X0054779Y0038949D02*
X0052440Y0038949D01*
X0053989Y0037951D02*
X0055675Y0037951D01*
X0054737Y0036952D02*
X0057263Y0036952D01*
X0056849Y0035954D02*
X0055151Y0035954D01*
X0055200Y0034955D02*
X0056800Y0034955D01*
X0056886Y0033957D02*
X0055114Y0033957D01*
X0054700Y0032958D02*
X0057300Y0032958D01*
X0058100Y0031960D02*
X0053899Y0031960D01*
X0054731Y0026967D02*
X0057269Y0026967D01*
X0056855Y0025969D02*
X0055145Y0025969D01*
X0055200Y0024970D02*
X0056800Y0024970D01*
X0056880Y0023972D02*
X0055120Y0023972D01*
X0054707Y0022973D02*
X0057293Y0022973D01*
X0058086Y0021975D02*
X0053914Y0021975D01*
X0052261Y0020976D02*
X0059739Y0020976D01*
X0062261Y0020976D02*
X0064862Y0020976D01*
X0067095Y0020976D02*
X0068545Y0020976D01*
X0070500Y0020976D02*
X0071500Y0020976D01*
X0071500Y0020321D02*
X0072101Y0020416D01*
X0072804Y0020644D01*
X0073463Y0020980D01*
X0074062Y0021415D01*
X0074585Y0021938D01*
X0075020Y0022537D01*
X0075356Y0023196D01*
X0075584Y0023899D01*
X0075679Y0024500D01*
X0071500Y0024500D01*
X0071500Y0020321D01*
X0071500Y0021975D02*
X0070500Y0021975D01*
X0070500Y0022973D02*
X0071500Y0022973D01*
X0071500Y0023972D02*
X0070500Y0023972D01*
X0070500Y0024500D02*
X0067419Y0024500D01*
X0066869Y0025050D01*
X0065200Y0025050D01*
X0065200Y0025835D01*
X0064561Y0027379D01*
X0064040Y0027900D01*
X0067297Y0027900D01*
X0066980Y0027463D01*
X0066644Y0026804D01*
X0066416Y0026101D01*
X0066321Y0025500D01*
X0070500Y0025500D01*
X0070500Y0024500D01*
X0070500Y0024970D02*
X0066949Y0024970D01*
X0066395Y0025969D02*
X0065145Y0025969D01*
X0064731Y0026967D02*
X0066727Y0026967D01*
X0067399Y0031960D02*
X0063899Y0031960D01*
X0064700Y0032958D02*
X0066765Y0032958D01*
X0066407Y0033957D02*
X0065114Y0033957D01*
X0065200Y0034955D02*
X0070500Y0034955D01*
X0070500Y0035954D02*
X0071500Y0035954D01*
X0071500Y0035500D02*
X0075679Y0035500D01*
X0075584Y0036101D01*
X0075552Y0036200D01*
X0076951Y0036200D01*
X0076800Y0035835D01*
X0076800Y0034165D01*
X0077273Y0033023D01*
X0076150Y0031900D01*
X0074547Y0031900D01*
X0074585Y0031938D01*
X0075020Y0032537D01*
X0075356Y0033196D01*
X0075584Y0033899D01*
X0075679Y0034500D01*
X0071500Y0034500D01*
X0071500Y0035500D01*
X0071500Y0034955D02*
X0076800Y0034955D01*
X0076849Y0035954D02*
X0075608Y0035954D01*
X0075593Y0033957D02*
X0076886Y0033957D01*
X0077209Y0032958D02*
X0075235Y0032958D01*
X0074601Y0031960D02*
X0076210Y0031960D01*
X0076979Y0029900D02*
X0047879Y0029900D01*
X0043979Y0033800D01*
X0045979Y0034955D02*
X0046800Y0034955D01*
X0046849Y0035954D02*
X0045979Y0035954D01*
X0045979Y0036952D02*
X0047263Y0036952D01*
X0048011Y0037951D02*
X0045979Y0037951D01*
X0045979Y0038949D02*
X0049560Y0038949D01*
X0050165Y0040800D02*
X0051835Y0040800D01*
X0053379Y0041439D01*
X0054561Y0042621D01*
X0055200Y0044165D01*
X0055200Y0045835D01*
X0054561Y0047379D01*
X0053379Y0048561D01*
X0051835Y0049200D01*
X0050165Y0049200D01*
X0048621Y0048561D01*
X0047439Y0047379D01*
X0046800Y0045835D01*
X0046800Y0044165D01*
X0047439Y0042621D01*
X0048621Y0041439D01*
X0050165Y0040800D01*
X0049811Y0040946D02*
X0045979Y0040946D01*
X0045979Y0041945D02*
X0048115Y0041945D01*
X0047306Y0042943D02*
X0045979Y0042943D01*
X0045979Y0043942D02*
X0046892Y0043942D01*
X0046800Y0044940D02*
X0045979Y0044940D01*
X0045979Y0045939D02*
X0046843Y0045939D01*
X0047256Y0046937D02*
X0045979Y0046937D01*
X0045771Y0047936D02*
X0047996Y0047936D01*
X0049524Y0048934D02*
X0044773Y0048934D01*
X0043774Y0049933D02*
X0075776Y0049933D01*
X0074777Y0050932D02*
X0072153Y0050932D01*
X0073870Y0051930D02*
X0074579Y0051930D01*
X0074004Y0047936D02*
X0077996Y0047936D01*
X0077256Y0046937D02*
X0074744Y0046937D01*
X0075157Y0045939D02*
X0076843Y0045939D01*
X0076800Y0044940D02*
X0075200Y0044940D01*
X0075108Y0043942D02*
X0076892Y0043942D01*
X0077306Y0042943D02*
X0074694Y0042943D01*
X0073885Y0041945D02*
X0078115Y0041945D01*
X0079811Y0040946D02*
X0072189Y0040946D01*
X0071500Y0038949D02*
X0070500Y0038949D01*
X0070500Y0037951D02*
X0071500Y0037951D01*
X0071500Y0036952D02*
X0070500Y0036952D01*
X0068440Y0038949D02*
X0062440Y0038949D01*
X0063989Y0037951D02*
X0067334Y0037951D01*
X0066720Y0036952D02*
X0064737Y0036952D01*
X0065151Y0035954D02*
X0066392Y0035954D01*
X0069811Y0040946D02*
X0062189Y0040946D01*
X0063885Y0041945D02*
X0068115Y0041945D01*
X0067306Y0042943D02*
X0064694Y0042943D01*
X0065108Y0043942D02*
X0066892Y0043942D01*
X0066800Y0044940D02*
X0065200Y0044940D01*
X0065157Y0045939D02*
X0066843Y0045939D01*
X0067256Y0046937D02*
X0064744Y0046937D01*
X0064004Y0047936D02*
X0067996Y0047936D01*
X0059524Y0048934D02*
X0052476Y0048934D01*
X0054004Y0047936D02*
X0057996Y0047936D01*
X0057256Y0046937D02*
X0054744Y0046937D01*
X0055157Y0045939D02*
X0056843Y0045939D01*
X0056800Y0044940D02*
X0055200Y0044940D01*
X0055108Y0043942D02*
X0056892Y0043942D01*
X0057306Y0042943D02*
X0054694Y0042943D01*
X0053885Y0041945D02*
X0055971Y0041945D01*
X0054972Y0040946D02*
X0052189Y0040946D01*
X0059185Y0040946D02*
X0059811Y0040946D01*
X0059379Y0039948D02*
X0074274Y0039948D01*
X0073779Y0038949D02*
X0073560Y0038949D01*
X0077884Y0039948D02*
X0123879Y0039948D01*
X0123879Y0040946D02*
X0122189Y0040946D01*
X0122440Y0038949D02*
X0123879Y0038949D01*
X0127879Y0038949D02*
X0129560Y0038949D01*
X0128011Y0037951D02*
X0127879Y0037951D01*
X0127879Y0039948D02*
X0143979Y0039948D01*
X0143979Y0040946D02*
X0142189Y0040946D01*
X0143885Y0041945D02*
X0143979Y0041945D01*
X0143979Y0038949D02*
X0142440Y0038949D01*
X0147979Y0038949D02*
X0149560Y0038949D01*
X0150165Y0039200D02*
X0148621Y0038561D01*
X0147979Y0037918D01*
X0147979Y0042082D01*
X0148621Y0041439D01*
X0150165Y0040800D01*
X0151835Y0040800D01*
X0153379Y0041439D01*
X0154561Y0042621D01*
X0155200Y0044165D01*
X0155200Y0045835D01*
X0154561Y0047379D01*
X0153379Y0048561D01*
X0151835Y0049200D01*
X0150165Y0049200D01*
X0148621Y0048561D01*
X0147979Y0047918D01*
X0147979Y0050850D01*
X0145043Y0053785D01*
X0145200Y0054165D01*
X0145200Y0055835D01*
X0144561Y0057379D01*
X0144040Y0057900D01*
X0147960Y0057900D01*
X0147439Y0057379D01*
X0146800Y0055835D01*
X0146800Y0054165D01*
X0147439Y0052621D01*
X0148621Y0051439D01*
X0150165Y0050800D01*
X0151835Y0050800D01*
X0153379Y0051439D01*
X0154561Y0052621D01*
X0155200Y0054165D01*
X0155200Y0055835D01*
X0154561Y0057379D01*
X0154040Y0057900D01*
X0157960Y0057900D01*
X0157439Y0057379D01*
X0156800Y0055835D01*
X0156800Y0054165D01*
X0157439Y0052621D01*
X0158621Y0051439D01*
X0160165Y0050800D01*
X0161479Y0050800D01*
X0161479Y0049230D01*
X0161509Y0049200D01*
X0160165Y0049200D01*
X0158621Y0048561D01*
X0157439Y0047379D01*
X0156800Y0045835D01*
X0156800Y0044165D01*
X0157439Y0042621D01*
X0158621Y0041439D01*
X0160165Y0040800D01*
X0161835Y0040800D01*
X0163379Y0041439D01*
X0163979Y0042039D01*
X0163979Y0038645D01*
X0163463Y0039020D01*
X0162804Y0039356D01*
X0162101Y0039584D01*
X0161500Y0039679D01*
X0161500Y0035500D01*
X0160500Y0035500D01*
X0160500Y0039679D01*
X0159899Y0039584D01*
X0159196Y0039356D01*
X0158537Y0039020D01*
X0157938Y0038585D01*
X0157415Y0038062D01*
X0156980Y0037463D01*
X0156644Y0036804D01*
X0156416Y0036101D01*
X0156321Y0035500D01*
X0160500Y0035500D01*
X0160500Y0034500D01*
X0161500Y0034500D01*
X0161500Y0030321D01*
X0162101Y0030416D01*
X0162804Y0030644D01*
X0163463Y0030980D01*
X0163979Y0031355D01*
X0163979Y0028645D01*
X0163463Y0029020D01*
X0162804Y0029356D01*
X0162101Y0029584D01*
X0161500Y0029679D01*
X0161500Y0025500D01*
X0160500Y0025500D01*
X0160500Y0029679D01*
X0159899Y0029584D01*
X0159196Y0029356D01*
X0158537Y0029020D01*
X0157938Y0028585D01*
X0157415Y0028062D01*
X0156980Y0027463D01*
X0156644Y0026804D01*
X0156416Y0026101D01*
X0156321Y0025500D01*
X0160500Y0025500D01*
X0160500Y0024500D01*
X0161500Y0024500D01*
X0161500Y0020321D01*
X0162101Y0020416D01*
X0162804Y0020644D01*
X0163463Y0020980D01*
X0163979Y0021355D01*
X0163979Y0019167D01*
X0163882Y0019037D01*
X0163979Y0018358D01*
X0163979Y0017672D01*
X0164093Y0017557D01*
X0164116Y0017397D01*
X0164645Y0017000D01*
X0148507Y0017000D01*
X0147979Y0017528D01*
X0147979Y0021386D01*
X0148537Y0020980D01*
X0149196Y0020644D01*
X0149899Y0020416D01*
X0150500Y0020321D01*
X0150500Y0024500D01*
X0151500Y0024500D01*
X0151500Y0025500D01*
X0150500Y0025500D01*
X0150500Y0029679D01*
X0149899Y0029584D01*
X0149196Y0029356D01*
X0148537Y0029020D01*
X0147979Y0028614D01*
X0147979Y0032082D01*
X0148621Y0031439D01*
X0150165Y0030800D01*
X0151835Y0030800D01*
X0153379Y0031439D01*
X0154561Y0032621D01*
X0155200Y0034165D01*
X0155200Y0035835D01*
X0154561Y0037379D01*
X0153379Y0038561D01*
X0151835Y0039200D01*
X0150165Y0039200D01*
X0149811Y0040946D02*
X0147979Y0040946D01*
X0147979Y0039948D02*
X0153779Y0039948D01*
X0153779Y0039047D02*
X0155126Y0037700D01*
X0157031Y0037700D01*
X0158379Y0039047D01*
X0158379Y0040953D01*
X0157031Y0042300D01*
X0155126Y0042300D01*
X0153779Y0040953D01*
X0153779Y0039047D01*
X0153877Y0038949D02*
X0152440Y0038949D01*
X0153989Y0037951D02*
X0154875Y0037951D01*
X0154737Y0036952D02*
X0156720Y0036952D01*
X0156392Y0035954D02*
X0155151Y0035954D01*
X0155200Y0034955D02*
X0160500Y0034955D01*
X0160500Y0034500D02*
X0156321Y0034500D01*
X0156416Y0033899D01*
X0156644Y0033196D01*
X0156980Y0032537D01*
X0157415Y0031938D01*
X0157938Y0031415D01*
X0158537Y0030980D01*
X0159196Y0030644D01*
X0159899Y0030416D01*
X0160500Y0030321D01*
X0160500Y0034500D01*
X0160500Y0033957D02*
X0161500Y0033957D01*
X0161500Y0032958D02*
X0160500Y0032958D01*
X0160500Y0031960D02*
X0161500Y0031960D01*
X0161500Y0030961D02*
X0160500Y0030961D01*
X0158574Y0030961D02*
X0152225Y0030961D01*
X0152101Y0029584D02*
X0151500Y0029679D01*
X0151500Y0025500D01*
X0155679Y0025500D01*
X0155584Y0026101D01*
X0155356Y0026804D01*
X0155020Y0027463D01*
X0154585Y0028062D01*
X0154062Y0028585D01*
X0153463Y0029020D01*
X0152804Y0029356D01*
X0152101Y0029584D01*
X0151500Y0028964D02*
X0150500Y0028964D01*
X0150500Y0027966D02*
X0151500Y0027966D01*
X0151500Y0026967D02*
X0150500Y0026967D01*
X0150500Y0025969D02*
X0151500Y0025969D01*
X0151500Y0024970D02*
X0160500Y0024970D01*
X0160500Y0024500D02*
X0156321Y0024500D01*
X0156416Y0023899D01*
X0156644Y0023196D01*
X0156980Y0022537D01*
X0157415Y0021938D01*
X0157938Y0021415D01*
X0158537Y0020980D01*
X0159196Y0020644D01*
X0159899Y0020416D01*
X0160500Y0020321D01*
X0160500Y0024500D01*
X0160500Y0023972D02*
X0161500Y0023972D01*
X0161500Y0022973D02*
X0160500Y0022973D01*
X0160500Y0021975D02*
X0161500Y0021975D01*
X0161500Y0020976D02*
X0160500Y0020976D01*
X0158545Y0020976D02*
X0153455Y0020976D01*
X0153463Y0020980D02*
X0154062Y0021415D01*
X0154585Y0021938D01*
X0155020Y0022537D01*
X0155356Y0023196D01*
X0155584Y0023899D01*
X0155679Y0024500D01*
X0151500Y0024500D01*
X0151500Y0020321D01*
X0152101Y0020416D01*
X0152804Y0020644D01*
X0153463Y0020980D01*
X0154611Y0021975D02*
X0157388Y0021975D01*
X0156758Y0022973D02*
X0155242Y0022973D01*
X0155596Y0023972D02*
X0156404Y0023972D01*
X0156395Y0025969D02*
X0155605Y0025969D01*
X0155273Y0026967D02*
X0156727Y0026967D01*
X0157345Y0027966D02*
X0154655Y0027966D01*
X0153540Y0028964D02*
X0158460Y0028964D01*
X0160500Y0028964D02*
X0161500Y0028964D01*
X0161500Y0027966D02*
X0160500Y0027966D01*
X0160500Y0026967D02*
X0161500Y0026967D01*
X0161500Y0025969D02*
X0160500Y0025969D01*
X0163540Y0028964D02*
X0163979Y0028964D01*
X0163979Y0029963D02*
X0147979Y0029963D01*
X0147979Y0030961D02*
X0149775Y0030961D01*
X0148100Y0031960D02*
X0147979Y0031960D01*
X0147979Y0028964D02*
X0148460Y0028964D01*
X0150500Y0023972D02*
X0151500Y0023972D01*
X0151500Y0022973D02*
X0150500Y0022973D01*
X0150500Y0021975D02*
X0151500Y0021975D01*
X0151500Y0020976D02*
X0150500Y0020976D01*
X0148545Y0020976D02*
X0147979Y0020976D01*
X0147979Y0019978D02*
X0163979Y0019978D01*
X0163979Y0020976D02*
X0163455Y0020976D01*
X0163890Y0018979D02*
X0147979Y0018979D01*
X0147979Y0017981D02*
X0163979Y0017981D01*
X0165979Y0018500D02*
X0165979Y0057900D01*
X0163979Y0059900D01*
X0135900Y0059900D01*
X0131000Y0055000D01*
X0135200Y0054926D02*
X0136800Y0054926D01*
X0136837Y0055924D02*
X0135163Y0055924D01*
X0135751Y0056923D02*
X0137250Y0056923D01*
X0136898Y0053927D02*
X0135102Y0053927D01*
X0134688Y0052929D02*
X0137312Y0052929D01*
X0141000Y0055000D02*
X0145979Y0050021D01*
X0145979Y0016700D01*
X0147679Y0015000D01*
X0177479Y0015000D01*
X0179379Y0015700D01*
X0287079Y0015800D01*
X0288979Y0016300D01*
X0289779Y0017100D01*
X0293579Y0020600D01*
X0294979Y0020600D01*
X0296574Y0021975D02*
X0298086Y0021975D01*
X0298621Y0021439D02*
X0300165Y0020800D01*
X0301835Y0020800D01*
X0303379Y0021439D01*
X0304561Y0022621D01*
X0305200Y0024165D01*
X0305200Y0025835D01*
X0304561Y0027379D01*
X0303379Y0028561D01*
X0301835Y0029200D01*
X0300165Y0029200D01*
X0298621Y0028561D01*
X0297439Y0027379D01*
X0296800Y0025835D01*
X0296800Y0024165D01*
X0297439Y0022621D01*
X0298621Y0021439D01*
X0299739Y0020976D02*
X0297079Y0020976D01*
X0297079Y0019978D02*
X0306222Y0019978D01*
X0306002Y0020976D02*
X0302261Y0020976D01*
X0303914Y0021975D02*
X0305836Y0021975D01*
X0305738Y0022973D02*
X0304707Y0022973D01*
X0305120Y0023972D02*
X0320500Y0023972D01*
X0320500Y0024970D02*
X0321500Y0024970D01*
X0321500Y0025969D02*
X0320500Y0025969D01*
X0320500Y0026967D02*
X0321500Y0026967D01*
X0321500Y0027966D02*
X0320500Y0027966D01*
X0320500Y0028964D02*
X0321500Y0028964D01*
X0321500Y0029963D02*
X0320500Y0029963D01*
X0320500Y0030961D02*
X0321500Y0030961D01*
X0321500Y0031960D02*
X0320500Y0031960D01*
X0320500Y0032958D02*
X0321500Y0032958D01*
X0321500Y0033957D02*
X0320500Y0033957D01*
X0320500Y0034955D02*
X0321500Y0034955D01*
X0321500Y0035954D02*
X0320500Y0035954D01*
X0320500Y0036952D02*
X0321500Y0036952D01*
X0321500Y0037951D02*
X0320500Y0037951D01*
X0320500Y0038949D02*
X0321500Y0038949D01*
X0323650Y0038949D02*
X0332501Y0038949D01*
X0333499Y0037951D02*
X0327000Y0037951D01*
X0328965Y0036952D02*
X0334498Y0036952D01*
X0334979Y0035954D02*
X0330395Y0035954D01*
X0331551Y0034955D02*
X0334979Y0034955D01*
X0334979Y0033957D02*
X0332511Y0033957D01*
X0333322Y0032958D02*
X0334979Y0032958D01*
X0334979Y0031960D02*
X0333990Y0031960D01*
X0334550Y0030961D02*
X0334979Y0030961D01*
X0338979Y0030961D02*
X0346579Y0030961D01*
X0346579Y0029963D02*
X0338979Y0029963D01*
X0338979Y0028964D02*
X0346579Y0028964D01*
X0346579Y0027966D02*
X0338979Y0027966D01*
X0338979Y0026967D02*
X0346579Y0026967D01*
X0346579Y0025969D02*
X0338979Y0025969D01*
X0338979Y0024970D02*
X0346579Y0024970D01*
X0346579Y0023972D02*
X0338979Y0023972D01*
X0338979Y0022973D02*
X0346579Y0022973D01*
X0346579Y0021975D02*
X0338979Y0021975D01*
X0338979Y0020976D02*
X0346579Y0020976D01*
X0346579Y0019978D02*
X0338979Y0019978D01*
X0338979Y0018979D02*
X0346579Y0018979D01*
X0346579Y0017981D02*
X0338979Y0017981D01*
X0338979Y0016982D02*
X0346579Y0016982D01*
X0346579Y0015984D02*
X0338979Y0015984D01*
X0338979Y0014985D02*
X0346579Y0014985D01*
X0346579Y0013987D02*
X0338979Y0013987D01*
X0338979Y0012988D02*
X0346579Y0012988D01*
X0346579Y0011990D02*
X0338597Y0011990D01*
X0337598Y0010991D02*
X0346441Y0010991D01*
X0345443Y0009993D02*
X0336600Y0009993D01*
X0335601Y0008994D02*
X0344444Y0008994D01*
X0345179Y0006900D02*
X0348579Y0010300D01*
X0348579Y0052300D01*
X0345879Y0055000D01*
X0301000Y0055000D01*
X0296800Y0054926D02*
X0295200Y0054926D01*
X0295200Y0054165D02*
X0295008Y0053700D01*
X0295049Y0053700D01*
X0296279Y0052470D01*
X0296279Y0050730D01*
X0295049Y0049500D01*
X0293309Y0049500D01*
X0292079Y0050730D01*
X0292079Y0050901D01*
X0291835Y0050800D01*
X0290165Y0050800D01*
X0288621Y0051439D01*
X0287439Y0052621D01*
X0286800Y0054165D01*
X0286800Y0055835D01*
X0287439Y0057379D01*
X0288621Y0058561D01*
X0290165Y0059200D01*
X0291835Y0059200D01*
X0293379Y0058561D01*
X0294561Y0057379D01*
X0295200Y0055835D01*
X0295200Y0054165D01*
X0295102Y0053927D02*
X0296800Y0053927D01*
X0296800Y0052929D02*
X0295820Y0052929D01*
X0296279Y0051930D02*
X0296800Y0051930D01*
X0297254Y0050932D02*
X0296279Y0050932D01*
X0295482Y0049933D02*
X0346579Y0049933D01*
X0346579Y0048934D02*
X0302476Y0048934D01*
X0304004Y0047936D02*
X0346579Y0047936D01*
X0346579Y0046937D02*
X0330170Y0046937D01*
X0331168Y0045939D02*
X0346579Y0045939D01*
X0346579Y0044940D02*
X0332167Y0044940D01*
X0333165Y0043942D02*
X0346579Y0043942D01*
X0346579Y0042943D02*
X0334164Y0042943D01*
X0335162Y0041945D02*
X0346579Y0041945D01*
X0346579Y0040946D02*
X0336161Y0040946D01*
X0337159Y0039948D02*
X0346579Y0039948D01*
X0346579Y0038949D02*
X0338158Y0038949D01*
X0338979Y0037951D02*
X0346579Y0037951D01*
X0346579Y0036952D02*
X0338979Y0036952D01*
X0338979Y0035954D02*
X0346579Y0035954D01*
X0346579Y0034955D02*
X0338979Y0034955D01*
X0338979Y0033957D02*
X0346579Y0033957D01*
X0346579Y0032958D02*
X0338979Y0032958D01*
X0338979Y0031960D02*
X0346579Y0031960D01*
X0336979Y0037300D02*
X0329279Y0045000D01*
X0301000Y0045000D01*
X0297996Y0047936D02*
X0294004Y0047936D01*
X0294561Y0047379D02*
X0293379Y0048561D01*
X0291835Y0049200D01*
X0290165Y0049200D01*
X0288621Y0048561D01*
X0287439Y0047379D01*
X0286800Y0045835D01*
X0286800Y0044165D01*
X0287439Y0042621D01*
X0288621Y0041439D01*
X0290165Y0040800D01*
X0291835Y0040800D01*
X0293379Y0041439D01*
X0294561Y0042621D01*
X0295200Y0044165D01*
X0295200Y0045835D01*
X0294561Y0047379D01*
X0294744Y0046937D02*
X0297256Y0046937D01*
X0296843Y0045939D02*
X0295157Y0045939D01*
X0295200Y0044940D02*
X0296800Y0044940D01*
X0296892Y0043942D02*
X0295108Y0043942D01*
X0294694Y0042943D02*
X0297306Y0042943D01*
X0298115Y0041945D02*
X0293885Y0041945D01*
X0292189Y0040946D02*
X0299811Y0040946D01*
X0302189Y0040946D02*
X0330504Y0040946D01*
X0331502Y0039948D02*
X0278279Y0039948D01*
X0278279Y0040946D02*
X0279811Y0040946D01*
X0279560Y0038949D02*
X0278279Y0038949D01*
X0282440Y0038949D02*
X0289560Y0038949D01*
X0290165Y0039200D02*
X0288621Y0038561D01*
X0287439Y0037379D01*
X0286800Y0035835D01*
X0286800Y0034165D01*
X0287439Y0032621D01*
X0288621Y0031439D01*
X0290165Y0030800D01*
X0291835Y0030800D01*
X0293379Y0031439D01*
X0294561Y0032621D01*
X0295200Y0034165D01*
X0295200Y0035835D01*
X0294561Y0037379D01*
X0293379Y0038561D01*
X0291835Y0039200D01*
X0290165Y0039200D01*
X0289811Y0040946D02*
X0282189Y0040946D01*
X0283885Y0041945D02*
X0288115Y0041945D01*
X0287306Y0042943D02*
X0284694Y0042943D01*
X0285108Y0043942D02*
X0286892Y0043942D01*
X0286800Y0044940D02*
X0285200Y0044940D01*
X0285157Y0045939D02*
X0286843Y0045939D01*
X0287256Y0046937D02*
X0284744Y0046937D01*
X0284004Y0047936D02*
X0287996Y0047936D01*
X0289524Y0048934D02*
X0282476Y0048934D01*
X0282153Y0050932D02*
X0289847Y0050932D01*
X0288130Y0051930D02*
X0283870Y0051930D01*
X0284688Y0052929D02*
X0287312Y0052929D01*
X0286898Y0053927D02*
X0285102Y0053927D01*
X0285200Y0054926D02*
X0286800Y0054926D01*
X0286837Y0055924D02*
X0285163Y0055924D01*
X0284750Y0056923D02*
X0287250Y0056923D01*
X0287981Y0057921D02*
X0284019Y0057921D01*
X0282512Y0058920D02*
X0289488Y0058920D01*
X0292512Y0058920D02*
X0297105Y0058920D01*
X0296800Y0057921D02*
X0294019Y0057921D01*
X0294750Y0056923D02*
X0296800Y0056923D01*
X0296800Y0055924D02*
X0295163Y0055924D01*
X0296862Y0060917D02*
X0278279Y0060917D01*
X0278279Y0061915D02*
X0295864Y0061915D01*
X0295179Y0062914D02*
X0278279Y0062914D01*
X0278279Y0063912D02*
X0295179Y0063912D01*
X0295179Y0064911D02*
X0278279Y0064911D01*
X0278279Y0065909D02*
X0295179Y0065909D01*
X0295179Y0066908D02*
X0278279Y0066908D01*
X0278279Y0067906D02*
X0295179Y0067906D01*
X0295179Y0068905D02*
X0278636Y0068905D01*
X0279635Y0069903D02*
X0295179Y0069903D01*
X0295179Y0070902D02*
X0280633Y0070902D01*
X0281632Y0071900D02*
X0295179Y0071900D01*
X0295179Y0072899D02*
X0282630Y0072899D01*
X0283629Y0073897D02*
X0295179Y0073897D01*
X0295179Y0074896D02*
X0284627Y0074896D01*
X0285626Y0075894D02*
X0295179Y0075894D01*
X0295179Y0076893D02*
X0286624Y0076893D01*
X0287623Y0077891D02*
X0295179Y0077891D01*
X0295179Y0078890D02*
X0288621Y0078890D01*
X0289620Y0079888D02*
X0295179Y0079888D01*
X0295179Y0080887D02*
X0290618Y0080887D01*
X0291617Y0081885D02*
X0295179Y0081885D01*
X0295363Y0082884D02*
X0292615Y0082884D01*
X0293279Y0083882D02*
X0296361Y0083882D01*
X0293279Y0084881D02*
X0311160Y0084881D01*
X0312158Y0085879D02*
X0293279Y0085879D01*
X0293279Y0086878D02*
X0312879Y0086878D01*
X0312879Y0087876D02*
X0293279Y0087876D01*
X0293279Y0088875D02*
X0312879Y0088875D01*
X0312879Y0089873D02*
X0293279Y0089873D01*
X0293279Y0090872D02*
X0312879Y0090872D01*
X0312879Y0091870D02*
X0293279Y0091870D01*
X0293279Y0092869D02*
X0312879Y0092869D01*
X0312879Y0093868D02*
X0293279Y0093868D01*
X0293279Y0094866D02*
X0312879Y0094866D01*
X0312879Y0095865D02*
X0293279Y0095865D01*
X0293279Y0096863D02*
X0312879Y0096863D01*
X0312879Y0097862D02*
X0293279Y0097862D01*
X0293279Y0098860D02*
X0312879Y0098860D01*
X0312879Y0099859D02*
X0293279Y0099859D01*
X0293279Y0100857D02*
X0312879Y0100857D01*
X0312879Y0101856D02*
X0293279Y0101856D01*
X0293279Y0102854D02*
X0312879Y0102854D01*
X0312879Y0103853D02*
X0293722Y0103853D01*
X0294854Y0104851D02*
X0312879Y0104851D01*
X0312879Y0105850D02*
X0295986Y0105850D01*
X0297118Y0106848D02*
X0312879Y0106848D01*
X0312879Y0107847D02*
X0298250Y0107847D01*
X0299382Y0108845D02*
X0312879Y0108845D01*
X0312879Y0109844D02*
X0300515Y0109844D01*
X0301647Y0110842D02*
X0312879Y0110842D01*
X0312879Y0111841D02*
X0302779Y0111841D01*
X0303911Y0112839D02*
X0312879Y0112839D01*
X0312879Y0113838D02*
X0305043Y0113838D01*
X0306175Y0114836D02*
X0312879Y0114836D01*
X0312879Y0115835D02*
X0307307Y0115835D01*
X0308465Y0116833D02*
X0312879Y0116833D01*
X0312879Y0117832D02*
X0309379Y0117832D01*
X0309391Y0118830D02*
X0312879Y0118830D01*
X0312879Y0119829D02*
X0309379Y0119829D01*
X0309379Y0120827D02*
X0312879Y0120827D01*
X0312879Y0121826D02*
X0309379Y0121826D01*
X0309379Y0122824D02*
X0312879Y0122824D01*
X0312879Y0123823D02*
X0309379Y0123823D01*
X0309379Y0124821D02*
X0312879Y0124821D01*
X0312879Y0125820D02*
X0309379Y0125820D01*
X0309379Y0126818D02*
X0312879Y0126818D01*
X0312879Y0127817D02*
X0309379Y0127817D01*
X0309379Y0128815D02*
X0312879Y0128815D01*
X0312879Y0129814D02*
X0309379Y0129814D01*
X0309379Y0130812D02*
X0312879Y0130812D01*
X0312879Y0131811D02*
X0309379Y0131811D01*
X0309379Y0132809D02*
X0312879Y0132809D01*
X0312879Y0133808D02*
X0309379Y0133808D01*
X0309379Y0134806D02*
X0312879Y0134806D01*
X0312879Y0135805D02*
X0309379Y0135805D01*
X0309379Y0136803D02*
X0312879Y0136803D01*
X0312879Y0137802D02*
X0309379Y0137802D01*
X0309379Y0138801D02*
X0312879Y0138801D01*
X0312879Y0139799D02*
X0309379Y0139799D01*
X0309379Y0140798D02*
X0312879Y0140798D01*
X0312879Y0141796D02*
X0309379Y0141796D01*
X0309379Y0142795D02*
X0312879Y0142795D01*
X0312879Y0143793D02*
X0309379Y0143793D01*
X0309379Y0144792D02*
X0312879Y0144792D01*
X0312879Y0145790D02*
X0309379Y0145790D01*
X0309379Y0146789D02*
X0312879Y0146789D01*
X0312879Y0147787D02*
X0309379Y0147787D01*
X0309379Y0148786D02*
X0312879Y0148786D01*
X0312879Y0149784D02*
X0309379Y0149784D01*
X0309379Y0150783D02*
X0312879Y0150783D01*
X0312879Y0151781D02*
X0309379Y0151781D01*
X0309379Y0152780D02*
X0312879Y0152780D01*
X0312879Y0153778D02*
X0309379Y0153778D01*
X0309379Y0154777D02*
X0312879Y0154777D01*
X0312879Y0155775D02*
X0309379Y0155775D01*
X0309379Y0156774D02*
X0312879Y0156774D01*
X0312879Y0157772D02*
X0309379Y0157772D01*
X0309379Y0158771D02*
X0312879Y0158771D01*
X0312879Y0159769D02*
X0309379Y0159769D01*
X0309379Y0160768D02*
X0312879Y0160768D01*
X0312879Y0161766D02*
X0309379Y0161766D01*
X0309379Y0162765D02*
X0312879Y0162765D01*
X0312879Y0163763D02*
X0309379Y0163763D01*
X0309379Y0164762D02*
X0312879Y0164762D01*
X0312879Y0165760D02*
X0309379Y0165760D01*
X0309379Y0166759D02*
X0312879Y0166759D01*
X0312879Y0167757D02*
X0309379Y0167757D01*
X0309379Y0168756D02*
X0312879Y0168756D01*
X0312879Y0169754D02*
X0309379Y0169754D01*
X0309279Y0170753D02*
X0312879Y0170753D01*
X0312879Y0171751D02*
X0308280Y0171751D01*
X0305877Y0171751D02*
X0303374Y0171751D01*
X0303376Y0170753D02*
X0304879Y0170753D01*
X0304779Y0169754D02*
X0303380Y0169754D01*
X0303379Y0169689D02*
X0303389Y0170502D01*
X0303377Y0170515D01*
X0303279Y0214801D01*
X0303279Y0215628D01*
X0303277Y0215630D01*
X0303277Y0215633D01*
X0302691Y0216216D01*
X0301497Y0217410D01*
X0300919Y0217995D01*
X0300912Y0217995D01*
X0300907Y0218000D01*
X0300085Y0218000D01*
X0296788Y0218019D01*
X0296784Y0218024D01*
X0295961Y0218024D01*
X0295272Y0218028D01*
X0295095Y0218205D01*
X0290920Y0218205D01*
X0290335Y0217619D01*
X0290335Y0214428D01*
X0290920Y0213843D01*
X0295095Y0213843D01*
X0295276Y0214024D01*
X0295949Y0214024D01*
X0299246Y0214005D01*
X0299281Y0213970D01*
X0299286Y0211580D01*
X0298829Y0212037D01*
X0297716Y0213150D01*
X0295426Y0213150D01*
X0295095Y0213480D01*
X0290920Y0213480D01*
X0290335Y0212895D01*
X0290335Y0209704D01*
X0290858Y0209181D01*
X0290756Y0209154D01*
X0290414Y0208956D01*
X0290134Y0208677D01*
X0289937Y0208335D01*
X0289835Y0207953D01*
X0289835Y0206665D01*
X0292917Y0206665D01*
X0292917Y0206484D01*
X0289835Y0206484D01*
X0289835Y0205196D01*
X0289937Y0204815D01*
X0290134Y0204473D01*
X0290414Y0204193D01*
X0290756Y0203996D01*
X0290858Y0203969D01*
X0290335Y0203446D01*
X0290335Y0200255D01*
X0290920Y0199669D01*
X0295095Y0199669D01*
X0295681Y0200255D01*
X0295681Y0203446D01*
X0295158Y0203969D01*
X0295260Y0203996D01*
X0295602Y0204193D01*
X0295881Y0204473D01*
X0296079Y0204815D01*
X0296181Y0205196D01*
X0296181Y0206484D01*
X0293098Y0206484D01*
X0293098Y0206665D01*
X0296181Y0206665D01*
X0296181Y0207757D01*
X0297388Y0206550D01*
X0299169Y0206550D01*
X0299297Y0206677D01*
X0299377Y0170542D01*
X0296665Y0167900D01*
X0286921Y0167900D01*
X0286921Y0169288D01*
X0286745Y0169465D01*
X0286921Y0169641D01*
X0286921Y0171650D01*
X0286335Y0172236D01*
X0282869Y0172236D01*
X0282283Y0171650D01*
X0282283Y0170283D01*
X0281134Y0170283D01*
X0280250Y0169400D01*
X0279079Y0168228D01*
X0279079Y0117628D01*
X0278750Y0117300D01*
X0278467Y0117300D01*
X0277179Y0116011D01*
X0277179Y0114189D01*
X0277592Y0113775D01*
X0275192Y0113775D01*
X0274142Y0112725D01*
X0271145Y0112725D01*
X0267779Y0116533D01*
X0267779Y0166189D01*
X0268467Y0165500D01*
X0270290Y0165500D01*
X0270719Y0165929D01*
X0270728Y0165921D01*
X0270551Y0165745D01*
X0270551Y0163735D01*
X0270728Y0163559D01*
X0270551Y0163383D01*
X0270551Y0161373D01*
X0270728Y0161197D01*
X0270551Y0161021D01*
X0270551Y0159011D01*
X0270728Y0158835D01*
X0270551Y0158658D01*
X0270551Y0156649D01*
X0270728Y0156472D01*
X0270551Y0156296D01*
X0270551Y0154287D01*
X0270728Y0154110D01*
X0270551Y0153934D01*
X0270551Y0151924D01*
X0270728Y0151748D01*
X0270551Y0151572D01*
X0270551Y0149562D01*
X0270728Y0149386D01*
X0270551Y0149209D01*
X0270551Y0147200D01*
X0270728Y0147024D01*
X0270551Y0146847D01*
X0270551Y0144838D01*
X0270728Y0144661D01*
X0270551Y0144485D01*
X0270551Y0142476D01*
X0270728Y0142299D01*
X0270551Y0142123D01*
X0270551Y0140113D01*
X0271137Y0139528D01*
X0273934Y0139528D01*
X0274520Y0140113D01*
X0274520Y0142123D01*
X0274343Y0142299D01*
X0274520Y0142476D01*
X0274520Y0144485D01*
X0274343Y0144661D01*
X0274520Y0144838D01*
X0274520Y0146847D01*
X0274343Y0147024D01*
X0274520Y0147200D01*
X0274520Y0149209D01*
X0274343Y0149386D01*
X0274520Y0149562D01*
X0274520Y0151572D01*
X0274343Y0151748D01*
X0274520Y0151924D01*
X0274520Y0153934D01*
X0274343Y0154110D01*
X0274520Y0154287D01*
X0274520Y0156296D01*
X0274343Y0156472D01*
X0274520Y0156649D01*
X0274520Y0158658D01*
X0274343Y0158835D01*
X0274520Y0159011D01*
X0274520Y0161021D01*
X0274343Y0161197D01*
X0274520Y0161373D01*
X0274520Y0163383D01*
X0274343Y0163559D01*
X0274520Y0163735D01*
X0274520Y0165202D01*
X0275168Y0165202D01*
X0275916Y0165950D01*
X0277029Y0167063D01*
X0277029Y0175298D01*
X0277823Y0176550D01*
X0283654Y0176550D01*
X0283654Y0176173D01*
X0281176Y0176173D01*
X0280591Y0175587D01*
X0280591Y0173381D01*
X0281176Y0172795D01*
X0285942Y0172795D01*
X0286528Y0173381D01*
X0286528Y0175587D01*
X0286437Y0175678D01*
X0286689Y0175930D01*
X0286689Y0176300D01*
X0288069Y0176300D01*
X0289329Y0177559D01*
X0289329Y0179341D01*
X0288069Y0180600D01*
X0286288Y0180600D01*
X0286038Y0180350D01*
X0277331Y0180350D01*
X0277132Y0180476D01*
X0276569Y0180350D01*
X0275992Y0180350D01*
X0275826Y0180184D01*
X0275596Y0180133D01*
X0275287Y0179645D01*
X0274879Y0179237D01*
X0274879Y0179002D01*
X0273637Y0177045D01*
X0273229Y0176637D01*
X0273229Y0176402D01*
X0273103Y0176204D01*
X0273229Y0175640D01*
X0273229Y0171465D01*
X0271707Y0171465D01*
X0271442Y0171200D01*
X0269250Y0171200D01*
X0268550Y0170500D01*
X0267779Y0169728D01*
X0267779Y0230953D01*
X0271318Y0235978D01*
X0271829Y0236489D01*
X0271829Y0236703D01*
X0271952Y0236878D01*
X0271829Y0237589D01*
X0271829Y0238311D01*
X0271677Y0238463D01*
X0271641Y0238674D01*
X0271050Y0239090D01*
X0270540Y0239600D01*
X0270326Y0239600D01*
X0270151Y0239723D01*
X0269439Y0239600D01*
X0268717Y0239600D01*
X0268566Y0239448D01*
X0268355Y0239412D01*
X0267939Y0238822D01*
X0267429Y0238311D01*
X0267429Y0238097D01*
X0263889Y0233072D01*
X0263379Y0232561D01*
X0263379Y0232347D01*
X0263255Y0232172D01*
X0263379Y0231461D01*
X0263379Y0115768D01*
X0263327Y0114926D01*
X0263379Y0114867D01*
X0263379Y0114789D01*
X0263975Y0114192D01*
X0267954Y0109692D01*
X0267954Y0109614D01*
X0268550Y0109017D01*
X0269109Y0108385D01*
X0269187Y0108380D01*
X0269242Y0108325D01*
X0270086Y0108325D01*
X0270928Y0108273D01*
X0270987Y0108325D01*
X0275965Y0108325D01*
X0277015Y0109375D01*
X0281110Y0109375D01*
X0280591Y0108855D01*
X0280591Y0106649D01*
X0281176Y0106063D01*
X0285942Y0106063D01*
X0286528Y0106649D01*
X0286528Y0108855D01*
X0286008Y0109375D01*
X0288740Y0109375D01*
X0288915Y0109550D01*
X0288915Y0109550D01*
X0290204Y0110839D01*
X0290204Y0114193D01*
X0290379Y0114719D01*
X0290204Y0115069D01*
X0290204Y0116468D01*
X0290379Y0116994D01*
X0290204Y0117344D01*
X0290204Y0118918D01*
X0290379Y0119444D01*
X0290204Y0119794D01*
X0290204Y0121193D01*
X0290379Y0121719D01*
X0290204Y0122069D01*
X0290204Y0123643D01*
X0290379Y0124169D01*
X0290204Y0124519D01*
X0290204Y0125918D01*
X0290379Y0126444D01*
X0290204Y0126794D01*
X0290204Y0128368D01*
X0290379Y0128894D01*
X0290204Y0129244D01*
X0290204Y0130643D01*
X0290379Y0131169D01*
X0290204Y0131519D01*
X0290204Y0133661D01*
X0289765Y0134100D01*
X0289890Y0134100D01*
X0291179Y0135389D01*
X0291179Y0137211D01*
X0289890Y0138500D01*
X0289007Y0138500D01*
X0289579Y0139072D01*
X0291479Y0140972D01*
X0291479Y0142789D01*
X0291679Y0142989D01*
X0291679Y0144811D01*
X0290390Y0146100D01*
X0288567Y0146100D01*
X0287279Y0144811D01*
X0287279Y0142989D01*
X0287479Y0142789D01*
X0287479Y0142628D01*
X0286921Y0142071D01*
X0286921Y0143304D01*
X0286745Y0143480D01*
X0286921Y0143657D01*
X0286921Y0145666D01*
X0286745Y0145843D01*
X0286921Y0146019D01*
X0286921Y0148028D01*
X0286745Y0148205D01*
X0286921Y0148381D01*
X0286921Y0150391D01*
X0286745Y0150567D01*
X0286921Y0150743D01*
X0286921Y0152753D01*
X0286745Y0152929D01*
X0286921Y0153105D01*
X0286921Y0155115D01*
X0286745Y0155291D01*
X0286921Y0155468D01*
X0286921Y0157477D01*
X0286745Y0157654D01*
X0286921Y0157830D01*
X0286921Y0159839D01*
X0286745Y0160016D01*
X0286921Y0160192D01*
X0286921Y0162202D01*
X0286745Y0162378D01*
X0286921Y0162554D01*
X0286921Y0163900D01*
X0297466Y0163900D01*
X0298281Y0163889D01*
X0298292Y0163900D01*
X0298307Y0163900D01*
X0298884Y0164477D01*
X0302194Y0167702D01*
X0302212Y0167702D01*
X0302785Y0168278D01*
X0303368Y0168846D01*
X0303368Y0168863D01*
X0303381Y0168876D01*
X0303379Y0169689D01*
X0303276Y0168756D02*
X0304779Y0168756D01*
X0304779Y0167757D02*
X0302267Y0167757D01*
X0301226Y0166759D02*
X0304779Y0166759D01*
X0304779Y0165760D02*
X0300201Y0165760D01*
X0299176Y0164762D02*
X0304779Y0164762D01*
X0304779Y0163763D02*
X0286921Y0163763D01*
X0286921Y0162765D02*
X0304779Y0162765D01*
X0304779Y0161766D02*
X0286921Y0161766D01*
X0286921Y0160768D02*
X0304779Y0160768D01*
X0304779Y0159769D02*
X0286921Y0159769D01*
X0286921Y0158771D02*
X0304779Y0158771D01*
X0304779Y0157772D02*
X0286864Y0157772D01*
X0286921Y0156774D02*
X0304779Y0156774D01*
X0304779Y0155775D02*
X0286921Y0155775D01*
X0286921Y0154777D02*
X0304779Y0154777D01*
X0304779Y0153778D02*
X0286921Y0153778D01*
X0286894Y0152780D02*
X0304779Y0152780D01*
X0304779Y0151781D02*
X0286921Y0151781D01*
X0286921Y0150783D02*
X0304779Y0150783D01*
X0304779Y0149784D02*
X0286921Y0149784D01*
X0286921Y0148786D02*
X0304779Y0148786D01*
X0304779Y0147787D02*
X0286921Y0147787D01*
X0286921Y0146789D02*
X0304779Y0146789D01*
X0304779Y0145790D02*
X0290700Y0145790D01*
X0291679Y0144792D02*
X0304779Y0144792D01*
X0304779Y0143793D02*
X0291679Y0143793D01*
X0291485Y0142795D02*
X0304779Y0142795D01*
X0304779Y0141796D02*
X0291479Y0141796D01*
X0291305Y0140798D02*
X0304779Y0140798D01*
X0304779Y0139799D02*
X0290306Y0139799D01*
X0289308Y0138801D02*
X0304779Y0138801D01*
X0304779Y0137802D02*
X0290588Y0137802D01*
X0291179Y0136803D02*
X0304779Y0136803D01*
X0304779Y0135805D02*
X0291179Y0135805D01*
X0290596Y0134806D02*
X0304779Y0134806D01*
X0304779Y0133808D02*
X0290057Y0133808D01*
X0290204Y0132809D02*
X0304779Y0132809D01*
X0304779Y0131811D02*
X0290204Y0131811D01*
X0290260Y0130812D02*
X0304779Y0130812D01*
X0304779Y0129814D02*
X0290204Y0129814D01*
X0290353Y0128815D02*
X0304779Y0128815D01*
X0304779Y0127817D02*
X0290204Y0127817D01*
X0290204Y0126818D02*
X0304779Y0126818D01*
X0304779Y0125820D02*
X0290204Y0125820D01*
X0290204Y0124821D02*
X0304779Y0124821D01*
X0304779Y0123823D02*
X0290264Y0123823D01*
X0290204Y0122824D02*
X0304779Y0122824D01*
X0304779Y0121826D02*
X0290325Y0121826D01*
X0290204Y0120827D02*
X0304779Y0120827D01*
X0304779Y0119829D02*
X0290204Y0119829D01*
X0290204Y0118830D02*
X0303749Y0118830D01*
X0302617Y0117832D02*
X0290204Y0117832D01*
X0290325Y0116833D02*
X0301485Y0116833D01*
X0300353Y0115835D02*
X0290204Y0115835D01*
X0290320Y0114836D02*
X0299221Y0114836D01*
X0298089Y0113838D02*
X0290204Y0113838D01*
X0290204Y0112839D02*
X0296957Y0112839D01*
X0295825Y0111841D02*
X0290204Y0111841D01*
X0290204Y0110842D02*
X0294692Y0110842D01*
X0293560Y0109844D02*
X0289209Y0109844D01*
X0286528Y0108845D02*
X0292428Y0108845D01*
X0291296Y0107847D02*
X0286528Y0107847D01*
X0286528Y0106848D02*
X0290164Y0106848D01*
X0289032Y0105850D02*
X0262379Y0105850D01*
X0262379Y0106848D02*
X0280591Y0106848D01*
X0280591Y0107847D02*
X0262379Y0107847D01*
X0262379Y0108845D02*
X0268702Y0108845D01*
X0267820Y0109844D02*
X0262379Y0109844D01*
X0262379Y0110842D02*
X0266937Y0110842D01*
X0266054Y0111841D02*
X0262379Y0111841D01*
X0262379Y0112839D02*
X0265171Y0112839D01*
X0264289Y0113838D02*
X0262379Y0113838D01*
X0262379Y0114836D02*
X0263379Y0114836D01*
X0263379Y0115835D02*
X0262379Y0115835D01*
X0262379Y0116833D02*
X0263379Y0116833D01*
X0263379Y0117832D02*
X0262379Y0117832D01*
X0262379Y0118830D02*
X0263379Y0118830D01*
X0263379Y0119829D02*
X0262379Y0119829D01*
X0262379Y0120827D02*
X0263379Y0120827D01*
X0263379Y0121826D02*
X0262379Y0121826D01*
X0262379Y0122824D02*
X0263379Y0122824D01*
X0263379Y0123823D02*
X0262379Y0123823D01*
X0262379Y0124821D02*
X0263379Y0124821D01*
X0263379Y0125820D02*
X0262379Y0125820D01*
X0262379Y0126818D02*
X0263379Y0126818D01*
X0263379Y0127817D02*
X0262379Y0127817D01*
X0262379Y0128815D02*
X0263379Y0128815D01*
X0263379Y0129814D02*
X0262379Y0129814D01*
X0262379Y0130812D02*
X0263379Y0130812D01*
X0263379Y0131811D02*
X0262379Y0131811D01*
X0262379Y0132809D02*
X0263379Y0132809D01*
X0263379Y0133808D02*
X0262379Y0133808D01*
X0262379Y0134806D02*
X0263379Y0134806D01*
X0263379Y0135805D02*
X0262379Y0135805D01*
X0262379Y0136803D02*
X0263379Y0136803D01*
X0263379Y0137802D02*
X0262379Y0137802D01*
X0262379Y0138801D02*
X0263379Y0138801D01*
X0263379Y0139799D02*
X0262379Y0139799D01*
X0262379Y0140798D02*
X0263379Y0140798D01*
X0263379Y0141796D02*
X0262379Y0141796D01*
X0262379Y0142795D02*
X0263379Y0142795D01*
X0263379Y0143793D02*
X0262379Y0143793D01*
X0262379Y0144792D02*
X0263379Y0144792D01*
X0263379Y0145790D02*
X0262379Y0145790D01*
X0262379Y0146789D02*
X0263379Y0146789D01*
X0263379Y0147787D02*
X0262379Y0147787D01*
X0262379Y0148786D02*
X0263379Y0148786D01*
X0263379Y0149784D02*
X0262379Y0149784D01*
X0262379Y0150783D02*
X0263379Y0150783D01*
X0263379Y0151781D02*
X0262379Y0151781D01*
X0262379Y0152780D02*
X0263379Y0152780D01*
X0263379Y0153778D02*
X0262379Y0153778D01*
X0262379Y0154777D02*
X0263379Y0154777D01*
X0263379Y0155775D02*
X0262379Y0155775D01*
X0262379Y0156774D02*
X0263379Y0156774D01*
X0263379Y0157772D02*
X0262379Y0157772D01*
X0262379Y0158771D02*
X0263379Y0158771D01*
X0263379Y0159769D02*
X0262379Y0159769D01*
X0262379Y0160768D02*
X0263379Y0160768D01*
X0263379Y0161766D02*
X0262379Y0161766D01*
X0262379Y0162765D02*
X0263379Y0162765D01*
X0263379Y0163763D02*
X0262379Y0163763D01*
X0262379Y0164762D02*
X0263379Y0164762D01*
X0263379Y0165760D02*
X0262379Y0165760D01*
X0262379Y0166759D02*
X0263379Y0166759D01*
X0263379Y0167757D02*
X0262379Y0167757D01*
X0262379Y0168756D02*
X0263379Y0168756D01*
X0263379Y0169754D02*
X0262379Y0169754D01*
X0262379Y0170753D02*
X0263379Y0170753D01*
X0263379Y0171751D02*
X0262379Y0171751D01*
X0262379Y0172750D02*
X0263379Y0172750D01*
X0263379Y0173748D02*
X0262379Y0173748D01*
X0262379Y0174747D02*
X0263379Y0174747D01*
X0263379Y0175745D02*
X0262379Y0175745D01*
X0262379Y0176744D02*
X0263379Y0176744D01*
X0263379Y0177742D02*
X0262379Y0177742D01*
X0262379Y0178741D02*
X0263379Y0178741D01*
X0263379Y0179739D02*
X0262379Y0179739D01*
X0262379Y0180738D02*
X0263379Y0180738D01*
X0263379Y0181737D02*
X0262379Y0181737D01*
X0262379Y0182735D02*
X0263379Y0182735D01*
X0263379Y0183734D02*
X0262379Y0183734D01*
X0262379Y0184732D02*
X0263379Y0184732D01*
X0263379Y0185731D02*
X0262379Y0185731D01*
X0262379Y0186729D02*
X0263379Y0186729D01*
X0263379Y0187728D02*
X0262379Y0187728D01*
X0262379Y0188726D02*
X0263379Y0188726D01*
X0263379Y0189725D02*
X0262379Y0189725D01*
X0262379Y0190723D02*
X0263379Y0190723D01*
X0263379Y0191722D02*
X0262379Y0191722D01*
X0262379Y0192720D02*
X0263379Y0192720D01*
X0263379Y0193719D02*
X0262379Y0193719D01*
X0262379Y0194717D02*
X0263379Y0194717D01*
X0263379Y0195716D02*
X0262379Y0195716D01*
X0262379Y0196714D02*
X0263379Y0196714D01*
X0263379Y0197713D02*
X0262379Y0197713D01*
X0262379Y0198711D02*
X0263379Y0198711D01*
X0263379Y0199710D02*
X0262379Y0199710D01*
X0262379Y0200708D02*
X0263379Y0200708D01*
X0263379Y0201707D02*
X0262379Y0201707D01*
X0262379Y0202705D02*
X0263379Y0202705D01*
X0263379Y0203704D02*
X0262379Y0203704D01*
X0262379Y0204702D02*
X0263379Y0204702D01*
X0263379Y0205701D02*
X0262379Y0205701D01*
X0262379Y0206699D02*
X0263379Y0206699D01*
X0263379Y0207698D02*
X0262379Y0207698D01*
X0262379Y0208696D02*
X0263379Y0208696D01*
X0263379Y0209695D02*
X0262379Y0209695D01*
X0262379Y0210693D02*
X0263379Y0210693D01*
X0263379Y0211692D02*
X0262379Y0211692D01*
X0262379Y0212690D02*
X0263379Y0212690D01*
X0263379Y0213689D02*
X0262379Y0213689D01*
X0262379Y0214687D02*
X0263379Y0214687D01*
X0263379Y0215686D02*
X0262379Y0215686D01*
X0262379Y0216684D02*
X0263379Y0216684D01*
X0263379Y0217683D02*
X0262379Y0217683D01*
X0262379Y0218681D02*
X0263379Y0218681D01*
X0263379Y0219680D02*
X0262379Y0219680D01*
X0262379Y0220678D02*
X0263379Y0220678D01*
X0263379Y0221677D02*
X0262379Y0221677D01*
X0262379Y0222675D02*
X0263379Y0222675D01*
X0263379Y0223674D02*
X0262379Y0223674D01*
X0262379Y0224672D02*
X0263379Y0224672D01*
X0263379Y0225671D02*
X0262379Y0225671D01*
X0262379Y0226670D02*
X0263379Y0226670D01*
X0263379Y0227668D02*
X0262379Y0227668D01*
X0262379Y0228667D02*
X0263379Y0228667D01*
X0263379Y0229665D02*
X0262379Y0229665D01*
X0262379Y0230664D02*
X0263379Y0230664D01*
X0263344Y0231662D02*
X0262379Y0231662D01*
X0262379Y0232661D02*
X0263478Y0232661D01*
X0264303Y0233659D02*
X0262379Y0233659D01*
X0262379Y0234658D02*
X0265006Y0234658D01*
X0265710Y0235656D02*
X0262379Y0235656D01*
X0262379Y0236655D02*
X0266413Y0236655D01*
X0267116Y0237653D02*
X0262379Y0237653D01*
X0262379Y0238652D02*
X0267769Y0238652D01*
X0269729Y0239650D02*
X0262379Y0239650D01*
X0262379Y0240649D02*
X0278173Y0240649D01*
X0278179Y0241647D02*
X0262379Y0241647D01*
X0262379Y0242646D02*
X0278179Y0242646D01*
X0278179Y0243644D02*
X0262379Y0243644D01*
X0262379Y0244643D02*
X0278179Y0244643D01*
X0278179Y0245641D02*
X0262379Y0245641D01*
X0262379Y0246640D02*
X0277551Y0246640D01*
X0276243Y0247638D02*
X0262379Y0247638D01*
X0262379Y0248637D02*
X0274936Y0248637D01*
X0273547Y0249635D02*
X0262379Y0249635D01*
X0262379Y0250634D02*
X0272669Y0250634D01*
X0272617Y0251632D02*
X0262379Y0251632D01*
X0262379Y0252631D02*
X0267192Y0252631D01*
X0266343Y0253629D02*
X0262379Y0253629D01*
X0263007Y0254628D02*
X0265929Y0254628D01*
X0265904Y0255626D02*
X0264005Y0255626D01*
X0265004Y0256625D02*
X0266117Y0256625D01*
X0266002Y0257623D02*
X0266646Y0257623D01*
X0267001Y0258622D02*
X0267915Y0258622D01*
X0267999Y0259620D02*
X0272804Y0259620D01*
X0272789Y0258622D02*
X0271042Y0258622D01*
X0272311Y0257623D02*
X0272774Y0257623D01*
X0272819Y0260619D02*
X0268998Y0260619D01*
X0269996Y0261617D02*
X0272834Y0261617D01*
X0272849Y0262616D02*
X0270995Y0262616D01*
X0271993Y0263614D02*
X0272572Y0263614D01*
X0275039Y0266610D02*
X0312879Y0266610D01*
X0312879Y0267608D02*
X0275987Y0267608D01*
X0276986Y0268607D02*
X0312879Y0268607D01*
X0312879Y0269605D02*
X0277984Y0269605D01*
X0278983Y0270604D02*
X0312879Y0270604D01*
X0312879Y0271603D02*
X0298381Y0271603D01*
X0299697Y0272601D02*
X0312879Y0272601D01*
X0312879Y0273600D02*
X0299697Y0273600D01*
X0299697Y0274598D02*
X0312879Y0274598D01*
X0312879Y0275597D02*
X0299697Y0275597D01*
X0299697Y0276595D02*
X0312879Y0276595D01*
X0312879Y0277594D02*
X0299697Y0277594D01*
X0299697Y0278592D02*
X0312879Y0278592D01*
X0312879Y0279591D02*
X0299697Y0279591D01*
X0299697Y0280589D02*
X0312879Y0280589D01*
X0312879Y0281588D02*
X0299697Y0281588D01*
X0299697Y0282586D02*
X0312879Y0282586D01*
X0312879Y0283585D02*
X0299697Y0283585D01*
X0299697Y0284583D02*
X0312879Y0284583D01*
X0312879Y0285582D02*
X0299697Y0285582D01*
X0299697Y0286580D02*
X0312879Y0286580D01*
X0312879Y0287579D02*
X0299697Y0287579D01*
X0299697Y0288577D02*
X0312879Y0288577D01*
X0312879Y0289576D02*
X0299697Y0289576D01*
X0299697Y0290574D02*
X0312879Y0290574D01*
X0312879Y0291573D02*
X0299697Y0291573D01*
X0299697Y0292571D02*
X0312879Y0292571D01*
X0312879Y0293570D02*
X0299697Y0293570D01*
X0299697Y0294568D02*
X0312879Y0294568D01*
X0312879Y0295567D02*
X0299697Y0295567D01*
X0299697Y0296565D02*
X0312879Y0296565D01*
X0312879Y0297564D02*
X0299697Y0297564D01*
X0299697Y0298562D02*
X0312879Y0298562D01*
X0312879Y0299561D02*
X0299697Y0299561D01*
X0299697Y0300559D02*
X0312879Y0300559D01*
X0312879Y0301558D02*
X0299697Y0301558D01*
X0299697Y0302556D02*
X0312879Y0302556D01*
X0312879Y0303555D02*
X0299697Y0303555D01*
X0299697Y0304553D02*
X0312879Y0304553D01*
X0312879Y0305552D02*
X0299697Y0305552D01*
X0299697Y0306550D02*
X0312879Y0306550D01*
X0312879Y0307549D02*
X0299697Y0307549D01*
X0299697Y0308547D02*
X0312879Y0308547D01*
X0312879Y0309546D02*
X0299697Y0309546D01*
X0299697Y0310544D02*
X0312879Y0310544D01*
X0312879Y0311543D02*
X0299697Y0311543D01*
X0299697Y0312541D02*
X0312879Y0312541D01*
X0312879Y0313540D02*
X0299697Y0313540D01*
X0299697Y0314539D02*
X0312879Y0314539D01*
X0312879Y0315537D02*
X0299697Y0315537D01*
X0299697Y0316536D02*
X0312879Y0316536D01*
X0312879Y0317534D02*
X0299697Y0317534D01*
X0299697Y0318533D02*
X0312879Y0318533D01*
X0312879Y0319531D02*
X0299697Y0319531D01*
X0299697Y0320530D02*
X0312879Y0320530D01*
X0312879Y0321528D02*
X0299697Y0321528D01*
X0299697Y0322527D02*
X0312879Y0322527D01*
X0312879Y0323525D02*
X0299697Y0323525D01*
X0299697Y0324524D02*
X0312879Y0324524D01*
X0312879Y0325522D02*
X0299697Y0325522D01*
X0299697Y0326521D02*
X0312879Y0326521D01*
X0312879Y0327519D02*
X0299697Y0327519D01*
X0299697Y0328518D02*
X0313102Y0328518D01*
X0314595Y0329516D02*
X0299697Y0329516D01*
X0299697Y0330515D02*
X0315593Y0330515D01*
X0315251Y0330713D02*
X0316345Y0330836D01*
X0317418Y0331081D01*
X0318457Y0331444D01*
X0319448Y0331922D01*
X0320380Y0332507D01*
X0321241Y0333194D01*
X0322019Y0333972D01*
X0322705Y0334832D01*
X0323291Y0335764D01*
X0323768Y0336756D01*
X0324132Y0337795D01*
X0324377Y0338868D01*
X0324500Y0339961D01*
X0324500Y0340012D01*
X0315201Y0340012D01*
X0315201Y0341012D01*
X0324500Y0341012D01*
X0324500Y0341062D01*
X0324377Y0342156D01*
X0324132Y0343229D01*
X0323768Y0344268D01*
X0323291Y0345259D01*
X0322705Y0346191D01*
X0322019Y0347052D01*
X0321241Y0347830D01*
X0320380Y0348516D01*
X0319448Y0349102D01*
X0318457Y0349579D01*
X0317418Y0349943D01*
X0316345Y0350188D01*
X0315251Y0350311D01*
X0315201Y0350311D01*
X0315201Y0341012D01*
X0314201Y0341012D01*
X0314201Y0350311D01*
X0314150Y0350311D01*
X0313057Y0350188D01*
X0311984Y0349943D01*
X0310945Y0349579D01*
X0309953Y0349102D01*
X0309021Y0348516D01*
X0308161Y0347830D01*
X0307383Y0347052D01*
X0306696Y0346191D01*
X0306111Y0345259D01*
X0305633Y0344268D01*
X0305270Y0343229D01*
X0305025Y0342156D01*
X0304902Y0341062D01*
X0304902Y0341012D01*
X0314201Y0341012D01*
X0314201Y0340012D01*
X0315201Y0340012D01*
X0315201Y0330713D01*
X0315251Y0330713D01*
X0315201Y0331513D02*
X0314201Y0331513D01*
X0314201Y0330713D02*
X0314201Y0340012D01*
X0304902Y0340012D01*
X0304902Y0339961D01*
X0305025Y0338868D01*
X0305270Y0337795D01*
X0305633Y0336756D01*
X0306111Y0335764D01*
X0306696Y0334832D01*
X0307383Y0333972D01*
X0308161Y0333194D01*
X0309021Y0332507D01*
X0309953Y0331922D01*
X0310945Y0331444D01*
X0311984Y0331081D01*
X0313057Y0330836D01*
X0314150Y0330713D01*
X0314201Y0330713D01*
X0314201Y0332512D02*
X0315201Y0332512D01*
X0315201Y0333510D02*
X0314201Y0333510D01*
X0314201Y0334509D02*
X0315201Y0334509D01*
X0315201Y0335507D02*
X0314201Y0335507D01*
X0314201Y0336506D02*
X0315201Y0336506D01*
X0315201Y0337504D02*
X0314201Y0337504D01*
X0314201Y0338503D02*
X0315201Y0338503D01*
X0315201Y0339501D02*
X0314201Y0339501D01*
X0314201Y0340500D02*
X0299697Y0340500D01*
X0299697Y0341498D02*
X0304951Y0341498D01*
X0305103Y0342497D02*
X0299697Y0342497D01*
X0299697Y0343495D02*
X0305363Y0343495D01*
X0305742Y0344494D02*
X0299697Y0344494D01*
X0299697Y0345492D02*
X0306257Y0345492D01*
X0306935Y0346491D02*
X0299697Y0346491D01*
X0299697Y0347489D02*
X0307820Y0347489D01*
X0308986Y0348488D02*
X0299697Y0348488D01*
X0299697Y0349486D02*
X0310752Y0349486D01*
X0314201Y0349486D02*
X0315201Y0349486D01*
X0315201Y0348488D02*
X0314201Y0348488D01*
X0314201Y0347489D02*
X0315201Y0347489D01*
X0315201Y0346491D02*
X0314201Y0346491D01*
X0314201Y0345492D02*
X0315201Y0345492D01*
X0315201Y0344494D02*
X0314201Y0344494D01*
X0314201Y0343495D02*
X0315201Y0343495D01*
X0315201Y0342497D02*
X0314201Y0342497D01*
X0314201Y0341498D02*
X0315201Y0341498D01*
X0315201Y0340500D02*
X0350379Y0340500D01*
X0350379Y0341498D02*
X0324451Y0341498D01*
X0324299Y0342497D02*
X0350379Y0342497D01*
X0350379Y0343495D02*
X0324039Y0343495D01*
X0323659Y0344494D02*
X0350379Y0344494D01*
X0350379Y0345492D02*
X0323144Y0345492D01*
X0322466Y0346491D02*
X0332180Y0346491D01*
X0332283Y0346460D02*
X0333755Y0346167D01*
X0335249Y0346020D01*
X0335500Y0346020D01*
X0335500Y0360799D01*
X0320720Y0360799D01*
X0320720Y0360549D01*
X0320868Y0359055D01*
X0321161Y0357582D01*
X0321596Y0356145D01*
X0322171Y0354758D01*
X0322879Y0353434D01*
X0323713Y0352186D01*
X0324665Y0351026D01*
X0325727Y0349964D01*
X0326887Y0349012D01*
X0328135Y0348178D01*
X0329459Y0347470D01*
X0330846Y0346896D01*
X0332283Y0346460D01*
X0329423Y0347489D02*
X0321581Y0347489D01*
X0320416Y0348488D02*
X0327671Y0348488D01*
X0326309Y0349486D02*
X0318650Y0349486D01*
X0323515Y0352482D02*
X0299697Y0352482D01*
X0299697Y0353480D02*
X0322854Y0353480D01*
X0322320Y0354479D02*
X0299697Y0354479D01*
X0299697Y0355477D02*
X0321873Y0355477D01*
X0321496Y0356476D02*
X0299697Y0356476D01*
X0299697Y0357474D02*
X0321193Y0357474D01*
X0320983Y0358473D02*
X0299697Y0358473D01*
X0299697Y0359472D02*
X0320827Y0359472D01*
X0320728Y0360470D02*
X0299697Y0360470D01*
X0299697Y0361469D02*
X0335500Y0361469D01*
X0335500Y0361799D02*
X0320720Y0361799D01*
X0320720Y0362050D01*
X0320868Y0363544D01*
X0321161Y0365016D01*
X0321596Y0366453D01*
X0322171Y0367840D01*
X0322879Y0369164D01*
X0323713Y0370412D01*
X0324665Y0371573D01*
X0325727Y0372634D01*
X0326887Y0373587D01*
X0328135Y0374421D01*
X0329459Y0375128D01*
X0330846Y0375703D01*
X0332283Y0376139D01*
X0333755Y0376432D01*
X0335249Y0376579D01*
X0335500Y0376579D01*
X0335500Y0361799D01*
X0335500Y0362467D02*
X0336500Y0362467D01*
X0336500Y0363466D02*
X0335500Y0363466D01*
X0335500Y0364464D02*
X0336500Y0364464D01*
X0336500Y0365463D02*
X0335500Y0365463D01*
X0335500Y0366461D02*
X0336500Y0366461D01*
X0336500Y0367460D02*
X0335500Y0367460D01*
X0335500Y0368458D02*
X0336500Y0368458D01*
X0336500Y0369457D02*
X0335500Y0369457D01*
X0335500Y0370455D02*
X0336500Y0370455D01*
X0336500Y0371454D02*
X0335500Y0371454D01*
X0335500Y0372452D02*
X0336500Y0372452D01*
X0336500Y0373451D02*
X0335500Y0373451D01*
X0335500Y0374449D02*
X0336500Y0374449D01*
X0336500Y0375448D02*
X0335500Y0375448D01*
X0335500Y0376446D02*
X0336500Y0376446D01*
X0338096Y0376446D02*
X0347733Y0376446D01*
X0348731Y0375448D02*
X0341770Y0375448D01*
X0343811Y0374449D02*
X0349730Y0374449D01*
X0350379Y0373451D02*
X0345279Y0373451D01*
X0346456Y0372452D02*
X0350379Y0372452D01*
X0350379Y0371454D02*
X0347433Y0371454D01*
X0348252Y0370455D02*
X0350379Y0370455D01*
X0350379Y0369457D02*
X0348926Y0369457D01*
X0349499Y0368458D02*
X0350379Y0368458D01*
X0350379Y0367460D02*
X0349987Y0367460D01*
X0346734Y0377445D02*
X0300623Y0377445D01*
X0299697Y0376446D02*
X0333904Y0376446D01*
X0330230Y0375448D02*
X0299697Y0375448D01*
X0299697Y0374449D02*
X0328189Y0374449D01*
X0326721Y0373451D02*
X0299697Y0373451D01*
X0299697Y0372452D02*
X0325544Y0372452D01*
X0324567Y0371454D02*
X0299697Y0371454D01*
X0299697Y0370455D02*
X0323748Y0370455D01*
X0323074Y0369457D02*
X0299697Y0369457D01*
X0299697Y0368458D02*
X0322501Y0368458D01*
X0322013Y0367460D02*
X0299697Y0367460D01*
X0299697Y0366461D02*
X0321600Y0366461D01*
X0321296Y0365463D02*
X0299697Y0365463D01*
X0299697Y0364464D02*
X0321051Y0364464D01*
X0320860Y0363466D02*
X0299697Y0363466D01*
X0299697Y0362467D02*
X0320762Y0362467D01*
X0324289Y0351483D02*
X0299697Y0351483D01*
X0299697Y0350485D02*
X0325206Y0350485D01*
X0335500Y0350485D02*
X0336500Y0350485D01*
X0336500Y0351483D02*
X0335500Y0351483D01*
X0335500Y0352482D02*
X0336500Y0352482D01*
X0336500Y0353480D02*
X0335500Y0353480D01*
X0335500Y0354479D02*
X0336500Y0354479D01*
X0336500Y0355477D02*
X0335500Y0355477D01*
X0335500Y0356476D02*
X0336500Y0356476D01*
X0336500Y0357474D02*
X0335500Y0357474D01*
X0335500Y0358473D02*
X0336500Y0358473D01*
X0336500Y0359472D02*
X0335500Y0359472D01*
X0335500Y0360470D02*
X0336500Y0360470D01*
X0336500Y0349486D02*
X0335500Y0349486D01*
X0335500Y0348488D02*
X0336500Y0348488D01*
X0336500Y0347489D02*
X0335500Y0347489D01*
X0335500Y0346491D02*
X0336500Y0346491D01*
X0339820Y0346491D02*
X0350379Y0346491D01*
X0350379Y0347489D02*
X0342577Y0347489D01*
X0344329Y0348488D02*
X0350379Y0348488D01*
X0350379Y0349486D02*
X0345691Y0349486D01*
X0346794Y0350485D02*
X0350379Y0350485D01*
X0350379Y0351483D02*
X0347711Y0351483D01*
X0348485Y0352482D02*
X0350379Y0352482D01*
X0350379Y0353480D02*
X0349146Y0353480D01*
X0349680Y0354479D02*
X0350379Y0354479D01*
X0350379Y0355477D02*
X0350127Y0355477D01*
X0350379Y0339501D02*
X0324448Y0339501D01*
X0324293Y0338503D02*
X0350379Y0338503D01*
X0350379Y0337504D02*
X0324030Y0337504D01*
X0323648Y0336506D02*
X0350379Y0336506D01*
X0350379Y0335507D02*
X0323129Y0335507D01*
X0322447Y0334509D02*
X0350379Y0334509D01*
X0350379Y0333510D02*
X0321557Y0333510D01*
X0320386Y0332512D02*
X0350379Y0332512D01*
X0350379Y0331513D02*
X0318600Y0331513D01*
X0310802Y0331513D02*
X0299697Y0331513D01*
X0299697Y0332512D02*
X0309016Y0332512D01*
X0307844Y0333510D02*
X0299697Y0333510D01*
X0299697Y0334509D02*
X0306954Y0334509D01*
X0306272Y0335507D02*
X0299697Y0335507D01*
X0299697Y0336506D02*
X0305754Y0336506D01*
X0305371Y0337504D02*
X0299697Y0337504D01*
X0299697Y0338503D02*
X0305108Y0338503D01*
X0304953Y0339501D02*
X0299697Y0339501D01*
X0343464Y0330515D02*
X0350379Y0330515D01*
X0350379Y0329516D02*
X0344079Y0329516D01*
X0344238Y0328518D02*
X0350379Y0328518D01*
X0350379Y0327519D02*
X0344238Y0327519D01*
X0344238Y0326521D02*
X0350379Y0326521D01*
X0350379Y0325522D02*
X0344238Y0325522D01*
X0344238Y0324524D02*
X0350379Y0324524D01*
X0350379Y0323525D02*
X0344238Y0323525D01*
X0344238Y0322527D02*
X0350379Y0322527D01*
X0350379Y0321528D02*
X0344238Y0321528D01*
X0344238Y0320530D02*
X0350379Y0320530D01*
X0350379Y0319531D02*
X0344238Y0319531D01*
X0344238Y0318533D02*
X0350379Y0318533D01*
X0350379Y0317534D02*
X0344238Y0317534D01*
X0344238Y0316536D02*
X0350379Y0316536D01*
X0350379Y0315537D02*
X0344238Y0315537D01*
X0344238Y0314539D02*
X0350379Y0314539D01*
X0350379Y0313540D02*
X0344238Y0313540D01*
X0344238Y0312541D02*
X0350379Y0312541D01*
X0350379Y0311543D02*
X0344238Y0311543D01*
X0344238Y0310544D02*
X0349623Y0310544D01*
X0348625Y0309546D02*
X0344833Y0309546D01*
X0312879Y0265611D02*
X0276454Y0265611D01*
X0276764Y0264613D02*
X0312879Y0264613D01*
X0312879Y0263614D02*
X0276664Y0263614D01*
X0276649Y0262616D02*
X0312879Y0262616D01*
X0312879Y0261617D02*
X0276634Y0261617D01*
X0276619Y0260619D02*
X0312879Y0260619D01*
X0312879Y0259620D02*
X0296270Y0259620D01*
X0296679Y0259211D02*
X0295390Y0260500D01*
X0293567Y0260500D01*
X0292279Y0259211D01*
X0292279Y0257389D01*
X0293567Y0256100D01*
X0295390Y0256100D01*
X0296679Y0257389D01*
X0296679Y0259211D01*
X0296679Y0258622D02*
X0312879Y0258622D01*
X0312879Y0257623D02*
X0296679Y0257623D01*
X0295915Y0256625D02*
X0312879Y0256625D01*
X0312879Y0255626D02*
X0276544Y0255626D01*
X0276529Y0254628D02*
X0312879Y0254628D01*
X0312879Y0253629D02*
X0276514Y0253629D01*
X0276499Y0252631D02*
X0312879Y0252631D01*
X0312879Y0251632D02*
X0277274Y0251632D01*
X0278582Y0250634D02*
X0312879Y0250634D01*
X0312879Y0249635D02*
X0279889Y0249635D01*
X0281229Y0248637D02*
X0312879Y0248637D01*
X0312879Y0247638D02*
X0281979Y0247638D01*
X0282057Y0246640D02*
X0312879Y0246640D01*
X0312879Y0245641D02*
X0281979Y0245641D01*
X0281979Y0244643D02*
X0312879Y0244643D01*
X0312879Y0243644D02*
X0281979Y0243644D01*
X0281979Y0242646D02*
X0312879Y0242646D01*
X0312879Y0241647D02*
X0281980Y0241647D01*
X0281979Y0240649D02*
X0312879Y0240649D01*
X0312879Y0239650D02*
X0281967Y0239650D01*
X0281960Y0238652D02*
X0312879Y0238652D01*
X0312879Y0237653D02*
X0281953Y0237653D01*
X0281946Y0236655D02*
X0312879Y0236655D01*
X0312879Y0235656D02*
X0281939Y0235656D01*
X0281932Y0234658D02*
X0312879Y0234658D01*
X0312879Y0233659D02*
X0281925Y0233659D01*
X0281918Y0232661D02*
X0312879Y0232661D01*
X0312879Y0231662D02*
X0281911Y0231662D01*
X0281904Y0230664D02*
X0312879Y0230664D01*
X0312879Y0229665D02*
X0281897Y0229665D01*
X0281890Y0228667D02*
X0312879Y0228667D01*
X0312879Y0227668D02*
X0281883Y0227668D01*
X0281879Y0226670D02*
X0312879Y0226670D01*
X0312879Y0225671D02*
X0281879Y0225671D01*
X0281879Y0224672D02*
X0312879Y0224672D01*
X0312879Y0223674D02*
X0281879Y0223674D01*
X0281879Y0222675D02*
X0305627Y0222675D01*
X0305881Y0222929D02*
X0305295Y0222343D01*
X0305295Y0218759D01*
X0305881Y0218173D01*
X0309859Y0218173D01*
X0310445Y0218759D01*
X0310445Y0222343D01*
X0309859Y0222929D01*
X0305881Y0222929D01*
X0305295Y0221677D02*
X0281879Y0221677D01*
X0281879Y0220678D02*
X0305295Y0220678D01*
X0305295Y0219680D02*
X0281874Y0219680D01*
X0281869Y0218681D02*
X0305373Y0218681D01*
X0303224Y0215686D02*
X0312879Y0215686D01*
X0312879Y0216684D02*
X0302223Y0216684D01*
X0301227Y0217683D02*
X0312879Y0217683D01*
X0312879Y0218681D02*
X0310367Y0218681D01*
X0310445Y0219680D02*
X0312879Y0219680D01*
X0312879Y0220678D02*
X0310445Y0220678D01*
X0310445Y0221677D02*
X0312879Y0221677D01*
X0312879Y0222675D02*
X0310113Y0222675D01*
X0301279Y0214800D02*
X0301379Y0169700D01*
X0297479Y0165900D01*
X0284624Y0165900D01*
X0284602Y0165921D01*
X0284602Y0168283D02*
X0281962Y0168283D01*
X0281079Y0167400D01*
X0281079Y0116800D01*
X0279379Y0115100D01*
X0278001Y0116833D02*
X0267779Y0116833D01*
X0267779Y0117832D02*
X0279079Y0117832D01*
X0279079Y0118830D02*
X0267779Y0118830D01*
X0267779Y0119829D02*
X0279079Y0119829D01*
X0279079Y0120827D02*
X0267779Y0120827D01*
X0267779Y0121826D02*
X0279079Y0121826D01*
X0279079Y0122824D02*
X0267779Y0122824D01*
X0267779Y0123823D02*
X0279079Y0123823D01*
X0279079Y0124821D02*
X0267779Y0124821D01*
X0267779Y0125820D02*
X0279079Y0125820D01*
X0279079Y0126818D02*
X0267779Y0126818D01*
X0267779Y0127817D02*
X0279079Y0127817D01*
X0279079Y0128815D02*
X0267779Y0128815D01*
X0267779Y0129814D02*
X0279079Y0129814D01*
X0279079Y0130812D02*
X0267779Y0130812D01*
X0267779Y0131811D02*
X0279079Y0131811D01*
X0279079Y0132809D02*
X0267779Y0132809D01*
X0267779Y0133808D02*
X0279079Y0133808D01*
X0279079Y0134806D02*
X0267779Y0134806D01*
X0267779Y0135805D02*
X0279079Y0135805D01*
X0279079Y0136803D02*
X0267779Y0136803D01*
X0267779Y0137802D02*
X0279079Y0137802D01*
X0279079Y0138801D02*
X0267779Y0138801D01*
X0267779Y0139799D02*
X0270865Y0139799D01*
X0270551Y0140798D02*
X0267779Y0140798D01*
X0267779Y0141796D02*
X0270551Y0141796D01*
X0270551Y0142795D02*
X0267779Y0142795D01*
X0267779Y0143793D02*
X0270551Y0143793D01*
X0270597Y0144792D02*
X0267779Y0144792D01*
X0267779Y0145790D02*
X0270551Y0145790D01*
X0270551Y0146789D02*
X0267779Y0146789D01*
X0267779Y0147787D02*
X0270551Y0147787D01*
X0270551Y0148786D02*
X0267779Y0148786D01*
X0267779Y0149784D02*
X0270551Y0149784D01*
X0270551Y0150783D02*
X0267779Y0150783D01*
X0267779Y0151781D02*
X0270694Y0151781D01*
X0270551Y0152780D02*
X0267779Y0152780D01*
X0267779Y0153778D02*
X0270551Y0153778D01*
X0270551Y0154777D02*
X0267779Y0154777D01*
X0267779Y0155775D02*
X0270551Y0155775D01*
X0270551Y0156774D02*
X0267779Y0156774D01*
X0267779Y0157772D02*
X0270551Y0157772D01*
X0270664Y0158771D02*
X0267779Y0158771D01*
X0267779Y0159769D02*
X0270551Y0159769D01*
X0270551Y0160768D02*
X0267779Y0160768D01*
X0267779Y0161766D02*
X0270551Y0161766D01*
X0270551Y0162765D02*
X0267779Y0162765D01*
X0267779Y0163763D02*
X0270551Y0163763D01*
X0270551Y0164762D02*
X0267779Y0164762D01*
X0267779Y0165760D02*
X0268207Y0165760D01*
X0269379Y0167700D02*
X0269379Y0168500D01*
X0270079Y0169200D01*
X0272271Y0169200D01*
X0272535Y0169465D01*
X0273229Y0171751D02*
X0267779Y0171751D01*
X0267779Y0170753D02*
X0268803Y0170753D01*
X0268550Y0170500D02*
X0268550Y0170500D01*
X0267805Y0169754D02*
X0267779Y0169754D01*
X0267779Y0172750D02*
X0273229Y0172750D01*
X0273229Y0173748D02*
X0267779Y0173748D01*
X0267779Y0174747D02*
X0273229Y0174747D01*
X0273205Y0175745D02*
X0267779Y0175745D01*
X0267779Y0176744D02*
X0273336Y0176744D01*
X0274079Y0177742D02*
X0267779Y0177742D01*
X0267779Y0178741D02*
X0274713Y0178741D01*
X0275347Y0179739D02*
X0267779Y0179739D01*
X0267779Y0180738D02*
X0299354Y0180738D01*
X0299352Y0181737D02*
X0267779Y0181737D01*
X0267779Y0182735D02*
X0299350Y0182735D01*
X0299348Y0183734D02*
X0267779Y0183734D01*
X0267779Y0184732D02*
X0299345Y0184732D01*
X0299343Y0185731D02*
X0295122Y0185731D01*
X0295681Y0186729D02*
X0299341Y0186729D01*
X0299339Y0187728D02*
X0295681Y0187728D01*
X0295681Y0188726D02*
X0299337Y0188726D01*
X0299334Y0189725D02*
X0295021Y0189725D01*
X0293961Y0190102D02*
X0293961Y0190102D01*
X0295598Y0190723D02*
X0299332Y0190723D01*
X0299330Y0191722D02*
X0295681Y0191722D01*
X0295681Y0192720D02*
X0299328Y0192720D01*
X0299325Y0193719D02*
X0295681Y0193719D01*
X0295681Y0195716D02*
X0299321Y0195716D01*
X0299319Y0196714D02*
X0295681Y0196714D01*
X0295681Y0197713D02*
X0299317Y0197713D01*
X0299314Y0198711D02*
X0295681Y0198711D01*
X0295136Y0199710D02*
X0299312Y0199710D01*
X0299310Y0200708D02*
X0295681Y0200708D01*
X0295681Y0201707D02*
X0299308Y0201707D01*
X0299306Y0202705D02*
X0295681Y0202705D01*
X0295423Y0203704D02*
X0299303Y0203704D01*
X0299301Y0204702D02*
X0296014Y0204702D01*
X0296181Y0205701D02*
X0299299Y0205701D01*
X0297239Y0206699D02*
X0296181Y0206699D01*
X0296181Y0207698D02*
X0296240Y0207698D01*
X0299174Y0211692D02*
X0299286Y0211692D01*
X0299283Y0212690D02*
X0298175Y0212690D01*
X0299281Y0213689D02*
X0281846Y0213689D01*
X0281851Y0214687D02*
X0290335Y0214687D01*
X0290335Y0215686D02*
X0281855Y0215686D01*
X0281860Y0216684D02*
X0290335Y0216684D01*
X0290399Y0217683D02*
X0281865Y0217683D01*
X0278065Y0217683D02*
X0267779Y0217683D01*
X0267779Y0218681D02*
X0278069Y0218681D01*
X0278074Y0219680D02*
X0267779Y0219680D01*
X0267779Y0220678D02*
X0278079Y0220678D01*
X0278079Y0221677D02*
X0267779Y0221677D01*
X0267779Y0222675D02*
X0278079Y0222675D01*
X0278079Y0223674D02*
X0267779Y0223674D01*
X0267779Y0224672D02*
X0278079Y0224672D01*
X0278079Y0225671D02*
X0267779Y0225671D01*
X0267779Y0226670D02*
X0278076Y0226670D01*
X0278079Y0227668D02*
X0267779Y0227668D01*
X0267779Y0228667D02*
X0278090Y0228667D01*
X0278097Y0229665D02*
X0267779Y0229665D01*
X0267779Y0230664D02*
X0278104Y0230664D01*
X0278111Y0231662D02*
X0268278Y0231662D01*
X0268981Y0232661D02*
X0278118Y0232661D01*
X0278125Y0233659D02*
X0269685Y0233659D01*
X0270388Y0234658D02*
X0278132Y0234658D01*
X0278139Y0235656D02*
X0271091Y0235656D01*
X0271829Y0236655D02*
X0278146Y0236655D01*
X0278152Y0237653D02*
X0271829Y0237653D01*
X0271644Y0238652D02*
X0278159Y0238652D01*
X0278166Y0239650D02*
X0270255Y0239650D01*
X0271765Y0252631D02*
X0272699Y0252631D01*
X0272714Y0253629D02*
X0272615Y0253629D01*
X0276559Y0256625D02*
X0293043Y0256625D01*
X0292279Y0257623D02*
X0276574Y0257623D01*
X0276589Y0258622D02*
X0292279Y0258622D01*
X0292688Y0259620D02*
X0276604Y0259620D01*
X0278060Y0216684D02*
X0267779Y0216684D01*
X0267779Y0215686D02*
X0278055Y0215686D01*
X0278051Y0214687D02*
X0267779Y0214687D01*
X0267779Y0213689D02*
X0278046Y0213689D01*
X0278041Y0212690D02*
X0267779Y0212690D01*
X0267779Y0211692D02*
X0278037Y0211692D01*
X0278032Y0210693D02*
X0267779Y0210693D01*
X0267779Y0209695D02*
X0278027Y0209695D01*
X0278023Y0208696D02*
X0267779Y0208696D01*
X0267779Y0207698D02*
X0278018Y0207698D01*
X0278013Y0206699D02*
X0267779Y0206699D01*
X0267779Y0205701D02*
X0278009Y0205701D01*
X0278004Y0204702D02*
X0267779Y0204702D01*
X0267779Y0203704D02*
X0277999Y0203704D01*
X0277995Y0202705D02*
X0267779Y0202705D01*
X0267779Y0201707D02*
X0277990Y0201707D01*
X0277985Y0200708D02*
X0267779Y0200708D01*
X0267779Y0199710D02*
X0277679Y0199710D01*
X0277679Y0198711D02*
X0267779Y0198711D01*
X0267779Y0197713D02*
X0278355Y0197713D01*
X0279778Y0196714D02*
X0267779Y0196714D01*
X0267779Y0195716D02*
X0280776Y0195716D01*
X0278478Y0194717D02*
X0267779Y0194717D01*
X0267779Y0193719D02*
X0277837Y0193719D01*
X0277679Y0192720D02*
X0267779Y0192720D01*
X0267779Y0191722D02*
X0277903Y0191722D01*
X0278637Y0190723D02*
X0267779Y0190723D01*
X0267779Y0189725D02*
X0282313Y0189725D01*
X0281530Y0188726D02*
X0267779Y0188726D01*
X0267779Y0187728D02*
X0281302Y0187728D01*
X0281488Y0186729D02*
X0267779Y0186729D01*
X0267779Y0185731D02*
X0282213Y0185731D01*
X0286755Y0190723D02*
X0290418Y0190723D01*
X0293945Y0194717D02*
X0299323Y0194717D01*
X0303323Y0194717D02*
X0312879Y0194717D01*
X0312879Y0193719D02*
X0303325Y0193719D01*
X0303328Y0192720D02*
X0312879Y0192720D01*
X0312879Y0191722D02*
X0303330Y0191722D01*
X0303332Y0190723D02*
X0312879Y0190723D01*
X0312879Y0189725D02*
X0303334Y0189725D01*
X0303337Y0188726D02*
X0312879Y0188726D01*
X0312879Y0187728D02*
X0303339Y0187728D01*
X0303341Y0186729D02*
X0312879Y0186729D01*
X0312879Y0185731D02*
X0303343Y0185731D01*
X0303345Y0184732D02*
X0305295Y0184732D01*
X0305295Y0184942D02*
X0305295Y0181357D01*
X0305881Y0180772D01*
X0309859Y0180772D01*
X0310445Y0181357D01*
X0310445Y0184942D01*
X0309859Y0185528D01*
X0305881Y0185528D01*
X0305295Y0184942D01*
X0305295Y0183734D02*
X0303348Y0183734D01*
X0303350Y0182735D02*
X0305295Y0182735D01*
X0305295Y0181737D02*
X0303352Y0181737D01*
X0303354Y0180738D02*
X0312879Y0180738D01*
X0312879Y0181737D02*
X0310445Y0181737D01*
X0310445Y0182735D02*
X0312879Y0182735D01*
X0312879Y0183734D02*
X0310445Y0183734D01*
X0310445Y0184732D02*
X0312879Y0184732D01*
X0312879Y0179739D02*
X0303356Y0179739D01*
X0303359Y0178741D02*
X0312879Y0178741D01*
X0312879Y0177742D02*
X0303361Y0177742D01*
X0303363Y0176744D02*
X0312879Y0176744D01*
X0312879Y0175745D02*
X0303365Y0175745D01*
X0303368Y0174747D02*
X0312879Y0174747D01*
X0312879Y0173748D02*
X0303370Y0173748D01*
X0303372Y0172750D02*
X0312879Y0172750D01*
X0299372Y0172750D02*
X0277029Y0172750D01*
X0277029Y0173748D02*
X0280591Y0173748D01*
X0280591Y0174747D02*
X0277029Y0174747D01*
X0277313Y0175745D02*
X0280749Y0175745D01*
X0282384Y0171751D02*
X0277029Y0171751D01*
X0277029Y0170753D02*
X0282283Y0170753D01*
X0280605Y0169754D02*
X0277029Y0169754D01*
X0277029Y0168756D02*
X0279606Y0168756D01*
X0279079Y0167757D02*
X0277029Y0167757D01*
X0276725Y0166759D02*
X0279079Y0166759D01*
X0279079Y0165760D02*
X0275726Y0165760D01*
X0274520Y0164762D02*
X0279079Y0164762D01*
X0279079Y0163763D02*
X0274520Y0163763D01*
X0274520Y0162765D02*
X0279079Y0162765D01*
X0279079Y0161766D02*
X0274520Y0161766D01*
X0274520Y0160768D02*
X0279079Y0160768D01*
X0279079Y0159769D02*
X0274520Y0159769D01*
X0274407Y0158771D02*
X0279079Y0158771D01*
X0279079Y0157772D02*
X0274520Y0157772D01*
X0274520Y0156774D02*
X0279079Y0156774D01*
X0279079Y0155775D02*
X0274520Y0155775D01*
X0274520Y0154777D02*
X0279079Y0154777D01*
X0279079Y0153778D02*
X0274520Y0153778D01*
X0274520Y0152780D02*
X0279079Y0152780D01*
X0279079Y0151781D02*
X0274376Y0151781D01*
X0274520Y0150783D02*
X0279079Y0150783D01*
X0279079Y0149784D02*
X0274520Y0149784D01*
X0274520Y0148786D02*
X0279079Y0148786D01*
X0279079Y0147787D02*
X0274520Y0147787D01*
X0274520Y0146789D02*
X0279079Y0146789D01*
X0279079Y0145790D02*
X0274520Y0145790D01*
X0274474Y0144792D02*
X0279079Y0144792D01*
X0279079Y0143793D02*
X0274520Y0143793D01*
X0274520Y0142795D02*
X0279079Y0142795D01*
X0279079Y0141796D02*
X0274520Y0141796D01*
X0274520Y0140798D02*
X0279079Y0140798D01*
X0279079Y0139799D02*
X0274205Y0139799D01*
X0284602Y0139937D02*
X0284639Y0139900D01*
X0287579Y0139900D01*
X0289479Y0141800D01*
X0289479Y0143900D01*
X0287279Y0143793D02*
X0286921Y0143793D01*
X0286921Y0142795D02*
X0287473Y0142795D01*
X0287279Y0144792D02*
X0286921Y0144792D01*
X0286797Y0145790D02*
X0288258Y0145790D01*
X0284602Y0137575D02*
X0285877Y0136300D01*
X0285690Y0136300D01*
X0284602Y0135213D01*
X0285877Y0136300D02*
X0288979Y0136300D01*
X0277179Y0115835D02*
X0268396Y0115835D01*
X0269279Y0114836D02*
X0277179Y0114836D01*
X0277530Y0113838D02*
X0270162Y0113838D01*
X0271044Y0112839D02*
X0274257Y0112839D01*
X0276485Y0108845D02*
X0280591Y0108845D01*
X0288679Y0104851D02*
X0262379Y0104851D01*
X0262379Y0103853D02*
X0288634Y0103853D01*
X0288679Y0102854D02*
X0270736Y0102854D01*
X0271579Y0101856D02*
X0288679Y0101856D01*
X0288679Y0100857D02*
X0271579Y0100857D01*
X0271379Y0099859D02*
X0288679Y0099859D01*
X0288679Y0098860D02*
X0271379Y0098860D01*
X0271379Y0097862D02*
X0288679Y0097862D01*
X0288679Y0096863D02*
X0271379Y0096863D01*
X0271379Y0095865D02*
X0288679Y0095865D01*
X0288679Y0094866D02*
X0271379Y0094866D01*
X0271379Y0093868D02*
X0288679Y0093868D01*
X0288679Y0092869D02*
X0271379Y0092869D01*
X0271379Y0091870D02*
X0288679Y0091870D01*
X0288679Y0090872D02*
X0271379Y0090872D01*
X0271379Y0089873D02*
X0288679Y0089873D01*
X0288679Y0088875D02*
X0271379Y0088875D01*
X0271379Y0087876D02*
X0288679Y0087876D01*
X0288679Y0086878D02*
X0271379Y0086878D01*
X0271379Y0085879D02*
X0288679Y0085879D01*
X0288107Y0084881D02*
X0271379Y0084881D01*
X0271379Y0083882D02*
X0287108Y0083882D01*
X0286110Y0082884D02*
X0271379Y0082884D01*
X0271379Y0081885D02*
X0285111Y0081885D01*
X0284113Y0080887D02*
X0271379Y0080887D01*
X0271379Y0079888D02*
X0283114Y0079888D01*
X0282116Y0078890D02*
X0271379Y0078890D01*
X0271379Y0077891D02*
X0281117Y0077891D01*
X0280119Y0076893D02*
X0271379Y0076893D01*
X0271379Y0075894D02*
X0279120Y0075894D01*
X0278122Y0074896D02*
X0271379Y0074896D01*
X0271379Y0073897D02*
X0277123Y0073897D01*
X0276125Y0072899D02*
X0271379Y0072899D01*
X0271379Y0071900D02*
X0275126Y0071900D01*
X0274128Y0070902D02*
X0271416Y0070902D01*
X0271310Y0069903D02*
X0273679Y0069903D01*
X0273679Y0068905D02*
X0270576Y0068905D01*
X0269980Y0067906D02*
X0273679Y0067906D01*
X0273679Y0066908D02*
X0269384Y0066908D01*
X0268787Y0065909D02*
X0273679Y0065909D01*
X0273679Y0064911D02*
X0268191Y0064911D01*
X0267595Y0063912D02*
X0273679Y0063912D01*
X0273679Y0062914D02*
X0267079Y0062914D01*
X0266402Y0061915D02*
X0273679Y0061915D01*
X0273679Y0060917D02*
X0266132Y0060917D01*
X0266979Y0059918D02*
X0273679Y0059918D01*
X0273679Y0058920D02*
X0272512Y0058920D01*
X0269488Y0058920D02*
X0266979Y0058920D01*
X0266570Y0057921D02*
X0267981Y0057921D01*
X0267250Y0056923D02*
X0264750Y0056923D01*
X0265163Y0055924D02*
X0266837Y0055924D01*
X0266800Y0054926D02*
X0265200Y0054926D01*
X0265879Y0052100D02*
X0265879Y0051200D01*
X0264679Y0050000D01*
X0209779Y0050000D01*
X0206679Y0050000D01*
X0206179Y0050000D01*
X0205279Y0049100D01*
X0204279Y0049100D01*
X0202679Y0050000D01*
X0194479Y0050000D01*
X0191000Y0045000D01*
X0187996Y0047936D02*
X0184004Y0047936D01*
X0184744Y0046937D02*
X0187256Y0046937D01*
X0186843Y0045939D02*
X0185157Y0045939D01*
X0185200Y0044940D02*
X0186800Y0044940D01*
X0186892Y0043942D02*
X0185108Y0043942D01*
X0184694Y0042943D02*
X0187306Y0042943D01*
X0188115Y0041945D02*
X0183885Y0041945D01*
X0182189Y0040946D02*
X0189811Y0040946D01*
X0189560Y0038949D02*
X0182440Y0038949D01*
X0183989Y0037951D02*
X0188011Y0037951D01*
X0187263Y0036952D02*
X0184737Y0036952D01*
X0185151Y0035954D02*
X0186849Y0035954D01*
X0186800Y0034955D02*
X0185200Y0034955D01*
X0185114Y0033957D02*
X0186886Y0033957D01*
X0187300Y0032958D02*
X0184700Y0032958D01*
X0183899Y0031960D02*
X0186269Y0031960D01*
X0185270Y0030961D02*
X0182225Y0030961D01*
X0182405Y0028964D02*
X0185145Y0028964D01*
X0185079Y0029963D02*
X0179779Y0029963D01*
X0179775Y0030961D02*
X0179679Y0030961D01*
X0177679Y0030700D02*
X0176079Y0032300D01*
X0176079Y0040079D01*
X0181000Y0045000D01*
X0177996Y0047936D02*
X0174004Y0047936D01*
X0174744Y0046937D02*
X0177256Y0046937D01*
X0176843Y0045939D02*
X0175157Y0045939D01*
X0175200Y0044940D02*
X0176800Y0044940D01*
X0176892Y0043942D02*
X0175108Y0043942D01*
X0174694Y0042943D02*
X0176115Y0042943D01*
X0175250Y0042079D02*
X0175250Y0042079D01*
X0175116Y0041945D02*
X0173885Y0041945D01*
X0174118Y0040946D02*
X0172189Y0040946D01*
X0172440Y0038949D02*
X0174079Y0038949D01*
X0174079Y0037951D02*
X0173989Y0037951D01*
X0174079Y0039948D02*
X0167979Y0039948D01*
X0167979Y0040946D02*
X0169811Y0040946D01*
X0168115Y0041945D02*
X0167979Y0041945D01*
X0167979Y0038949D02*
X0169560Y0038949D01*
X0168011Y0037951D02*
X0167979Y0037951D01*
X0163979Y0038949D02*
X0163560Y0038949D01*
X0163979Y0039948D02*
X0158379Y0039948D01*
X0158379Y0040946D02*
X0159811Y0040946D01*
X0158115Y0041945D02*
X0157386Y0041945D01*
X0157306Y0042943D02*
X0154694Y0042943D01*
X0154771Y0041945D02*
X0153885Y0041945D01*
X0153779Y0040946D02*
X0152189Y0040946D01*
X0155108Y0043942D02*
X0156892Y0043942D01*
X0156800Y0044940D02*
X0155200Y0044940D01*
X0155157Y0045939D02*
X0156843Y0045939D01*
X0157256Y0046937D02*
X0154744Y0046937D01*
X0154004Y0047936D02*
X0157996Y0047936D01*
X0159524Y0048934D02*
X0152476Y0048934D01*
X0152153Y0050932D02*
X0159847Y0050932D01*
X0161479Y0049933D02*
X0147979Y0049933D01*
X0147979Y0048934D02*
X0149524Y0048934D01*
X0147996Y0047936D02*
X0147979Y0047936D01*
X0147897Y0050932D02*
X0149847Y0050932D01*
X0148130Y0051930D02*
X0146898Y0051930D01*
X0147312Y0052929D02*
X0145900Y0052929D01*
X0145102Y0053927D02*
X0146898Y0053927D01*
X0146800Y0054926D02*
X0145200Y0054926D01*
X0145163Y0055924D02*
X0146837Y0055924D01*
X0147250Y0056923D02*
X0144750Y0056923D01*
X0154750Y0056923D02*
X0157250Y0056923D01*
X0156837Y0055924D02*
X0155163Y0055924D01*
X0155200Y0054926D02*
X0156800Y0054926D01*
X0156898Y0053927D02*
X0155102Y0053927D01*
X0154688Y0052929D02*
X0157312Y0052929D01*
X0158130Y0051930D02*
X0153870Y0051930D01*
X0148115Y0041945D02*
X0147979Y0041945D01*
X0147979Y0037951D02*
X0148011Y0037951D01*
X0155114Y0033957D02*
X0156407Y0033957D01*
X0156765Y0032958D02*
X0154700Y0032958D01*
X0153899Y0031960D02*
X0157399Y0031960D01*
X0160500Y0035954D02*
X0161500Y0035954D01*
X0161500Y0036952D02*
X0160500Y0036952D01*
X0160500Y0037951D02*
X0161500Y0037951D01*
X0161500Y0038949D02*
X0160500Y0038949D01*
X0158440Y0038949D02*
X0158281Y0038949D01*
X0157334Y0037951D02*
X0157282Y0037951D01*
X0162189Y0040946D02*
X0163979Y0040946D01*
X0163979Y0041945D02*
X0163885Y0041945D01*
X0167979Y0047936D02*
X0167996Y0047936D01*
X0167979Y0048934D02*
X0169524Y0048934D01*
X0167979Y0049933D02*
X0191996Y0049933D01*
X0192153Y0050932D02*
X0192582Y0050932D01*
X0189847Y0050932D02*
X0182153Y0050932D01*
X0181835Y0050800D02*
X0183379Y0051439D01*
X0184561Y0052621D01*
X0185200Y0054165D01*
X0185200Y0055835D01*
X0184561Y0057379D01*
X0183379Y0058561D01*
X0181835Y0059200D01*
X0180165Y0059200D01*
X0178621Y0058561D01*
X0177439Y0057379D01*
X0176800Y0055835D01*
X0176800Y0054165D01*
X0177439Y0052621D01*
X0178621Y0051439D01*
X0180165Y0050800D01*
X0181835Y0050800D01*
X0182476Y0048934D02*
X0189524Y0048934D01*
X0188130Y0051930D02*
X0183870Y0051930D01*
X0184688Y0052929D02*
X0187312Y0052929D01*
X0186898Y0053927D02*
X0185102Y0053927D01*
X0185200Y0054926D02*
X0186800Y0054926D01*
X0186837Y0055924D02*
X0185163Y0055924D01*
X0184750Y0056923D02*
X0187250Y0056923D01*
X0187981Y0057921D02*
X0184019Y0057921D01*
X0182512Y0058920D02*
X0189488Y0058920D01*
X0192512Y0058920D02*
X0199488Y0058920D01*
X0197981Y0057921D02*
X0194019Y0057921D01*
X0194750Y0056923D02*
X0197250Y0056923D01*
X0196837Y0055924D02*
X0195163Y0055924D01*
X0195200Y0054926D02*
X0196800Y0054926D01*
X0196898Y0053927D02*
X0195102Y0053927D01*
X0194688Y0052929D02*
X0197312Y0052929D01*
X0197996Y0047936D02*
X0195479Y0047936D01*
X0194784Y0046937D02*
X0197256Y0046937D01*
X0196843Y0045939D02*
X0195157Y0045939D01*
X0195200Y0044940D02*
X0196800Y0044940D01*
X0196892Y0043942D02*
X0195108Y0043942D01*
X0194694Y0042943D02*
X0197306Y0042943D01*
X0198115Y0041945D02*
X0193885Y0041945D01*
X0192189Y0040946D02*
X0199811Y0040946D01*
X0200500Y0038949D02*
X0201500Y0038949D01*
X0201500Y0037951D02*
X0200500Y0037951D01*
X0200500Y0036952D02*
X0201500Y0036952D01*
X0201500Y0035954D02*
X0200500Y0035954D01*
X0200500Y0034955D02*
X0195200Y0034955D01*
X0195151Y0035954D02*
X0196392Y0035954D01*
X0196720Y0036952D02*
X0194737Y0036952D01*
X0193989Y0037951D02*
X0197334Y0037951D01*
X0198440Y0038949D02*
X0192440Y0038949D01*
X0195114Y0033957D02*
X0196407Y0033957D01*
X0196765Y0032958D02*
X0194700Y0032958D01*
X0193899Y0031960D02*
X0197399Y0031960D01*
X0196727Y0026967D02*
X0194731Y0026967D01*
X0195145Y0025969D02*
X0196395Y0025969D01*
X0195200Y0024970D02*
X0200500Y0024970D01*
X0201500Y0024970D02*
X0206800Y0024970D01*
X0206800Y0024165D02*
X0207099Y0023443D01*
X0205980Y0022100D01*
X0204703Y0022100D01*
X0205020Y0022537D01*
X0205356Y0023196D01*
X0205584Y0023899D01*
X0205679Y0024500D01*
X0201500Y0024500D01*
X0201500Y0025500D01*
X0205679Y0025500D01*
X0205584Y0026101D01*
X0205356Y0026804D01*
X0205020Y0027463D01*
X0204703Y0027900D01*
X0205007Y0027900D01*
X0206179Y0029072D01*
X0208179Y0031072D01*
X0208179Y0031882D01*
X0208621Y0031439D01*
X0210165Y0030800D01*
X0211835Y0030800D01*
X0213379Y0031439D01*
X0214561Y0032621D01*
X0215200Y0034165D01*
X0215200Y0035835D01*
X0214561Y0037379D01*
X0214240Y0037700D01*
X0217152Y0037700D01*
X0216980Y0037463D01*
X0216644Y0036804D01*
X0216416Y0036101D01*
X0216321Y0035500D01*
X0220500Y0035500D01*
X0220500Y0034500D01*
X0221500Y0034500D01*
X0221500Y0035500D01*
X0225679Y0035500D01*
X0225584Y0036101D01*
X0225356Y0036804D01*
X0225020Y0037463D01*
X0224848Y0037700D01*
X0227760Y0037700D01*
X0227439Y0037379D01*
X0226800Y0035835D01*
X0226800Y0034165D01*
X0227439Y0032621D01*
X0228621Y0031439D01*
X0230165Y0030800D01*
X0231835Y0030800D01*
X0233379Y0031439D01*
X0234561Y0032621D01*
X0235200Y0034165D01*
X0235200Y0035835D01*
X0234561Y0037379D01*
X0234240Y0037700D01*
X0237007Y0037700D01*
X0238179Y0038872D01*
X0240124Y0040817D01*
X0240165Y0040800D01*
X0241835Y0040800D01*
X0243379Y0041439D01*
X0243979Y0042039D01*
X0243979Y0041830D01*
X0245209Y0040600D01*
X0246949Y0040600D01*
X0248179Y0041830D01*
X0248179Y0041882D01*
X0248621Y0041439D01*
X0250165Y0040800D01*
X0251835Y0040800D01*
X0253379Y0041439D01*
X0253879Y0041939D01*
X0253879Y0041830D01*
X0255109Y0040600D01*
X0256849Y0040600D01*
X0258079Y0041830D01*
X0258079Y0041982D01*
X0258621Y0041439D01*
X0260165Y0040800D01*
X0261835Y0040800D01*
X0263179Y0041356D01*
X0263179Y0041330D01*
X0264409Y0040100D01*
X0266149Y0040100D01*
X0267379Y0041330D01*
X0267379Y0042767D01*
X0267439Y0042621D01*
X0268621Y0041439D01*
X0270165Y0040800D01*
X0271835Y0040800D01*
X0273379Y0041439D01*
X0273679Y0041739D01*
X0273679Y0038261D01*
X0273379Y0038561D01*
X0271835Y0039200D01*
X0270165Y0039200D01*
X0268621Y0038561D01*
X0267439Y0037379D01*
X0266800Y0035835D01*
X0266800Y0034165D01*
X0267439Y0032621D01*
X0268621Y0031439D01*
X0270165Y0030800D01*
X0271835Y0030800D01*
X0273379Y0031439D01*
X0273679Y0031739D01*
X0273679Y0030931D01*
X0271915Y0029167D01*
X0271835Y0029200D01*
X0270165Y0029200D01*
X0268621Y0028561D01*
X0267439Y0027379D01*
X0266800Y0025835D01*
X0266800Y0024165D01*
X0267439Y0022621D01*
X0268621Y0021439D01*
X0270165Y0020800D01*
X0271835Y0020800D01*
X0273379Y0021439D01*
X0274561Y0022621D01*
X0275200Y0024165D01*
X0275200Y0025835D01*
X0275167Y0025915D01*
X0278279Y0029026D01*
X0278279Y0031782D01*
X0278621Y0031439D01*
X0280165Y0030800D01*
X0281679Y0030800D01*
X0281679Y0029230D01*
X0281709Y0029200D01*
X0280165Y0029200D01*
X0278621Y0028561D01*
X0277439Y0027379D01*
X0276800Y0025835D01*
X0276800Y0024165D01*
X0277439Y0022621D01*
X0278621Y0021439D01*
X0280165Y0020800D01*
X0281279Y0020800D01*
X0281279Y0020100D01*
X0238629Y0020100D01*
X0238629Y0020933D01*
X0239196Y0020644D01*
X0239899Y0020416D01*
X0240500Y0020321D01*
X0240500Y0024500D01*
X0241500Y0024500D01*
X0241500Y0025500D01*
X0240500Y0025500D01*
X0240500Y0029679D01*
X0239899Y0029584D01*
X0239196Y0029356D01*
X0238537Y0029020D01*
X0238479Y0028978D01*
X0238479Y0029650D01*
X0239785Y0030957D01*
X0240165Y0030800D01*
X0241835Y0030800D01*
X0243379Y0031439D01*
X0244561Y0032621D01*
X0245200Y0034165D01*
X0245200Y0035835D01*
X0244561Y0037379D01*
X0243379Y0038561D01*
X0241835Y0039200D01*
X0240165Y0039200D01*
X0238621Y0038561D01*
X0237439Y0037379D01*
X0236800Y0035835D01*
X0236800Y0034165D01*
X0236957Y0033785D01*
X0234479Y0031307D01*
X0234479Y0027461D01*
X0233379Y0028561D01*
X0231835Y0029200D01*
X0230165Y0029200D01*
X0228621Y0028561D01*
X0227439Y0027379D01*
X0226800Y0025835D01*
X0226800Y0024165D01*
X0227439Y0022621D01*
X0228621Y0021439D01*
X0230165Y0020800D01*
X0231835Y0020800D01*
X0233379Y0021439D01*
X0234479Y0022539D01*
X0234479Y0021741D01*
X0234329Y0021591D01*
X0234329Y0020100D01*
X0209520Y0020100D01*
X0210119Y0020819D01*
X0210165Y0020800D01*
X0211835Y0020800D01*
X0213379Y0021439D01*
X0214561Y0022621D01*
X0215200Y0024165D01*
X0215200Y0025835D01*
X0214561Y0027379D01*
X0213379Y0028561D01*
X0211835Y0029200D01*
X0210165Y0029200D01*
X0208621Y0028561D01*
X0207439Y0027379D01*
X0206800Y0025835D01*
X0206800Y0024165D01*
X0206880Y0023972D02*
X0205596Y0023972D01*
X0205242Y0022973D02*
X0206708Y0022973D01*
X0207000Y0020200D02*
X0206900Y0020100D01*
X0198879Y0020100D01*
X0198679Y0020100D01*
X0197879Y0020100D01*
X0197079Y0020500D01*
X0195513Y0021975D02*
X0193914Y0021975D01*
X0194707Y0022973D02*
X0196758Y0022973D01*
X0196404Y0023972D02*
X0195120Y0023972D01*
X0194929Y0020976D02*
X0192261Y0020976D01*
X0189739Y0020976D02*
X0182261Y0020976D01*
X0183914Y0021975D02*
X0188086Y0021975D01*
X0187293Y0022973D02*
X0184707Y0022973D01*
X0185120Y0023972D02*
X0186880Y0023972D01*
X0186800Y0024970D02*
X0185200Y0024970D01*
X0185145Y0025969D02*
X0186855Y0025969D01*
X0187269Y0026967D02*
X0184731Y0026967D01*
X0183974Y0027966D02*
X0186143Y0027966D01*
X0187179Y0029900D02*
X0204179Y0029900D01*
X0206179Y0031900D01*
X0206179Y0037900D01*
X0207979Y0039700D01*
X0236179Y0039700D01*
X0241000Y0044521D01*
X0241000Y0045000D01*
X0243885Y0041945D02*
X0243979Y0041945D01*
X0244862Y0040946D02*
X0242189Y0040946D01*
X0242440Y0038949D02*
X0249560Y0038949D01*
X0250165Y0039200D02*
X0248621Y0038561D01*
X0247439Y0037379D01*
X0246800Y0035835D01*
X0246800Y0034165D01*
X0247439Y0032621D01*
X0248621Y0031439D01*
X0250165Y0030800D01*
X0251835Y0030800D01*
X0253379Y0031439D01*
X0254561Y0032621D01*
X0255200Y0034165D01*
X0255200Y0035835D01*
X0254561Y0037379D01*
X0253379Y0038561D01*
X0251835Y0039200D01*
X0250165Y0039200D01*
X0249811Y0040946D02*
X0247295Y0040946D01*
X0248011Y0037951D02*
X0243989Y0037951D01*
X0244737Y0036952D02*
X0247263Y0036952D01*
X0246849Y0035954D02*
X0245151Y0035954D01*
X0245200Y0034955D02*
X0246800Y0034955D01*
X0246886Y0033957D02*
X0245114Y0033957D01*
X0244700Y0032958D02*
X0247300Y0032958D01*
X0248100Y0031960D02*
X0243899Y0031960D01*
X0242225Y0030961D02*
X0249775Y0030961D01*
X0250165Y0029200D02*
X0248621Y0028561D01*
X0247439Y0027379D01*
X0246800Y0025835D01*
X0246800Y0024165D01*
X0247439Y0022621D01*
X0248621Y0021439D01*
X0250165Y0020800D01*
X0251835Y0020800D01*
X0253379Y0021439D01*
X0254561Y0022621D01*
X0255200Y0024165D01*
X0255200Y0025835D01*
X0254561Y0027379D01*
X0253379Y0028561D01*
X0251835Y0029200D01*
X0250165Y0029200D01*
X0249595Y0028964D02*
X0243540Y0028964D01*
X0243463Y0029020D02*
X0242804Y0029356D01*
X0242101Y0029584D01*
X0241500Y0029679D01*
X0241500Y0025500D01*
X0245679Y0025500D01*
X0245584Y0026101D01*
X0245356Y0026804D01*
X0245020Y0027463D01*
X0244585Y0028062D01*
X0244062Y0028585D01*
X0243463Y0029020D01*
X0244655Y0027966D02*
X0248026Y0027966D01*
X0247269Y0026967D02*
X0245273Y0026967D01*
X0245605Y0025969D02*
X0246855Y0025969D01*
X0246800Y0024970D02*
X0241500Y0024970D01*
X0241500Y0024500D02*
X0245679Y0024500D01*
X0245584Y0023899D01*
X0245356Y0023196D01*
X0245020Y0022537D01*
X0244585Y0021938D01*
X0244062Y0021415D01*
X0243463Y0020980D01*
X0242804Y0020644D01*
X0242101Y0020416D01*
X0241500Y0020321D01*
X0241500Y0024500D01*
X0241500Y0023972D02*
X0240500Y0023972D01*
X0240500Y0022973D02*
X0241500Y0022973D01*
X0241500Y0021975D02*
X0240500Y0021975D01*
X0240500Y0020976D02*
X0241500Y0020976D01*
X0243455Y0020976D02*
X0249739Y0020976D01*
X0248086Y0021975D02*
X0244611Y0021975D01*
X0245242Y0022973D02*
X0247293Y0022973D01*
X0246880Y0023972D02*
X0245596Y0023972D01*
X0252261Y0020976D02*
X0259739Y0020976D01*
X0260165Y0020800D02*
X0258621Y0021439D01*
X0257439Y0022621D01*
X0256800Y0024165D01*
X0256800Y0025835D01*
X0257439Y0027379D01*
X0258621Y0028561D01*
X0260165Y0029200D01*
X0261835Y0029200D01*
X0263379Y0028561D01*
X0264561Y0027379D01*
X0265200Y0025835D01*
X0265200Y0024165D01*
X0264561Y0022621D01*
X0263379Y0021439D01*
X0261835Y0020800D01*
X0260165Y0020800D01*
X0262261Y0020976D02*
X0269739Y0020976D01*
X0268086Y0021975D02*
X0263914Y0021975D01*
X0264707Y0022973D02*
X0267293Y0022973D01*
X0266880Y0023972D02*
X0265120Y0023972D01*
X0265200Y0024970D02*
X0266800Y0024970D01*
X0266855Y0025969D02*
X0265145Y0025969D01*
X0264731Y0026967D02*
X0267269Y0026967D01*
X0268026Y0027966D02*
X0263974Y0027966D01*
X0262405Y0028964D02*
X0269595Y0028964D01*
X0269775Y0030961D02*
X0263426Y0030961D01*
X0263463Y0030980D02*
X0264062Y0031415D01*
X0264585Y0031938D01*
X0265020Y0032537D01*
X0265356Y0033196D01*
X0265584Y0033899D01*
X0265679Y0034500D01*
X0261500Y0034500D01*
X0261500Y0035500D01*
X0265679Y0035500D01*
X0265584Y0036101D01*
X0265356Y0036804D01*
X0265020Y0037463D01*
X0264585Y0038062D01*
X0264062Y0038585D01*
X0263463Y0039020D01*
X0262804Y0039356D01*
X0262101Y0039584D01*
X0261500Y0039679D01*
X0261500Y0035500D01*
X0260500Y0035500D01*
X0260500Y0039679D01*
X0259899Y0039584D01*
X0259196Y0039356D01*
X0258537Y0039020D01*
X0257938Y0038585D01*
X0257415Y0038062D01*
X0256980Y0037463D01*
X0256644Y0036804D01*
X0256416Y0036101D01*
X0256321Y0035500D01*
X0260500Y0035500D01*
X0260500Y0034500D01*
X0261500Y0034500D01*
X0261500Y0030321D01*
X0262101Y0030416D01*
X0262804Y0030644D01*
X0263463Y0030980D01*
X0264601Y0031960D02*
X0268100Y0031960D01*
X0267300Y0032958D02*
X0265235Y0032958D01*
X0265593Y0033957D02*
X0266886Y0033957D01*
X0266800Y0034955D02*
X0261500Y0034955D01*
X0261500Y0033957D02*
X0260500Y0033957D01*
X0260500Y0034500D02*
X0260500Y0030321D01*
X0259899Y0030416D01*
X0259196Y0030644D01*
X0258537Y0030980D01*
X0257938Y0031415D01*
X0257415Y0031938D01*
X0256980Y0032537D01*
X0256644Y0033196D01*
X0256416Y0033899D01*
X0256321Y0034500D01*
X0260500Y0034500D01*
X0260500Y0034955D02*
X0255200Y0034955D01*
X0255151Y0035954D02*
X0256392Y0035954D01*
X0256720Y0036952D02*
X0254737Y0036952D01*
X0253989Y0037951D02*
X0257334Y0037951D01*
X0258440Y0038949D02*
X0252440Y0038949D01*
X0252189Y0040946D02*
X0254762Y0040946D01*
X0257195Y0040946D02*
X0259811Y0040946D01*
X0258115Y0041945D02*
X0258079Y0041945D01*
X0260500Y0038949D02*
X0261500Y0038949D01*
X0261500Y0037951D02*
X0260500Y0037951D01*
X0260500Y0036952D02*
X0261500Y0036952D01*
X0261500Y0035954D02*
X0260500Y0035954D01*
X0260500Y0032958D02*
X0261500Y0032958D01*
X0261500Y0031960D02*
X0260500Y0031960D01*
X0260500Y0030961D02*
X0261500Y0030961D01*
X0259595Y0028964D02*
X0252405Y0028964D01*
X0253974Y0027966D02*
X0258026Y0027966D01*
X0257269Y0026967D02*
X0254731Y0026967D01*
X0255145Y0025969D02*
X0256855Y0025969D01*
X0256800Y0024970D02*
X0255200Y0024970D01*
X0255120Y0023972D02*
X0256880Y0023972D01*
X0257293Y0022973D02*
X0254707Y0022973D01*
X0253914Y0021975D02*
X0258086Y0021975D01*
X0258574Y0030961D02*
X0252225Y0030961D01*
X0253899Y0031960D02*
X0257399Y0031960D01*
X0256765Y0032958D02*
X0254700Y0032958D01*
X0255114Y0033957D02*
X0256407Y0033957D01*
X0263560Y0038949D02*
X0269560Y0038949D01*
X0268011Y0037951D02*
X0264666Y0037951D01*
X0265280Y0036952D02*
X0267263Y0036952D01*
X0266849Y0035954D02*
X0265608Y0035954D01*
X0266995Y0040946D02*
X0269811Y0040946D01*
X0268115Y0041945D02*
X0267379Y0041945D01*
X0263562Y0040946D02*
X0262189Y0040946D01*
X0272189Y0040946D02*
X0273679Y0040946D01*
X0273679Y0039948D02*
X0239255Y0039948D01*
X0239560Y0038949D02*
X0238257Y0038949D01*
X0238011Y0037951D02*
X0237258Y0037951D01*
X0237263Y0036952D02*
X0234737Y0036952D01*
X0235151Y0035954D02*
X0236849Y0035954D01*
X0236800Y0034955D02*
X0235200Y0034955D01*
X0235114Y0033957D02*
X0236886Y0033957D01*
X0236130Y0032958D02*
X0234700Y0032958D01*
X0235131Y0031960D02*
X0233899Y0031960D01*
X0234479Y0030961D02*
X0232225Y0030961D01*
X0232405Y0028964D02*
X0234479Y0028964D01*
X0234479Y0027966D02*
X0233974Y0027966D01*
X0234479Y0029963D02*
X0207070Y0029963D01*
X0208068Y0030961D02*
X0209775Y0030961D01*
X0209595Y0028964D02*
X0206071Y0028964D01*
X0205073Y0027966D02*
X0208026Y0027966D01*
X0207269Y0026967D02*
X0205273Y0026967D01*
X0205605Y0025969D02*
X0206855Y0025969D01*
X0211000Y0025000D02*
X0207000Y0020200D01*
X0212261Y0020976D02*
X0219739Y0020976D01*
X0220165Y0020800D02*
X0221835Y0020800D01*
X0223379Y0021439D01*
X0224561Y0022621D01*
X0225200Y0024165D01*
X0225200Y0025835D01*
X0224561Y0027379D01*
X0223379Y0028561D01*
X0221835Y0029200D01*
X0220165Y0029200D01*
X0218621Y0028561D01*
X0217439Y0027379D01*
X0216800Y0025835D01*
X0216800Y0024165D01*
X0217439Y0022621D01*
X0218621Y0021439D01*
X0220165Y0020800D01*
X0222261Y0020976D02*
X0229739Y0020976D01*
X0228086Y0021975D02*
X0223914Y0021975D01*
X0224707Y0022973D02*
X0227293Y0022973D01*
X0226880Y0023972D02*
X0225120Y0023972D01*
X0225200Y0024970D02*
X0226800Y0024970D01*
X0226855Y0025969D02*
X0225145Y0025969D01*
X0224731Y0026967D02*
X0227269Y0026967D01*
X0228026Y0027966D02*
X0223974Y0027966D01*
X0222405Y0028964D02*
X0229595Y0028964D01*
X0229775Y0030961D02*
X0223426Y0030961D01*
X0223463Y0030980D02*
X0224062Y0031415D01*
X0224585Y0031938D01*
X0225020Y0032537D01*
X0225356Y0033196D01*
X0225584Y0033899D01*
X0225679Y0034500D01*
X0221500Y0034500D01*
X0221500Y0030321D01*
X0222101Y0030416D01*
X0222804Y0030644D01*
X0223463Y0030980D01*
X0224601Y0031960D02*
X0228100Y0031960D01*
X0227300Y0032958D02*
X0225235Y0032958D01*
X0225593Y0033957D02*
X0226886Y0033957D01*
X0226800Y0034955D02*
X0221500Y0034955D01*
X0221500Y0033957D02*
X0220500Y0033957D01*
X0220500Y0034500D02*
X0220500Y0030321D01*
X0219899Y0030416D01*
X0219196Y0030644D01*
X0218537Y0030980D01*
X0217938Y0031415D01*
X0217415Y0031938D01*
X0216980Y0032537D01*
X0216644Y0033196D01*
X0216416Y0033899D01*
X0216321Y0034500D01*
X0220500Y0034500D01*
X0220500Y0034955D02*
X0215200Y0034955D01*
X0215151Y0035954D02*
X0216392Y0035954D01*
X0216720Y0036952D02*
X0214737Y0036952D01*
X0215114Y0033957D02*
X0216407Y0033957D01*
X0216765Y0032958D02*
X0214700Y0032958D01*
X0213899Y0031960D02*
X0217399Y0031960D01*
X0218574Y0030961D02*
X0212225Y0030961D01*
X0212405Y0028964D02*
X0219595Y0028964D01*
X0218026Y0027966D02*
X0213974Y0027966D01*
X0214731Y0026967D02*
X0217269Y0026967D01*
X0216855Y0025969D02*
X0215145Y0025969D01*
X0215200Y0024970D02*
X0216800Y0024970D01*
X0216880Y0023972D02*
X0215120Y0023972D01*
X0214707Y0022973D02*
X0217293Y0022973D01*
X0218086Y0021975D02*
X0213914Y0021975D01*
X0205824Y0013725D02*
X0243168Y0013759D01*
X0242279Y0012870D01*
X0242279Y0011130D01*
X0243509Y0009900D01*
X0245249Y0009900D01*
X0246479Y0011130D01*
X0246479Y0012870D01*
X0245587Y0013761D01*
X0247472Y0013763D01*
X0246579Y0012870D01*
X0246579Y0011130D01*
X0247809Y0009900D01*
X0249549Y0009900D01*
X0250329Y0010680D01*
X0251109Y0009900D01*
X0252849Y0009900D01*
X0253879Y0010930D01*
X0254909Y0009900D01*
X0256649Y0009900D01*
X0257879Y0011130D01*
X0257879Y0011330D01*
X0259009Y0010200D01*
X0260749Y0010200D01*
X0261229Y0010680D01*
X0261909Y0010000D01*
X0263649Y0010000D01*
X0264779Y0011130D01*
X0264779Y0011030D01*
X0266009Y0009800D01*
X0267749Y0009800D01*
X0268829Y0010880D01*
X0269909Y0009800D01*
X0271649Y0009800D01*
X0272829Y0010980D01*
X0274009Y0009800D01*
X0275749Y0009800D01*
X0276979Y0011030D01*
X0278209Y0009800D01*
X0279949Y0009800D01*
X0280929Y0010780D01*
X0281909Y0009800D01*
X0283649Y0009800D01*
X0284749Y0010900D01*
X0286209Y0010900D01*
X0287209Y0009900D01*
X0288949Y0009900D01*
X0289829Y0010780D01*
X0290301Y0010308D01*
X0290333Y0010263D01*
X0290348Y0010261D01*
X0290609Y0010000D01*
X0291913Y0010000D01*
X0291967Y0009991D01*
X0291980Y0010000D01*
X0292349Y0010000D01*
X0293271Y0010922D01*
X0293315Y0010954D01*
X0293318Y0010969D01*
X0293579Y0011230D01*
X0293579Y0012534D01*
X0293813Y0013942D01*
X0293787Y0013743D01*
X0293939Y0013544D01*
X0293990Y0012981D01*
X0293979Y0012970D01*
X0293979Y0011230D01*
X0295209Y0010000D01*
X0296949Y0010000D01*
X0297279Y0010330D01*
X0297279Y0008828D01*
X0297250Y0008800D01*
X0181379Y0008800D01*
X0181379Y0009970D01*
X0180549Y0010800D01*
X0181379Y0011630D01*
X0181379Y0013370D01*
X0181047Y0013702D01*
X0188217Y0013708D01*
X0187379Y0012870D01*
X0187379Y0011130D01*
X0188609Y0009900D01*
X0190349Y0009900D01*
X0191579Y0011130D01*
X0191579Y0012870D01*
X0190738Y0013711D01*
X0193722Y0013713D01*
X0192779Y0012770D01*
X0192779Y0011030D01*
X0194009Y0009800D01*
X0195749Y0009800D01*
X0196979Y0011030D01*
X0196979Y0012770D01*
X0196033Y0013715D01*
X0202330Y0013721D01*
X0201979Y0013370D01*
X0201979Y0011630D01*
X0203209Y0010400D01*
X0204949Y0010400D01*
X0206179Y0011630D01*
X0206179Y0013370D01*
X0205824Y0013725D01*
X0206179Y0012988D02*
X0242397Y0012988D01*
X0242279Y0011990D02*
X0206179Y0011990D01*
X0205540Y0010991D02*
X0242418Y0010991D01*
X0243416Y0009993D02*
X0195941Y0009993D01*
X0196940Y0010991D02*
X0202618Y0010991D01*
X0201979Y0011990D02*
X0196979Y0011990D01*
X0196760Y0012988D02*
X0201979Y0012988D01*
X0199379Y0018100D02*
X0176979Y0018100D01*
X0175579Y0017300D01*
X0167579Y0017300D01*
X0165979Y0018500D01*
X0167979Y0019978D02*
X0176028Y0019978D01*
X0178086Y0021975D02*
X0173914Y0021975D01*
X0174707Y0022973D02*
X0177293Y0022973D01*
X0176880Y0023972D02*
X0175120Y0023972D01*
X0175200Y0024970D02*
X0176800Y0024970D01*
X0176855Y0025969D02*
X0175145Y0025969D01*
X0174731Y0026967D02*
X0177269Y0026967D01*
X0176543Y0027966D02*
X0173974Y0027966D01*
X0172405Y0028964D02*
X0175579Y0028964D01*
X0175579Y0029963D02*
X0167979Y0029963D01*
X0167979Y0030961D02*
X0169775Y0030961D01*
X0168100Y0031960D02*
X0167979Y0031960D01*
X0167979Y0028964D02*
X0169595Y0028964D01*
X0168026Y0027966D02*
X0167979Y0027966D01*
X0163979Y0030961D02*
X0163426Y0030961D01*
X0172225Y0030961D02*
X0174589Y0030961D01*
X0174079Y0031960D02*
X0173899Y0031960D01*
X0177679Y0030700D02*
X0177679Y0029800D01*
X0179739Y0020976D02*
X0172261Y0020976D01*
X0169739Y0020976D02*
X0167979Y0020976D01*
X0167979Y0021975D02*
X0168086Y0021975D01*
X0177065Y0012988D02*
X0101279Y0012988D01*
X0101279Y0013670D02*
X0100049Y0014900D01*
X0098309Y0014900D01*
X0097079Y0013670D01*
X0097079Y0011930D01*
X0098309Y0010700D01*
X0100049Y0010700D01*
X0101279Y0011930D01*
X0101279Y0013670D01*
X0100962Y0013987D02*
X0145864Y0013987D01*
X0144865Y0014985D02*
X0084005Y0014985D01*
X0083890Y0015100D02*
X0082067Y0015100D01*
X0080779Y0013811D01*
X0080779Y0011989D01*
X0082067Y0010700D01*
X0083890Y0010700D01*
X0085179Y0011989D01*
X0085179Y0013811D01*
X0083890Y0015100D01*
X0085003Y0013987D02*
X0097395Y0013987D01*
X0097079Y0012988D02*
X0085179Y0012988D01*
X0085179Y0011990D02*
X0097079Y0011990D01*
X0098018Y0010991D02*
X0084181Y0010991D01*
X0081776Y0010991D02*
X0065479Y0010991D01*
X0065479Y0010930D02*
X0064249Y0009700D01*
X0062509Y0009700D01*
X0061545Y0010664D01*
X0060631Y0009750D01*
X0058726Y0009750D01*
X0057733Y0010743D01*
X0057090Y0010100D01*
X0055267Y0010100D01*
X0053979Y0011389D01*
X0053979Y0013211D01*
X0055267Y0014500D01*
X0057090Y0014500D01*
X0057983Y0013607D01*
X0058726Y0014350D01*
X0060631Y0014350D01*
X0061795Y0013186D01*
X0062509Y0013900D01*
X0064249Y0013900D01*
X0065479Y0012670D01*
X0065479Y0010930D01*
X0065479Y0011990D02*
X0080779Y0011990D01*
X0080779Y0012988D02*
X0065160Y0012988D01*
X0064541Y0009993D02*
X0177201Y0009993D01*
X0177179Y0008994D02*
X0049043Y0008994D01*
X0049079Y0009993D02*
X0058483Y0009993D01*
X0060874Y0009993D02*
X0062216Y0009993D01*
X0060995Y0013987D02*
X0080954Y0013987D01*
X0081953Y0014985D02*
X0043421Y0014985D01*
X0044089Y0015984D02*
X0047225Y0015984D01*
X0046279Y0016982D02*
X0044629Y0016982D01*
X0045088Y0017981D02*
X0046279Y0017981D01*
X0046588Y0018979D02*
X0045475Y0018979D01*
X0048379Y0017800D02*
X0119379Y0017800D01*
X0121000Y0019421D01*
X0121000Y0025000D01*
X0118026Y0027966D02*
X0113974Y0027966D01*
X0114731Y0026967D02*
X0117269Y0026967D01*
X0116855Y0025969D02*
X0115145Y0025969D01*
X0115200Y0024970D02*
X0116800Y0024970D01*
X0116880Y0023972D02*
X0115120Y0023972D01*
X0114707Y0022973D02*
X0117293Y0022973D01*
X0118086Y0021975D02*
X0113914Y0021975D01*
X0108086Y0021975D02*
X0103914Y0021975D01*
X0104707Y0022973D02*
X0107293Y0022973D01*
X0106880Y0023972D02*
X0105120Y0023972D01*
X0105200Y0024970D02*
X0106800Y0024970D01*
X0106855Y0025969D02*
X0105145Y0025969D01*
X0104731Y0026967D02*
X0107269Y0026967D01*
X0108026Y0027966D02*
X0103974Y0027966D01*
X0102405Y0028964D02*
X0109595Y0028964D01*
X0110165Y0030800D02*
X0111835Y0030800D01*
X0113379Y0031439D01*
X0114561Y0032621D01*
X0115200Y0034165D01*
X0115200Y0035835D01*
X0114561Y0037379D01*
X0113379Y0038561D01*
X0111835Y0039200D01*
X0110165Y0039200D01*
X0108621Y0038561D01*
X0107439Y0037379D01*
X0106800Y0035835D01*
X0106800Y0034165D01*
X0107439Y0032621D01*
X0108621Y0031439D01*
X0110165Y0030800D01*
X0109775Y0030961D02*
X0102225Y0030961D01*
X0103899Y0031960D02*
X0108100Y0031960D01*
X0107300Y0032958D02*
X0104700Y0032958D01*
X0105114Y0033957D02*
X0106886Y0033957D01*
X0106800Y0034955D02*
X0105200Y0034955D01*
X0105151Y0035954D02*
X0106849Y0035954D01*
X0107263Y0036952D02*
X0104737Y0036952D01*
X0103989Y0037951D02*
X0108011Y0037951D01*
X0109560Y0038949D02*
X0102440Y0038949D01*
X0102189Y0040946D02*
X0109811Y0040946D01*
X0110165Y0040800D02*
X0111835Y0040800D01*
X0113379Y0041439D01*
X0114561Y0042621D01*
X0115200Y0044165D01*
X0115200Y0045835D01*
X0114561Y0047379D01*
X0113379Y0048561D01*
X0111835Y0049200D01*
X0110165Y0049200D01*
X0108621Y0048561D01*
X0107439Y0047379D01*
X0106800Y0045835D01*
X0106800Y0044165D01*
X0107439Y0042621D01*
X0108621Y0041439D01*
X0110165Y0040800D01*
X0112189Y0040946D02*
X0119811Y0040946D01*
X0118115Y0041945D02*
X0113885Y0041945D01*
X0114694Y0042943D02*
X0117306Y0042943D01*
X0116892Y0043942D02*
X0115108Y0043942D01*
X0115200Y0044940D02*
X0116800Y0044940D01*
X0116843Y0045939D02*
X0115157Y0045939D01*
X0114744Y0046937D02*
X0117256Y0046937D01*
X0117996Y0047936D02*
X0114004Y0047936D01*
X0112476Y0048934D02*
X0119524Y0048934D01*
X0119847Y0050932D02*
X0112153Y0050932D01*
X0113870Y0051930D02*
X0118130Y0051930D01*
X0117312Y0052929D02*
X0114688Y0052929D01*
X0115102Y0053927D02*
X0116898Y0053927D01*
X0116800Y0054926D02*
X0115200Y0054926D01*
X0115163Y0055924D02*
X0116837Y0055924D01*
X0117250Y0056923D02*
X0114750Y0056923D01*
X0114019Y0057921D02*
X0117981Y0057921D01*
X0109847Y0050932D02*
X0102153Y0050932D01*
X0103870Y0051930D02*
X0108130Y0051930D01*
X0107312Y0052929D02*
X0104688Y0052929D01*
X0105102Y0053927D02*
X0106898Y0053927D01*
X0106800Y0054926D02*
X0105200Y0054926D01*
X0105163Y0055924D02*
X0106837Y0055924D01*
X0107250Y0056923D02*
X0104750Y0056923D01*
X0104019Y0057921D02*
X0107981Y0057921D01*
X0108879Y0065909D02*
X0264128Y0065909D01*
X0264725Y0066908D02*
X0108879Y0066908D01*
X0107984Y0067906D02*
X0265321Y0067906D01*
X0263626Y0060917D02*
X0165791Y0060917D01*
X0166789Y0059918D02*
X0204927Y0059918D01*
X0204479Y0058920D02*
X0202512Y0058920D01*
X0204019Y0057921D02*
X0204479Y0057921D01*
X0204750Y0056923D02*
X0205286Y0056923D01*
X0205163Y0055924D02*
X0206837Y0055924D01*
X0206800Y0054926D02*
X0205200Y0054926D01*
X0205102Y0053927D02*
X0206898Y0053927D01*
X0207312Y0052929D02*
X0206420Y0052929D01*
X0208679Y0058920D02*
X0209488Y0058920D01*
X0208230Y0059918D02*
X0262779Y0059918D01*
X0262779Y0058920D02*
X0262512Y0058920D01*
X0259488Y0058920D02*
X0252512Y0058920D01*
X0254019Y0057921D02*
X0257981Y0057921D01*
X0257250Y0056923D02*
X0254750Y0056923D01*
X0255163Y0055924D02*
X0256837Y0055924D01*
X0256800Y0054926D02*
X0255200Y0054926D01*
X0255102Y0053927D02*
X0256898Y0053927D01*
X0257312Y0052929D02*
X0254688Y0052929D01*
X0247312Y0052929D02*
X0244688Y0052929D01*
X0245102Y0053927D02*
X0246898Y0053927D01*
X0246800Y0054926D02*
X0245200Y0054926D01*
X0245163Y0055924D02*
X0246837Y0055924D01*
X0247250Y0056923D02*
X0244750Y0056923D01*
X0244019Y0057921D02*
X0247981Y0057921D01*
X0249488Y0058920D02*
X0242512Y0058920D01*
X0239488Y0058920D02*
X0238829Y0058920D01*
X0235329Y0058920D02*
X0232512Y0058920D01*
X0234019Y0057921D02*
X0234979Y0057921D01*
X0234979Y0056923D02*
X0234750Y0056923D01*
X0235163Y0055924D02*
X0235885Y0055924D01*
X0235200Y0054926D02*
X0236800Y0054926D01*
X0236898Y0053927D02*
X0235102Y0053927D01*
X0234688Y0052929D02*
X0237312Y0052929D01*
X0229488Y0058920D02*
X0222512Y0058920D01*
X0224019Y0057921D02*
X0227981Y0057921D01*
X0227250Y0056923D02*
X0224750Y0056923D01*
X0225163Y0055924D02*
X0226837Y0055924D01*
X0226800Y0054926D02*
X0225200Y0054926D01*
X0225102Y0053927D02*
X0226898Y0053927D01*
X0227312Y0052929D02*
X0224688Y0052929D01*
X0217312Y0052929D02*
X0214688Y0052929D01*
X0215102Y0053927D02*
X0216898Y0053927D01*
X0216800Y0054926D02*
X0215200Y0054926D01*
X0215163Y0055924D02*
X0216837Y0055924D01*
X0217250Y0056923D02*
X0214750Y0056923D01*
X0214019Y0057921D02*
X0217981Y0057921D01*
X0219488Y0058920D02*
X0212512Y0058920D01*
X0202279Y0040946D02*
X0202189Y0040946D01*
X0203061Y0039948D02*
X0178776Y0039948D01*
X0178079Y0038949D02*
X0179560Y0038949D01*
X0179775Y0040946D02*
X0179811Y0040946D01*
X0179524Y0048934D02*
X0172476Y0048934D01*
X0172153Y0050932D02*
X0179847Y0050932D01*
X0178130Y0051930D02*
X0173870Y0051930D01*
X0174688Y0052929D02*
X0177312Y0052929D01*
X0176898Y0053927D02*
X0175102Y0053927D01*
X0175200Y0054926D02*
X0176800Y0054926D01*
X0176837Y0055924D02*
X0175163Y0055924D01*
X0174750Y0056923D02*
X0177250Y0056923D01*
X0177981Y0057921D02*
X0174019Y0057921D01*
X0172512Y0058920D02*
X0179488Y0058920D01*
X0169847Y0050932D02*
X0167979Y0050932D01*
X0167979Y0051930D02*
X0168130Y0051930D01*
X0167979Y0057921D02*
X0167981Y0057921D01*
X0167788Y0058920D02*
X0169488Y0058920D01*
X0188089Y0031960D02*
X0188100Y0031960D01*
X0203560Y0038949D02*
X0204400Y0038949D01*
X0220500Y0032958D02*
X0221500Y0032958D01*
X0221500Y0031960D02*
X0220500Y0031960D01*
X0220500Y0030961D02*
X0221500Y0030961D01*
X0225608Y0035954D02*
X0226849Y0035954D01*
X0227263Y0036952D02*
X0225280Y0036952D01*
X0236479Y0030479D02*
X0241000Y0035000D01*
X0238791Y0029963D02*
X0272710Y0029963D01*
X0272225Y0030961D02*
X0273679Y0030961D01*
X0277218Y0027966D02*
X0278026Y0027966D01*
X0278217Y0028964D02*
X0279595Y0028964D01*
X0278279Y0029963D02*
X0281679Y0029963D01*
X0279775Y0030961D02*
X0278279Y0030961D01*
X0277269Y0026967D02*
X0276220Y0026967D01*
X0276855Y0025969D02*
X0275221Y0025969D01*
X0275200Y0024970D02*
X0276800Y0024970D01*
X0276880Y0023972D02*
X0275120Y0023972D01*
X0274707Y0022973D02*
X0277293Y0022973D01*
X0278086Y0021975D02*
X0273914Y0021975D01*
X0272261Y0020976D02*
X0279739Y0020976D01*
X0284379Y0018100D02*
X0199379Y0018100D01*
X0192997Y0012988D02*
X0191460Y0012988D01*
X0191579Y0011990D02*
X0192779Y0011990D01*
X0192818Y0010991D02*
X0191440Y0010991D01*
X0190441Y0009993D02*
X0193816Y0009993D01*
X0188516Y0009993D02*
X0181356Y0009993D01*
X0181379Y0008994D02*
X0297279Y0008994D01*
X0297279Y0009993D02*
X0291969Y0009993D01*
X0291958Y0009993D02*
X0289041Y0009993D01*
X0287116Y0009993D02*
X0283841Y0009993D01*
X0281716Y0009993D02*
X0280141Y0009993D01*
X0278016Y0009993D02*
X0275941Y0009993D01*
X0276940Y0010991D02*
X0277018Y0010991D01*
X0276979Y0011030D02*
X0276979Y0012770D01*
X0278000Y0013792D01*
X0275959Y0013790D01*
X0276979Y0012770D01*
X0276979Y0011030D01*
X0276979Y0011990D02*
X0276979Y0011990D01*
X0276760Y0012988D02*
X0277197Y0012988D01*
X0273816Y0009993D02*
X0271841Y0009993D01*
X0269716Y0009993D02*
X0267941Y0009993D01*
X0265816Y0009993D02*
X0256741Y0009993D01*
X0257740Y0010991D02*
X0258218Y0010991D01*
X0254816Y0009993D02*
X0252941Y0009993D01*
X0251016Y0009993D02*
X0249641Y0009993D01*
X0247716Y0009993D02*
X0245341Y0009993D01*
X0246340Y0010991D02*
X0246718Y0010991D01*
X0246579Y0011990D02*
X0246479Y0011990D01*
X0246360Y0012988D02*
X0246697Y0012988D01*
X0236479Y0020700D02*
X0236479Y0030479D01*
X0240500Y0028964D02*
X0241500Y0028964D01*
X0241500Y0027966D02*
X0240500Y0027966D01*
X0240500Y0026967D02*
X0241500Y0026967D01*
X0241500Y0025969D02*
X0240500Y0025969D01*
X0234479Y0021975D02*
X0233914Y0021975D01*
X0234329Y0020976D02*
X0232261Y0020976D01*
X0264640Y0010991D02*
X0264818Y0010991D01*
X0284379Y0018100D02*
X0285679Y0018100D01*
X0285879Y0018300D01*
X0288779Y0019900D01*
X0288779Y0020600D01*
X0286800Y0024970D02*
X0285200Y0024970D01*
X0285145Y0025969D02*
X0286855Y0025969D01*
X0287269Y0026967D02*
X0284731Y0026967D01*
X0283974Y0027966D02*
X0288026Y0027966D01*
X0289595Y0028964D02*
X0285613Y0028964D01*
X0285879Y0029963D02*
X0306974Y0029963D01*
X0306570Y0028964D02*
X0302405Y0028964D01*
X0303974Y0027966D02*
X0306267Y0027966D01*
X0306032Y0026967D02*
X0304731Y0026967D01*
X0305145Y0025969D02*
X0305851Y0025969D01*
X0305752Y0024970D02*
X0305200Y0024970D01*
X0304614Y0030800D02*
X0297386Y0030800D01*
X0296800Y0031386D01*
X0296800Y0038614D01*
X0297386Y0039200D01*
X0304614Y0039200D01*
X0305200Y0038614D01*
X0305200Y0031386D01*
X0304614Y0030800D01*
X0304776Y0030961D02*
X0307450Y0030961D01*
X0308010Y0031960D02*
X0305200Y0031960D01*
X0305200Y0032958D02*
X0308678Y0032958D01*
X0309489Y0033957D02*
X0305200Y0033957D01*
X0305200Y0034955D02*
X0310449Y0034955D01*
X0311605Y0035954D02*
X0305200Y0035954D01*
X0305200Y0036952D02*
X0313035Y0036952D01*
X0315000Y0037951D02*
X0305200Y0037951D01*
X0304865Y0038949D02*
X0318350Y0038949D01*
X0328507Y0042943D02*
X0304694Y0042943D01*
X0303885Y0041945D02*
X0329505Y0041945D01*
X0336979Y0037300D02*
X0336979Y0013200D01*
X0332879Y0009100D01*
X0332679Y0008900D01*
X0311179Y0008900D01*
X0308479Y0011600D01*
X0302379Y0017700D01*
X0294579Y0017700D01*
X0291979Y0015100D01*
X0291479Y0012100D01*
X0293579Y0011990D02*
X0293979Y0011990D01*
X0293990Y0012988D02*
X0293654Y0012988D01*
X0293340Y0010991D02*
X0294218Y0010991D01*
X0296079Y0012100D02*
X0295879Y0014300D01*
X0297579Y0015600D01*
X0300579Y0015600D01*
X0302279Y0014300D01*
X0302279Y0013300D01*
X0303679Y0011900D01*
X0305079Y0011900D01*
X0310079Y0006900D01*
X0345179Y0006900D01*
X0312814Y0010991D02*
X0311916Y0010991D01*
X0311425Y0011990D02*
X0310918Y0011990D01*
X0310301Y0012988D02*
X0309919Y0012988D01*
X0309367Y0013987D02*
X0308921Y0013987D01*
X0308579Y0014985D02*
X0307922Y0014985D01*
X0307911Y0015984D02*
X0306924Y0015984D01*
X0307371Y0016982D02*
X0305925Y0016982D01*
X0306912Y0017981D02*
X0304927Y0017981D01*
X0303928Y0018979D02*
X0306525Y0018979D01*
X0299279Y0013200D02*
X0299279Y0008000D01*
X0298079Y0006800D01*
X0013679Y0006800D01*
X0007979Y0012500D01*
X0010319Y0012988D02*
X0020301Y0012988D01*
X0019367Y0013987D02*
X0009979Y0013987D01*
X0009979Y0014985D02*
X0018579Y0014985D01*
X0017911Y0015984D02*
X0009979Y0015984D01*
X0009979Y0016982D02*
X0017371Y0016982D01*
X0016912Y0017981D02*
X0009979Y0017981D01*
X0009979Y0018979D02*
X0016525Y0018979D01*
X0016222Y0019978D02*
X0009979Y0019978D01*
X0009979Y0020976D02*
X0016002Y0020976D01*
X0015836Y0021975D02*
X0009979Y0021975D01*
X0009979Y0022973D02*
X0015738Y0022973D01*
X0011318Y0011990D02*
X0021425Y0011990D01*
X0022814Y0010991D02*
X0012316Y0010991D01*
X0013315Y0009993D02*
X0024643Y0009993D01*
X0027605Y0008994D02*
X0014313Y0008994D01*
X0034395Y0008994D02*
X0044915Y0008994D01*
X0044879Y0009993D02*
X0037357Y0009993D01*
X0039186Y0010991D02*
X0045100Y0010991D01*
X0046098Y0011990D02*
X0040575Y0011990D01*
X0041699Y0012988D02*
X0053979Y0012988D01*
X0053979Y0011990D02*
X0047859Y0011990D01*
X0048858Y0010991D02*
X0054376Y0010991D01*
X0054754Y0013987D02*
X0042632Y0013987D01*
X0046248Y0024970D02*
X0046800Y0024970D01*
X0046855Y0025969D02*
X0046149Y0025969D01*
X0045968Y0026967D02*
X0047269Y0026967D01*
X0046985Y0027966D02*
X0045733Y0027966D01*
X0045986Y0028964D02*
X0045430Y0028964D01*
X0046650Y0033957D02*
X0046886Y0033957D01*
X0059379Y0038949D02*
X0059560Y0038949D01*
X0059847Y0050932D02*
X0052153Y0050932D01*
X0053870Y0051930D02*
X0058130Y0051930D01*
X0057312Y0052929D02*
X0054688Y0052929D01*
X0055102Y0053927D02*
X0056898Y0053927D01*
X0056800Y0054926D02*
X0055200Y0054926D01*
X0055163Y0055924D02*
X0056837Y0055924D01*
X0056249Y0056923D02*
X0054750Y0056923D01*
X0055250Y0057921D02*
X0054019Y0057921D01*
X0058910Y0059918D02*
X0073368Y0059918D01*
X0084004Y0047936D02*
X0087996Y0047936D01*
X0087256Y0046937D02*
X0084744Y0046937D01*
X0085157Y0045939D02*
X0086843Y0045939D01*
X0086800Y0044940D02*
X0085200Y0044940D01*
X0085108Y0043942D02*
X0086892Y0043942D01*
X0087306Y0042943D02*
X0084694Y0042943D01*
X0083885Y0041945D02*
X0088115Y0041945D01*
X0089811Y0040946D02*
X0082189Y0040946D01*
X0079560Y0038949D02*
X0078379Y0038949D01*
X0081000Y0035000D02*
X0081000Y0033921D01*
X0076979Y0029900D01*
X0078871Y0028964D02*
X0079595Y0028964D01*
X0079870Y0029963D02*
X0123879Y0029963D01*
X0123879Y0030961D02*
X0122225Y0030961D01*
X0122405Y0028964D02*
X0123879Y0028964D01*
X0127879Y0028964D02*
X0129595Y0028964D01*
X0128026Y0027966D02*
X0127879Y0027966D01*
X0127879Y0029963D02*
X0143979Y0029963D01*
X0143979Y0030961D02*
X0142225Y0030961D01*
X0143899Y0031960D02*
X0143979Y0031960D01*
X0143979Y0028964D02*
X0142405Y0028964D01*
X0143974Y0027966D02*
X0143979Y0027966D01*
X0143914Y0021975D02*
X0143979Y0021975D01*
X0143979Y0020976D02*
X0142261Y0020976D01*
X0143979Y0019978D02*
X0123000Y0019978D01*
X0123000Y0020976D02*
X0124033Y0020976D01*
X0123000Y0018979D02*
X0143979Y0018979D01*
X0143979Y0017981D02*
X0122388Y0017981D01*
X0121389Y0016982D02*
X0143979Y0016982D01*
X0143979Y0015984D02*
X0120391Y0015984D01*
X0119595Y0028964D02*
X0112405Y0028964D01*
X0112225Y0030961D02*
X0119775Y0030961D01*
X0118100Y0031960D02*
X0113899Y0031960D01*
X0114700Y0032958D02*
X0117300Y0032958D01*
X0116886Y0033957D02*
X0115114Y0033957D01*
X0115200Y0034955D02*
X0116800Y0034955D01*
X0116849Y0035954D02*
X0115151Y0035954D01*
X0114737Y0036952D02*
X0117263Y0036952D01*
X0118011Y0037951D02*
X0113989Y0037951D01*
X0112440Y0038949D02*
X0119560Y0038949D01*
X0127879Y0040946D02*
X0129811Y0040946D01*
X0128115Y0041945D02*
X0127879Y0041945D01*
X0127879Y0031960D02*
X0128100Y0031960D01*
X0127879Y0030961D02*
X0129775Y0030961D01*
X0109524Y0048934D02*
X0102476Y0048934D01*
X0104004Y0047936D02*
X0107996Y0047936D01*
X0107256Y0046937D02*
X0104744Y0046937D01*
X0105157Y0045939D02*
X0106843Y0045939D01*
X0106800Y0044940D02*
X0105200Y0044940D01*
X0105108Y0043942D02*
X0106892Y0043942D01*
X0107306Y0042943D02*
X0104694Y0042943D01*
X0103885Y0041945D02*
X0108115Y0041945D01*
X0098011Y0037951D02*
X0093989Y0037951D01*
X0094737Y0036952D02*
X0097263Y0036952D01*
X0096849Y0035954D02*
X0095151Y0035954D01*
X0095200Y0034955D02*
X0096800Y0034955D01*
X0096886Y0033957D02*
X0095114Y0033957D01*
X0094700Y0032958D02*
X0097300Y0032958D01*
X0098100Y0031960D02*
X0093899Y0031960D01*
X0092225Y0030961D02*
X0099775Y0030961D01*
X0099595Y0028964D02*
X0092405Y0028964D01*
X0093974Y0027966D02*
X0098026Y0027966D01*
X0097269Y0026967D02*
X0094731Y0026967D01*
X0095145Y0025969D02*
X0096855Y0025969D01*
X0096800Y0024970D02*
X0095200Y0024970D01*
X0095120Y0023972D02*
X0096880Y0023972D01*
X0097293Y0022973D02*
X0094707Y0022973D01*
X0093914Y0021975D02*
X0098086Y0021975D01*
X0101279Y0011990D02*
X0177179Y0011990D01*
X0177818Y0010991D02*
X0100340Y0010991D01*
X0084491Y0020976D02*
X0082261Y0020976D01*
X0079739Y0020976D02*
X0073455Y0020976D01*
X0074611Y0021975D02*
X0078086Y0021975D01*
X0077293Y0022973D02*
X0075242Y0022973D01*
X0075596Y0023972D02*
X0076880Y0023972D01*
X0076800Y0024970D02*
X0071500Y0024970D01*
X0075605Y0025969D02*
X0076855Y0025969D01*
X0077269Y0026967D02*
X0075273Y0026967D01*
X0077873Y0027966D02*
X0078026Y0027966D01*
X0058363Y0013987D02*
X0057603Y0013987D01*
X0049847Y0050932D02*
X0042776Y0050932D01*
X0042254Y0051930D02*
X0048130Y0051930D01*
X0047312Y0052929D02*
X0042247Y0052929D01*
X0041833Y0053927D02*
X0046898Y0053927D01*
X0046800Y0054926D02*
X0041009Y0054926D01*
X0046631Y0055924D02*
X0046837Y0055924D01*
X0035111Y0052929D02*
X0034636Y0052929D01*
X0035104Y0051930D02*
X0033637Y0051930D01*
X0032639Y0050932D02*
X0035335Y0050932D01*
X0035890Y0049933D02*
X0031640Y0049933D01*
X0092153Y0050932D02*
X0094777Y0050932D01*
X0094279Y0051930D02*
X0093870Y0051930D01*
X0096179Y0066100D02*
X0106679Y0066100D01*
X0069079Y0149300D02*
X0069079Y0158300D01*
X0051679Y0162200D02*
X0051379Y0162500D01*
X0051379Y0186300D01*
X0052679Y0187600D01*
X0052679Y0193000D01*
X0173279Y0313500D02*
X0173179Y0331000D01*
X0178379Y0338200D01*
X0179029Y0339050D01*
X0178879Y0371400D01*
X0195679Y0371800D01*
X0195279Y0333700D01*
X0184579Y0333700D01*
X0184779Y0318600D01*
X0180679Y0318800D01*
X0180779Y0313500D01*
X0173279Y0313500D01*
X0173279Y0313540D02*
X0180778Y0313540D01*
X0180759Y0314539D02*
X0173273Y0314539D01*
X0173267Y0315537D02*
X0180740Y0315537D01*
X0180721Y0316536D02*
X0173261Y0316536D01*
X0173256Y0317534D02*
X0180703Y0317534D01*
X0180684Y0318533D02*
X0173250Y0318533D01*
X0173244Y0319531D02*
X0184766Y0319531D01*
X0184753Y0320530D02*
X0173239Y0320530D01*
X0173233Y0321528D02*
X0184740Y0321528D01*
X0184727Y0322527D02*
X0173227Y0322527D01*
X0173221Y0323525D02*
X0184713Y0323525D01*
X0184700Y0324524D02*
X0173216Y0324524D01*
X0173210Y0325522D02*
X0184687Y0325522D01*
X0184674Y0326521D02*
X0173204Y0326521D01*
X0173199Y0327519D02*
X0184661Y0327519D01*
X0184647Y0328518D02*
X0173193Y0328518D01*
X0173187Y0329516D02*
X0184634Y0329516D01*
X0184621Y0330515D02*
X0173182Y0330515D01*
X0173549Y0331513D02*
X0184608Y0331513D01*
X0184594Y0332512D02*
X0174271Y0332512D01*
X0174992Y0333510D02*
X0184581Y0333510D01*
X0178610Y0338503D02*
X0195329Y0338503D01*
X0195340Y0339501D02*
X0179027Y0339501D01*
X0179022Y0340500D02*
X0195350Y0340500D01*
X0195361Y0341498D02*
X0179017Y0341498D01*
X0179013Y0342497D02*
X0195371Y0342497D01*
X0195382Y0343495D02*
X0179008Y0343495D01*
X0179004Y0344494D02*
X0195392Y0344494D01*
X0195403Y0345492D02*
X0178999Y0345492D01*
X0178994Y0346491D02*
X0195413Y0346491D01*
X0195424Y0347489D02*
X0178990Y0347489D01*
X0178985Y0348488D02*
X0195434Y0348488D01*
X0195444Y0349486D02*
X0178980Y0349486D01*
X0178976Y0350485D02*
X0195455Y0350485D01*
X0195465Y0351483D02*
X0178971Y0351483D01*
X0178966Y0352482D02*
X0195476Y0352482D01*
X0195486Y0353480D02*
X0178962Y0353480D01*
X0178957Y0354479D02*
X0195497Y0354479D01*
X0195507Y0355477D02*
X0178953Y0355477D01*
X0178948Y0356476D02*
X0195518Y0356476D01*
X0195528Y0357474D02*
X0178943Y0357474D01*
X0178939Y0358473D02*
X0195539Y0358473D01*
X0195549Y0359472D02*
X0178934Y0359472D01*
X0178929Y0360470D02*
X0195560Y0360470D01*
X0195570Y0361469D02*
X0178925Y0361469D01*
X0178920Y0362467D02*
X0195581Y0362467D01*
X0195591Y0363466D02*
X0178916Y0363466D01*
X0178911Y0364464D02*
X0195602Y0364464D01*
X0195612Y0365463D02*
X0178906Y0365463D01*
X0178902Y0366461D02*
X0195623Y0366461D01*
X0195633Y0367460D02*
X0178897Y0367460D01*
X0178892Y0368458D02*
X0195644Y0368458D01*
X0195654Y0369457D02*
X0178888Y0369457D01*
X0178883Y0370455D02*
X0195665Y0370455D01*
X0195675Y0371454D02*
X0181132Y0371454D01*
X0177876Y0337504D02*
X0195319Y0337504D01*
X0195308Y0336506D02*
X0177155Y0336506D01*
X0176434Y0335507D02*
X0195298Y0335507D01*
X0195287Y0334509D02*
X0175713Y0334509D01*
X0191779Y0306500D02*
X0192079Y0306500D01*
X0195579Y0303000D01*
X0195579Y0273000D01*
X0197579Y0271000D01*
X0181579Y0271200D02*
X0181579Y0276800D01*
X0281841Y0212690D02*
X0290335Y0212690D01*
X0290335Y0211692D02*
X0281837Y0211692D01*
X0281832Y0210693D02*
X0290335Y0210693D01*
X0290344Y0209695D02*
X0281827Y0209695D01*
X0281823Y0208696D02*
X0290154Y0208696D01*
X0289835Y0207698D02*
X0281818Y0207698D01*
X0281813Y0206699D02*
X0289835Y0206699D01*
X0289835Y0205701D02*
X0281809Y0205701D01*
X0281804Y0204702D02*
X0290002Y0204702D01*
X0290593Y0203704D02*
X0281799Y0203704D01*
X0281795Y0202705D02*
X0290335Y0202705D01*
X0290335Y0201707D02*
X0281790Y0201707D01*
X0281785Y0200708D02*
X0290335Y0200708D01*
X0290880Y0199710D02*
X0282156Y0199710D01*
X0293008Y0216024D02*
X0295955Y0216024D01*
X0300079Y0216000D01*
X0301279Y0214800D01*
X0303279Y0214687D02*
X0312879Y0214687D01*
X0312879Y0213689D02*
X0303281Y0213689D01*
X0303283Y0212690D02*
X0312879Y0212690D01*
X0312879Y0211692D02*
X0303286Y0211692D01*
X0303288Y0210693D02*
X0312879Y0210693D01*
X0312879Y0209695D02*
X0303290Y0209695D01*
X0303292Y0208696D02*
X0312879Y0208696D01*
X0312879Y0207698D02*
X0303294Y0207698D01*
X0303297Y0206699D02*
X0312879Y0206699D01*
X0312879Y0205701D02*
X0303299Y0205701D01*
X0303301Y0204702D02*
X0312879Y0204702D01*
X0312879Y0203704D02*
X0303303Y0203704D01*
X0303306Y0202705D02*
X0312879Y0202705D01*
X0312879Y0201707D02*
X0303308Y0201707D01*
X0303310Y0200708D02*
X0312879Y0200708D01*
X0312879Y0199710D02*
X0303312Y0199710D01*
X0303314Y0198711D02*
X0312879Y0198711D01*
X0312879Y0197713D02*
X0303317Y0197713D01*
X0303319Y0196714D02*
X0312879Y0196714D01*
X0312879Y0195716D02*
X0303321Y0195716D01*
X0299356Y0179739D02*
X0288930Y0179739D01*
X0289329Y0178741D02*
X0299359Y0178741D01*
X0299361Y0177742D02*
X0289329Y0177742D01*
X0288513Y0176744D02*
X0299363Y0176744D01*
X0299365Y0175745D02*
X0286505Y0175745D01*
X0286528Y0174747D02*
X0299368Y0174747D01*
X0299370Y0173748D02*
X0286528Y0173748D01*
X0286820Y0171751D02*
X0299374Y0171751D01*
X0299376Y0170753D02*
X0286921Y0170753D01*
X0286921Y0169754D02*
X0298569Y0169754D01*
X0297544Y0168756D02*
X0286921Y0168756D01*
X0270567Y0165760D02*
X0270550Y0165760D01*
X0278279Y0059918D02*
X0347761Y0059918D01*
X0348759Y0058920D02*
X0304895Y0058920D01*
X0305200Y0057921D02*
X0349758Y0057921D01*
X0350179Y0056923D02*
X0346785Y0056923D01*
X0347783Y0055924D02*
X0350179Y0055924D01*
X0350179Y0054926D02*
X0348782Y0054926D01*
X0349780Y0053927D02*
X0350179Y0053927D01*
X0346579Y0050932D02*
X0304746Y0050932D01*
X0305200Y0051930D02*
X0346120Y0051930D01*
X0345122Y0052929D02*
X0305200Y0052929D01*
X0299524Y0048934D02*
X0292476Y0048934D01*
X0292876Y0049933D02*
X0278279Y0049933D01*
X0278279Y0048934D02*
X0279524Y0048934D01*
X0279847Y0050932D02*
X0278279Y0050932D01*
X0278279Y0058920D02*
X0279488Y0058920D01*
X0273679Y0038949D02*
X0272440Y0038949D01*
X0283989Y0037951D02*
X0288011Y0037951D01*
X0287263Y0036952D02*
X0284737Y0036952D01*
X0285151Y0035954D02*
X0286849Y0035954D01*
X0286800Y0034955D02*
X0285200Y0034955D01*
X0285114Y0033957D02*
X0286886Y0033957D01*
X0287300Y0032958D02*
X0284700Y0032958D01*
X0284889Y0031960D02*
X0288100Y0031960D01*
X0289775Y0030961D02*
X0285879Y0030961D01*
X0292225Y0030961D02*
X0297224Y0030961D01*
X0296800Y0031960D02*
X0293899Y0031960D01*
X0294700Y0032958D02*
X0296800Y0032958D01*
X0296800Y0033957D02*
X0295114Y0033957D01*
X0295200Y0034955D02*
X0296800Y0034955D01*
X0296800Y0035954D02*
X0295151Y0035954D01*
X0294737Y0036952D02*
X0296800Y0036952D01*
X0296800Y0037951D02*
X0293989Y0037951D01*
X0292440Y0038949D02*
X0297135Y0038949D01*
X0299595Y0028964D02*
X0292405Y0028964D01*
X0293974Y0027966D02*
X0298026Y0027966D01*
X0297269Y0026967D02*
X0294731Y0026967D01*
X0295145Y0025969D02*
X0296855Y0025969D01*
X0296800Y0024970D02*
X0295200Y0024970D01*
X0295120Y0023972D02*
X0296880Y0023972D01*
X0297293Y0022973D02*
X0294706Y0022973D01*
X0187497Y0012988D02*
X0181379Y0012988D01*
X0181379Y0011990D02*
X0187379Y0011990D01*
X0187518Y0010991D02*
X0180740Y0010991D01*
D24*
X0179279Y0012500D03*
X0179279Y0009100D03*
X0189479Y0012000D03*
X0194879Y0011900D03*
X0200879Y0012000D03*
X0204079Y0012500D03*
X0187179Y0029900D03*
X0177679Y0029800D03*
X0163579Y0050100D03*
X0136279Y0049600D03*
X0125879Y0022100D03*
X0099179Y0012800D03*
X0091579Y0011800D03*
X0063379Y0011800D03*
X0048379Y0017800D03*
X0046979Y0009900D03*
X0076679Y0052000D03*
X0096379Y0052300D03*
X0095579Y0058300D03*
X0060479Y0164300D03*
X0082379Y0183800D03*
X0204679Y0051700D03*
X0206579Y0058600D03*
X0204379Y0041600D03*
X0225479Y0042500D03*
X0237079Y0057700D03*
X0246079Y0042700D03*
X0255979Y0042700D03*
X0265279Y0042200D03*
X0265879Y0052100D03*
X0264879Y0059200D03*
X0294179Y0051600D03*
X0283779Y0030100D03*
X0286179Y0022100D03*
X0288779Y0020600D03*
X0283379Y0020600D03*
X0285479Y0013000D03*
X0288079Y0012000D03*
X0291479Y0012100D03*
X0296079Y0012100D03*
X0299279Y0013200D03*
X0302079Y0008600D03*
X0294979Y0020600D03*
X0282779Y0011900D03*
X0279079Y0011900D03*
X0274879Y0011900D03*
X0270779Y0011900D03*
X0266879Y0011900D03*
X0262779Y0012100D03*
X0259879Y0012300D03*
X0255779Y0012000D03*
X0251979Y0012000D03*
X0248679Y0012000D03*
X0244379Y0012000D03*
X0273779Y0020600D03*
X0296579Y0204800D03*
X0286479Y0228100D03*
X0296579Y0269100D03*
X0256379Y0269500D03*
X0211879Y0270600D03*
X0153579Y0318700D03*
X0150379Y0320100D03*
D25*
X0151779Y0306350D03*
X0147979Y0306350D03*
X0161679Y0306800D03*
X0161779Y0301600D03*
X0166679Y0301800D03*
X0166679Y0306800D03*
X0171679Y0306800D03*
X0171679Y0301700D03*
X0176679Y0301700D03*
X0176779Y0306700D03*
X0181879Y0306700D03*
X0186779Y0306700D03*
X0181579Y0301600D03*
X0191729Y0296650D03*
X0191779Y0306500D03*
X0191479Y0311800D03*
X0191779Y0316900D03*
X0191679Y0321900D03*
X0187829Y0321700D03*
X0187579Y0316700D03*
X0186679Y0311700D03*
X0191679Y0327000D03*
X0191979Y0281400D03*
X0186479Y0276400D03*
X0181579Y0276800D03*
X0176679Y0276600D03*
X0176579Y0270400D03*
X0181579Y0271200D03*
X0283779Y0187700D03*
X0287179Y0178450D03*
X0298279Y0208700D03*
X0236479Y0020700D03*
X0197079Y0020500D03*
X0078179Y0066400D03*
X0065979Y0022900D03*
D26*
X0038679Y0052200D03*
X0060879Y0218400D03*
X0075979Y0239400D03*
X0136479Y0265800D03*
X0225079Y0254700D03*
X0269479Y0255400D03*
D27*
X0283802Y0187677D02*
X0293008Y0187677D01*
D28*
X0292956Y0192350D02*
X0293008Y0192402D01*
X0291809Y0193600D01*
X0286379Y0193600D01*
X0285579Y0192800D01*
X0280379Y0192800D01*
X0283779Y0187700D02*
X0283802Y0187677D01*
X0307079Y0169700D02*
X0307079Y0165500D01*
X0307079Y0118700D01*
X0290979Y0104500D01*
X0290979Y0084500D01*
X0275979Y0069500D01*
X0275979Y0062200D01*
X0275979Y0058200D01*
X0275979Y0029979D01*
X0271000Y0025000D01*
D29*
X0156079Y0040000D03*
X0083479Y0066400D03*
X0076079Y0038500D03*
X0057079Y0039800D03*
X0059679Y0012050D03*
D30*
X0280379Y0192800D03*
D31*
X0265579Y0231650D02*
X0269629Y0237400D01*
X0265579Y0231650D02*
X0265579Y0115700D01*
X0270154Y0110525D01*
X0275054Y0110525D01*
X0276104Y0111575D01*
X0283979Y0111575D01*
X0284602Y0111591D01*
X0284679Y0111575D01*
X0287829Y0111575D01*
X0288004Y0111750D01*
X0288004Y0113850D01*
X0287829Y0114025D01*
X0288004Y0114550D01*
X0288004Y0116125D01*
X0287829Y0116300D01*
X0288004Y0116825D01*
X0288004Y0118575D01*
X0287829Y0118750D01*
X0288004Y0119275D01*
X0288004Y0120850D01*
X0287829Y0121025D01*
X0288004Y0121550D01*
X0288004Y0123300D01*
X0287829Y0123475D01*
X0288004Y0124000D01*
X0288004Y0125575D01*
X0287829Y0125750D01*
X0288004Y0126275D01*
X0288004Y0128025D01*
X0287829Y0128200D01*
X0288004Y0128725D01*
X0288004Y0130300D01*
X0287829Y0130475D01*
X0288004Y0131000D01*
X0288004Y0132750D01*
X0287829Y0132925D01*
X0284679Y0132925D01*
X0284602Y0132850D01*
X0284602Y0130488D02*
X0284679Y0130475D01*
X0287829Y0130475D01*
X0287829Y0128200D02*
X0284679Y0128200D01*
X0284602Y0128126D01*
X0284602Y0125764D02*
X0284679Y0125750D01*
X0287829Y0125750D01*
X0287829Y0123475D02*
X0284679Y0123475D01*
X0284602Y0123402D01*
X0284602Y0121039D02*
X0284679Y0121025D01*
X0287829Y0121025D01*
X0287829Y0118750D02*
X0284679Y0118750D01*
X0284602Y0118677D01*
X0284602Y0116315D02*
X0284679Y0116300D01*
X0287829Y0116300D01*
X0287829Y0114025D02*
X0284679Y0114025D01*
X0284602Y0113953D01*
M02*
