G75*
%MOIN*%
%OFA0B0*%
%FSLAX25Y25*%
%IPPOS*%
%LPD*%
%AMOC8*
5,1,8,0,0,1.08239X$1,22.5*
%
%ADD10C,0.00200*%
%ADD11C,0.00500*%
%ADD12C,0.00000*%
%ADD13C,0.00300*%
%ADD14C,0.00100*%
%ADD15C,0.00394*%
D10*
X0040943Y0006456D02*
X0043145Y0006456D01*
X0043145Y0007190D02*
X0043145Y0005722D01*
X0041677Y0007190D02*
X0040943Y0006456D01*
X0041310Y0007932D02*
X0040943Y0008299D01*
X0040943Y0009033D01*
X0041310Y0009400D01*
X0042778Y0009400D01*
X0043145Y0009033D01*
X0043145Y0008299D01*
X0042778Y0007932D01*
X0042044Y0007932D01*
X0042044Y0008666D01*
X0086579Y0067680D02*
X0088781Y0067680D01*
X0088781Y0068781D01*
X0088414Y0069148D01*
X0087680Y0069148D01*
X0087313Y0068781D01*
X0087313Y0067680D01*
X0087313Y0068414D02*
X0086579Y0069148D01*
X0086946Y0069890D02*
X0086579Y0070257D01*
X0086579Y0070991D01*
X0086946Y0071358D01*
X0087313Y0071358D01*
X0087680Y0070991D01*
X0087680Y0070624D01*
X0087680Y0070991D02*
X0088047Y0071358D01*
X0088414Y0071358D01*
X0088781Y0070991D01*
X0088781Y0070257D01*
X0088414Y0069890D01*
X0086112Y0089200D02*
X0085378Y0089200D01*
X0085011Y0089567D01*
X0085011Y0091402D01*
X0084269Y0090668D02*
X0083535Y0091402D01*
X0083535Y0089200D01*
X0084269Y0089200D02*
X0082801Y0089200D01*
X0086112Y0089200D02*
X0086479Y0089567D01*
X0086479Y0091402D01*
X0069281Y0086324D02*
X0067079Y0086324D01*
X0067079Y0085590D02*
X0067079Y0087058D01*
X0068547Y0085590D02*
X0069281Y0086324D01*
X0068914Y0084848D02*
X0068180Y0084848D01*
X0067813Y0084481D01*
X0067813Y0083380D01*
X0067813Y0084114D02*
X0067079Y0084848D01*
X0067079Y0083380D02*
X0069281Y0083380D01*
X0069281Y0084481D01*
X0068914Y0084848D01*
X0063881Y0081791D02*
X0063881Y0081057D01*
X0063514Y0080690D01*
X0063514Y0079948D02*
X0062780Y0079948D01*
X0062413Y0079581D01*
X0062413Y0078480D01*
X0062413Y0079214D02*
X0061679Y0079948D01*
X0061679Y0080690D02*
X0063147Y0082158D01*
X0063514Y0082158D01*
X0063881Y0081791D01*
X0063514Y0079948D02*
X0063881Y0079581D01*
X0063881Y0078480D01*
X0061679Y0078480D01*
X0061679Y0080690D02*
X0061679Y0082158D01*
X0065562Y0110292D02*
X0065179Y0110676D01*
X0065179Y0111059D01*
X0065562Y0111443D01*
X0067481Y0111443D01*
X0067481Y0111059D02*
X0067481Y0111827D01*
X0067481Y0112594D02*
X0066713Y0113361D01*
X0067481Y0114129D01*
X0065179Y0114129D01*
X0065179Y0114896D02*
X0067481Y0114896D01*
X0067481Y0116047D01*
X0067097Y0116431D01*
X0066330Y0116431D01*
X0065946Y0116047D01*
X0065946Y0114896D01*
X0065179Y0112594D02*
X0067481Y0112594D01*
X0066713Y0117198D02*
X0067481Y0117965D01*
X0065179Y0117965D01*
X0065179Y0117198D02*
X0065179Y0118733D01*
X0072079Y0131204D02*
X0074281Y0131204D01*
X0074281Y0130470D02*
X0074281Y0131938D01*
X0074281Y0132680D02*
X0074281Y0133781D01*
X0073914Y0134148D01*
X0073180Y0134148D01*
X0072813Y0133781D01*
X0072813Y0132680D01*
X0072079Y0132680D02*
X0074281Y0132680D01*
X0073914Y0134890D02*
X0074281Y0135257D01*
X0074281Y0135991D01*
X0073914Y0136358D01*
X0073547Y0136358D01*
X0072079Y0134890D01*
X0072079Y0136358D01*
X0076779Y0142600D02*
X0079081Y0142600D01*
X0079081Y0143751D01*
X0078697Y0144135D01*
X0077930Y0144135D01*
X0077546Y0143751D01*
X0077546Y0142600D01*
X0077546Y0143367D02*
X0076779Y0144135D01*
X0077162Y0144902D02*
X0076779Y0145286D01*
X0076779Y0146053D01*
X0077162Y0146437D01*
X0078697Y0146437D01*
X0079081Y0146053D01*
X0079081Y0145286D01*
X0078697Y0144902D01*
X0078313Y0144902D01*
X0077930Y0145286D01*
X0077930Y0146437D01*
X0071481Y0146598D02*
X0071481Y0148133D01*
X0071097Y0148133D01*
X0069562Y0146598D01*
X0069179Y0146598D01*
X0069562Y0145831D02*
X0069179Y0145447D01*
X0069179Y0144680D01*
X0069562Y0144296D01*
X0071097Y0144296D01*
X0071481Y0144680D01*
X0071481Y0145447D01*
X0071097Y0145831D01*
X0070746Y0159700D02*
X0070379Y0160067D01*
X0070379Y0160801D01*
X0070746Y0161168D01*
X0070379Y0161910D02*
X0070379Y0163378D01*
X0070379Y0162644D02*
X0072581Y0162644D01*
X0071847Y0161910D01*
X0072214Y0161168D02*
X0072581Y0160801D01*
X0072581Y0160067D01*
X0072214Y0159700D01*
X0070746Y0159700D01*
X0070746Y0164120D02*
X0072214Y0165588D01*
X0070746Y0165588D01*
X0070379Y0165221D01*
X0070379Y0164487D01*
X0070746Y0164120D01*
X0072214Y0164120D01*
X0072581Y0164487D01*
X0072581Y0165221D01*
X0072214Y0165588D01*
X0082179Y0165311D02*
X0082179Y0164577D01*
X0082546Y0164210D01*
X0082913Y0164210D01*
X0083280Y0164577D01*
X0083280Y0165311D01*
X0082913Y0165678D01*
X0082546Y0165678D01*
X0082179Y0165311D01*
X0083280Y0165311D02*
X0083647Y0165678D01*
X0084014Y0165678D01*
X0084381Y0165311D01*
X0084381Y0164577D01*
X0084014Y0164210D01*
X0083647Y0164210D01*
X0083280Y0164577D01*
X0084014Y0163468D02*
X0084381Y0163101D01*
X0084381Y0162367D01*
X0084014Y0162000D01*
X0082546Y0162000D01*
X0082179Y0162367D01*
X0082179Y0163101D01*
X0082546Y0163468D01*
X0089979Y0163857D02*
X0090346Y0163490D01*
X0091814Y0164958D01*
X0090346Y0164958D01*
X0089979Y0164591D01*
X0089979Y0163857D01*
X0090346Y0163490D02*
X0091814Y0163490D01*
X0092181Y0163857D01*
X0092181Y0164591D01*
X0091814Y0164958D01*
X0089979Y0162748D02*
X0089979Y0161280D01*
X0089979Y0162014D02*
X0092181Y0162014D01*
X0091447Y0161280D01*
X0091814Y0160538D02*
X0091080Y0160538D01*
X0090713Y0160171D01*
X0090713Y0159070D01*
X0089979Y0159070D02*
X0092181Y0159070D01*
X0092181Y0160171D01*
X0091814Y0160538D01*
X0090713Y0159804D02*
X0089979Y0160538D01*
X0091162Y0150237D02*
X0092697Y0150237D01*
X0093081Y0149853D01*
X0093081Y0149086D01*
X0092697Y0148702D01*
X0092313Y0148702D01*
X0091930Y0149086D01*
X0091930Y0150237D01*
X0091162Y0150237D02*
X0090779Y0149853D01*
X0090779Y0149086D01*
X0091162Y0148702D01*
X0091162Y0147935D02*
X0090779Y0147551D01*
X0090779Y0146784D01*
X0091162Y0146400D01*
X0092697Y0146400D01*
X0093081Y0146784D01*
X0093081Y0147551D01*
X0092697Y0147935D01*
X0057681Y0153680D02*
X0057681Y0154781D01*
X0057314Y0155148D01*
X0056580Y0155148D01*
X0056213Y0154781D01*
X0056213Y0153680D01*
X0056213Y0154414D02*
X0055479Y0155148D01*
X0055846Y0155890D02*
X0056213Y0155890D01*
X0056580Y0156257D01*
X0056580Y0156991D01*
X0056213Y0157358D01*
X0055846Y0157358D01*
X0055479Y0156991D01*
X0055479Y0156257D01*
X0055846Y0155890D01*
X0056580Y0156257D02*
X0056947Y0155890D01*
X0057314Y0155890D01*
X0057681Y0156257D01*
X0057681Y0156991D01*
X0057314Y0157358D01*
X0056947Y0157358D01*
X0056580Y0156991D01*
X0055479Y0153680D02*
X0057681Y0153680D01*
X0048581Y0153224D02*
X0046379Y0153224D01*
X0046379Y0152490D02*
X0046379Y0153958D01*
X0047847Y0152490D02*
X0048581Y0153224D01*
X0048214Y0151748D02*
X0047480Y0151748D01*
X0047113Y0151381D01*
X0047113Y0150280D01*
X0046379Y0150280D02*
X0048581Y0150280D01*
X0048581Y0151381D01*
X0048214Y0151748D01*
X0048581Y0149538D02*
X0048581Y0148070D01*
X0048581Y0148804D02*
X0046379Y0148804D01*
X0049279Y0167180D02*
X0051481Y0167180D01*
X0051481Y0168281D01*
X0051114Y0168648D01*
X0050380Y0168648D01*
X0050013Y0168281D01*
X0050013Y0167180D01*
X0050013Y0167914D02*
X0049279Y0168648D01*
X0049279Y0169390D02*
X0049646Y0169390D01*
X0051114Y0170858D01*
X0051481Y0170858D01*
X0051481Y0169390D01*
X0054046Y0194680D02*
X0053679Y0195047D01*
X0053679Y0195781D01*
X0054046Y0196148D01*
X0055881Y0196148D01*
X0055514Y0196890D02*
X0055881Y0197257D01*
X0055881Y0197991D01*
X0055514Y0198358D01*
X0055147Y0198358D01*
X0053679Y0196890D01*
X0053679Y0198358D01*
X0054046Y0194680D02*
X0055881Y0194680D01*
X0058379Y0200180D02*
X0060581Y0200180D01*
X0060581Y0201281D01*
X0060214Y0201648D01*
X0059480Y0201648D01*
X0059113Y0201281D01*
X0059113Y0200180D01*
X0059113Y0200914D02*
X0058379Y0201648D01*
X0058746Y0202390D02*
X0058379Y0202757D01*
X0058379Y0203491D01*
X0058746Y0203858D01*
X0059113Y0203858D01*
X0059480Y0203491D01*
X0059480Y0202390D01*
X0058746Y0202390D01*
X0059480Y0202390D02*
X0060214Y0203124D01*
X0060581Y0203858D01*
X0064179Y0206080D02*
X0066381Y0206080D01*
X0066381Y0207181D01*
X0066014Y0207548D01*
X0065280Y0207548D01*
X0064913Y0207181D01*
X0064913Y0206080D01*
X0064913Y0206814D02*
X0064179Y0207548D01*
X0064546Y0208290D02*
X0064179Y0208657D01*
X0064179Y0209391D01*
X0064546Y0209758D01*
X0065280Y0209758D01*
X0065647Y0209391D01*
X0065647Y0209024D01*
X0065280Y0208290D01*
X0066381Y0208290D01*
X0066381Y0209758D01*
X0076979Y0211447D02*
X0076979Y0212181D01*
X0077346Y0212548D01*
X0077346Y0213290D02*
X0076979Y0213657D01*
X0076979Y0214391D01*
X0077346Y0214758D01*
X0077713Y0214758D01*
X0078080Y0214391D01*
X0078080Y0213290D01*
X0077346Y0213290D01*
X0078080Y0213290D02*
X0078814Y0214024D01*
X0079181Y0214758D01*
X0078814Y0212548D02*
X0079181Y0212181D01*
X0079181Y0211447D01*
X0078814Y0211080D01*
X0077346Y0211080D01*
X0076979Y0211447D01*
X0051081Y0220947D02*
X0050714Y0220580D01*
X0049246Y0220580D01*
X0048879Y0220947D01*
X0048879Y0221681D01*
X0049246Y0222048D01*
X0048879Y0222790D02*
X0048879Y0224258D01*
X0048879Y0223524D02*
X0051081Y0223524D01*
X0050347Y0222790D01*
X0050714Y0222048D02*
X0051081Y0221681D01*
X0051081Y0220947D01*
X0142779Y0295580D02*
X0144981Y0295580D01*
X0144981Y0296681D01*
X0144614Y0297048D01*
X0143880Y0297048D01*
X0143513Y0296681D01*
X0143513Y0295580D01*
X0143513Y0296314D02*
X0142779Y0297048D01*
X0143146Y0297790D02*
X0142779Y0298157D01*
X0142779Y0298891D01*
X0143146Y0299258D01*
X0143513Y0299258D01*
X0143880Y0298891D01*
X0143880Y0298524D01*
X0143880Y0298891D02*
X0144247Y0299258D01*
X0144614Y0299258D01*
X0144981Y0298891D01*
X0144981Y0298157D01*
X0144614Y0297790D01*
X0154733Y0298647D02*
X0156535Y0298647D01*
X0156535Y0299548D01*
X0156234Y0299848D01*
X0155634Y0299848D01*
X0155334Y0299548D01*
X0155334Y0298647D01*
X0155334Y0299248D02*
X0154733Y0299848D01*
X0155033Y0300489D02*
X0154733Y0300789D01*
X0154733Y0301390D01*
X0155033Y0301690D01*
X0155334Y0301690D01*
X0155634Y0301390D01*
X0155634Y0300789D01*
X0155934Y0300489D01*
X0156234Y0300489D01*
X0156535Y0300789D01*
X0156535Y0301390D01*
X0156234Y0301690D01*
X0156535Y0302331D02*
X0154733Y0302331D01*
X0154733Y0303532D01*
X0154733Y0304172D02*
X0156535Y0304172D01*
X0154733Y0305373D01*
X0156535Y0305373D01*
X0156234Y0306014D02*
X0155934Y0306014D01*
X0155634Y0306314D01*
X0155634Y0306914D01*
X0155334Y0307215D01*
X0155033Y0307215D01*
X0154733Y0306914D01*
X0154733Y0306314D01*
X0155033Y0306014D01*
X0156234Y0306014D02*
X0156535Y0306314D01*
X0156535Y0306914D01*
X0156234Y0307215D01*
X0156535Y0307855D02*
X0154733Y0307855D01*
X0154733Y0309056D01*
X0155634Y0308456D02*
X0155634Y0307855D01*
X0156535Y0307855D02*
X0156535Y0309056D01*
X0156535Y0303532D02*
X0156535Y0302331D01*
X0155634Y0302331D02*
X0155634Y0302931D01*
X0155484Y0287854D02*
X0156685Y0287854D01*
X0156985Y0287554D01*
X0156985Y0286653D01*
X0155183Y0286653D01*
X0155183Y0287554D01*
X0155484Y0287854D01*
X0155183Y0286013D02*
X0156985Y0286013D01*
X0156985Y0284812D02*
X0155183Y0286013D01*
X0155183Y0284812D02*
X0156985Y0284812D01*
X0156685Y0284171D02*
X0156985Y0283871D01*
X0156985Y0283271D01*
X0156685Y0282970D01*
X0155484Y0282970D01*
X0155183Y0283271D01*
X0155183Y0283871D01*
X0155484Y0284171D01*
X0156084Y0284171D01*
X0156084Y0283571D01*
X0156084Y0282330D02*
X0155784Y0282030D01*
X0155784Y0281129D01*
X0155183Y0281129D02*
X0156985Y0281129D01*
X0156985Y0282030D01*
X0156685Y0282330D01*
X0156084Y0282330D01*
X0156451Y0270276D02*
X0156451Y0268474D01*
X0155250Y0268474D01*
X0154609Y0268474D02*
X0153408Y0269675D01*
X0153408Y0269975D01*
X0153708Y0270276D01*
X0154309Y0270276D01*
X0154609Y0269975D01*
X0154609Y0268474D02*
X0153408Y0268474D01*
X0152768Y0269375D02*
X0151567Y0269375D01*
X0150926Y0269675D02*
X0150326Y0270276D01*
X0150326Y0268474D01*
X0150926Y0268474D02*
X0149725Y0268474D01*
X0149085Y0268474D02*
X0149085Y0268774D01*
X0148784Y0268774D01*
X0148784Y0268474D01*
X0149085Y0268474D01*
X0149085Y0269375D02*
X0149085Y0269675D01*
X0148784Y0269675D01*
X0148784Y0269375D01*
X0149085Y0269375D01*
X0148164Y0268774D02*
X0147863Y0268474D01*
X0147263Y0268474D01*
X0146963Y0268774D01*
X0146963Y0270276D01*
X0146322Y0269675D02*
X0145722Y0270276D01*
X0145722Y0268474D01*
X0146322Y0268474D02*
X0145121Y0268474D01*
X0148164Y0268774D02*
X0148164Y0270276D01*
X0157091Y0269975D02*
X0157392Y0270276D01*
X0157992Y0270276D01*
X0158292Y0269975D01*
X0158933Y0270276D02*
X0158933Y0269075D01*
X0159533Y0268474D01*
X0160134Y0269075D01*
X0160134Y0270276D01*
X0160774Y0269375D02*
X0161976Y0269375D01*
X0162616Y0270276D02*
X0162616Y0268474D01*
X0163817Y0268474D02*
X0163817Y0270276D01*
X0163217Y0269675D01*
X0162616Y0270276D01*
X0164458Y0269975D02*
X0164458Y0269375D01*
X0164758Y0269075D01*
X0165659Y0269075D01*
X0165659Y0268474D02*
X0165659Y0270276D01*
X0164758Y0270276D01*
X0164458Y0269975D01*
X0158292Y0268474D02*
X0157091Y0269675D01*
X0157091Y0269975D01*
X0157091Y0268474D02*
X0158292Y0268474D01*
X0173679Y0262558D02*
X0173679Y0261090D01*
X0173679Y0261824D02*
X0175881Y0261824D01*
X0175147Y0261090D01*
X0175514Y0260348D02*
X0174780Y0260348D01*
X0174413Y0259981D01*
X0174413Y0258880D01*
X0174413Y0259614D02*
X0173679Y0260348D01*
X0173679Y0258880D02*
X0175881Y0258880D01*
X0175881Y0259981D01*
X0175514Y0260348D01*
X0183679Y0258158D02*
X0183679Y0256690D01*
X0185147Y0258158D01*
X0185514Y0258158D01*
X0185881Y0257791D01*
X0185881Y0257057D01*
X0185514Y0256690D01*
X0185514Y0255948D02*
X0184780Y0255948D01*
X0184413Y0255581D01*
X0184413Y0254480D01*
X0184413Y0255214D02*
X0183679Y0255948D01*
X0183679Y0254480D02*
X0185881Y0254480D01*
X0185881Y0255581D01*
X0185514Y0255948D01*
X0197479Y0255767D02*
X0197479Y0256501D01*
X0197846Y0256868D01*
X0197846Y0257610D02*
X0197479Y0257977D01*
X0197479Y0258711D01*
X0197846Y0259078D01*
X0198213Y0259078D01*
X0198580Y0258711D01*
X0198580Y0258344D01*
X0198580Y0258711D02*
X0198947Y0259078D01*
X0199314Y0259078D01*
X0199681Y0258711D01*
X0199681Y0257977D01*
X0199314Y0257610D01*
X0199314Y0256868D02*
X0199681Y0256501D01*
X0199681Y0255767D01*
X0199314Y0255400D01*
X0197846Y0255400D01*
X0197479Y0255767D01*
X0197413Y0264580D02*
X0197413Y0265681D01*
X0197780Y0266048D01*
X0198514Y0266048D01*
X0198881Y0265681D01*
X0198881Y0264580D01*
X0196679Y0264580D01*
X0197413Y0265314D02*
X0196679Y0266048D01*
X0197780Y0266790D02*
X0197780Y0268258D01*
X0198881Y0267891D02*
X0197780Y0266790D01*
X0196679Y0267891D02*
X0198881Y0267891D01*
X0216519Y0280091D02*
X0218320Y0280091D01*
X0218320Y0280992D01*
X0218020Y0281292D01*
X0217420Y0281292D01*
X0217119Y0280992D01*
X0217119Y0280091D01*
X0216819Y0281933D02*
X0216519Y0282233D01*
X0216519Y0282834D01*
X0216819Y0283134D01*
X0217420Y0283134D01*
X0217420Y0282533D01*
X0218020Y0281933D02*
X0216819Y0281933D01*
X0218020Y0281933D02*
X0218320Y0282233D01*
X0218320Y0282834D01*
X0218020Y0283134D01*
X0218320Y0283774D02*
X0216519Y0284976D01*
X0218320Y0284976D01*
X0218320Y0285616D02*
X0218320Y0286517D01*
X0218020Y0286817D01*
X0216819Y0286817D01*
X0216519Y0286517D01*
X0216519Y0285616D01*
X0218320Y0285616D01*
X0218320Y0283774D02*
X0216519Y0283774D01*
X0220406Y0300302D02*
X0219805Y0300902D01*
X0220406Y0301503D01*
X0221607Y0301503D01*
X0221306Y0302144D02*
X0220105Y0302144D01*
X0219805Y0302444D01*
X0219805Y0303044D01*
X0220105Y0303345D01*
X0221306Y0303345D01*
X0221607Y0303044D01*
X0221607Y0302444D01*
X0221306Y0302144D01*
X0221607Y0303985D02*
X0220105Y0303985D01*
X0219805Y0304285D01*
X0219805Y0304886D01*
X0220105Y0305186D01*
X0221607Y0305186D01*
X0221607Y0305827D02*
X0221607Y0307028D01*
X0221607Y0306427D02*
X0219805Y0306427D01*
X0220406Y0300302D02*
X0221607Y0300302D01*
X0221300Y0319767D02*
X0221000Y0319767D01*
X0220700Y0320067D01*
X0220700Y0320668D01*
X0220399Y0320968D01*
X0220099Y0320968D01*
X0219799Y0320668D01*
X0219799Y0320067D01*
X0220099Y0319767D01*
X0221300Y0319767D02*
X0221600Y0320067D01*
X0221600Y0320668D01*
X0221300Y0320968D01*
X0221600Y0321609D02*
X0219799Y0321609D01*
X0220399Y0322209D01*
X0219799Y0322810D01*
X0221600Y0322810D01*
X0221000Y0323450D02*
X0221600Y0324051D01*
X0219799Y0324051D01*
X0219799Y0324651D02*
X0219799Y0323450D01*
X0182845Y0332738D02*
X0182545Y0332437D01*
X0181944Y0332437D01*
X0181644Y0332738D01*
X0181644Y0333038D01*
X0181944Y0333338D01*
X0182545Y0333338D01*
X0182845Y0333638D01*
X0182845Y0333939D01*
X0182545Y0334239D01*
X0181944Y0334239D01*
X0181644Y0333939D01*
X0181003Y0334239D02*
X0181003Y0332437D01*
X0180403Y0333038D01*
X0179802Y0332437D01*
X0179802Y0334239D01*
X0179162Y0333939D02*
X0178861Y0334239D01*
X0178261Y0334239D01*
X0177961Y0333939D01*
X0177961Y0333638D01*
X0179162Y0332437D01*
X0177961Y0332437D01*
X0159861Y0333084D02*
X0158660Y0333084D01*
X0159260Y0333084D02*
X0159260Y0334886D01*
X0159861Y0334285D01*
X0158019Y0334586D02*
X0157719Y0334886D01*
X0157118Y0334886D01*
X0156818Y0334586D01*
X0156818Y0334285D01*
X0158019Y0333084D01*
X0156818Y0333084D01*
X0156326Y0322947D02*
X0154524Y0322947D01*
X0156326Y0321746D01*
X0154524Y0321746D01*
X0154524Y0321119D02*
X0154524Y0320518D01*
X0154524Y0320819D02*
X0156326Y0320819D01*
X0156326Y0321119D02*
X0156326Y0320518D01*
X0156326Y0319878D02*
X0155125Y0319878D01*
X0154524Y0319277D01*
X0155125Y0318677D01*
X0156326Y0318677D01*
X0149679Y0317967D02*
X0149312Y0317600D01*
X0148578Y0317600D01*
X0148211Y0317967D01*
X0147469Y0317600D02*
X0146001Y0319068D01*
X0146001Y0319435D01*
X0146368Y0319802D01*
X0147102Y0319802D01*
X0147469Y0319435D01*
X0148211Y0319435D02*
X0148578Y0319802D01*
X0149312Y0319802D01*
X0149679Y0319435D01*
X0149679Y0317967D01*
X0147469Y0317600D02*
X0146001Y0317600D01*
X0173101Y0371500D02*
X0174569Y0371500D01*
X0173835Y0371500D02*
X0173835Y0373702D01*
X0174569Y0372968D01*
X0175311Y0371500D02*
X0176779Y0371500D01*
X0176779Y0373702D01*
X0178901Y0371835D02*
X0179268Y0372202D01*
X0180002Y0372202D01*
X0180369Y0371835D01*
X0178901Y0371835D02*
X0178901Y0371468D01*
X0180369Y0370000D01*
X0178901Y0370000D01*
X0181111Y0370000D02*
X0182579Y0370000D01*
X0182579Y0372202D01*
X0240346Y0268958D02*
X0239979Y0268591D01*
X0239979Y0267857D01*
X0240346Y0267490D01*
X0239979Y0266748D02*
X0239979Y0265280D01*
X0242181Y0265280D01*
X0241814Y0267490D02*
X0242181Y0267857D01*
X0242181Y0268591D01*
X0241814Y0268958D01*
X0241447Y0268958D01*
X0241080Y0268591D01*
X0240713Y0268958D01*
X0240346Y0268958D01*
X0241080Y0268591D02*
X0241080Y0268224D01*
X0256979Y0264211D02*
X0259181Y0264211D01*
X0258080Y0263110D01*
X0258080Y0264578D01*
X0258814Y0262368D02*
X0259181Y0262001D01*
X0259181Y0261267D01*
X0258814Y0260900D01*
X0257346Y0260900D01*
X0256979Y0261267D01*
X0256979Y0262001D01*
X0257346Y0262368D01*
X0258691Y0254402D02*
X0259425Y0254035D01*
X0260159Y0253301D01*
X0259058Y0253301D01*
X0258691Y0252934D01*
X0258691Y0252567D01*
X0259058Y0252200D01*
X0259792Y0252200D01*
X0260159Y0252567D01*
X0260159Y0253301D01*
X0260901Y0254402D02*
X0261635Y0254402D01*
X0261268Y0254402D02*
X0261268Y0252567D01*
X0261635Y0252200D01*
X0262002Y0252200D01*
X0262369Y0252567D01*
X0263111Y0252567D02*
X0263478Y0252200D01*
X0264212Y0252200D01*
X0264579Y0252567D01*
X0264212Y0253301D02*
X0263478Y0253301D01*
X0263111Y0252934D01*
X0263111Y0252567D01*
X0264212Y0253301D02*
X0264579Y0253668D01*
X0264579Y0254035D01*
X0264212Y0254402D01*
X0263478Y0254402D01*
X0263111Y0254035D01*
X0268379Y0259637D02*
X0268746Y0259270D01*
X0268379Y0259637D02*
X0268379Y0260371D01*
X0268746Y0260738D01*
X0269113Y0260738D01*
X0269480Y0260371D01*
X0269480Y0259637D01*
X0269847Y0259270D01*
X0270214Y0259270D01*
X0270581Y0259637D01*
X0270581Y0260371D01*
X0270214Y0260738D01*
X0270581Y0262214D02*
X0270581Y0262948D01*
X0270581Y0262581D02*
X0268746Y0262581D01*
X0268379Y0262214D01*
X0268379Y0261847D01*
X0268746Y0261480D01*
X0269480Y0263690D02*
X0269480Y0265158D01*
X0270581Y0264791D02*
X0269480Y0263690D01*
X0268379Y0264791D02*
X0270581Y0264791D01*
X0294988Y0252202D02*
X0296089Y0251101D01*
X0294621Y0251101D01*
X0294988Y0250000D02*
X0294988Y0252202D01*
X0296831Y0251835D02*
X0296831Y0251101D01*
X0297198Y0250734D01*
X0298299Y0250734D01*
X0298299Y0250000D02*
X0298299Y0252202D01*
X0297198Y0252202D01*
X0296831Y0251835D01*
X0299040Y0252202D02*
X0300508Y0252202D01*
X0299774Y0252202D02*
X0299774Y0250000D01*
X0298214Y0258370D02*
X0297847Y0258370D01*
X0297480Y0258737D01*
X0297480Y0259471D01*
X0297113Y0259838D01*
X0296746Y0259838D01*
X0296379Y0259471D01*
X0296379Y0258737D01*
X0296746Y0258370D01*
X0298214Y0258370D02*
X0298581Y0258737D01*
X0298581Y0259471D01*
X0298214Y0259838D01*
X0298581Y0261314D02*
X0298581Y0262048D01*
X0298581Y0261681D02*
X0296746Y0261681D01*
X0296379Y0261314D01*
X0296379Y0260947D01*
X0296746Y0260580D01*
X0296746Y0262790D02*
X0296379Y0263157D01*
X0296379Y0263891D01*
X0296746Y0264258D01*
X0297113Y0264258D01*
X0297480Y0263891D01*
X0297480Y0263524D01*
X0297480Y0263891D02*
X0297847Y0264258D01*
X0298214Y0264258D01*
X0298581Y0263891D01*
X0298581Y0263157D01*
X0298214Y0262790D01*
X0304501Y0200502D02*
X0305969Y0200502D01*
X0305969Y0199401D01*
X0305235Y0199768D01*
X0304868Y0199768D01*
X0304501Y0199401D01*
X0304501Y0198667D01*
X0304868Y0198300D01*
X0305602Y0198300D01*
X0305969Y0198667D01*
X0306711Y0198667D02*
X0307078Y0198300D01*
X0307812Y0198300D01*
X0308179Y0198667D01*
X0308179Y0200135D01*
X0307812Y0200502D01*
X0307078Y0200502D01*
X0306711Y0200135D01*
X0308410Y0010100D02*
X0309878Y0010100D01*
X0310245Y0009733D01*
X0310245Y0008999D01*
X0309878Y0008632D01*
X0309144Y0008632D01*
X0309144Y0009366D01*
X0308410Y0010100D02*
X0308043Y0009733D01*
X0308043Y0008999D01*
X0308410Y0008632D01*
X0308410Y0007890D02*
X0308043Y0007523D01*
X0308043Y0006789D01*
X0308410Y0006422D01*
X0308777Y0006422D01*
X0310245Y0007890D01*
X0310245Y0006422D01*
D11*
X0307079Y0005394D02*
X0307079Y0019567D01*
X0176370Y0019055D02*
X0176370Y0005394D01*
X0175579Y0005394D02*
X0175579Y0019567D01*
X0084083Y0083504D02*
X0084083Y0087268D01*
X0071083Y0087268D01*
X0071083Y0081268D01*
X0081847Y0081268D01*
X0084083Y0083504D01*
X0077697Y0103950D02*
X0078030Y0104284D01*
X0078030Y0104951D01*
X0077697Y0105284D01*
X0077363Y0105284D01*
X0077030Y0104951D01*
X0076696Y0105284D01*
X0076362Y0105284D01*
X0076029Y0104951D01*
X0076029Y0104284D01*
X0076362Y0103950D01*
X0077030Y0104617D02*
X0077030Y0104951D01*
X0076696Y0106252D02*
X0076029Y0106919D01*
X0076696Y0107586D01*
X0078030Y0107586D01*
X0077697Y0108554D02*
X0078030Y0108888D01*
X0078030Y0109555D01*
X0077697Y0109888D01*
X0077363Y0109888D01*
X0077030Y0109555D01*
X0076696Y0109888D01*
X0076362Y0109888D01*
X0076029Y0109555D01*
X0076029Y0108888D01*
X0076362Y0108554D01*
X0077030Y0109221D02*
X0077030Y0109555D01*
X0076696Y0106252D02*
X0078030Y0106252D01*
X0078130Y0113950D02*
X0077130Y0113950D01*
X0077463Y0114617D01*
X0077463Y0114951D01*
X0077130Y0115284D01*
X0076462Y0115284D01*
X0076129Y0114951D01*
X0076129Y0114284D01*
X0076462Y0113950D01*
X0078130Y0113950D02*
X0078130Y0115284D01*
X0078130Y0116252D02*
X0076796Y0116252D01*
X0076129Y0116919D01*
X0076796Y0117586D01*
X0078130Y0117586D01*
X0044870Y0019055D02*
X0044870Y0005394D01*
X0048955Y0229278D02*
X0048955Y0235030D01*
X0048955Y0238967D02*
X0048955Y0244720D01*
X0048955Y0248657D02*
X0048955Y0254409D01*
X0048955Y0258346D02*
X0048955Y0264098D01*
X0060229Y0257934D02*
X0060566Y0258036D01*
X0060905Y0258130D01*
X0061246Y0258215D01*
X0061589Y0258293D01*
X0061934Y0258363D01*
X0062281Y0258424D01*
X0062628Y0258478D01*
X0062977Y0258523D01*
X0063327Y0258560D01*
X0063678Y0258589D01*
X0064029Y0258610D01*
X0064380Y0258622D01*
X0064732Y0258626D01*
X0051136Y0249962D02*
X0050991Y0249642D01*
X0050854Y0249318D01*
X0050724Y0248991D01*
X0050602Y0248661D01*
X0050488Y0248328D01*
X0050382Y0247993D01*
X0050283Y0247655D01*
X0050193Y0247315D01*
X0050110Y0246973D01*
X0050036Y0246629D01*
X0049969Y0246284D01*
X0049911Y0245937D01*
X0049861Y0245589D01*
X0060229Y0229318D02*
X0060566Y0229216D01*
X0060905Y0229122D01*
X0061246Y0229037D01*
X0061589Y0228959D01*
X0061934Y0228889D01*
X0062281Y0228828D01*
X0062628Y0228774D01*
X0062977Y0228729D01*
X0063327Y0228692D01*
X0063678Y0228663D01*
X0064029Y0228642D01*
X0064380Y0228630D01*
X0064732Y0228626D01*
X0056671Y0230976D02*
X0056377Y0231169D01*
X0056087Y0231368D01*
X0055802Y0231574D01*
X0055522Y0231787D01*
X0055246Y0232006D01*
X0054977Y0232232D01*
X0054712Y0232463D01*
X0054453Y0232702D01*
X0054200Y0232946D01*
X0053952Y0233195D01*
X0053711Y0233451D01*
X0053475Y0233712D01*
X0053246Y0233979D01*
X0051136Y0237290D02*
X0050991Y0237610D01*
X0050854Y0237934D01*
X0050724Y0238261D01*
X0050602Y0238591D01*
X0050488Y0238924D01*
X0050382Y0239259D01*
X0050283Y0239597D01*
X0050193Y0239937D01*
X0050110Y0240279D01*
X0050036Y0240623D01*
X0049969Y0240968D01*
X0049911Y0241315D01*
X0049861Y0241663D01*
X0053246Y0253273D02*
X0053475Y0253540D01*
X0053711Y0253801D01*
X0053952Y0254057D01*
X0054200Y0254306D01*
X0054453Y0254550D01*
X0054712Y0254789D01*
X0054977Y0255020D01*
X0055246Y0255246D01*
X0055522Y0255465D01*
X0055802Y0255678D01*
X0056087Y0255884D01*
X0056377Y0256083D01*
X0056671Y0256276D01*
X0082793Y0256276D02*
X0083087Y0256083D01*
X0083377Y0255884D01*
X0083662Y0255678D01*
X0083942Y0255465D01*
X0084218Y0255246D01*
X0084487Y0255020D01*
X0084752Y0254789D01*
X0085011Y0254550D01*
X0085264Y0254306D01*
X0085512Y0254057D01*
X0085753Y0253801D01*
X0085989Y0253540D01*
X0086218Y0253273D01*
X0090205Y0254409D02*
X0090205Y0248657D01*
X0090205Y0244720D02*
X0090205Y0238967D01*
X0090205Y0235030D02*
X0090205Y0229278D01*
X0079235Y0229318D02*
X0078898Y0229216D01*
X0078559Y0229122D01*
X0078218Y0229037D01*
X0077875Y0228959D01*
X0077530Y0228889D01*
X0077183Y0228828D01*
X0076836Y0228774D01*
X0076487Y0228729D01*
X0076137Y0228692D01*
X0075786Y0228663D01*
X0075435Y0228642D01*
X0075084Y0228630D01*
X0074732Y0228626D01*
X0088328Y0237290D02*
X0088473Y0237610D01*
X0088610Y0237934D01*
X0088740Y0238261D01*
X0088862Y0238591D01*
X0088976Y0238924D01*
X0089082Y0239259D01*
X0089181Y0239597D01*
X0089271Y0239937D01*
X0089354Y0240279D01*
X0089428Y0240623D01*
X0089495Y0240968D01*
X0089553Y0241315D01*
X0089603Y0241663D01*
X0079235Y0257934D02*
X0078898Y0258036D01*
X0078559Y0258130D01*
X0078218Y0258215D01*
X0077875Y0258293D01*
X0077530Y0258363D01*
X0077183Y0258424D01*
X0076836Y0258478D01*
X0076487Y0258523D01*
X0076137Y0258560D01*
X0075786Y0258589D01*
X0075435Y0258610D01*
X0075084Y0258622D01*
X0074732Y0258626D01*
X0088328Y0249962D02*
X0088473Y0249642D01*
X0088610Y0249318D01*
X0088740Y0248991D01*
X0088862Y0248661D01*
X0088976Y0248328D01*
X0089082Y0247993D01*
X0089181Y0247655D01*
X0089271Y0247315D01*
X0089354Y0246973D01*
X0089428Y0246629D01*
X0089495Y0246284D01*
X0089553Y0245937D01*
X0089603Y0245589D01*
X0090205Y0258346D02*
X0090205Y0264098D01*
X0086218Y0233979D02*
X0085989Y0233712D01*
X0085753Y0233451D01*
X0085512Y0233195D01*
X0085264Y0232946D01*
X0085011Y0232702D01*
X0084752Y0232463D01*
X0084487Y0232232D01*
X0084218Y0232006D01*
X0083942Y0231787D01*
X0083662Y0231574D01*
X0083377Y0231368D01*
X0083087Y0231169D01*
X0082793Y0230976D01*
X0139533Y0332994D02*
X0139533Y0333076D01*
X0134809Y0337800D01*
X0139533Y0332994D02*
X0144047Y0332994D01*
X0147984Y0332994D02*
X0152497Y0332994D01*
X0156434Y0332994D02*
X0160948Y0332994D01*
X0164885Y0332994D02*
X0169398Y0332994D01*
X0169546Y0332996D01*
X0169694Y0333002D01*
X0169842Y0333012D01*
X0169990Y0333026D01*
X0170137Y0333043D01*
X0170284Y0333065D01*
X0170430Y0333090D01*
X0170575Y0333120D01*
X0170719Y0333153D01*
X0170863Y0333190D01*
X0171005Y0333231D01*
X0171147Y0333276D01*
X0171287Y0333324D01*
X0171426Y0333376D01*
X0171563Y0333432D01*
X0171699Y0333492D01*
X0171833Y0333555D01*
X0171965Y0333621D01*
X0172096Y0333691D01*
X0172225Y0333765D01*
X0172351Y0333842D01*
X0172476Y0333922D01*
X0172598Y0334006D01*
X0172719Y0334093D01*
X0172836Y0334182D01*
X0172952Y0334276D01*
X0173065Y0334372D01*
X0173175Y0334471D01*
X0173282Y0334573D01*
X0173387Y0334678D01*
X0173489Y0334785D01*
X0173588Y0334895D01*
X0173684Y0335008D01*
X0173778Y0335124D01*
X0173867Y0335241D01*
X0173954Y0335362D01*
X0174038Y0335484D01*
X0174118Y0335609D01*
X0174195Y0335735D01*
X0174269Y0335864D01*
X0174339Y0335995D01*
X0174405Y0336127D01*
X0174468Y0336261D01*
X0174528Y0336397D01*
X0174584Y0336534D01*
X0174636Y0336673D01*
X0174684Y0336813D01*
X0174729Y0336955D01*
X0174770Y0337097D01*
X0174807Y0337241D01*
X0174840Y0337385D01*
X0174870Y0337530D01*
X0174895Y0337676D01*
X0174917Y0337823D01*
X0174934Y0337970D01*
X0174948Y0338118D01*
X0174958Y0338266D01*
X0174964Y0338414D01*
X0174966Y0338562D01*
X0180846Y0337836D02*
X0185571Y0333112D01*
X0185571Y0333031D01*
X0190084Y0333031D01*
X0194021Y0333031D02*
X0198535Y0333031D01*
X0202472Y0333031D02*
X0206986Y0333031D01*
X0210923Y0333031D02*
X0215436Y0333031D01*
X0215436Y0333030D02*
X0215584Y0333032D01*
X0215732Y0333038D01*
X0215880Y0333048D01*
X0216028Y0333062D01*
X0216175Y0333079D01*
X0216322Y0333101D01*
X0216468Y0333126D01*
X0216613Y0333156D01*
X0216757Y0333189D01*
X0216901Y0333226D01*
X0217043Y0333267D01*
X0217185Y0333312D01*
X0217325Y0333360D01*
X0217464Y0333412D01*
X0217601Y0333468D01*
X0217737Y0333528D01*
X0217871Y0333591D01*
X0218003Y0333657D01*
X0218134Y0333727D01*
X0218263Y0333801D01*
X0218389Y0333878D01*
X0218514Y0333958D01*
X0218636Y0334042D01*
X0218757Y0334129D01*
X0218874Y0334218D01*
X0218990Y0334312D01*
X0219103Y0334408D01*
X0219213Y0334507D01*
X0219320Y0334609D01*
X0219425Y0334714D01*
X0219527Y0334821D01*
X0219626Y0334931D01*
X0219722Y0335044D01*
X0219816Y0335160D01*
X0219905Y0335277D01*
X0219992Y0335398D01*
X0220076Y0335520D01*
X0220156Y0335645D01*
X0220233Y0335771D01*
X0220307Y0335900D01*
X0220377Y0336031D01*
X0220443Y0336163D01*
X0220506Y0336297D01*
X0220566Y0336433D01*
X0220622Y0336570D01*
X0220674Y0336709D01*
X0220722Y0336849D01*
X0220767Y0336991D01*
X0220808Y0337133D01*
X0220845Y0337277D01*
X0220878Y0337421D01*
X0220908Y0337566D01*
X0220933Y0337712D01*
X0220955Y0337859D01*
X0220972Y0338006D01*
X0220986Y0338154D01*
X0220996Y0338302D01*
X0221002Y0338450D01*
X0221004Y0338598D01*
X0221004Y0368464D02*
X0217067Y0372401D01*
X0212502Y0372401D01*
X0208565Y0372401D02*
X0204000Y0372401D01*
X0200063Y0372401D02*
X0195498Y0372401D01*
X0191561Y0372401D02*
X0186996Y0372401D01*
X0186555Y0372401D02*
X0180650Y0366495D01*
X0174966Y0368428D02*
X0171029Y0372365D01*
X0166464Y0372365D01*
X0162527Y0372365D02*
X0157962Y0372365D01*
X0154025Y0372365D02*
X0149460Y0372365D01*
X0145523Y0372365D02*
X0140958Y0372365D01*
X0140517Y0372365D02*
X0134612Y0366459D01*
X0266100Y0241563D02*
X0266100Y0235811D01*
X0266100Y0231874D02*
X0266100Y0226121D01*
X0266100Y0222184D02*
X0266100Y0216432D01*
X0266100Y0212495D02*
X0266100Y0206743D01*
X0277375Y0206783D02*
X0277712Y0206681D01*
X0278051Y0206587D01*
X0278392Y0206502D01*
X0278735Y0206424D01*
X0279080Y0206354D01*
X0279427Y0206293D01*
X0279774Y0206239D01*
X0280123Y0206194D01*
X0280473Y0206157D01*
X0280824Y0206128D01*
X0281175Y0206107D01*
X0281526Y0206095D01*
X0281878Y0206091D01*
X0273817Y0208441D02*
X0273523Y0208634D01*
X0273233Y0208833D01*
X0272948Y0209039D01*
X0272668Y0209252D01*
X0272392Y0209471D01*
X0272123Y0209697D01*
X0271858Y0209928D01*
X0271599Y0210167D01*
X0271346Y0210411D01*
X0271098Y0210660D01*
X0270857Y0210916D01*
X0270621Y0211177D01*
X0270392Y0211444D01*
X0268282Y0214755D02*
X0268137Y0215075D01*
X0268000Y0215399D01*
X0267870Y0215726D01*
X0267748Y0216056D01*
X0267634Y0216389D01*
X0267528Y0216724D01*
X0267429Y0217062D01*
X0267339Y0217402D01*
X0267256Y0217744D01*
X0267182Y0218088D01*
X0267115Y0218433D01*
X0267057Y0218780D01*
X0267007Y0219128D01*
X0277375Y0235399D02*
X0277712Y0235501D01*
X0278051Y0235595D01*
X0278392Y0235680D01*
X0278735Y0235758D01*
X0279080Y0235828D01*
X0279427Y0235889D01*
X0279774Y0235943D01*
X0280123Y0235988D01*
X0280473Y0236025D01*
X0280824Y0236054D01*
X0281175Y0236075D01*
X0281526Y0236087D01*
X0281878Y0236091D01*
X0268282Y0227427D02*
X0268137Y0227107D01*
X0268000Y0226783D01*
X0267870Y0226456D01*
X0267748Y0226126D01*
X0267634Y0225793D01*
X0267528Y0225458D01*
X0267429Y0225120D01*
X0267339Y0224780D01*
X0267256Y0224438D01*
X0267182Y0224094D01*
X0267115Y0223749D01*
X0267057Y0223402D01*
X0267007Y0223054D01*
X0270392Y0230738D02*
X0270621Y0231005D01*
X0270857Y0231266D01*
X0271098Y0231522D01*
X0271346Y0231771D01*
X0271599Y0232015D01*
X0271858Y0232254D01*
X0272123Y0232485D01*
X0272392Y0232711D01*
X0272668Y0232930D01*
X0272948Y0233143D01*
X0273233Y0233349D01*
X0273523Y0233548D01*
X0273817Y0233741D01*
X0299939Y0233741D02*
X0300233Y0233548D01*
X0300523Y0233349D01*
X0300808Y0233143D01*
X0301088Y0232930D01*
X0301364Y0232711D01*
X0301633Y0232485D01*
X0301898Y0232254D01*
X0302157Y0232015D01*
X0302410Y0231771D01*
X0302658Y0231522D01*
X0302899Y0231266D01*
X0303135Y0231005D01*
X0303364Y0230738D01*
X0307350Y0231874D02*
X0307350Y0226121D01*
X0307350Y0222184D02*
X0307350Y0216432D01*
X0307350Y0212495D02*
X0307350Y0206743D01*
X0296381Y0206783D02*
X0296044Y0206681D01*
X0295705Y0206587D01*
X0295364Y0206502D01*
X0295021Y0206424D01*
X0294676Y0206354D01*
X0294329Y0206293D01*
X0293982Y0206239D01*
X0293633Y0206194D01*
X0293283Y0206157D01*
X0292932Y0206128D01*
X0292581Y0206107D01*
X0292230Y0206095D01*
X0291878Y0206091D01*
X0305474Y0214755D02*
X0305619Y0215075D01*
X0305756Y0215399D01*
X0305886Y0215726D01*
X0306008Y0216056D01*
X0306122Y0216389D01*
X0306228Y0216724D01*
X0306327Y0217062D01*
X0306417Y0217402D01*
X0306500Y0217744D01*
X0306574Y0218088D01*
X0306641Y0218433D01*
X0306699Y0218780D01*
X0306749Y0219128D01*
X0296381Y0235399D02*
X0296044Y0235501D01*
X0295705Y0235595D01*
X0295364Y0235680D01*
X0295021Y0235758D01*
X0294676Y0235828D01*
X0294329Y0235889D01*
X0293982Y0235943D01*
X0293633Y0235988D01*
X0293283Y0236025D01*
X0292932Y0236054D01*
X0292581Y0236075D01*
X0292230Y0236087D01*
X0291878Y0236091D01*
X0305474Y0227427D02*
X0305619Y0227107D01*
X0305756Y0226783D01*
X0305886Y0226456D01*
X0306008Y0226126D01*
X0306122Y0225793D01*
X0306228Y0225458D01*
X0306327Y0225120D01*
X0306417Y0224780D01*
X0306500Y0224438D01*
X0306574Y0224094D01*
X0306641Y0223749D01*
X0306699Y0223402D01*
X0306749Y0223054D01*
X0307350Y0235811D02*
X0307350Y0241563D01*
X0303364Y0211444D02*
X0303135Y0211177D01*
X0302899Y0210916D01*
X0302658Y0210660D01*
X0302410Y0210411D01*
X0302157Y0210167D01*
X0301898Y0209928D01*
X0301633Y0209697D01*
X0301364Y0209471D01*
X0301088Y0209252D01*
X0300808Y0209039D01*
X0300523Y0208833D01*
X0300233Y0208634D01*
X0299939Y0208441D01*
D12*
X0005646Y0059798D02*
X0005646Y0012874D01*
X0005648Y0012684D01*
X0005655Y0012494D01*
X0005667Y0012304D01*
X0005683Y0012114D01*
X0005703Y0011925D01*
X0005729Y0011736D01*
X0005758Y0011548D01*
X0005793Y0011361D01*
X0005832Y0011175D01*
X0005875Y0010990D01*
X0005923Y0010805D01*
X0005975Y0010622D01*
X0006031Y0010441D01*
X0006092Y0010261D01*
X0006158Y0010082D01*
X0006227Y0009905D01*
X0006301Y0009729D01*
X0006379Y0009556D01*
X0006462Y0009384D01*
X0006548Y0009215D01*
X0006638Y0009047D01*
X0006733Y0008882D01*
X0006831Y0008719D01*
X0006934Y0008559D01*
X0007040Y0008401D01*
X0007150Y0008246D01*
X0007263Y0008093D01*
X0007381Y0007943D01*
X0007502Y0007797D01*
X0007626Y0007653D01*
X0007754Y0007512D01*
X0007885Y0007374D01*
X0008020Y0007239D01*
X0008158Y0007108D01*
X0008299Y0006980D01*
X0008443Y0006856D01*
X0008589Y0006735D01*
X0008739Y0006617D01*
X0008892Y0006504D01*
X0009047Y0006394D01*
X0009205Y0006288D01*
X0009365Y0006185D01*
X0009528Y0006087D01*
X0009693Y0005992D01*
X0009861Y0005902D01*
X0010030Y0005816D01*
X0010202Y0005733D01*
X0010375Y0005655D01*
X0010551Y0005581D01*
X0010728Y0005512D01*
X0010907Y0005446D01*
X0011087Y0005385D01*
X0011268Y0005329D01*
X0011451Y0005277D01*
X0011636Y0005229D01*
X0011821Y0005186D01*
X0012007Y0005147D01*
X0012194Y0005112D01*
X0012382Y0005083D01*
X0012571Y0005057D01*
X0012760Y0005037D01*
X0012950Y0005021D01*
X0013140Y0005009D01*
X0013330Y0005002D01*
X0013520Y0005000D01*
X0351511Y0005000D01*
X0351511Y0059798D01*
X0351509Y0059875D01*
X0351503Y0059952D01*
X0351493Y0060029D01*
X0351480Y0060105D01*
X0351462Y0060181D01*
X0351441Y0060255D01*
X0351416Y0060328D01*
X0351387Y0060400D01*
X0351355Y0060470D01*
X0351319Y0060539D01*
X0351280Y0060606D01*
X0351237Y0060670D01*
X0351192Y0060733D01*
X0351143Y0060793D01*
X0351091Y0060850D01*
X0351036Y0060905D01*
X0350979Y0060957D01*
X0350919Y0061006D01*
X0350856Y0061051D01*
X0350792Y0061094D01*
X0350725Y0061133D01*
X0350656Y0061169D01*
X0350586Y0061201D01*
X0350514Y0061230D01*
X0350441Y0061255D01*
X0350367Y0061276D01*
X0350291Y0061294D01*
X0350215Y0061307D01*
X0350138Y0061317D01*
X0350061Y0061323D01*
X0349984Y0061325D01*
X0314009Y0061325D01*
X0314009Y0328010D01*
X0324146Y0328010D01*
X0324146Y0308325D01*
X0351512Y0308325D01*
X0351512Y0313205D01*
X0351512Y0379016D01*
X0298697Y0379016D01*
X0298697Y0272717D01*
X0225760Y0272717D01*
X0225760Y0371142D01*
X0225758Y0371266D01*
X0225752Y0371389D01*
X0225743Y0371513D01*
X0225729Y0371635D01*
X0225712Y0371758D01*
X0225690Y0371880D01*
X0225665Y0372001D01*
X0225636Y0372121D01*
X0225604Y0372240D01*
X0225567Y0372359D01*
X0225527Y0372476D01*
X0225484Y0372591D01*
X0225436Y0372706D01*
X0225385Y0372818D01*
X0225331Y0372929D01*
X0225273Y0373039D01*
X0225212Y0373146D01*
X0225147Y0373252D01*
X0225079Y0373355D01*
X0225008Y0373456D01*
X0224934Y0373555D01*
X0224857Y0373652D01*
X0224776Y0373746D01*
X0224693Y0373837D01*
X0224607Y0373926D01*
X0224518Y0374012D01*
X0224427Y0374095D01*
X0224333Y0374176D01*
X0224236Y0374253D01*
X0224137Y0374327D01*
X0224036Y0374398D01*
X0223933Y0374466D01*
X0223827Y0374531D01*
X0223720Y0374592D01*
X0223610Y0374650D01*
X0223499Y0374704D01*
X0223387Y0374755D01*
X0223272Y0374803D01*
X0223157Y0374846D01*
X0223040Y0374886D01*
X0222921Y0374923D01*
X0222802Y0374955D01*
X0222682Y0374984D01*
X0222561Y0375009D01*
X0222439Y0375031D01*
X0222316Y0375048D01*
X0222194Y0375062D01*
X0222070Y0375071D01*
X0221947Y0375077D01*
X0221823Y0375079D01*
X0136201Y0375079D01*
X0136077Y0375077D01*
X0135954Y0375071D01*
X0135830Y0375062D01*
X0135708Y0375048D01*
X0135585Y0375031D01*
X0135463Y0375009D01*
X0135342Y0374984D01*
X0135222Y0374955D01*
X0135103Y0374923D01*
X0134984Y0374886D01*
X0134867Y0374846D01*
X0134752Y0374803D01*
X0134637Y0374755D01*
X0134525Y0374704D01*
X0134414Y0374650D01*
X0134304Y0374592D01*
X0134197Y0374531D01*
X0134091Y0374466D01*
X0133988Y0374398D01*
X0133887Y0374327D01*
X0133788Y0374253D01*
X0133691Y0374176D01*
X0133597Y0374095D01*
X0133506Y0374012D01*
X0133417Y0373926D01*
X0133331Y0373837D01*
X0133248Y0373746D01*
X0133167Y0373652D01*
X0133090Y0373555D01*
X0133016Y0373456D01*
X0132945Y0373355D01*
X0132877Y0373252D01*
X0132812Y0373146D01*
X0132751Y0373039D01*
X0132693Y0372929D01*
X0132639Y0372818D01*
X0132588Y0372706D01*
X0132540Y0372591D01*
X0132497Y0372476D01*
X0132457Y0372359D01*
X0132420Y0372240D01*
X0132388Y0372121D01*
X0132359Y0372001D01*
X0132334Y0371880D01*
X0132312Y0371758D01*
X0132295Y0371635D01*
X0132281Y0371513D01*
X0132272Y0371389D01*
X0132266Y0371266D01*
X0132264Y0371142D01*
X0132264Y0272717D01*
X0059051Y0272717D01*
X0059051Y0379016D01*
X0005646Y0379016D01*
X0005646Y0308325D01*
X0033268Y0308325D01*
X0033268Y0328010D01*
X0043406Y0328010D01*
X0043406Y0061325D01*
X0007173Y0061325D01*
X0007096Y0061323D01*
X0007019Y0061317D01*
X0006942Y0061307D01*
X0006866Y0061294D01*
X0006790Y0061276D01*
X0006716Y0061255D01*
X0006643Y0061230D01*
X0006571Y0061201D01*
X0006501Y0061169D01*
X0006432Y0061133D01*
X0006365Y0061094D01*
X0006301Y0061051D01*
X0006238Y0061006D01*
X0006178Y0060957D01*
X0006121Y0060905D01*
X0006066Y0060850D01*
X0006014Y0060793D01*
X0005965Y0060733D01*
X0005920Y0060670D01*
X0005877Y0060606D01*
X0005838Y0060539D01*
X0005802Y0060470D01*
X0005770Y0060400D01*
X0005741Y0060328D01*
X0005716Y0060255D01*
X0005695Y0060181D01*
X0005677Y0060105D01*
X0005664Y0060029D01*
X0005654Y0059952D01*
X0005648Y0059875D01*
X0005646Y0059798D01*
X0048595Y0065846D02*
X0048597Y0065949D01*
X0048603Y0066052D01*
X0048613Y0066154D01*
X0048627Y0066257D01*
X0048645Y0066358D01*
X0048667Y0066459D01*
X0048692Y0066559D01*
X0048722Y0066657D01*
X0048755Y0066755D01*
X0048792Y0066851D01*
X0048833Y0066945D01*
X0048878Y0067038D01*
X0048926Y0067130D01*
X0048977Y0067219D01*
X0049032Y0067306D01*
X0049090Y0067391D01*
X0049152Y0067474D01*
X0049217Y0067554D01*
X0049284Y0067632D01*
X0049355Y0067706D01*
X0049429Y0067779D01*
X0049505Y0067848D01*
X0049584Y0067914D01*
X0049665Y0067977D01*
X0049749Y0068037D01*
X0049835Y0068094D01*
X0049923Y0068147D01*
X0050014Y0068197D01*
X0050106Y0068243D01*
X0050200Y0068286D01*
X0050295Y0068325D01*
X0050392Y0068360D01*
X0050490Y0068391D01*
X0050589Y0068419D01*
X0050690Y0068443D01*
X0050791Y0068463D01*
X0050892Y0068479D01*
X0050995Y0068491D01*
X0051098Y0068499D01*
X0051200Y0068503D01*
X0051304Y0068503D01*
X0051406Y0068499D01*
X0051509Y0068491D01*
X0051612Y0068479D01*
X0051713Y0068463D01*
X0051814Y0068443D01*
X0051915Y0068419D01*
X0052014Y0068391D01*
X0052112Y0068360D01*
X0052209Y0068325D01*
X0052304Y0068286D01*
X0052398Y0068243D01*
X0052490Y0068197D01*
X0052580Y0068147D01*
X0052669Y0068094D01*
X0052755Y0068037D01*
X0052839Y0067977D01*
X0052920Y0067914D01*
X0052999Y0067848D01*
X0053075Y0067779D01*
X0053149Y0067706D01*
X0053220Y0067632D01*
X0053287Y0067554D01*
X0053352Y0067474D01*
X0053414Y0067391D01*
X0053472Y0067306D01*
X0053527Y0067219D01*
X0053578Y0067130D01*
X0053626Y0067038D01*
X0053671Y0066945D01*
X0053712Y0066851D01*
X0053749Y0066755D01*
X0053782Y0066657D01*
X0053812Y0066559D01*
X0053837Y0066459D01*
X0053859Y0066358D01*
X0053877Y0066257D01*
X0053891Y0066154D01*
X0053901Y0066052D01*
X0053907Y0065949D01*
X0053909Y0065846D01*
X0053907Y0065743D01*
X0053901Y0065640D01*
X0053891Y0065538D01*
X0053877Y0065435D01*
X0053859Y0065334D01*
X0053837Y0065233D01*
X0053812Y0065133D01*
X0053782Y0065035D01*
X0053749Y0064937D01*
X0053712Y0064841D01*
X0053671Y0064747D01*
X0053626Y0064654D01*
X0053578Y0064562D01*
X0053527Y0064473D01*
X0053472Y0064386D01*
X0053414Y0064301D01*
X0053352Y0064218D01*
X0053287Y0064138D01*
X0053220Y0064060D01*
X0053149Y0063986D01*
X0053075Y0063913D01*
X0052999Y0063844D01*
X0052920Y0063778D01*
X0052839Y0063715D01*
X0052755Y0063655D01*
X0052669Y0063598D01*
X0052581Y0063545D01*
X0052490Y0063495D01*
X0052398Y0063449D01*
X0052304Y0063406D01*
X0052209Y0063367D01*
X0052112Y0063332D01*
X0052014Y0063301D01*
X0051915Y0063273D01*
X0051814Y0063249D01*
X0051713Y0063229D01*
X0051612Y0063213D01*
X0051509Y0063201D01*
X0051406Y0063193D01*
X0051304Y0063189D01*
X0051200Y0063189D01*
X0051098Y0063193D01*
X0050995Y0063201D01*
X0050892Y0063213D01*
X0050791Y0063229D01*
X0050690Y0063249D01*
X0050589Y0063273D01*
X0050490Y0063301D01*
X0050392Y0063332D01*
X0050295Y0063367D01*
X0050200Y0063406D01*
X0050106Y0063449D01*
X0050014Y0063495D01*
X0049924Y0063545D01*
X0049835Y0063598D01*
X0049749Y0063655D01*
X0049665Y0063715D01*
X0049584Y0063778D01*
X0049505Y0063844D01*
X0049429Y0063913D01*
X0049355Y0063986D01*
X0049284Y0064060D01*
X0049217Y0064138D01*
X0049152Y0064218D01*
X0049090Y0064301D01*
X0049032Y0064386D01*
X0048977Y0064473D01*
X0048926Y0064562D01*
X0048878Y0064654D01*
X0048833Y0064747D01*
X0048792Y0064841D01*
X0048755Y0064937D01*
X0048722Y0065035D01*
X0048692Y0065133D01*
X0048667Y0065233D01*
X0048645Y0065334D01*
X0048627Y0065435D01*
X0048613Y0065538D01*
X0048603Y0065640D01*
X0048597Y0065743D01*
X0048595Y0065846D01*
X0048595Y0080563D02*
X0048597Y0080666D01*
X0048603Y0080769D01*
X0048613Y0080871D01*
X0048627Y0080974D01*
X0048645Y0081075D01*
X0048667Y0081176D01*
X0048692Y0081276D01*
X0048722Y0081374D01*
X0048755Y0081472D01*
X0048792Y0081568D01*
X0048833Y0081662D01*
X0048878Y0081755D01*
X0048926Y0081847D01*
X0048977Y0081936D01*
X0049032Y0082023D01*
X0049090Y0082108D01*
X0049152Y0082191D01*
X0049217Y0082271D01*
X0049284Y0082349D01*
X0049355Y0082423D01*
X0049429Y0082496D01*
X0049505Y0082565D01*
X0049584Y0082631D01*
X0049665Y0082694D01*
X0049749Y0082754D01*
X0049835Y0082811D01*
X0049923Y0082864D01*
X0050014Y0082914D01*
X0050106Y0082960D01*
X0050200Y0083003D01*
X0050295Y0083042D01*
X0050392Y0083077D01*
X0050490Y0083108D01*
X0050589Y0083136D01*
X0050690Y0083160D01*
X0050791Y0083180D01*
X0050892Y0083196D01*
X0050995Y0083208D01*
X0051098Y0083216D01*
X0051200Y0083220D01*
X0051304Y0083220D01*
X0051406Y0083216D01*
X0051509Y0083208D01*
X0051612Y0083196D01*
X0051713Y0083180D01*
X0051814Y0083160D01*
X0051915Y0083136D01*
X0052014Y0083108D01*
X0052112Y0083077D01*
X0052209Y0083042D01*
X0052304Y0083003D01*
X0052398Y0082960D01*
X0052490Y0082914D01*
X0052580Y0082864D01*
X0052669Y0082811D01*
X0052755Y0082754D01*
X0052839Y0082694D01*
X0052920Y0082631D01*
X0052999Y0082565D01*
X0053075Y0082496D01*
X0053149Y0082423D01*
X0053220Y0082349D01*
X0053287Y0082271D01*
X0053352Y0082191D01*
X0053414Y0082108D01*
X0053472Y0082023D01*
X0053527Y0081936D01*
X0053578Y0081847D01*
X0053626Y0081755D01*
X0053671Y0081662D01*
X0053712Y0081568D01*
X0053749Y0081472D01*
X0053782Y0081374D01*
X0053812Y0081276D01*
X0053837Y0081176D01*
X0053859Y0081075D01*
X0053877Y0080974D01*
X0053891Y0080871D01*
X0053901Y0080769D01*
X0053907Y0080666D01*
X0053909Y0080563D01*
X0053907Y0080460D01*
X0053901Y0080357D01*
X0053891Y0080255D01*
X0053877Y0080152D01*
X0053859Y0080051D01*
X0053837Y0079950D01*
X0053812Y0079850D01*
X0053782Y0079752D01*
X0053749Y0079654D01*
X0053712Y0079558D01*
X0053671Y0079464D01*
X0053626Y0079371D01*
X0053578Y0079279D01*
X0053527Y0079190D01*
X0053472Y0079103D01*
X0053414Y0079018D01*
X0053352Y0078935D01*
X0053287Y0078855D01*
X0053220Y0078777D01*
X0053149Y0078703D01*
X0053075Y0078630D01*
X0052999Y0078561D01*
X0052920Y0078495D01*
X0052839Y0078432D01*
X0052755Y0078372D01*
X0052669Y0078315D01*
X0052581Y0078262D01*
X0052490Y0078212D01*
X0052398Y0078166D01*
X0052304Y0078123D01*
X0052209Y0078084D01*
X0052112Y0078049D01*
X0052014Y0078018D01*
X0051915Y0077990D01*
X0051814Y0077966D01*
X0051713Y0077946D01*
X0051612Y0077930D01*
X0051509Y0077918D01*
X0051406Y0077910D01*
X0051304Y0077906D01*
X0051200Y0077906D01*
X0051098Y0077910D01*
X0050995Y0077918D01*
X0050892Y0077930D01*
X0050791Y0077946D01*
X0050690Y0077966D01*
X0050589Y0077990D01*
X0050490Y0078018D01*
X0050392Y0078049D01*
X0050295Y0078084D01*
X0050200Y0078123D01*
X0050106Y0078166D01*
X0050014Y0078212D01*
X0049924Y0078262D01*
X0049835Y0078315D01*
X0049749Y0078372D01*
X0049665Y0078432D01*
X0049584Y0078495D01*
X0049505Y0078561D01*
X0049429Y0078630D01*
X0049355Y0078703D01*
X0049284Y0078777D01*
X0049217Y0078855D01*
X0049152Y0078935D01*
X0049090Y0079018D01*
X0049032Y0079103D01*
X0048977Y0079190D01*
X0048926Y0079279D01*
X0048878Y0079371D01*
X0048833Y0079464D01*
X0048792Y0079558D01*
X0048755Y0079654D01*
X0048722Y0079752D01*
X0048692Y0079850D01*
X0048667Y0079950D01*
X0048645Y0080051D01*
X0048627Y0080152D01*
X0048613Y0080255D01*
X0048603Y0080357D01*
X0048597Y0080460D01*
X0048595Y0080563D01*
X0096555Y0069961D02*
X0261193Y0069961D01*
X0261193Y0246321D01*
X0096555Y0246321D01*
X0096555Y0069961D01*
X0110224Y0013661D02*
X0110224Y0011693D01*
X0241724Y0011693D02*
X0241724Y0013661D01*
X0304083Y0065846D02*
X0304085Y0065949D01*
X0304091Y0066052D01*
X0304101Y0066154D01*
X0304115Y0066257D01*
X0304133Y0066358D01*
X0304155Y0066459D01*
X0304180Y0066559D01*
X0304210Y0066657D01*
X0304243Y0066755D01*
X0304280Y0066851D01*
X0304321Y0066945D01*
X0304366Y0067038D01*
X0304414Y0067130D01*
X0304465Y0067219D01*
X0304520Y0067306D01*
X0304578Y0067391D01*
X0304640Y0067474D01*
X0304705Y0067554D01*
X0304772Y0067632D01*
X0304843Y0067706D01*
X0304917Y0067779D01*
X0304993Y0067848D01*
X0305072Y0067914D01*
X0305153Y0067977D01*
X0305237Y0068037D01*
X0305323Y0068094D01*
X0305411Y0068147D01*
X0305502Y0068197D01*
X0305594Y0068243D01*
X0305688Y0068286D01*
X0305783Y0068325D01*
X0305880Y0068360D01*
X0305978Y0068391D01*
X0306077Y0068419D01*
X0306178Y0068443D01*
X0306279Y0068463D01*
X0306380Y0068479D01*
X0306483Y0068491D01*
X0306586Y0068499D01*
X0306688Y0068503D01*
X0306792Y0068503D01*
X0306894Y0068499D01*
X0306997Y0068491D01*
X0307100Y0068479D01*
X0307201Y0068463D01*
X0307302Y0068443D01*
X0307403Y0068419D01*
X0307502Y0068391D01*
X0307600Y0068360D01*
X0307697Y0068325D01*
X0307792Y0068286D01*
X0307886Y0068243D01*
X0307978Y0068197D01*
X0308068Y0068147D01*
X0308157Y0068094D01*
X0308243Y0068037D01*
X0308327Y0067977D01*
X0308408Y0067914D01*
X0308487Y0067848D01*
X0308563Y0067779D01*
X0308637Y0067706D01*
X0308708Y0067632D01*
X0308775Y0067554D01*
X0308840Y0067474D01*
X0308902Y0067391D01*
X0308960Y0067306D01*
X0309015Y0067219D01*
X0309066Y0067130D01*
X0309114Y0067038D01*
X0309159Y0066945D01*
X0309200Y0066851D01*
X0309237Y0066755D01*
X0309270Y0066657D01*
X0309300Y0066559D01*
X0309325Y0066459D01*
X0309347Y0066358D01*
X0309365Y0066257D01*
X0309379Y0066154D01*
X0309389Y0066052D01*
X0309395Y0065949D01*
X0309397Y0065846D01*
X0309395Y0065743D01*
X0309389Y0065640D01*
X0309379Y0065538D01*
X0309365Y0065435D01*
X0309347Y0065334D01*
X0309325Y0065233D01*
X0309300Y0065133D01*
X0309270Y0065035D01*
X0309237Y0064937D01*
X0309200Y0064841D01*
X0309159Y0064747D01*
X0309114Y0064654D01*
X0309066Y0064562D01*
X0309015Y0064473D01*
X0308960Y0064386D01*
X0308902Y0064301D01*
X0308840Y0064218D01*
X0308775Y0064138D01*
X0308708Y0064060D01*
X0308637Y0063986D01*
X0308563Y0063913D01*
X0308487Y0063844D01*
X0308408Y0063778D01*
X0308327Y0063715D01*
X0308243Y0063655D01*
X0308157Y0063598D01*
X0308069Y0063545D01*
X0307978Y0063495D01*
X0307886Y0063449D01*
X0307792Y0063406D01*
X0307697Y0063367D01*
X0307600Y0063332D01*
X0307502Y0063301D01*
X0307403Y0063273D01*
X0307302Y0063249D01*
X0307201Y0063229D01*
X0307100Y0063213D01*
X0306997Y0063201D01*
X0306894Y0063193D01*
X0306792Y0063189D01*
X0306688Y0063189D01*
X0306586Y0063193D01*
X0306483Y0063201D01*
X0306380Y0063213D01*
X0306279Y0063229D01*
X0306178Y0063249D01*
X0306077Y0063273D01*
X0305978Y0063301D01*
X0305880Y0063332D01*
X0305783Y0063367D01*
X0305688Y0063406D01*
X0305594Y0063449D01*
X0305502Y0063495D01*
X0305412Y0063545D01*
X0305323Y0063598D01*
X0305237Y0063655D01*
X0305153Y0063715D01*
X0305072Y0063778D01*
X0304993Y0063844D01*
X0304917Y0063913D01*
X0304843Y0063986D01*
X0304772Y0064060D01*
X0304705Y0064138D01*
X0304640Y0064218D01*
X0304578Y0064301D01*
X0304520Y0064386D01*
X0304465Y0064473D01*
X0304414Y0064562D01*
X0304366Y0064654D01*
X0304321Y0064747D01*
X0304280Y0064841D01*
X0304243Y0064937D01*
X0304210Y0065035D01*
X0304180Y0065133D01*
X0304155Y0065233D01*
X0304133Y0065334D01*
X0304115Y0065435D01*
X0304101Y0065538D01*
X0304091Y0065640D01*
X0304085Y0065743D01*
X0304083Y0065846D01*
X0304083Y0080563D02*
X0304085Y0080666D01*
X0304091Y0080769D01*
X0304101Y0080871D01*
X0304115Y0080974D01*
X0304133Y0081075D01*
X0304155Y0081176D01*
X0304180Y0081276D01*
X0304210Y0081374D01*
X0304243Y0081472D01*
X0304280Y0081568D01*
X0304321Y0081662D01*
X0304366Y0081755D01*
X0304414Y0081847D01*
X0304465Y0081936D01*
X0304520Y0082023D01*
X0304578Y0082108D01*
X0304640Y0082191D01*
X0304705Y0082271D01*
X0304772Y0082349D01*
X0304843Y0082423D01*
X0304917Y0082496D01*
X0304993Y0082565D01*
X0305072Y0082631D01*
X0305153Y0082694D01*
X0305237Y0082754D01*
X0305323Y0082811D01*
X0305411Y0082864D01*
X0305502Y0082914D01*
X0305594Y0082960D01*
X0305688Y0083003D01*
X0305783Y0083042D01*
X0305880Y0083077D01*
X0305978Y0083108D01*
X0306077Y0083136D01*
X0306178Y0083160D01*
X0306279Y0083180D01*
X0306380Y0083196D01*
X0306483Y0083208D01*
X0306586Y0083216D01*
X0306688Y0083220D01*
X0306792Y0083220D01*
X0306894Y0083216D01*
X0306997Y0083208D01*
X0307100Y0083196D01*
X0307201Y0083180D01*
X0307302Y0083160D01*
X0307403Y0083136D01*
X0307502Y0083108D01*
X0307600Y0083077D01*
X0307697Y0083042D01*
X0307792Y0083003D01*
X0307886Y0082960D01*
X0307978Y0082914D01*
X0308068Y0082864D01*
X0308157Y0082811D01*
X0308243Y0082754D01*
X0308327Y0082694D01*
X0308408Y0082631D01*
X0308487Y0082565D01*
X0308563Y0082496D01*
X0308637Y0082423D01*
X0308708Y0082349D01*
X0308775Y0082271D01*
X0308840Y0082191D01*
X0308902Y0082108D01*
X0308960Y0082023D01*
X0309015Y0081936D01*
X0309066Y0081847D01*
X0309114Y0081755D01*
X0309159Y0081662D01*
X0309200Y0081568D01*
X0309237Y0081472D01*
X0309270Y0081374D01*
X0309300Y0081276D01*
X0309325Y0081176D01*
X0309347Y0081075D01*
X0309365Y0080974D01*
X0309379Y0080871D01*
X0309389Y0080769D01*
X0309395Y0080666D01*
X0309397Y0080563D01*
X0309395Y0080460D01*
X0309389Y0080357D01*
X0309379Y0080255D01*
X0309365Y0080152D01*
X0309347Y0080051D01*
X0309325Y0079950D01*
X0309300Y0079850D01*
X0309270Y0079752D01*
X0309237Y0079654D01*
X0309200Y0079558D01*
X0309159Y0079464D01*
X0309114Y0079371D01*
X0309066Y0079279D01*
X0309015Y0079190D01*
X0308960Y0079103D01*
X0308902Y0079018D01*
X0308840Y0078935D01*
X0308775Y0078855D01*
X0308708Y0078777D01*
X0308637Y0078703D01*
X0308563Y0078630D01*
X0308487Y0078561D01*
X0308408Y0078495D01*
X0308327Y0078432D01*
X0308243Y0078372D01*
X0308157Y0078315D01*
X0308069Y0078262D01*
X0307978Y0078212D01*
X0307886Y0078166D01*
X0307792Y0078123D01*
X0307697Y0078084D01*
X0307600Y0078049D01*
X0307502Y0078018D01*
X0307403Y0077990D01*
X0307302Y0077966D01*
X0307201Y0077946D01*
X0307100Y0077930D01*
X0306997Y0077918D01*
X0306894Y0077910D01*
X0306792Y0077906D01*
X0306688Y0077906D01*
X0306586Y0077910D01*
X0306483Y0077918D01*
X0306380Y0077930D01*
X0306279Y0077946D01*
X0306178Y0077966D01*
X0306077Y0077990D01*
X0305978Y0078018D01*
X0305880Y0078049D01*
X0305783Y0078084D01*
X0305688Y0078123D01*
X0305594Y0078166D01*
X0305502Y0078212D01*
X0305412Y0078262D01*
X0305323Y0078315D01*
X0305237Y0078372D01*
X0305153Y0078432D01*
X0305072Y0078495D01*
X0304993Y0078561D01*
X0304917Y0078630D01*
X0304843Y0078703D01*
X0304772Y0078777D01*
X0304705Y0078855D01*
X0304640Y0078935D01*
X0304578Y0079018D01*
X0304520Y0079103D01*
X0304465Y0079190D01*
X0304414Y0079279D01*
X0304366Y0079371D01*
X0304321Y0079464D01*
X0304280Y0079558D01*
X0304243Y0079654D01*
X0304210Y0079752D01*
X0304180Y0079850D01*
X0304155Y0079950D01*
X0304133Y0080051D01*
X0304115Y0080152D01*
X0304101Y0080255D01*
X0304091Y0080357D01*
X0304085Y0080460D01*
X0304083Y0080563D01*
X0329981Y0311791D02*
X0329983Y0311894D01*
X0329989Y0311997D01*
X0329999Y0312099D01*
X0330013Y0312202D01*
X0330031Y0312303D01*
X0330053Y0312404D01*
X0330078Y0312504D01*
X0330108Y0312602D01*
X0330141Y0312700D01*
X0330178Y0312796D01*
X0330219Y0312890D01*
X0330264Y0312983D01*
X0330312Y0313075D01*
X0330363Y0313164D01*
X0330418Y0313251D01*
X0330476Y0313336D01*
X0330538Y0313419D01*
X0330603Y0313499D01*
X0330670Y0313577D01*
X0330741Y0313651D01*
X0330815Y0313724D01*
X0330891Y0313793D01*
X0330970Y0313859D01*
X0331051Y0313922D01*
X0331135Y0313982D01*
X0331221Y0314039D01*
X0331309Y0314092D01*
X0331400Y0314142D01*
X0331492Y0314188D01*
X0331586Y0314231D01*
X0331681Y0314270D01*
X0331778Y0314305D01*
X0331876Y0314336D01*
X0331975Y0314364D01*
X0332076Y0314388D01*
X0332177Y0314408D01*
X0332278Y0314424D01*
X0332381Y0314436D01*
X0332484Y0314444D01*
X0332586Y0314448D01*
X0332690Y0314448D01*
X0332792Y0314444D01*
X0332895Y0314436D01*
X0332998Y0314424D01*
X0333099Y0314408D01*
X0333200Y0314388D01*
X0333301Y0314364D01*
X0333400Y0314336D01*
X0333498Y0314305D01*
X0333595Y0314270D01*
X0333690Y0314231D01*
X0333784Y0314188D01*
X0333876Y0314142D01*
X0333966Y0314092D01*
X0334055Y0314039D01*
X0334141Y0313982D01*
X0334225Y0313922D01*
X0334306Y0313859D01*
X0334385Y0313793D01*
X0334461Y0313724D01*
X0334535Y0313651D01*
X0334606Y0313577D01*
X0334673Y0313499D01*
X0334738Y0313419D01*
X0334800Y0313336D01*
X0334858Y0313251D01*
X0334913Y0313164D01*
X0334964Y0313075D01*
X0335012Y0312983D01*
X0335057Y0312890D01*
X0335098Y0312796D01*
X0335135Y0312700D01*
X0335168Y0312602D01*
X0335198Y0312504D01*
X0335223Y0312404D01*
X0335245Y0312303D01*
X0335263Y0312202D01*
X0335277Y0312099D01*
X0335287Y0311997D01*
X0335293Y0311894D01*
X0335295Y0311791D01*
X0335293Y0311688D01*
X0335287Y0311585D01*
X0335277Y0311483D01*
X0335263Y0311380D01*
X0335245Y0311279D01*
X0335223Y0311178D01*
X0335198Y0311078D01*
X0335168Y0310980D01*
X0335135Y0310882D01*
X0335098Y0310786D01*
X0335057Y0310692D01*
X0335012Y0310599D01*
X0334964Y0310507D01*
X0334913Y0310418D01*
X0334858Y0310331D01*
X0334800Y0310246D01*
X0334738Y0310163D01*
X0334673Y0310083D01*
X0334606Y0310005D01*
X0334535Y0309931D01*
X0334461Y0309858D01*
X0334385Y0309789D01*
X0334306Y0309723D01*
X0334225Y0309660D01*
X0334141Y0309600D01*
X0334055Y0309543D01*
X0333967Y0309490D01*
X0333876Y0309440D01*
X0333784Y0309394D01*
X0333690Y0309351D01*
X0333595Y0309312D01*
X0333498Y0309277D01*
X0333400Y0309246D01*
X0333301Y0309218D01*
X0333200Y0309194D01*
X0333099Y0309174D01*
X0332998Y0309158D01*
X0332895Y0309146D01*
X0332792Y0309138D01*
X0332690Y0309134D01*
X0332586Y0309134D01*
X0332484Y0309138D01*
X0332381Y0309146D01*
X0332278Y0309158D01*
X0332177Y0309174D01*
X0332076Y0309194D01*
X0331975Y0309218D01*
X0331876Y0309246D01*
X0331778Y0309277D01*
X0331681Y0309312D01*
X0331586Y0309351D01*
X0331492Y0309394D01*
X0331400Y0309440D01*
X0331310Y0309490D01*
X0331221Y0309543D01*
X0331135Y0309600D01*
X0331051Y0309660D01*
X0330970Y0309723D01*
X0330891Y0309789D01*
X0330815Y0309858D01*
X0330741Y0309931D01*
X0330670Y0310005D01*
X0330603Y0310083D01*
X0330538Y0310163D01*
X0330476Y0310246D01*
X0330418Y0310331D01*
X0330363Y0310418D01*
X0330312Y0310507D01*
X0330264Y0310599D01*
X0330219Y0310692D01*
X0330178Y0310786D01*
X0330141Y0310882D01*
X0330108Y0310980D01*
X0330078Y0311078D01*
X0330053Y0311178D01*
X0330031Y0311279D01*
X0330013Y0311380D01*
X0329999Y0311483D01*
X0329989Y0311585D01*
X0329983Y0311688D01*
X0329981Y0311791D01*
X0329981Y0326508D02*
X0329983Y0326611D01*
X0329989Y0326714D01*
X0329999Y0326816D01*
X0330013Y0326919D01*
X0330031Y0327020D01*
X0330053Y0327121D01*
X0330078Y0327221D01*
X0330108Y0327319D01*
X0330141Y0327417D01*
X0330178Y0327513D01*
X0330219Y0327607D01*
X0330264Y0327700D01*
X0330312Y0327792D01*
X0330363Y0327881D01*
X0330418Y0327968D01*
X0330476Y0328053D01*
X0330538Y0328136D01*
X0330603Y0328216D01*
X0330670Y0328294D01*
X0330741Y0328368D01*
X0330815Y0328441D01*
X0330891Y0328510D01*
X0330970Y0328576D01*
X0331051Y0328639D01*
X0331135Y0328699D01*
X0331221Y0328756D01*
X0331309Y0328809D01*
X0331400Y0328859D01*
X0331492Y0328905D01*
X0331586Y0328948D01*
X0331681Y0328987D01*
X0331778Y0329022D01*
X0331876Y0329053D01*
X0331975Y0329081D01*
X0332076Y0329105D01*
X0332177Y0329125D01*
X0332278Y0329141D01*
X0332381Y0329153D01*
X0332484Y0329161D01*
X0332586Y0329165D01*
X0332690Y0329165D01*
X0332792Y0329161D01*
X0332895Y0329153D01*
X0332998Y0329141D01*
X0333099Y0329125D01*
X0333200Y0329105D01*
X0333301Y0329081D01*
X0333400Y0329053D01*
X0333498Y0329022D01*
X0333595Y0328987D01*
X0333690Y0328948D01*
X0333784Y0328905D01*
X0333876Y0328859D01*
X0333966Y0328809D01*
X0334055Y0328756D01*
X0334141Y0328699D01*
X0334225Y0328639D01*
X0334306Y0328576D01*
X0334385Y0328510D01*
X0334461Y0328441D01*
X0334535Y0328368D01*
X0334606Y0328294D01*
X0334673Y0328216D01*
X0334738Y0328136D01*
X0334800Y0328053D01*
X0334858Y0327968D01*
X0334913Y0327881D01*
X0334964Y0327792D01*
X0335012Y0327700D01*
X0335057Y0327607D01*
X0335098Y0327513D01*
X0335135Y0327417D01*
X0335168Y0327319D01*
X0335198Y0327221D01*
X0335223Y0327121D01*
X0335245Y0327020D01*
X0335263Y0326919D01*
X0335277Y0326816D01*
X0335287Y0326714D01*
X0335293Y0326611D01*
X0335295Y0326508D01*
X0335293Y0326405D01*
X0335287Y0326302D01*
X0335277Y0326200D01*
X0335263Y0326097D01*
X0335245Y0325996D01*
X0335223Y0325895D01*
X0335198Y0325795D01*
X0335168Y0325697D01*
X0335135Y0325599D01*
X0335098Y0325503D01*
X0335057Y0325409D01*
X0335012Y0325316D01*
X0334964Y0325224D01*
X0334913Y0325135D01*
X0334858Y0325048D01*
X0334800Y0324963D01*
X0334738Y0324880D01*
X0334673Y0324800D01*
X0334606Y0324722D01*
X0334535Y0324648D01*
X0334461Y0324575D01*
X0334385Y0324506D01*
X0334306Y0324440D01*
X0334225Y0324377D01*
X0334141Y0324317D01*
X0334055Y0324260D01*
X0333967Y0324207D01*
X0333876Y0324157D01*
X0333784Y0324111D01*
X0333690Y0324068D01*
X0333595Y0324029D01*
X0333498Y0323994D01*
X0333400Y0323963D01*
X0333301Y0323935D01*
X0333200Y0323911D01*
X0333099Y0323891D01*
X0332998Y0323875D01*
X0332895Y0323863D01*
X0332792Y0323855D01*
X0332690Y0323851D01*
X0332586Y0323851D01*
X0332484Y0323855D01*
X0332381Y0323863D01*
X0332278Y0323875D01*
X0332177Y0323891D01*
X0332076Y0323911D01*
X0331975Y0323935D01*
X0331876Y0323963D01*
X0331778Y0323994D01*
X0331681Y0324029D01*
X0331586Y0324068D01*
X0331492Y0324111D01*
X0331400Y0324157D01*
X0331310Y0324207D01*
X0331221Y0324260D01*
X0331135Y0324317D01*
X0331051Y0324377D01*
X0330970Y0324440D01*
X0330891Y0324506D01*
X0330815Y0324575D01*
X0330741Y0324648D01*
X0330670Y0324722D01*
X0330603Y0324800D01*
X0330538Y0324880D01*
X0330476Y0324963D01*
X0330418Y0325048D01*
X0330363Y0325135D01*
X0330312Y0325224D01*
X0330264Y0325316D01*
X0330219Y0325409D01*
X0330178Y0325503D01*
X0330141Y0325599D01*
X0330108Y0325697D01*
X0330078Y0325795D01*
X0330053Y0325895D01*
X0330031Y0325996D01*
X0330013Y0326097D01*
X0329999Y0326200D01*
X0329989Y0326302D01*
X0329983Y0326405D01*
X0329981Y0326508D01*
X0216457Y0311724D02*
X0216457Y0311675D01*
X0197018Y0331606D02*
X0196821Y0331606D01*
X0171772Y0311921D02*
X0171772Y0311724D01*
X0171772Y0311921D01*
X0022697Y0311791D02*
X0022699Y0311894D01*
X0022705Y0311997D01*
X0022715Y0312099D01*
X0022729Y0312202D01*
X0022747Y0312303D01*
X0022769Y0312404D01*
X0022794Y0312504D01*
X0022824Y0312602D01*
X0022857Y0312700D01*
X0022894Y0312796D01*
X0022935Y0312890D01*
X0022980Y0312983D01*
X0023028Y0313075D01*
X0023079Y0313164D01*
X0023134Y0313251D01*
X0023192Y0313336D01*
X0023254Y0313419D01*
X0023319Y0313499D01*
X0023386Y0313577D01*
X0023457Y0313651D01*
X0023531Y0313724D01*
X0023607Y0313793D01*
X0023686Y0313859D01*
X0023767Y0313922D01*
X0023851Y0313982D01*
X0023937Y0314039D01*
X0024025Y0314092D01*
X0024116Y0314142D01*
X0024208Y0314188D01*
X0024302Y0314231D01*
X0024397Y0314270D01*
X0024494Y0314305D01*
X0024592Y0314336D01*
X0024691Y0314364D01*
X0024792Y0314388D01*
X0024893Y0314408D01*
X0024994Y0314424D01*
X0025097Y0314436D01*
X0025200Y0314444D01*
X0025302Y0314448D01*
X0025406Y0314448D01*
X0025508Y0314444D01*
X0025611Y0314436D01*
X0025714Y0314424D01*
X0025815Y0314408D01*
X0025916Y0314388D01*
X0026017Y0314364D01*
X0026116Y0314336D01*
X0026214Y0314305D01*
X0026311Y0314270D01*
X0026406Y0314231D01*
X0026500Y0314188D01*
X0026592Y0314142D01*
X0026682Y0314092D01*
X0026771Y0314039D01*
X0026857Y0313982D01*
X0026941Y0313922D01*
X0027022Y0313859D01*
X0027101Y0313793D01*
X0027177Y0313724D01*
X0027251Y0313651D01*
X0027322Y0313577D01*
X0027389Y0313499D01*
X0027454Y0313419D01*
X0027516Y0313336D01*
X0027574Y0313251D01*
X0027629Y0313164D01*
X0027680Y0313075D01*
X0027728Y0312983D01*
X0027773Y0312890D01*
X0027814Y0312796D01*
X0027851Y0312700D01*
X0027884Y0312602D01*
X0027914Y0312504D01*
X0027939Y0312404D01*
X0027961Y0312303D01*
X0027979Y0312202D01*
X0027993Y0312099D01*
X0028003Y0311997D01*
X0028009Y0311894D01*
X0028011Y0311791D01*
X0028009Y0311688D01*
X0028003Y0311585D01*
X0027993Y0311483D01*
X0027979Y0311380D01*
X0027961Y0311279D01*
X0027939Y0311178D01*
X0027914Y0311078D01*
X0027884Y0310980D01*
X0027851Y0310882D01*
X0027814Y0310786D01*
X0027773Y0310692D01*
X0027728Y0310599D01*
X0027680Y0310507D01*
X0027629Y0310418D01*
X0027574Y0310331D01*
X0027516Y0310246D01*
X0027454Y0310163D01*
X0027389Y0310083D01*
X0027322Y0310005D01*
X0027251Y0309931D01*
X0027177Y0309858D01*
X0027101Y0309789D01*
X0027022Y0309723D01*
X0026941Y0309660D01*
X0026857Y0309600D01*
X0026771Y0309543D01*
X0026683Y0309490D01*
X0026592Y0309440D01*
X0026500Y0309394D01*
X0026406Y0309351D01*
X0026311Y0309312D01*
X0026214Y0309277D01*
X0026116Y0309246D01*
X0026017Y0309218D01*
X0025916Y0309194D01*
X0025815Y0309174D01*
X0025714Y0309158D01*
X0025611Y0309146D01*
X0025508Y0309138D01*
X0025406Y0309134D01*
X0025302Y0309134D01*
X0025200Y0309138D01*
X0025097Y0309146D01*
X0024994Y0309158D01*
X0024893Y0309174D01*
X0024792Y0309194D01*
X0024691Y0309218D01*
X0024592Y0309246D01*
X0024494Y0309277D01*
X0024397Y0309312D01*
X0024302Y0309351D01*
X0024208Y0309394D01*
X0024116Y0309440D01*
X0024026Y0309490D01*
X0023937Y0309543D01*
X0023851Y0309600D01*
X0023767Y0309660D01*
X0023686Y0309723D01*
X0023607Y0309789D01*
X0023531Y0309858D01*
X0023457Y0309931D01*
X0023386Y0310005D01*
X0023319Y0310083D01*
X0023254Y0310163D01*
X0023192Y0310246D01*
X0023134Y0310331D01*
X0023079Y0310418D01*
X0023028Y0310507D01*
X0022980Y0310599D01*
X0022935Y0310692D01*
X0022894Y0310786D01*
X0022857Y0310882D01*
X0022824Y0310980D01*
X0022794Y0311078D01*
X0022769Y0311178D01*
X0022747Y0311279D01*
X0022729Y0311380D01*
X0022715Y0311483D01*
X0022705Y0311585D01*
X0022699Y0311688D01*
X0022697Y0311791D01*
X0022697Y0326508D02*
X0022699Y0326611D01*
X0022705Y0326714D01*
X0022715Y0326816D01*
X0022729Y0326919D01*
X0022747Y0327020D01*
X0022769Y0327121D01*
X0022794Y0327221D01*
X0022824Y0327319D01*
X0022857Y0327417D01*
X0022894Y0327513D01*
X0022935Y0327607D01*
X0022980Y0327700D01*
X0023028Y0327792D01*
X0023079Y0327881D01*
X0023134Y0327968D01*
X0023192Y0328053D01*
X0023254Y0328136D01*
X0023319Y0328216D01*
X0023386Y0328294D01*
X0023457Y0328368D01*
X0023531Y0328441D01*
X0023607Y0328510D01*
X0023686Y0328576D01*
X0023767Y0328639D01*
X0023851Y0328699D01*
X0023937Y0328756D01*
X0024025Y0328809D01*
X0024116Y0328859D01*
X0024208Y0328905D01*
X0024302Y0328948D01*
X0024397Y0328987D01*
X0024494Y0329022D01*
X0024592Y0329053D01*
X0024691Y0329081D01*
X0024792Y0329105D01*
X0024893Y0329125D01*
X0024994Y0329141D01*
X0025097Y0329153D01*
X0025200Y0329161D01*
X0025302Y0329165D01*
X0025406Y0329165D01*
X0025508Y0329161D01*
X0025611Y0329153D01*
X0025714Y0329141D01*
X0025815Y0329125D01*
X0025916Y0329105D01*
X0026017Y0329081D01*
X0026116Y0329053D01*
X0026214Y0329022D01*
X0026311Y0328987D01*
X0026406Y0328948D01*
X0026500Y0328905D01*
X0026592Y0328859D01*
X0026682Y0328809D01*
X0026771Y0328756D01*
X0026857Y0328699D01*
X0026941Y0328639D01*
X0027022Y0328576D01*
X0027101Y0328510D01*
X0027177Y0328441D01*
X0027251Y0328368D01*
X0027322Y0328294D01*
X0027389Y0328216D01*
X0027454Y0328136D01*
X0027516Y0328053D01*
X0027574Y0327968D01*
X0027629Y0327881D01*
X0027680Y0327792D01*
X0027728Y0327700D01*
X0027773Y0327607D01*
X0027814Y0327513D01*
X0027851Y0327417D01*
X0027884Y0327319D01*
X0027914Y0327221D01*
X0027939Y0327121D01*
X0027961Y0327020D01*
X0027979Y0326919D01*
X0027993Y0326816D01*
X0028003Y0326714D01*
X0028009Y0326611D01*
X0028011Y0326508D01*
X0028009Y0326405D01*
X0028003Y0326302D01*
X0027993Y0326200D01*
X0027979Y0326097D01*
X0027961Y0325996D01*
X0027939Y0325895D01*
X0027914Y0325795D01*
X0027884Y0325697D01*
X0027851Y0325599D01*
X0027814Y0325503D01*
X0027773Y0325409D01*
X0027728Y0325316D01*
X0027680Y0325224D01*
X0027629Y0325135D01*
X0027574Y0325048D01*
X0027516Y0324963D01*
X0027454Y0324880D01*
X0027389Y0324800D01*
X0027322Y0324722D01*
X0027251Y0324648D01*
X0027177Y0324575D01*
X0027101Y0324506D01*
X0027022Y0324440D01*
X0026941Y0324377D01*
X0026857Y0324317D01*
X0026771Y0324260D01*
X0026683Y0324207D01*
X0026592Y0324157D01*
X0026500Y0324111D01*
X0026406Y0324068D01*
X0026311Y0324029D01*
X0026214Y0323994D01*
X0026116Y0323963D01*
X0026017Y0323935D01*
X0025916Y0323911D01*
X0025815Y0323891D01*
X0025714Y0323875D01*
X0025611Y0323863D01*
X0025508Y0323855D01*
X0025406Y0323851D01*
X0025302Y0323851D01*
X0025200Y0323855D01*
X0025097Y0323863D01*
X0024994Y0323875D01*
X0024893Y0323891D01*
X0024792Y0323911D01*
X0024691Y0323935D01*
X0024592Y0323963D01*
X0024494Y0323994D01*
X0024397Y0324029D01*
X0024302Y0324068D01*
X0024208Y0324111D01*
X0024116Y0324157D01*
X0024026Y0324207D01*
X0023937Y0324260D01*
X0023851Y0324317D01*
X0023767Y0324377D01*
X0023686Y0324440D01*
X0023607Y0324506D01*
X0023531Y0324575D01*
X0023457Y0324648D01*
X0023386Y0324722D01*
X0023319Y0324800D01*
X0023254Y0324880D01*
X0023192Y0324963D01*
X0023134Y0325048D01*
X0023079Y0325135D01*
X0023028Y0325224D01*
X0022980Y0325316D01*
X0022935Y0325409D01*
X0022894Y0325503D01*
X0022857Y0325599D01*
X0022824Y0325697D01*
X0022794Y0325795D01*
X0022769Y0325895D01*
X0022747Y0325996D01*
X0022729Y0326097D01*
X0022715Y0326200D01*
X0022705Y0326302D01*
X0022699Y0326405D01*
X0022697Y0326508D01*
D13*
X0079582Y0265428D02*
X0079582Y0262526D01*
X0079582Y0263493D02*
X0078131Y0264461D01*
X0079582Y0263493D02*
X0078131Y0262526D01*
X0062849Y0224461D02*
X0061881Y0224461D01*
X0061397Y0223977D01*
X0061397Y0222526D01*
X0062849Y0222526D01*
X0063332Y0223010D01*
X0062849Y0223493D01*
X0061397Y0223493D01*
X0083317Y0076054D02*
X0086453Y0072918D01*
X0086453Y0074486D02*
X0083317Y0074486D01*
X0083317Y0072918D02*
X0086453Y0076054D01*
X0084885Y0076054D02*
X0084885Y0072918D01*
X0278543Y0199991D02*
X0279994Y0199991D01*
X0280478Y0200474D01*
X0279994Y0200958D01*
X0278543Y0200958D01*
X0278543Y0201442D02*
X0278543Y0199991D01*
X0278543Y0201442D02*
X0279027Y0201926D01*
X0279994Y0201926D01*
X0295277Y0239991D02*
X0296728Y0240958D01*
X0295277Y0241926D01*
X0296728Y0242893D02*
X0296728Y0239991D01*
X0342851Y0053703D02*
X0346554Y0053703D01*
X0346554Y0051235D01*
X0346554Y0050020D02*
X0342851Y0047551D01*
D14*
X0295038Y0074470D02*
X0295038Y0075204D01*
X0294487Y0074837D02*
X0294487Y0074470D01*
X0293937Y0074470D02*
X0295038Y0074470D01*
X0294487Y0075575D02*
X0294487Y0076125D01*
X0294304Y0076309D01*
X0294120Y0076309D01*
X0293937Y0076125D01*
X0293937Y0075758D01*
X0294120Y0075575D01*
X0294487Y0075575D01*
X0294854Y0075942D01*
X0295038Y0076309D01*
X0215226Y0269648D02*
X0214225Y0269648D01*
X0214725Y0269648D02*
X0214725Y0271150D01*
X0215226Y0270649D01*
X0217177Y0273585D02*
X0217177Y0274586D01*
X0217678Y0275087D01*
X0218178Y0274586D01*
X0218178Y0273585D01*
X0218178Y0274336D02*
X0217177Y0274336D01*
X0155777Y0328900D02*
X0155777Y0330402D01*
X0155276Y0329901D01*
X0154776Y0330402D01*
X0154776Y0328900D01*
X0064056Y0071668D02*
X0063873Y0071668D01*
X0063139Y0070934D01*
X0062956Y0070934D01*
X0063506Y0070197D02*
X0063506Y0069830D01*
X0064056Y0069830D02*
X0064056Y0070563D01*
X0064056Y0070934D02*
X0064056Y0071668D01*
X0064056Y0069830D02*
X0062956Y0069830D01*
D15*
X0218965Y0251039D02*
X0218807Y0251197D01*
X0218807Y0263382D01*
X0219949Y0262475D02*
X0219949Y0256236D01*
X0224162Y0252024D01*
X0230433Y0252024D01*
X0231801Y0251039D02*
X0218965Y0251039D01*
X0237665Y0259256D02*
X0237665Y0266079D01*
X0234004Y0269740D01*
X0227214Y0269740D01*
X0225215Y0270724D02*
X0238650Y0270724D01*
X0238650Y0257888D01*
X0154072Y0321824D02*
X0152103Y0321824D01*
X0152103Y0331666D01*
X0154072Y0331666D01*
X0154072Y0321824D01*
X0152103Y0321824D02*
X0143442Y0321824D01*
X0143442Y0331272D01*
X0141473Y0331666D02*
X0141473Y0321824D01*
X0143442Y0321824D01*
X0141473Y0331666D02*
X0152103Y0331666D01*
M02*
