G75*
%MOIN*%
%OFA0B0*%
%FSLAX25Y25*%
%IPPOS*%
%LPD*%
%AMOC8*
5,1,8,0,0,1.08239X$1,22.5*
%
%ADD10R,0.02500X0.12008*%
%ADD11R,0.05906X0.05118*%
%ADD12R,0.03543X0.02756*%
%ADD13R,0.02756X0.03543*%
%ADD14R,0.02000X0.06400*%
%ADD15R,0.07480X0.17323*%
%ADD16C,0.01496*%
%ADD17C,0.00787*%
%ADD18R,0.03937X0.11024*%
%ADD19R,0.11417X0.05906*%
%ADD20R,0.10630X0.06299*%
%ADD21R,0.07087X0.06299*%
%ADD22R,0.07008X0.14016*%
%ADD23R,0.11220X0.07874*%
%ADD24R,0.03937X0.04331*%
%ADD25R,0.07098X0.06299*%
%ADD26R,0.05118X0.05906*%
%ADD27R,0.04000X0.10500*%
%ADD28R,0.10500X0.04000*%
%ADD29C,0.01240*%
%ADD30R,0.02480X0.02480*%
%ADD31C,0.00591*%
%ADD32R,0.01969X0.04528*%
%ADD33R,0.15205X0.10787*%
%ADD34C,0.00591*%
%ADD35R,0.01791X0.05315*%
D10*
X0056252Y0098643D03*
X0060494Y0098643D03*
X0060421Y0113801D03*
X0056179Y0113801D03*
X0084598Y0107460D03*
X0088840Y0107460D03*
X0088859Y0122853D03*
X0084617Y0122853D03*
X0086875Y0177523D03*
X0091117Y0177523D03*
X0089605Y0191724D03*
X0085363Y0191724D03*
X0140403Y0281958D03*
X0144645Y0281958D03*
X0140980Y0314376D03*
X0136738Y0314376D03*
D11*
X0150094Y0300685D03*
X0150094Y0293205D03*
X0077600Y0158681D03*
X0077600Y0151201D03*
X0085720Y0151168D03*
X0085720Y0143687D03*
X0072225Y0118313D03*
X0072225Y0111620D03*
X0072225Y0104927D03*
X0279775Y0259241D03*
X0279775Y0266721D03*
X0288610Y0266635D03*
X0288610Y0259154D03*
D12*
X0087083Y0165284D03*
X0087083Y0160166D03*
X0056268Y0161835D03*
X0056268Y0166953D03*
X0066138Y0094161D03*
X0066138Y0089043D03*
X0068239Y0080773D03*
X0068239Y0075655D03*
D13*
X0078256Y0069614D03*
X0083374Y0069614D03*
X0080980Y0168110D03*
X0075862Y0168110D03*
X0068327Y0167992D03*
X0063209Y0167992D03*
X0065268Y0202350D03*
X0070386Y0202350D03*
X0070392Y0207737D03*
X0075510Y0207737D03*
X0174065Y0266327D03*
X0179183Y0266327D03*
X0182504Y0262024D03*
X0187622Y0262024D03*
D14*
X0080921Y0092518D03*
X0078362Y0092518D03*
X0075803Y0092518D03*
X0073244Y0092518D03*
X0073244Y0076018D03*
X0075803Y0076018D03*
X0078362Y0076018D03*
X0080921Y0076018D03*
D15*
X0069732Y0226697D03*
X0286878Y0204161D03*
D16*
X0289870Y0230500D02*
X0289870Y0246326D01*
X0289870Y0230500D02*
X0283886Y0230500D01*
X0283886Y0246326D01*
X0289870Y0246326D01*
X0289870Y0231995D02*
X0283886Y0231995D01*
X0283886Y0233490D02*
X0289870Y0233490D01*
X0289870Y0234985D02*
X0283886Y0234985D01*
X0283886Y0236480D02*
X0289870Y0236480D01*
X0289870Y0237975D02*
X0283886Y0237975D01*
X0283886Y0239470D02*
X0289870Y0239470D01*
X0289870Y0240965D02*
X0283886Y0240965D01*
X0283886Y0242460D02*
X0289870Y0242460D01*
X0289870Y0243955D02*
X0283886Y0243955D01*
X0283886Y0245450D02*
X0289870Y0245450D01*
X0072724Y0253036D02*
X0072724Y0268862D01*
X0072724Y0253036D02*
X0066740Y0253036D01*
X0066740Y0268862D01*
X0072724Y0268862D01*
X0072724Y0254531D02*
X0066740Y0254531D01*
X0066740Y0256026D02*
X0072724Y0256026D01*
X0072724Y0257521D02*
X0066740Y0257521D01*
X0066740Y0259016D02*
X0072724Y0259016D01*
X0072724Y0260511D02*
X0066740Y0260511D01*
X0066740Y0262006D02*
X0072724Y0262006D01*
X0072724Y0263501D02*
X0066740Y0263501D01*
X0066740Y0264996D02*
X0072724Y0264996D01*
X0072724Y0266491D02*
X0066740Y0266491D01*
X0066740Y0267986D02*
X0072724Y0267986D01*
D17*
X0152103Y0321626D02*
X0155253Y0321626D01*
X0152103Y0321626D02*
X0152103Y0331864D01*
X0155253Y0331864D01*
X0155253Y0321626D01*
X0155253Y0322412D02*
X0152103Y0322412D01*
X0152103Y0323198D02*
X0155253Y0323198D01*
X0155253Y0323984D02*
X0152103Y0323984D01*
X0152103Y0324770D02*
X0155253Y0324770D01*
X0155253Y0325556D02*
X0152103Y0325556D01*
X0152103Y0326342D02*
X0155253Y0326342D01*
X0155253Y0327128D02*
X0152103Y0327128D01*
X0152103Y0327914D02*
X0155253Y0327914D01*
X0155253Y0328700D02*
X0152103Y0328700D01*
X0152103Y0329486D02*
X0155253Y0329486D01*
X0155253Y0330272D02*
X0152103Y0330272D01*
X0152103Y0331058D02*
X0155253Y0331058D01*
X0155253Y0331844D02*
X0152103Y0331844D01*
D18*
X0142064Y0326745D03*
D19*
X0207220Y0265657D03*
X0207220Y0253846D03*
X0249150Y0253547D03*
X0249150Y0265358D03*
D20*
X0086111Y0217918D03*
X0086111Y0206894D03*
D21*
X0063148Y0159009D03*
X0063148Y0147985D03*
D22*
X0136187Y0352680D03*
X0173588Y0352680D03*
X0182224Y0352716D03*
X0219626Y0352716D03*
D23*
G36*
X0220735Y0273931D02*
X0228667Y0265999D01*
X0223099Y0260431D01*
X0215167Y0268363D01*
X0220735Y0273931D01*
G37*
G36*
X0234121Y0260742D02*
X0242053Y0252810D01*
X0236485Y0247242D01*
X0228553Y0255174D01*
X0234121Y0260742D01*
G37*
D24*
X0192751Y0268208D03*
X0186058Y0268208D03*
D25*
X0052047Y0186728D03*
X0052047Y0175531D03*
D26*
X0268106Y0246748D03*
X0275587Y0246748D03*
D27*
X0077645Y0135133D03*
X0051908Y0152657D03*
D28*
X0287217Y0251126D03*
D29*
X0214852Y0274805D02*
X0213612Y0274805D01*
X0214852Y0274805D02*
X0214852Y0273565D01*
X0213612Y0273565D01*
X0213612Y0274805D01*
X0213612Y0274804D02*
X0214852Y0274804D01*
D30*
X0214232Y0279185D03*
X0209232Y0279185D03*
X0204232Y0279185D03*
X0199232Y0279185D03*
X0199232Y0274185D03*
X0204232Y0274185D03*
X0209232Y0274185D03*
X0209232Y0284185D03*
X0204232Y0284185D03*
X0199232Y0284185D03*
X0199232Y0289185D03*
X0199232Y0294185D03*
X0204232Y0294185D03*
X0204232Y0289185D03*
X0209232Y0289185D03*
X0209232Y0294185D03*
X0209232Y0299185D03*
X0204232Y0299185D03*
X0199232Y0299185D03*
X0199232Y0304185D03*
X0199232Y0309185D03*
X0199232Y0314185D03*
X0204232Y0314185D03*
X0204232Y0309185D03*
X0204232Y0304185D03*
X0209232Y0304185D03*
X0209232Y0309185D03*
X0209232Y0314185D03*
X0209232Y0319185D03*
X0204232Y0319185D03*
X0199232Y0319185D03*
X0199232Y0324185D03*
X0199232Y0329185D03*
X0204232Y0329185D03*
X0204232Y0324185D03*
X0209232Y0324185D03*
X0209232Y0329185D03*
X0214232Y0329185D03*
X0214232Y0324185D03*
X0214232Y0319185D03*
X0214232Y0314185D03*
X0214232Y0309185D03*
X0214232Y0304185D03*
X0214232Y0299185D03*
X0214232Y0294185D03*
X0214232Y0289185D03*
X0214232Y0284185D03*
X0194232Y0284185D03*
X0189232Y0284185D03*
X0184232Y0284185D03*
X0184232Y0289185D03*
X0184232Y0294185D03*
X0189232Y0294185D03*
X0189232Y0289185D03*
X0194232Y0289185D03*
X0194232Y0294185D03*
X0194232Y0299185D03*
X0189232Y0299185D03*
X0189232Y0304185D03*
X0184232Y0304185D03*
X0184232Y0309185D03*
X0184232Y0314185D03*
X0189232Y0314185D03*
X0189232Y0309185D03*
X0194232Y0309185D03*
X0194232Y0304185D03*
X0194232Y0314185D03*
X0194232Y0319185D03*
X0189232Y0319185D03*
X0184232Y0319185D03*
X0184232Y0324185D03*
X0184232Y0329185D03*
X0189232Y0329185D03*
X0189232Y0324185D03*
X0194232Y0324185D03*
X0194232Y0329185D03*
X0179232Y0329185D03*
X0174232Y0329185D03*
X0174232Y0324185D03*
X0174232Y0319185D03*
X0179232Y0319185D03*
X0179232Y0324185D03*
X0169232Y0324185D03*
X0164232Y0324185D03*
X0159232Y0324185D03*
X0159232Y0319185D03*
X0164232Y0319185D03*
X0169232Y0319185D03*
X0169232Y0314185D03*
X0164232Y0314185D03*
X0159232Y0314185D03*
X0159232Y0309185D03*
X0159232Y0304185D03*
X0159232Y0299185D03*
X0164232Y0299185D03*
X0164232Y0304185D03*
X0164232Y0309185D03*
X0169232Y0309185D03*
X0169232Y0304185D03*
X0169232Y0299185D03*
X0169232Y0294185D03*
X0164232Y0294185D03*
X0159232Y0294185D03*
X0159232Y0289185D03*
X0159232Y0284185D03*
X0164232Y0284185D03*
X0164232Y0289185D03*
X0169232Y0289185D03*
X0169232Y0284185D03*
X0169232Y0279185D03*
X0164232Y0279185D03*
X0159232Y0279185D03*
X0159232Y0274185D03*
X0164232Y0274185D03*
X0169232Y0274185D03*
X0174232Y0274185D03*
X0174232Y0279185D03*
X0179232Y0279185D03*
X0179232Y0274185D03*
X0184232Y0274185D03*
X0184232Y0279185D03*
X0189232Y0279185D03*
X0189232Y0274185D03*
X0194232Y0274185D03*
X0194232Y0279185D03*
X0179232Y0284185D03*
X0174232Y0284185D03*
X0174232Y0289185D03*
X0174232Y0294185D03*
X0179232Y0294185D03*
X0179232Y0289185D03*
X0179232Y0304185D03*
X0174232Y0304185D03*
X0174232Y0309185D03*
X0174232Y0314185D03*
X0179232Y0314185D03*
X0179232Y0309185D03*
X0169232Y0329185D03*
X0164232Y0329185D03*
X0159232Y0329185D03*
D31*
X0082445Y0175808D02*
X0081067Y0175808D01*
X0082445Y0175808D02*
X0082445Y0171870D01*
X0081067Y0171870D01*
X0081067Y0175808D01*
X0081067Y0172460D02*
X0082445Y0172460D01*
X0082445Y0173050D02*
X0081067Y0173050D01*
X0081067Y0173640D02*
X0082445Y0173640D01*
X0082445Y0174230D02*
X0081067Y0174230D01*
X0081067Y0174820D02*
X0082445Y0174820D01*
X0082445Y0175410D02*
X0081067Y0175410D01*
D32*
X0079197Y0173839D03*
X0076638Y0173839D03*
X0074079Y0173839D03*
X0071520Y0173839D03*
X0068961Y0173839D03*
X0066402Y0173839D03*
X0063843Y0173839D03*
X0061283Y0173839D03*
X0058724Y0173839D03*
X0058724Y0196083D03*
X0061283Y0196083D03*
X0063843Y0196083D03*
X0066402Y0196083D03*
X0068961Y0196083D03*
X0071520Y0196083D03*
X0074079Y0196083D03*
X0076638Y0196083D03*
X0079197Y0196083D03*
X0081756Y0196083D03*
D33*
X0070240Y0184961D03*
D34*
X0167695Y0010512D02*
X0167695Y0005788D01*
X0167695Y0010512D02*
X0168895Y0010512D01*
X0168895Y0005788D01*
X0167695Y0005788D01*
X0167695Y0006378D02*
X0168895Y0006378D01*
X0168895Y0006968D02*
X0167695Y0006968D01*
X0167695Y0007558D02*
X0168895Y0007558D01*
X0168895Y0008148D02*
X0167695Y0008148D01*
X0167695Y0008738D02*
X0168895Y0008738D01*
X0168895Y0009328D02*
X0167695Y0009328D01*
X0167695Y0009918D02*
X0168895Y0009918D01*
X0168895Y0010508D02*
X0167695Y0010508D01*
X0299195Y0010512D02*
X0299195Y0005788D01*
X0299195Y0010512D02*
X0300395Y0010512D01*
X0300395Y0005788D01*
X0299195Y0005788D01*
X0299195Y0006378D02*
X0300395Y0006378D01*
X0300395Y0006968D02*
X0299195Y0006968D01*
X0299195Y0007558D02*
X0300395Y0007558D01*
X0300395Y0008148D02*
X0299195Y0008148D01*
X0299195Y0008738D02*
X0300395Y0008738D01*
X0300395Y0009328D02*
X0299195Y0009328D01*
X0299195Y0009918D02*
X0300395Y0009918D01*
X0300395Y0010508D02*
X0299195Y0010508D01*
D35*
X0051941Y0016803D03*
X0055878Y0016803D03*
X0059815Y0016803D03*
X0063752Y0016803D03*
X0067689Y0016803D03*
X0071626Y0016803D03*
X0075563Y0016803D03*
X0079500Y0016803D03*
X0083437Y0016803D03*
X0087374Y0016803D03*
X0091311Y0016803D03*
X0095248Y0016803D03*
X0099185Y0016803D03*
X0103122Y0016803D03*
X0107059Y0016803D03*
X0110996Y0016803D03*
X0114933Y0016803D03*
X0118870Y0016803D03*
X0122807Y0016803D03*
X0126744Y0016803D03*
X0130681Y0016803D03*
X0134618Y0016803D03*
X0138555Y0016803D03*
X0142492Y0016803D03*
X0146429Y0016803D03*
X0150366Y0016803D03*
X0154303Y0016803D03*
X0158240Y0016803D03*
X0162177Y0016803D03*
X0166114Y0016803D03*
X0164358Y0008150D03*
X0160421Y0008150D03*
X0156484Y0008150D03*
X0152547Y0008150D03*
X0148610Y0008150D03*
X0144673Y0008150D03*
X0140736Y0008150D03*
X0136799Y0008150D03*
X0132862Y0008150D03*
X0128925Y0008150D03*
X0124988Y0008150D03*
X0121051Y0008150D03*
X0117114Y0008150D03*
X0113177Y0008150D03*
X0109240Y0008150D03*
X0105303Y0008150D03*
X0101366Y0008150D03*
X0097429Y0008150D03*
X0093492Y0008150D03*
X0089555Y0008150D03*
X0085618Y0008150D03*
X0081681Y0008150D03*
X0077744Y0008150D03*
X0073807Y0008150D03*
X0069870Y0008150D03*
X0065933Y0008150D03*
X0061996Y0008150D03*
X0058059Y0008150D03*
X0054122Y0008150D03*
X0183441Y0016803D03*
X0187378Y0016803D03*
X0191315Y0016803D03*
X0195252Y0016803D03*
X0199189Y0016803D03*
X0203126Y0016803D03*
X0207063Y0016803D03*
X0211000Y0016803D03*
X0214937Y0016803D03*
X0218874Y0016803D03*
X0222811Y0016803D03*
X0226748Y0016803D03*
X0230685Y0016803D03*
X0234622Y0016803D03*
X0238559Y0016803D03*
X0242496Y0016803D03*
X0246433Y0016803D03*
X0250370Y0016803D03*
X0254307Y0016803D03*
X0258244Y0016803D03*
X0262181Y0016803D03*
X0266118Y0016803D03*
X0270055Y0016803D03*
X0273992Y0016803D03*
X0277929Y0016803D03*
X0281866Y0016803D03*
X0285803Y0016803D03*
X0289740Y0016803D03*
X0293677Y0016803D03*
X0297614Y0016803D03*
X0295858Y0008150D03*
X0291921Y0008150D03*
X0287984Y0008150D03*
X0284047Y0008150D03*
X0280110Y0008150D03*
X0276173Y0008150D03*
X0272236Y0008150D03*
X0268299Y0008150D03*
X0264362Y0008150D03*
X0260425Y0008150D03*
X0256488Y0008150D03*
X0252551Y0008150D03*
X0248614Y0008150D03*
X0244677Y0008150D03*
X0240740Y0008150D03*
X0236803Y0008150D03*
X0232866Y0008150D03*
X0228929Y0008150D03*
X0224992Y0008150D03*
X0221055Y0008150D03*
X0217118Y0008150D03*
X0213181Y0008150D03*
X0209244Y0008150D03*
X0205307Y0008150D03*
X0201370Y0008150D03*
X0197433Y0008150D03*
X0193496Y0008150D03*
X0189559Y0008150D03*
X0185622Y0008150D03*
M02*
