G75*
%MOIN*%
%OFA0B0*%
%FSLAX25Y25*%
%IPPOS*%
%LPD*%
%AMOC8*
5,1,8,0,0,1.08239X$1,22.5*
%
%ADD10R,0.02638X0.01181*%
%ADD11R,0.01969X0.01181*%
%ADD12R,0.03937X0.01378*%
%ADD13R,0.03150X0.02756*%
%ADD14C,0.00709*%
%ADD15R,0.03346X0.02362*%
D10*
X0284602Y0111591D03*
X0284602Y0113953D03*
X0284602Y0116315D03*
X0284602Y0118677D03*
X0284602Y0121039D03*
X0284602Y0123402D03*
X0284602Y0125764D03*
X0284602Y0128126D03*
X0284602Y0130488D03*
X0284602Y0132850D03*
X0284602Y0135213D03*
X0284602Y0137575D03*
X0284602Y0139937D03*
X0284602Y0142299D03*
X0284602Y0144661D03*
X0284602Y0147024D03*
X0284602Y0149386D03*
X0284602Y0151748D03*
X0284602Y0154110D03*
X0284602Y0156472D03*
X0284602Y0158835D03*
X0284602Y0161197D03*
X0284602Y0163559D03*
X0284602Y0165921D03*
X0284602Y0168283D03*
X0284602Y0170646D03*
D11*
X0272535Y0112772D03*
X0272535Y0115134D03*
X0272535Y0117496D03*
X0272535Y0119858D03*
X0272535Y0122220D03*
X0272535Y0124583D03*
X0272535Y0126945D03*
X0272535Y0129307D03*
X0272535Y0131669D03*
X0272535Y0134031D03*
X0272535Y0136394D03*
X0272535Y0138756D03*
X0272535Y0141118D03*
X0272535Y0143480D03*
X0272535Y0145843D03*
X0272535Y0148205D03*
X0272535Y0150567D03*
X0272535Y0152929D03*
X0272535Y0155291D03*
X0272535Y0157654D03*
X0272535Y0160016D03*
X0272535Y0162378D03*
X0272535Y0164740D03*
X0272535Y0167102D03*
X0272535Y0169465D03*
D12*
X0283559Y0174484D03*
X0283559Y0107752D03*
D13*
X0307870Y0183150D03*
X0307870Y0220551D03*
D14*
X0294327Y0188504D02*
X0291689Y0188504D01*
X0294327Y0188504D02*
X0294327Y0186850D01*
X0291689Y0186850D01*
X0291689Y0188504D01*
X0291689Y0187558D02*
X0294327Y0187558D01*
X0294327Y0188266D02*
X0291689Y0188266D01*
D15*
X0293008Y0192402D03*
X0293008Y0197126D03*
X0293008Y0201850D03*
X0293008Y0206575D03*
X0293008Y0211299D03*
X0293008Y0216024D03*
M02*
