G75*
%MOIN*%
%OFA0B0*%
%FSLAX25Y25*%
%IPPOS*%
%LPD*%
%AMOC8*
5,1,8,0,0,1.08239X$1,22.5*
%
%ADD10C,0.16598*%
%ADD11C,0.00800*%
%ADD12C,0.05550*%
%ADD13C,0.07677*%
%ADD14R,0.01600X0.01600*%
D10*
X0036512Y0061882D03*
X0168874Y0061882D03*
X0306118Y0061882D03*
D11*
X0318431Y0050038D02*
X0318931Y0050538D01*
X0319431Y0050538D01*
X0319431Y0046338D01*
X0321831Y0043938D01*
X0325231Y0043938D01*
X0327531Y0046238D01*
X0327531Y0050138D01*
X0328031Y0050638D01*
X0332231Y0050638D01*
X0333231Y0049638D01*
X0333231Y0031338D01*
X0332631Y0030738D01*
X0328431Y0030738D01*
X0327631Y0031538D01*
X0327631Y0035138D01*
X0325231Y0037538D01*
X0322031Y0037538D01*
X0319531Y0035038D01*
X0319531Y0031138D01*
X0319331Y0030938D01*
X0318531Y0030938D01*
X0318431Y0030938D01*
X0318431Y0050038D01*
X0318431Y0050030D02*
X0319431Y0050030D01*
X0319431Y0049231D02*
X0318431Y0049231D01*
X0318431Y0048433D02*
X0319431Y0048433D01*
X0319431Y0047634D02*
X0318431Y0047634D01*
X0318431Y0046836D02*
X0319431Y0046836D01*
X0319732Y0046037D02*
X0318431Y0046037D01*
X0318431Y0045238D02*
X0320531Y0045238D01*
X0321329Y0044440D02*
X0318431Y0044440D01*
X0318431Y0043641D02*
X0333231Y0043641D01*
X0333231Y0042843D02*
X0318431Y0042843D01*
X0318431Y0042044D02*
X0333231Y0042044D01*
X0333231Y0041246D02*
X0318431Y0041246D01*
X0318431Y0040447D02*
X0333231Y0040447D01*
X0333231Y0039649D02*
X0318431Y0039649D01*
X0318431Y0038850D02*
X0333231Y0038850D01*
X0333231Y0038052D02*
X0318431Y0038052D01*
X0318431Y0037253D02*
X0321747Y0037253D01*
X0320949Y0036455D02*
X0318431Y0036455D01*
X0318431Y0035656D02*
X0320150Y0035656D01*
X0319531Y0034858D02*
X0318431Y0034858D01*
X0318431Y0034059D02*
X0319531Y0034059D01*
X0319531Y0033261D02*
X0318431Y0033261D01*
X0318431Y0032462D02*
X0319531Y0032462D01*
X0319531Y0031664D02*
X0318431Y0031664D01*
X0327631Y0031664D02*
X0333231Y0031664D01*
X0333231Y0032462D02*
X0327631Y0032462D01*
X0327631Y0033261D02*
X0333231Y0033261D01*
X0333231Y0034059D02*
X0327631Y0034059D01*
X0327631Y0034858D02*
X0333231Y0034858D01*
X0333231Y0035656D02*
X0327113Y0035656D01*
X0326314Y0036455D02*
X0333231Y0036455D01*
X0333231Y0037253D02*
X0325516Y0037253D01*
X0328304Y0030865D02*
X0332759Y0030865D01*
X0333231Y0044440D02*
X0325734Y0044440D01*
X0326532Y0045238D02*
X0333231Y0045238D01*
X0333231Y0046037D02*
X0327331Y0046037D01*
X0327531Y0046836D02*
X0333231Y0046836D01*
X0333231Y0047634D02*
X0327531Y0047634D01*
X0327531Y0048433D02*
X0333231Y0048433D01*
X0333231Y0049231D02*
X0327531Y0049231D01*
X0327531Y0050030D02*
X0332840Y0050030D01*
X0021423Y0050030D02*
X0020323Y0050030D01*
X0020323Y0050138D02*
X0020523Y0050338D01*
X0021323Y0050338D01*
X0021423Y0050338D01*
X0021423Y0031238D01*
X0020923Y0030738D01*
X0020423Y0030738D01*
X0020423Y0034938D01*
X0018023Y0037338D01*
X0014623Y0037338D01*
X0012323Y0035038D01*
X0012323Y0031138D01*
X0011823Y0030638D01*
X0007623Y0030638D01*
X0006623Y0031638D01*
X0006623Y0049938D01*
X0007223Y0050538D01*
X0011423Y0050538D01*
X0012223Y0049738D01*
X0012223Y0046138D01*
X0014623Y0043738D01*
X0017823Y0043738D01*
X0020323Y0046238D01*
X0020323Y0050138D01*
X0020323Y0049231D02*
X0021423Y0049231D01*
X0021423Y0048433D02*
X0020323Y0048433D01*
X0020323Y0047634D02*
X0021423Y0047634D01*
X0021423Y0046836D02*
X0020323Y0046836D01*
X0020122Y0046037D02*
X0021423Y0046037D01*
X0021423Y0045238D02*
X0019324Y0045238D01*
X0018525Y0044440D02*
X0021423Y0044440D01*
X0021423Y0043641D02*
X0006623Y0043641D01*
X0006623Y0042843D02*
X0021423Y0042843D01*
X0021423Y0042044D02*
X0006623Y0042044D01*
X0006623Y0041246D02*
X0021423Y0041246D01*
X0021423Y0040447D02*
X0006623Y0040447D01*
X0006623Y0039649D02*
X0021423Y0039649D01*
X0021423Y0038850D02*
X0006623Y0038850D01*
X0006623Y0038052D02*
X0021423Y0038052D01*
X0021423Y0037253D02*
X0018107Y0037253D01*
X0018906Y0036455D02*
X0021423Y0036455D01*
X0021423Y0035656D02*
X0019704Y0035656D01*
X0020423Y0034858D02*
X0021423Y0034858D01*
X0021423Y0034059D02*
X0020423Y0034059D01*
X0020423Y0033261D02*
X0021423Y0033261D01*
X0021423Y0032462D02*
X0020423Y0032462D01*
X0020423Y0031664D02*
X0021423Y0031664D01*
X0021050Y0030865D02*
X0020423Y0030865D01*
X0012323Y0031664D02*
X0006623Y0031664D01*
X0006623Y0032462D02*
X0012323Y0032462D01*
X0012323Y0033261D02*
X0006623Y0033261D01*
X0006623Y0034059D02*
X0012323Y0034059D01*
X0012323Y0034858D02*
X0006623Y0034858D01*
X0006623Y0035656D02*
X0012941Y0035656D01*
X0013740Y0036455D02*
X0006623Y0036455D01*
X0006623Y0037253D02*
X0014538Y0037253D01*
X0012050Y0030865D02*
X0007395Y0030865D01*
X0006623Y0044440D02*
X0013921Y0044440D01*
X0013122Y0045238D02*
X0006623Y0045238D01*
X0006623Y0046037D02*
X0012324Y0046037D01*
X0012223Y0046836D02*
X0006623Y0046836D01*
X0006623Y0047634D02*
X0012223Y0047634D01*
X0012223Y0048433D02*
X0006623Y0048433D01*
X0006623Y0049231D02*
X0012223Y0049231D01*
X0011931Y0050030D02*
X0006715Y0050030D01*
D12*
X0062520Y0068079D03*
X0124307Y0068000D03*
X0216299Y0068126D03*
X0278087Y0068205D03*
D13*
X0047417Y0021760D02*
X0047417Y0014083D01*
X0047417Y0039279D02*
X0047417Y0046957D01*
X0134031Y0057075D02*
X0134031Y0064752D01*
X0206575Y0064878D02*
X0206575Y0057201D01*
X0293189Y0047083D02*
X0293189Y0039405D01*
X0293189Y0021886D02*
X0293189Y0014209D01*
D14*
X0180094Y0056551D03*
X0026094Y0057051D03*
M02*
