G75*
%MOIN*%
%OFA0B0*%
%FSLAX25Y25*%
%IPPOS*%
%LPD*%
%AMOC8*
5,1,8,0,0,1.08239X$1,22.5*
%
%ADD10C,0.00000*%
%ADD11C,0.17198*%
%ADD12C,0.05915*%
%ADD13C,0.07200*%
%ADD14C,0.06150*%
%ADD15C,0.17600*%
%ADD16C,0.08277*%
D10*
X0041063Y0008874D02*
X0041063Y0029652D01*
X0041063Y0045349D01*
X0041061Y0045473D01*
X0041055Y0045596D01*
X0041046Y0045720D01*
X0041032Y0045842D01*
X0041015Y0045965D01*
X0040993Y0046087D01*
X0040968Y0046208D01*
X0040939Y0046328D01*
X0040907Y0046447D01*
X0040870Y0046566D01*
X0040830Y0046683D01*
X0040787Y0046798D01*
X0040739Y0046913D01*
X0040688Y0047025D01*
X0040634Y0047136D01*
X0040576Y0047246D01*
X0040515Y0047353D01*
X0040450Y0047459D01*
X0040382Y0047562D01*
X0040311Y0047663D01*
X0040237Y0047762D01*
X0040160Y0047859D01*
X0040079Y0047953D01*
X0039996Y0048044D01*
X0039910Y0048133D01*
X0039821Y0048219D01*
X0039730Y0048302D01*
X0039636Y0048383D01*
X0039539Y0048460D01*
X0039440Y0048534D01*
X0039339Y0048605D01*
X0039236Y0048673D01*
X0039130Y0048738D01*
X0039023Y0048799D01*
X0038913Y0048857D01*
X0038802Y0048911D01*
X0038690Y0048962D01*
X0038575Y0049010D01*
X0038460Y0049053D01*
X0038343Y0049093D01*
X0038224Y0049130D01*
X0038105Y0049162D01*
X0037985Y0049191D01*
X0037864Y0049216D01*
X0037742Y0049238D01*
X0037619Y0049255D01*
X0037497Y0049269D01*
X0037373Y0049278D01*
X0037250Y0049284D01*
X0037126Y0049286D01*
X0035390Y0049286D01*
X0029189Y0049286D01*
X0013666Y0047996D02*
X0013668Y0048099D01*
X0013674Y0048202D01*
X0013684Y0048304D01*
X0013698Y0048407D01*
X0013716Y0048508D01*
X0013738Y0048609D01*
X0013763Y0048709D01*
X0013793Y0048807D01*
X0013826Y0048905D01*
X0013863Y0049001D01*
X0013904Y0049095D01*
X0013949Y0049188D01*
X0013997Y0049280D01*
X0014048Y0049369D01*
X0014103Y0049456D01*
X0014161Y0049541D01*
X0014223Y0049624D01*
X0014288Y0049704D01*
X0014355Y0049782D01*
X0014426Y0049856D01*
X0014500Y0049929D01*
X0014576Y0049998D01*
X0014655Y0050064D01*
X0014736Y0050127D01*
X0014820Y0050187D01*
X0014906Y0050244D01*
X0014994Y0050297D01*
X0015085Y0050347D01*
X0015177Y0050393D01*
X0015271Y0050436D01*
X0015366Y0050475D01*
X0015463Y0050510D01*
X0015561Y0050541D01*
X0015660Y0050569D01*
X0015761Y0050593D01*
X0015862Y0050613D01*
X0015963Y0050629D01*
X0016066Y0050641D01*
X0016169Y0050649D01*
X0016271Y0050653D01*
X0016375Y0050653D01*
X0016477Y0050649D01*
X0016580Y0050641D01*
X0016683Y0050629D01*
X0016784Y0050613D01*
X0016885Y0050593D01*
X0016986Y0050569D01*
X0017085Y0050541D01*
X0017183Y0050510D01*
X0017280Y0050475D01*
X0017375Y0050436D01*
X0017469Y0050393D01*
X0017561Y0050347D01*
X0017651Y0050297D01*
X0017740Y0050244D01*
X0017826Y0050187D01*
X0017910Y0050127D01*
X0017991Y0050064D01*
X0018070Y0049998D01*
X0018146Y0049929D01*
X0018220Y0049856D01*
X0018291Y0049782D01*
X0018358Y0049704D01*
X0018423Y0049624D01*
X0018485Y0049541D01*
X0018543Y0049456D01*
X0018598Y0049369D01*
X0018649Y0049280D01*
X0018697Y0049188D01*
X0018742Y0049095D01*
X0018783Y0049001D01*
X0018820Y0048905D01*
X0018853Y0048807D01*
X0018883Y0048709D01*
X0018908Y0048609D01*
X0018930Y0048508D01*
X0018948Y0048407D01*
X0018962Y0048304D01*
X0018972Y0048202D01*
X0018978Y0048099D01*
X0018980Y0047996D01*
X0018978Y0047893D01*
X0018972Y0047790D01*
X0018962Y0047688D01*
X0018948Y0047585D01*
X0018930Y0047484D01*
X0018908Y0047383D01*
X0018883Y0047283D01*
X0018853Y0047185D01*
X0018820Y0047087D01*
X0018783Y0046991D01*
X0018742Y0046897D01*
X0018697Y0046804D01*
X0018649Y0046712D01*
X0018598Y0046623D01*
X0018543Y0046536D01*
X0018485Y0046451D01*
X0018423Y0046368D01*
X0018358Y0046288D01*
X0018291Y0046210D01*
X0018220Y0046136D01*
X0018146Y0046063D01*
X0018070Y0045994D01*
X0017991Y0045928D01*
X0017910Y0045865D01*
X0017826Y0045805D01*
X0017740Y0045748D01*
X0017652Y0045695D01*
X0017561Y0045645D01*
X0017469Y0045599D01*
X0017375Y0045556D01*
X0017280Y0045517D01*
X0017183Y0045482D01*
X0017085Y0045451D01*
X0016986Y0045423D01*
X0016885Y0045399D01*
X0016784Y0045379D01*
X0016683Y0045363D01*
X0016580Y0045351D01*
X0016477Y0045343D01*
X0016375Y0045339D01*
X0016271Y0045339D01*
X0016169Y0045343D01*
X0016066Y0045351D01*
X0015963Y0045363D01*
X0015862Y0045379D01*
X0015761Y0045399D01*
X0015660Y0045423D01*
X0015561Y0045451D01*
X0015463Y0045482D01*
X0015366Y0045517D01*
X0015271Y0045556D01*
X0015177Y0045599D01*
X0015085Y0045645D01*
X0014995Y0045695D01*
X0014906Y0045748D01*
X0014820Y0045805D01*
X0014736Y0045865D01*
X0014655Y0045928D01*
X0014576Y0045994D01*
X0014500Y0046063D01*
X0014426Y0046136D01*
X0014355Y0046210D01*
X0014288Y0046288D01*
X0014223Y0046368D01*
X0014161Y0046451D01*
X0014103Y0046536D01*
X0014048Y0046623D01*
X0013997Y0046712D01*
X0013949Y0046804D01*
X0013904Y0046897D01*
X0013863Y0046991D01*
X0013826Y0047087D01*
X0013793Y0047185D01*
X0013763Y0047283D01*
X0013738Y0047383D01*
X0013716Y0047484D01*
X0013698Y0047585D01*
X0013684Y0047688D01*
X0013674Y0047790D01*
X0013668Y0047893D01*
X0013666Y0047996D01*
X0025252Y0045349D02*
X0025252Y0029913D01*
X0025252Y0029539D02*
X0025252Y0030720D01*
X0025252Y0029539D02*
X0005504Y0029539D01*
X0005504Y0030720D01*
X0005504Y0029913D02*
X0005504Y0070465D01*
X0025469Y0070465D01*
X0025469Y0074402D01*
X0315114Y0074402D01*
X0315114Y0070465D01*
X0335646Y0070465D01*
X0335646Y0029913D01*
X0316709Y0029913D01*
X0316709Y0046286D01*
X0316707Y0046410D01*
X0316701Y0046533D01*
X0316692Y0046657D01*
X0316678Y0046779D01*
X0316661Y0046902D01*
X0316639Y0047024D01*
X0316614Y0047145D01*
X0316585Y0047265D01*
X0316553Y0047384D01*
X0316516Y0047503D01*
X0316476Y0047620D01*
X0316433Y0047735D01*
X0316385Y0047850D01*
X0316334Y0047962D01*
X0316280Y0048073D01*
X0316222Y0048183D01*
X0316161Y0048290D01*
X0316096Y0048396D01*
X0316028Y0048499D01*
X0315957Y0048600D01*
X0315883Y0048699D01*
X0315806Y0048796D01*
X0315725Y0048890D01*
X0315642Y0048981D01*
X0315556Y0049070D01*
X0315467Y0049156D01*
X0315376Y0049239D01*
X0315282Y0049320D01*
X0315185Y0049397D01*
X0315086Y0049471D01*
X0314985Y0049542D01*
X0314882Y0049610D01*
X0314776Y0049675D01*
X0314669Y0049736D01*
X0314559Y0049794D01*
X0314448Y0049848D01*
X0314336Y0049899D01*
X0314221Y0049947D01*
X0314106Y0049990D01*
X0313989Y0050030D01*
X0313870Y0050067D01*
X0313751Y0050099D01*
X0313631Y0050128D01*
X0313510Y0050153D01*
X0313388Y0050175D01*
X0313265Y0050192D01*
X0313143Y0050206D01*
X0313019Y0050215D01*
X0312896Y0050221D01*
X0312772Y0050223D01*
X0306571Y0050223D01*
X0303457Y0050223D01*
X0303333Y0050221D01*
X0303210Y0050215D01*
X0303086Y0050206D01*
X0302964Y0050192D01*
X0302841Y0050175D01*
X0302719Y0050153D01*
X0302598Y0050128D01*
X0302478Y0050099D01*
X0302359Y0050067D01*
X0302240Y0050030D01*
X0302123Y0049990D01*
X0302008Y0049947D01*
X0301893Y0049899D01*
X0301781Y0049848D01*
X0301670Y0049794D01*
X0301560Y0049736D01*
X0301453Y0049675D01*
X0301347Y0049610D01*
X0301244Y0049542D01*
X0301143Y0049471D01*
X0301044Y0049397D01*
X0300947Y0049320D01*
X0300853Y0049239D01*
X0300762Y0049156D01*
X0300673Y0049070D01*
X0300587Y0048981D01*
X0300504Y0048890D01*
X0300423Y0048796D01*
X0300346Y0048699D01*
X0300272Y0048600D01*
X0300201Y0048499D01*
X0300133Y0048396D01*
X0300068Y0048290D01*
X0300007Y0048183D01*
X0299949Y0048073D01*
X0299895Y0047962D01*
X0299844Y0047850D01*
X0299796Y0047735D01*
X0299753Y0047620D01*
X0299713Y0047503D01*
X0299676Y0047384D01*
X0299644Y0047265D01*
X0299615Y0047145D01*
X0299590Y0047024D01*
X0299568Y0046902D01*
X0299551Y0046779D01*
X0299537Y0046657D01*
X0299528Y0046533D01*
X0299522Y0046410D01*
X0299520Y0046286D01*
X0299520Y0029652D01*
X0299520Y0008874D01*
X0299518Y0008684D01*
X0299511Y0008494D01*
X0299499Y0008304D01*
X0299483Y0008114D01*
X0299463Y0007925D01*
X0299437Y0007736D01*
X0299408Y0007548D01*
X0299373Y0007361D01*
X0299334Y0007175D01*
X0299291Y0006990D01*
X0299243Y0006805D01*
X0299191Y0006622D01*
X0299135Y0006441D01*
X0299074Y0006261D01*
X0299008Y0006082D01*
X0298939Y0005905D01*
X0298865Y0005729D01*
X0298787Y0005556D01*
X0298704Y0005384D01*
X0298618Y0005215D01*
X0298528Y0005047D01*
X0298433Y0004882D01*
X0298335Y0004719D01*
X0298232Y0004559D01*
X0298126Y0004401D01*
X0298016Y0004246D01*
X0297903Y0004093D01*
X0297785Y0003943D01*
X0297664Y0003797D01*
X0297540Y0003653D01*
X0297412Y0003512D01*
X0297281Y0003374D01*
X0297146Y0003239D01*
X0297008Y0003108D01*
X0296867Y0002980D01*
X0296723Y0002856D01*
X0296577Y0002735D01*
X0296427Y0002617D01*
X0296274Y0002504D01*
X0296119Y0002394D01*
X0295961Y0002288D01*
X0295801Y0002185D01*
X0295638Y0002087D01*
X0295473Y0001992D01*
X0295305Y0001902D01*
X0295136Y0001816D01*
X0294964Y0001733D01*
X0294791Y0001655D01*
X0294615Y0001581D01*
X0294438Y0001512D01*
X0294259Y0001446D01*
X0294079Y0001385D01*
X0293898Y0001329D01*
X0293715Y0001277D01*
X0293530Y0001229D01*
X0293345Y0001186D01*
X0293159Y0001147D01*
X0292972Y0001112D01*
X0292784Y0001083D01*
X0292595Y0001057D01*
X0292406Y0001037D01*
X0292216Y0001021D01*
X0292026Y0001009D01*
X0291836Y0001002D01*
X0291646Y0001000D01*
X0254112Y0001000D01*
X0253946Y0001121D01*
X0253776Y0001238D01*
X0253605Y0001350D01*
X0253430Y0001459D01*
X0253253Y0001563D01*
X0253074Y0001663D01*
X0252892Y0001758D01*
X0252707Y0001849D01*
X0252521Y0001936D01*
X0252333Y0002018D01*
X0252143Y0002095D01*
X0251950Y0002168D01*
X0251757Y0002236D01*
X0251561Y0002300D01*
X0251364Y0002359D01*
X0251166Y0002413D01*
X0250967Y0002462D01*
X0250766Y0002506D01*
X0250564Y0002546D01*
X0250362Y0002580D01*
X0250159Y0002610D01*
X0249955Y0002635D01*
X0249750Y0002655D01*
X0249545Y0002669D01*
X0249340Y0002679D01*
X0249135Y0002684D01*
X0248929Y0002684D01*
X0248724Y0002679D01*
X0248519Y0002669D01*
X0248314Y0002655D01*
X0248109Y0002635D01*
X0247905Y0002610D01*
X0247702Y0002580D01*
X0247500Y0002546D01*
X0247298Y0002506D01*
X0247097Y0002462D01*
X0246898Y0002413D01*
X0246700Y0002359D01*
X0246503Y0002300D01*
X0246307Y0002236D01*
X0246114Y0002168D01*
X0245921Y0002095D01*
X0245731Y0002018D01*
X0245543Y0001936D01*
X0245357Y0001849D01*
X0245172Y0001758D01*
X0244990Y0001663D01*
X0244811Y0001563D01*
X0244634Y0001459D01*
X0244459Y0001350D01*
X0244288Y0001238D01*
X0244118Y0001121D01*
X0243952Y0001000D01*
X0227405Y0001000D01*
X0227215Y0001002D01*
X0227025Y0001009D01*
X0226835Y0001021D01*
X0226645Y0001037D01*
X0226456Y0001057D01*
X0226267Y0001083D01*
X0226079Y0001112D01*
X0225892Y0001147D01*
X0225706Y0001186D01*
X0225521Y0001229D01*
X0225336Y0001277D01*
X0225153Y0001329D01*
X0224972Y0001385D01*
X0224792Y0001446D01*
X0224613Y0001512D01*
X0224436Y0001581D01*
X0224260Y0001655D01*
X0224087Y0001733D01*
X0223915Y0001816D01*
X0223746Y0001902D01*
X0223578Y0001992D01*
X0223413Y0002087D01*
X0223250Y0002185D01*
X0223090Y0002288D01*
X0222932Y0002394D01*
X0222777Y0002504D01*
X0222624Y0002617D01*
X0222474Y0002735D01*
X0222328Y0002856D01*
X0222184Y0002980D01*
X0222043Y0003108D01*
X0221905Y0003239D01*
X0221770Y0003374D01*
X0221639Y0003512D01*
X0221511Y0003653D01*
X0221387Y0003797D01*
X0221266Y0003943D01*
X0221148Y0004093D01*
X0221035Y0004246D01*
X0220925Y0004401D01*
X0220819Y0004559D01*
X0220716Y0004719D01*
X0220618Y0004882D01*
X0220523Y0005047D01*
X0220433Y0005215D01*
X0220347Y0005384D01*
X0220264Y0005556D01*
X0220186Y0005729D01*
X0220112Y0005905D01*
X0220043Y0006082D01*
X0219977Y0006261D01*
X0219916Y0006441D01*
X0219860Y0006622D01*
X0219808Y0006805D01*
X0219760Y0006990D01*
X0219717Y0007175D01*
X0219678Y0007361D01*
X0219643Y0007548D01*
X0219614Y0007736D01*
X0219588Y0007925D01*
X0219568Y0008114D01*
X0219552Y0008304D01*
X0219540Y0008494D01*
X0219533Y0008684D01*
X0219531Y0008874D01*
X0219531Y0049211D01*
X0121052Y0049211D01*
X0121052Y0008874D01*
X0121050Y0008684D01*
X0121043Y0008494D01*
X0121031Y0008304D01*
X0121015Y0008114D01*
X0120995Y0007925D01*
X0120969Y0007736D01*
X0120940Y0007548D01*
X0120905Y0007361D01*
X0120866Y0007175D01*
X0120823Y0006990D01*
X0120775Y0006805D01*
X0120723Y0006622D01*
X0120667Y0006441D01*
X0120606Y0006261D01*
X0120540Y0006082D01*
X0120471Y0005905D01*
X0120397Y0005729D01*
X0120319Y0005556D01*
X0120236Y0005384D01*
X0120150Y0005215D01*
X0120060Y0005047D01*
X0119965Y0004882D01*
X0119867Y0004719D01*
X0119764Y0004559D01*
X0119658Y0004401D01*
X0119548Y0004246D01*
X0119435Y0004093D01*
X0119317Y0003943D01*
X0119196Y0003797D01*
X0119072Y0003653D01*
X0118944Y0003512D01*
X0118813Y0003374D01*
X0118678Y0003239D01*
X0118540Y0003108D01*
X0118399Y0002980D01*
X0118255Y0002856D01*
X0118109Y0002735D01*
X0117959Y0002617D01*
X0117806Y0002504D01*
X0117651Y0002394D01*
X0117493Y0002288D01*
X0117333Y0002185D01*
X0117170Y0002087D01*
X0117005Y0001992D01*
X0116837Y0001902D01*
X0116668Y0001816D01*
X0116496Y0001733D01*
X0116323Y0001655D01*
X0116147Y0001581D01*
X0115970Y0001512D01*
X0115791Y0001446D01*
X0115611Y0001385D01*
X0115430Y0001329D01*
X0115247Y0001277D01*
X0115062Y0001229D01*
X0114877Y0001186D01*
X0114691Y0001147D01*
X0114504Y0001112D01*
X0114316Y0001083D01*
X0114127Y0001057D01*
X0113938Y0001037D01*
X0113748Y0001021D01*
X0113558Y0001009D01*
X0113368Y0001002D01*
X0113178Y0001000D01*
X0096632Y0001000D01*
X0096466Y0001121D01*
X0096296Y0001238D01*
X0096125Y0001350D01*
X0095950Y0001459D01*
X0095773Y0001563D01*
X0095594Y0001663D01*
X0095412Y0001758D01*
X0095227Y0001849D01*
X0095041Y0001936D01*
X0094853Y0002018D01*
X0094663Y0002095D01*
X0094470Y0002168D01*
X0094277Y0002236D01*
X0094081Y0002300D01*
X0093884Y0002359D01*
X0093686Y0002413D01*
X0093487Y0002462D01*
X0093286Y0002506D01*
X0093084Y0002546D01*
X0092882Y0002580D01*
X0092679Y0002610D01*
X0092475Y0002635D01*
X0092270Y0002655D01*
X0092065Y0002669D01*
X0091860Y0002679D01*
X0091655Y0002684D01*
X0091449Y0002684D01*
X0091244Y0002679D01*
X0091039Y0002669D01*
X0090834Y0002655D01*
X0090629Y0002635D01*
X0090425Y0002610D01*
X0090222Y0002580D01*
X0090020Y0002546D01*
X0089818Y0002506D01*
X0089617Y0002462D01*
X0089418Y0002413D01*
X0089220Y0002359D01*
X0089023Y0002300D01*
X0088827Y0002236D01*
X0088634Y0002168D01*
X0088441Y0002095D01*
X0088251Y0002018D01*
X0088063Y0001936D01*
X0087877Y0001849D01*
X0087692Y0001758D01*
X0087510Y0001663D01*
X0087331Y0001563D01*
X0087154Y0001459D01*
X0086979Y0001350D01*
X0086808Y0001238D01*
X0086638Y0001121D01*
X0086472Y0001000D01*
X0048937Y0001000D01*
X0048747Y0001002D01*
X0048557Y0001009D01*
X0048367Y0001021D01*
X0048177Y0001037D01*
X0047988Y0001057D01*
X0047799Y0001083D01*
X0047611Y0001112D01*
X0047424Y0001147D01*
X0047238Y0001186D01*
X0047053Y0001229D01*
X0046868Y0001277D01*
X0046685Y0001329D01*
X0046504Y0001385D01*
X0046324Y0001446D01*
X0046145Y0001512D01*
X0045968Y0001581D01*
X0045792Y0001655D01*
X0045619Y0001733D01*
X0045447Y0001816D01*
X0045278Y0001902D01*
X0045110Y0001992D01*
X0044945Y0002087D01*
X0044782Y0002185D01*
X0044622Y0002288D01*
X0044464Y0002394D01*
X0044309Y0002504D01*
X0044156Y0002617D01*
X0044006Y0002735D01*
X0043860Y0002856D01*
X0043716Y0002980D01*
X0043575Y0003108D01*
X0043437Y0003239D01*
X0043302Y0003374D01*
X0043171Y0003512D01*
X0043043Y0003653D01*
X0042919Y0003797D01*
X0042798Y0003943D01*
X0042680Y0004093D01*
X0042567Y0004246D01*
X0042457Y0004401D01*
X0042351Y0004559D01*
X0042248Y0004719D01*
X0042150Y0004882D01*
X0042055Y0005047D01*
X0041965Y0005215D01*
X0041879Y0005384D01*
X0041796Y0005556D01*
X0041718Y0005729D01*
X0041644Y0005905D01*
X0041575Y0006082D01*
X0041509Y0006261D01*
X0041448Y0006441D01*
X0041392Y0006622D01*
X0041340Y0006805D01*
X0041292Y0006990D01*
X0041249Y0007175D01*
X0041210Y0007361D01*
X0041175Y0007548D01*
X0041146Y0007736D01*
X0041120Y0007925D01*
X0041100Y0008114D01*
X0041084Y0008304D01*
X0041072Y0008494D01*
X0041065Y0008684D01*
X0041063Y0008874D01*
X0058739Y0011457D02*
X0058741Y0011572D01*
X0058747Y0011686D01*
X0058757Y0011800D01*
X0058771Y0011914D01*
X0058789Y0012027D01*
X0058810Y0012139D01*
X0058836Y0012251D01*
X0058865Y0012362D01*
X0058899Y0012471D01*
X0058936Y0012580D01*
X0058977Y0012687D01*
X0059021Y0012792D01*
X0059069Y0012896D01*
X0059121Y0012998D01*
X0059176Y0013099D01*
X0059235Y0013197D01*
X0059297Y0013293D01*
X0059363Y0013387D01*
X0059431Y0013479D01*
X0059503Y0013568D01*
X0059578Y0013655D01*
X0059655Y0013739D01*
X0059736Y0013821D01*
X0059820Y0013899D01*
X0059906Y0013975D01*
X0059994Y0014047D01*
X0060085Y0014117D01*
X0060179Y0014183D01*
X0060275Y0014246D01*
X0060372Y0014305D01*
X0060472Y0014361D01*
X0060574Y0014414D01*
X0060678Y0014463D01*
X0060783Y0014509D01*
X0060889Y0014550D01*
X0060997Y0014588D01*
X0061107Y0014623D01*
X0061217Y0014653D01*
X0061329Y0014680D01*
X0061441Y0014702D01*
X0061554Y0014721D01*
X0061667Y0014736D01*
X0061782Y0014747D01*
X0061896Y0014754D01*
X0062010Y0014757D01*
X0062125Y0014756D01*
X0062239Y0014751D01*
X0062354Y0014742D01*
X0062467Y0014729D01*
X0062581Y0014712D01*
X0062693Y0014691D01*
X0062805Y0014667D01*
X0062916Y0014638D01*
X0063026Y0014606D01*
X0063135Y0014570D01*
X0063242Y0014530D01*
X0063348Y0014486D01*
X0063452Y0014439D01*
X0063555Y0014388D01*
X0063656Y0014334D01*
X0063755Y0014276D01*
X0063851Y0014215D01*
X0063946Y0014150D01*
X0064038Y0014082D01*
X0064128Y0014011D01*
X0064216Y0013937D01*
X0064301Y0013860D01*
X0064383Y0013780D01*
X0064462Y0013698D01*
X0064538Y0013612D01*
X0064611Y0013524D01*
X0064682Y0013434D01*
X0064749Y0013341D01*
X0064812Y0013245D01*
X0064873Y0013148D01*
X0064930Y0013049D01*
X0064983Y0012948D01*
X0065033Y0012844D01*
X0065080Y0012740D01*
X0065122Y0012633D01*
X0065161Y0012526D01*
X0065196Y0012417D01*
X0065228Y0012306D01*
X0065255Y0012195D01*
X0065279Y0012083D01*
X0065299Y0011970D01*
X0065315Y0011857D01*
X0065327Y0011743D01*
X0065335Y0011629D01*
X0065339Y0011514D01*
X0065339Y0011400D01*
X0065335Y0011285D01*
X0065327Y0011171D01*
X0065315Y0011057D01*
X0065299Y0010944D01*
X0065279Y0010831D01*
X0065255Y0010719D01*
X0065228Y0010608D01*
X0065196Y0010497D01*
X0065161Y0010388D01*
X0065122Y0010281D01*
X0065080Y0010174D01*
X0065033Y0010070D01*
X0064983Y0009966D01*
X0064930Y0009865D01*
X0064873Y0009766D01*
X0064812Y0009669D01*
X0064749Y0009573D01*
X0064682Y0009480D01*
X0064611Y0009390D01*
X0064538Y0009302D01*
X0064462Y0009216D01*
X0064383Y0009134D01*
X0064301Y0009054D01*
X0064216Y0008977D01*
X0064128Y0008903D01*
X0064038Y0008832D01*
X0063946Y0008764D01*
X0063851Y0008699D01*
X0063755Y0008638D01*
X0063656Y0008580D01*
X0063555Y0008526D01*
X0063452Y0008475D01*
X0063348Y0008428D01*
X0063242Y0008384D01*
X0063135Y0008344D01*
X0063026Y0008308D01*
X0062916Y0008276D01*
X0062805Y0008247D01*
X0062693Y0008223D01*
X0062581Y0008202D01*
X0062467Y0008185D01*
X0062354Y0008172D01*
X0062239Y0008163D01*
X0062125Y0008158D01*
X0062010Y0008157D01*
X0061896Y0008160D01*
X0061782Y0008167D01*
X0061667Y0008178D01*
X0061554Y0008193D01*
X0061441Y0008212D01*
X0061329Y0008234D01*
X0061217Y0008261D01*
X0061107Y0008291D01*
X0060997Y0008326D01*
X0060889Y0008364D01*
X0060783Y0008405D01*
X0060678Y0008451D01*
X0060574Y0008500D01*
X0060472Y0008553D01*
X0060372Y0008609D01*
X0060275Y0008668D01*
X0060179Y0008731D01*
X0060085Y0008797D01*
X0059994Y0008867D01*
X0059906Y0008939D01*
X0059820Y0009015D01*
X0059736Y0009093D01*
X0059655Y0009175D01*
X0059578Y0009259D01*
X0059503Y0009346D01*
X0059431Y0009435D01*
X0059363Y0009527D01*
X0059297Y0009621D01*
X0059235Y0009717D01*
X0059176Y0009815D01*
X0059121Y0009916D01*
X0059069Y0010018D01*
X0059021Y0010122D01*
X0058977Y0010227D01*
X0058936Y0010334D01*
X0058899Y0010443D01*
X0058865Y0010552D01*
X0058836Y0010663D01*
X0058810Y0010775D01*
X0058789Y0010887D01*
X0058771Y0011000D01*
X0058757Y0011114D01*
X0058747Y0011228D01*
X0058741Y0011342D01*
X0058739Y0011457D01*
X0107739Y0011457D02*
X0107741Y0011572D01*
X0107747Y0011686D01*
X0107757Y0011800D01*
X0107771Y0011914D01*
X0107789Y0012027D01*
X0107810Y0012139D01*
X0107836Y0012251D01*
X0107865Y0012362D01*
X0107899Y0012471D01*
X0107936Y0012580D01*
X0107977Y0012687D01*
X0108021Y0012792D01*
X0108069Y0012896D01*
X0108121Y0012998D01*
X0108176Y0013099D01*
X0108235Y0013197D01*
X0108297Y0013293D01*
X0108363Y0013387D01*
X0108431Y0013479D01*
X0108503Y0013568D01*
X0108578Y0013655D01*
X0108655Y0013739D01*
X0108736Y0013821D01*
X0108820Y0013899D01*
X0108906Y0013975D01*
X0108994Y0014047D01*
X0109085Y0014117D01*
X0109179Y0014183D01*
X0109275Y0014246D01*
X0109372Y0014305D01*
X0109472Y0014361D01*
X0109574Y0014414D01*
X0109678Y0014463D01*
X0109783Y0014509D01*
X0109889Y0014550D01*
X0109997Y0014588D01*
X0110107Y0014623D01*
X0110217Y0014653D01*
X0110329Y0014680D01*
X0110441Y0014702D01*
X0110554Y0014721D01*
X0110667Y0014736D01*
X0110782Y0014747D01*
X0110896Y0014754D01*
X0111010Y0014757D01*
X0111125Y0014756D01*
X0111239Y0014751D01*
X0111354Y0014742D01*
X0111467Y0014729D01*
X0111581Y0014712D01*
X0111693Y0014691D01*
X0111805Y0014667D01*
X0111916Y0014638D01*
X0112026Y0014606D01*
X0112135Y0014570D01*
X0112242Y0014530D01*
X0112348Y0014486D01*
X0112452Y0014439D01*
X0112555Y0014388D01*
X0112656Y0014334D01*
X0112755Y0014276D01*
X0112851Y0014215D01*
X0112946Y0014150D01*
X0113038Y0014082D01*
X0113128Y0014011D01*
X0113216Y0013937D01*
X0113301Y0013860D01*
X0113383Y0013780D01*
X0113462Y0013698D01*
X0113538Y0013612D01*
X0113611Y0013524D01*
X0113682Y0013434D01*
X0113749Y0013341D01*
X0113812Y0013245D01*
X0113873Y0013148D01*
X0113930Y0013049D01*
X0113983Y0012948D01*
X0114033Y0012844D01*
X0114080Y0012740D01*
X0114122Y0012633D01*
X0114161Y0012526D01*
X0114196Y0012417D01*
X0114228Y0012306D01*
X0114255Y0012195D01*
X0114279Y0012083D01*
X0114299Y0011970D01*
X0114315Y0011857D01*
X0114327Y0011743D01*
X0114335Y0011629D01*
X0114339Y0011514D01*
X0114339Y0011400D01*
X0114335Y0011285D01*
X0114327Y0011171D01*
X0114315Y0011057D01*
X0114299Y0010944D01*
X0114279Y0010831D01*
X0114255Y0010719D01*
X0114228Y0010608D01*
X0114196Y0010497D01*
X0114161Y0010388D01*
X0114122Y0010281D01*
X0114080Y0010174D01*
X0114033Y0010070D01*
X0113983Y0009966D01*
X0113930Y0009865D01*
X0113873Y0009766D01*
X0113812Y0009669D01*
X0113749Y0009573D01*
X0113682Y0009480D01*
X0113611Y0009390D01*
X0113538Y0009302D01*
X0113462Y0009216D01*
X0113383Y0009134D01*
X0113301Y0009054D01*
X0113216Y0008977D01*
X0113128Y0008903D01*
X0113038Y0008832D01*
X0112946Y0008764D01*
X0112851Y0008699D01*
X0112755Y0008638D01*
X0112656Y0008580D01*
X0112555Y0008526D01*
X0112452Y0008475D01*
X0112348Y0008428D01*
X0112242Y0008384D01*
X0112135Y0008344D01*
X0112026Y0008308D01*
X0111916Y0008276D01*
X0111805Y0008247D01*
X0111693Y0008223D01*
X0111581Y0008202D01*
X0111467Y0008185D01*
X0111354Y0008172D01*
X0111239Y0008163D01*
X0111125Y0008158D01*
X0111010Y0008157D01*
X0110896Y0008160D01*
X0110782Y0008167D01*
X0110667Y0008178D01*
X0110554Y0008193D01*
X0110441Y0008212D01*
X0110329Y0008234D01*
X0110217Y0008261D01*
X0110107Y0008291D01*
X0109997Y0008326D01*
X0109889Y0008364D01*
X0109783Y0008405D01*
X0109678Y0008451D01*
X0109574Y0008500D01*
X0109472Y0008553D01*
X0109372Y0008609D01*
X0109275Y0008668D01*
X0109179Y0008731D01*
X0109085Y0008797D01*
X0108994Y0008867D01*
X0108906Y0008939D01*
X0108820Y0009015D01*
X0108736Y0009093D01*
X0108655Y0009175D01*
X0108578Y0009259D01*
X0108503Y0009346D01*
X0108431Y0009435D01*
X0108363Y0009527D01*
X0108297Y0009621D01*
X0108235Y0009717D01*
X0108176Y0009815D01*
X0108121Y0009916D01*
X0108069Y0010018D01*
X0108021Y0010122D01*
X0107977Y0010227D01*
X0107936Y0010334D01*
X0107899Y0010443D01*
X0107865Y0010552D01*
X0107836Y0010663D01*
X0107810Y0010775D01*
X0107789Y0010887D01*
X0107771Y0011000D01*
X0107757Y0011114D01*
X0107747Y0011228D01*
X0107741Y0011342D01*
X0107739Y0011457D01*
X0083039Y0026185D02*
X0083042Y0026394D01*
X0083049Y0026602D01*
X0083062Y0026810D01*
X0083080Y0027018D01*
X0083103Y0027225D01*
X0083131Y0027432D01*
X0083164Y0027638D01*
X0083202Y0027843D01*
X0083246Y0028047D01*
X0083294Y0028250D01*
X0083347Y0028452D01*
X0083405Y0028652D01*
X0083468Y0028851D01*
X0083536Y0029049D01*
X0083609Y0029244D01*
X0083686Y0029438D01*
X0083768Y0029630D01*
X0083855Y0029819D01*
X0083947Y0030007D01*
X0084043Y0030192D01*
X0084143Y0030375D01*
X0084248Y0030555D01*
X0084358Y0030732D01*
X0084472Y0030907D01*
X0084590Y0031079D01*
X0084712Y0031248D01*
X0084838Y0031414D01*
X0084968Y0031577D01*
X0085103Y0031737D01*
X0085241Y0031893D01*
X0085383Y0032046D01*
X0085529Y0032195D01*
X0085678Y0032341D01*
X0085831Y0032483D01*
X0085987Y0032621D01*
X0086147Y0032756D01*
X0086310Y0032886D01*
X0086476Y0033012D01*
X0086645Y0033134D01*
X0086817Y0033252D01*
X0086992Y0033366D01*
X0087169Y0033476D01*
X0087349Y0033581D01*
X0087532Y0033681D01*
X0087717Y0033777D01*
X0087905Y0033869D01*
X0088094Y0033956D01*
X0088286Y0034038D01*
X0088480Y0034115D01*
X0088675Y0034188D01*
X0088873Y0034256D01*
X0089072Y0034319D01*
X0089272Y0034377D01*
X0089474Y0034430D01*
X0089677Y0034478D01*
X0089881Y0034522D01*
X0090086Y0034560D01*
X0090292Y0034593D01*
X0090499Y0034621D01*
X0090706Y0034644D01*
X0090914Y0034662D01*
X0091122Y0034675D01*
X0091330Y0034682D01*
X0091539Y0034685D01*
X0091748Y0034682D01*
X0091956Y0034675D01*
X0092164Y0034662D01*
X0092372Y0034644D01*
X0092579Y0034621D01*
X0092786Y0034593D01*
X0092992Y0034560D01*
X0093197Y0034522D01*
X0093401Y0034478D01*
X0093604Y0034430D01*
X0093806Y0034377D01*
X0094006Y0034319D01*
X0094205Y0034256D01*
X0094403Y0034188D01*
X0094598Y0034115D01*
X0094792Y0034038D01*
X0094984Y0033956D01*
X0095173Y0033869D01*
X0095361Y0033777D01*
X0095546Y0033681D01*
X0095729Y0033581D01*
X0095909Y0033476D01*
X0096086Y0033366D01*
X0096261Y0033252D01*
X0096433Y0033134D01*
X0096602Y0033012D01*
X0096768Y0032886D01*
X0096931Y0032756D01*
X0097091Y0032621D01*
X0097247Y0032483D01*
X0097400Y0032341D01*
X0097549Y0032195D01*
X0097695Y0032046D01*
X0097837Y0031893D01*
X0097975Y0031737D01*
X0098110Y0031577D01*
X0098240Y0031414D01*
X0098366Y0031248D01*
X0098488Y0031079D01*
X0098606Y0030907D01*
X0098720Y0030732D01*
X0098830Y0030555D01*
X0098935Y0030375D01*
X0099035Y0030192D01*
X0099131Y0030007D01*
X0099223Y0029819D01*
X0099310Y0029630D01*
X0099392Y0029438D01*
X0099469Y0029244D01*
X0099542Y0029049D01*
X0099610Y0028851D01*
X0099673Y0028652D01*
X0099731Y0028452D01*
X0099784Y0028250D01*
X0099832Y0028047D01*
X0099876Y0027843D01*
X0099914Y0027638D01*
X0099947Y0027432D01*
X0099975Y0027225D01*
X0099998Y0027018D01*
X0100016Y0026810D01*
X0100029Y0026602D01*
X0100036Y0026394D01*
X0100039Y0026185D01*
X0100036Y0025976D01*
X0100029Y0025768D01*
X0100016Y0025560D01*
X0099998Y0025352D01*
X0099975Y0025145D01*
X0099947Y0024938D01*
X0099914Y0024732D01*
X0099876Y0024527D01*
X0099832Y0024323D01*
X0099784Y0024120D01*
X0099731Y0023918D01*
X0099673Y0023718D01*
X0099610Y0023519D01*
X0099542Y0023321D01*
X0099469Y0023126D01*
X0099392Y0022932D01*
X0099310Y0022740D01*
X0099223Y0022551D01*
X0099131Y0022363D01*
X0099035Y0022178D01*
X0098935Y0021995D01*
X0098830Y0021815D01*
X0098720Y0021638D01*
X0098606Y0021463D01*
X0098488Y0021291D01*
X0098366Y0021122D01*
X0098240Y0020956D01*
X0098110Y0020793D01*
X0097975Y0020633D01*
X0097837Y0020477D01*
X0097695Y0020324D01*
X0097549Y0020175D01*
X0097400Y0020029D01*
X0097247Y0019887D01*
X0097091Y0019749D01*
X0096931Y0019614D01*
X0096768Y0019484D01*
X0096602Y0019358D01*
X0096433Y0019236D01*
X0096261Y0019118D01*
X0096086Y0019004D01*
X0095909Y0018894D01*
X0095729Y0018789D01*
X0095546Y0018689D01*
X0095361Y0018593D01*
X0095173Y0018501D01*
X0094984Y0018414D01*
X0094792Y0018332D01*
X0094598Y0018255D01*
X0094403Y0018182D01*
X0094205Y0018114D01*
X0094006Y0018051D01*
X0093806Y0017993D01*
X0093604Y0017940D01*
X0093401Y0017892D01*
X0093197Y0017848D01*
X0092992Y0017810D01*
X0092786Y0017777D01*
X0092579Y0017749D01*
X0092372Y0017726D01*
X0092164Y0017708D01*
X0091956Y0017695D01*
X0091748Y0017688D01*
X0091539Y0017685D01*
X0091330Y0017688D01*
X0091122Y0017695D01*
X0090914Y0017708D01*
X0090706Y0017726D01*
X0090499Y0017749D01*
X0090292Y0017777D01*
X0090086Y0017810D01*
X0089881Y0017848D01*
X0089677Y0017892D01*
X0089474Y0017940D01*
X0089272Y0017993D01*
X0089072Y0018051D01*
X0088873Y0018114D01*
X0088675Y0018182D01*
X0088480Y0018255D01*
X0088286Y0018332D01*
X0088094Y0018414D01*
X0087905Y0018501D01*
X0087717Y0018593D01*
X0087532Y0018689D01*
X0087349Y0018789D01*
X0087169Y0018894D01*
X0086992Y0019004D01*
X0086817Y0019118D01*
X0086645Y0019236D01*
X0086476Y0019358D01*
X0086310Y0019484D01*
X0086147Y0019614D01*
X0085987Y0019749D01*
X0085831Y0019887D01*
X0085678Y0020029D01*
X0085529Y0020175D01*
X0085383Y0020324D01*
X0085241Y0020477D01*
X0085103Y0020633D01*
X0084968Y0020793D01*
X0084838Y0020956D01*
X0084712Y0021122D01*
X0084590Y0021291D01*
X0084472Y0021463D01*
X0084358Y0021638D01*
X0084248Y0021815D01*
X0084143Y0021995D01*
X0084043Y0022178D01*
X0083947Y0022363D01*
X0083855Y0022551D01*
X0083768Y0022740D01*
X0083686Y0022932D01*
X0083609Y0023126D01*
X0083536Y0023321D01*
X0083468Y0023519D01*
X0083405Y0023718D01*
X0083347Y0023918D01*
X0083294Y0024120D01*
X0083246Y0024323D01*
X0083202Y0024527D01*
X0083164Y0024732D01*
X0083131Y0024938D01*
X0083103Y0025145D01*
X0083080Y0025352D01*
X0083062Y0025560D01*
X0083049Y0025768D01*
X0083042Y0025976D01*
X0083039Y0026185D01*
X0013666Y0033279D02*
X0013668Y0033382D01*
X0013674Y0033485D01*
X0013684Y0033587D01*
X0013698Y0033690D01*
X0013716Y0033791D01*
X0013738Y0033892D01*
X0013763Y0033992D01*
X0013793Y0034090D01*
X0013826Y0034188D01*
X0013863Y0034284D01*
X0013904Y0034378D01*
X0013949Y0034471D01*
X0013997Y0034563D01*
X0014048Y0034652D01*
X0014103Y0034739D01*
X0014161Y0034824D01*
X0014223Y0034907D01*
X0014288Y0034987D01*
X0014355Y0035065D01*
X0014426Y0035139D01*
X0014500Y0035212D01*
X0014576Y0035281D01*
X0014655Y0035347D01*
X0014736Y0035410D01*
X0014820Y0035470D01*
X0014906Y0035527D01*
X0014994Y0035580D01*
X0015085Y0035630D01*
X0015177Y0035676D01*
X0015271Y0035719D01*
X0015366Y0035758D01*
X0015463Y0035793D01*
X0015561Y0035824D01*
X0015660Y0035852D01*
X0015761Y0035876D01*
X0015862Y0035896D01*
X0015963Y0035912D01*
X0016066Y0035924D01*
X0016169Y0035932D01*
X0016271Y0035936D01*
X0016375Y0035936D01*
X0016477Y0035932D01*
X0016580Y0035924D01*
X0016683Y0035912D01*
X0016784Y0035896D01*
X0016885Y0035876D01*
X0016986Y0035852D01*
X0017085Y0035824D01*
X0017183Y0035793D01*
X0017280Y0035758D01*
X0017375Y0035719D01*
X0017469Y0035676D01*
X0017561Y0035630D01*
X0017651Y0035580D01*
X0017740Y0035527D01*
X0017826Y0035470D01*
X0017910Y0035410D01*
X0017991Y0035347D01*
X0018070Y0035281D01*
X0018146Y0035212D01*
X0018220Y0035139D01*
X0018291Y0035065D01*
X0018358Y0034987D01*
X0018423Y0034907D01*
X0018485Y0034824D01*
X0018543Y0034739D01*
X0018598Y0034652D01*
X0018649Y0034563D01*
X0018697Y0034471D01*
X0018742Y0034378D01*
X0018783Y0034284D01*
X0018820Y0034188D01*
X0018853Y0034090D01*
X0018883Y0033992D01*
X0018908Y0033892D01*
X0018930Y0033791D01*
X0018948Y0033690D01*
X0018962Y0033587D01*
X0018972Y0033485D01*
X0018978Y0033382D01*
X0018980Y0033279D01*
X0018978Y0033176D01*
X0018972Y0033073D01*
X0018962Y0032971D01*
X0018948Y0032868D01*
X0018930Y0032767D01*
X0018908Y0032666D01*
X0018883Y0032566D01*
X0018853Y0032468D01*
X0018820Y0032370D01*
X0018783Y0032274D01*
X0018742Y0032180D01*
X0018697Y0032087D01*
X0018649Y0031995D01*
X0018598Y0031906D01*
X0018543Y0031819D01*
X0018485Y0031734D01*
X0018423Y0031651D01*
X0018358Y0031571D01*
X0018291Y0031493D01*
X0018220Y0031419D01*
X0018146Y0031346D01*
X0018070Y0031277D01*
X0017991Y0031211D01*
X0017910Y0031148D01*
X0017826Y0031088D01*
X0017740Y0031031D01*
X0017652Y0030978D01*
X0017561Y0030928D01*
X0017469Y0030882D01*
X0017375Y0030839D01*
X0017280Y0030800D01*
X0017183Y0030765D01*
X0017085Y0030734D01*
X0016986Y0030706D01*
X0016885Y0030682D01*
X0016784Y0030662D01*
X0016683Y0030646D01*
X0016580Y0030634D01*
X0016477Y0030626D01*
X0016375Y0030622D01*
X0016271Y0030622D01*
X0016169Y0030626D01*
X0016066Y0030634D01*
X0015963Y0030646D01*
X0015862Y0030662D01*
X0015761Y0030682D01*
X0015660Y0030706D01*
X0015561Y0030734D01*
X0015463Y0030765D01*
X0015366Y0030800D01*
X0015271Y0030839D01*
X0015177Y0030882D01*
X0015085Y0030928D01*
X0014995Y0030978D01*
X0014906Y0031031D01*
X0014820Y0031088D01*
X0014736Y0031148D01*
X0014655Y0031211D01*
X0014576Y0031277D01*
X0014500Y0031346D01*
X0014426Y0031419D01*
X0014355Y0031493D01*
X0014288Y0031571D01*
X0014223Y0031651D01*
X0014161Y0031734D01*
X0014103Y0031819D01*
X0014048Y0031906D01*
X0013997Y0031995D01*
X0013949Y0032087D01*
X0013904Y0032180D01*
X0013863Y0032274D01*
X0013826Y0032370D01*
X0013793Y0032468D01*
X0013763Y0032566D01*
X0013738Y0032666D01*
X0013716Y0032767D01*
X0013698Y0032868D01*
X0013684Y0032971D01*
X0013674Y0033073D01*
X0013668Y0033176D01*
X0013666Y0033279D01*
X0025252Y0045349D02*
X0025254Y0045473D01*
X0025260Y0045596D01*
X0025269Y0045720D01*
X0025283Y0045842D01*
X0025300Y0045965D01*
X0025322Y0046087D01*
X0025347Y0046208D01*
X0025376Y0046328D01*
X0025408Y0046447D01*
X0025445Y0046566D01*
X0025485Y0046683D01*
X0025528Y0046798D01*
X0025576Y0046913D01*
X0025627Y0047025D01*
X0025681Y0047136D01*
X0025739Y0047246D01*
X0025800Y0047353D01*
X0025865Y0047459D01*
X0025933Y0047562D01*
X0026004Y0047663D01*
X0026078Y0047762D01*
X0026155Y0047859D01*
X0026236Y0047953D01*
X0026319Y0048044D01*
X0026405Y0048133D01*
X0026494Y0048219D01*
X0026585Y0048302D01*
X0026679Y0048383D01*
X0026776Y0048460D01*
X0026875Y0048534D01*
X0026976Y0048605D01*
X0027079Y0048673D01*
X0027185Y0048738D01*
X0027292Y0048799D01*
X0027402Y0048857D01*
X0027513Y0048911D01*
X0027625Y0048962D01*
X0027740Y0049010D01*
X0027855Y0049053D01*
X0027972Y0049093D01*
X0028091Y0049130D01*
X0028210Y0049162D01*
X0028330Y0049191D01*
X0028451Y0049216D01*
X0028573Y0049238D01*
X0028696Y0049255D01*
X0028818Y0049269D01*
X0028942Y0049278D01*
X0029065Y0049284D01*
X0029189Y0049286D01*
X0058739Y0054457D02*
X0058741Y0054572D01*
X0058747Y0054686D01*
X0058757Y0054800D01*
X0058771Y0054914D01*
X0058789Y0055027D01*
X0058810Y0055139D01*
X0058836Y0055251D01*
X0058865Y0055362D01*
X0058899Y0055471D01*
X0058936Y0055580D01*
X0058977Y0055687D01*
X0059021Y0055792D01*
X0059069Y0055896D01*
X0059121Y0055998D01*
X0059176Y0056099D01*
X0059235Y0056197D01*
X0059297Y0056293D01*
X0059363Y0056387D01*
X0059431Y0056479D01*
X0059503Y0056568D01*
X0059578Y0056655D01*
X0059655Y0056739D01*
X0059736Y0056821D01*
X0059820Y0056899D01*
X0059906Y0056975D01*
X0059994Y0057047D01*
X0060085Y0057117D01*
X0060179Y0057183D01*
X0060275Y0057246D01*
X0060372Y0057305D01*
X0060472Y0057361D01*
X0060574Y0057414D01*
X0060678Y0057463D01*
X0060783Y0057509D01*
X0060889Y0057550D01*
X0060997Y0057588D01*
X0061107Y0057623D01*
X0061217Y0057653D01*
X0061329Y0057680D01*
X0061441Y0057702D01*
X0061554Y0057721D01*
X0061667Y0057736D01*
X0061782Y0057747D01*
X0061896Y0057754D01*
X0062010Y0057757D01*
X0062125Y0057756D01*
X0062239Y0057751D01*
X0062354Y0057742D01*
X0062467Y0057729D01*
X0062581Y0057712D01*
X0062693Y0057691D01*
X0062805Y0057667D01*
X0062916Y0057638D01*
X0063026Y0057606D01*
X0063135Y0057570D01*
X0063242Y0057530D01*
X0063348Y0057486D01*
X0063452Y0057439D01*
X0063555Y0057388D01*
X0063656Y0057334D01*
X0063755Y0057276D01*
X0063851Y0057215D01*
X0063946Y0057150D01*
X0064038Y0057082D01*
X0064128Y0057011D01*
X0064216Y0056937D01*
X0064301Y0056860D01*
X0064383Y0056780D01*
X0064462Y0056698D01*
X0064538Y0056612D01*
X0064611Y0056524D01*
X0064682Y0056434D01*
X0064749Y0056341D01*
X0064812Y0056245D01*
X0064873Y0056148D01*
X0064930Y0056049D01*
X0064983Y0055948D01*
X0065033Y0055844D01*
X0065080Y0055740D01*
X0065122Y0055633D01*
X0065161Y0055526D01*
X0065196Y0055417D01*
X0065228Y0055306D01*
X0065255Y0055195D01*
X0065279Y0055083D01*
X0065299Y0054970D01*
X0065315Y0054857D01*
X0065327Y0054743D01*
X0065335Y0054629D01*
X0065339Y0054514D01*
X0065339Y0054400D01*
X0065335Y0054285D01*
X0065327Y0054171D01*
X0065315Y0054057D01*
X0065299Y0053944D01*
X0065279Y0053831D01*
X0065255Y0053719D01*
X0065228Y0053608D01*
X0065196Y0053497D01*
X0065161Y0053388D01*
X0065122Y0053281D01*
X0065080Y0053174D01*
X0065033Y0053070D01*
X0064983Y0052966D01*
X0064930Y0052865D01*
X0064873Y0052766D01*
X0064812Y0052669D01*
X0064749Y0052573D01*
X0064682Y0052480D01*
X0064611Y0052390D01*
X0064538Y0052302D01*
X0064462Y0052216D01*
X0064383Y0052134D01*
X0064301Y0052054D01*
X0064216Y0051977D01*
X0064128Y0051903D01*
X0064038Y0051832D01*
X0063946Y0051764D01*
X0063851Y0051699D01*
X0063755Y0051638D01*
X0063656Y0051580D01*
X0063555Y0051526D01*
X0063452Y0051475D01*
X0063348Y0051428D01*
X0063242Y0051384D01*
X0063135Y0051344D01*
X0063026Y0051308D01*
X0062916Y0051276D01*
X0062805Y0051247D01*
X0062693Y0051223D01*
X0062581Y0051202D01*
X0062467Y0051185D01*
X0062354Y0051172D01*
X0062239Y0051163D01*
X0062125Y0051158D01*
X0062010Y0051157D01*
X0061896Y0051160D01*
X0061782Y0051167D01*
X0061667Y0051178D01*
X0061554Y0051193D01*
X0061441Y0051212D01*
X0061329Y0051234D01*
X0061217Y0051261D01*
X0061107Y0051291D01*
X0060997Y0051326D01*
X0060889Y0051364D01*
X0060783Y0051405D01*
X0060678Y0051451D01*
X0060574Y0051500D01*
X0060472Y0051553D01*
X0060372Y0051609D01*
X0060275Y0051668D01*
X0060179Y0051731D01*
X0060085Y0051797D01*
X0059994Y0051867D01*
X0059906Y0051939D01*
X0059820Y0052015D01*
X0059736Y0052093D01*
X0059655Y0052175D01*
X0059578Y0052259D01*
X0059503Y0052346D01*
X0059431Y0052435D01*
X0059363Y0052527D01*
X0059297Y0052621D01*
X0059235Y0052717D01*
X0059176Y0052815D01*
X0059121Y0052916D01*
X0059069Y0053018D01*
X0059021Y0053122D01*
X0058977Y0053227D01*
X0058936Y0053334D01*
X0058899Y0053443D01*
X0058865Y0053552D01*
X0058836Y0053663D01*
X0058810Y0053775D01*
X0058789Y0053887D01*
X0058771Y0054000D01*
X0058757Y0054114D01*
X0058747Y0054228D01*
X0058741Y0054342D01*
X0058739Y0054457D01*
X0121052Y0049211D02*
X0123406Y0049211D01*
X0217177Y0049211D01*
X0219531Y0049211D01*
X0275267Y0054583D02*
X0275269Y0054698D01*
X0275275Y0054812D01*
X0275285Y0054926D01*
X0275299Y0055040D01*
X0275317Y0055153D01*
X0275338Y0055265D01*
X0275364Y0055377D01*
X0275393Y0055488D01*
X0275427Y0055597D01*
X0275464Y0055706D01*
X0275505Y0055813D01*
X0275549Y0055918D01*
X0275597Y0056022D01*
X0275649Y0056124D01*
X0275704Y0056225D01*
X0275763Y0056323D01*
X0275825Y0056419D01*
X0275891Y0056513D01*
X0275959Y0056605D01*
X0276031Y0056694D01*
X0276106Y0056781D01*
X0276183Y0056865D01*
X0276264Y0056947D01*
X0276348Y0057025D01*
X0276434Y0057101D01*
X0276522Y0057173D01*
X0276613Y0057243D01*
X0276707Y0057309D01*
X0276803Y0057372D01*
X0276900Y0057431D01*
X0277000Y0057487D01*
X0277102Y0057540D01*
X0277206Y0057589D01*
X0277311Y0057635D01*
X0277417Y0057676D01*
X0277525Y0057714D01*
X0277635Y0057749D01*
X0277745Y0057779D01*
X0277857Y0057806D01*
X0277969Y0057828D01*
X0278082Y0057847D01*
X0278195Y0057862D01*
X0278310Y0057873D01*
X0278424Y0057880D01*
X0278538Y0057883D01*
X0278653Y0057882D01*
X0278767Y0057877D01*
X0278882Y0057868D01*
X0278995Y0057855D01*
X0279109Y0057838D01*
X0279221Y0057817D01*
X0279333Y0057793D01*
X0279444Y0057764D01*
X0279554Y0057732D01*
X0279663Y0057696D01*
X0279770Y0057656D01*
X0279876Y0057612D01*
X0279980Y0057565D01*
X0280083Y0057514D01*
X0280184Y0057460D01*
X0280283Y0057402D01*
X0280379Y0057341D01*
X0280474Y0057276D01*
X0280566Y0057208D01*
X0280656Y0057137D01*
X0280744Y0057063D01*
X0280829Y0056986D01*
X0280911Y0056906D01*
X0280990Y0056824D01*
X0281066Y0056738D01*
X0281139Y0056650D01*
X0281210Y0056560D01*
X0281277Y0056467D01*
X0281340Y0056371D01*
X0281401Y0056274D01*
X0281458Y0056175D01*
X0281511Y0056074D01*
X0281561Y0055970D01*
X0281608Y0055866D01*
X0281650Y0055759D01*
X0281689Y0055652D01*
X0281724Y0055543D01*
X0281756Y0055432D01*
X0281783Y0055321D01*
X0281807Y0055209D01*
X0281827Y0055096D01*
X0281843Y0054983D01*
X0281855Y0054869D01*
X0281863Y0054755D01*
X0281867Y0054640D01*
X0281867Y0054526D01*
X0281863Y0054411D01*
X0281855Y0054297D01*
X0281843Y0054183D01*
X0281827Y0054070D01*
X0281807Y0053957D01*
X0281783Y0053845D01*
X0281756Y0053734D01*
X0281724Y0053623D01*
X0281689Y0053514D01*
X0281650Y0053407D01*
X0281608Y0053300D01*
X0281561Y0053196D01*
X0281511Y0053092D01*
X0281458Y0052991D01*
X0281401Y0052892D01*
X0281340Y0052795D01*
X0281277Y0052699D01*
X0281210Y0052606D01*
X0281139Y0052516D01*
X0281066Y0052428D01*
X0280990Y0052342D01*
X0280911Y0052260D01*
X0280829Y0052180D01*
X0280744Y0052103D01*
X0280656Y0052029D01*
X0280566Y0051958D01*
X0280474Y0051890D01*
X0280379Y0051825D01*
X0280283Y0051764D01*
X0280184Y0051706D01*
X0280083Y0051652D01*
X0279980Y0051601D01*
X0279876Y0051554D01*
X0279770Y0051510D01*
X0279663Y0051470D01*
X0279554Y0051434D01*
X0279444Y0051402D01*
X0279333Y0051373D01*
X0279221Y0051349D01*
X0279109Y0051328D01*
X0278995Y0051311D01*
X0278882Y0051298D01*
X0278767Y0051289D01*
X0278653Y0051284D01*
X0278538Y0051283D01*
X0278424Y0051286D01*
X0278310Y0051293D01*
X0278195Y0051304D01*
X0278082Y0051319D01*
X0277969Y0051338D01*
X0277857Y0051360D01*
X0277745Y0051387D01*
X0277635Y0051417D01*
X0277525Y0051452D01*
X0277417Y0051490D01*
X0277311Y0051531D01*
X0277206Y0051577D01*
X0277102Y0051626D01*
X0277000Y0051679D01*
X0276900Y0051735D01*
X0276803Y0051794D01*
X0276707Y0051857D01*
X0276613Y0051923D01*
X0276522Y0051993D01*
X0276434Y0052065D01*
X0276348Y0052141D01*
X0276264Y0052219D01*
X0276183Y0052301D01*
X0276106Y0052385D01*
X0276031Y0052472D01*
X0275959Y0052561D01*
X0275891Y0052653D01*
X0275825Y0052747D01*
X0275763Y0052843D01*
X0275704Y0052941D01*
X0275649Y0053042D01*
X0275597Y0053144D01*
X0275549Y0053248D01*
X0275505Y0053353D01*
X0275464Y0053460D01*
X0275427Y0053569D01*
X0275393Y0053678D01*
X0275364Y0053789D01*
X0275338Y0053901D01*
X0275317Y0054013D01*
X0275299Y0054126D01*
X0275285Y0054240D01*
X0275275Y0054354D01*
X0275269Y0054468D01*
X0275267Y0054583D01*
X0320874Y0047996D02*
X0320876Y0048099D01*
X0320882Y0048202D01*
X0320892Y0048304D01*
X0320906Y0048407D01*
X0320924Y0048508D01*
X0320946Y0048609D01*
X0320971Y0048709D01*
X0321001Y0048807D01*
X0321034Y0048905D01*
X0321071Y0049001D01*
X0321112Y0049095D01*
X0321157Y0049188D01*
X0321205Y0049280D01*
X0321256Y0049369D01*
X0321311Y0049456D01*
X0321369Y0049541D01*
X0321431Y0049624D01*
X0321496Y0049704D01*
X0321563Y0049782D01*
X0321634Y0049856D01*
X0321708Y0049929D01*
X0321784Y0049998D01*
X0321863Y0050064D01*
X0321944Y0050127D01*
X0322028Y0050187D01*
X0322114Y0050244D01*
X0322202Y0050297D01*
X0322293Y0050347D01*
X0322385Y0050393D01*
X0322479Y0050436D01*
X0322574Y0050475D01*
X0322671Y0050510D01*
X0322769Y0050541D01*
X0322868Y0050569D01*
X0322969Y0050593D01*
X0323070Y0050613D01*
X0323171Y0050629D01*
X0323274Y0050641D01*
X0323377Y0050649D01*
X0323479Y0050653D01*
X0323583Y0050653D01*
X0323685Y0050649D01*
X0323788Y0050641D01*
X0323891Y0050629D01*
X0323992Y0050613D01*
X0324093Y0050593D01*
X0324194Y0050569D01*
X0324293Y0050541D01*
X0324391Y0050510D01*
X0324488Y0050475D01*
X0324583Y0050436D01*
X0324677Y0050393D01*
X0324769Y0050347D01*
X0324859Y0050297D01*
X0324948Y0050244D01*
X0325034Y0050187D01*
X0325118Y0050127D01*
X0325199Y0050064D01*
X0325278Y0049998D01*
X0325354Y0049929D01*
X0325428Y0049856D01*
X0325499Y0049782D01*
X0325566Y0049704D01*
X0325631Y0049624D01*
X0325693Y0049541D01*
X0325751Y0049456D01*
X0325806Y0049369D01*
X0325857Y0049280D01*
X0325905Y0049188D01*
X0325950Y0049095D01*
X0325991Y0049001D01*
X0326028Y0048905D01*
X0326061Y0048807D01*
X0326091Y0048709D01*
X0326116Y0048609D01*
X0326138Y0048508D01*
X0326156Y0048407D01*
X0326170Y0048304D01*
X0326180Y0048202D01*
X0326186Y0048099D01*
X0326188Y0047996D01*
X0326186Y0047893D01*
X0326180Y0047790D01*
X0326170Y0047688D01*
X0326156Y0047585D01*
X0326138Y0047484D01*
X0326116Y0047383D01*
X0326091Y0047283D01*
X0326061Y0047185D01*
X0326028Y0047087D01*
X0325991Y0046991D01*
X0325950Y0046897D01*
X0325905Y0046804D01*
X0325857Y0046712D01*
X0325806Y0046623D01*
X0325751Y0046536D01*
X0325693Y0046451D01*
X0325631Y0046368D01*
X0325566Y0046288D01*
X0325499Y0046210D01*
X0325428Y0046136D01*
X0325354Y0046063D01*
X0325278Y0045994D01*
X0325199Y0045928D01*
X0325118Y0045865D01*
X0325034Y0045805D01*
X0324948Y0045748D01*
X0324860Y0045695D01*
X0324769Y0045645D01*
X0324677Y0045599D01*
X0324583Y0045556D01*
X0324488Y0045517D01*
X0324391Y0045482D01*
X0324293Y0045451D01*
X0324194Y0045423D01*
X0324093Y0045399D01*
X0323992Y0045379D01*
X0323891Y0045363D01*
X0323788Y0045351D01*
X0323685Y0045343D01*
X0323583Y0045339D01*
X0323479Y0045339D01*
X0323377Y0045343D01*
X0323274Y0045351D01*
X0323171Y0045363D01*
X0323070Y0045379D01*
X0322969Y0045399D01*
X0322868Y0045423D01*
X0322769Y0045451D01*
X0322671Y0045482D01*
X0322574Y0045517D01*
X0322479Y0045556D01*
X0322385Y0045599D01*
X0322293Y0045645D01*
X0322203Y0045695D01*
X0322114Y0045748D01*
X0322028Y0045805D01*
X0321944Y0045865D01*
X0321863Y0045928D01*
X0321784Y0045994D01*
X0321708Y0046063D01*
X0321634Y0046136D01*
X0321563Y0046210D01*
X0321496Y0046288D01*
X0321431Y0046368D01*
X0321369Y0046451D01*
X0321311Y0046536D01*
X0321256Y0046623D01*
X0321205Y0046712D01*
X0321157Y0046804D01*
X0321112Y0046897D01*
X0321071Y0046991D01*
X0321034Y0047087D01*
X0321001Y0047185D01*
X0320971Y0047283D01*
X0320946Y0047383D01*
X0320924Y0047484D01*
X0320906Y0047585D01*
X0320892Y0047688D01*
X0320882Y0047790D01*
X0320876Y0047893D01*
X0320874Y0047996D01*
X0320874Y0033279D02*
X0320876Y0033382D01*
X0320882Y0033485D01*
X0320892Y0033587D01*
X0320906Y0033690D01*
X0320924Y0033791D01*
X0320946Y0033892D01*
X0320971Y0033992D01*
X0321001Y0034090D01*
X0321034Y0034188D01*
X0321071Y0034284D01*
X0321112Y0034378D01*
X0321157Y0034471D01*
X0321205Y0034563D01*
X0321256Y0034652D01*
X0321311Y0034739D01*
X0321369Y0034824D01*
X0321431Y0034907D01*
X0321496Y0034987D01*
X0321563Y0035065D01*
X0321634Y0035139D01*
X0321708Y0035212D01*
X0321784Y0035281D01*
X0321863Y0035347D01*
X0321944Y0035410D01*
X0322028Y0035470D01*
X0322114Y0035527D01*
X0322202Y0035580D01*
X0322293Y0035630D01*
X0322385Y0035676D01*
X0322479Y0035719D01*
X0322574Y0035758D01*
X0322671Y0035793D01*
X0322769Y0035824D01*
X0322868Y0035852D01*
X0322969Y0035876D01*
X0323070Y0035896D01*
X0323171Y0035912D01*
X0323274Y0035924D01*
X0323377Y0035932D01*
X0323479Y0035936D01*
X0323583Y0035936D01*
X0323685Y0035932D01*
X0323788Y0035924D01*
X0323891Y0035912D01*
X0323992Y0035896D01*
X0324093Y0035876D01*
X0324194Y0035852D01*
X0324293Y0035824D01*
X0324391Y0035793D01*
X0324488Y0035758D01*
X0324583Y0035719D01*
X0324677Y0035676D01*
X0324769Y0035630D01*
X0324859Y0035580D01*
X0324948Y0035527D01*
X0325034Y0035470D01*
X0325118Y0035410D01*
X0325199Y0035347D01*
X0325278Y0035281D01*
X0325354Y0035212D01*
X0325428Y0035139D01*
X0325499Y0035065D01*
X0325566Y0034987D01*
X0325631Y0034907D01*
X0325693Y0034824D01*
X0325751Y0034739D01*
X0325806Y0034652D01*
X0325857Y0034563D01*
X0325905Y0034471D01*
X0325950Y0034378D01*
X0325991Y0034284D01*
X0326028Y0034188D01*
X0326061Y0034090D01*
X0326091Y0033992D01*
X0326116Y0033892D01*
X0326138Y0033791D01*
X0326156Y0033690D01*
X0326170Y0033587D01*
X0326180Y0033485D01*
X0326186Y0033382D01*
X0326188Y0033279D01*
X0326186Y0033176D01*
X0326180Y0033073D01*
X0326170Y0032971D01*
X0326156Y0032868D01*
X0326138Y0032767D01*
X0326116Y0032666D01*
X0326091Y0032566D01*
X0326061Y0032468D01*
X0326028Y0032370D01*
X0325991Y0032274D01*
X0325950Y0032180D01*
X0325905Y0032087D01*
X0325857Y0031995D01*
X0325806Y0031906D01*
X0325751Y0031819D01*
X0325693Y0031734D01*
X0325631Y0031651D01*
X0325566Y0031571D01*
X0325499Y0031493D01*
X0325428Y0031419D01*
X0325354Y0031346D01*
X0325278Y0031277D01*
X0325199Y0031211D01*
X0325118Y0031148D01*
X0325034Y0031088D01*
X0324948Y0031031D01*
X0324860Y0030978D01*
X0324769Y0030928D01*
X0324677Y0030882D01*
X0324583Y0030839D01*
X0324488Y0030800D01*
X0324391Y0030765D01*
X0324293Y0030734D01*
X0324194Y0030706D01*
X0324093Y0030682D01*
X0323992Y0030662D01*
X0323891Y0030646D01*
X0323788Y0030634D01*
X0323685Y0030626D01*
X0323583Y0030622D01*
X0323479Y0030622D01*
X0323377Y0030626D01*
X0323274Y0030634D01*
X0323171Y0030646D01*
X0323070Y0030662D01*
X0322969Y0030682D01*
X0322868Y0030706D01*
X0322769Y0030734D01*
X0322671Y0030765D01*
X0322574Y0030800D01*
X0322479Y0030839D01*
X0322385Y0030882D01*
X0322293Y0030928D01*
X0322203Y0030978D01*
X0322114Y0031031D01*
X0322028Y0031088D01*
X0321944Y0031148D01*
X0321863Y0031211D01*
X0321784Y0031277D01*
X0321708Y0031346D01*
X0321634Y0031419D01*
X0321563Y0031493D01*
X0321496Y0031571D01*
X0321431Y0031651D01*
X0321369Y0031734D01*
X0321311Y0031819D01*
X0321256Y0031906D01*
X0321205Y0031995D01*
X0321157Y0032087D01*
X0321112Y0032180D01*
X0321071Y0032274D01*
X0321034Y0032370D01*
X0321001Y0032468D01*
X0320971Y0032566D01*
X0320946Y0032666D01*
X0320924Y0032767D01*
X0320906Y0032868D01*
X0320892Y0032971D01*
X0320882Y0033073D01*
X0320876Y0033176D01*
X0320874Y0033279D01*
X0240567Y0026311D02*
X0240570Y0026520D01*
X0240577Y0026728D01*
X0240590Y0026936D01*
X0240608Y0027144D01*
X0240631Y0027351D01*
X0240659Y0027558D01*
X0240692Y0027764D01*
X0240730Y0027969D01*
X0240774Y0028173D01*
X0240822Y0028376D01*
X0240875Y0028578D01*
X0240933Y0028778D01*
X0240996Y0028977D01*
X0241064Y0029175D01*
X0241137Y0029370D01*
X0241214Y0029564D01*
X0241296Y0029756D01*
X0241383Y0029945D01*
X0241475Y0030133D01*
X0241571Y0030318D01*
X0241671Y0030501D01*
X0241776Y0030681D01*
X0241886Y0030858D01*
X0242000Y0031033D01*
X0242118Y0031205D01*
X0242240Y0031374D01*
X0242366Y0031540D01*
X0242496Y0031703D01*
X0242631Y0031863D01*
X0242769Y0032019D01*
X0242911Y0032172D01*
X0243057Y0032321D01*
X0243206Y0032467D01*
X0243359Y0032609D01*
X0243515Y0032747D01*
X0243675Y0032882D01*
X0243838Y0033012D01*
X0244004Y0033138D01*
X0244173Y0033260D01*
X0244345Y0033378D01*
X0244520Y0033492D01*
X0244697Y0033602D01*
X0244877Y0033707D01*
X0245060Y0033807D01*
X0245245Y0033903D01*
X0245433Y0033995D01*
X0245622Y0034082D01*
X0245814Y0034164D01*
X0246008Y0034241D01*
X0246203Y0034314D01*
X0246401Y0034382D01*
X0246600Y0034445D01*
X0246800Y0034503D01*
X0247002Y0034556D01*
X0247205Y0034604D01*
X0247409Y0034648D01*
X0247614Y0034686D01*
X0247820Y0034719D01*
X0248027Y0034747D01*
X0248234Y0034770D01*
X0248442Y0034788D01*
X0248650Y0034801D01*
X0248858Y0034808D01*
X0249067Y0034811D01*
X0249276Y0034808D01*
X0249484Y0034801D01*
X0249692Y0034788D01*
X0249900Y0034770D01*
X0250107Y0034747D01*
X0250314Y0034719D01*
X0250520Y0034686D01*
X0250725Y0034648D01*
X0250929Y0034604D01*
X0251132Y0034556D01*
X0251334Y0034503D01*
X0251534Y0034445D01*
X0251733Y0034382D01*
X0251931Y0034314D01*
X0252126Y0034241D01*
X0252320Y0034164D01*
X0252512Y0034082D01*
X0252701Y0033995D01*
X0252889Y0033903D01*
X0253074Y0033807D01*
X0253257Y0033707D01*
X0253437Y0033602D01*
X0253614Y0033492D01*
X0253789Y0033378D01*
X0253961Y0033260D01*
X0254130Y0033138D01*
X0254296Y0033012D01*
X0254459Y0032882D01*
X0254619Y0032747D01*
X0254775Y0032609D01*
X0254928Y0032467D01*
X0255077Y0032321D01*
X0255223Y0032172D01*
X0255365Y0032019D01*
X0255503Y0031863D01*
X0255638Y0031703D01*
X0255768Y0031540D01*
X0255894Y0031374D01*
X0256016Y0031205D01*
X0256134Y0031033D01*
X0256248Y0030858D01*
X0256358Y0030681D01*
X0256463Y0030501D01*
X0256563Y0030318D01*
X0256659Y0030133D01*
X0256751Y0029945D01*
X0256838Y0029756D01*
X0256920Y0029564D01*
X0256997Y0029370D01*
X0257070Y0029175D01*
X0257138Y0028977D01*
X0257201Y0028778D01*
X0257259Y0028578D01*
X0257312Y0028376D01*
X0257360Y0028173D01*
X0257404Y0027969D01*
X0257442Y0027764D01*
X0257475Y0027558D01*
X0257503Y0027351D01*
X0257526Y0027144D01*
X0257544Y0026936D01*
X0257557Y0026728D01*
X0257564Y0026520D01*
X0257567Y0026311D01*
X0257564Y0026102D01*
X0257557Y0025894D01*
X0257544Y0025686D01*
X0257526Y0025478D01*
X0257503Y0025271D01*
X0257475Y0025064D01*
X0257442Y0024858D01*
X0257404Y0024653D01*
X0257360Y0024449D01*
X0257312Y0024246D01*
X0257259Y0024044D01*
X0257201Y0023844D01*
X0257138Y0023645D01*
X0257070Y0023447D01*
X0256997Y0023252D01*
X0256920Y0023058D01*
X0256838Y0022866D01*
X0256751Y0022677D01*
X0256659Y0022489D01*
X0256563Y0022304D01*
X0256463Y0022121D01*
X0256358Y0021941D01*
X0256248Y0021764D01*
X0256134Y0021589D01*
X0256016Y0021417D01*
X0255894Y0021248D01*
X0255768Y0021082D01*
X0255638Y0020919D01*
X0255503Y0020759D01*
X0255365Y0020603D01*
X0255223Y0020450D01*
X0255077Y0020301D01*
X0254928Y0020155D01*
X0254775Y0020013D01*
X0254619Y0019875D01*
X0254459Y0019740D01*
X0254296Y0019610D01*
X0254130Y0019484D01*
X0253961Y0019362D01*
X0253789Y0019244D01*
X0253614Y0019130D01*
X0253437Y0019020D01*
X0253257Y0018915D01*
X0253074Y0018815D01*
X0252889Y0018719D01*
X0252701Y0018627D01*
X0252512Y0018540D01*
X0252320Y0018458D01*
X0252126Y0018381D01*
X0251931Y0018308D01*
X0251733Y0018240D01*
X0251534Y0018177D01*
X0251334Y0018119D01*
X0251132Y0018066D01*
X0250929Y0018018D01*
X0250725Y0017974D01*
X0250520Y0017936D01*
X0250314Y0017903D01*
X0250107Y0017875D01*
X0249900Y0017852D01*
X0249692Y0017834D01*
X0249484Y0017821D01*
X0249276Y0017814D01*
X0249067Y0017811D01*
X0248858Y0017814D01*
X0248650Y0017821D01*
X0248442Y0017834D01*
X0248234Y0017852D01*
X0248027Y0017875D01*
X0247820Y0017903D01*
X0247614Y0017936D01*
X0247409Y0017974D01*
X0247205Y0018018D01*
X0247002Y0018066D01*
X0246800Y0018119D01*
X0246600Y0018177D01*
X0246401Y0018240D01*
X0246203Y0018308D01*
X0246008Y0018381D01*
X0245814Y0018458D01*
X0245622Y0018540D01*
X0245433Y0018627D01*
X0245245Y0018719D01*
X0245060Y0018815D01*
X0244877Y0018915D01*
X0244697Y0019020D01*
X0244520Y0019130D01*
X0244345Y0019244D01*
X0244173Y0019362D01*
X0244004Y0019484D01*
X0243838Y0019610D01*
X0243675Y0019740D01*
X0243515Y0019875D01*
X0243359Y0020013D01*
X0243206Y0020155D01*
X0243057Y0020301D01*
X0242911Y0020450D01*
X0242769Y0020603D01*
X0242631Y0020759D01*
X0242496Y0020919D01*
X0242366Y0021082D01*
X0242240Y0021248D01*
X0242118Y0021417D01*
X0242000Y0021589D01*
X0241886Y0021764D01*
X0241776Y0021941D01*
X0241671Y0022121D01*
X0241571Y0022304D01*
X0241475Y0022489D01*
X0241383Y0022677D01*
X0241296Y0022866D01*
X0241214Y0023058D01*
X0241137Y0023252D01*
X0241064Y0023447D01*
X0240996Y0023645D01*
X0240933Y0023844D01*
X0240875Y0024044D01*
X0240822Y0024246D01*
X0240774Y0024449D01*
X0240730Y0024653D01*
X0240692Y0024858D01*
X0240659Y0025064D01*
X0240631Y0025271D01*
X0240608Y0025478D01*
X0240590Y0025686D01*
X0240577Y0025894D01*
X0240570Y0026102D01*
X0240567Y0026311D01*
X0226267Y0011583D02*
X0226269Y0011698D01*
X0226275Y0011812D01*
X0226285Y0011926D01*
X0226299Y0012040D01*
X0226317Y0012153D01*
X0226338Y0012265D01*
X0226364Y0012377D01*
X0226393Y0012488D01*
X0226427Y0012597D01*
X0226464Y0012706D01*
X0226505Y0012813D01*
X0226549Y0012918D01*
X0226597Y0013022D01*
X0226649Y0013124D01*
X0226704Y0013225D01*
X0226763Y0013323D01*
X0226825Y0013419D01*
X0226891Y0013513D01*
X0226959Y0013605D01*
X0227031Y0013694D01*
X0227106Y0013781D01*
X0227183Y0013865D01*
X0227264Y0013947D01*
X0227348Y0014025D01*
X0227434Y0014101D01*
X0227522Y0014173D01*
X0227613Y0014243D01*
X0227707Y0014309D01*
X0227803Y0014372D01*
X0227900Y0014431D01*
X0228000Y0014487D01*
X0228102Y0014540D01*
X0228206Y0014589D01*
X0228311Y0014635D01*
X0228417Y0014676D01*
X0228525Y0014714D01*
X0228635Y0014749D01*
X0228745Y0014779D01*
X0228857Y0014806D01*
X0228969Y0014828D01*
X0229082Y0014847D01*
X0229195Y0014862D01*
X0229310Y0014873D01*
X0229424Y0014880D01*
X0229538Y0014883D01*
X0229653Y0014882D01*
X0229767Y0014877D01*
X0229882Y0014868D01*
X0229995Y0014855D01*
X0230109Y0014838D01*
X0230221Y0014817D01*
X0230333Y0014793D01*
X0230444Y0014764D01*
X0230554Y0014732D01*
X0230663Y0014696D01*
X0230770Y0014656D01*
X0230876Y0014612D01*
X0230980Y0014565D01*
X0231083Y0014514D01*
X0231184Y0014460D01*
X0231283Y0014402D01*
X0231379Y0014341D01*
X0231474Y0014276D01*
X0231566Y0014208D01*
X0231656Y0014137D01*
X0231744Y0014063D01*
X0231829Y0013986D01*
X0231911Y0013906D01*
X0231990Y0013824D01*
X0232066Y0013738D01*
X0232139Y0013650D01*
X0232210Y0013560D01*
X0232277Y0013467D01*
X0232340Y0013371D01*
X0232401Y0013274D01*
X0232458Y0013175D01*
X0232511Y0013074D01*
X0232561Y0012970D01*
X0232608Y0012866D01*
X0232650Y0012759D01*
X0232689Y0012652D01*
X0232724Y0012543D01*
X0232756Y0012432D01*
X0232783Y0012321D01*
X0232807Y0012209D01*
X0232827Y0012096D01*
X0232843Y0011983D01*
X0232855Y0011869D01*
X0232863Y0011755D01*
X0232867Y0011640D01*
X0232867Y0011526D01*
X0232863Y0011411D01*
X0232855Y0011297D01*
X0232843Y0011183D01*
X0232827Y0011070D01*
X0232807Y0010957D01*
X0232783Y0010845D01*
X0232756Y0010734D01*
X0232724Y0010623D01*
X0232689Y0010514D01*
X0232650Y0010407D01*
X0232608Y0010300D01*
X0232561Y0010196D01*
X0232511Y0010092D01*
X0232458Y0009991D01*
X0232401Y0009892D01*
X0232340Y0009795D01*
X0232277Y0009699D01*
X0232210Y0009606D01*
X0232139Y0009516D01*
X0232066Y0009428D01*
X0231990Y0009342D01*
X0231911Y0009260D01*
X0231829Y0009180D01*
X0231744Y0009103D01*
X0231656Y0009029D01*
X0231566Y0008958D01*
X0231474Y0008890D01*
X0231379Y0008825D01*
X0231283Y0008764D01*
X0231184Y0008706D01*
X0231083Y0008652D01*
X0230980Y0008601D01*
X0230876Y0008554D01*
X0230770Y0008510D01*
X0230663Y0008470D01*
X0230554Y0008434D01*
X0230444Y0008402D01*
X0230333Y0008373D01*
X0230221Y0008349D01*
X0230109Y0008328D01*
X0229995Y0008311D01*
X0229882Y0008298D01*
X0229767Y0008289D01*
X0229653Y0008284D01*
X0229538Y0008283D01*
X0229424Y0008286D01*
X0229310Y0008293D01*
X0229195Y0008304D01*
X0229082Y0008319D01*
X0228969Y0008338D01*
X0228857Y0008360D01*
X0228745Y0008387D01*
X0228635Y0008417D01*
X0228525Y0008452D01*
X0228417Y0008490D01*
X0228311Y0008531D01*
X0228206Y0008577D01*
X0228102Y0008626D01*
X0228000Y0008679D01*
X0227900Y0008735D01*
X0227803Y0008794D01*
X0227707Y0008857D01*
X0227613Y0008923D01*
X0227522Y0008993D01*
X0227434Y0009065D01*
X0227348Y0009141D01*
X0227264Y0009219D01*
X0227183Y0009301D01*
X0227106Y0009385D01*
X0227031Y0009472D01*
X0226959Y0009561D01*
X0226891Y0009653D01*
X0226825Y0009747D01*
X0226763Y0009843D01*
X0226704Y0009941D01*
X0226649Y0010042D01*
X0226597Y0010144D01*
X0226549Y0010248D01*
X0226505Y0010353D01*
X0226464Y0010460D01*
X0226427Y0010569D01*
X0226393Y0010678D01*
X0226364Y0010789D01*
X0226338Y0010901D01*
X0226317Y0011013D01*
X0226299Y0011126D01*
X0226285Y0011240D01*
X0226275Y0011354D01*
X0226269Y0011468D01*
X0226267Y0011583D01*
X0275267Y0011583D02*
X0275269Y0011698D01*
X0275275Y0011812D01*
X0275285Y0011926D01*
X0275299Y0012040D01*
X0275317Y0012153D01*
X0275338Y0012265D01*
X0275364Y0012377D01*
X0275393Y0012488D01*
X0275427Y0012597D01*
X0275464Y0012706D01*
X0275505Y0012813D01*
X0275549Y0012918D01*
X0275597Y0013022D01*
X0275649Y0013124D01*
X0275704Y0013225D01*
X0275763Y0013323D01*
X0275825Y0013419D01*
X0275891Y0013513D01*
X0275959Y0013605D01*
X0276031Y0013694D01*
X0276106Y0013781D01*
X0276183Y0013865D01*
X0276264Y0013947D01*
X0276348Y0014025D01*
X0276434Y0014101D01*
X0276522Y0014173D01*
X0276613Y0014243D01*
X0276707Y0014309D01*
X0276803Y0014372D01*
X0276900Y0014431D01*
X0277000Y0014487D01*
X0277102Y0014540D01*
X0277206Y0014589D01*
X0277311Y0014635D01*
X0277417Y0014676D01*
X0277525Y0014714D01*
X0277635Y0014749D01*
X0277745Y0014779D01*
X0277857Y0014806D01*
X0277969Y0014828D01*
X0278082Y0014847D01*
X0278195Y0014862D01*
X0278310Y0014873D01*
X0278424Y0014880D01*
X0278538Y0014883D01*
X0278653Y0014882D01*
X0278767Y0014877D01*
X0278882Y0014868D01*
X0278995Y0014855D01*
X0279109Y0014838D01*
X0279221Y0014817D01*
X0279333Y0014793D01*
X0279444Y0014764D01*
X0279554Y0014732D01*
X0279663Y0014696D01*
X0279770Y0014656D01*
X0279876Y0014612D01*
X0279980Y0014565D01*
X0280083Y0014514D01*
X0280184Y0014460D01*
X0280283Y0014402D01*
X0280379Y0014341D01*
X0280474Y0014276D01*
X0280566Y0014208D01*
X0280656Y0014137D01*
X0280744Y0014063D01*
X0280829Y0013986D01*
X0280911Y0013906D01*
X0280990Y0013824D01*
X0281066Y0013738D01*
X0281139Y0013650D01*
X0281210Y0013560D01*
X0281277Y0013467D01*
X0281340Y0013371D01*
X0281401Y0013274D01*
X0281458Y0013175D01*
X0281511Y0013074D01*
X0281561Y0012970D01*
X0281608Y0012866D01*
X0281650Y0012759D01*
X0281689Y0012652D01*
X0281724Y0012543D01*
X0281756Y0012432D01*
X0281783Y0012321D01*
X0281807Y0012209D01*
X0281827Y0012096D01*
X0281843Y0011983D01*
X0281855Y0011869D01*
X0281863Y0011755D01*
X0281867Y0011640D01*
X0281867Y0011526D01*
X0281863Y0011411D01*
X0281855Y0011297D01*
X0281843Y0011183D01*
X0281827Y0011070D01*
X0281807Y0010957D01*
X0281783Y0010845D01*
X0281756Y0010734D01*
X0281724Y0010623D01*
X0281689Y0010514D01*
X0281650Y0010407D01*
X0281608Y0010300D01*
X0281561Y0010196D01*
X0281511Y0010092D01*
X0281458Y0009991D01*
X0281401Y0009892D01*
X0281340Y0009795D01*
X0281277Y0009699D01*
X0281210Y0009606D01*
X0281139Y0009516D01*
X0281066Y0009428D01*
X0280990Y0009342D01*
X0280911Y0009260D01*
X0280829Y0009180D01*
X0280744Y0009103D01*
X0280656Y0009029D01*
X0280566Y0008958D01*
X0280474Y0008890D01*
X0280379Y0008825D01*
X0280283Y0008764D01*
X0280184Y0008706D01*
X0280083Y0008652D01*
X0279980Y0008601D01*
X0279876Y0008554D01*
X0279770Y0008510D01*
X0279663Y0008470D01*
X0279554Y0008434D01*
X0279444Y0008402D01*
X0279333Y0008373D01*
X0279221Y0008349D01*
X0279109Y0008328D01*
X0278995Y0008311D01*
X0278882Y0008298D01*
X0278767Y0008289D01*
X0278653Y0008284D01*
X0278538Y0008283D01*
X0278424Y0008286D01*
X0278310Y0008293D01*
X0278195Y0008304D01*
X0278082Y0008319D01*
X0277969Y0008338D01*
X0277857Y0008360D01*
X0277745Y0008387D01*
X0277635Y0008417D01*
X0277525Y0008452D01*
X0277417Y0008490D01*
X0277311Y0008531D01*
X0277206Y0008577D01*
X0277102Y0008626D01*
X0277000Y0008679D01*
X0276900Y0008735D01*
X0276803Y0008794D01*
X0276707Y0008857D01*
X0276613Y0008923D01*
X0276522Y0008993D01*
X0276434Y0009065D01*
X0276348Y0009141D01*
X0276264Y0009219D01*
X0276183Y0009301D01*
X0276106Y0009385D01*
X0276031Y0009472D01*
X0275959Y0009561D01*
X0275891Y0009653D01*
X0275825Y0009747D01*
X0275763Y0009843D01*
X0275704Y0009941D01*
X0275649Y0010042D01*
X0275597Y0010144D01*
X0275549Y0010248D01*
X0275505Y0010353D01*
X0275464Y0010460D01*
X0275427Y0010569D01*
X0275393Y0010678D01*
X0275364Y0010789D01*
X0275338Y0010901D01*
X0275317Y0011013D01*
X0275299Y0011126D01*
X0275285Y0011240D01*
X0275275Y0011354D01*
X0275269Y0011468D01*
X0275267Y0011583D01*
D11*
X0306118Y0061882D03*
X0168874Y0061882D03*
X0036512Y0061882D03*
D12*
X0016323Y0047996D03*
X0016323Y0033279D03*
X0323531Y0033279D03*
X0323531Y0047996D03*
D13*
X0278567Y0054583D03*
X0278567Y0011583D03*
X0229567Y0011583D03*
X0111039Y0011457D03*
X0062039Y0011457D03*
X0062039Y0054457D03*
D14*
X0062520Y0068079D03*
X0124307Y0068000D03*
X0216299Y0068126D03*
X0278087Y0068205D03*
D15*
X0249067Y0026311D03*
X0091539Y0026185D03*
D16*
X0047417Y0021760D02*
X0047417Y0014083D01*
X0047417Y0039279D02*
X0047417Y0046957D01*
X0134031Y0057075D02*
X0134031Y0064752D01*
X0206575Y0064878D02*
X0206575Y0057201D01*
X0293189Y0047083D02*
X0293189Y0039405D01*
X0293189Y0021886D02*
X0293189Y0014209D01*
M02*
