G75*
%MOIN*%
%OFA0B0*%
%FSLAX25Y25*%
%IPPOS*%
%LPD*%
%AMOC8*
5,1,8,0,0,1.08239X$1,22.5*
%
%ADD10C,0.15811*%
%ADD11R,0.02500X0.12008*%
%ADD12C,0.05550*%
%ADD13R,0.05550X0.05550*%
%ADD14C,0.05550*%
%ADD15R,0.08858X0.08858*%
%ADD16C,0.09449*%
%ADD17R,0.12795X0.12795*%
%ADD18C,0.12795*%
%ADD19R,0.05906X0.05118*%
%ADD20R,0.04600X0.06300*%
%ADD21C,0.09449*%
%ADD22R,0.04000X0.10500*%
%ADD23R,0.10500X0.04000*%
%ADD24R,0.06102X0.02362*%
%ADD25C,0.01654*%
%ADD26C,0.01000*%
%ADD27R,0.06300X0.04600*%
%ADD28R,0.10630X0.06299*%
%ADD29C,0.02400*%
%ADD30R,0.06496X0.06496*%
%ADD31C,0.04400*%
%ADD32C,0.01600*%
D10*
X0060748Y0056217D03*
X0060748Y0229445D03*
X0253661Y0229445D03*
X0253661Y0056217D03*
D11*
X0044207Y0175374D03*
X0039965Y0175374D03*
X0031325Y0175531D03*
X0027083Y0175531D03*
X0027024Y0189772D03*
X0031266Y0189772D03*
X0039961Y0189811D03*
X0044203Y0189811D03*
X0015406Y0096606D03*
X0011163Y0096606D03*
X0011152Y0082213D03*
X0015394Y0082213D03*
X0015073Y0061185D03*
X0019315Y0061185D03*
X0019232Y0046535D03*
X0014990Y0046535D03*
D12*
X0028031Y0110384D02*
X0028031Y0115934D01*
X0090100Y0138602D02*
X0095650Y0138602D01*
D13*
X0107627Y0117913D03*
X0071221Y0138602D03*
X0056918Y0158467D03*
X0028031Y0134813D03*
D14*
X0057627Y0117913D03*
X0106918Y0158467D03*
D15*
X0081938Y0204254D03*
X0082607Y0072125D03*
D16*
X0147901Y0052281D03*
X0166499Y0037750D03*
X0164305Y0142160D03*
X0145706Y0156691D03*
D17*
X0128450Y0112876D03*
X0128568Y0045024D03*
D18*
X0128568Y0066480D03*
X0128568Y0087937D03*
X0128450Y0134333D03*
X0128450Y0155790D03*
D19*
X0055480Y0134571D03*
X0055480Y0127091D03*
X0044441Y0101323D03*
X0044441Y0093843D03*
D20*
X0033346Y0204500D03*
X0027346Y0204500D03*
D21*
X0183906Y0187768D02*
X0193354Y0187768D01*
X0194059Y0085835D02*
X0184610Y0085835D01*
D22*
X0042425Y0202870D03*
D23*
X0011280Y0163287D03*
X0023992Y0098610D03*
X0033602Y0092409D03*
X0059961Y0253756D03*
X0206165Y0253141D03*
D24*
X0043367Y0149684D03*
X0044913Y0071406D03*
D25*
X0047137Y0076052D02*
X0047137Y0076760D01*
X0047137Y0076052D02*
X0042689Y0076052D01*
X0042689Y0076760D01*
X0047137Y0076760D01*
X0047137Y0081052D02*
X0047137Y0081760D01*
X0047137Y0081052D02*
X0042689Y0081052D01*
X0042689Y0081760D01*
X0047137Y0081760D01*
X0047019Y0086052D02*
X0047019Y0086760D01*
X0047019Y0086052D02*
X0042571Y0086052D01*
X0042571Y0086760D01*
X0047019Y0086760D01*
X0031981Y0079397D02*
X0031981Y0078689D01*
X0031981Y0079397D02*
X0036429Y0079397D01*
X0036429Y0078689D01*
X0031981Y0078689D01*
X0021430Y0076760D02*
X0021430Y0076052D01*
X0021430Y0076760D02*
X0025878Y0076760D01*
X0025878Y0076052D01*
X0021430Y0076052D01*
X0021430Y0071799D02*
X0021430Y0071091D01*
X0021430Y0071799D02*
X0025878Y0071799D01*
X0025878Y0071091D01*
X0021430Y0071091D01*
X0021430Y0081052D02*
X0021430Y0081760D01*
X0025878Y0081760D01*
X0025878Y0081052D01*
X0021430Y0081052D01*
X0021430Y0086052D02*
X0021430Y0086760D01*
X0025878Y0086760D01*
X0025878Y0086052D01*
X0021430Y0086052D01*
X0019883Y0149370D02*
X0019883Y0150078D01*
X0024331Y0150078D01*
X0024331Y0149370D01*
X0019883Y0149370D01*
X0019883Y0154330D02*
X0019883Y0155038D01*
X0024331Y0155038D01*
X0024331Y0154330D01*
X0019883Y0154330D01*
X0019883Y0159330D02*
X0019883Y0160038D01*
X0024331Y0160038D01*
X0024331Y0159330D01*
X0019883Y0159330D01*
X0019883Y0164330D02*
X0019883Y0165038D01*
X0024331Y0165038D01*
X0024331Y0164330D01*
X0019883Y0164330D01*
X0030434Y0157676D02*
X0030434Y0156968D01*
X0030434Y0157676D02*
X0034882Y0157676D01*
X0034882Y0156968D01*
X0030434Y0156968D01*
X0045591Y0155038D02*
X0045591Y0154330D01*
X0041143Y0154330D01*
X0041143Y0155038D01*
X0045591Y0155038D01*
X0045591Y0159330D02*
X0045591Y0160038D01*
X0045591Y0159330D02*
X0041143Y0159330D01*
X0041143Y0160038D01*
X0045591Y0160038D01*
X0045473Y0164330D02*
X0045473Y0165038D01*
X0045473Y0164330D02*
X0041025Y0164330D01*
X0041025Y0165038D01*
X0045473Y0165038D01*
D26*
X0026346Y0038220D02*
X0026346Y0026945D01*
X0028476Y0024815D01*
X0132476Y0024815D01*
X0135976Y0028315D01*
X0135976Y0037232D01*
X0135670Y0036926D01*
X0121466Y0036926D01*
X0120470Y0037922D01*
X0120470Y0042115D01*
X0114224Y0042115D01*
X0114224Y0040363D01*
X0113228Y0039367D01*
X0105323Y0039367D01*
X0104328Y0040363D01*
X0104328Y0048267D01*
X0105323Y0049263D01*
X0113228Y0049263D01*
X0114224Y0048267D01*
X0114224Y0046515D01*
X0120470Y0046515D01*
X0120470Y0052125D01*
X0121466Y0053121D01*
X0135670Y0053121D01*
X0135976Y0052815D01*
X0135976Y0063204D01*
X0135433Y0061893D01*
X0133155Y0059615D01*
X0130178Y0058383D01*
X0126957Y0058383D01*
X0123981Y0059615D01*
X0121703Y0061893D01*
X0120470Y0064870D01*
X0120470Y0068091D01*
X0121703Y0071067D01*
X0123981Y0073345D01*
X0126957Y0074578D01*
X0130178Y0074578D01*
X0133155Y0073345D01*
X0135433Y0071067D01*
X0135976Y0069756D01*
X0135976Y0105203D01*
X0135551Y0104779D01*
X0123463Y0104779D01*
X0119096Y0100412D01*
X0117807Y0099123D01*
X0049094Y0099123D01*
X0049094Y0098060D01*
X0048617Y0097583D01*
X0049094Y0097106D01*
X0049094Y0090579D01*
X0048098Y0089583D01*
X0040784Y0089583D01*
X0040552Y0089815D01*
X0040552Y0089705D01*
X0039557Y0088709D01*
X0029069Y0088709D01*
X0028175Y0087816D01*
X0028405Y0087262D01*
X0028405Y0085549D01*
X0028020Y0084620D01*
X0027309Y0083909D01*
X0027301Y0083906D01*
X0027309Y0083902D01*
X0028020Y0083191D01*
X0028405Y0082262D01*
X0028405Y0080549D01*
X0028020Y0079620D01*
X0027309Y0078909D01*
X0027301Y0078906D01*
X0027309Y0078902D01*
X0028020Y0078191D01*
X0028405Y0077262D01*
X0028405Y0075549D01*
X0028020Y0074620D01*
X0027325Y0073925D01*
X0028020Y0073231D01*
X0028405Y0072302D01*
X0028405Y0070588D01*
X0028020Y0069659D01*
X0027309Y0068948D01*
X0026381Y0068564D01*
X0021594Y0068564D01*
X0022265Y0067893D01*
X0022265Y0066715D01*
X0022852Y0066715D01*
X0023918Y0066273D01*
X0024734Y0065458D01*
X0025176Y0064392D01*
X0025176Y0063238D01*
X0024734Y0062172D01*
X0023918Y0061356D01*
X0022852Y0060915D01*
X0022487Y0060915D01*
X0022265Y0060693D01*
X0022265Y0054477D01*
X0021607Y0053819D01*
X0022182Y0053244D01*
X0022182Y0039827D01*
X0021571Y0039216D01*
X0025350Y0039216D01*
X0026346Y0038220D01*
X0026335Y0038230D02*
X0120470Y0038230D01*
X0120470Y0039229D02*
X0021584Y0039229D01*
X0022182Y0040227D02*
X0104463Y0040227D01*
X0104328Y0041226D02*
X0022182Y0041226D01*
X0022182Y0042224D02*
X0104328Y0042224D01*
X0104328Y0043223D02*
X0022182Y0043223D01*
X0022182Y0044221D02*
X0104328Y0044221D01*
X0104328Y0045220D02*
X0022182Y0045220D01*
X0022182Y0046218D02*
X0104328Y0046218D01*
X0104328Y0047217D02*
X0064121Y0047217D01*
X0062659Y0046611D02*
X0066189Y0048073D01*
X0068891Y0050775D01*
X0070354Y0054306D01*
X0070354Y0058127D01*
X0068891Y0061658D01*
X0066189Y0064360D01*
X0062659Y0065822D01*
X0058837Y0065822D01*
X0055307Y0064360D01*
X0052605Y0061658D01*
X0051143Y0058127D01*
X0051143Y0054306D01*
X0052605Y0050775D01*
X0055307Y0048073D01*
X0058837Y0046611D01*
X0062659Y0046611D01*
X0057375Y0047217D02*
X0022182Y0047217D01*
X0022182Y0048215D02*
X0055165Y0048215D01*
X0054167Y0049214D02*
X0022182Y0049214D01*
X0022182Y0050212D02*
X0053168Y0050212D01*
X0052425Y0051211D02*
X0035786Y0051211D01*
X0035688Y0051170D02*
X0037904Y0052088D01*
X0039601Y0053785D01*
X0040519Y0056001D01*
X0040519Y0058400D01*
X0039601Y0060617D01*
X0037904Y0062313D01*
X0035688Y0063231D01*
X0033289Y0063231D01*
X0031072Y0062313D01*
X0029376Y0060617D01*
X0028457Y0058400D01*
X0028457Y0056001D01*
X0029376Y0053785D01*
X0031072Y0052088D01*
X0033289Y0051170D01*
X0035688Y0051170D01*
X0033190Y0051211D02*
X0022182Y0051211D01*
X0022182Y0052209D02*
X0030951Y0052209D01*
X0029952Y0053208D02*
X0022182Y0053208D01*
X0021994Y0054206D02*
X0029201Y0054206D01*
X0028787Y0055205D02*
X0022265Y0055205D01*
X0022265Y0056203D02*
X0028457Y0056203D01*
X0028457Y0057202D02*
X0022265Y0057202D01*
X0022265Y0058200D02*
X0028457Y0058200D01*
X0028788Y0059199D02*
X0022265Y0059199D01*
X0022265Y0060197D02*
X0029202Y0060197D01*
X0029955Y0061196D02*
X0023531Y0061196D01*
X0024743Y0062194D02*
X0030953Y0062194D01*
X0033195Y0063193D02*
X0025157Y0063193D01*
X0025176Y0064191D02*
X0055139Y0064191D01*
X0054140Y0063193D02*
X0035781Y0063193D01*
X0038023Y0062194D02*
X0053142Y0062194D01*
X0052414Y0061196D02*
X0039022Y0061196D01*
X0039775Y0060197D02*
X0052000Y0060197D01*
X0051586Y0059199D02*
X0040188Y0059199D01*
X0040519Y0058200D02*
X0051173Y0058200D01*
X0051143Y0057202D02*
X0040519Y0057202D01*
X0040519Y0056203D02*
X0051143Y0056203D01*
X0051143Y0055205D02*
X0040189Y0055205D01*
X0039775Y0054206D02*
X0051184Y0054206D01*
X0051597Y0053208D02*
X0039024Y0053208D01*
X0038025Y0052209D02*
X0052011Y0052209D01*
X0057311Y0065190D02*
X0024845Y0065190D01*
X0024003Y0066188D02*
X0120470Y0066188D01*
X0120470Y0065190D02*
X0064185Y0065190D01*
X0066357Y0064191D02*
X0120751Y0064191D01*
X0121165Y0063193D02*
X0067356Y0063193D01*
X0068354Y0062194D02*
X0121578Y0062194D01*
X0122400Y0061196D02*
X0069082Y0061196D01*
X0069496Y0060197D02*
X0123399Y0060197D01*
X0124987Y0059199D02*
X0069910Y0059199D01*
X0070323Y0058200D02*
X0135976Y0058200D01*
X0135976Y0057202D02*
X0070354Y0057202D01*
X0070354Y0056203D02*
X0135976Y0056203D01*
X0135976Y0055205D02*
X0070354Y0055205D01*
X0070312Y0054206D02*
X0135976Y0054206D01*
X0135976Y0053208D02*
X0069899Y0053208D01*
X0069485Y0052209D02*
X0120554Y0052209D01*
X0120470Y0051211D02*
X0069071Y0051211D01*
X0068328Y0050212D02*
X0120470Y0050212D01*
X0120470Y0049214D02*
X0113277Y0049214D01*
X0114224Y0048215D02*
X0120470Y0048215D01*
X0120470Y0047217D02*
X0114224Y0047217D01*
X0109276Y0044315D02*
X0127859Y0044315D01*
X0128568Y0045024D01*
X0121160Y0037232D02*
X0026346Y0037232D01*
X0026346Y0036233D02*
X0135976Y0036233D01*
X0135976Y0035235D02*
X0026346Y0035235D01*
X0026346Y0034236D02*
X0135976Y0034236D01*
X0135976Y0033238D02*
X0026346Y0033238D01*
X0026346Y0032239D02*
X0135976Y0032239D01*
X0135976Y0031241D02*
X0026346Y0031241D01*
X0026346Y0030242D02*
X0135976Y0030242D01*
X0135976Y0029244D02*
X0026346Y0029244D01*
X0026346Y0028245D02*
X0135906Y0028245D01*
X0134907Y0027246D02*
X0026346Y0027246D01*
X0027043Y0026248D02*
X0133909Y0026248D01*
X0132910Y0025249D02*
X0028041Y0025249D01*
X0016894Y0039216D02*
X0008075Y0039216D01*
X0006661Y0040630D01*
X0006661Y0159587D01*
X0010557Y0159587D01*
X0010476Y0159392D01*
X0010476Y0159201D01*
X0007815Y0159201D01*
X0006819Y0158205D01*
X0006819Y0146197D01*
X0007815Y0145201D01*
X0011128Y0145201D01*
X0016576Y0139754D01*
X0016576Y0119633D01*
X0016234Y0120458D01*
X0015418Y0121273D01*
X0014352Y0121715D01*
X0013199Y0121715D01*
X0012133Y0121273D01*
X0011317Y0120458D01*
X0010876Y0119392D01*
X0010876Y0118238D01*
X0011276Y0117272D01*
X0011276Y0108818D01*
X0011656Y0107899D01*
X0012359Y0107196D01*
X0012776Y0106779D01*
X0012776Y0103634D01*
X0012456Y0103314D01*
X0012456Y0089898D01*
X0012894Y0089460D01*
X0012894Y0089371D01*
X0012444Y0088921D01*
X0012444Y0075504D01*
X0013440Y0074509D01*
X0017348Y0074509D01*
X0018344Y0075504D01*
X0018344Y0076415D01*
X0018902Y0076415D01*
X0018902Y0075549D01*
X0019287Y0074620D01*
X0019982Y0073925D01*
X0019287Y0073231D01*
X0018902Y0072302D01*
X0018902Y0070588D01*
X0019287Y0069659D01*
X0019998Y0068948D01*
X0020141Y0068889D01*
X0017361Y0068889D01*
X0016365Y0067893D01*
X0016365Y0054477D01*
X0016940Y0053902D01*
X0016282Y0053244D01*
X0016282Y0039827D01*
X0016894Y0039216D01*
X0016881Y0039229D02*
X0008062Y0039229D01*
X0007063Y0040227D02*
X0016282Y0040227D01*
X0016282Y0041226D02*
X0006661Y0041226D01*
X0006661Y0042224D02*
X0016282Y0042224D01*
X0016282Y0043223D02*
X0006661Y0043223D01*
X0006661Y0044221D02*
X0016282Y0044221D01*
X0016282Y0045220D02*
X0006661Y0045220D01*
X0006661Y0046218D02*
X0016282Y0046218D01*
X0016282Y0047217D02*
X0006661Y0047217D01*
X0006661Y0048215D02*
X0016282Y0048215D01*
X0016282Y0049214D02*
X0006661Y0049214D01*
X0006661Y0050212D02*
X0016282Y0050212D01*
X0016282Y0051211D02*
X0006661Y0051211D01*
X0006661Y0052209D02*
X0016282Y0052209D01*
X0016282Y0053208D02*
X0006661Y0053208D01*
X0006661Y0054206D02*
X0016636Y0054206D01*
X0016365Y0055205D02*
X0006661Y0055205D01*
X0006661Y0056203D02*
X0016365Y0056203D01*
X0016365Y0057202D02*
X0006661Y0057202D01*
X0006661Y0058200D02*
X0016365Y0058200D01*
X0016365Y0059199D02*
X0006661Y0059199D01*
X0006661Y0060197D02*
X0016365Y0060197D01*
X0016365Y0061196D02*
X0006661Y0061196D01*
X0006661Y0062194D02*
X0016365Y0062194D01*
X0016365Y0063193D02*
X0006661Y0063193D01*
X0006661Y0064191D02*
X0016365Y0064191D01*
X0016365Y0065190D02*
X0006661Y0065190D01*
X0006661Y0066188D02*
X0016365Y0066188D01*
X0016365Y0067187D02*
X0006661Y0067187D01*
X0006661Y0068185D02*
X0016657Y0068185D01*
X0019070Y0070182D02*
X0006661Y0070182D01*
X0006661Y0069184D02*
X0019762Y0069184D01*
X0018902Y0071181D02*
X0006661Y0071181D01*
X0006661Y0072179D02*
X0018902Y0072179D01*
X0019265Y0073178D02*
X0006661Y0073178D01*
X0006661Y0074177D02*
X0019730Y0074177D01*
X0019057Y0075175D02*
X0018014Y0075175D01*
X0018344Y0076174D02*
X0018902Y0076174D01*
X0018776Y0079315D02*
X0020776Y0081315D01*
X0023563Y0081315D01*
X0023654Y0081406D01*
X0027569Y0079169D02*
X0041903Y0079169D01*
X0042186Y0079287D02*
X0041258Y0078902D01*
X0040547Y0078191D01*
X0040162Y0077262D01*
X0040162Y0075549D01*
X0040547Y0074620D01*
X0041019Y0074148D01*
X0040162Y0073291D01*
X0040162Y0069520D01*
X0041158Y0068524D01*
X0048669Y0068524D01*
X0049665Y0069520D01*
X0049665Y0073291D01*
X0048840Y0074115D01*
X0049687Y0074115D01*
X0051187Y0075615D01*
X0052476Y0076904D01*
X0052476Y0085404D01*
X0053976Y0086904D01*
X0053976Y0087414D01*
X0054234Y0087672D01*
X0054676Y0088738D01*
X0054676Y0089892D01*
X0054234Y0090958D01*
X0053418Y0091773D01*
X0052352Y0092215D01*
X0051199Y0092215D01*
X0050133Y0091773D01*
X0049317Y0090958D01*
X0048876Y0089892D01*
X0048876Y0088738D01*
X0048968Y0088515D01*
X0048838Y0088515D01*
X0048451Y0088902D01*
X0047522Y0089287D01*
X0042068Y0089287D01*
X0041140Y0088902D01*
X0040429Y0088191D01*
X0040044Y0087262D01*
X0040044Y0085549D01*
X0040429Y0084620D01*
X0041140Y0083909D01*
X0042068Y0083524D01*
X0047522Y0083524D01*
X0048076Y0083754D01*
X0048076Y0079106D01*
X0047640Y0079287D01*
X0042186Y0079287D01*
X0040538Y0078171D02*
X0028029Y0078171D01*
X0028870Y0078171D02*
X0039697Y0078171D01*
X0039697Y0079169D02*
X0028870Y0079169D01*
X0028870Y0080168D02*
X0039697Y0080168D01*
X0039697Y0081166D02*
X0028870Y0081166D01*
X0028405Y0081166D02*
X0048076Y0081166D01*
X0048076Y0080168D02*
X0028247Y0080168D01*
X0028405Y0082165D02*
X0048076Y0082165D01*
X0048076Y0083163D02*
X0028032Y0083163D01*
X0028870Y0083163D02*
X0039697Y0083163D01*
X0039697Y0082165D02*
X0028870Y0082165D01*
X0028870Y0084162D02*
X0039697Y0084162D01*
X0039697Y0085160D02*
X0028870Y0085160D01*
X0028244Y0085160D02*
X0040205Y0085160D01*
X0040044Y0086159D02*
X0028405Y0086159D01*
X0028870Y0086159D02*
X0039697Y0086159D01*
X0039697Y0086366D02*
X0028870Y0086366D01*
X0028870Y0071406D01*
X0039697Y0071406D01*
X0039697Y0086366D01*
X0040044Y0087157D02*
X0028405Y0087157D01*
X0028515Y0088156D02*
X0040414Y0088156D01*
X0040001Y0089154D02*
X0041749Y0089154D01*
X0043008Y0092409D02*
X0044441Y0093843D01*
X0043008Y0092409D02*
X0033602Y0092409D01*
X0029657Y0092409D01*
X0023654Y0086406D01*
X0027562Y0084162D02*
X0040887Y0084162D01*
X0044795Y0086406D02*
X0044886Y0086315D01*
X0050276Y0086315D01*
X0050276Y0077815D01*
X0048776Y0076315D01*
X0045004Y0076315D01*
X0044913Y0076406D01*
X0047924Y0079169D02*
X0048076Y0079169D01*
X0050747Y0075175D02*
X0135976Y0075175D01*
X0135976Y0074177D02*
X0131148Y0074177D01*
X0133322Y0073178D02*
X0135976Y0073178D01*
X0135976Y0072179D02*
X0134320Y0072179D01*
X0135319Y0071181D02*
X0135976Y0071181D01*
X0135976Y0070182D02*
X0135799Y0070182D01*
X0135976Y0076174D02*
X0051745Y0076174D01*
X0052476Y0077172D02*
X0135976Y0077172D01*
X0135976Y0078171D02*
X0052476Y0078171D01*
X0052476Y0079169D02*
X0135976Y0079169D01*
X0135976Y0080168D02*
X0052476Y0080168D01*
X0052476Y0081166D02*
X0135976Y0081166D01*
X0135976Y0082165D02*
X0052476Y0082165D01*
X0052476Y0083163D02*
X0135976Y0083163D01*
X0135976Y0084162D02*
X0052476Y0084162D01*
X0052476Y0085160D02*
X0135976Y0085160D01*
X0135976Y0086159D02*
X0053231Y0086159D01*
X0053976Y0087157D02*
X0135976Y0087157D01*
X0135976Y0088156D02*
X0054434Y0088156D01*
X0054676Y0089154D02*
X0135976Y0089154D01*
X0135976Y0090153D02*
X0054568Y0090153D01*
X0054041Y0091151D02*
X0135976Y0091151D01*
X0135976Y0092150D02*
X0052510Y0092150D01*
X0051041Y0092150D02*
X0049094Y0092150D01*
X0049094Y0093148D02*
X0135976Y0093148D01*
X0135976Y0094147D02*
X0049094Y0094147D01*
X0049094Y0095145D02*
X0135976Y0095145D01*
X0135976Y0096144D02*
X0049094Y0096144D01*
X0049057Y0097142D02*
X0135976Y0097142D01*
X0135976Y0098141D02*
X0049094Y0098141D01*
X0049094Y0103523D02*
X0049094Y0104586D01*
X0048098Y0105582D01*
X0040784Y0105582D01*
X0039788Y0104586D01*
X0039788Y0098060D01*
X0040265Y0097583D01*
X0039788Y0097106D01*
X0039788Y0095878D01*
X0039557Y0096109D01*
X0030942Y0096109D01*
X0030942Y0096410D01*
X0031982Y0096410D01*
X0031987Y0096415D01*
X0032352Y0096415D01*
X0033418Y0096856D01*
X0034234Y0097672D01*
X0034676Y0098738D01*
X0034676Y0099892D01*
X0034234Y0100958D01*
X0033418Y0101773D01*
X0032352Y0102215D01*
X0031199Y0102215D01*
X0030380Y0101876D01*
X0029946Y0102310D01*
X0026192Y0102310D01*
X0026192Y0105010D01*
X0024903Y0106298D01*
X0020976Y0110226D01*
X0020976Y0141576D01*
X0019687Y0142865D01*
X0019537Y0143015D01*
X0019564Y0143015D01*
X0020976Y0141604D01*
X0020976Y0141604D01*
X0022264Y0140315D01*
X0031414Y0140315D01*
X0038026Y0133704D01*
X0038026Y0133704D01*
X0039314Y0132415D01*
X0050828Y0132415D01*
X0050828Y0131308D01*
X0051305Y0130831D01*
X0050828Y0130354D01*
X0050828Y0123827D01*
X0051823Y0122831D01*
X0058148Y0122831D01*
X0058645Y0122334D01*
X0058517Y0122387D01*
X0056737Y0122387D01*
X0055092Y0121706D01*
X0053833Y0120447D01*
X0053152Y0118803D01*
X0053152Y0117022D01*
X0053833Y0115378D01*
X0055092Y0114119D01*
X0056737Y0113438D01*
X0058517Y0113438D01*
X0060162Y0114119D01*
X0061161Y0115118D01*
X0061476Y0114804D01*
X0062764Y0113515D01*
X0067290Y0113515D01*
X0067572Y0113353D01*
X0068169Y0113515D01*
X0068787Y0113515D01*
X0069017Y0113745D01*
X0069331Y0113830D01*
X0069638Y0114367D01*
X0070076Y0114804D01*
X0070076Y0115129D01*
X0073860Y0121731D01*
X0080489Y0121815D01*
X0081387Y0121815D01*
X0081398Y0121826D01*
X0081415Y0121827D01*
X0082041Y0122469D01*
X0082676Y0123104D01*
X0082676Y0123120D01*
X0082687Y0123132D01*
X0082676Y0124029D01*
X0082676Y0138936D01*
X0104513Y0154620D01*
X0106028Y0153992D01*
X0107808Y0153992D01*
X0109453Y0154673D01*
X0110712Y0155932D01*
X0111393Y0157577D01*
X0111393Y0159357D01*
X0110712Y0161002D01*
X0109453Y0162260D01*
X0109276Y0162334D01*
X0109276Y0164104D01*
X0111187Y0166015D01*
X0112476Y0167304D01*
X0112476Y0182604D01*
X0114287Y0184415D01*
X0117505Y0184415D01*
X0117505Y0182733D01*
X0118501Y0181737D01*
X0130539Y0181737D01*
X0131535Y0182733D01*
X0131535Y0190440D01*
X0130539Y0191436D01*
X0126776Y0191436D01*
X0126776Y0196666D01*
X0130881Y0196666D01*
X0131877Y0197662D01*
X0131877Y0205370D01*
X0130881Y0206365D01*
X0121737Y0206365D01*
X0123062Y0207690D01*
X0130881Y0207690D01*
X0131877Y0208686D01*
X0131877Y0216393D01*
X0130881Y0217389D01*
X0118843Y0217389D01*
X0117847Y0216393D01*
X0117847Y0208698D01*
X0070114Y0160965D01*
X0061393Y0160965D01*
X0061393Y0161946D01*
X0060397Y0162942D01*
X0057476Y0162942D01*
X0057476Y0166414D01*
X0057734Y0166672D01*
X0058176Y0167738D01*
X0058176Y0168892D01*
X0057734Y0169958D01*
X0056918Y0170773D01*
X0055852Y0171215D01*
X0054699Y0171215D01*
X0053633Y0170773D01*
X0052817Y0169958D01*
X0052376Y0168892D01*
X0052376Y0167738D01*
X0052817Y0166672D01*
X0053076Y0166414D01*
X0053076Y0162578D01*
X0052443Y0161946D01*
X0052443Y0154988D01*
X0053439Y0153992D01*
X0060397Y0153992D01*
X0061393Y0154988D01*
X0061393Y0156565D01*
X0071937Y0156565D01*
X0117847Y0202475D01*
X0117847Y0197662D01*
X0118843Y0196666D01*
X0122376Y0196666D01*
X0122376Y0191436D01*
X0118501Y0191436D01*
X0117505Y0190440D01*
X0117505Y0188815D01*
X0112464Y0188815D01*
X0111176Y0187526D01*
X0108076Y0184426D01*
X0108076Y0169126D01*
X0104876Y0165926D01*
X0104876Y0162464D01*
X0104383Y0162260D01*
X0103125Y0161002D01*
X0102443Y0159357D01*
X0102443Y0158551D01*
X0079767Y0142265D01*
X0079564Y0142265D01*
X0079047Y0141747D01*
X0078452Y0141320D01*
X0078419Y0141120D01*
X0078276Y0140976D01*
X0078276Y0140244D01*
X0078157Y0139522D01*
X0078276Y0139357D01*
X0078276Y0126187D01*
X0073148Y0126122D01*
X0072879Y0126277D01*
X0072269Y0126111D01*
X0071637Y0126103D01*
X0071420Y0125881D01*
X0071120Y0125800D01*
X0070806Y0125251D01*
X0070364Y0124798D01*
X0070368Y0124488D01*
X0067940Y0120252D01*
X0067418Y0120773D01*
X0066352Y0121215D01*
X0065987Y0121215D01*
X0060133Y0127069D01*
X0060133Y0130354D01*
X0059656Y0130831D01*
X0060133Y0131308D01*
X0060133Y0137834D01*
X0059137Y0138830D01*
X0051823Y0138830D01*
X0050828Y0137834D01*
X0050828Y0136815D01*
X0041137Y0136815D01*
X0033237Y0144715D01*
X0024087Y0144715D01*
X0022676Y0146126D01*
X0021959Y0146843D01*
X0024834Y0146843D01*
X0025763Y0147227D01*
X0026474Y0147938D01*
X0026858Y0148867D01*
X0026858Y0150581D01*
X0026474Y0151509D01*
X0025779Y0152204D01*
X0026474Y0152899D01*
X0026858Y0153827D01*
X0026858Y0155541D01*
X0026474Y0156470D01*
X0025763Y0157181D01*
X0025754Y0157184D01*
X0025763Y0157188D01*
X0026474Y0157899D01*
X0026858Y0158827D01*
X0026858Y0160541D01*
X0026474Y0161470D01*
X0025763Y0162181D01*
X0025754Y0162184D01*
X0025763Y0162188D01*
X0026474Y0162899D01*
X0026858Y0163827D01*
X0026858Y0165541D01*
X0026474Y0166470D01*
X0025763Y0167181D01*
X0024834Y0167565D01*
X0022698Y0167565D01*
X0022918Y0167656D01*
X0023734Y0168472D01*
X0023858Y0168771D01*
X0024133Y0169046D01*
X0024133Y0168823D01*
X0025129Y0167828D01*
X0029037Y0167828D01*
X0030033Y0168823D01*
X0030033Y0182240D01*
X0029591Y0182681D01*
X0029974Y0183064D01*
X0029974Y0196480D01*
X0028978Y0197476D01*
X0025069Y0197476D01*
X0024074Y0196480D01*
X0024074Y0183064D01*
X0024515Y0182622D01*
X0024133Y0182240D01*
X0024133Y0176117D01*
X0021031Y0173015D01*
X0020699Y0173015D01*
X0019633Y0172573D01*
X0018817Y0171758D01*
X0018376Y0170692D01*
X0018376Y0169538D01*
X0018817Y0168472D01*
X0019633Y0167656D01*
X0019853Y0167565D01*
X0019380Y0167565D01*
X0018451Y0167181D01*
X0018111Y0166840D01*
X0018276Y0167238D01*
X0018276Y0168392D01*
X0017834Y0169458D01*
X0017576Y0169716D01*
X0017576Y0181204D01*
X0017584Y0182105D01*
X0017576Y0182114D01*
X0017576Y0192504D01*
X0024722Y0199650D01*
X0036351Y0199650D01*
X0037346Y0200646D01*
X0037346Y0202065D01*
X0038725Y0202065D01*
X0038725Y0197515D01*
X0038006Y0197515D01*
X0037168Y0196677D01*
X0036352Y0197015D01*
X0035199Y0197015D01*
X0034133Y0196573D01*
X0033317Y0195758D01*
X0032876Y0194692D01*
X0032876Y0193538D01*
X0033317Y0192472D01*
X0034133Y0191656D01*
X0035048Y0191278D01*
X0037011Y0189259D01*
X0037011Y0183103D01*
X0037523Y0182591D01*
X0037015Y0182082D01*
X0037015Y0177098D01*
X0035515Y0176648D01*
X0035352Y0176715D01*
X0034199Y0176715D01*
X0033133Y0176273D01*
X0032317Y0175458D01*
X0031876Y0174392D01*
X0031876Y0173238D01*
X0032317Y0172172D01*
X0033133Y0171356D01*
X0034199Y0170915D01*
X0035352Y0170915D01*
X0036418Y0171356D01*
X0036907Y0171845D01*
X0037015Y0171877D01*
X0037015Y0168666D01*
X0037053Y0168628D01*
X0036976Y0168442D01*
X0036976Y0167288D01*
X0037417Y0166222D01*
X0038233Y0165406D01*
X0038498Y0165297D01*
X0038498Y0163827D01*
X0038882Y0162899D01*
X0039593Y0162188D01*
X0040522Y0161803D01*
X0045976Y0161803D01*
X0046168Y0161883D01*
X0046176Y0161877D01*
X0046176Y0158757D01*
X0044719Y0157565D01*
X0040640Y0157565D01*
X0039711Y0157181D01*
X0039000Y0156470D01*
X0038616Y0155541D01*
X0038616Y0153827D01*
X0039000Y0152899D01*
X0039473Y0152426D01*
X0038616Y0151570D01*
X0038616Y0147799D01*
X0039612Y0146803D01*
X0047122Y0146803D01*
X0048118Y0147799D01*
X0048118Y0151570D01*
X0047261Y0152426D01*
X0047733Y0152899D01*
X0048118Y0153827D01*
X0048118Y0154662D01*
X0049161Y0155515D01*
X0049287Y0155515D01*
X0049854Y0156082D01*
X0050474Y0156589D01*
X0050487Y0156715D01*
X0050576Y0156804D01*
X0050576Y0157605D01*
X0050655Y0158403D01*
X0050576Y0158500D01*
X0050576Y0162126D01*
X0050653Y0162220D01*
X0050576Y0163021D01*
X0050576Y0163826D01*
X0050489Y0163912D01*
X0050478Y0164034D01*
X0049856Y0164546D01*
X0049787Y0164615D01*
X0050187Y0165015D01*
X0051476Y0166304D01*
X0051476Y0196931D01*
X0046125Y0202281D01*
X0046125Y0208824D01*
X0045129Y0209820D01*
X0039721Y0209820D01*
X0038725Y0208824D01*
X0038725Y0206465D01*
X0037346Y0206465D01*
X0037346Y0208354D01*
X0036351Y0209350D01*
X0024342Y0209350D01*
X0023346Y0208354D01*
X0023346Y0204497D01*
X0019402Y0200553D01*
X0019234Y0200958D01*
X0018418Y0201773D01*
X0017352Y0202215D01*
X0016199Y0202215D01*
X0015133Y0201773D01*
X0014317Y0200958D01*
X0013876Y0199892D01*
X0013876Y0198738D01*
X0014317Y0197672D01*
X0015133Y0196856D01*
X0015538Y0196689D01*
X0014471Y0195621D01*
X0014418Y0195673D01*
X0013352Y0196115D01*
X0013066Y0196115D01*
X0012634Y0197158D01*
X0011818Y0197973D01*
X0010752Y0198415D01*
X0009599Y0198415D01*
X0008533Y0197973D01*
X0007717Y0197158D01*
X0007276Y0196092D01*
X0007276Y0194938D01*
X0007717Y0193872D01*
X0008533Y0193056D01*
X0009599Y0192615D01*
X0009885Y0192615D01*
X0010317Y0191572D01*
X0011133Y0190756D01*
X0012199Y0190315D01*
X0013176Y0190315D01*
X0013176Y0186599D01*
X0013076Y0186701D01*
X0013076Y0187092D01*
X0012634Y0188158D01*
X0011818Y0188973D01*
X0010752Y0189415D01*
X0009599Y0189415D01*
X0008533Y0188973D01*
X0007717Y0188158D01*
X0007276Y0187092D01*
X0007276Y0185938D01*
X0007717Y0184872D01*
X0008533Y0184056D01*
X0009599Y0183615D01*
X0009939Y0183615D01*
X0010037Y0183515D01*
X0009599Y0183515D01*
X0008533Y0183073D01*
X0007717Y0182258D01*
X0007276Y0181192D01*
X0007276Y0180038D01*
X0007717Y0178972D01*
X0008533Y0178156D01*
X0009599Y0177715D01*
X0010752Y0177715D01*
X0011818Y0178156D01*
X0012634Y0178972D01*
X0013076Y0180038D01*
X0013076Y0180418D01*
X0013176Y0180316D01*
X0013176Y0169716D01*
X0012917Y0169458D01*
X0012476Y0168392D01*
X0012476Y0167238D01*
X0012579Y0166987D01*
X0006661Y0166987D01*
X0006661Y0237194D01*
X0025350Y0237194D01*
X0026346Y0238190D01*
X0026346Y0254937D01*
X0026351Y0254990D01*
X0028176Y0256815D01*
X0053366Y0256815D01*
X0053011Y0256460D01*
X0053011Y0255750D01*
X0050982Y0255730D01*
X0050052Y0256115D01*
X0048899Y0256115D01*
X0047833Y0255673D01*
X0047017Y0254858D01*
X0046576Y0253792D01*
X0046576Y0252638D01*
X0047017Y0251572D01*
X0047833Y0250756D01*
X0048899Y0250315D01*
X0050052Y0250315D01*
X0051056Y0250731D01*
X0053309Y0250753D01*
X0054006Y0250056D01*
X0060199Y0250056D01*
X0061867Y0248388D01*
X0062267Y0247422D01*
X0063083Y0246606D01*
X0064149Y0246165D01*
X0065302Y0246165D01*
X0066368Y0246606D01*
X0067184Y0247422D01*
X0067626Y0248488D01*
X0067626Y0249642D01*
X0067184Y0250708D01*
X0066875Y0251016D01*
X0066911Y0251052D01*
X0066911Y0256460D01*
X0066556Y0256815D01*
X0128676Y0256815D01*
X0135976Y0249515D01*
X0135976Y0249271D01*
X0075821Y0249314D01*
X0074852Y0249715D01*
X0073699Y0249715D01*
X0072633Y0249273D01*
X0071817Y0248458D01*
X0071376Y0247392D01*
X0071376Y0246238D01*
X0071817Y0245172D01*
X0072633Y0244356D01*
X0073699Y0243915D01*
X0074852Y0243915D01*
X0075815Y0244314D01*
X0135976Y0244271D01*
X0135976Y0137324D01*
X0135314Y0138920D01*
X0133037Y0141198D01*
X0130060Y0142431D01*
X0126839Y0142431D01*
X0123863Y0141198D01*
X0121585Y0138920D01*
X0120352Y0135944D01*
X0120352Y0132722D01*
X0121585Y0129746D01*
X0123863Y0127468D01*
X0126839Y0126235D01*
X0130060Y0126235D01*
X0133037Y0127468D01*
X0135314Y0129746D01*
X0135976Y0131342D01*
X0135976Y0120550D01*
X0135551Y0120974D01*
X0121348Y0120974D01*
X0120352Y0119978D01*
X0120352Y0107890D01*
X0115985Y0103523D01*
X0049094Y0103523D01*
X0049094Y0104132D02*
X0116594Y0104132D01*
X0117592Y0105130D02*
X0048549Y0105130D01*
X0044441Y0101323D02*
X0116896Y0101323D01*
X0128450Y0112876D01*
X0122816Y0104132D02*
X0135976Y0104132D01*
X0135976Y0105130D02*
X0135903Y0105130D01*
X0135976Y0103133D02*
X0121818Y0103133D01*
X0120819Y0102135D02*
X0135976Y0102135D01*
X0135976Y0101136D02*
X0119821Y0101136D01*
X0118822Y0100138D02*
X0135976Y0100138D01*
X0135976Y0099139D02*
X0117824Y0099139D01*
X0118591Y0106129D02*
X0025073Y0106129D01*
X0024074Y0107127D02*
X0119589Y0107127D01*
X0120352Y0108126D02*
X0023076Y0108126D01*
X0022077Y0109124D02*
X0120352Y0109124D01*
X0120352Y0110123D02*
X0021079Y0110123D01*
X0020976Y0111121D02*
X0120352Y0111121D01*
X0120352Y0112120D02*
X0020976Y0112120D01*
X0020976Y0113118D02*
X0120352Y0113118D01*
X0120352Y0114117D02*
X0111785Y0114117D01*
X0112102Y0114434D02*
X0112102Y0121392D01*
X0111106Y0122387D01*
X0109976Y0122387D01*
X0109976Y0144325D01*
X0125856Y0163584D01*
X0126426Y0164154D01*
X0126426Y0164275D01*
X0126503Y0164368D01*
X0126426Y0165170D01*
X0126426Y0170713D01*
X0130539Y0170713D01*
X0131535Y0171709D01*
X0131535Y0179417D01*
X0130539Y0180413D01*
X0118501Y0180413D01*
X0117505Y0179417D01*
X0117505Y0171709D01*
X0118501Y0170713D01*
X0122026Y0170713D01*
X0122026Y0165855D01*
X0106145Y0146596D01*
X0105576Y0146026D01*
X0105576Y0145905D01*
X0105498Y0145811D01*
X0105576Y0145009D01*
X0105576Y0122387D01*
X0104148Y0122387D01*
X0103152Y0121392D01*
X0103152Y0114434D01*
X0104148Y0113438D01*
X0111106Y0113438D01*
X0112102Y0114434D01*
X0112102Y0115115D02*
X0120352Y0115115D01*
X0120352Y0116114D02*
X0112102Y0116114D01*
X0112102Y0117112D02*
X0120352Y0117112D01*
X0120352Y0118111D02*
X0112102Y0118111D01*
X0112102Y0119110D02*
X0120352Y0119110D01*
X0120482Y0120108D02*
X0112102Y0120108D01*
X0112102Y0121107D02*
X0135976Y0121107D01*
X0135976Y0122105D02*
X0111388Y0122105D01*
X0109976Y0123104D02*
X0135976Y0123104D01*
X0135976Y0124102D02*
X0109976Y0124102D01*
X0109976Y0125101D02*
X0135976Y0125101D01*
X0135976Y0126099D02*
X0109976Y0126099D01*
X0109976Y0127098D02*
X0124757Y0127098D01*
X0123235Y0128096D02*
X0109976Y0128096D01*
X0109976Y0129095D02*
X0122236Y0129095D01*
X0121441Y0130093D02*
X0109976Y0130093D01*
X0109976Y0131092D02*
X0121027Y0131092D01*
X0120614Y0132090D02*
X0109976Y0132090D01*
X0109976Y0133089D02*
X0120352Y0133089D01*
X0120352Y0134087D02*
X0109976Y0134087D01*
X0109976Y0135086D02*
X0120352Y0135086D01*
X0120410Y0136084D02*
X0109976Y0136084D01*
X0109976Y0137083D02*
X0120824Y0137083D01*
X0121237Y0138081D02*
X0109976Y0138081D01*
X0109976Y0139080D02*
X0121745Y0139080D01*
X0122743Y0140078D02*
X0109976Y0140078D01*
X0109976Y0141077D02*
X0123742Y0141077D01*
X0125981Y0142075D02*
X0109976Y0142075D01*
X0109976Y0143074D02*
X0135976Y0143074D01*
X0135976Y0144072D02*
X0109976Y0144072D01*
X0110591Y0145071D02*
X0135976Y0145071D01*
X0135976Y0146069D02*
X0111414Y0146069D01*
X0112237Y0147068D02*
X0135976Y0147068D01*
X0135976Y0148066D02*
X0113061Y0148066D01*
X0113884Y0149065D02*
X0135976Y0149065D01*
X0135976Y0150063D02*
X0114707Y0150063D01*
X0115531Y0151062D02*
X0135976Y0151062D01*
X0135976Y0152060D02*
X0116354Y0152060D01*
X0117177Y0153059D02*
X0135976Y0153059D01*
X0135976Y0154057D02*
X0118001Y0154057D01*
X0118824Y0155056D02*
X0135976Y0155056D01*
X0135976Y0156054D02*
X0119647Y0156054D01*
X0120471Y0157053D02*
X0135976Y0157053D01*
X0135976Y0158051D02*
X0121294Y0158051D01*
X0122117Y0159050D02*
X0135976Y0159050D01*
X0135976Y0160048D02*
X0122941Y0160048D01*
X0123764Y0161047D02*
X0135976Y0161047D01*
X0135976Y0162046D02*
X0124587Y0162046D01*
X0125411Y0163044D02*
X0135976Y0163044D01*
X0135976Y0164043D02*
X0126314Y0164043D01*
X0126438Y0165041D02*
X0135976Y0165041D01*
X0135976Y0166040D02*
X0126426Y0166040D01*
X0126426Y0167038D02*
X0135976Y0167038D01*
X0135976Y0168037D02*
X0126426Y0168037D01*
X0126426Y0169035D02*
X0135976Y0169035D01*
X0135976Y0170034D02*
X0126426Y0170034D01*
X0122026Y0170034D02*
X0112476Y0170034D01*
X0112476Y0171032D02*
X0118182Y0171032D01*
X0117505Y0172031D02*
X0112476Y0172031D01*
X0112476Y0173029D02*
X0117505Y0173029D01*
X0117505Y0174028D02*
X0112476Y0174028D01*
X0112476Y0175026D02*
X0117505Y0175026D01*
X0117505Y0176025D02*
X0112476Y0176025D01*
X0112476Y0177023D02*
X0117505Y0177023D01*
X0117505Y0178022D02*
X0112476Y0178022D01*
X0112476Y0179020D02*
X0117505Y0179020D01*
X0118107Y0180019D02*
X0112476Y0180019D01*
X0112476Y0181017D02*
X0135976Y0181017D01*
X0135976Y0180019D02*
X0130933Y0180019D01*
X0131535Y0179020D02*
X0135976Y0179020D01*
X0135976Y0178022D02*
X0131535Y0178022D01*
X0131535Y0177023D02*
X0135976Y0177023D01*
X0135976Y0176025D02*
X0131535Y0176025D01*
X0131535Y0175026D02*
X0135976Y0175026D01*
X0135976Y0174028D02*
X0131535Y0174028D01*
X0131535Y0173029D02*
X0135976Y0173029D01*
X0135976Y0172031D02*
X0131535Y0172031D01*
X0130858Y0171032D02*
X0135976Y0171032D01*
X0135976Y0182016D02*
X0130818Y0182016D01*
X0131535Y0183014D02*
X0135976Y0183014D01*
X0135976Y0184013D02*
X0131535Y0184013D01*
X0131535Y0185011D02*
X0135976Y0185011D01*
X0135976Y0186010D02*
X0131535Y0186010D01*
X0131535Y0187008D02*
X0135976Y0187008D01*
X0135976Y0188007D02*
X0131535Y0188007D01*
X0131535Y0189005D02*
X0135976Y0189005D01*
X0135976Y0190004D02*
X0131535Y0190004D01*
X0130973Y0191002D02*
X0135976Y0191002D01*
X0135976Y0192001D02*
X0126776Y0192001D01*
X0126776Y0192999D02*
X0135976Y0192999D01*
X0135976Y0193998D02*
X0126776Y0193998D01*
X0126776Y0194996D02*
X0135976Y0194996D01*
X0135976Y0195995D02*
X0126776Y0195995D01*
X0131209Y0196993D02*
X0135976Y0196993D01*
X0135976Y0197992D02*
X0131877Y0197992D01*
X0131877Y0198990D02*
X0135976Y0198990D01*
X0135976Y0199989D02*
X0131877Y0199989D01*
X0131877Y0200987D02*
X0135976Y0200987D01*
X0135976Y0201986D02*
X0131877Y0201986D01*
X0131877Y0202984D02*
X0135976Y0202984D01*
X0135976Y0203983D02*
X0131877Y0203983D01*
X0131877Y0204981D02*
X0135976Y0204981D01*
X0135976Y0205980D02*
X0131267Y0205980D01*
X0131169Y0207977D02*
X0135976Y0207977D01*
X0135976Y0206979D02*
X0122350Y0206979D01*
X0117847Y0208976D02*
X0045974Y0208976D01*
X0046125Y0207977D02*
X0117126Y0207977D01*
X0116128Y0206979D02*
X0046125Y0206979D01*
X0046125Y0205980D02*
X0115129Y0205980D01*
X0114131Y0204981D02*
X0046125Y0204981D01*
X0046125Y0203983D02*
X0113132Y0203983D01*
X0112134Y0202984D02*
X0046125Y0202984D01*
X0046421Y0201986D02*
X0111135Y0201986D01*
X0110137Y0200987D02*
X0047419Y0200987D01*
X0048418Y0199989D02*
X0109138Y0199989D01*
X0108140Y0198990D02*
X0049416Y0198990D01*
X0050415Y0197992D02*
X0107141Y0197992D01*
X0106143Y0196993D02*
X0051413Y0196993D01*
X0051476Y0195995D02*
X0105144Y0195995D01*
X0104146Y0194996D02*
X0051476Y0194996D01*
X0051476Y0193998D02*
X0103147Y0193998D01*
X0102149Y0192999D02*
X0051476Y0192999D01*
X0051476Y0192001D02*
X0101150Y0192001D01*
X0100152Y0191002D02*
X0051476Y0191002D01*
X0051476Y0190004D02*
X0099153Y0190004D01*
X0098155Y0189005D02*
X0051476Y0189005D01*
X0051476Y0188007D02*
X0097156Y0188007D01*
X0096158Y0187008D02*
X0051476Y0187008D01*
X0051476Y0186010D02*
X0095159Y0186010D01*
X0094161Y0185011D02*
X0051476Y0185011D01*
X0051476Y0184013D02*
X0093162Y0184013D01*
X0092164Y0183014D02*
X0051476Y0183014D01*
X0051476Y0182016D02*
X0091165Y0182016D01*
X0090167Y0181017D02*
X0051476Y0181017D01*
X0051476Y0180019D02*
X0089168Y0180019D01*
X0088170Y0179020D02*
X0051476Y0179020D01*
X0051476Y0178022D02*
X0087171Y0178022D01*
X0086173Y0177023D02*
X0051476Y0177023D01*
X0051476Y0176025D02*
X0085174Y0176025D01*
X0084176Y0175026D02*
X0051476Y0175026D01*
X0051476Y0174028D02*
X0083177Y0174028D01*
X0082179Y0173029D02*
X0051476Y0173029D01*
X0051476Y0172031D02*
X0081180Y0172031D01*
X0080181Y0171032D02*
X0056294Y0171032D01*
X0057658Y0170034D02*
X0079183Y0170034D01*
X0078184Y0169035D02*
X0058116Y0169035D01*
X0058176Y0168037D02*
X0077186Y0168037D01*
X0076187Y0167038D02*
X0057886Y0167038D01*
X0057476Y0166040D02*
X0075189Y0166040D01*
X0074190Y0165041D02*
X0057476Y0165041D01*
X0057476Y0164043D02*
X0073192Y0164043D01*
X0072193Y0163044D02*
X0057476Y0163044D01*
X0061293Y0162046D02*
X0071195Y0162046D01*
X0070196Y0161047D02*
X0061393Y0161047D01*
X0057026Y0158765D02*
X0055276Y0158765D01*
X0055276Y0168315D01*
X0054257Y0171032D02*
X0051476Y0171032D01*
X0051476Y0170034D02*
X0052893Y0170034D01*
X0052435Y0169035D02*
X0051476Y0169035D01*
X0051476Y0168037D02*
X0052376Y0168037D01*
X0052666Y0167038D02*
X0051476Y0167038D01*
X0051211Y0166040D02*
X0053076Y0166040D01*
X0053076Y0165041D02*
X0050213Y0165041D01*
X0050467Y0164043D02*
X0053076Y0164043D01*
X0053076Y0163044D02*
X0050576Y0163044D01*
X0050576Y0162046D02*
X0052543Y0162046D01*
X0052443Y0161047D02*
X0050576Y0161047D01*
X0050576Y0160048D02*
X0052443Y0160048D01*
X0052443Y0159050D02*
X0050576Y0159050D01*
X0050620Y0158051D02*
X0052443Y0158051D01*
X0052443Y0157053D02*
X0050576Y0157053D01*
X0049826Y0156054D02*
X0052443Y0156054D01*
X0052443Y0155056D02*
X0048600Y0155056D01*
X0048118Y0154057D02*
X0053374Y0154057D01*
X0056918Y0158467D02*
X0057026Y0158765D01*
X0071026Y0158765D01*
X0124576Y0212315D01*
X0124862Y0212539D01*
X0117847Y0212970D02*
X0006661Y0212970D01*
X0006661Y0213968D02*
X0031381Y0213968D01*
X0031072Y0214096D02*
X0033289Y0213178D01*
X0035688Y0213178D01*
X0037904Y0214096D01*
X0039601Y0215793D01*
X0040519Y0218009D01*
X0040519Y0220408D01*
X0039601Y0222625D01*
X0037904Y0224321D01*
X0035688Y0225239D01*
X0033289Y0225239D01*
X0031072Y0224321D01*
X0029376Y0222625D01*
X0028457Y0220408D01*
X0028457Y0218009D01*
X0029376Y0215793D01*
X0031072Y0214096D01*
X0030202Y0214967D02*
X0006661Y0214967D01*
X0006661Y0215965D02*
X0029304Y0215965D01*
X0028891Y0216964D02*
X0006661Y0216964D01*
X0006661Y0217962D02*
X0028477Y0217962D01*
X0028457Y0218961D02*
X0011463Y0218961D01*
X0011352Y0218915D02*
X0012418Y0219356D01*
X0013234Y0220172D01*
X0013676Y0221238D01*
X0013676Y0222392D01*
X0013234Y0223458D01*
X0012418Y0224273D01*
X0011352Y0224715D01*
X0010199Y0224715D01*
X0009133Y0224273D01*
X0008317Y0223458D01*
X0007876Y0222392D01*
X0007876Y0221238D01*
X0008317Y0220172D01*
X0009133Y0219356D01*
X0010199Y0218915D01*
X0011352Y0218915D01*
X0010088Y0218961D02*
X0006661Y0218961D01*
X0006661Y0219959D02*
X0008530Y0219959D01*
X0007992Y0220958D02*
X0006661Y0220958D01*
X0006661Y0221956D02*
X0007876Y0221956D01*
X0008109Y0222955D02*
X0006661Y0222955D01*
X0006661Y0223953D02*
X0008813Y0223953D01*
X0006661Y0224952D02*
X0032594Y0224952D01*
X0030704Y0223953D02*
X0012739Y0223953D01*
X0013442Y0222955D02*
X0029706Y0222955D01*
X0029099Y0221956D02*
X0013676Y0221956D01*
X0013559Y0220958D02*
X0028685Y0220958D01*
X0028457Y0219959D02*
X0013021Y0219959D01*
X0006661Y0225950D02*
X0051799Y0225950D01*
X0052212Y0224952D02*
X0036382Y0224952D01*
X0038272Y0223953D02*
X0052655Y0223953D01*
X0052605Y0224004D02*
X0055307Y0221302D01*
X0058837Y0219839D01*
X0062659Y0219839D01*
X0066189Y0221302D01*
X0068891Y0224004D01*
X0070354Y0227534D01*
X0070354Y0231356D01*
X0068891Y0234886D01*
X0066189Y0237588D01*
X0062659Y0239050D01*
X0058837Y0239050D01*
X0055307Y0237588D01*
X0052605Y0234886D01*
X0051143Y0231356D01*
X0051143Y0227534D01*
X0052605Y0224004D01*
X0053654Y0222955D02*
X0039271Y0222955D01*
X0039878Y0221956D02*
X0054652Y0221956D01*
X0056138Y0220958D02*
X0040291Y0220958D01*
X0040519Y0219959D02*
X0058548Y0219959D01*
X0062948Y0219959D02*
X0135976Y0219959D01*
X0135976Y0218961D02*
X0040519Y0218961D01*
X0040499Y0217962D02*
X0135976Y0217962D01*
X0135976Y0216964D02*
X0131307Y0216964D01*
X0131877Y0215965D02*
X0135976Y0215965D01*
X0135976Y0214967D02*
X0131877Y0214967D01*
X0131877Y0213968D02*
X0135976Y0213968D01*
X0135976Y0212970D02*
X0131877Y0212970D01*
X0131877Y0211971D02*
X0135976Y0211971D01*
X0135976Y0210973D02*
X0131877Y0210973D01*
X0131877Y0209974D02*
X0135976Y0209974D01*
X0135976Y0208976D02*
X0131877Y0208976D01*
X0124862Y0201516D02*
X0124576Y0201465D01*
X0124576Y0186765D01*
X0124520Y0186587D01*
X0124491Y0186615D01*
X0113376Y0186615D01*
X0110276Y0183515D01*
X0110276Y0168215D01*
X0107076Y0165015D01*
X0107076Y0158765D01*
X0106918Y0158467D01*
X0106726Y0158415D01*
X0106026Y0158415D01*
X0080476Y0140065D01*
X0080476Y0135515D01*
X0080476Y0124015D01*
X0072576Y0123915D01*
X0067876Y0115715D01*
X0063676Y0115715D01*
X0061576Y0117815D01*
X0057726Y0117815D01*
X0057627Y0117913D01*
X0054492Y0121107D02*
X0047668Y0121107D01*
X0047418Y0120856D02*
X0048234Y0121672D01*
X0048676Y0122738D01*
X0048676Y0123892D01*
X0048234Y0124958D01*
X0047418Y0125773D01*
X0046453Y0126173D01*
X0042692Y0129934D01*
X0041773Y0130315D01*
X0030318Y0130315D01*
X0030263Y0130338D01*
X0031510Y0130338D01*
X0032505Y0131334D01*
X0032505Y0138292D01*
X0031510Y0139287D01*
X0024552Y0139287D01*
X0023556Y0138292D01*
X0023556Y0131334D01*
X0024552Y0130338D01*
X0027288Y0130338D01*
X0027133Y0130273D01*
X0026317Y0129458D01*
X0025876Y0128392D01*
X0025876Y0127238D01*
X0026317Y0126172D01*
X0027133Y0125356D01*
X0028199Y0124915D01*
X0029352Y0124915D01*
X0030318Y0125315D01*
X0040240Y0125315D01*
X0042917Y0122638D01*
X0043317Y0121672D01*
X0044133Y0120856D01*
X0045199Y0120415D01*
X0046352Y0120415D01*
X0047418Y0120856D01*
X0048413Y0122105D02*
X0056055Y0122105D01*
X0053693Y0120108D02*
X0020976Y0120108D01*
X0020976Y0119110D02*
X0053279Y0119110D01*
X0053152Y0118111D02*
X0020976Y0118111D01*
X0020976Y0117112D02*
X0053152Y0117112D01*
X0053528Y0116114D02*
X0020976Y0116114D01*
X0020976Y0115115D02*
X0054096Y0115115D01*
X0055097Y0114117D02*
X0020976Y0114117D01*
X0016576Y0120108D02*
X0016379Y0120108D01*
X0016576Y0121107D02*
X0015585Y0121107D01*
X0016576Y0122105D02*
X0006661Y0122105D01*
X0006661Y0121107D02*
X0011966Y0121107D01*
X0011172Y0120108D02*
X0006661Y0120108D01*
X0006661Y0119110D02*
X0010876Y0119110D01*
X0010928Y0118111D02*
X0006661Y0118111D01*
X0006661Y0117112D02*
X0011276Y0117112D01*
X0011276Y0116114D02*
X0006661Y0116114D01*
X0006661Y0115115D02*
X0011276Y0115115D01*
X0011276Y0114117D02*
X0006661Y0114117D01*
X0006661Y0113118D02*
X0011276Y0113118D01*
X0011276Y0112120D02*
X0006661Y0112120D01*
X0006661Y0111121D02*
X0011276Y0111121D01*
X0011276Y0110123D02*
X0006661Y0110123D01*
X0006661Y0109124D02*
X0011276Y0109124D01*
X0011562Y0108126D02*
X0006661Y0108126D01*
X0006661Y0107127D02*
X0012428Y0107127D01*
X0012776Y0106129D02*
X0006661Y0106129D01*
X0006661Y0105130D02*
X0012776Y0105130D01*
X0012776Y0104132D02*
X0006661Y0104132D01*
X0006661Y0103133D02*
X0012456Y0103133D01*
X0012456Y0102135D02*
X0006661Y0102135D01*
X0006661Y0101136D02*
X0012456Y0101136D01*
X0012456Y0100138D02*
X0006661Y0100138D01*
X0006661Y0099139D02*
X0012456Y0099139D01*
X0012456Y0098141D02*
X0006661Y0098141D01*
X0006661Y0097142D02*
X0012456Y0097142D01*
X0012456Y0096144D02*
X0006661Y0096144D01*
X0006661Y0095145D02*
X0012456Y0095145D01*
X0012456Y0094147D02*
X0006661Y0094147D01*
X0006661Y0093148D02*
X0012456Y0093148D01*
X0012456Y0092150D02*
X0006661Y0092150D01*
X0006661Y0091151D02*
X0012456Y0091151D01*
X0012456Y0090153D02*
X0006661Y0090153D01*
X0006661Y0089154D02*
X0012677Y0089154D01*
X0012444Y0088156D02*
X0006661Y0088156D01*
X0006661Y0087157D02*
X0012444Y0087157D01*
X0012444Y0086159D02*
X0006661Y0086159D01*
X0006661Y0085160D02*
X0012444Y0085160D01*
X0012444Y0084162D02*
X0006661Y0084162D01*
X0006661Y0083163D02*
X0012444Y0083163D01*
X0012444Y0082165D02*
X0006661Y0082165D01*
X0006661Y0081166D02*
X0012444Y0081166D01*
X0012444Y0080168D02*
X0006661Y0080168D01*
X0006661Y0079169D02*
X0012444Y0079169D01*
X0012444Y0078171D02*
X0006661Y0078171D01*
X0006661Y0077172D02*
X0012444Y0077172D01*
X0012444Y0076174D02*
X0006661Y0076174D01*
X0006661Y0075175D02*
X0012773Y0075175D01*
X0021973Y0068185D02*
X0120509Y0068185D01*
X0120470Y0067187D02*
X0022265Y0067187D01*
X0022276Y0063815D02*
X0019646Y0061185D01*
X0019315Y0061185D01*
X0019315Y0046535D01*
X0019232Y0046535D01*
X0015073Y0046535D02*
X0014990Y0046535D01*
X0027545Y0069184D02*
X0040498Y0069184D01*
X0040162Y0070182D02*
X0028237Y0070182D01*
X0028405Y0071181D02*
X0040162Y0071181D01*
X0040162Y0072179D02*
X0028405Y0072179D01*
X0028870Y0072179D02*
X0039697Y0072179D01*
X0039697Y0073178D02*
X0028870Y0073178D01*
X0028042Y0073178D02*
X0040162Y0073178D01*
X0039697Y0074177D02*
X0028870Y0074177D01*
X0028870Y0075175D02*
X0039697Y0075175D01*
X0040317Y0075175D02*
X0028250Y0075175D01*
X0028405Y0076174D02*
X0040162Y0076174D01*
X0039697Y0076174D02*
X0028870Y0076174D01*
X0028870Y0077172D02*
X0039697Y0077172D01*
X0040162Y0077172D02*
X0028405Y0077172D01*
X0027577Y0074177D02*
X0040990Y0074177D01*
X0049665Y0073178D02*
X0123814Y0073178D01*
X0122815Y0072179D02*
X0049665Y0072179D01*
X0049665Y0071181D02*
X0121817Y0071181D01*
X0121336Y0070182D02*
X0049665Y0070182D01*
X0049328Y0069184D02*
X0120923Y0069184D01*
X0125988Y0074177D02*
X0049748Y0074177D01*
X0050276Y0086315D02*
X0051776Y0087815D01*
X0051776Y0089315D01*
X0048876Y0089154D02*
X0047842Y0089154D01*
X0048667Y0090153D02*
X0048984Y0090153D01*
X0049094Y0091151D02*
X0049511Y0091151D01*
X0039788Y0096144D02*
X0030942Y0096144D01*
X0031071Y0098610D02*
X0031776Y0099315D01*
X0031071Y0098610D02*
X0023992Y0098610D01*
X0023992Y0104098D01*
X0018776Y0109315D01*
X0018776Y0140665D01*
X0011526Y0147915D01*
X0011669Y0148264D01*
X0011258Y0145071D02*
X0006661Y0145071D01*
X0006661Y0146069D02*
X0006947Y0146069D01*
X0006819Y0147068D02*
X0006661Y0147068D01*
X0006661Y0148066D02*
X0006819Y0148066D01*
X0006819Y0149065D02*
X0006661Y0149065D01*
X0006661Y0150063D02*
X0006819Y0150063D01*
X0006819Y0151062D02*
X0006661Y0151062D01*
X0006661Y0152060D02*
X0006819Y0152060D01*
X0006819Y0153059D02*
X0006661Y0153059D01*
X0006661Y0154057D02*
X0006819Y0154057D01*
X0006819Y0155056D02*
X0006661Y0155056D01*
X0006661Y0156054D02*
X0006819Y0156054D01*
X0006819Y0157053D02*
X0006661Y0157053D01*
X0006661Y0158051D02*
X0006819Y0158051D01*
X0006661Y0159050D02*
X0007664Y0159050D01*
X0011669Y0156138D02*
X0011876Y0156315D01*
X0013376Y0158815D01*
X0016176Y0158815D02*
X0016176Y0163165D01*
X0014976Y0164365D01*
X0017126Y0164365D01*
X0020976Y0164365D01*
X0022107Y0164684D01*
X0023298Y0168037D02*
X0024919Y0168037D01*
X0024133Y0169035D02*
X0024122Y0169035D01*
X0025905Y0167038D02*
X0037079Y0167038D01*
X0036976Y0168037D02*
X0029246Y0168037D01*
X0030033Y0169035D02*
X0037015Y0169035D01*
X0037015Y0170034D02*
X0030033Y0170034D01*
X0030033Y0171032D02*
X0033916Y0171032D01*
X0035635Y0171032D02*
X0037015Y0171032D01*
X0039876Y0167865D02*
X0039876Y0175215D01*
X0039965Y0175374D01*
X0039961Y0189811D01*
X0042911Y0190004D02*
X0047076Y0190004D01*
X0047076Y0191002D02*
X0042911Y0191002D01*
X0042911Y0192001D02*
X0047076Y0192001D01*
X0047076Y0192999D02*
X0042911Y0192999D01*
X0042911Y0193998D02*
X0047076Y0193998D01*
X0047076Y0194996D02*
X0042911Y0194996D01*
X0042911Y0195920D02*
X0045129Y0195920D01*
X0045697Y0196487D01*
X0047076Y0195108D01*
X0047076Y0168126D01*
X0046357Y0167408D01*
X0045976Y0167565D01*
X0042776Y0167565D01*
X0042776Y0168442D01*
X0042751Y0168502D01*
X0042915Y0168666D01*
X0042915Y0182082D01*
X0042402Y0182594D01*
X0042911Y0183103D01*
X0042911Y0195920D01*
X0045204Y0195995D02*
X0046189Y0195995D01*
X0049276Y0196020D02*
X0042425Y0202870D01*
X0042326Y0202865D01*
X0042425Y0202870D02*
X0042326Y0203215D01*
X0041276Y0204265D01*
X0034626Y0204265D01*
X0034283Y0204500D01*
X0037346Y0206979D02*
X0038725Y0206979D01*
X0038725Y0207977D02*
X0037346Y0207977D01*
X0036725Y0208976D02*
X0038877Y0208976D01*
X0037595Y0213968D02*
X0117847Y0213968D01*
X0117847Y0214967D02*
X0038775Y0214967D01*
X0039672Y0215965D02*
X0117847Y0215965D01*
X0118418Y0216964D02*
X0040086Y0216964D01*
X0051143Y0227947D02*
X0006661Y0227947D01*
X0006661Y0226949D02*
X0051385Y0226949D01*
X0051143Y0228946D02*
X0006661Y0228946D01*
X0006661Y0229944D02*
X0051143Y0229944D01*
X0051143Y0230943D02*
X0006661Y0230943D01*
X0006661Y0231941D02*
X0051385Y0231941D01*
X0051799Y0232940D02*
X0006661Y0232940D01*
X0006661Y0233938D02*
X0052212Y0233938D01*
X0052656Y0234937D02*
X0006661Y0234937D01*
X0006661Y0235935D02*
X0053654Y0235935D01*
X0054653Y0236934D02*
X0006661Y0236934D01*
X0026088Y0237932D02*
X0056138Y0237932D01*
X0058549Y0238931D02*
X0026346Y0238931D01*
X0026346Y0239929D02*
X0135976Y0239929D01*
X0135976Y0238931D02*
X0062947Y0238931D01*
X0065358Y0237932D02*
X0135976Y0237932D01*
X0135976Y0236934D02*
X0066843Y0236934D01*
X0067842Y0235935D02*
X0135976Y0235935D01*
X0135976Y0234937D02*
X0068840Y0234937D01*
X0069284Y0233938D02*
X0135976Y0233938D01*
X0135976Y0232940D02*
X0069697Y0232940D01*
X0070111Y0231941D02*
X0135976Y0231941D01*
X0135976Y0230943D02*
X0070354Y0230943D01*
X0070354Y0229944D02*
X0135976Y0229944D01*
X0135976Y0228946D02*
X0070354Y0228946D01*
X0070354Y0227947D02*
X0135976Y0227947D01*
X0135976Y0226949D02*
X0070111Y0226949D01*
X0069697Y0225950D02*
X0135976Y0225950D01*
X0135976Y0224952D02*
X0069284Y0224952D01*
X0068841Y0223953D02*
X0135976Y0223953D01*
X0135976Y0222955D02*
X0067842Y0222955D01*
X0066844Y0221956D02*
X0135976Y0221956D01*
X0135976Y0220958D02*
X0065359Y0220958D01*
X0073678Y0243923D02*
X0026346Y0243923D01*
X0026346Y0242925D02*
X0135976Y0242925D01*
X0135976Y0243923D02*
X0074873Y0243923D01*
X0072067Y0244922D02*
X0026346Y0244922D01*
X0026346Y0245920D02*
X0071507Y0245920D01*
X0071376Y0246919D02*
X0066681Y0246919D01*
X0067389Y0247917D02*
X0071593Y0247917D01*
X0072275Y0248916D02*
X0067626Y0248916D01*
X0067513Y0249915D02*
X0135576Y0249915D01*
X0134578Y0250913D02*
X0066979Y0250913D01*
X0066911Y0251912D02*
X0133579Y0251912D01*
X0132581Y0252910D02*
X0066911Y0252910D01*
X0066911Y0253909D02*
X0131582Y0253909D01*
X0130583Y0254907D02*
X0066911Y0254907D01*
X0066911Y0255906D02*
X0129585Y0255906D01*
X0135976Y0241926D02*
X0026346Y0241926D01*
X0026346Y0240928D02*
X0135976Y0240928D01*
X0117847Y0211971D02*
X0006661Y0211971D01*
X0006661Y0210973D02*
X0117847Y0210973D01*
X0117847Y0209974D02*
X0006661Y0209974D01*
X0006661Y0208976D02*
X0023968Y0208976D01*
X0023346Y0207977D02*
X0006661Y0207977D01*
X0006661Y0206979D02*
X0023346Y0206979D01*
X0023346Y0205980D02*
X0006661Y0205980D01*
X0006661Y0204981D02*
X0023346Y0204981D01*
X0022832Y0203983D02*
X0006661Y0203983D01*
X0006661Y0202984D02*
X0021834Y0202984D01*
X0020835Y0201986D02*
X0017905Y0201986D01*
X0019204Y0200987D02*
X0019837Y0200987D01*
X0015646Y0201986D02*
X0006661Y0201986D01*
X0006661Y0200987D02*
X0014347Y0200987D01*
X0013916Y0199989D02*
X0006661Y0199989D01*
X0006661Y0198990D02*
X0013876Y0198990D01*
X0014185Y0197992D02*
X0011774Y0197992D01*
X0012702Y0196993D02*
X0014996Y0196993D01*
X0014844Y0195995D02*
X0013642Y0195995D01*
X0015376Y0193415D02*
X0026226Y0204265D01*
X0026409Y0204500D01*
X0024062Y0198990D02*
X0038725Y0198990D01*
X0038725Y0197992D02*
X0023064Y0197992D01*
X0022065Y0196993D02*
X0024587Y0196993D01*
X0024074Y0195995D02*
X0021067Y0195995D01*
X0020068Y0194996D02*
X0024074Y0194996D01*
X0024074Y0193998D02*
X0019070Y0193998D01*
X0018071Y0192999D02*
X0024074Y0192999D01*
X0024074Y0192001D02*
X0017576Y0192001D01*
X0017576Y0191002D02*
X0024074Y0191002D01*
X0024074Y0190004D02*
X0017576Y0190004D01*
X0017576Y0189005D02*
X0024074Y0189005D01*
X0024074Y0188007D02*
X0017576Y0188007D01*
X0017576Y0187008D02*
X0024074Y0187008D01*
X0024074Y0186010D02*
X0017576Y0186010D01*
X0017576Y0185011D02*
X0024074Y0185011D01*
X0024074Y0184013D02*
X0017576Y0184013D01*
X0017576Y0183014D02*
X0024123Y0183014D01*
X0024133Y0182016D02*
X0017583Y0182016D01*
X0017576Y0181017D02*
X0024133Y0181017D01*
X0024133Y0180019D02*
X0017576Y0180019D01*
X0017576Y0179020D02*
X0024133Y0179020D01*
X0024133Y0178022D02*
X0017576Y0178022D01*
X0017576Y0177023D02*
X0024133Y0177023D01*
X0024040Y0176025D02*
X0017576Y0176025D01*
X0017576Y0175026D02*
X0023042Y0175026D01*
X0022043Y0174028D02*
X0017576Y0174028D01*
X0017576Y0173029D02*
X0021045Y0173029D01*
X0019090Y0172031D02*
X0017576Y0172031D01*
X0017576Y0171032D02*
X0018517Y0171032D01*
X0018376Y0170034D02*
X0017576Y0170034D01*
X0018009Y0169035D02*
X0018584Y0169035D01*
X0018276Y0168037D02*
X0019253Y0168037D01*
X0018309Y0167038D02*
X0018193Y0167038D01*
X0015376Y0167815D02*
X0015376Y0179815D01*
X0015376Y0181215D01*
X0010176Y0186515D01*
X0012697Y0188007D02*
X0013176Y0188007D01*
X0013176Y0189005D02*
X0011741Y0189005D01*
X0013176Y0190004D02*
X0006661Y0190004D01*
X0006661Y0191002D02*
X0010887Y0191002D01*
X0010140Y0192001D02*
X0006661Y0192001D01*
X0006661Y0192999D02*
X0008671Y0192999D01*
X0007665Y0193998D02*
X0006661Y0193998D01*
X0006661Y0194996D02*
X0007276Y0194996D01*
X0007276Y0195995D02*
X0006661Y0195995D01*
X0006661Y0196993D02*
X0007649Y0196993D01*
X0008577Y0197992D02*
X0006661Y0197992D01*
X0006661Y0189005D02*
X0008610Y0189005D01*
X0007655Y0188007D02*
X0006661Y0188007D01*
X0006661Y0187008D02*
X0007276Y0187008D01*
X0007276Y0186010D02*
X0006661Y0186010D01*
X0006661Y0185011D02*
X0007659Y0185011D01*
X0008638Y0184013D02*
X0006661Y0184013D01*
X0006661Y0183014D02*
X0008474Y0183014D01*
X0007617Y0182016D02*
X0006661Y0182016D01*
X0006661Y0181017D02*
X0007276Y0181017D01*
X0007284Y0180019D02*
X0006661Y0180019D01*
X0006661Y0179020D02*
X0007697Y0179020D01*
X0006661Y0178022D02*
X0008858Y0178022D01*
X0009599Y0177415D02*
X0008533Y0176973D01*
X0007717Y0176158D01*
X0007276Y0175092D01*
X0007276Y0173938D01*
X0007717Y0172872D01*
X0008533Y0172056D01*
X0009599Y0171615D01*
X0010752Y0171615D01*
X0011818Y0172056D01*
X0012634Y0172872D01*
X0013076Y0173938D01*
X0013076Y0175092D01*
X0012634Y0176158D01*
X0011818Y0176973D01*
X0010752Y0177415D01*
X0009599Y0177415D01*
X0008653Y0177023D02*
X0006661Y0177023D01*
X0006661Y0176025D02*
X0007662Y0176025D01*
X0007276Y0175026D02*
X0006661Y0175026D01*
X0006661Y0174028D02*
X0007276Y0174028D01*
X0007652Y0173029D02*
X0006661Y0173029D01*
X0006661Y0172031D02*
X0008595Y0172031D01*
X0006661Y0171032D02*
X0013176Y0171032D01*
X0013176Y0170034D02*
X0006661Y0170034D01*
X0006661Y0169035D02*
X0012742Y0169035D01*
X0012476Y0168037D02*
X0006661Y0168037D01*
X0006661Y0167038D02*
X0012558Y0167038D01*
X0012576Y0164365D02*
X0011526Y0163315D01*
X0011280Y0163287D01*
X0012576Y0164365D02*
X0014976Y0164365D01*
X0016176Y0158815D02*
X0017276Y0157715D01*
X0017276Y0155315D01*
X0018026Y0154565D01*
X0020976Y0154565D01*
X0022107Y0154684D01*
X0021326Y0154215D01*
X0018976Y0154215D01*
X0016876Y0152115D01*
X0016876Y0146315D01*
X0017976Y0145215D01*
X0020476Y0145215D01*
X0023176Y0142515D01*
X0032326Y0142515D01*
X0040226Y0134615D01*
X0055276Y0134615D01*
X0055480Y0134571D01*
X0060133Y0134087D02*
X0065947Y0134087D01*
X0065817Y0133958D02*
X0065376Y0132892D01*
X0065376Y0131738D01*
X0065817Y0130672D01*
X0066633Y0129856D01*
X0067699Y0129415D01*
X0068852Y0129415D01*
X0069918Y0129856D01*
X0070734Y0130672D01*
X0071134Y0131638D01*
X0072637Y0133141D01*
X0073341Y0133844D01*
X0073458Y0134127D01*
X0074700Y0134127D01*
X0075696Y0135123D01*
X0075696Y0142081D01*
X0074700Y0143076D01*
X0067742Y0143076D01*
X0066746Y0142081D01*
X0066746Y0135123D01*
X0066960Y0134909D01*
X0066633Y0134773D01*
X0065817Y0133958D01*
X0065457Y0133089D02*
X0060133Y0133089D01*
X0060133Y0132090D02*
X0065376Y0132090D01*
X0065643Y0131092D02*
X0059917Y0131092D01*
X0060133Y0130093D02*
X0066396Y0130093D01*
X0070155Y0130093D02*
X0078276Y0130093D01*
X0078276Y0129095D02*
X0060133Y0129095D01*
X0060133Y0128096D02*
X0078276Y0128096D01*
X0078276Y0127098D02*
X0060133Y0127098D01*
X0061103Y0126099D02*
X0071633Y0126099D01*
X0070659Y0125101D02*
X0062101Y0125101D01*
X0063100Y0124102D02*
X0070147Y0124102D01*
X0069575Y0123104D02*
X0064098Y0123104D01*
X0065097Y0122105D02*
X0069002Y0122105D01*
X0068430Y0121107D02*
X0066614Y0121107D01*
X0065776Y0118315D02*
X0057000Y0127091D01*
X0055480Y0127091D01*
X0051551Y0123104D02*
X0048676Y0123104D01*
X0048588Y0124102D02*
X0050828Y0124102D01*
X0050828Y0125101D02*
X0048091Y0125101D01*
X0046632Y0126099D02*
X0050828Y0126099D01*
X0050828Y0127098D02*
X0045528Y0127098D01*
X0044530Y0128096D02*
X0050828Y0128096D01*
X0050828Y0129095D02*
X0043531Y0129095D01*
X0042308Y0130093D02*
X0050828Y0130093D01*
X0051044Y0131092D02*
X0032264Y0131092D01*
X0032505Y0132090D02*
X0050828Y0132090D01*
X0050828Y0137083D02*
X0040869Y0137083D01*
X0039871Y0138081D02*
X0051075Y0138081D01*
X0059886Y0138081D02*
X0066746Y0138081D01*
X0066746Y0137083D02*
X0060133Y0137083D01*
X0060133Y0136084D02*
X0066746Y0136084D01*
X0066783Y0135086D02*
X0060133Y0135086D01*
X0066746Y0139080D02*
X0038872Y0139080D01*
X0037874Y0140078D02*
X0066746Y0140078D01*
X0066746Y0141077D02*
X0036875Y0141077D01*
X0035877Y0142075D02*
X0066746Y0142075D01*
X0067740Y0143074D02*
X0034878Y0143074D01*
X0033880Y0144072D02*
X0082284Y0144072D01*
X0080894Y0143074D02*
X0074703Y0143074D01*
X0075696Y0142075D02*
X0079375Y0142075D01*
X0078376Y0141077D02*
X0075696Y0141077D01*
X0075696Y0140078D02*
X0078248Y0140078D01*
X0078276Y0139080D02*
X0075696Y0139080D01*
X0075696Y0138081D02*
X0078276Y0138081D01*
X0078276Y0137083D02*
X0075696Y0137083D01*
X0075696Y0136084D02*
X0078276Y0136084D01*
X0078276Y0135086D02*
X0075659Y0135086D01*
X0073441Y0134087D02*
X0078276Y0134087D01*
X0078276Y0133089D02*
X0072585Y0133089D01*
X0071586Y0132090D02*
X0078276Y0132090D01*
X0078276Y0131092D02*
X0070908Y0131092D01*
X0073502Y0121107D02*
X0103152Y0121107D01*
X0103152Y0120108D02*
X0072929Y0120108D01*
X0072357Y0119110D02*
X0103152Y0119110D01*
X0103152Y0118111D02*
X0071785Y0118111D01*
X0071212Y0117112D02*
X0103152Y0117112D01*
X0103152Y0116114D02*
X0070640Y0116114D01*
X0070076Y0115115D02*
X0103152Y0115115D01*
X0103469Y0114117D02*
X0069495Y0114117D01*
X0062162Y0114117D02*
X0060157Y0114117D01*
X0061158Y0115115D02*
X0061164Y0115115D01*
X0043883Y0121107D02*
X0020976Y0121107D01*
X0020976Y0122105D02*
X0043138Y0122105D01*
X0042451Y0123104D02*
X0020976Y0123104D01*
X0020976Y0124102D02*
X0041453Y0124102D01*
X0040454Y0125101D02*
X0029801Y0125101D01*
X0027751Y0125101D02*
X0020976Y0125101D01*
X0020976Y0126099D02*
X0026390Y0126099D01*
X0025934Y0127098D02*
X0020976Y0127098D01*
X0020976Y0128096D02*
X0025876Y0128096D01*
X0026167Y0129095D02*
X0020976Y0129095D01*
X0020976Y0130093D02*
X0026953Y0130093D01*
X0023798Y0131092D02*
X0020976Y0131092D01*
X0020976Y0132090D02*
X0023556Y0132090D01*
X0023556Y0133089D02*
X0020976Y0133089D01*
X0020976Y0134087D02*
X0023556Y0134087D01*
X0023556Y0135086D02*
X0020976Y0135086D01*
X0020976Y0136084D02*
X0023556Y0136084D01*
X0023556Y0137083D02*
X0020976Y0137083D01*
X0020976Y0138081D02*
X0023556Y0138081D01*
X0024344Y0139080D02*
X0020976Y0139080D01*
X0020976Y0140078D02*
X0031651Y0140078D01*
X0031717Y0139080D02*
X0032650Y0139080D01*
X0032505Y0138081D02*
X0033648Y0138081D01*
X0034647Y0137083D02*
X0032505Y0137083D01*
X0032505Y0136084D02*
X0035645Y0136084D01*
X0036644Y0135086D02*
X0032505Y0135086D01*
X0032505Y0134087D02*
X0037642Y0134087D01*
X0038641Y0133089D02*
X0032505Y0133089D01*
X0021502Y0141077D02*
X0020976Y0141077D01*
X0020504Y0142075D02*
X0020477Y0142075D01*
X0023731Y0145071D02*
X0083674Y0145071D01*
X0085065Y0146069D02*
X0022732Y0146069D01*
X0022676Y0146126D02*
X0022676Y0146126D01*
X0025378Y0147068D02*
X0039347Y0147068D01*
X0038616Y0148066D02*
X0026527Y0148066D01*
X0026858Y0149065D02*
X0038616Y0149065D01*
X0038150Y0149684D02*
X0038150Y0164645D01*
X0027324Y0164645D01*
X0027324Y0149684D01*
X0038150Y0149684D01*
X0038150Y0150063D02*
X0027324Y0150063D01*
X0026858Y0150063D02*
X0038616Y0150063D01*
X0038616Y0151062D02*
X0026659Y0151062D01*
X0027324Y0151062D02*
X0038150Y0151062D01*
X0038150Y0152060D02*
X0027324Y0152060D01*
X0027324Y0153059D02*
X0038150Y0153059D01*
X0038934Y0153059D02*
X0026540Y0153059D01*
X0026858Y0154057D02*
X0038616Y0154057D01*
X0038150Y0154057D02*
X0027324Y0154057D01*
X0027324Y0155056D02*
X0038150Y0155056D01*
X0038616Y0155056D02*
X0026858Y0155056D01*
X0026646Y0156054D02*
X0038828Y0156054D01*
X0038150Y0156054D02*
X0027324Y0156054D01*
X0027324Y0157053D02*
X0038150Y0157053D01*
X0038150Y0158051D02*
X0027324Y0158051D01*
X0026537Y0158051D02*
X0045313Y0158051D01*
X0046176Y0159050D02*
X0026858Y0159050D01*
X0027324Y0159050D02*
X0038150Y0159050D01*
X0038150Y0160048D02*
X0027324Y0160048D01*
X0026858Y0160048D02*
X0046176Y0160048D01*
X0046176Y0161047D02*
X0026649Y0161047D01*
X0027324Y0161047D02*
X0038150Y0161047D01*
X0038150Y0162046D02*
X0027324Y0162046D01*
X0027324Y0163044D02*
X0038150Y0163044D01*
X0038822Y0163044D02*
X0026534Y0163044D01*
X0026858Y0164043D02*
X0038498Y0164043D01*
X0038150Y0164043D02*
X0027324Y0164043D01*
X0026858Y0165041D02*
X0038498Y0165041D01*
X0037600Y0166040D02*
X0026652Y0166040D01*
X0025898Y0162046D02*
X0039937Y0162046D01*
X0041976Y0164365D02*
X0043249Y0164684D01*
X0042318Y0164315D01*
X0046676Y0164315D01*
X0048376Y0162915D01*
X0048376Y0157715D01*
X0044526Y0154565D01*
X0042326Y0154565D01*
X0043367Y0154684D01*
X0039583Y0157053D02*
X0025891Y0157053D01*
X0025922Y0152060D02*
X0039107Y0152060D01*
X0047627Y0152060D02*
X0093406Y0152060D01*
X0092016Y0151062D02*
X0048118Y0151062D01*
X0048118Y0150063D02*
X0090626Y0150063D01*
X0089235Y0149065D02*
X0048118Y0149065D01*
X0048118Y0148066D02*
X0087845Y0148066D01*
X0086455Y0147068D02*
X0047387Y0147068D01*
X0047800Y0153059D02*
X0094797Y0153059D01*
X0096187Y0154057D02*
X0060462Y0154057D01*
X0061393Y0155056D02*
X0097577Y0155056D01*
X0098968Y0156054D02*
X0061393Y0156054D01*
X0072425Y0157053D02*
X0100358Y0157053D01*
X0101748Y0158051D02*
X0073423Y0158051D01*
X0074422Y0159050D02*
X0102443Y0159050D01*
X0102730Y0160048D02*
X0075420Y0160048D01*
X0076419Y0161047D02*
X0103170Y0161047D01*
X0104168Y0162046D02*
X0077417Y0162046D01*
X0078416Y0163044D02*
X0104876Y0163044D01*
X0104876Y0164043D02*
X0079414Y0164043D01*
X0080413Y0165041D02*
X0104876Y0165041D01*
X0104989Y0166040D02*
X0081411Y0166040D01*
X0082410Y0167038D02*
X0105987Y0167038D01*
X0106986Y0168037D02*
X0083408Y0168037D01*
X0084407Y0169035D02*
X0107984Y0169035D01*
X0108076Y0170034D02*
X0085405Y0170034D01*
X0086404Y0171032D02*
X0108076Y0171032D01*
X0108076Y0172031D02*
X0087403Y0172031D01*
X0088401Y0173029D02*
X0108076Y0173029D01*
X0108076Y0174028D02*
X0089400Y0174028D01*
X0090398Y0175026D02*
X0108076Y0175026D01*
X0108076Y0176025D02*
X0091397Y0176025D01*
X0092395Y0177023D02*
X0108076Y0177023D01*
X0108076Y0178022D02*
X0093394Y0178022D01*
X0094392Y0179020D02*
X0108076Y0179020D01*
X0108076Y0180019D02*
X0095391Y0180019D01*
X0096389Y0181017D02*
X0108076Y0181017D01*
X0108076Y0182016D02*
X0097388Y0182016D01*
X0098386Y0183014D02*
X0108076Y0183014D01*
X0108076Y0184013D02*
X0099385Y0184013D01*
X0100383Y0185011D02*
X0108661Y0185011D01*
X0109659Y0186010D02*
X0101382Y0186010D01*
X0102380Y0187008D02*
X0110658Y0187008D01*
X0111656Y0188007D02*
X0103379Y0188007D01*
X0104377Y0189005D02*
X0117505Y0189005D01*
X0117505Y0190004D02*
X0105376Y0190004D01*
X0106374Y0191002D02*
X0118067Y0191002D01*
X0122376Y0192001D02*
X0107373Y0192001D01*
X0108371Y0192999D02*
X0122376Y0192999D01*
X0122376Y0193998D02*
X0109370Y0193998D01*
X0110368Y0194996D02*
X0122376Y0194996D01*
X0122376Y0195995D02*
X0111367Y0195995D01*
X0112365Y0196993D02*
X0118516Y0196993D01*
X0117847Y0197992D02*
X0113364Y0197992D01*
X0114362Y0198990D02*
X0117847Y0198990D01*
X0117847Y0199989D02*
X0115361Y0199989D01*
X0116359Y0200987D02*
X0117847Y0200987D01*
X0117847Y0201986D02*
X0117358Y0201986D01*
X0117505Y0184013D02*
X0113885Y0184013D01*
X0112886Y0183014D02*
X0117505Y0183014D01*
X0118222Y0182016D02*
X0112476Y0182016D01*
X0112476Y0169035D02*
X0122026Y0169035D01*
X0122026Y0168037D02*
X0112476Y0168037D01*
X0112210Y0167038D02*
X0122026Y0167038D01*
X0122026Y0166040D02*
X0111211Y0166040D01*
X0110213Y0165041D02*
X0121354Y0165041D01*
X0120531Y0164043D02*
X0109276Y0164043D01*
X0109276Y0163044D02*
X0119708Y0163044D01*
X0118884Y0162046D02*
X0109668Y0162046D01*
X0110666Y0161047D02*
X0118061Y0161047D01*
X0117238Y0160048D02*
X0111106Y0160048D01*
X0111393Y0159050D02*
X0116414Y0159050D01*
X0115591Y0158051D02*
X0111393Y0158051D01*
X0111176Y0157053D02*
X0114768Y0157053D01*
X0113944Y0156054D02*
X0110762Y0156054D01*
X0109835Y0155056D02*
X0113121Y0155056D01*
X0112298Y0154057D02*
X0107966Y0154057D01*
X0105870Y0154057D02*
X0103730Y0154057D01*
X0102339Y0153059D02*
X0111474Y0153059D01*
X0110651Y0152060D02*
X0100949Y0152060D01*
X0099559Y0151062D02*
X0109828Y0151062D01*
X0109004Y0150063D02*
X0098168Y0150063D01*
X0096778Y0149065D02*
X0108181Y0149065D01*
X0107358Y0148066D02*
X0095388Y0148066D01*
X0093998Y0147068D02*
X0106534Y0147068D01*
X0105619Y0146069D02*
X0092607Y0146069D01*
X0091217Y0145071D02*
X0105570Y0145071D01*
X0105576Y0144072D02*
X0089827Y0144072D01*
X0088436Y0143074D02*
X0105576Y0143074D01*
X0105576Y0142075D02*
X0087046Y0142075D01*
X0085656Y0141077D02*
X0105576Y0141077D01*
X0105576Y0140078D02*
X0084265Y0140078D01*
X0082875Y0139080D02*
X0105576Y0139080D01*
X0105576Y0138081D02*
X0082676Y0138081D01*
X0082676Y0137083D02*
X0105576Y0137083D01*
X0105576Y0136084D02*
X0082676Y0136084D01*
X0082676Y0135086D02*
X0105576Y0135086D01*
X0105576Y0134087D02*
X0082676Y0134087D01*
X0082676Y0133089D02*
X0105576Y0133089D01*
X0105576Y0132090D02*
X0082676Y0132090D01*
X0082676Y0131092D02*
X0105576Y0131092D01*
X0105576Y0130093D02*
X0082676Y0130093D01*
X0082676Y0129095D02*
X0105576Y0129095D01*
X0105576Y0128096D02*
X0082676Y0128096D01*
X0082676Y0127098D02*
X0105576Y0127098D01*
X0105576Y0126099D02*
X0082676Y0126099D01*
X0082676Y0125101D02*
X0105576Y0125101D01*
X0105576Y0124102D02*
X0082676Y0124102D01*
X0082675Y0123104D02*
X0105576Y0123104D01*
X0103865Y0122105D02*
X0081686Y0122105D01*
X0071026Y0138465D02*
X0071221Y0138602D01*
X0046776Y0164715D02*
X0049276Y0167215D01*
X0049276Y0196020D01*
X0047076Y0189005D02*
X0042911Y0189005D01*
X0042911Y0188007D02*
X0047076Y0188007D01*
X0047076Y0187008D02*
X0042911Y0187008D01*
X0042911Y0186010D02*
X0047076Y0186010D01*
X0047076Y0185011D02*
X0042911Y0185011D01*
X0042911Y0184013D02*
X0047076Y0184013D01*
X0047076Y0183014D02*
X0042822Y0183014D01*
X0042915Y0182016D02*
X0047076Y0182016D01*
X0047076Y0181017D02*
X0042915Y0181017D01*
X0042915Y0180019D02*
X0047076Y0180019D01*
X0047076Y0179020D02*
X0042915Y0179020D01*
X0042915Y0178022D02*
X0047076Y0178022D01*
X0047076Y0177023D02*
X0042915Y0177023D01*
X0042915Y0176025D02*
X0047076Y0176025D01*
X0047076Y0175026D02*
X0042915Y0175026D01*
X0042915Y0174028D02*
X0047076Y0174028D01*
X0047076Y0173029D02*
X0042915Y0173029D01*
X0042915Y0172031D02*
X0047076Y0172031D01*
X0047076Y0171032D02*
X0042915Y0171032D01*
X0042915Y0170034D02*
X0047076Y0170034D01*
X0047076Y0169035D02*
X0042915Y0169035D01*
X0042776Y0168037D02*
X0046986Y0168037D01*
X0046776Y0164715D02*
X0042326Y0164715D01*
X0043249Y0164684D01*
X0036765Y0177023D02*
X0030033Y0177023D01*
X0030033Y0176025D02*
X0032884Y0176025D01*
X0032138Y0175026D02*
X0030033Y0175026D01*
X0030033Y0174028D02*
X0031876Y0174028D01*
X0031962Y0173029D02*
X0030033Y0173029D01*
X0030033Y0172031D02*
X0032459Y0172031D01*
X0030033Y0178022D02*
X0037015Y0178022D01*
X0037015Y0179020D02*
X0030033Y0179020D01*
X0030033Y0180019D02*
X0037015Y0180019D01*
X0037015Y0181017D02*
X0030033Y0181017D01*
X0030033Y0182016D02*
X0037015Y0182016D01*
X0037099Y0183014D02*
X0029924Y0183014D01*
X0029974Y0184013D02*
X0037011Y0184013D01*
X0037011Y0185011D02*
X0029974Y0185011D01*
X0029974Y0186010D02*
X0037011Y0186010D01*
X0037011Y0187008D02*
X0029974Y0187008D01*
X0029974Y0188007D02*
X0037011Y0188007D01*
X0037011Y0189005D02*
X0029974Y0189005D01*
X0029974Y0190004D02*
X0036286Y0190004D01*
X0035315Y0191002D02*
X0029974Y0191002D01*
X0029974Y0192001D02*
X0033788Y0192001D01*
X0033099Y0192999D02*
X0029974Y0192999D01*
X0029974Y0193998D02*
X0032876Y0193998D01*
X0033002Y0194996D02*
X0029974Y0194996D01*
X0029974Y0195995D02*
X0033554Y0195995D01*
X0035147Y0196993D02*
X0029460Y0196993D01*
X0036404Y0196993D02*
X0037485Y0196993D01*
X0036690Y0199989D02*
X0038725Y0199989D01*
X0038725Y0200987D02*
X0037346Y0200987D01*
X0037346Y0201986D02*
X0038725Y0201986D01*
X0015376Y0193415D02*
X0015376Y0186315D01*
X0015376Y0179815D01*
X0013176Y0180019D02*
X0013068Y0180019D01*
X0013176Y0179020D02*
X0012654Y0179020D01*
X0013176Y0178022D02*
X0011493Y0178022D01*
X0011698Y0177023D02*
X0013176Y0177023D01*
X0013176Y0176025D02*
X0012689Y0176025D01*
X0013076Y0175026D02*
X0013176Y0175026D01*
X0013176Y0174028D02*
X0013076Y0174028D01*
X0013176Y0173029D02*
X0012699Y0173029D01*
X0013176Y0172031D02*
X0011756Y0172031D01*
X0013076Y0187008D02*
X0013176Y0187008D01*
X0012257Y0144072D02*
X0006661Y0144072D01*
X0006661Y0143074D02*
X0013255Y0143074D01*
X0014254Y0142075D02*
X0006661Y0142075D01*
X0006661Y0141077D02*
X0015252Y0141077D01*
X0016251Y0140078D02*
X0006661Y0140078D01*
X0006661Y0139080D02*
X0016576Y0139080D01*
X0016576Y0138081D02*
X0006661Y0138081D01*
X0006661Y0137083D02*
X0016576Y0137083D01*
X0016576Y0136084D02*
X0006661Y0136084D01*
X0006661Y0135086D02*
X0016576Y0135086D01*
X0016576Y0134087D02*
X0006661Y0134087D01*
X0006661Y0133089D02*
X0016576Y0133089D01*
X0016576Y0132090D02*
X0006661Y0132090D01*
X0006661Y0131092D02*
X0016576Y0131092D01*
X0016576Y0130093D02*
X0006661Y0130093D01*
X0006661Y0129095D02*
X0016576Y0129095D01*
X0016576Y0128096D02*
X0006661Y0128096D01*
X0006661Y0127098D02*
X0016576Y0127098D01*
X0016576Y0126099D02*
X0006661Y0126099D01*
X0006661Y0125101D02*
X0016576Y0125101D01*
X0016576Y0124102D02*
X0006661Y0124102D01*
X0006661Y0123104D02*
X0016576Y0123104D01*
X0026071Y0105130D02*
X0040333Y0105130D01*
X0039788Y0104132D02*
X0026192Y0104132D01*
X0026192Y0103133D02*
X0039788Y0103133D01*
X0039788Y0102135D02*
X0032546Y0102135D01*
X0031005Y0102135D02*
X0030122Y0102135D01*
X0034055Y0101136D02*
X0039788Y0101136D01*
X0039788Y0100138D02*
X0034574Y0100138D01*
X0034676Y0099139D02*
X0039788Y0099139D01*
X0039788Y0098141D02*
X0034428Y0098141D01*
X0033704Y0097142D02*
X0039825Y0097142D01*
X0015406Y0096606D02*
X0015394Y0096594D01*
X0015406Y0096606D02*
X0015276Y0096736D01*
X0066331Y0048215D02*
X0104328Y0048215D01*
X0105274Y0049214D02*
X0067329Y0049214D01*
X0114224Y0041226D02*
X0120470Y0041226D01*
X0120470Y0040227D02*
X0114088Y0040227D01*
X0132149Y0059199D02*
X0135976Y0059199D01*
X0135976Y0060197D02*
X0133737Y0060197D01*
X0134735Y0061196D02*
X0135976Y0061196D01*
X0135976Y0062194D02*
X0135557Y0062194D01*
X0135971Y0063193D02*
X0135976Y0063193D01*
X0135975Y0037232D02*
X0135976Y0037232D01*
X0107627Y0117913D02*
X0107776Y0118165D01*
X0107776Y0145115D01*
X0124226Y0165065D01*
X0124226Y0175215D01*
X0124520Y0175563D01*
X0130918Y0142075D02*
X0135976Y0142075D01*
X0135976Y0141077D02*
X0133158Y0141077D01*
X0134156Y0140078D02*
X0135976Y0140078D01*
X0135976Y0139080D02*
X0135155Y0139080D01*
X0135662Y0138081D02*
X0135976Y0138081D01*
X0135872Y0131092D02*
X0135976Y0131092D01*
X0135976Y0130093D02*
X0135458Y0130093D01*
X0135976Y0129095D02*
X0134663Y0129095D01*
X0133664Y0128096D02*
X0135976Y0128096D01*
X0135976Y0127098D02*
X0132142Y0127098D01*
X0062770Y0246919D02*
X0026346Y0246919D01*
X0026346Y0247917D02*
X0062062Y0247917D01*
X0061339Y0248916D02*
X0026346Y0248916D01*
X0026346Y0249915D02*
X0060341Y0249915D01*
X0059520Y0253315D02*
X0059961Y0253756D01*
X0060176Y0253615D01*
X0053011Y0255906D02*
X0050558Y0255906D01*
X0048393Y0255906D02*
X0027266Y0255906D01*
X0026346Y0254907D02*
X0047066Y0254907D01*
X0046624Y0253909D02*
X0026346Y0253909D01*
X0026346Y0252910D02*
X0046576Y0252910D01*
X0046877Y0251912D02*
X0026346Y0251912D01*
X0026346Y0250913D02*
X0047676Y0250913D01*
D27*
X0011669Y0155201D03*
X0011669Y0149201D03*
D28*
X0124520Y0175563D03*
X0124520Y0186587D03*
X0124862Y0201516D03*
X0124862Y0212539D03*
D29*
X0143276Y0165622D03*
X0074276Y0246815D03*
X0064726Y0249065D03*
X0049476Y0253215D03*
X0010776Y0221815D03*
X0016776Y0199315D03*
X0012776Y0193215D03*
X0010176Y0195515D03*
X0010176Y0186515D03*
X0010176Y0180615D03*
X0010176Y0174515D03*
X0015376Y0167815D03*
X0021276Y0170115D03*
X0018576Y0161715D03*
X0013376Y0158815D03*
X0034776Y0173815D03*
X0039876Y0167865D03*
X0055276Y0168315D03*
X0035776Y0194115D03*
X0068276Y0132315D03*
X0065776Y0118315D03*
X0045776Y0123315D03*
X0028776Y0127815D03*
X0013776Y0118815D03*
X0031776Y0099315D03*
X0018776Y0079315D03*
X0022276Y0063815D03*
X0051776Y0089315D03*
D30*
X0109276Y0044315D03*
D31*
X0143276Y0172315D03*
D32*
X0200265Y0246725D02*
X0074276Y0246815D01*
X0064726Y0249065D02*
X0060176Y0253615D01*
X0059520Y0253315D02*
X0049476Y0253215D01*
X0035776Y0194115D02*
X0039961Y0189811D01*
X0039965Y0175374D02*
X0034776Y0173815D01*
X0027083Y0175531D02*
X0027083Y0189713D01*
X0027024Y0189772D01*
X0027083Y0175531D02*
X0021666Y0170115D01*
X0021276Y0170115D01*
X0018576Y0161715D02*
X0020606Y0159684D01*
X0022107Y0159684D01*
X0028776Y0127815D02*
X0041276Y0127815D01*
X0045776Y0123315D01*
X0068276Y0132315D02*
X0071221Y0135261D01*
X0071221Y0138602D01*
X0015276Y0107815D02*
X0015276Y0096736D01*
X0015394Y0096594D02*
X0015394Y0082213D01*
X0015276Y0107815D02*
X0013776Y0109315D01*
X0013776Y0118815D01*
X0200265Y0246725D02*
X0206165Y0253141D01*
M02*
