G75*
%MOIN*%
%OFA0B0*%
%FSLAX25Y25*%
%IPPOS*%
%LPD*%
%AMOC8*
5,1,8,0,0,1.08239X$1,22.5*
%
%ADD10R,0.02500X0.12008*%
%ADD11R,0.05906X0.05118*%
%ADD12R,0.04600X0.06300*%
%ADD13R,0.04000X0.10500*%
%ADD14R,0.10500X0.04000*%
%ADD15R,0.06102X0.02362*%
%ADD16C,0.01654*%
%ADD17R,0.06300X0.04600*%
%ADD18R,0.10630X0.06299*%
D10*
X0014990Y0046535D03*
X0019232Y0046535D03*
X0019315Y0061185D03*
X0015073Y0061185D03*
X0015394Y0082213D03*
X0011152Y0082213D03*
X0011163Y0096606D03*
X0015406Y0096606D03*
X0027083Y0175531D03*
X0031325Y0175531D03*
X0039965Y0175374D03*
X0044207Y0175374D03*
X0044203Y0189811D03*
X0039961Y0189811D03*
X0031266Y0189772D03*
X0027024Y0189772D03*
D11*
X0055480Y0134571D03*
X0055480Y0127091D03*
X0044441Y0101323D03*
X0044441Y0093843D03*
D12*
X0033346Y0204500D03*
X0027346Y0204500D03*
D13*
X0042425Y0202870D03*
D14*
X0011280Y0163287D03*
X0023992Y0098610D03*
X0033602Y0092409D03*
X0059961Y0253756D03*
X0206165Y0253141D03*
D15*
X0043367Y0149684D03*
X0044913Y0071406D03*
D16*
X0047137Y0076052D02*
X0047137Y0076760D01*
X0047137Y0076052D02*
X0042689Y0076052D01*
X0042689Y0076760D01*
X0047137Y0076760D01*
X0047137Y0081052D02*
X0047137Y0081760D01*
X0047137Y0081052D02*
X0042689Y0081052D01*
X0042689Y0081760D01*
X0047137Y0081760D01*
X0047019Y0086052D02*
X0047019Y0086760D01*
X0047019Y0086052D02*
X0042571Y0086052D01*
X0042571Y0086760D01*
X0047019Y0086760D01*
X0031981Y0079397D02*
X0031981Y0078689D01*
X0031981Y0079397D02*
X0036429Y0079397D01*
X0036429Y0078689D01*
X0031981Y0078689D01*
X0021430Y0076760D02*
X0021430Y0076052D01*
X0021430Y0076760D02*
X0025878Y0076760D01*
X0025878Y0076052D01*
X0021430Y0076052D01*
X0021430Y0071799D02*
X0021430Y0071091D01*
X0021430Y0071799D02*
X0025878Y0071799D01*
X0025878Y0071091D01*
X0021430Y0071091D01*
X0021430Y0081052D02*
X0021430Y0081760D01*
X0025878Y0081760D01*
X0025878Y0081052D01*
X0021430Y0081052D01*
X0021430Y0086052D02*
X0021430Y0086760D01*
X0025878Y0086760D01*
X0025878Y0086052D01*
X0021430Y0086052D01*
X0019883Y0149370D02*
X0019883Y0150078D01*
X0024331Y0150078D01*
X0024331Y0149370D01*
X0019883Y0149370D01*
X0019883Y0154330D02*
X0019883Y0155038D01*
X0024331Y0155038D01*
X0024331Y0154330D01*
X0019883Y0154330D01*
X0019883Y0159330D02*
X0019883Y0160038D01*
X0024331Y0160038D01*
X0024331Y0159330D01*
X0019883Y0159330D01*
X0019883Y0164330D02*
X0019883Y0165038D01*
X0024331Y0165038D01*
X0024331Y0164330D01*
X0019883Y0164330D01*
X0030434Y0157676D02*
X0030434Y0156968D01*
X0030434Y0157676D02*
X0034882Y0157676D01*
X0034882Y0156968D01*
X0030434Y0156968D01*
X0045591Y0155038D02*
X0045591Y0154330D01*
X0041143Y0154330D01*
X0041143Y0155038D01*
X0045591Y0155038D01*
X0045591Y0159330D02*
X0045591Y0160038D01*
X0045591Y0159330D02*
X0041143Y0159330D01*
X0041143Y0160038D01*
X0045591Y0160038D01*
X0045473Y0164330D02*
X0045473Y0165038D01*
X0045473Y0164330D02*
X0041025Y0164330D01*
X0041025Y0165038D01*
X0045473Y0165038D01*
D17*
X0011669Y0155201D03*
X0011669Y0149201D03*
D18*
X0124520Y0175563D03*
X0124520Y0186587D03*
X0124862Y0201516D03*
X0124862Y0212539D03*
M02*
