G75*
%MOIN*%
%OFA0B0*%
%FSLAX25Y25*%
%IPPOS*%
%LPD*%
%AMOC8*
5,1,8,0,0,1.08239X$1,22.5*
%
%ADD10R,0.02638X0.01181*%
%ADD11R,0.01969X0.01181*%
%ADD12R,0.03937X0.01378*%
%ADD13C,0.00000*%
%ADD14C,0.15811*%
%ADD15C,0.05550*%
%ADD16R,0.05550X0.05550*%
%ADD17C,0.05550*%
%ADD18R,0.08858X0.08858*%
%ADD19C,0.09449*%
%ADD20R,0.12795X0.12795*%
%ADD21C,0.12795*%
%ADD22C,0.09449*%
%ADD23C,0.02400*%
%ADD24C,0.01000*%
%ADD25R,0.06496X0.06496*%
%ADD26C,0.04400*%
%ADD27C,0.01600*%
%ADD28C,0.01200*%
D10*
X0007264Y0172260D03*
X0007264Y0174622D03*
X0007264Y0176984D03*
X0007264Y0179346D03*
X0007264Y0181709D03*
X0007264Y0184071D03*
X0007264Y0186433D03*
X0007264Y0188795D03*
X0007264Y0191157D03*
X0007264Y0193520D03*
X0007264Y0195882D03*
X0007264Y0198244D03*
X0007264Y0200606D03*
X0007264Y0202969D03*
X0007264Y0205331D03*
X0007264Y0207693D03*
X0007264Y0210055D03*
X0007264Y0212417D03*
X0007264Y0214780D03*
X0007264Y0217142D03*
X0007264Y0219504D03*
X0007264Y0221866D03*
X0007264Y0224228D03*
X0007264Y0226591D03*
X0007264Y0228953D03*
X0007264Y0231315D03*
D11*
X0019331Y0230134D03*
X0019331Y0227772D03*
X0019331Y0225409D03*
X0019331Y0223047D03*
X0019331Y0220685D03*
X0019331Y0218323D03*
X0019331Y0215961D03*
X0019331Y0213598D03*
X0019331Y0211236D03*
X0019331Y0208874D03*
X0019331Y0206512D03*
X0019331Y0204150D03*
X0019331Y0201787D03*
X0019331Y0199425D03*
X0019331Y0197063D03*
X0019331Y0194701D03*
X0019331Y0192339D03*
X0019331Y0189976D03*
X0019331Y0187614D03*
X0019331Y0185252D03*
X0019331Y0182890D03*
X0019331Y0180528D03*
X0019331Y0178165D03*
X0019331Y0175803D03*
X0019331Y0173441D03*
D12*
X0008307Y0168421D03*
X0008307Y0235154D03*
D13*
X0006713Y0237220D02*
X0006677Y0237220D01*
D14*
X0060748Y0229445D03*
X0060748Y0056217D03*
X0253661Y0056217D03*
X0253661Y0229445D03*
D15*
X0095650Y0138602D02*
X0090100Y0138602D01*
X0028031Y0115934D02*
X0028031Y0110384D01*
D16*
X0028031Y0134813D03*
X0056918Y0158467D03*
X0071221Y0138602D03*
X0107627Y0117913D03*
D17*
X0106918Y0158467D03*
X0057627Y0117913D03*
D18*
X0082607Y0072125D03*
X0081938Y0204254D03*
D19*
X0145706Y0156691D03*
X0164305Y0142160D03*
X0147901Y0052281D03*
X0166499Y0037750D03*
D20*
X0128568Y0045024D03*
X0128450Y0112876D03*
D21*
X0128450Y0134333D03*
X0128450Y0155790D03*
X0128568Y0087937D03*
X0128568Y0066480D03*
D22*
X0184610Y0085835D02*
X0194059Y0085835D01*
X0193354Y0187768D02*
X0183906Y0187768D01*
D23*
X0143276Y0165622D03*
X0074276Y0246815D03*
X0064726Y0249065D03*
X0049476Y0253215D03*
X0010776Y0221815D03*
X0016776Y0199315D03*
X0012776Y0193215D03*
X0010176Y0195515D03*
X0010176Y0186515D03*
X0010176Y0180615D03*
X0010176Y0174515D03*
X0015376Y0167815D03*
X0021276Y0170115D03*
X0018576Y0161715D03*
X0013376Y0158815D03*
X0034776Y0173815D03*
X0039876Y0167865D03*
X0055276Y0168315D03*
X0035776Y0194115D03*
X0068276Y0132315D03*
X0065776Y0118315D03*
X0045776Y0123315D03*
X0028776Y0127815D03*
X0013776Y0118815D03*
X0031776Y0099315D03*
X0018776Y0079315D03*
X0022276Y0063815D03*
X0051776Y0089315D03*
D24*
X0026747Y0029244D02*
X0134504Y0029244D01*
X0135476Y0030215D02*
X0130476Y0025215D01*
X0030776Y0025215D01*
X0026476Y0029515D01*
X0026476Y0038015D01*
X0026346Y0038145D01*
X0026346Y0038220D01*
X0025350Y0039216D01*
X0024775Y0039216D01*
X0024376Y0039615D01*
X0008676Y0039615D01*
X0006776Y0041515D01*
X0006776Y0166032D01*
X0010980Y0166032D01*
X0011976Y0167028D01*
X0011976Y0169814D01*
X0010980Y0170810D01*
X0010128Y0170810D01*
X0010283Y0170965D01*
X0010283Y0171615D01*
X0010752Y0171615D01*
X0011818Y0172056D01*
X0012634Y0172872D01*
X0013076Y0173938D01*
X0013076Y0175092D01*
X0012634Y0176158D01*
X0011818Y0176973D01*
X0010752Y0177415D01*
X0010528Y0177415D01*
X0010378Y0177565D01*
X0010528Y0177715D01*
X0010752Y0177715D01*
X0011818Y0178156D01*
X0012634Y0178972D01*
X0013076Y0180038D01*
X0013076Y0181192D01*
X0012634Y0182258D01*
X0011818Y0183073D01*
X0010752Y0183515D01*
X0010283Y0183515D01*
X0010283Y0183615D01*
X0010752Y0183615D01*
X0011818Y0184056D01*
X0012634Y0184872D01*
X0013076Y0185938D01*
X0013076Y0187092D01*
X0012634Y0188158D01*
X0011818Y0188973D01*
X0010752Y0189415D01*
X0010283Y0189415D01*
X0010283Y0191655D01*
X0010317Y0191572D01*
X0011133Y0190756D01*
X0012199Y0190315D01*
X0013352Y0190315D01*
X0014418Y0190756D01*
X0015234Y0191572D01*
X0015676Y0192638D01*
X0015676Y0193792D01*
X0015234Y0194858D01*
X0015018Y0195073D01*
X0015060Y0196926D01*
X0015062Y0196928D01*
X0015133Y0196856D01*
X0016199Y0196415D01*
X0016646Y0196415D01*
X0016646Y0188682D01*
X0017642Y0187686D01*
X0021019Y0187686D01*
X0022015Y0188682D01*
X0022015Y0194715D01*
X0027190Y0194715D01*
X0055992Y0171157D01*
X0055852Y0171215D01*
X0054699Y0171215D01*
X0053633Y0170773D01*
X0052817Y0169958D01*
X0052376Y0168892D01*
X0052376Y0167738D01*
X0052817Y0166672D01*
X0053633Y0165856D01*
X0054699Y0165415D01*
X0055852Y0165415D01*
X0056918Y0165856D01*
X0057734Y0166672D01*
X0058176Y0167738D01*
X0058176Y0168892D01*
X0057875Y0169617D01*
X0062584Y0165765D01*
X0062676Y0154206D01*
X0062676Y0153304D01*
X0062683Y0153296D01*
X0062683Y0153286D01*
X0063326Y0152654D01*
X0066764Y0149215D01*
X0080064Y0149215D01*
X0080576Y0148704D01*
X0080576Y0134604D01*
X0081864Y0133315D01*
X0088064Y0127115D01*
X0089576Y0127115D01*
X0089576Y0117754D01*
X0090864Y0116465D01*
X0103152Y0116465D01*
X0103152Y0114434D01*
X0104148Y0113438D01*
X0111106Y0113438D01*
X0112102Y0114434D01*
X0112102Y0121392D01*
X0111106Y0122387D01*
X0104148Y0122387D01*
X0103152Y0121392D01*
X0103152Y0120865D01*
X0093976Y0120865D01*
X0093976Y0129163D01*
X0092913Y0130226D01*
X0091624Y0131515D01*
X0089887Y0131515D01*
X0084976Y0136426D01*
X0084976Y0150526D01*
X0083687Y0151815D01*
X0083687Y0151815D01*
X0083176Y0152326D01*
X0081887Y0153615D01*
X0068587Y0153615D01*
X0067068Y0155133D01*
X0066982Y0166037D01*
X0067055Y0166127D01*
X0066975Y0166934D01*
X0066968Y0167744D01*
X0066885Y0167825D01*
X0066874Y0167941D01*
X0066247Y0168454D01*
X0065669Y0169022D01*
X0065553Y0169021D01*
X0037626Y0191864D01*
X0038234Y0192472D01*
X0038676Y0193538D01*
X0038676Y0194692D01*
X0038234Y0195758D01*
X0037418Y0196573D01*
X0036352Y0197015D01*
X0035199Y0197015D01*
X0034133Y0196573D01*
X0033317Y0195758D01*
X0033203Y0195482D01*
X0031145Y0197165D01*
X0065214Y0197165D01*
X0102613Y0159766D01*
X0102443Y0159357D01*
X0102443Y0157577D01*
X0103125Y0155932D01*
X0104383Y0154673D01*
X0106028Y0153992D01*
X0107808Y0153992D01*
X0109453Y0154673D01*
X0110712Y0155932D01*
X0111393Y0157577D01*
X0111393Y0159357D01*
X0110712Y0161002D01*
X0109453Y0162260D01*
X0107808Y0162942D01*
X0106028Y0162942D01*
X0105768Y0162834D01*
X0067037Y0201565D01*
X0022015Y0201565D01*
X0022015Y0219618D01*
X0021019Y0220613D01*
X0017642Y0220613D01*
X0016646Y0219618D01*
X0016646Y0202215D01*
X0016199Y0202215D01*
X0015133Y0201773D01*
X0014317Y0200958D01*
X0013876Y0199892D01*
X0013876Y0199753D01*
X0013837Y0199794D01*
X0013564Y0199800D01*
X0013397Y0199911D01*
X0012934Y0200395D01*
X0012663Y0200401D01*
X0012438Y0200551D01*
X0011781Y0200420D01*
X0010283Y0200452D01*
X0010283Y0218915D01*
X0011352Y0218915D01*
X0012418Y0219356D01*
X0013234Y0220172D01*
X0013676Y0221238D01*
X0013676Y0222392D01*
X0013234Y0223458D01*
X0012418Y0224273D01*
X0011352Y0224715D01*
X0010283Y0224715D01*
X0010283Y0228815D01*
X0012073Y0228815D01*
X0012992Y0229196D01*
X0014492Y0230696D01*
X0015195Y0231399D01*
X0015576Y0232318D01*
X0015576Y0233815D01*
X0025773Y0233815D01*
X0026692Y0234196D01*
X0029811Y0237315D01*
X0031087Y0237315D01*
X0031392Y0237269D01*
X0031580Y0237315D01*
X0031773Y0237315D01*
X0032058Y0237433D01*
X0032357Y0237507D01*
X0032513Y0237622D01*
X0032692Y0237696D01*
X0032910Y0237914D01*
X0049753Y0250315D01*
X0050052Y0250315D01*
X0051118Y0250756D01*
X0051934Y0251572D01*
X0052376Y0252638D01*
X0052376Y0253792D01*
X0051934Y0254858D01*
X0051118Y0255673D01*
X0050052Y0256115D01*
X0048899Y0256115D01*
X0047833Y0255673D01*
X0047017Y0254858D01*
X0046810Y0254357D01*
X0030455Y0242315D01*
X0028278Y0242315D01*
X0027359Y0241934D01*
X0026656Y0241231D01*
X0026346Y0240921D01*
X0026346Y0254937D01*
X0026389Y0255373D01*
X0026723Y0256180D01*
X0027340Y0256797D01*
X0028146Y0257131D01*
X0028583Y0257174D01*
X0128017Y0257174D01*
X0135476Y0249715D01*
X0135476Y0138531D01*
X0135314Y0138920D01*
X0133037Y0141198D01*
X0130060Y0142431D01*
X0126839Y0142431D01*
X0123863Y0141198D01*
X0121585Y0138920D01*
X0120352Y0135944D01*
X0120352Y0132722D01*
X0121585Y0129746D01*
X0123863Y0127468D01*
X0126839Y0126235D01*
X0130060Y0126235D01*
X0133037Y0127468D01*
X0135314Y0129746D01*
X0135476Y0130135D01*
X0135476Y0120974D01*
X0121348Y0120974D01*
X0120352Y0119978D01*
X0120352Y0105775D01*
X0121348Y0104779D01*
X0135476Y0104779D01*
X0135476Y0070963D01*
X0135433Y0071067D01*
X0133155Y0073345D01*
X0130178Y0074578D01*
X0126957Y0074578D01*
X0123981Y0073345D01*
X0121703Y0071067D01*
X0120470Y0068091D01*
X0120470Y0064870D01*
X0121703Y0061893D01*
X0123981Y0059615D01*
X0126957Y0058383D01*
X0130178Y0058383D01*
X0133155Y0059615D01*
X0135433Y0061893D01*
X0135476Y0061997D01*
X0135476Y0053121D01*
X0121466Y0053121D01*
X0120470Y0052125D01*
X0120470Y0037922D01*
X0121466Y0036926D01*
X0135476Y0036926D01*
X0135476Y0030215D01*
X0135476Y0030242D02*
X0026476Y0030242D01*
X0026476Y0031241D02*
X0135476Y0031241D01*
X0135476Y0032239D02*
X0026476Y0032239D01*
X0026476Y0033238D02*
X0135476Y0033238D01*
X0135476Y0034236D02*
X0026476Y0034236D01*
X0026476Y0035235D02*
X0135476Y0035235D01*
X0135476Y0036233D02*
X0026476Y0036233D01*
X0026476Y0037232D02*
X0121160Y0037232D01*
X0120470Y0038230D02*
X0026335Y0038230D01*
X0024762Y0039229D02*
X0120470Y0039229D01*
X0120470Y0040227D02*
X0114088Y0040227D01*
X0114224Y0040363D02*
X0114224Y0048267D01*
X0113228Y0049263D01*
X0107439Y0049263D01*
X0095976Y0060726D01*
X0095976Y0109226D01*
X0094687Y0110515D01*
X0084687Y0120515D01*
X0067677Y0120515D01*
X0067418Y0120773D01*
X0066352Y0121215D01*
X0065199Y0121215D01*
X0064133Y0120773D01*
X0063317Y0119958D01*
X0062876Y0118892D01*
X0062876Y0117738D01*
X0063317Y0116672D01*
X0064133Y0115856D01*
X0065199Y0115415D01*
X0066352Y0115415D01*
X0067418Y0115856D01*
X0067677Y0116115D01*
X0082864Y0116115D01*
X0091576Y0107404D01*
X0091576Y0058904D01*
X0104328Y0046152D01*
X0104328Y0040363D01*
X0105323Y0039367D01*
X0113228Y0039367D01*
X0114224Y0040363D01*
X0114224Y0041226D02*
X0120470Y0041226D01*
X0120470Y0042224D02*
X0114224Y0042224D01*
X0114224Y0043223D02*
X0120470Y0043223D01*
X0120470Y0044221D02*
X0114224Y0044221D01*
X0114224Y0045220D02*
X0120470Y0045220D01*
X0120470Y0046218D02*
X0114224Y0046218D01*
X0114224Y0047217D02*
X0120470Y0047217D01*
X0120470Y0048215D02*
X0114224Y0048215D01*
X0113277Y0049214D02*
X0120470Y0049214D01*
X0120470Y0050212D02*
X0106490Y0050212D01*
X0105491Y0051211D02*
X0120470Y0051211D01*
X0120554Y0052209D02*
X0104493Y0052209D01*
X0103494Y0053208D02*
X0135476Y0053208D01*
X0135476Y0054206D02*
X0102496Y0054206D01*
X0101497Y0055205D02*
X0135476Y0055205D01*
X0135476Y0056203D02*
X0100498Y0056203D01*
X0099500Y0057202D02*
X0135476Y0057202D01*
X0135476Y0058200D02*
X0098501Y0058200D01*
X0097503Y0059199D02*
X0124987Y0059199D01*
X0123399Y0060197D02*
X0096504Y0060197D01*
X0095976Y0061196D02*
X0122400Y0061196D01*
X0121578Y0062194D02*
X0095976Y0062194D01*
X0095976Y0063193D02*
X0121165Y0063193D01*
X0120751Y0064191D02*
X0095976Y0064191D01*
X0095976Y0065190D02*
X0120470Y0065190D01*
X0120470Y0066188D02*
X0095976Y0066188D01*
X0095976Y0067187D02*
X0120470Y0067187D01*
X0120509Y0068185D02*
X0095976Y0068185D01*
X0095976Y0069184D02*
X0120923Y0069184D01*
X0121336Y0070182D02*
X0095976Y0070182D01*
X0095976Y0071181D02*
X0121817Y0071181D01*
X0122815Y0072179D02*
X0095976Y0072179D01*
X0095976Y0073178D02*
X0123814Y0073178D01*
X0125988Y0074177D02*
X0095976Y0074177D01*
X0095976Y0075175D02*
X0135476Y0075175D01*
X0135476Y0074177D02*
X0131148Y0074177D01*
X0133322Y0073178D02*
X0135476Y0073178D01*
X0135476Y0072179D02*
X0134320Y0072179D01*
X0135319Y0071181D02*
X0135476Y0071181D01*
X0135476Y0076174D02*
X0095976Y0076174D01*
X0095976Y0077172D02*
X0135476Y0077172D01*
X0135476Y0078171D02*
X0095976Y0078171D01*
X0095976Y0079169D02*
X0135476Y0079169D01*
X0135476Y0080168D02*
X0095976Y0080168D01*
X0095976Y0081166D02*
X0135476Y0081166D01*
X0135476Y0082165D02*
X0095976Y0082165D01*
X0095976Y0083163D02*
X0135476Y0083163D01*
X0135476Y0084162D02*
X0095976Y0084162D01*
X0095976Y0085160D02*
X0135476Y0085160D01*
X0135476Y0086159D02*
X0095976Y0086159D01*
X0095976Y0087157D02*
X0135476Y0087157D01*
X0135476Y0088156D02*
X0095976Y0088156D01*
X0095976Y0089154D02*
X0135476Y0089154D01*
X0135476Y0090153D02*
X0095976Y0090153D01*
X0095976Y0091151D02*
X0135476Y0091151D01*
X0135476Y0092150D02*
X0095976Y0092150D01*
X0095976Y0093148D02*
X0135476Y0093148D01*
X0135476Y0094147D02*
X0095976Y0094147D01*
X0095976Y0095145D02*
X0135476Y0095145D01*
X0135476Y0096144D02*
X0095976Y0096144D01*
X0095976Y0097142D02*
X0135476Y0097142D01*
X0135476Y0098141D02*
X0095976Y0098141D01*
X0095976Y0099139D02*
X0135476Y0099139D01*
X0135476Y0100138D02*
X0095976Y0100138D01*
X0095976Y0101136D02*
X0135476Y0101136D01*
X0135476Y0102135D02*
X0095976Y0102135D01*
X0095976Y0103133D02*
X0135476Y0103133D01*
X0135476Y0104132D02*
X0095976Y0104132D01*
X0095976Y0105130D02*
X0120996Y0105130D01*
X0120352Y0106129D02*
X0095976Y0106129D01*
X0095976Y0107127D02*
X0120352Y0107127D01*
X0120352Y0108126D02*
X0095976Y0108126D01*
X0095976Y0109124D02*
X0120352Y0109124D01*
X0120352Y0110123D02*
X0095079Y0110123D01*
X0094080Y0111121D02*
X0120352Y0111121D01*
X0120352Y0112120D02*
X0093082Y0112120D01*
X0092083Y0113118D02*
X0120352Y0113118D01*
X0120352Y0114117D02*
X0111785Y0114117D01*
X0112102Y0115115D02*
X0120352Y0115115D01*
X0120352Y0116114D02*
X0112102Y0116114D01*
X0112102Y0117112D02*
X0120352Y0117112D01*
X0120352Y0118111D02*
X0112102Y0118111D01*
X0112102Y0119110D02*
X0120352Y0119110D01*
X0120482Y0120108D02*
X0112102Y0120108D01*
X0112102Y0121107D02*
X0135476Y0121107D01*
X0135476Y0122105D02*
X0111388Y0122105D01*
X0107426Y0118165D02*
X0107627Y0117913D01*
X0107426Y0118165D02*
X0104726Y0118665D01*
X0091776Y0118665D01*
X0091776Y0128252D01*
X0090713Y0129315D01*
X0088976Y0129315D01*
X0082776Y0135515D01*
X0082776Y0141015D01*
X0082776Y0149615D01*
X0080976Y0151415D01*
X0067676Y0151415D01*
X0064876Y0154215D01*
X0064776Y0166815D01*
X0027976Y0196915D01*
X0019576Y0196915D01*
X0019331Y0197063D01*
X0019220Y0199315D02*
X0016776Y0199315D01*
X0019220Y0199315D02*
X0019331Y0199425D01*
X0019576Y0199365D01*
X0066126Y0199365D01*
X0106726Y0158765D01*
X0106918Y0158467D01*
X0111106Y0160048D02*
X0135476Y0160048D01*
X0135476Y0159050D02*
X0111393Y0159050D01*
X0111393Y0158051D02*
X0135476Y0158051D01*
X0135476Y0157053D02*
X0111176Y0157053D01*
X0110762Y0156054D02*
X0135476Y0156054D01*
X0135476Y0155056D02*
X0109835Y0155056D01*
X0107966Y0154057D02*
X0135476Y0154057D01*
X0135476Y0153059D02*
X0082443Y0153059D01*
X0083176Y0152326D02*
X0083176Y0152326D01*
X0083441Y0152060D02*
X0135476Y0152060D01*
X0135476Y0151062D02*
X0084440Y0151062D01*
X0084976Y0150063D02*
X0135476Y0150063D01*
X0135476Y0149065D02*
X0084976Y0149065D01*
X0084976Y0148066D02*
X0135476Y0148066D01*
X0135476Y0147068D02*
X0084976Y0147068D01*
X0084976Y0146069D02*
X0135476Y0146069D01*
X0135476Y0145071D02*
X0084976Y0145071D01*
X0084976Y0144072D02*
X0135476Y0144072D01*
X0135476Y0143074D02*
X0084976Y0143074D01*
X0084976Y0142075D02*
X0125981Y0142075D01*
X0123742Y0141077D02*
X0084976Y0141077D01*
X0084976Y0140078D02*
X0122743Y0140078D01*
X0121745Y0139080D02*
X0084976Y0139080D01*
X0084976Y0138081D02*
X0121237Y0138081D01*
X0120824Y0137083D02*
X0084976Y0137083D01*
X0085318Y0136084D02*
X0120410Y0136084D01*
X0120352Y0135086D02*
X0086316Y0135086D01*
X0087315Y0134087D02*
X0120352Y0134087D01*
X0120352Y0133089D02*
X0088313Y0133089D01*
X0089312Y0132090D02*
X0120614Y0132090D01*
X0121027Y0131092D02*
X0092047Y0131092D01*
X0093046Y0130093D02*
X0121441Y0130093D01*
X0122236Y0129095D02*
X0093976Y0129095D01*
X0093976Y0128096D02*
X0123235Y0128096D01*
X0124757Y0127098D02*
X0093976Y0127098D01*
X0093976Y0126099D02*
X0135476Y0126099D01*
X0135476Y0125101D02*
X0093976Y0125101D01*
X0093976Y0124102D02*
X0135476Y0124102D01*
X0135476Y0123104D02*
X0093976Y0123104D01*
X0093976Y0122105D02*
X0103865Y0122105D01*
X0103152Y0121107D02*
X0093976Y0121107D01*
X0089576Y0121107D02*
X0066614Y0121107D01*
X0064937Y0121107D02*
X0060761Y0121107D01*
X0060162Y0121706D02*
X0061420Y0120447D01*
X0062102Y0118803D01*
X0062102Y0117022D01*
X0061420Y0115378D01*
X0060162Y0114119D01*
X0058517Y0113438D01*
X0056737Y0113438D01*
X0055092Y0114119D01*
X0053833Y0115378D01*
X0053152Y0117022D01*
X0053152Y0118803D01*
X0053833Y0120447D01*
X0055092Y0121706D01*
X0056737Y0122387D01*
X0058517Y0122387D01*
X0060162Y0121706D01*
X0059198Y0122105D02*
X0089576Y0122105D01*
X0089576Y0123104D02*
X0049100Y0123104D01*
X0048634Y0122638D02*
X0055811Y0129815D01*
X0066733Y0129815D01*
X0067699Y0129415D01*
X0068852Y0129415D01*
X0069918Y0129856D01*
X0070734Y0130672D01*
X0071176Y0131738D01*
X0071176Y0132892D01*
X0070734Y0133958D01*
X0070565Y0134127D01*
X0074700Y0134127D01*
X0075696Y0135123D01*
X0075696Y0142081D01*
X0074700Y0143076D01*
X0067742Y0143076D01*
X0066746Y0142081D01*
X0066746Y0135123D01*
X0066960Y0134909D01*
X0066733Y0134815D01*
X0054278Y0134815D01*
X0053359Y0134434D01*
X0052656Y0133731D01*
X0045099Y0126173D01*
X0044133Y0125773D01*
X0043317Y0124958D01*
X0042876Y0123892D01*
X0042876Y0122738D01*
X0043317Y0121672D01*
X0044133Y0120856D01*
X0045199Y0120415D01*
X0046352Y0120415D01*
X0047418Y0120856D01*
X0048234Y0121672D01*
X0048634Y0122638D01*
X0048413Y0122105D02*
X0056055Y0122105D01*
X0054492Y0121107D02*
X0047668Y0121107D01*
X0043883Y0121107D02*
X0018276Y0121107D01*
X0018276Y0120318D02*
X0017895Y0119399D01*
X0017192Y0118696D01*
X0016634Y0118138D01*
X0016234Y0117172D01*
X0015418Y0116356D01*
X0014352Y0115915D01*
X0013199Y0115915D01*
X0012133Y0116356D01*
X0011317Y0117172D01*
X0010876Y0118238D01*
X0010876Y0119392D01*
X0011317Y0120458D01*
X0012133Y0121273D01*
X0013099Y0121673D01*
X0013276Y0121850D01*
X0013276Y0128312D01*
X0013656Y0129231D01*
X0015156Y0130731D01*
X0015859Y0131434D01*
X0016778Y0131815D01*
X0022273Y0131815D01*
X0023192Y0131434D01*
X0024311Y0130315D01*
X0027233Y0130315D01*
X0027288Y0130338D01*
X0024552Y0130338D01*
X0023556Y0131334D01*
X0023556Y0138292D01*
X0024552Y0139287D01*
X0029537Y0139287D01*
X0037676Y0147426D01*
X0037676Y0165964D01*
X0037417Y0166222D01*
X0036976Y0167288D01*
X0036976Y0168442D01*
X0037417Y0169508D01*
X0038233Y0170323D01*
X0039299Y0170765D01*
X0040452Y0170765D01*
X0041518Y0170323D01*
X0042334Y0169508D01*
X0042776Y0168442D01*
X0042776Y0167288D01*
X0042334Y0166222D01*
X0042076Y0165964D01*
X0042076Y0145604D01*
X0040787Y0144315D01*
X0040787Y0144315D01*
X0032505Y0136034D01*
X0032505Y0131334D01*
X0031510Y0130338D01*
X0030263Y0130338D01*
X0030418Y0130273D01*
X0031234Y0129458D01*
X0031676Y0128392D01*
X0031676Y0127238D01*
X0031234Y0126172D01*
X0030418Y0125356D01*
X0029352Y0124915D01*
X0028199Y0124915D01*
X0027233Y0125315D01*
X0022778Y0125315D01*
X0021859Y0125696D01*
X0021156Y0126399D01*
X0020740Y0126815D01*
X0018311Y0126815D01*
X0018276Y0126779D01*
X0018276Y0120318D01*
X0018189Y0120108D02*
X0053693Y0120108D01*
X0053279Y0119110D02*
X0017606Y0119110D01*
X0016623Y0118111D02*
X0053152Y0118111D01*
X0053152Y0117112D02*
X0016174Y0117112D01*
X0014833Y0116114D02*
X0053528Y0116114D01*
X0054096Y0115115D02*
X0006776Y0115115D01*
X0006776Y0114117D02*
X0055097Y0114117D01*
X0060157Y0114117D02*
X0084862Y0114117D01*
X0083864Y0115115D02*
X0061158Y0115115D01*
X0061725Y0116114D02*
X0063875Y0116114D01*
X0063135Y0117112D02*
X0062102Y0117112D01*
X0062102Y0118111D02*
X0062876Y0118111D01*
X0062966Y0119110D02*
X0061974Y0119110D01*
X0061561Y0120108D02*
X0063467Y0120108D01*
X0065776Y0118315D02*
X0083776Y0118315D01*
X0093776Y0108315D01*
X0093776Y0059815D01*
X0109276Y0044315D01*
X0104328Y0044221D02*
X0006776Y0044221D01*
X0006776Y0043223D02*
X0104328Y0043223D01*
X0104328Y0042224D02*
X0006776Y0042224D01*
X0007065Y0041226D02*
X0104328Y0041226D01*
X0104463Y0040227D02*
X0008063Y0040227D01*
X0006776Y0045220D02*
X0104328Y0045220D01*
X0104261Y0046218D02*
X0006776Y0046218D01*
X0006776Y0047217D02*
X0057375Y0047217D01*
X0058837Y0046611D02*
X0062659Y0046611D01*
X0066189Y0048073D01*
X0068891Y0050775D01*
X0070354Y0054306D01*
X0070354Y0058127D01*
X0068891Y0061658D01*
X0066189Y0064360D01*
X0062659Y0065822D01*
X0058837Y0065822D01*
X0055307Y0064360D01*
X0052605Y0061658D01*
X0051143Y0058127D01*
X0051143Y0054306D01*
X0052605Y0050775D01*
X0055307Y0048073D01*
X0058837Y0046611D01*
X0055165Y0048215D02*
X0006776Y0048215D01*
X0006776Y0049214D02*
X0054167Y0049214D01*
X0053168Y0050212D02*
X0006776Y0050212D01*
X0006776Y0051211D02*
X0033190Y0051211D01*
X0033289Y0051170D02*
X0035688Y0051170D01*
X0037904Y0052088D01*
X0039601Y0053785D01*
X0040519Y0056001D01*
X0040519Y0058400D01*
X0039601Y0060617D01*
X0037904Y0062313D01*
X0035688Y0063231D01*
X0033289Y0063231D01*
X0031072Y0062313D01*
X0029376Y0060617D01*
X0028457Y0058400D01*
X0028457Y0056001D01*
X0029376Y0053785D01*
X0031072Y0052088D01*
X0033289Y0051170D01*
X0035786Y0051211D02*
X0052425Y0051211D01*
X0052011Y0052209D02*
X0038025Y0052209D01*
X0039024Y0053208D02*
X0051597Y0053208D01*
X0051184Y0054206D02*
X0039775Y0054206D01*
X0040189Y0055205D02*
X0051143Y0055205D01*
X0051143Y0056203D02*
X0040519Y0056203D01*
X0040519Y0057202D02*
X0051143Y0057202D01*
X0051173Y0058200D02*
X0040519Y0058200D01*
X0040188Y0059199D02*
X0051586Y0059199D01*
X0052000Y0060197D02*
X0039775Y0060197D01*
X0039022Y0061196D02*
X0052414Y0061196D01*
X0053142Y0062194D02*
X0038023Y0062194D01*
X0035781Y0063193D02*
X0054140Y0063193D01*
X0055139Y0064191D02*
X0025176Y0064191D01*
X0025176Y0064392D02*
X0024734Y0065458D01*
X0024476Y0065716D01*
X0024476Y0076726D01*
X0021676Y0079526D01*
X0021676Y0079892D01*
X0021234Y0080958D01*
X0020418Y0081773D01*
X0019352Y0082215D01*
X0018199Y0082215D01*
X0017133Y0081773D01*
X0016317Y0080958D01*
X0015876Y0079892D01*
X0015876Y0078738D01*
X0016317Y0077672D01*
X0017133Y0076856D01*
X0018199Y0076415D01*
X0018564Y0076415D01*
X0020076Y0074904D01*
X0020076Y0065716D01*
X0019817Y0065458D01*
X0019376Y0064392D01*
X0019376Y0063238D01*
X0019817Y0062172D01*
X0020633Y0061356D01*
X0021699Y0060915D01*
X0022852Y0060915D01*
X0023918Y0061356D01*
X0024734Y0062172D01*
X0025176Y0063238D01*
X0025176Y0064392D01*
X0024845Y0065190D02*
X0057311Y0065190D01*
X0064185Y0065190D02*
X0091576Y0065190D01*
X0091576Y0066188D02*
X0024476Y0066188D01*
X0024476Y0067187D02*
X0091576Y0067187D01*
X0091576Y0068185D02*
X0024476Y0068185D01*
X0024476Y0069184D02*
X0091576Y0069184D01*
X0091576Y0070182D02*
X0024476Y0070182D01*
X0024476Y0071181D02*
X0091576Y0071181D01*
X0091576Y0072179D02*
X0024476Y0072179D01*
X0024476Y0073178D02*
X0091576Y0073178D01*
X0091576Y0074177D02*
X0024476Y0074177D01*
X0024476Y0075175D02*
X0091576Y0075175D01*
X0091576Y0076174D02*
X0024476Y0076174D01*
X0024030Y0077172D02*
X0091576Y0077172D01*
X0091576Y0078171D02*
X0023031Y0078171D01*
X0022033Y0079169D02*
X0091576Y0079169D01*
X0091576Y0080168D02*
X0021561Y0080168D01*
X0021026Y0081166D02*
X0091576Y0081166D01*
X0091576Y0082165D02*
X0019474Y0082165D01*
X0018077Y0082165D02*
X0006776Y0082165D01*
X0006776Y0083163D02*
X0091576Y0083163D01*
X0091576Y0084162D02*
X0006776Y0084162D01*
X0006776Y0085160D02*
X0091576Y0085160D01*
X0091576Y0086159D02*
X0006776Y0086159D01*
X0006776Y0087157D02*
X0049832Y0087157D01*
X0050133Y0086856D02*
X0051199Y0086415D01*
X0052352Y0086415D01*
X0053418Y0086856D01*
X0054234Y0087672D01*
X0054676Y0088738D01*
X0054676Y0089892D01*
X0054234Y0090958D01*
X0053418Y0091773D01*
X0052352Y0092215D01*
X0051199Y0092215D01*
X0050133Y0091773D01*
X0049317Y0090958D01*
X0048876Y0089892D01*
X0048876Y0088738D01*
X0049317Y0087672D01*
X0050133Y0086856D01*
X0049117Y0088156D02*
X0006776Y0088156D01*
X0006776Y0089154D02*
X0048876Y0089154D01*
X0048984Y0090153D02*
X0006776Y0090153D01*
X0006776Y0091151D02*
X0049511Y0091151D01*
X0051041Y0092150D02*
X0006776Y0092150D01*
X0006776Y0093148D02*
X0091576Y0093148D01*
X0091576Y0092150D02*
X0052510Y0092150D01*
X0054041Y0091151D02*
X0091576Y0091151D01*
X0091576Y0090153D02*
X0054568Y0090153D01*
X0054676Y0089154D02*
X0091576Y0089154D01*
X0091576Y0088156D02*
X0054434Y0088156D01*
X0053719Y0087157D02*
X0091576Y0087157D01*
X0091576Y0094147D02*
X0006776Y0094147D01*
X0006776Y0095145D02*
X0091576Y0095145D01*
X0091576Y0096144D02*
X0006776Y0096144D01*
X0006776Y0097142D02*
X0029847Y0097142D01*
X0030133Y0096856D02*
X0031199Y0096415D01*
X0032352Y0096415D01*
X0033418Y0096856D01*
X0034234Y0097672D01*
X0034676Y0098738D01*
X0034676Y0099892D01*
X0034234Y0100958D01*
X0033418Y0101773D01*
X0032352Y0102215D01*
X0031199Y0102215D01*
X0030133Y0101773D01*
X0029317Y0100958D01*
X0028876Y0099892D01*
X0028876Y0098738D01*
X0029317Y0097672D01*
X0030133Y0096856D01*
X0029123Y0098141D02*
X0006776Y0098141D01*
X0006776Y0099139D02*
X0028876Y0099139D01*
X0028977Y0100138D02*
X0006776Y0100138D01*
X0006776Y0101136D02*
X0029496Y0101136D01*
X0031005Y0102135D02*
X0006776Y0102135D01*
X0006776Y0103133D02*
X0091576Y0103133D01*
X0091576Y0102135D02*
X0032546Y0102135D01*
X0034055Y0101136D02*
X0091576Y0101136D01*
X0091576Y0100138D02*
X0034574Y0100138D01*
X0034676Y0099139D02*
X0091576Y0099139D01*
X0091576Y0098141D02*
X0034428Y0098141D01*
X0033704Y0097142D02*
X0091576Y0097142D01*
X0091576Y0104132D02*
X0006776Y0104132D01*
X0006776Y0105130D02*
X0091576Y0105130D01*
X0091576Y0106129D02*
X0006776Y0106129D01*
X0006776Y0107127D02*
X0091576Y0107127D01*
X0090853Y0108126D02*
X0006776Y0108126D01*
X0006776Y0109124D02*
X0089855Y0109124D01*
X0088856Y0110123D02*
X0006776Y0110123D01*
X0006776Y0111121D02*
X0087858Y0111121D01*
X0086859Y0112120D02*
X0006776Y0112120D01*
X0006776Y0113118D02*
X0085861Y0113118D01*
X0082865Y0116114D02*
X0067676Y0116114D01*
X0070155Y0130093D02*
X0085086Y0130093D01*
X0086085Y0129095D02*
X0055091Y0129095D01*
X0054092Y0128096D02*
X0087083Y0128096D01*
X0089576Y0127098D02*
X0053094Y0127098D01*
X0052095Y0126099D02*
X0089576Y0126099D01*
X0089576Y0125101D02*
X0051097Y0125101D01*
X0050098Y0124102D02*
X0089576Y0124102D01*
X0089576Y0120108D02*
X0085094Y0120108D01*
X0086092Y0119110D02*
X0089576Y0119110D01*
X0089576Y0118111D02*
X0087091Y0118111D01*
X0088089Y0117112D02*
X0090217Y0117112D01*
X0089088Y0116114D02*
X0103152Y0116114D01*
X0103152Y0115115D02*
X0090086Y0115115D01*
X0091085Y0114117D02*
X0103469Y0114117D01*
X0084088Y0131092D02*
X0070908Y0131092D01*
X0071176Y0132090D02*
X0083089Y0132090D01*
X0082091Y0133089D02*
X0071094Y0133089D01*
X0070605Y0134087D02*
X0081092Y0134087D01*
X0080576Y0135086D02*
X0075659Y0135086D01*
X0075696Y0136084D02*
X0080576Y0136084D01*
X0080576Y0137083D02*
X0075696Y0137083D01*
X0075696Y0138081D02*
X0080576Y0138081D01*
X0080576Y0139080D02*
X0075696Y0139080D01*
X0075696Y0140078D02*
X0080576Y0140078D01*
X0080576Y0141077D02*
X0075696Y0141077D01*
X0075696Y0142075D02*
X0080576Y0142075D01*
X0080576Y0143074D02*
X0074703Y0143074D01*
X0080576Y0144072D02*
X0040544Y0144072D01*
X0039546Y0143074D02*
X0067740Y0143074D01*
X0066746Y0142075D02*
X0038547Y0142075D01*
X0037549Y0141077D02*
X0066746Y0141077D01*
X0066746Y0140078D02*
X0036550Y0140078D01*
X0035552Y0139080D02*
X0066746Y0139080D01*
X0066746Y0138081D02*
X0034553Y0138081D01*
X0033555Y0137083D02*
X0066746Y0137083D01*
X0066746Y0136084D02*
X0032556Y0136084D01*
X0032505Y0135086D02*
X0066783Y0135086D01*
X0065916Y0150063D02*
X0042076Y0150063D01*
X0042076Y0149065D02*
X0080214Y0149065D01*
X0080576Y0148066D02*
X0042076Y0148066D01*
X0042076Y0147068D02*
X0080576Y0147068D01*
X0080576Y0146069D02*
X0042076Y0146069D01*
X0041543Y0145071D02*
X0080576Y0145071D01*
X0068144Y0154057D02*
X0105870Y0154057D01*
X0104001Y0155056D02*
X0067146Y0155056D01*
X0067061Y0156054D02*
X0103074Y0156054D01*
X0102660Y0157053D02*
X0067053Y0157053D01*
X0067045Y0158051D02*
X0102443Y0158051D01*
X0102443Y0159050D02*
X0067037Y0159050D01*
X0067029Y0160048D02*
X0102331Y0160048D01*
X0101332Y0161047D02*
X0067021Y0161047D01*
X0067014Y0162046D02*
X0100334Y0162046D01*
X0099335Y0163044D02*
X0067006Y0163044D01*
X0066998Y0164043D02*
X0098337Y0164043D01*
X0097338Y0165041D02*
X0066990Y0165041D01*
X0066984Y0166040D02*
X0096340Y0166040D01*
X0095341Y0167038D02*
X0066974Y0167038D01*
X0066757Y0168037D02*
X0094343Y0168037D01*
X0093344Y0169035D02*
X0065536Y0169035D01*
X0064315Y0170034D02*
X0092346Y0170034D01*
X0091347Y0171032D02*
X0063095Y0171032D01*
X0061874Y0172031D02*
X0090349Y0172031D01*
X0089350Y0173029D02*
X0060653Y0173029D01*
X0059432Y0174028D02*
X0088352Y0174028D01*
X0087353Y0175026D02*
X0058211Y0175026D01*
X0056991Y0176025D02*
X0086355Y0176025D01*
X0085356Y0177023D02*
X0055770Y0177023D01*
X0054549Y0178022D02*
X0084358Y0178022D01*
X0083359Y0179020D02*
X0053328Y0179020D01*
X0052108Y0180019D02*
X0082361Y0180019D01*
X0081362Y0181017D02*
X0050887Y0181017D01*
X0049666Y0182016D02*
X0080364Y0182016D01*
X0079365Y0183014D02*
X0048445Y0183014D01*
X0047225Y0184013D02*
X0078367Y0184013D01*
X0077368Y0185011D02*
X0046004Y0185011D01*
X0044783Y0186010D02*
X0076369Y0186010D01*
X0075371Y0187008D02*
X0043562Y0187008D01*
X0042341Y0188007D02*
X0074372Y0188007D01*
X0073374Y0189005D02*
X0041121Y0189005D01*
X0039900Y0190004D02*
X0072375Y0190004D01*
X0071377Y0191002D02*
X0038679Y0191002D01*
X0037763Y0192001D02*
X0070378Y0192001D01*
X0069380Y0192999D02*
X0038452Y0192999D01*
X0038676Y0193998D02*
X0068381Y0193998D01*
X0067383Y0194996D02*
X0038549Y0194996D01*
X0037997Y0195995D02*
X0066384Y0195995D01*
X0065386Y0196993D02*
X0036404Y0196993D01*
X0035147Y0196993D02*
X0031354Y0196993D01*
X0032575Y0195995D02*
X0033554Y0195995D01*
X0030509Y0192001D02*
X0022015Y0192001D01*
X0022015Y0192999D02*
X0029288Y0192999D01*
X0028067Y0193998D02*
X0022015Y0193998D01*
X0022015Y0191002D02*
X0031729Y0191002D01*
X0032950Y0190004D02*
X0022015Y0190004D01*
X0022015Y0189005D02*
X0034171Y0189005D01*
X0035392Y0188007D02*
X0021340Y0188007D01*
X0017321Y0188007D02*
X0012697Y0188007D01*
X0013076Y0187008D02*
X0036613Y0187008D01*
X0037833Y0186010D02*
X0013076Y0186010D01*
X0012692Y0185011D02*
X0039054Y0185011D01*
X0040275Y0184013D02*
X0011713Y0184013D01*
X0011878Y0183014D02*
X0041496Y0183014D01*
X0042716Y0182016D02*
X0012734Y0182016D01*
X0013076Y0181017D02*
X0043937Y0181017D01*
X0045158Y0180019D02*
X0013068Y0180019D01*
X0012654Y0179020D02*
X0046379Y0179020D01*
X0047599Y0178022D02*
X0011493Y0178022D01*
X0011698Y0177023D02*
X0048820Y0177023D01*
X0050041Y0176025D02*
X0036667Y0176025D01*
X0036418Y0176273D02*
X0035352Y0176715D01*
X0034199Y0176715D01*
X0033133Y0176273D01*
X0032317Y0175458D01*
X0031876Y0174392D01*
X0031876Y0173238D01*
X0032317Y0172172D01*
X0033133Y0171356D01*
X0034199Y0170915D01*
X0035352Y0170915D01*
X0036418Y0171356D01*
X0037234Y0172172D01*
X0037676Y0173238D01*
X0037676Y0174392D01*
X0037234Y0175458D01*
X0036418Y0176273D01*
X0037413Y0175026D02*
X0051262Y0175026D01*
X0052483Y0174028D02*
X0037676Y0174028D01*
X0037589Y0173029D02*
X0053703Y0173029D01*
X0054924Y0172031D02*
X0037092Y0172031D01*
X0035635Y0171032D02*
X0054257Y0171032D01*
X0052893Y0170034D02*
X0041808Y0170034D01*
X0042530Y0169035D02*
X0052435Y0169035D01*
X0052376Y0168037D02*
X0042776Y0168037D01*
X0042672Y0167038D02*
X0052666Y0167038D01*
X0053450Y0166040D02*
X0042151Y0166040D01*
X0042076Y0165041D02*
X0062590Y0165041D01*
X0062598Y0164043D02*
X0042076Y0164043D01*
X0042076Y0163044D02*
X0062605Y0163044D01*
X0062613Y0162046D02*
X0061293Y0162046D01*
X0061393Y0161946D02*
X0060397Y0162942D01*
X0053439Y0162942D01*
X0052443Y0161946D01*
X0052443Y0154988D01*
X0053439Y0153992D01*
X0060397Y0153992D01*
X0061393Y0154988D01*
X0061393Y0161946D01*
X0061393Y0161047D02*
X0062621Y0161047D01*
X0062629Y0160048D02*
X0061393Y0160048D01*
X0061393Y0159050D02*
X0062637Y0159050D01*
X0062645Y0158051D02*
X0061393Y0158051D01*
X0061393Y0157053D02*
X0062653Y0157053D01*
X0062661Y0156054D02*
X0061393Y0156054D01*
X0061393Y0155056D02*
X0062669Y0155056D01*
X0062676Y0154057D02*
X0060462Y0154057D01*
X0062914Y0153059D02*
X0042076Y0153059D01*
X0042076Y0154057D02*
X0053374Y0154057D01*
X0052443Y0155056D02*
X0042076Y0155056D01*
X0042076Y0156054D02*
X0052443Y0156054D01*
X0052443Y0157053D02*
X0042076Y0157053D01*
X0042076Y0158051D02*
X0052443Y0158051D01*
X0052443Y0159050D02*
X0042076Y0159050D01*
X0042076Y0160048D02*
X0052443Y0160048D01*
X0052443Y0161047D02*
X0042076Y0161047D01*
X0042076Y0162046D02*
X0052543Y0162046D01*
X0057101Y0166040D02*
X0062249Y0166040D01*
X0061028Y0167038D02*
X0057886Y0167038D01*
X0058176Y0168037D02*
X0059807Y0168037D01*
X0058586Y0169035D02*
X0058116Y0169035D01*
X0063919Y0152060D02*
X0042076Y0152060D01*
X0042076Y0151062D02*
X0064917Y0151062D01*
X0053012Y0134087D02*
X0032505Y0134087D01*
X0032505Y0133089D02*
X0052014Y0133089D01*
X0051015Y0132090D02*
X0032505Y0132090D01*
X0032264Y0131092D02*
X0050017Y0131092D01*
X0049018Y0130093D02*
X0030599Y0130093D01*
X0031384Y0129095D02*
X0048020Y0129095D01*
X0047021Y0128096D02*
X0031676Y0128096D01*
X0031617Y0127098D02*
X0046023Y0127098D01*
X0044919Y0126099D02*
X0031161Y0126099D01*
X0029801Y0125101D02*
X0043460Y0125101D01*
X0042963Y0124102D02*
X0018276Y0124102D01*
X0018276Y0123104D02*
X0042876Y0123104D01*
X0043138Y0122105D02*
X0018276Y0122105D01*
X0018276Y0125101D02*
X0027751Y0125101D01*
X0021456Y0126099D02*
X0018276Y0126099D01*
X0015517Y0131092D02*
X0006776Y0131092D01*
X0006776Y0132090D02*
X0023556Y0132090D01*
X0023534Y0131092D02*
X0023798Y0131092D01*
X0023556Y0133089D02*
X0006776Y0133089D01*
X0006776Y0134087D02*
X0023556Y0134087D01*
X0023556Y0135086D02*
X0006776Y0135086D01*
X0006776Y0136084D02*
X0023556Y0136084D01*
X0023556Y0137083D02*
X0006776Y0137083D01*
X0006776Y0138081D02*
X0023556Y0138081D01*
X0024344Y0139080D02*
X0006776Y0139080D01*
X0006776Y0140078D02*
X0030328Y0140078D01*
X0031326Y0141077D02*
X0006776Y0141077D01*
X0006776Y0142075D02*
X0032325Y0142075D01*
X0033323Y0143074D02*
X0006776Y0143074D01*
X0006776Y0144072D02*
X0034322Y0144072D01*
X0035320Y0145071D02*
X0006776Y0145071D01*
X0006776Y0146069D02*
X0036319Y0146069D01*
X0037317Y0147068D02*
X0006776Y0147068D01*
X0006776Y0148066D02*
X0037676Y0148066D01*
X0037676Y0149065D02*
X0006776Y0149065D01*
X0006776Y0150063D02*
X0037676Y0150063D01*
X0037676Y0151062D02*
X0006776Y0151062D01*
X0006776Y0152060D02*
X0037676Y0152060D01*
X0037676Y0153059D02*
X0006776Y0153059D01*
X0006776Y0154057D02*
X0037676Y0154057D01*
X0037676Y0155056D02*
X0006776Y0155056D01*
X0006776Y0156054D02*
X0012462Y0156054D01*
X0012799Y0155915D02*
X0013952Y0155915D01*
X0015018Y0156356D01*
X0015834Y0157172D01*
X0016276Y0158238D01*
X0016276Y0158704D01*
X0016881Y0159309D01*
X0016933Y0159256D01*
X0017999Y0158815D01*
X0019152Y0158815D01*
X0020218Y0159256D01*
X0021034Y0160072D01*
X0021476Y0161138D01*
X0021476Y0162292D01*
X0021034Y0163358D01*
X0020218Y0164173D01*
X0019152Y0164615D01*
X0017999Y0164615D01*
X0016976Y0164191D01*
X0016976Y0164404D01*
X0017576Y0165004D01*
X0017576Y0165914D01*
X0017834Y0166172D01*
X0018276Y0167238D01*
X0018276Y0168392D01*
X0017834Y0169458D01*
X0017018Y0170273D01*
X0015952Y0170715D01*
X0014799Y0170715D01*
X0013733Y0170273D01*
X0012917Y0169458D01*
X0012476Y0168392D01*
X0012476Y0167238D01*
X0012801Y0166452D01*
X0012576Y0166226D01*
X0012576Y0161623D01*
X0011733Y0161273D01*
X0010917Y0160458D01*
X0010476Y0159392D01*
X0010476Y0158238D01*
X0010917Y0157172D01*
X0011733Y0156356D01*
X0012799Y0155915D01*
X0014289Y0156054D02*
X0037676Y0156054D01*
X0037676Y0157053D02*
X0015715Y0157053D01*
X0016198Y0158051D02*
X0037676Y0158051D01*
X0037676Y0159050D02*
X0019720Y0159050D01*
X0021010Y0160048D02*
X0037676Y0160048D01*
X0037676Y0161047D02*
X0021438Y0161047D01*
X0021476Y0162046D02*
X0037676Y0162046D01*
X0037676Y0163044D02*
X0021164Y0163044D01*
X0020349Y0164043D02*
X0037676Y0164043D01*
X0037676Y0165041D02*
X0017576Y0165041D01*
X0017701Y0166040D02*
X0037600Y0166040D01*
X0037079Y0167038D02*
X0018193Y0167038D01*
X0018276Y0168037D02*
X0019253Y0168037D01*
X0019633Y0167656D02*
X0020699Y0167215D01*
X0021852Y0167215D01*
X0022918Y0167656D01*
X0023734Y0168472D01*
X0024176Y0169538D01*
X0024176Y0170692D01*
X0023734Y0171758D01*
X0022918Y0172573D01*
X0021852Y0173015D01*
X0020699Y0173015D01*
X0019633Y0172573D01*
X0018817Y0171758D01*
X0018376Y0170692D01*
X0018376Y0169538D01*
X0018817Y0168472D01*
X0019633Y0167656D01*
X0018584Y0169035D02*
X0018009Y0169035D01*
X0018376Y0170034D02*
X0017258Y0170034D01*
X0018517Y0171032D02*
X0010283Y0171032D01*
X0011756Y0172031D02*
X0019090Y0172031D01*
X0023461Y0172031D02*
X0032459Y0172031D01*
X0031962Y0173029D02*
X0012699Y0173029D01*
X0013076Y0174028D02*
X0031876Y0174028D01*
X0032138Y0175026D02*
X0013076Y0175026D01*
X0012689Y0176025D02*
X0032884Y0176025D01*
X0033916Y0171032D02*
X0024035Y0171032D01*
X0024176Y0170034D02*
X0037943Y0170034D01*
X0037221Y0169035D02*
X0023967Y0169035D01*
X0023298Y0168037D02*
X0036976Y0168037D01*
X0039876Y0167865D02*
X0039876Y0146515D01*
X0028326Y0134965D01*
X0028031Y0134813D01*
X0014518Y0130093D02*
X0006776Y0130093D01*
X0006776Y0129095D02*
X0013600Y0129095D01*
X0013276Y0128096D02*
X0006776Y0128096D01*
X0006776Y0127098D02*
X0013276Y0127098D01*
X0013276Y0126099D02*
X0006776Y0126099D01*
X0006776Y0125101D02*
X0013276Y0125101D01*
X0013276Y0124102D02*
X0006776Y0124102D01*
X0006776Y0123104D02*
X0013276Y0123104D01*
X0013276Y0122105D02*
X0006776Y0122105D01*
X0006776Y0121107D02*
X0011966Y0121107D01*
X0011172Y0120108D02*
X0006776Y0120108D01*
X0006776Y0119110D02*
X0010876Y0119110D01*
X0010928Y0118111D02*
X0006776Y0118111D01*
X0006776Y0117112D02*
X0011377Y0117112D01*
X0012718Y0116114D02*
X0006776Y0116114D01*
X0006776Y0081166D02*
X0016526Y0081166D01*
X0015990Y0080168D02*
X0006776Y0080168D01*
X0006776Y0079169D02*
X0015876Y0079169D01*
X0016111Y0078171D02*
X0006776Y0078171D01*
X0006776Y0077172D02*
X0016817Y0077172D01*
X0018806Y0076174D02*
X0006776Y0076174D01*
X0006776Y0075175D02*
X0019804Y0075175D01*
X0020076Y0074177D02*
X0006776Y0074177D01*
X0006776Y0073178D02*
X0020076Y0073178D01*
X0020076Y0072179D02*
X0006776Y0072179D01*
X0006776Y0071181D02*
X0020076Y0071181D01*
X0020076Y0070182D02*
X0006776Y0070182D01*
X0006776Y0069184D02*
X0020076Y0069184D01*
X0020076Y0068185D02*
X0006776Y0068185D01*
X0006776Y0067187D02*
X0020076Y0067187D01*
X0020076Y0066188D02*
X0006776Y0066188D01*
X0006776Y0065190D02*
X0019706Y0065190D01*
X0019376Y0064191D02*
X0006776Y0064191D01*
X0006776Y0063193D02*
X0019394Y0063193D01*
X0019808Y0062194D02*
X0006776Y0062194D01*
X0006776Y0061196D02*
X0021021Y0061196D01*
X0023531Y0061196D02*
X0029955Y0061196D01*
X0029202Y0060197D02*
X0006776Y0060197D01*
X0006776Y0059199D02*
X0028788Y0059199D01*
X0028457Y0058200D02*
X0006776Y0058200D01*
X0006776Y0057202D02*
X0028457Y0057202D01*
X0028457Y0056203D02*
X0006776Y0056203D01*
X0006776Y0055205D02*
X0028787Y0055205D01*
X0029201Y0054206D02*
X0006776Y0054206D01*
X0006776Y0053208D02*
X0029952Y0053208D01*
X0030951Y0052209D02*
X0006776Y0052209D01*
X0022276Y0063815D02*
X0022276Y0075815D01*
X0018776Y0079315D01*
X0025157Y0063193D02*
X0033195Y0063193D01*
X0030953Y0062194D02*
X0024743Y0062194D01*
X0027746Y0028245D02*
X0133506Y0028245D01*
X0132507Y0027246D02*
X0028744Y0027246D01*
X0029743Y0026248D02*
X0131509Y0026248D01*
X0130510Y0025249D02*
X0030741Y0025249D01*
X0064121Y0047217D02*
X0103263Y0047217D01*
X0102264Y0048215D02*
X0066331Y0048215D01*
X0067329Y0049214D02*
X0101266Y0049214D01*
X0100267Y0050212D02*
X0068328Y0050212D01*
X0069071Y0051211D02*
X0099269Y0051211D01*
X0098270Y0052209D02*
X0069485Y0052209D01*
X0069899Y0053208D02*
X0097271Y0053208D01*
X0096273Y0054206D02*
X0070312Y0054206D01*
X0070354Y0055205D02*
X0095274Y0055205D01*
X0094276Y0056203D02*
X0070354Y0056203D01*
X0070354Y0057202D02*
X0093277Y0057202D01*
X0092279Y0058200D02*
X0070323Y0058200D01*
X0069910Y0059199D02*
X0091576Y0059199D01*
X0091576Y0060197D02*
X0069496Y0060197D01*
X0069082Y0061196D02*
X0091576Y0061196D01*
X0091576Y0062194D02*
X0068354Y0062194D01*
X0067356Y0063193D02*
X0091576Y0063193D01*
X0091576Y0064191D02*
X0066357Y0064191D01*
X0132149Y0059199D02*
X0135476Y0059199D01*
X0135476Y0060197D02*
X0133737Y0060197D01*
X0134735Y0061196D02*
X0135476Y0061196D01*
X0135476Y0127098D02*
X0132142Y0127098D01*
X0133664Y0128096D02*
X0135476Y0128096D01*
X0135476Y0129095D02*
X0134663Y0129095D01*
X0135458Y0130093D02*
X0135476Y0130093D01*
X0135476Y0139080D02*
X0135155Y0139080D01*
X0135476Y0140078D02*
X0134156Y0140078D01*
X0133158Y0141077D02*
X0135476Y0141077D01*
X0135476Y0142075D02*
X0130918Y0142075D01*
X0135476Y0161047D02*
X0110666Y0161047D01*
X0109668Y0162046D02*
X0135476Y0162046D01*
X0135476Y0163044D02*
X0105558Y0163044D01*
X0104559Y0164043D02*
X0135476Y0164043D01*
X0135476Y0165041D02*
X0103561Y0165041D01*
X0102562Y0166040D02*
X0135476Y0166040D01*
X0135476Y0167038D02*
X0101564Y0167038D01*
X0100565Y0168037D02*
X0135476Y0168037D01*
X0135476Y0169035D02*
X0099567Y0169035D01*
X0098568Y0170034D02*
X0135476Y0170034D01*
X0135476Y0171032D02*
X0097570Y0171032D01*
X0096571Y0172031D02*
X0135476Y0172031D01*
X0135476Y0173029D02*
X0095573Y0173029D01*
X0094574Y0174028D02*
X0135476Y0174028D01*
X0135476Y0175026D02*
X0093576Y0175026D01*
X0092577Y0176025D02*
X0135476Y0176025D01*
X0135476Y0177023D02*
X0091579Y0177023D01*
X0090580Y0178022D02*
X0135476Y0178022D01*
X0135476Y0179020D02*
X0089582Y0179020D01*
X0088583Y0180019D02*
X0135476Y0180019D01*
X0135476Y0181017D02*
X0087585Y0181017D01*
X0086586Y0182016D02*
X0135476Y0182016D01*
X0135476Y0183014D02*
X0085588Y0183014D01*
X0084589Y0184013D02*
X0135476Y0184013D01*
X0135476Y0185011D02*
X0083591Y0185011D01*
X0082592Y0186010D02*
X0135476Y0186010D01*
X0135476Y0187008D02*
X0081594Y0187008D01*
X0080595Y0188007D02*
X0135476Y0188007D01*
X0135476Y0189005D02*
X0079596Y0189005D01*
X0078598Y0190004D02*
X0135476Y0190004D01*
X0135476Y0191002D02*
X0077599Y0191002D01*
X0076601Y0192001D02*
X0135476Y0192001D01*
X0135476Y0192999D02*
X0075602Y0192999D01*
X0074604Y0193998D02*
X0135476Y0193998D01*
X0135476Y0194996D02*
X0073605Y0194996D01*
X0072607Y0195995D02*
X0135476Y0195995D01*
X0135476Y0196993D02*
X0071608Y0196993D01*
X0070610Y0197992D02*
X0135476Y0197992D01*
X0135476Y0198990D02*
X0069611Y0198990D01*
X0068613Y0199989D02*
X0135476Y0199989D01*
X0135476Y0200987D02*
X0067614Y0200987D01*
X0062659Y0219839D02*
X0058837Y0219839D01*
X0055307Y0221302D01*
X0052605Y0224004D01*
X0051143Y0227534D01*
X0051143Y0231356D01*
X0052605Y0234886D01*
X0055307Y0237588D01*
X0058837Y0239050D01*
X0062659Y0239050D01*
X0066189Y0237588D01*
X0068891Y0234886D01*
X0070354Y0231356D01*
X0070354Y0227534D01*
X0068891Y0224004D01*
X0066189Y0221302D01*
X0062659Y0219839D01*
X0062948Y0219959D02*
X0135476Y0219959D01*
X0135476Y0218961D02*
X0040519Y0218961D01*
X0040519Y0218009D02*
X0039601Y0215793D01*
X0037904Y0214096D01*
X0035688Y0213178D01*
X0033289Y0213178D01*
X0031072Y0214096D01*
X0029376Y0215793D01*
X0028457Y0218009D01*
X0028457Y0220408D01*
X0029376Y0222625D01*
X0031072Y0224321D01*
X0033289Y0225239D01*
X0035688Y0225239D01*
X0037904Y0224321D01*
X0039601Y0222625D01*
X0040519Y0220408D01*
X0040519Y0218009D01*
X0040499Y0217962D02*
X0135476Y0217962D01*
X0135476Y0216964D02*
X0040086Y0216964D01*
X0039672Y0215965D02*
X0135476Y0215965D01*
X0135476Y0214967D02*
X0038775Y0214967D01*
X0037595Y0213968D02*
X0135476Y0213968D01*
X0135476Y0212970D02*
X0022015Y0212970D01*
X0022015Y0213968D02*
X0031381Y0213968D01*
X0030202Y0214967D02*
X0022015Y0214967D01*
X0022015Y0215965D02*
X0029304Y0215965D01*
X0028891Y0216964D02*
X0022015Y0216964D01*
X0022015Y0217962D02*
X0028477Y0217962D01*
X0028457Y0218961D02*
X0022015Y0218961D01*
X0021673Y0219959D02*
X0028457Y0219959D01*
X0028685Y0220958D02*
X0013559Y0220958D01*
X0013676Y0221956D02*
X0029099Y0221956D01*
X0029706Y0222955D02*
X0013442Y0222955D01*
X0012739Y0223953D02*
X0030704Y0223953D01*
X0032594Y0224952D02*
X0010283Y0224952D01*
X0010283Y0225950D02*
X0051799Y0225950D01*
X0052212Y0224952D02*
X0036382Y0224952D01*
X0038272Y0223953D02*
X0052655Y0223953D01*
X0053654Y0222955D02*
X0039271Y0222955D01*
X0039878Y0221956D02*
X0054652Y0221956D01*
X0056138Y0220958D02*
X0040291Y0220958D01*
X0040519Y0219959D02*
X0058548Y0219959D01*
X0065359Y0220958D02*
X0135476Y0220958D01*
X0135476Y0221956D02*
X0066844Y0221956D01*
X0067842Y0222955D02*
X0135476Y0222955D01*
X0135476Y0223953D02*
X0068841Y0223953D01*
X0069284Y0224952D02*
X0135476Y0224952D01*
X0135476Y0225950D02*
X0069697Y0225950D01*
X0070111Y0226949D02*
X0135476Y0226949D01*
X0135476Y0227947D02*
X0070354Y0227947D01*
X0070354Y0228946D02*
X0135476Y0228946D01*
X0135476Y0229944D02*
X0070354Y0229944D01*
X0070354Y0230943D02*
X0135476Y0230943D01*
X0135476Y0231941D02*
X0070111Y0231941D01*
X0069697Y0232940D02*
X0135476Y0232940D01*
X0135476Y0233938D02*
X0069284Y0233938D01*
X0068840Y0234937D02*
X0135476Y0234937D01*
X0135476Y0235935D02*
X0067842Y0235935D01*
X0066843Y0236934D02*
X0135476Y0236934D01*
X0135476Y0237932D02*
X0065358Y0237932D01*
X0062947Y0238931D02*
X0135476Y0238931D01*
X0135476Y0239929D02*
X0035648Y0239929D01*
X0037004Y0240928D02*
X0135476Y0240928D01*
X0135476Y0241926D02*
X0038360Y0241926D01*
X0039716Y0242925D02*
X0135476Y0242925D01*
X0135476Y0243923D02*
X0074873Y0243923D01*
X0074852Y0243915D02*
X0075918Y0244356D01*
X0076734Y0245172D01*
X0077176Y0246238D01*
X0077176Y0247392D01*
X0076734Y0248458D01*
X0075918Y0249273D01*
X0074852Y0249715D01*
X0073699Y0249715D01*
X0072633Y0249273D01*
X0071817Y0248458D01*
X0071376Y0247392D01*
X0071376Y0246238D01*
X0071817Y0245172D01*
X0072633Y0244356D01*
X0073699Y0243915D01*
X0074852Y0243915D01*
X0073678Y0243923D02*
X0041072Y0243923D01*
X0042429Y0244922D02*
X0072067Y0244922D01*
X0071507Y0245920D02*
X0043785Y0245920D01*
X0045141Y0246919D02*
X0062770Y0246919D01*
X0063083Y0246606D02*
X0064149Y0246165D01*
X0065302Y0246165D01*
X0066368Y0246606D01*
X0067184Y0247422D01*
X0067626Y0248488D01*
X0067626Y0249642D01*
X0067184Y0250708D01*
X0066368Y0251523D01*
X0065302Y0251965D01*
X0064149Y0251965D01*
X0063083Y0251523D01*
X0062267Y0250708D01*
X0061826Y0249642D01*
X0061826Y0248488D01*
X0062267Y0247422D01*
X0063083Y0246606D01*
X0062062Y0247917D02*
X0046497Y0247917D01*
X0047853Y0248916D02*
X0061826Y0248916D01*
X0061939Y0249915D02*
X0049209Y0249915D01*
X0051275Y0250913D02*
X0062472Y0250913D01*
X0064020Y0251912D02*
X0052075Y0251912D01*
X0052376Y0252910D02*
X0132280Y0252910D01*
X0131282Y0253909D02*
X0052327Y0253909D01*
X0051885Y0254907D02*
X0130283Y0254907D01*
X0129285Y0255906D02*
X0050558Y0255906D01*
X0048393Y0255906D02*
X0026609Y0255906D01*
X0026346Y0254907D02*
X0047066Y0254907D01*
X0046201Y0253909D02*
X0026346Y0253909D01*
X0026346Y0252910D02*
X0044845Y0252910D01*
X0043489Y0251912D02*
X0026346Y0251912D01*
X0026346Y0250913D02*
X0042133Y0250913D01*
X0040776Y0249915D02*
X0026346Y0249915D01*
X0026346Y0248916D02*
X0039420Y0248916D01*
X0038064Y0247917D02*
X0026346Y0247917D01*
X0026346Y0246919D02*
X0036708Y0246919D01*
X0035352Y0245920D02*
X0026346Y0245920D01*
X0026346Y0244922D02*
X0033995Y0244922D01*
X0032639Y0243923D02*
X0026346Y0243923D01*
X0026346Y0242925D02*
X0031283Y0242925D01*
X0027352Y0241926D02*
X0026346Y0241926D01*
X0026346Y0240928D02*
X0026353Y0240928D01*
X0029430Y0236934D02*
X0054653Y0236934D01*
X0053654Y0235935D02*
X0028432Y0235935D01*
X0027433Y0234937D02*
X0052656Y0234937D01*
X0052212Y0233938D02*
X0026071Y0233938D01*
X0032935Y0237932D02*
X0056138Y0237932D01*
X0058549Y0238931D02*
X0034291Y0238931D01*
X0051143Y0230943D02*
X0014739Y0230943D01*
X0015420Y0231941D02*
X0051385Y0231941D01*
X0051799Y0232940D02*
X0015576Y0232940D01*
X0013740Y0229944D02*
X0051143Y0229944D01*
X0051143Y0228946D02*
X0012389Y0228946D01*
X0010283Y0227947D02*
X0051143Y0227947D01*
X0051385Y0226949D02*
X0010283Y0226949D01*
X0007264Y0224228D02*
X0007264Y0221866D01*
X0010776Y0221815D01*
X0013021Y0219959D02*
X0016988Y0219959D01*
X0016646Y0218961D02*
X0011463Y0218961D01*
X0010283Y0217962D02*
X0016646Y0217962D01*
X0016646Y0216964D02*
X0010283Y0216964D01*
X0010283Y0215965D02*
X0016646Y0215965D01*
X0016646Y0214967D02*
X0010283Y0214967D01*
X0010283Y0213968D02*
X0016646Y0213968D01*
X0016646Y0212970D02*
X0010283Y0212970D01*
X0010283Y0211971D02*
X0016646Y0211971D01*
X0016646Y0210973D02*
X0010283Y0210973D01*
X0010283Y0209974D02*
X0016646Y0209974D01*
X0016646Y0208976D02*
X0010283Y0208976D01*
X0010283Y0207977D02*
X0016646Y0207977D01*
X0016646Y0206979D02*
X0010283Y0206979D01*
X0010283Y0205980D02*
X0016646Y0205980D01*
X0016646Y0204981D02*
X0010283Y0204981D01*
X0010283Y0203983D02*
X0016646Y0203983D01*
X0016646Y0202984D02*
X0010283Y0202984D01*
X0010283Y0201986D02*
X0015646Y0201986D01*
X0014347Y0200987D02*
X0010283Y0200987D01*
X0013323Y0199989D02*
X0013916Y0199989D01*
X0012876Y0197615D02*
X0011976Y0198215D01*
X0007335Y0198315D01*
X0007264Y0198244D01*
X0007264Y0195882D02*
X0008343Y0195882D01*
X0010176Y0195515D01*
X0012876Y0197615D02*
X0012776Y0193215D01*
X0015412Y0192001D02*
X0016646Y0192001D01*
X0016646Y0192999D02*
X0015676Y0192999D01*
X0015590Y0193998D02*
X0016646Y0193998D01*
X0016646Y0194996D02*
X0015095Y0194996D01*
X0015039Y0195995D02*
X0016646Y0195995D01*
X0016646Y0191002D02*
X0014664Y0191002D01*
X0016646Y0190004D02*
X0010283Y0190004D01*
X0010283Y0191002D02*
X0010887Y0191002D01*
X0011741Y0189005D02*
X0016646Y0189005D01*
X0010176Y0186515D02*
X0008094Y0186433D01*
X0007264Y0186433D01*
X0007264Y0184071D01*
X0011756Y0170034D02*
X0013493Y0170034D01*
X0012742Y0169035D02*
X0011976Y0169035D01*
X0011976Y0168037D02*
X0012476Y0168037D01*
X0012558Y0167038D02*
X0011976Y0167038D01*
X0012576Y0166040D02*
X0010987Y0166040D01*
X0012576Y0165041D02*
X0006776Y0165041D01*
X0006776Y0164043D02*
X0012576Y0164043D01*
X0012576Y0163044D02*
X0006776Y0163044D01*
X0006776Y0162046D02*
X0012576Y0162046D01*
X0011506Y0161047D02*
X0006776Y0161047D01*
X0006776Y0160048D02*
X0010748Y0160048D01*
X0010476Y0159050D02*
X0006776Y0159050D01*
X0006776Y0158051D02*
X0010553Y0158051D01*
X0011036Y0157053D02*
X0006776Y0157053D01*
X0013376Y0158815D02*
X0013376Y0158915D01*
X0014776Y0160315D01*
X0014776Y0165315D01*
X0015376Y0165915D01*
X0015376Y0167815D01*
X0016622Y0159050D02*
X0017431Y0159050D01*
X0022015Y0201986D02*
X0135476Y0201986D01*
X0135476Y0202984D02*
X0022015Y0202984D01*
X0022015Y0203983D02*
X0135476Y0203983D01*
X0135476Y0204981D02*
X0022015Y0204981D01*
X0022015Y0205980D02*
X0135476Y0205980D01*
X0135476Y0206979D02*
X0022015Y0206979D01*
X0022015Y0207977D02*
X0135476Y0207977D01*
X0135476Y0208976D02*
X0022015Y0208976D01*
X0022015Y0209974D02*
X0135476Y0209974D01*
X0135476Y0210973D02*
X0022015Y0210973D01*
X0022015Y0211971D02*
X0135476Y0211971D01*
X0135476Y0244922D02*
X0076484Y0244922D01*
X0077044Y0245920D02*
X0135476Y0245920D01*
X0135476Y0246919D02*
X0077176Y0246919D01*
X0076958Y0247917D02*
X0135476Y0247917D01*
X0135476Y0248916D02*
X0076276Y0248916D01*
X0072275Y0248916D02*
X0067626Y0248916D01*
X0067513Y0249915D02*
X0135276Y0249915D01*
X0134278Y0250913D02*
X0066979Y0250913D01*
X0065431Y0251912D02*
X0133279Y0251912D01*
X0128286Y0256904D02*
X0027598Y0256904D01*
X0066681Y0246919D02*
X0071376Y0246919D01*
X0071593Y0247917D02*
X0067389Y0247917D01*
D25*
X0109276Y0044315D03*
D26*
X0143276Y0172315D03*
D27*
X0068276Y0132315D02*
X0054776Y0132315D01*
X0045776Y0123315D01*
X0028776Y0127815D02*
X0023276Y0127815D01*
X0021776Y0129315D01*
X0017276Y0129315D01*
X0015776Y0127815D01*
X0015776Y0120815D01*
X0013776Y0118815D01*
X0010176Y0174515D02*
X0007371Y0174515D01*
X0007264Y0226591D02*
X0007264Y0228953D01*
X0007264Y0231315D01*
X0008776Y0231315D01*
X0011576Y0231315D01*
X0013076Y0232815D01*
X0013076Y0235715D01*
X0013176Y0235815D01*
X0013776Y0236315D01*
X0025276Y0236315D01*
X0028776Y0239815D01*
X0031276Y0239815D01*
X0049476Y0253215D01*
D28*
X0007264Y0181709D02*
X0007264Y0179346D01*
X0008907Y0179346D01*
X0010176Y0180615D01*
X0007706Y0176984D02*
X0010176Y0174515D01*
X0007371Y0174515D02*
X0007264Y0174622D01*
X0007264Y0172260D01*
X0007264Y0176984D02*
X0007706Y0176984D01*
M02*
