G75*
%MOIN*%
%OFA0B0*%
%FSLAX25Y25*%
%IPPOS*%
%LPD*%
%AMOC8*
5,1,8,0,0,1.08239X$1,22.5*
%
%ADD10C,0.15811*%
%ADD11C,0.04750*%
%ADD12C,0.08858*%
%ADD13C,0.09449*%
%ADD14C,0.12795*%
%ADD15C,0.06000*%
%ADD16C,0.02400*%
%ADD17C,0.06496*%
%ADD18C,0.01600*%
%ADD19C,0.04400*%
%ADD20C,0.01000*%
D10*
X0060748Y0056217D03*
X0060748Y0229445D03*
X0253661Y0229445D03*
X0253661Y0056217D03*
D11*
X0107627Y0117913D03*
X0092875Y0138602D03*
X0106918Y0158467D03*
X0071221Y0138602D03*
X0056918Y0158467D03*
X0028031Y0134813D03*
X0028031Y0113159D03*
X0057627Y0117913D03*
D12*
X0082607Y0072125D03*
X0081938Y0204254D03*
D13*
X0145706Y0156691D03*
X0164305Y0142160D03*
X0188630Y0187768D03*
X0189335Y0085835D03*
X0147901Y0052281D03*
X0166499Y0037750D03*
D14*
X0128568Y0045024D03*
X0128568Y0066480D03*
X0128568Y0087937D03*
X0128450Y0112876D03*
X0128450Y0134333D03*
X0128450Y0155790D03*
D15*
X0128450Y0134333D02*
X0156478Y0134333D01*
X0164305Y0142160D01*
X0188630Y0187768D01*
X0189335Y0085835D02*
X0189776Y0085394D01*
X0189776Y0055815D01*
X0171710Y0037750D01*
X0166499Y0037750D01*
X0159776Y0044473D01*
X0159776Y0057315D01*
X0150610Y0066480D01*
X0128568Y0066480D01*
D16*
X0022276Y0063815D03*
X0018776Y0079315D03*
X0031776Y0099315D03*
X0013776Y0118815D03*
X0028776Y0127815D03*
X0045776Y0123315D03*
X0065776Y0118315D03*
X0068276Y0132315D03*
X0055276Y0168315D03*
X0039876Y0167865D03*
X0034776Y0173815D03*
X0021276Y0170115D03*
X0015376Y0167815D03*
X0018576Y0161715D03*
X0013376Y0158815D03*
X0010176Y0174515D03*
X0010176Y0180615D03*
X0010176Y0186515D03*
X0012776Y0193215D03*
X0010176Y0195515D03*
X0016776Y0199315D03*
X0035776Y0194115D03*
X0010776Y0221815D03*
X0049476Y0253215D03*
X0064726Y0249065D03*
X0074276Y0246815D03*
X0143276Y0165622D03*
X0051776Y0089315D03*
D17*
X0109276Y0044315D03*
D18*
X0071221Y0138602D02*
X0071221Y0144761D01*
X0098276Y0169315D01*
X0102576Y0169315D01*
X0097576Y0174315D01*
X0097576Y0211515D01*
X0068076Y0241015D01*
X0068076Y0247915D01*
X0066926Y0249065D01*
X0066476Y0249065D01*
X0064726Y0249065D01*
X0010776Y0180615D02*
X0021276Y0170115D01*
X0010776Y0180615D02*
X0010176Y0180615D01*
X0102576Y0169315D02*
X0121776Y0169315D01*
X0124276Y0172315D01*
X0126276Y0172315D01*
X0143276Y0172315D01*
X0143276Y0165622D01*
D19*
X0143276Y0172315D03*
D20*
X0056276Y0183315D02*
X0050076Y0175915D01*
X0050076Y0163615D01*
X0050076Y0132115D01*
X0036776Y0123815D01*
X0021776Y0123815D01*
X0018776Y0120815D01*
X0018776Y0079315D01*
X0056276Y0183315D02*
X0056276Y0202815D01*
X0053276Y0205815D01*
X0020276Y0205815D01*
X0018776Y0207315D01*
X0018776Y0213815D01*
X0010776Y0221815D01*
M02*
