G75*
%MOIN*%
%OFA0B0*%
%FSLAX25Y25*%
%IPPOS*%
%LPD*%
%AMOC8*
5,1,8,0,0,1.08239X$1,22.5*
%
%ADD10C,0.16598*%
%ADD11C,0.04750*%
%ADD12C,0.07677*%
%ADD13C,0.03543*%
%ADD14C,0.00800*%
D10*
X0036512Y0061882D03*
X0168874Y0061882D03*
X0306118Y0061882D03*
D11*
X0278087Y0068205D03*
X0216299Y0068126D03*
X0124307Y0068000D03*
X0062520Y0068079D03*
D12*
X0134031Y0060913D03*
X0206575Y0061039D03*
X0293189Y0043244D03*
X0293189Y0018047D03*
X0047417Y0017921D03*
X0047417Y0043118D03*
D13*
X0021594Y0062051D03*
X0048594Y0067051D03*
X0155594Y0065551D03*
X0318094Y0061051D03*
D14*
X0043463Y0008874D02*
X0043479Y0008666D01*
X0048594Y0003551D01*
X0085879Y0003551D01*
X0086449Y0003976D01*
X0086449Y0003976D01*
X0089791Y0005085D01*
X0093312Y0005085D01*
X0096654Y0003976D01*
X0096654Y0003976D01*
X0097225Y0003551D01*
X0113594Y0003551D01*
X0118094Y0008051D01*
X0118587Y0008051D01*
X0118652Y0008874D01*
X0118652Y0049688D01*
X0119017Y0050570D01*
X0119692Y0051245D01*
X0120574Y0051611D01*
X0220008Y0051611D01*
X0220890Y0051245D01*
X0221566Y0050570D01*
X0221931Y0049688D01*
X0221931Y0008874D01*
X0221998Y0008018D01*
X0222417Y0006728D01*
X0225259Y0003886D01*
X0226549Y0003467D01*
X0227405Y0003400D01*
X0241943Y0003400D01*
X0242594Y0004051D01*
X0244155Y0004051D01*
X0247271Y0005085D01*
X0250792Y0005085D01*
X0253909Y0004051D01*
X0254094Y0004051D01*
X0254271Y0003874D01*
X0254908Y0003400D01*
X0291443Y0003400D01*
X0297094Y0009051D01*
X0297120Y0009051D01*
X0297120Y0015277D01*
X0295873Y0014030D01*
X0294132Y0013309D01*
X0292246Y0013309D01*
X0290505Y0014030D01*
X0289172Y0015363D01*
X0288450Y0017105D01*
X0288450Y0018990D01*
X0289172Y0020731D01*
X0290505Y0022064D01*
X0292246Y0022786D01*
X0294132Y0022786D01*
X0295873Y0022064D01*
X0297120Y0020818D01*
X0297120Y0040473D01*
X0295873Y0039227D01*
X0294132Y0038505D01*
X0292246Y0038505D01*
X0290505Y0039227D01*
X0289172Y0040560D01*
X0288450Y0042301D01*
X0288450Y0044187D01*
X0289172Y0045928D01*
X0290505Y0047261D01*
X0292246Y0047983D01*
X0294132Y0047983D01*
X0295873Y0047261D01*
X0297120Y0046015D01*
X0297120Y0047546D01*
X0298084Y0049876D01*
X0298084Y0049876D01*
X0299094Y0050886D01*
X0299094Y0051551D01*
X0299760Y0051551D01*
X0299867Y0051658D01*
X0299867Y0051658D01*
X0302196Y0052623D01*
X0314032Y0052623D01*
X0316361Y0051658D01*
X0316361Y0051658D01*
X0316469Y0051551D01*
X0317594Y0051551D01*
X0317594Y0050425D01*
X0318144Y0049876D01*
X0318144Y0049876D01*
X0318490Y0049041D01*
X0319244Y0050861D01*
X0320667Y0052284D01*
X0322525Y0053053D01*
X0324537Y0053053D01*
X0326396Y0052284D01*
X0327819Y0050861D01*
X0328589Y0049002D01*
X0328589Y0046990D01*
X0327819Y0045131D01*
X0326396Y0043708D01*
X0324537Y0042939D01*
X0322525Y0042939D01*
X0320667Y0043708D01*
X0319244Y0045131D01*
X0319109Y0045457D01*
X0319109Y0035818D01*
X0319244Y0036144D01*
X0320667Y0037567D01*
X0322525Y0038337D01*
X0324537Y0038337D01*
X0326396Y0037567D01*
X0327819Y0036144D01*
X0328589Y0034285D01*
X0328589Y0032313D01*
X0333246Y0032313D01*
X0333246Y0068065D01*
X0314637Y0068065D01*
X0313755Y0068430D01*
X0313080Y0069105D01*
X0312714Y0069987D01*
X0312714Y0072002D01*
X0027868Y0072002D01*
X0027868Y0069987D01*
X0027503Y0069105D01*
X0026828Y0068430D01*
X0025946Y0068065D01*
X0007904Y0068065D01*
X0007904Y0031939D01*
X0011404Y0031939D01*
X0011265Y0032273D01*
X0011265Y0034285D01*
X0012035Y0036144D01*
X0013458Y0037567D01*
X0015317Y0038337D01*
X0017329Y0038337D01*
X0019188Y0037567D01*
X0020610Y0036144D01*
X0021380Y0034285D01*
X0021380Y0032273D01*
X0021242Y0031939D01*
X0022852Y0031939D01*
X0022852Y0046609D01*
X0023817Y0048938D01*
X0023817Y0048938D01*
X0025600Y0050721D01*
X0025600Y0050721D01*
X0027929Y0051686D01*
X0038386Y0051686D01*
X0040716Y0050721D01*
X0040716Y0050721D01*
X0040716Y0050721D01*
X0042498Y0048938D01*
X0043463Y0046609D01*
X0043463Y0045865D01*
X0044733Y0047135D01*
X0046475Y0047857D01*
X0048360Y0047857D01*
X0050102Y0047135D01*
X0051434Y0045802D01*
X0052156Y0044061D01*
X0052156Y0042175D01*
X0051434Y0040434D01*
X0050102Y0039101D01*
X0048360Y0038379D01*
X0046475Y0038379D01*
X0044733Y0039101D01*
X0043463Y0040371D01*
X0043463Y0020668D01*
X0044733Y0021938D01*
X0046475Y0022660D01*
X0048360Y0022660D01*
X0050102Y0021938D01*
X0051434Y0020605D01*
X0052156Y0018864D01*
X0052156Y0016979D01*
X0051434Y0015237D01*
X0050102Y0013904D01*
X0048360Y0013183D01*
X0046475Y0013183D01*
X0044733Y0013904D01*
X0043463Y0015174D01*
X0043463Y0008874D01*
X0043639Y0008507D02*
X0057092Y0008507D01*
X0057207Y0008228D02*
X0058811Y0006624D01*
X0060906Y0005757D01*
X0063173Y0005757D01*
X0065268Y0006624D01*
X0066872Y0008228D01*
X0067739Y0010323D01*
X0067739Y0012590D01*
X0066872Y0014685D01*
X0065268Y0016289D01*
X0063173Y0017157D01*
X0060906Y0017157D01*
X0058811Y0016289D01*
X0057207Y0014685D01*
X0056339Y0012590D01*
X0056339Y0010323D01*
X0057207Y0008228D01*
X0057727Y0007708D02*
X0044437Y0007708D01*
X0045236Y0006910D02*
X0058525Y0006910D01*
X0060049Y0006111D02*
X0046034Y0006111D01*
X0046833Y0005313D02*
X0115356Y0005313D01*
X0114558Y0004514D02*
X0095032Y0004514D01*
X0097004Y0003716D02*
X0113759Y0003716D01*
X0113030Y0006111D02*
X0116155Y0006111D01*
X0116953Y0006910D02*
X0114554Y0006910D01*
X0114268Y0006624D02*
X0115872Y0008228D01*
X0116739Y0010323D01*
X0116739Y0012590D01*
X0115872Y0014685D01*
X0114268Y0016289D01*
X0112173Y0017157D01*
X0109906Y0017157D01*
X0107811Y0016289D01*
X0106207Y0014685D01*
X0105339Y0012590D01*
X0105339Y0010323D01*
X0106207Y0008228D01*
X0107811Y0006624D01*
X0109906Y0005757D01*
X0112173Y0005757D01*
X0114268Y0006624D01*
X0115352Y0007708D02*
X0117752Y0007708D01*
X0118623Y0008507D02*
X0115987Y0008507D01*
X0116318Y0009305D02*
X0118652Y0009305D01*
X0118652Y0010104D02*
X0116649Y0010104D01*
X0116739Y0010903D02*
X0118652Y0010903D01*
X0118652Y0011701D02*
X0116739Y0011701D01*
X0116739Y0012500D02*
X0118652Y0012500D01*
X0118652Y0013298D02*
X0116446Y0013298D01*
X0116116Y0014097D02*
X0118652Y0014097D01*
X0118652Y0014895D02*
X0115662Y0014895D01*
X0114863Y0015694D02*
X0118652Y0015694D01*
X0118652Y0016492D02*
X0113778Y0016492D01*
X0108301Y0016492D02*
X0096551Y0016492D01*
X0095747Y0016028D02*
X0092974Y0015285D01*
X0090104Y0015285D01*
X0087332Y0016028D01*
X0084847Y0017463D01*
X0082817Y0019492D01*
X0081382Y0021978D01*
X0080639Y0024750D01*
X0080639Y0027620D01*
X0081382Y0030392D01*
X0082817Y0032878D01*
X0084847Y0034907D01*
X0087332Y0036342D01*
X0090104Y0037085D01*
X0092974Y0037085D01*
X0095747Y0036342D01*
X0098232Y0034907D01*
X0100262Y0032878D01*
X0101697Y0030392D01*
X0102439Y0027620D01*
X0102439Y0024750D01*
X0101697Y0021978D01*
X0100262Y0019492D01*
X0098232Y0017463D01*
X0095747Y0016028D01*
X0094499Y0015694D02*
X0107215Y0015694D01*
X0106417Y0014895D02*
X0066662Y0014895D01*
X0067116Y0014097D02*
X0105963Y0014097D01*
X0105632Y0013298D02*
X0067446Y0013298D01*
X0067739Y0012500D02*
X0105339Y0012500D01*
X0105339Y0011701D02*
X0067739Y0011701D01*
X0067739Y0010903D02*
X0105339Y0010903D01*
X0105430Y0010104D02*
X0067649Y0010104D01*
X0067318Y0009305D02*
X0105761Y0009305D01*
X0106092Y0008507D02*
X0066987Y0008507D01*
X0066352Y0007708D02*
X0106727Y0007708D01*
X0107525Y0006910D02*
X0065554Y0006910D01*
X0064030Y0006111D02*
X0109049Y0006111D01*
X0088071Y0004514D02*
X0047631Y0004514D01*
X0048430Y0003716D02*
X0086100Y0003716D01*
X0056761Y0009305D02*
X0043463Y0009305D01*
X0043463Y0010104D02*
X0056430Y0010104D01*
X0056339Y0010903D02*
X0043463Y0010903D01*
X0043463Y0011701D02*
X0056339Y0011701D01*
X0056339Y0012500D02*
X0043463Y0012500D01*
X0043463Y0013298D02*
X0046196Y0013298D01*
X0044541Y0014097D02*
X0043463Y0014097D01*
X0043463Y0014895D02*
X0043742Y0014895D01*
X0048639Y0013298D02*
X0056632Y0013298D01*
X0056963Y0014097D02*
X0050294Y0014097D01*
X0051093Y0014895D02*
X0057417Y0014895D01*
X0058215Y0015694D02*
X0051624Y0015694D01*
X0051954Y0016492D02*
X0059301Y0016492D01*
X0064778Y0016492D02*
X0086528Y0016492D01*
X0085145Y0017291D02*
X0052156Y0017291D01*
X0052156Y0018089D02*
X0084220Y0018089D01*
X0083422Y0018888D02*
X0052146Y0018888D01*
X0051815Y0019686D02*
X0082705Y0019686D01*
X0082244Y0020485D02*
X0051485Y0020485D01*
X0050757Y0021283D02*
X0081783Y0021283D01*
X0081354Y0022082D02*
X0049756Y0022082D01*
X0045079Y0022082D02*
X0043463Y0022082D01*
X0043463Y0022880D02*
X0081140Y0022880D01*
X0080926Y0023679D02*
X0043463Y0023679D01*
X0043463Y0024477D02*
X0080712Y0024477D01*
X0080639Y0025276D02*
X0043463Y0025276D01*
X0043463Y0026074D02*
X0080639Y0026074D01*
X0080639Y0026873D02*
X0043463Y0026873D01*
X0043463Y0027671D02*
X0080653Y0027671D01*
X0080867Y0028470D02*
X0043463Y0028470D01*
X0043463Y0029268D02*
X0081081Y0029268D01*
X0081295Y0030067D02*
X0043463Y0030067D01*
X0043463Y0030865D02*
X0081655Y0030865D01*
X0082116Y0031664D02*
X0043463Y0031664D01*
X0043463Y0032462D02*
X0082577Y0032462D01*
X0083200Y0033261D02*
X0043463Y0033261D01*
X0043463Y0034059D02*
X0083999Y0034059D01*
X0084797Y0034858D02*
X0043463Y0034858D01*
X0043463Y0035656D02*
X0086144Y0035656D01*
X0087753Y0036455D02*
X0043463Y0036455D01*
X0043463Y0037253D02*
X0118652Y0037253D01*
X0118652Y0036455D02*
X0095326Y0036455D01*
X0096934Y0035656D02*
X0118652Y0035656D01*
X0118652Y0034858D02*
X0098281Y0034858D01*
X0099080Y0034059D02*
X0118652Y0034059D01*
X0118652Y0033261D02*
X0099878Y0033261D01*
X0100501Y0032462D02*
X0118652Y0032462D01*
X0118652Y0031664D02*
X0100962Y0031664D01*
X0101423Y0030865D02*
X0118652Y0030865D01*
X0118652Y0030067D02*
X0101784Y0030067D01*
X0101998Y0029268D02*
X0118652Y0029268D01*
X0118652Y0028470D02*
X0102212Y0028470D01*
X0102426Y0027671D02*
X0118652Y0027671D01*
X0118652Y0026873D02*
X0102439Y0026873D01*
X0102439Y0026074D02*
X0118652Y0026074D01*
X0118652Y0025276D02*
X0102439Y0025276D01*
X0102366Y0024477D02*
X0118652Y0024477D01*
X0118652Y0023679D02*
X0102152Y0023679D01*
X0101938Y0022880D02*
X0118652Y0022880D01*
X0118652Y0022082D02*
X0101724Y0022082D01*
X0101296Y0021283D02*
X0118652Y0021283D01*
X0118652Y0020485D02*
X0100834Y0020485D01*
X0100373Y0019686D02*
X0118652Y0019686D01*
X0118652Y0018888D02*
X0099657Y0018888D01*
X0098858Y0018089D02*
X0118652Y0018089D01*
X0118652Y0017291D02*
X0097934Y0017291D01*
X0088579Y0015694D02*
X0065863Y0015694D01*
X0044078Y0021283D02*
X0043463Y0021283D01*
X0022852Y0032462D02*
X0021380Y0032462D01*
X0021380Y0033261D02*
X0022852Y0033261D01*
X0022852Y0034059D02*
X0021380Y0034059D01*
X0021143Y0034858D02*
X0022852Y0034858D01*
X0022852Y0035656D02*
X0020812Y0035656D01*
X0020300Y0036455D02*
X0022852Y0036455D01*
X0022852Y0037253D02*
X0019501Y0037253D01*
X0018017Y0038052D02*
X0022852Y0038052D01*
X0022852Y0038850D02*
X0007904Y0038850D01*
X0007904Y0038052D02*
X0014629Y0038052D01*
X0013144Y0037253D02*
X0007904Y0037253D01*
X0007904Y0036455D02*
X0012346Y0036455D01*
X0011833Y0035656D02*
X0007904Y0035656D01*
X0007904Y0034858D02*
X0011502Y0034858D01*
X0011265Y0034059D02*
X0007904Y0034059D01*
X0007904Y0033261D02*
X0011265Y0033261D01*
X0011265Y0032462D02*
X0007904Y0032462D01*
X0007904Y0039649D02*
X0022852Y0039649D01*
X0022852Y0040447D02*
X0007904Y0040447D01*
X0007904Y0041246D02*
X0022852Y0041246D01*
X0022852Y0042044D02*
X0007904Y0042044D01*
X0007904Y0042843D02*
X0022852Y0042843D01*
X0022852Y0043641D02*
X0019026Y0043641D01*
X0019188Y0043708D02*
X0020610Y0045131D01*
X0021380Y0046990D01*
X0021380Y0049002D01*
X0020610Y0050861D01*
X0019188Y0052284D01*
X0017329Y0053053D01*
X0015317Y0053053D01*
X0013458Y0052284D01*
X0012035Y0050861D01*
X0011265Y0049002D01*
X0011265Y0046990D01*
X0012035Y0045131D01*
X0013458Y0043708D01*
X0015317Y0042939D01*
X0017329Y0042939D01*
X0019188Y0043708D01*
X0019919Y0044440D02*
X0022852Y0044440D01*
X0022852Y0045238D02*
X0020655Y0045238D01*
X0020986Y0046037D02*
X0022852Y0046037D01*
X0022946Y0046836D02*
X0021316Y0046836D01*
X0021380Y0047634D02*
X0023277Y0047634D01*
X0023607Y0048433D02*
X0021380Y0048433D01*
X0021285Y0049231D02*
X0024110Y0049231D01*
X0024908Y0050030D02*
X0020955Y0050030D01*
X0020624Y0050828D02*
X0025858Y0050828D01*
X0027786Y0051627D02*
X0019845Y0051627D01*
X0018846Y0052425D02*
X0056711Y0052425D01*
X0057042Y0051627D02*
X0038529Y0051627D01*
X0038342Y0052683D02*
X0034682Y0052683D01*
X0031301Y0054083D01*
X0028713Y0056671D01*
X0027313Y0060052D01*
X0027313Y0063712D01*
X0028713Y0067093D01*
X0031301Y0069681D01*
X0034682Y0071081D01*
X0038342Y0071081D01*
X0041723Y0069681D01*
X0044311Y0067093D01*
X0045711Y0063712D01*
X0045711Y0060052D01*
X0044311Y0056671D01*
X0041723Y0054083D01*
X0038342Y0052683D01*
X0039648Y0053224D02*
X0056380Y0053224D01*
X0056339Y0053323D02*
X0057207Y0051228D01*
X0058811Y0049624D01*
X0060906Y0048757D01*
X0063173Y0048757D01*
X0065268Y0049624D01*
X0066872Y0051228D01*
X0067739Y0053323D01*
X0067739Y0055590D01*
X0066872Y0057685D01*
X0065268Y0059289D01*
X0063173Y0060157D01*
X0060906Y0060157D01*
X0058811Y0059289D01*
X0057207Y0057685D01*
X0056339Y0055590D01*
X0056339Y0053323D01*
X0056339Y0054022D02*
X0041575Y0054022D01*
X0042460Y0054821D02*
X0056339Y0054821D01*
X0056351Y0055619D02*
X0043259Y0055619D01*
X0044057Y0056418D02*
X0056682Y0056418D01*
X0057013Y0057216D02*
X0044536Y0057216D01*
X0044867Y0058015D02*
X0057536Y0058015D01*
X0058335Y0058813D02*
X0045198Y0058813D01*
X0045529Y0059612D02*
X0059590Y0059612D01*
X0064489Y0059612D02*
X0129442Y0059612D01*
X0129293Y0059971D02*
X0130014Y0058229D01*
X0131347Y0056896D01*
X0133089Y0056175D01*
X0134974Y0056175D01*
X0136716Y0056896D01*
X0138049Y0058229D01*
X0138770Y0059971D01*
X0138770Y0061856D01*
X0138049Y0063598D01*
X0136716Y0064930D01*
X0134974Y0065652D01*
X0133089Y0065652D01*
X0131347Y0064930D01*
X0130014Y0063598D01*
X0129293Y0061856D01*
X0129293Y0059971D01*
X0129293Y0060410D02*
X0045711Y0060410D01*
X0045711Y0061209D02*
X0129293Y0061209D01*
X0129356Y0062007D02*
X0045711Y0062007D01*
X0045711Y0062806D02*
X0129686Y0062806D01*
X0130021Y0063604D02*
X0045711Y0063604D01*
X0045425Y0064403D02*
X0048007Y0064403D01*
X0048063Y0064379D02*
X0049126Y0064379D01*
X0050108Y0064786D01*
X0050859Y0065538D01*
X0051266Y0066520D01*
X0051266Y0067583D01*
X0050859Y0068564D01*
X0050108Y0069316D01*
X0049126Y0069723D01*
X0048063Y0069723D01*
X0047081Y0069316D01*
X0046330Y0068564D01*
X0045923Y0067583D01*
X0045923Y0066520D01*
X0046330Y0065538D01*
X0047081Y0064786D01*
X0048063Y0064379D01*
X0049182Y0064403D02*
X0130820Y0064403D01*
X0132001Y0065201D02*
X0126108Y0065201D01*
X0126162Y0065224D02*
X0127083Y0066145D01*
X0127582Y0067349D01*
X0127582Y0068651D01*
X0127083Y0069855D01*
X0126162Y0070776D01*
X0124958Y0071275D01*
X0123656Y0071275D01*
X0122452Y0070776D01*
X0121531Y0069855D01*
X0121032Y0068651D01*
X0121032Y0067349D01*
X0121531Y0066145D01*
X0122452Y0065224D01*
X0123656Y0064725D01*
X0124958Y0064725D01*
X0126162Y0065224D01*
X0126938Y0066000D02*
X0152923Y0066000D01*
X0152923Y0066083D02*
X0152923Y0065020D01*
X0153330Y0064038D01*
X0154081Y0063286D01*
X0155063Y0062879D01*
X0156126Y0062879D01*
X0157108Y0063286D01*
X0157859Y0064038D01*
X0158266Y0065020D01*
X0158266Y0066083D01*
X0157859Y0067064D01*
X0157108Y0067816D01*
X0156126Y0068223D01*
X0155063Y0068223D01*
X0154081Y0067816D01*
X0153330Y0067064D01*
X0152923Y0066083D01*
X0153219Y0066798D02*
X0127354Y0066798D01*
X0127582Y0067597D02*
X0153862Y0067597D01*
X0157327Y0067597D02*
X0161579Y0067597D01*
X0161075Y0067093D02*
X0159675Y0063712D01*
X0159675Y0060052D01*
X0161075Y0056671D01*
X0163663Y0054083D01*
X0167044Y0052683D01*
X0170704Y0052683D01*
X0174085Y0054083D01*
X0176673Y0056671D01*
X0178073Y0060052D01*
X0178073Y0063712D01*
X0176673Y0067093D01*
X0174085Y0069681D01*
X0170704Y0071081D01*
X0167044Y0071081D01*
X0163663Y0069681D01*
X0161075Y0067093D01*
X0160953Y0066798D02*
X0157970Y0066798D01*
X0158266Y0066000D02*
X0160623Y0066000D01*
X0160292Y0065201D02*
X0158266Y0065201D01*
X0158011Y0064403D02*
X0159961Y0064403D01*
X0159675Y0063604D02*
X0157426Y0063604D01*
X0159675Y0062806D02*
X0138377Y0062806D01*
X0138707Y0062007D02*
X0159675Y0062007D01*
X0159675Y0061209D02*
X0138770Y0061209D01*
X0138770Y0060410D02*
X0159675Y0060410D01*
X0159857Y0059612D02*
X0138621Y0059612D01*
X0138291Y0058813D02*
X0160188Y0058813D01*
X0160519Y0058015D02*
X0137834Y0058015D01*
X0137036Y0057216D02*
X0160849Y0057216D01*
X0161329Y0056418D02*
X0135560Y0056418D01*
X0132502Y0056418D02*
X0067397Y0056418D01*
X0067066Y0057216D02*
X0131027Y0057216D01*
X0130229Y0058015D02*
X0066542Y0058015D01*
X0065744Y0058813D02*
X0129772Y0058813D01*
X0138042Y0063604D02*
X0153763Y0063604D01*
X0153178Y0064403D02*
X0137243Y0064403D01*
X0136062Y0065201D02*
X0152923Y0065201D01*
X0162378Y0068395D02*
X0127582Y0068395D01*
X0127357Y0069194D02*
X0163176Y0069194D01*
X0164416Y0069992D02*
X0126946Y0069992D01*
X0126127Y0070791D02*
X0166344Y0070791D01*
X0171404Y0070791D02*
X0214333Y0070791D01*
X0214444Y0070902D02*
X0213523Y0069981D01*
X0213024Y0068777D01*
X0213024Y0067475D01*
X0213523Y0066271D01*
X0214444Y0065350D01*
X0215648Y0064851D01*
X0216951Y0064851D01*
X0218154Y0065350D01*
X0219075Y0066271D01*
X0219574Y0067475D01*
X0219574Y0068777D01*
X0219075Y0069981D01*
X0218154Y0070902D01*
X0216951Y0071401D01*
X0215648Y0071401D01*
X0214444Y0070902D01*
X0213534Y0069992D02*
X0173332Y0069992D01*
X0174572Y0069194D02*
X0213197Y0069194D01*
X0213024Y0068395D02*
X0175370Y0068395D01*
X0176169Y0067597D02*
X0213024Y0067597D01*
X0213305Y0066798D02*
X0176795Y0066798D01*
X0177125Y0066000D02*
X0213794Y0066000D01*
X0214802Y0065201D02*
X0208909Y0065201D01*
X0209259Y0065056D02*
X0207517Y0065778D01*
X0205632Y0065778D01*
X0203891Y0065056D01*
X0202558Y0063723D01*
X0201836Y0061982D01*
X0201836Y0060097D01*
X0202558Y0058355D01*
X0203891Y0057022D01*
X0205632Y0056301D01*
X0207517Y0056301D01*
X0209259Y0057022D01*
X0210592Y0058355D01*
X0211313Y0060097D01*
X0211313Y0061982D01*
X0210592Y0063723D01*
X0209259Y0065056D01*
X0209913Y0064403D02*
X0297205Y0064403D01*
X0296919Y0063712D02*
X0296919Y0060052D01*
X0298319Y0056671D01*
X0300907Y0054083D01*
X0304288Y0052683D01*
X0307948Y0052683D01*
X0311329Y0054083D01*
X0313917Y0056671D01*
X0315317Y0060052D01*
X0315317Y0063712D01*
X0313917Y0067093D01*
X0311329Y0069681D01*
X0307948Y0071081D01*
X0304288Y0071081D01*
X0300907Y0069681D01*
X0298319Y0067093D01*
X0296919Y0063712D01*
X0296919Y0063604D02*
X0210641Y0063604D01*
X0210972Y0062806D02*
X0296919Y0062806D01*
X0296919Y0062007D02*
X0211303Y0062007D01*
X0211313Y0061209D02*
X0296919Y0061209D01*
X0296919Y0060410D02*
X0211313Y0060410D01*
X0211112Y0059612D02*
X0275813Y0059612D01*
X0275338Y0059415D02*
X0277433Y0060283D01*
X0279701Y0060283D01*
X0281796Y0059415D01*
X0283399Y0057811D01*
X0284267Y0055716D01*
X0284267Y0053449D01*
X0283399Y0051354D01*
X0281796Y0049750D01*
X0279701Y0048883D01*
X0277433Y0048883D01*
X0275338Y0049750D01*
X0273735Y0051354D01*
X0272867Y0053449D01*
X0272867Y0055716D01*
X0273735Y0057811D01*
X0275338Y0059415D01*
X0274736Y0058813D02*
X0210782Y0058813D01*
X0210252Y0058015D02*
X0273938Y0058015D01*
X0273488Y0057216D02*
X0209453Y0057216D01*
X0207800Y0056418D02*
X0273157Y0056418D01*
X0272867Y0055619D02*
X0175621Y0055619D01*
X0174822Y0054821D02*
X0272867Y0054821D01*
X0272867Y0054022D02*
X0173938Y0054022D01*
X0172010Y0053224D02*
X0272960Y0053224D01*
X0273291Y0052425D02*
X0067368Y0052425D01*
X0067698Y0053224D02*
X0165738Y0053224D01*
X0163810Y0054022D02*
X0067739Y0054022D01*
X0067739Y0054821D02*
X0162926Y0054821D01*
X0162127Y0055619D02*
X0067727Y0055619D01*
X0067037Y0051627D02*
X0273622Y0051627D01*
X0274260Y0050828D02*
X0221308Y0050828D01*
X0221789Y0050030D02*
X0275059Y0050030D01*
X0276592Y0049231D02*
X0221931Y0049231D01*
X0221931Y0048433D02*
X0297487Y0048433D01*
X0297156Y0047634D02*
X0294973Y0047634D01*
X0296299Y0046836D02*
X0297120Y0046836D01*
X0297097Y0046037D02*
X0297120Y0046037D01*
X0291405Y0047634D02*
X0221931Y0047634D01*
X0221931Y0046836D02*
X0290079Y0046836D01*
X0289281Y0046037D02*
X0221931Y0046037D01*
X0221931Y0045238D02*
X0288886Y0045238D01*
X0288555Y0044440D02*
X0221931Y0044440D01*
X0221931Y0043641D02*
X0288450Y0043641D01*
X0288450Y0042843D02*
X0221931Y0042843D01*
X0221931Y0042044D02*
X0288557Y0042044D01*
X0288888Y0041246D02*
X0221931Y0041246D01*
X0221931Y0040447D02*
X0289284Y0040447D01*
X0290083Y0039649D02*
X0221931Y0039649D01*
X0221931Y0038850D02*
X0291414Y0038850D01*
X0294964Y0038850D02*
X0297120Y0038850D01*
X0297120Y0038052D02*
X0221931Y0038052D01*
X0221931Y0037253D02*
X0297120Y0037253D01*
X0297120Y0036455D02*
X0253297Y0036455D01*
X0253274Y0036468D02*
X0250502Y0037211D01*
X0247632Y0037211D01*
X0244860Y0036468D01*
X0242374Y0035033D01*
X0240345Y0033004D01*
X0238910Y0030518D01*
X0238167Y0027746D01*
X0238167Y0024876D01*
X0238910Y0022104D01*
X0240345Y0019618D01*
X0242374Y0017589D01*
X0244860Y0016154D01*
X0247632Y0015411D01*
X0250502Y0015411D01*
X0253274Y0016154D01*
X0255760Y0017589D01*
X0257789Y0019618D01*
X0259224Y0022104D01*
X0259967Y0024876D01*
X0259967Y0027746D01*
X0259224Y0030518D01*
X0257789Y0033004D01*
X0255760Y0035033D01*
X0253274Y0036468D01*
X0254680Y0035656D02*
X0297120Y0035656D01*
X0297120Y0034858D02*
X0255935Y0034858D01*
X0256733Y0034059D02*
X0297120Y0034059D01*
X0297120Y0033261D02*
X0257532Y0033261D01*
X0258102Y0032462D02*
X0297120Y0032462D01*
X0297120Y0031664D02*
X0258563Y0031664D01*
X0259024Y0030865D02*
X0297120Y0030865D01*
X0297120Y0030067D02*
X0259345Y0030067D01*
X0259559Y0029268D02*
X0297120Y0029268D01*
X0297120Y0028470D02*
X0259773Y0028470D01*
X0259967Y0027671D02*
X0297120Y0027671D01*
X0297120Y0026873D02*
X0259967Y0026873D01*
X0259967Y0026074D02*
X0297120Y0026074D01*
X0297120Y0025276D02*
X0259967Y0025276D01*
X0259860Y0024477D02*
X0297120Y0024477D01*
X0297120Y0023679D02*
X0259646Y0023679D01*
X0259432Y0022880D02*
X0297120Y0022880D01*
X0297120Y0022082D02*
X0295831Y0022082D01*
X0296654Y0021283D02*
X0297120Y0021283D01*
X0290547Y0022082D02*
X0259211Y0022082D01*
X0258750Y0021283D02*
X0289724Y0021283D01*
X0289070Y0020485D02*
X0258289Y0020485D01*
X0257828Y0019686D02*
X0288739Y0019686D01*
X0288450Y0018888D02*
X0257059Y0018888D01*
X0256260Y0018089D02*
X0288450Y0018089D01*
X0288450Y0017291D02*
X0255243Y0017291D01*
X0253860Y0016492D02*
X0275525Y0016492D01*
X0275338Y0016415D02*
X0273735Y0014811D01*
X0272867Y0012716D01*
X0272867Y0010449D01*
X0273735Y0008354D01*
X0275338Y0006750D01*
X0277433Y0005883D01*
X0279701Y0005883D01*
X0281796Y0006750D01*
X0283399Y0008354D01*
X0284267Y0010449D01*
X0284267Y0012716D01*
X0283399Y0014811D01*
X0281796Y0016415D01*
X0279701Y0017283D01*
X0277433Y0017283D01*
X0275338Y0016415D01*
X0274617Y0015694D02*
X0251557Y0015694D01*
X0246577Y0015694D02*
X0233517Y0015694D01*
X0232796Y0016415D02*
X0234399Y0014811D01*
X0235267Y0012716D01*
X0235267Y0010449D01*
X0234399Y0008354D01*
X0232796Y0006750D01*
X0230701Y0005883D01*
X0228433Y0005883D01*
X0226338Y0006750D01*
X0224735Y0008354D01*
X0223867Y0010449D01*
X0223867Y0012716D01*
X0224735Y0014811D01*
X0226338Y0016415D01*
X0228433Y0017283D01*
X0230701Y0017283D01*
X0232796Y0016415D01*
X0232609Y0016492D02*
X0244274Y0016492D01*
X0242891Y0017291D02*
X0221931Y0017291D01*
X0221931Y0018089D02*
X0241874Y0018089D01*
X0241075Y0018888D02*
X0221931Y0018888D01*
X0221931Y0019686D02*
X0240306Y0019686D01*
X0239845Y0020485D02*
X0221931Y0020485D01*
X0221931Y0021283D02*
X0239383Y0021283D01*
X0238922Y0022082D02*
X0221931Y0022082D01*
X0221931Y0022880D02*
X0238702Y0022880D01*
X0238488Y0023679D02*
X0221931Y0023679D01*
X0221931Y0024477D02*
X0238274Y0024477D01*
X0238167Y0025276D02*
X0221931Y0025276D01*
X0221931Y0026074D02*
X0238167Y0026074D01*
X0238167Y0026873D02*
X0221931Y0026873D01*
X0221931Y0027671D02*
X0238167Y0027671D01*
X0238361Y0028470D02*
X0221931Y0028470D01*
X0221931Y0029268D02*
X0238575Y0029268D01*
X0238789Y0030067D02*
X0221931Y0030067D01*
X0221931Y0030865D02*
X0239110Y0030865D01*
X0239571Y0031664D02*
X0221931Y0031664D01*
X0221931Y0032462D02*
X0240032Y0032462D01*
X0240602Y0033261D02*
X0221931Y0033261D01*
X0221931Y0034059D02*
X0241400Y0034059D01*
X0242199Y0034858D02*
X0221931Y0034858D01*
X0221931Y0035656D02*
X0243454Y0035656D01*
X0244837Y0036455D02*
X0221931Y0036455D01*
X0280542Y0049231D02*
X0297817Y0049231D01*
X0298238Y0050030D02*
X0282075Y0050030D01*
X0282873Y0050828D02*
X0299037Y0050828D01*
X0299836Y0051627D02*
X0283512Y0051627D01*
X0283843Y0052425D02*
X0301719Y0052425D01*
X0302982Y0053224D02*
X0284174Y0053224D01*
X0284267Y0054022D02*
X0301054Y0054022D01*
X0300170Y0054821D02*
X0284267Y0054821D01*
X0284267Y0055619D02*
X0299371Y0055619D01*
X0298573Y0056418D02*
X0283976Y0056418D01*
X0283646Y0057216D02*
X0298094Y0057216D01*
X0297763Y0058015D02*
X0283196Y0058015D01*
X0282397Y0058813D02*
X0297432Y0058813D01*
X0297101Y0059612D02*
X0281320Y0059612D01*
X0278738Y0064930D02*
X0277435Y0064930D01*
X0276232Y0065428D01*
X0275310Y0066350D01*
X0274812Y0067553D01*
X0274812Y0068856D01*
X0275310Y0070060D01*
X0276232Y0070981D01*
X0277435Y0071479D01*
X0278738Y0071479D01*
X0279942Y0070981D01*
X0280863Y0070060D01*
X0281361Y0068856D01*
X0281361Y0067553D01*
X0280863Y0066350D01*
X0279942Y0065428D01*
X0278738Y0064930D01*
X0279393Y0065201D02*
X0297536Y0065201D01*
X0297867Y0066000D02*
X0280513Y0066000D01*
X0281049Y0066798D02*
X0298197Y0066798D01*
X0298823Y0067597D02*
X0281361Y0067597D01*
X0281361Y0068395D02*
X0299622Y0068395D01*
X0300420Y0069194D02*
X0281221Y0069194D01*
X0280891Y0069992D02*
X0301660Y0069992D01*
X0303588Y0070791D02*
X0280132Y0070791D01*
X0276042Y0070791D02*
X0218266Y0070791D01*
X0219064Y0069992D02*
X0275282Y0069992D01*
X0274952Y0069194D02*
X0219401Y0069194D01*
X0219574Y0068395D02*
X0274812Y0068395D01*
X0274812Y0067597D02*
X0219574Y0067597D01*
X0219294Y0066798D02*
X0275125Y0066798D01*
X0275660Y0066000D02*
X0218804Y0066000D01*
X0217796Y0065201D02*
X0276780Y0065201D01*
X0308648Y0070791D02*
X0312714Y0070791D01*
X0312714Y0071589D02*
X0027868Y0071589D01*
X0027868Y0070791D02*
X0033981Y0070791D01*
X0032054Y0069992D02*
X0027868Y0069992D01*
X0027540Y0069194D02*
X0030814Y0069194D01*
X0030016Y0068395D02*
X0026745Y0068395D01*
X0029217Y0067597D02*
X0007904Y0067597D01*
X0007904Y0066798D02*
X0028591Y0066798D01*
X0028260Y0066000D02*
X0007904Y0066000D01*
X0007904Y0065201D02*
X0027930Y0065201D01*
X0027599Y0064403D02*
X0022898Y0064403D01*
X0023108Y0064316D02*
X0022126Y0064723D01*
X0021063Y0064723D01*
X0020081Y0064316D01*
X0019330Y0063564D01*
X0018923Y0062583D01*
X0018923Y0061520D01*
X0019330Y0060538D01*
X0020081Y0059786D01*
X0021063Y0059379D01*
X0022126Y0059379D01*
X0023108Y0059786D01*
X0023859Y0060538D01*
X0024266Y0061520D01*
X0024266Y0062583D01*
X0023859Y0063564D01*
X0023108Y0064316D01*
X0023820Y0063604D02*
X0027313Y0063604D01*
X0027313Y0062806D02*
X0024174Y0062806D01*
X0024266Y0062007D02*
X0027313Y0062007D01*
X0027313Y0061209D02*
X0024137Y0061209D01*
X0023732Y0060410D02*
X0027313Y0060410D01*
X0027495Y0059612D02*
X0022687Y0059612D01*
X0020502Y0059612D02*
X0007904Y0059612D01*
X0007904Y0060410D02*
X0019457Y0060410D01*
X0019052Y0061209D02*
X0007904Y0061209D01*
X0007904Y0062007D02*
X0018923Y0062007D01*
X0019015Y0062806D02*
X0007904Y0062806D01*
X0007904Y0063604D02*
X0019369Y0063604D01*
X0020291Y0064403D02*
X0007904Y0064403D01*
X0007904Y0058813D02*
X0027826Y0058813D01*
X0028156Y0058015D02*
X0007904Y0058015D01*
X0007904Y0057216D02*
X0028487Y0057216D01*
X0028966Y0056418D02*
X0007904Y0056418D01*
X0007904Y0055619D02*
X0029765Y0055619D01*
X0030563Y0054821D02*
X0007904Y0054821D01*
X0007904Y0054022D02*
X0031448Y0054022D01*
X0033376Y0053224D02*
X0007904Y0053224D01*
X0007904Y0052425D02*
X0013800Y0052425D01*
X0012801Y0051627D02*
X0007904Y0051627D01*
X0007904Y0050828D02*
X0012022Y0050828D01*
X0011691Y0050030D02*
X0007904Y0050030D01*
X0007904Y0049231D02*
X0011360Y0049231D01*
X0011265Y0048433D02*
X0007904Y0048433D01*
X0007904Y0047634D02*
X0011265Y0047634D01*
X0011329Y0046836D02*
X0007904Y0046836D01*
X0007904Y0046037D02*
X0011660Y0046037D01*
X0011991Y0045238D02*
X0007904Y0045238D01*
X0007904Y0044440D02*
X0012726Y0044440D01*
X0013620Y0043641D02*
X0007904Y0043641D01*
X0041407Y0050030D02*
X0058405Y0050030D01*
X0057607Y0050828D02*
X0040457Y0050828D01*
X0042205Y0049231D02*
X0059760Y0049231D01*
X0064319Y0049231D02*
X0118652Y0049231D01*
X0118793Y0050030D02*
X0065673Y0050030D01*
X0066472Y0050828D02*
X0119275Y0050828D01*
X0118652Y0048433D02*
X0042708Y0048433D01*
X0043038Y0047634D02*
X0045937Y0047634D01*
X0044433Y0046836D02*
X0043369Y0046836D01*
X0043463Y0046037D02*
X0043635Y0046037D01*
X0048897Y0047634D02*
X0118652Y0047634D01*
X0118652Y0046836D02*
X0050401Y0046836D01*
X0051200Y0046037D02*
X0118652Y0046037D01*
X0118652Y0045238D02*
X0051668Y0045238D01*
X0051999Y0044440D02*
X0118652Y0044440D01*
X0118652Y0043641D02*
X0052156Y0043641D01*
X0052156Y0042843D02*
X0118652Y0042843D01*
X0118652Y0042044D02*
X0052102Y0042044D01*
X0051771Y0041246D02*
X0118652Y0041246D01*
X0118652Y0040447D02*
X0051440Y0040447D01*
X0050650Y0039649D02*
X0118652Y0039649D01*
X0118652Y0038850D02*
X0049497Y0038850D01*
X0045338Y0038850D02*
X0043463Y0038850D01*
X0043463Y0038052D02*
X0118652Y0038052D01*
X0044185Y0039649D02*
X0043463Y0039649D01*
X0060665Y0065302D02*
X0061868Y0064804D01*
X0063171Y0064804D01*
X0064375Y0065302D01*
X0065296Y0066224D01*
X0065794Y0067427D01*
X0065794Y0068730D01*
X0065296Y0069934D01*
X0064375Y0070855D01*
X0063171Y0071353D01*
X0061868Y0071353D01*
X0060665Y0070855D01*
X0059743Y0069934D01*
X0059245Y0068730D01*
X0059245Y0067427D01*
X0059743Y0066224D01*
X0060665Y0065302D01*
X0060909Y0065201D02*
X0050523Y0065201D01*
X0051051Y0066000D02*
X0059967Y0066000D01*
X0059505Y0066798D02*
X0051266Y0066798D01*
X0051260Y0067597D02*
X0059245Y0067597D01*
X0059245Y0068395D02*
X0050929Y0068395D01*
X0050230Y0069194D02*
X0059437Y0069194D01*
X0059802Y0069992D02*
X0040970Y0069992D01*
X0042209Y0069194D02*
X0046959Y0069194D01*
X0046260Y0068395D02*
X0043008Y0068395D01*
X0043806Y0067597D02*
X0045929Y0067597D01*
X0045923Y0066798D02*
X0044432Y0066798D01*
X0044763Y0066000D02*
X0046138Y0066000D01*
X0046666Y0065201D02*
X0045094Y0065201D01*
X0064130Y0065201D02*
X0122506Y0065201D01*
X0121676Y0066000D02*
X0065072Y0066000D01*
X0065534Y0066798D02*
X0121260Y0066798D01*
X0121032Y0067597D02*
X0065794Y0067597D01*
X0065794Y0068395D02*
X0121032Y0068395D01*
X0121257Y0069194D02*
X0065602Y0069194D01*
X0065237Y0069992D02*
X0121668Y0069992D01*
X0122488Y0070791D02*
X0064439Y0070791D01*
X0060601Y0070791D02*
X0039042Y0070791D01*
X0176419Y0056418D02*
X0205350Y0056418D01*
X0203697Y0057216D02*
X0176899Y0057216D01*
X0177229Y0058015D02*
X0202898Y0058015D01*
X0202368Y0058813D02*
X0177560Y0058813D01*
X0177891Y0059612D02*
X0202037Y0059612D01*
X0201836Y0060410D02*
X0178073Y0060410D01*
X0178073Y0061209D02*
X0201836Y0061209D01*
X0201847Y0062007D02*
X0178073Y0062007D01*
X0178073Y0062806D02*
X0202177Y0062806D01*
X0202508Y0063604D02*
X0178073Y0063604D01*
X0177787Y0064403D02*
X0203237Y0064403D01*
X0204240Y0065201D02*
X0177456Y0065201D01*
X0296295Y0039649D02*
X0297120Y0039649D01*
X0297094Y0040447D02*
X0297120Y0040447D01*
X0319109Y0040447D02*
X0333246Y0040447D01*
X0333246Y0039649D02*
X0319109Y0039649D01*
X0319109Y0038850D02*
X0333246Y0038850D01*
X0333246Y0038052D02*
X0325226Y0038052D01*
X0326710Y0037253D02*
X0333246Y0037253D01*
X0333246Y0036455D02*
X0327508Y0036455D01*
X0328021Y0035656D02*
X0333246Y0035656D01*
X0333246Y0034858D02*
X0328352Y0034858D01*
X0328589Y0034059D02*
X0333246Y0034059D01*
X0333246Y0033261D02*
X0328589Y0033261D01*
X0328589Y0032462D02*
X0333246Y0032462D01*
X0319555Y0036455D02*
X0319109Y0036455D01*
X0319109Y0037253D02*
X0320353Y0037253D01*
X0319109Y0038052D02*
X0321837Y0038052D01*
X0319109Y0041246D02*
X0333246Y0041246D01*
X0333246Y0042044D02*
X0319109Y0042044D01*
X0319109Y0042843D02*
X0333246Y0042843D01*
X0333246Y0043641D02*
X0326235Y0043641D01*
X0327128Y0044440D02*
X0333246Y0044440D01*
X0333246Y0045238D02*
X0327863Y0045238D01*
X0328194Y0046037D02*
X0333246Y0046037D01*
X0333246Y0046836D02*
X0328525Y0046836D01*
X0328589Y0047634D02*
X0333246Y0047634D01*
X0333246Y0048433D02*
X0328589Y0048433D01*
X0328494Y0049231D02*
X0333246Y0049231D01*
X0333246Y0050030D02*
X0328163Y0050030D01*
X0327833Y0050828D02*
X0333246Y0050828D01*
X0333246Y0051627D02*
X0327053Y0051627D01*
X0326055Y0052425D02*
X0333246Y0052425D01*
X0333246Y0053224D02*
X0309254Y0053224D01*
X0311182Y0054022D02*
X0333246Y0054022D01*
X0333246Y0054821D02*
X0312067Y0054821D01*
X0312865Y0055619D02*
X0333246Y0055619D01*
X0333246Y0056418D02*
X0313664Y0056418D01*
X0314143Y0057216D02*
X0333246Y0057216D01*
X0333246Y0058015D02*
X0314473Y0058015D01*
X0314804Y0058813D02*
X0316554Y0058813D01*
X0316581Y0058786D02*
X0317563Y0058379D01*
X0318626Y0058379D01*
X0319608Y0058786D01*
X0320359Y0059538D01*
X0320766Y0060520D01*
X0320766Y0061583D01*
X0320359Y0062564D01*
X0319608Y0063316D01*
X0318626Y0063723D01*
X0317563Y0063723D01*
X0316581Y0063316D01*
X0315830Y0062564D01*
X0315423Y0061583D01*
X0315423Y0060520D01*
X0315830Y0059538D01*
X0316581Y0058786D01*
X0315799Y0059612D02*
X0315135Y0059612D01*
X0315317Y0060410D02*
X0315468Y0060410D01*
X0315423Y0061209D02*
X0315317Y0061209D01*
X0315317Y0062007D02*
X0315599Y0062007D01*
X0315317Y0062806D02*
X0316071Y0062806D01*
X0315317Y0063604D02*
X0317277Y0063604D01*
X0318912Y0063604D02*
X0333246Y0063604D01*
X0333246Y0062806D02*
X0320118Y0062806D01*
X0320590Y0062007D02*
X0333246Y0062007D01*
X0333246Y0061209D02*
X0320766Y0061209D01*
X0320721Y0060410D02*
X0333246Y0060410D01*
X0333246Y0059612D02*
X0320390Y0059612D01*
X0319635Y0058813D02*
X0333246Y0058813D01*
X0333246Y0064403D02*
X0315031Y0064403D01*
X0314700Y0065201D02*
X0333246Y0065201D01*
X0333246Y0066000D02*
X0314370Y0066000D01*
X0314039Y0066798D02*
X0333246Y0066798D01*
X0333246Y0067597D02*
X0313413Y0067597D01*
X0313838Y0068395D02*
X0312614Y0068395D01*
X0313043Y0069194D02*
X0311816Y0069194D01*
X0312714Y0069992D02*
X0310576Y0069992D01*
X0314510Y0052425D02*
X0321008Y0052425D01*
X0320010Y0051627D02*
X0316393Y0051627D01*
X0317594Y0050828D02*
X0319230Y0050828D01*
X0318900Y0050030D02*
X0317990Y0050030D01*
X0318411Y0049231D02*
X0318569Y0049231D01*
X0319109Y0045238D02*
X0319200Y0045238D01*
X0319109Y0044440D02*
X0319935Y0044440D01*
X0319109Y0043641D02*
X0320828Y0043641D01*
X0288704Y0016492D02*
X0281609Y0016492D01*
X0282517Y0015694D02*
X0289035Y0015694D01*
X0289640Y0014895D02*
X0283315Y0014895D01*
X0283695Y0014097D02*
X0290438Y0014097D01*
X0295940Y0014097D02*
X0297120Y0014097D01*
X0297120Y0014895D02*
X0296738Y0014895D01*
X0297120Y0013298D02*
X0284026Y0013298D01*
X0284267Y0012500D02*
X0297120Y0012500D01*
X0297120Y0011701D02*
X0284267Y0011701D01*
X0284267Y0010903D02*
X0297120Y0010903D01*
X0297120Y0010104D02*
X0284124Y0010104D01*
X0283793Y0009305D02*
X0297120Y0009305D01*
X0296550Y0008507D02*
X0283463Y0008507D01*
X0282754Y0007708D02*
X0295752Y0007708D01*
X0294953Y0006910D02*
X0281955Y0006910D01*
X0280253Y0006111D02*
X0294155Y0006111D01*
X0293356Y0005313D02*
X0223833Y0005313D01*
X0224631Y0004514D02*
X0245552Y0004514D01*
X0242259Y0003716D02*
X0225784Y0003716D01*
X0227881Y0006111D02*
X0223034Y0006111D01*
X0222358Y0006910D02*
X0226179Y0006910D01*
X0225380Y0007708D02*
X0222099Y0007708D01*
X0221960Y0008507D02*
X0224671Y0008507D01*
X0224341Y0009305D02*
X0221931Y0009305D01*
X0221931Y0010104D02*
X0224010Y0010104D01*
X0223867Y0010903D02*
X0221931Y0010903D01*
X0221931Y0011701D02*
X0223867Y0011701D01*
X0223867Y0012500D02*
X0221931Y0012500D01*
X0221931Y0013298D02*
X0224108Y0013298D01*
X0224439Y0014097D02*
X0221931Y0014097D01*
X0221931Y0014895D02*
X0224818Y0014895D01*
X0225617Y0015694D02*
X0221931Y0015694D01*
X0221931Y0016492D02*
X0226525Y0016492D01*
X0234315Y0014895D02*
X0273818Y0014895D01*
X0273439Y0014097D02*
X0234695Y0014097D01*
X0235026Y0013298D02*
X0273108Y0013298D01*
X0272867Y0012500D02*
X0235267Y0012500D01*
X0235267Y0011701D02*
X0272867Y0011701D01*
X0272867Y0010903D02*
X0235267Y0010903D01*
X0235124Y0010104D02*
X0273010Y0010104D01*
X0273341Y0009305D02*
X0234793Y0009305D01*
X0234463Y0008507D02*
X0273671Y0008507D01*
X0274380Y0007708D02*
X0233754Y0007708D01*
X0232955Y0006910D02*
X0275179Y0006910D01*
X0276881Y0006111D02*
X0231253Y0006111D01*
X0252512Y0004514D02*
X0292558Y0004514D01*
X0291759Y0003716D02*
X0254484Y0003716D01*
M02*
